<svg width="45" height="45" viewBox="0 0 45 45" fill="none" xmlns="http://www.w3.org/2000/svg">
<path d="M39.6818 23.3674C38.5337 21.5784 36.9162 20.1468 35.0041 19.2277C34.5665 19.0172 34.0414 19.2015 33.8311 19.639C33.6208 20.0765 33.8049 20.6016 34.2425 20.8119C37.5745 22.4136 39.7274 25.836 39.7274 29.5307C39.7274 31.1117 39.3376 32.6796 38.6005 34.0651C38.3725 34.4935 38.535 35.0258 38.9636 35.2538C39.0951 35.3237 39.2364 35.357 39.3756 35.357C39.6901 35.357 39.9943 35.1877 40.1523 34.8907C41.0243 33.2521 41.4852 31.3986 41.4852 29.5307C41.4852 27.337 40.8616 25.2057 39.6818 23.3674Z" fill="white"/>
<path d="M31.4361 18.1056L31.377 18.1055C30.8916 18.1055 30.498 18.499 30.498 18.9844C30.498 19.4698 30.8916 19.8633 31.377 19.8633L31.4278 19.8634C31.4292 19.8634 31.4306 19.8634 31.4321 19.8634C31.9155 19.8634 32.3086 19.4726 32.3109 18.9886C32.3131 18.5032 31.9214 18.1078 31.4361 18.1056Z" fill="white"/>
<path d="M25.8754 38.2501C22.5435 36.6483 20.3906 33.226 20.3906 29.5313C20.3906 27.9503 20.7803 26.3825 21.5175 24.997C21.7455 24.5685 21.5829 24.0362 21.1544 23.8082C20.726 23.5803 20.1936 23.7428 19.9657 24.1713C19.0937 25.81 18.6328 27.6635 18.6328 29.5313C18.6328 31.7251 19.2564 33.8562 20.4361 35.6946C21.5843 37.4836 23.2018 38.9152 25.1139 39.8345C25.2366 39.8935 25.3664 39.9214 25.4941 39.9214C25.8214 39.9214 26.1355 39.7378 26.2868 39.4231C26.497 38.9856 26.3129 38.4605 25.8754 38.2501Z" fill="white"/>
<path d="M28.7404 39.1994L28.6895 39.1992C28.2019 39.1983 27.8088 39.5885 27.8067 40.074C27.8044 40.5594 28.1962 40.9547 28.6815 40.957L28.7404 40.9572C29.2257 40.9572 29.6193 40.5636 29.6193 40.0783C29.6193 39.593 29.2257 39.1994 28.7404 39.1994Z" fill="white"/>
<path d="M34.0496 15.1319C33.9426 14.877 33.8115 14.6368 33.6591 14.414H35.9472C38.1765 14.414 39.9902 12.6003 39.9902 10.3711C39.9902 8.14182 38.1765 6.32811 35.9472 6.32811H28.9089C29.3564 5.67755 29.6191 4.89049 29.6191 4.04296C29.6191 1.81371 27.8054 0 25.5761 0H4.04296C1.81371 0 0 1.81371 0 4.04296C0 6.27221 1.81371 8.08592 4.04296 8.08592H11.0812C10.6338 8.73649 10.3711 9.52355 10.3711 10.3711C10.3711 11.2186 10.6337 12.0057 11.0812 12.6562H8.78905C6.55979 12.6562 4.74608 14.4699 4.74608 16.6992C4.74608 17.9795 5.34497 19.122 6.2767 19.8632C5.34497 20.6045 4.74608 21.747 4.74608 23.0273C4.74608 24.3076 5.34497 25.4501 6.2767 26.1914C5.34497 26.9326 4.74608 28.0751 4.74608 29.3554C4.74608 30.6357 5.34497 31.7782 6.2767 32.5195C5.34497 33.2607 4.74608 34.4032 4.74608 35.6835C4.74608 37.9128 6.55979 39.7265 8.78905 39.7265H19.1469C21.8756 42.6451 25.7574 44.4727 30.0586 44.4727C38.2973 44.4727 45 37.77 45 29.5313C45 22.6743 40.3568 16.8823 34.0496 15.1319ZM35.9472 8.08592C37.2073 8.08592 38.2324 9.11108 38.2324 10.3711C38.2324 11.6311 37.2073 12.6562 35.9472 12.6562H30.3222H14.414C13.154 12.6562 12.1289 11.6311 12.1289 10.3711C12.1289 9.11108 13.154 8.08592 14.414 8.08592H35.9472ZM4.04296 6.32811C2.78288 6.32811 1.75781 5.30296 1.75781 4.04296C1.75781 2.78296 2.78288 1.75781 4.04296 1.75781H25.5761C26.8362 1.75781 27.8613 2.78296 27.8613 4.04296C27.8613 5.30296 26.8362 6.32811 25.5761 6.32811H4.04296ZM8.78905 14.414H30.3222C30.6762 14.414 31.0152 14.4963 31.3193 14.6436C30.9036 14.6087 30.4833 14.5899 30.0586 14.5899C25.9326 14.5899 22.192 16.2712 19.4855 18.9843H8.78905C7.52905 18.9843 6.50389 17.9592 6.50389 16.6992C6.50389 15.4392 7.52905 14.414 8.78905 14.414ZM8.78905 20.7421H17.9837C16.986 22.1091 16.2146 23.6509 15.7247 25.3125H8.78905C7.52896 25.3125 6.50389 24.2874 6.50389 23.0273C6.50389 21.7673 7.52896 20.7421 8.78905 20.7421ZM8.78905 27.0703H15.3211C15.1877 27.8712 15.1172 28.6931 15.1172 29.5313C15.1172 30.2472 15.169 30.9512 15.2668 31.6406H8.78905C7.52896 31.6406 6.50389 30.6155 6.50389 29.3554C6.50389 28.0953 7.52896 27.0703 8.78905 27.0703ZM8.78905 37.9687C7.52896 37.9687 6.50389 36.9436 6.50389 35.6835C6.50389 34.4234 7.52896 33.3984 8.78905 33.3984H15.6257C16.0692 35.0519 16.7896 36.5928 17.7344 37.9687H8.78905ZM30.0586 42.7149C22.7892 42.7149 16.8751 36.8007 16.8751 29.5313C16.8751 22.2619 22.7892 16.3477 30.0586 16.3477C37.328 16.3477 43.2422 22.2619 43.2422 29.5313C43.2422 36.8007 37.328 42.7149 30.0586 42.7149Z" fill="white"/>
<path d="M26.2165 31.7363L27.3336 31.7363L25.2337 25.7363L24.0998 25.7363L22 31.7363L23.1171 31.7363L23.6211 30.1983L25.7125 30.1983L26.2165 31.7363ZM24.6794 26.7758C24.6794 26.7758 24.8054 27.3673 24.9146 27.7053L25.4437 29.311L23.8814 29.311L24.4106 27.7053C24.5282 27.3673 24.6626 26.7758 24.6626 26.7758L24.6794 26.7758Z" fill="white"/>
<path d="M28.0956 31.7363L31.7997 31.7363L31.7997 30.7983L29.1791 30.7983L29.1791 29.1842L31.1865 29.1842L31.1865 28.2462L29.1791 28.2462L29.1791 26.6744L31.6653 26.6744L31.6653 25.7363L28.0956 25.7363L28.0956 31.7363Z" fill="white"/>
<path d="M32.9268 31.7363L34.9594 31.7363C36.7989 31.7363 38 30.6208 38 28.7279C38 26.8349 36.7989 25.7363 34.9594 25.7363L32.9268 25.7363L32.9268 31.7363ZM34.0103 30.7983L34.0103 26.6744L34.9006 26.6744C36.0934 26.6744 36.8829 27.3927 36.8829 28.7279C36.8829 30.08 36.1102 30.7983 34.9006 30.7983L34.0103 30.7983Z" fill="white"/>
</svg>
