<svg width="40" height="103" viewBox="0 0 40 103" fill="none" xmlns="http://www.w3.org/2000/svg">
<g clip-path="url(#clip0_808_438)">
<path d="M36.9487 22.9625H36.0613V21.9871C36.0613 21.2716 35.8366 20.6083 35.4552 20.0627C36.1552 18.3857 36.431 16.8041 36.3444 14.992C36.224 12.4759 35.2682 10.1095 33.653 8.32844C31.9946 6.49961 29.8226 5.49242 27.5372 5.49242C24.0494 5.49242 21.1941 7.6532 20.0126 8.7032C18.865 7.6432 16.0894 5.49242 12.4627 5.49242C10.1775 5.49242 8.00547 6.49961 6.34695 8.32844C4.73172 10.1095 3.77594 12.476 3.65555 14.9921C3.56906 16.8044 3.84477 18.386 4.54445 20.0632C4.16328 20.6087 3.93875 21.2719 3.93875 21.9871V22.9625H3.05133C1.36883 22.9625 0 24.3358 0 26.0237C0 27.7116 1.36883 29.0848 3.05133 29.0848H3.93875V30.0602C3.93875 31.913 5.44109 33.4204 7.28781 33.4204C8.10016 33.4204 8.8457 33.1285 9.42617 32.6441C9.97586 33.7476 11.1125 34.5076 12.4234 34.5076C14.2702 34.5076 15.7725 33.0002 15.7725 31.1474V30.9632C17.9348 32.505 19.5587 33.6003 19.5776 33.613C19.7095 33.702 19.8618 33.7464 20.0141 33.7464C20.1663 33.7464 20.3186 33.702 20.4505 33.6131C20.4692 33.6005 22.0793 32.5149 24.2273 30.9828V31.1475C24.2273 33.0003 25.7296 34.5077 27.5763 34.5077C28.8872 34.5077 30.0239 33.7477 30.5736 32.6441C31.1541 33.1286 31.8997 33.4205 32.712 33.4205C34.5587 33.4205 36.061 31.9131 36.061 30.0603V29.0849H36.9484C38.6309 29.0849 39.9998 27.7117 39.9998 26.0237C40 24.3358 38.6312 22.9625 36.9487 22.9625V22.9625ZM5.21633 15.0667C5.42766 10.6491 8.67836 7.055 12.4627 7.055C16.4581 7.055 19.3877 10.2804 19.4159 10.312C19.5612 10.4758 19.7691 10.5706 19.988 10.5741C20.2081 10.5786 20.4177 10.4887 20.5682 10.3297C20.5992 10.297 23.7127 7.055 27.5372 7.055C31.3215 7.055 34.5723 10.6491 34.7836 15.0667C34.8502 16.4604 34.6685 17.6985 34.2016 18.9788C33.7526 18.7541 33.247 18.627 32.7122 18.627C31.8998 18.627 31.1543 18.9189 30.5738 19.4034C30.0241 18.2998 28.8875 17.5398 27.5766 17.5398C25.7298 17.5398 24.2275 19.0472 24.2275 20.9V22.9625H15.7726V20.9C15.7726 19.0472 14.2702 17.5398 12.4235 17.5398C11.1127 17.5398 9.97594 18.2998 9.42625 19.4034C8.8457 18.9189 8.10016 18.627 7.28789 18.627C6.75289 18.627 6.24719 18.7542 5.79813 18.979C5.33133 17.6986 5.14977 16.4604 5.21633 15.0667V15.0667ZM15.7726 24.525H24.2275V27.5223H15.7726V24.525ZM3.05133 27.5223C2.23039 27.5223 1.5625 26.85 1.5625 26.0237C1.5625 25.1973 2.23039 24.525 3.05133 24.525H3.93875V27.5223H3.05133V27.5223ZM7.28781 31.8579C6.30273 31.8579 5.50125 31.0515 5.50125 30.0602V21.9871C5.50125 20.9959 6.30273 20.1895 7.28781 20.1895C8.27289 20.1895 9.07438 20.9959 9.07438 21.9871V30.0602C9.07438 31.0514 8.27297 31.8579 7.28781 31.8579ZM14.2101 31.1473C14.2101 32.1386 13.4086 32.945 12.4235 32.945C11.4384 32.945 10.637 32.1386 10.637 31.1473V20.9001C10.637 19.9088 11.4384 19.1024 12.4235 19.1024C13.4086 19.1024 14.2101 19.9088 14.2101 20.9001V31.1473ZM20.0142 32.0203C19.2794 31.5183 17.6922 30.4242 15.8343 29.0848H24.1924C22.3362 30.4242 20.7491 31.5184 20.0142 32.0203ZM29.3631 31.1473C29.3631 32.1386 28.5616 32.945 27.5766 32.945C26.5915 32.945 25.79 32.1386 25.79 31.1473V20.9001C25.79 19.9088 26.5915 19.1024 27.5766 19.1024C28.5616 19.1024 29.3631 19.9088 29.3631 20.9001V31.1473ZM34.4988 30.0602C34.4988 31.0515 33.6973 31.8579 32.7122 31.8579C31.7271 31.8579 30.9256 31.0515 30.9256 30.0602V21.9871C30.9256 20.9959 31.7271 20.1895 32.7122 20.1895C33.6973 20.1895 34.4988 20.9959 34.4988 21.9871V30.0602ZM36.9487 27.5223H36.0613V24.525H36.9487C37.7696 24.525 38.4375 25.1973 38.4375 26.0237C38.4375 26.85 37.7696 27.5223 36.9487 27.5223Z" fill="black"/>
</g>
<g clip-path="url(#clip1_808_438)">
<path d="M36.9487 85.9625H36.0613V84.9871C36.0613 84.2716 35.8366 83.6083 35.4552 83.0627C36.1552 81.3857 36.431 79.8041 36.3444 77.992C36.224 75.4759 35.2682 73.1095 33.653 71.3284C31.9946 69.4996 29.8226 68.4924 27.5372 68.4924C24.0494 68.4924 21.1941 70.6532 20.0126 71.7032C18.865 70.6432 16.0894 68.4924 12.4627 68.4924C10.1775 68.4924 8.00547 69.4996 6.34695 71.3284C4.73172 73.1095 3.77594 75.476 3.65555 77.9921C3.56906 79.8044 3.84477 81.386 4.54445 83.0632C4.16328 83.6087 3.93875 84.2719 3.93875 84.9871V85.9625H3.05133C1.36883 85.9625 0 87.3358 0 89.0237C0 90.7116 1.36883 92.0848 3.05133 92.0848H3.93875V93.0602C3.93875 94.913 5.44109 96.4204 7.28781 96.4204C8.10016 96.4204 8.8457 96.1285 9.42617 95.6441C9.97586 96.7476 11.1125 97.5076 12.4234 97.5076C14.2702 97.5076 15.7725 96.0002 15.7725 94.1474V93.9632C17.9348 95.505 19.5587 96.6003 19.5776 96.613C19.7095 96.702 19.8618 96.7464 20.0141 96.7464C20.1663 96.7464 20.3186 96.702 20.4505 96.6131C20.4692 96.6005 22.0793 95.5149 24.2273 93.9828V94.1475C24.2273 96.0003 25.7296 97.5077 27.5763 97.5077C28.8872 97.5077 30.0239 96.7477 30.5736 95.6441C31.1541 96.1286 31.8997 96.4205 32.712 96.4205C34.5587 96.4205 36.061 94.9131 36.061 93.0603V92.0849H36.9484C38.6309 92.0849 39.9998 90.7117 39.9998 89.0238C40 87.3358 38.6312 85.9625 36.9487 85.9625V85.9625ZM5.21633 78.0667C5.42766 73.6491 8.67836 70.055 12.4627 70.055C16.4581 70.055 19.3877 73.2804 19.4159 73.312C19.5612 73.4758 19.7691 73.5706 19.988 73.5741C20.2081 73.5786 20.4177 73.4887 20.5682 73.3297C20.5992 73.297 23.7127 70.055 27.5372 70.055C31.3215 70.055 34.5723 73.6491 34.7836 78.0667C34.8502 79.4604 34.6685 80.6985 34.2016 81.9788C33.7526 81.7541 33.247 81.627 32.7122 81.627C31.8998 81.627 31.1543 81.9189 30.5738 82.4034C30.0241 81.2998 28.8875 80.5398 27.5766 80.5398C25.7298 80.5398 24.2275 82.0472 24.2275 83.9V85.9625H15.7726V83.9C15.7726 82.0472 14.2702 80.5398 12.4235 80.5398C11.1127 80.5398 9.97594 81.2998 9.42625 82.4034C8.8457 81.9189 8.10016 81.627 7.28789 81.627C6.75289 81.627 6.24719 81.7542 5.79813 81.979C5.33133 80.6986 5.14977 79.4604 5.21633 78.0667V78.0667ZM15.7726 87.525H24.2275V90.5223H15.7726V87.525ZM3.05133 90.5223C2.23039 90.5223 1.5625 89.85 1.5625 89.0237C1.5625 88.1973 2.23039 87.525 3.05133 87.525H3.93875V90.5223H3.05133V90.5223ZM7.28781 94.8579C6.30273 94.8579 5.50125 94.0515 5.50125 93.0602V84.9871C5.50125 83.9959 6.30273 83.1895 7.28781 83.1895C8.27289 83.1895 9.07438 83.9959 9.07438 84.9871V93.0602C9.07438 94.0514 8.27297 94.8579 7.28781 94.8579ZM14.2101 94.1473C14.2101 95.1386 13.4086 95.945 12.4235 95.945C11.4384 95.945 10.637 95.1386 10.637 94.1473V83.9001C10.637 82.9088 11.4384 82.1024 12.4235 82.1024C13.4086 82.1024 14.2101 82.9088 14.2101 83.9001V94.1473ZM20.0142 95.0203C19.2794 94.5183 17.6922 93.4242 15.8343 92.0848H24.1924C22.3362 93.4242 20.7491 94.5184 20.0142 95.0203ZM29.3631 94.1473C29.3631 95.1386 28.5616 95.945 27.5766 95.945C26.5915 95.945 25.79 95.1386 25.79 94.1473V83.9001C25.79 82.9088 26.5915 82.1024 27.5766 82.1024C28.5616 82.1024 29.3631 82.9088 29.3631 83.9001V94.1473ZM34.4988 93.0602C34.4988 94.0515 33.6973 94.8579 32.7122 94.8579C31.7271 94.8579 30.9256 94.0515 30.9256 93.0602V84.9871C30.9256 83.9959 31.7271 83.1895 32.7122 83.1895C33.6973 83.1895 34.4988 83.9959 34.4988 84.9871V93.0602ZM36.9487 90.5223H36.0613V87.525H36.9487C37.7696 87.525 38.4375 88.1973 38.4375 89.0237C38.4375 89.85 37.7696 90.5223 36.9487 90.5223Z" fill="#2F85FE"/>
</g>
<defs>
<clipPath id="clip0_808_438">
<rect width="40" height="40" fill="white"/>
</clipPath>
<clipPath id="clip1_808_438">
<rect width="40" height="40" fill="white" transform="translate(0 63)"/>
</clipPath>
</defs>
</svg>
