<svg width="55" height="55" viewBox="0 0 55 55" fill="none" xmlns="http://www.w3.org/2000/svg">
<g clip-path="url(#clip0_7_162)">
<rect width="55" height="55" fill="white"/>
<g clip-path="url(#clip1_7_162)">
<path d="M5.0164 7.57362L1.55737 12.7622C1.38045 13.0273 1.36399 13.3685 1.51431 13.6497C1.66504 13.9314 1.95809 14.1066 2.27688 14.1066H11.8758C12.2849 16.122 14.0566 17.5702 16.113 17.5702C18.1693 17.5702 19.941 16.122 20.3506 14.1066H23.1176C23.5268 16.122 25.2985 17.5702 27.3548 17.5702C29.4111 17.5702 31.1828 16.122 31.5924 14.1066H34.3593C34.7685 16.122 36.5403 17.5702 38.5965 17.5702C40.6529 17.5702 42.4247 16.122 42.8342 14.1066H52.4327C52.7518 14.1066 53.0449 13.9314 53.1952 13.6497C53.3459 13.3685 53.3295 13.0273 53.1522 12.7622L49.6931 7.57362C49.5327 7.33294 49.2629 7.18853 48.9737 7.18853H48.1089V3.72951H39.4614V2H37.7318V3.72951H16.9777V2H15.2482V3.72951H6.60067V7.18853H5.73594C5.44705 7.18853 5.17687 7.33294 5.0164 7.57362ZM16.113 15.8361C15.0138 15.8348 14.0347 15.1423 13.6669 14.1066H18.5595C18.1916 15.1423 17.2121 15.8348 16.113 15.8361ZM27.3548 15.8361C26.2557 15.8348 25.2765 15.1423 24.9087 14.1066H29.8013C29.4335 15.1423 28.4538 15.8348 27.3548 15.8361ZM38.5965 15.8361C37.4975 15.8348 36.5183 15.1423 36.1505 14.1066H41.043C40.6753 15.1423 39.6957 15.8348 38.5965 15.8361ZM8.33012 5.45902H46.3794V7.18853H8.33012V5.45902ZM48.5113 8.91804L50.8167 12.377H3.89326L6.19865 8.91804H48.5113Z" fill="black"/>
<path d="M47.2441 33.131C48.6773 33.131 49.8384 31.9699 49.8384 30.5367V29.672H51.5679V27.9424H49.8384V27.0777C49.8384 25.645 48.6773 24.4834 47.2441 24.4834H45.5146V23.6187C45.5146 22.186 44.3534 21.0244 42.9204 21.0244C41.4877 21.0244 40.3261 22.186 40.3261 23.6187V24.4834H38.5965C37.1639 24.4834 36.0023 25.645 36.0023 27.0777V27.9424H34.2728V29.672H36.0023V30.5367C36.0023 31.9699 37.1639 33.131 38.5965 33.131L37.2994 34.8605H29.5167L28.2195 33.131C29.6526 33.131 30.8138 31.9699 30.8138 30.5367V29.672H32.5433V27.9424H30.8138V27.0777C30.8138 25.645 29.6526 24.4834 28.2195 24.4834H26.49V23.6187C26.49 22.186 25.3288 21.0244 23.8957 21.0244C22.4631 21.0244 21.3015 22.186 21.3015 23.6187V24.4834H19.572C18.1393 24.4834 16.9777 25.645 16.9777 27.0777V27.9424H15.2482V29.672H16.9777V30.5367C16.9777 31.9699 18.1393 33.131 19.572 33.131L18.2748 34.8605H12.6315C13.2037 34.1165 13.5157 33.2049 13.5187 32.2663V31.4014H12.6315C13.2037 30.6575 13.5157 29.7458 13.5187 28.8072V27.9424H12.6315C13.2037 27.1984 13.5157 26.2868 13.5187 25.3481V24.4834H12.6315C13.2037 23.7394 13.5157 22.8278 13.5187 21.8891V21.0244H3.14162V21.8891C3.14499 22.8278 3.45659 23.7394 4.02918 24.4834H3.14162V25.3481C3.14499 26.2868 3.45659 27.1984 4.02918 27.9424H3.14162V28.8072C3.14499 29.7458 3.45659 30.6575 4.02918 31.4014H3.14162V32.2663C3.14499 33.2049 3.45659 34.1165 4.02918 34.8605H1.41211V53.8851H6.60066V46.9671H48.1088V53.8851H53.2974V34.8605H48.5412L47.2441 33.131ZM7.46539 36.59H47.2441V40.1356C46.5825 40.3045 45.9744 40.6397 45.4783 41.1093C45.0847 41.5332 44.5321 41.7743 43.9535 41.7743C43.3746 41.7743 42.8223 41.5332 42.4285 41.1093C40.962 39.6901 38.6337 39.6901 37.1673 41.1093C36.7746 41.5332 36.2227 41.7743 35.6446 41.7743C35.067 41.7743 34.5152 41.5332 34.1225 41.1093C32.6577 39.6901 30.3312 39.6901 28.8664 41.1093C28.4737 41.5328 27.9223 41.7734 27.3451 41.7734C26.7674 41.7734 26.216 41.5328 25.8232 41.1093C24.3585 39.6901 22.0315 39.6901 20.5668 41.1093C20.1736 41.5328 19.6226 41.7734 19.045 41.7734C18.4674 41.7734 17.9163 41.5328 17.5237 41.1093C16.0589 39.6901 13.7319 39.6901 12.2676 41.1093C11.8758 41.5328 11.3247 41.7739 10.7475 41.7739C10.1707 41.7739 9.61966 41.5328 9.22783 41.1093C8.73214 40.6419 8.12582 40.3083 7.46539 40.1398V36.59ZM42.0555 23.6187C42.0555 23.1412 42.4427 22.754 42.9204 22.754C43.3979 22.754 43.7851 23.1412 43.7851 23.6187V24.4834H42.0555V23.6187ZM37.7318 27.0777C37.7318 26.6002 38.119 26.213 38.5965 26.213H47.2441C47.7216 26.213 48.1088 26.6002 48.1088 27.0777V27.9424H37.7318V27.0777ZM37.7318 30.5367V29.672H48.1088V30.5367C48.1088 31.0142 47.7216 31.4014 47.2441 31.4014H38.5965C38.119 31.4014 37.7318 31.0142 37.7318 30.5367ZM40.7585 33.131H45.0822L46.3794 34.8605H39.4614L40.7585 33.131ZM23.031 23.6187C23.031 23.1412 23.4182 22.754 23.8957 22.754C24.3733 22.754 24.7605 23.1412 24.7605 23.6187V24.4834H23.031V23.6187ZM18.7072 27.0777C18.7072 26.6002 19.0944 26.213 19.572 26.213H28.2195C28.6971 26.213 29.0842 26.6002 29.0842 27.0777V27.9424H18.7072V27.0777ZM18.7072 30.5367V29.672H29.0842V30.5367C29.0842 31.0142 28.6971 31.4014 28.2195 31.4014H19.572C19.0944 31.4014 18.7072 31.0142 18.7072 30.5367ZM21.7338 33.131H26.0577L27.3548 34.8605H20.4367L21.7338 33.131ZM7.46539 34.8605C6.36625 34.8592 5.3871 34.1667 5.01936 33.131H11.6413C11.2736 34.1667 10.294 34.8592 9.19494 34.8605H7.46539ZM5.01936 22.754H11.6413C11.2736 23.7897 10.294 24.4822 9.19494 24.4834H7.46539C6.36625 24.4822 5.3871 23.7897 5.01936 22.754ZM5.01936 26.213H11.6413C11.2736 27.2487 10.294 27.9412 9.19494 27.9424H7.46539C6.36625 27.9412 5.3871 27.2487 5.01936 26.213ZM5.01936 29.672H11.6413C11.2736 30.7077 10.294 31.4002 9.19494 31.4014H7.46539C6.36625 31.4002 5.3871 30.7077 5.01936 29.672ZM4.87112 52.1556H3.14162V46.9671H4.87112V52.1556ZM51.5679 52.1556H49.8384V46.9671H51.5679V52.1556ZM51.5679 45.2375H3.14162V36.59H5.73584V40.9138C5.73584 41.3913 6.12304 41.7785 6.60066 41.7785C7.17789 41.7777 7.7289 42.0183 8.12026 42.4428C9.58381 43.8631 11.9116 43.8631 13.3752 42.4428C13.7678 42.0201 14.3188 41.7798 14.8961 41.7798C15.4728 41.7798 16.0238 42.0201 16.4166 42.4428C17.8817 43.8623 20.2091 43.8623 21.6743 42.4428C22.067 42.0196 22.618 41.7794 23.1952 41.7794C23.7725 41.7794 24.3239 42.0196 24.7166 42.4428C26.1813 43.8623 28.5083 43.8623 29.9735 42.4428C30.3662 42.0196 30.9172 41.7794 31.4944 41.7794C32.0717 41.7794 32.6227 42.0196 33.0158 42.4428C34.481 43.8628 36.8088 43.8628 38.274 42.4428C38.667 42.018 39.2193 41.7764 39.7979 41.7764C40.3763 41.7764 40.9286 42.018 41.3217 42.4428C42.789 43.8618 45.1173 43.8618 46.5846 42.4428C46.9773 42.018 47.5304 41.7769 48.1088 41.7785C48.5865 41.7785 48.9736 41.3913 48.9736 40.9138V36.59H51.5679V45.2375Z" fill="black"/>
</g>
</g>
<defs>
<clipPath id="clip0_7_162">
<rect width="55" height="55" fill="white"/>
</clipPath>
<clipPath id="clip1_7_162">
<rect width="66.71" height="51.8856" fill="white" transform="translate(-6 2)"/>
</clipPath>
</defs>
</svg>
