<svg width="575" height="92" viewBox="0 0 575 92" fill="none" xmlns="http://www.w3.org/2000/svg">
<g filter="url(#filter0_d_815_249)">
<mask id="path-1-outside-1_815_249" maskUnits="userSpaceOnUse" x="2" y="0" width="571" height="88" fill="black">
<rect fill="white" x="2" width="571" height="88"/>
<path fill-rule="evenodd" clip-rule="evenodd" d="M3 11C3 5.47715 7.47715 1 13 1H562C567.523 1 572 5.47715 572 11V34.0199C571.79 34.0067 571.578 34 571.364 34C565.841 34 561.364 38.4772 561.364 44C561.364 49.5228 565.841 54 571.364 54C571.578 54 571.79 53.9933 572 53.9801V77C572 82.5229 567.523 87 562 87H13C7.47714 87 3 82.5229 3 77V53.9507C3.32891 53.9834 3.6625 54.0001 4 54.0001C9.52285 54.0001 14 49.523 14 44.0001C14 38.4773 9.52285 34.0001 4 34.0001C3.6625 34.0001 3.32891 34.0168 3 34.0495V11Z"/>
</mask>
<path fill-rule="evenodd" clip-rule="evenodd" d="M3 11C3 5.47715 7.47715 1 13 1H562C567.523 1 572 5.47715 572 11V34.0199C571.79 34.0067 571.578 34 571.364 34C565.841 34 561.364 38.4772 561.364 44C561.364 49.5228 565.841 54 571.364 54C571.578 54 571.79 53.9933 572 53.9801V77C572 82.5229 567.523 87 562 87H13C7.47714 87 3 82.5229 3 77V53.9507C3.32891 53.9834 3.6625 54.0001 4 54.0001C9.52285 54.0001 14 49.523 14 44.0001C14 38.4773 9.52285 34.0001 4 34.0001C3.6625 34.0001 3.32891 34.0168 3 34.0495V11Z" fill="url(#paint0_linear_815_249)"/>
<path d="M572 34.0199L571.937 35.0179L573 35.0846V34.0199H572ZM572 53.9801H573V52.9154L571.937 52.9821L572 53.9801ZM3 53.9507L3.09881 52.9556L2 52.8465V53.9507H3ZM3 34.0495H2V35.1537L3.09881 35.0446L3 34.0495ZM13 0C6.92487 0 2 4.92487 2 11H4C4 6.02944 8.02944 2 13 2V0ZM562 0H13V2H562V0ZM573 11C573 4.92487 568.075 0 562 0V2C566.971 2 571 6.02943 571 11H573ZM573 34.0199V11H571V34.0199H573ZM571.364 35C571.557 35 571.748 35.006 571.937 35.0179L572.063 33.0218C571.832 33.0074 571.599 33 571.364 33V35ZM562.364 44C562.364 39.0294 566.394 35 571.364 35V33C565.289 33 560.364 37.9249 560.364 44H562.364ZM571.364 53C566.394 53 562.364 48.9706 562.364 44H560.364C560.364 50.0751 565.289 55 571.364 55V53ZM571.937 52.9821C571.748 52.994 571.557 53 571.364 53V55C571.599 55 571.832 54.9926 572.063 54.9782L571.937 52.9821ZM573 77V53.9801H571V77H573ZM562 88C568.075 88 573 83.0751 573 77H571C571 81.9706 566.971 86 562 86V88ZM13 88H562V86H13V88ZM2 77C2 83.0751 6.92485 88 13 88V86C8.02942 86 4 81.9706 4 77H2ZM2 53.9507V77H4V53.9507H2ZM4 53.0001C3.69554 53.0001 3.39492 52.985 3.09881 52.9556L2.90119 54.9459C3.26289 54.9818 3.62946 55.0001 4 55.0001V53.0001ZM13 44.0001C13 48.9707 8.97056 53.0001 4 53.0001V55.0001C10.0751 55.0001 15 50.0753 15 44.0001H13ZM4 35.0001C8.97056 35.0001 13 39.0296 13 44.0001H15C15 37.925 10.0751 33.0001 4 33.0001V35.0001ZM3.09881 35.0446C3.39492 35.0152 3.69554 35.0001 4 35.0001V33.0001C3.62946 33.0001 3.26289 33.0185 2.90119 33.0544L3.09881 35.0446ZM2 11V34.0495H4V11H2Z" fill="#2F85FE" mask="url(#path-1-outside-1_815_249)"/>
</g>
<path d="M30.6162 34.1724H33.9139C35.5948 34.1724 37.0575 33.3512 37.0575 31.5292C37.0575 30.6053 36.5828 29.6814 35.5819 29.3863V29.3607C36.2748 28.9885 36.6854 28.2572 36.6854 27.4103C36.6854 25.909 35.5178 25.0622 33.8754 25.0622H30.6162V34.1724ZM32.2715 28.7832V26.4864H33.8497C34.6196 26.4864 35.0045 26.9612 35.0045 27.6156C35.0045 28.27 34.5939 28.7832 33.8754 28.7832H32.2715ZM32.2715 32.7481V30.1177H34.0422C34.8762 30.1177 35.3638 30.6695 35.3638 31.4265C35.3638 32.1964 34.889 32.7481 34.0422 32.7481H32.2715Z" fill="white"/>
<path d="M38.7205 30.9004C38.7205 32.9406 40.1961 34.3264 42.4031 34.3264C44.5973 34.3264 46.0729 32.9406 46.0729 30.9004V25.0622H44.4176V30.8876C44.4176 32.1194 43.6093 32.8123 42.3903 32.8123C41.1713 32.8123 40.3758 32.1194 40.3758 30.9004V25.0622H38.7205V30.9004Z" fill="white"/>
<path d="M50.1584 34.1724H51.8136V30.3615L54.8418 25.0622H52.9684L51.557 27.7439C51.2618 28.3085 51.0052 28.9629 51.0052 28.9629H50.9796C50.9667 28.9757 50.7229 28.3085 50.4278 27.7439L49.0035 25.0622H47.1302L50.1584 30.3615V34.1724Z" fill="white"/>
<path d="M56.9139 32.249H58.8624V28.4209C58.8624 28.3373 58.8624 28.2538 58.8624 28.1702C58.8624 28.0825 58.8645 28.0053 58.8686 27.9384C58.8686 27.8632 58.8707 27.7902 58.8749 27.7191H58.8499C58.8248 27.7693 58.7956 27.8215 58.7621 27.8758C58.7329 27.9217 58.6953 27.9739 58.6494 28.0324C58.6034 28.0909 58.5512 28.1494 58.4927 28.2078L57.9414 28.7091L56.6445 27.3182L59.1193 25H61.0552V32.249H63.0225V34.1724H56.9139V32.249Z" fill="white"/>
<path d="M30.7188 52.2988H37.2754V54.5429H33.3356V56.7869H36.6029V59.0309H33.3356V63H30.7188V52.2988Z" fill="white"/>
<path d="M38.9347 52.2988H42.6625C42.9354 52.2988 43.1742 52.3037 43.3788 52.3134C43.5884 52.3232 43.7736 52.3378 43.9344 52.3573C44.1001 52.3768 44.2462 52.4036 44.3729 52.4377C44.5045 52.4669 44.6288 52.5035 44.7457 52.5474C45.0479 52.6643 45.3207 52.8202 45.5644 53.0152C45.808 53.2052 46.0151 53.4318 46.1857 53.6949C46.3563 53.9581 46.4878 54.2553 46.5804 54.5867C46.673 54.9132 46.7193 55.2714 46.7193 55.6612C46.7193 55.9487 46.6852 56.2362 46.617 56.5237C46.5487 56.8112 46.4464 57.0866 46.31 57.3497C46.1784 57.608 46.0127 57.8443 45.8129 58.0587C45.6131 58.2731 45.3817 58.4486 45.1185 58.585V58.6143C45.1478 58.6581 45.1819 58.7093 45.2208 58.7678C45.255 58.8214 45.2964 58.8896 45.3451 58.9724C45.3938 59.0504 45.4523 59.1454 45.5205 59.2575L47.6038 63H44.6799L42.7795 59.3891H41.5515V63H38.9347V52.2988ZM42.6918 57.145C43.1157 57.145 43.4471 57.033 43.6858 56.8088C43.9295 56.5846 44.0513 56.2582 44.0513 55.8293C44.0513 55.6247 44.0294 55.4444 43.9855 55.2884C43.9417 55.1276 43.8588 54.9936 43.737 54.8864C43.6152 54.7743 43.4495 54.689 43.24 54.6306C43.0304 54.5721 42.7624 54.5429 42.4359 54.5429H41.5515V57.145H42.6918Z" fill="white"/>
<path d="M49.168 52.2988H55.8781V54.5429H51.7848V56.4872H55.0522V58.7312H51.7848V60.7559H56.0828V63H49.168V52.2988Z" fill="white"/>
<path d="M57.9687 52.2988H64.6788V54.5429H60.5855V56.4872H63.8528V58.7312H60.5855V60.7559H64.8835V63H57.9687V52.2988Z" fill="white"/>
<path d="M30 43.2998C30 46.1612 32.0658 48.0217 34.4653 48.0217C36.159 48.0217 37.1086 47.0465 37.1086 47.0465H37.1342C37.1342 47.0465 37.1214 47.239 37.1214 47.4315V47.8677H38.5328V43.0688H35.6458V44.4931H37.0444V45.5581C37.0444 45.5581 36.1334 46.5076 34.7604 46.5076C33.0539 46.5076 31.7066 45.2245 31.7066 43.2485C31.7066 41.5291 32.7972 40.1176 34.8374 40.1176C36.2874 40.1176 37.2625 40.9901 37.2625 40.9901L38.0838 39.7583C38.0838 39.7583 36.9289 38.6035 34.6963 38.6035C31.9889 38.6035 30 40.6565 30 43.2998Z" fill="white"/>
<path d="M40.3647 47.8677H46.0233V46.4435H42.02V43.9927H45.0867V42.5684H42.02V40.1818H45.818V38.7575H40.3647V47.8677Z" fill="white"/>
<path d="M49.6315 47.8677H51.2867V40.1818H54.2764V38.7575H46.6418V40.1818H49.6315V47.8677Z" fill="white"/>
<path d="M56.9136 45.9443H58.8621V42.1162C58.8621 42.0327 58.8621 41.9491 58.8621 41.8656C58.8621 41.7779 58.8642 41.7006 58.8683 41.6338C58.8683 41.5586 58.8704 41.4855 58.8746 41.4145H58.8496C58.8245 41.4646 58.7953 41.5168 58.7618 41.5711C58.7326 41.6171 58.695 41.6693 58.6491 41.7277C58.6031 41.7862 58.5509 41.8447 58.4924 41.9032L57.9411 42.4044L56.6442 41.0135L59.119 38.6953H61.0549V45.9443H63.0222V47.8677H56.9136V45.9443Z" fill="white"/>
<path d="M389.568 44H402.756V40.892H393.46C393.544 37.14 402.448 36.048 402.448 29.664C402.448 25.912 399.48 23.784 395.98 23.784C391.22 23.784 389.4 27.76 389.4 27.76L392.088 29.552C392.088 29.552 393.348 27.2 395.672 27.2C397.352 27.2 398.696 28.236 398.696 29.972C398.696 33.92 389.4 35.068 389.4 42.236C389.4 42.796 389.484 43.356 389.568 44Z" fill="white"/>
<path d="M375.615 62.6C375.615 65.735 377.985 68.18 381.12 68.18C384.255 68.18 386.625 65.735 386.625 62.6C386.625 59.555 384.255 57.17 381.12 57.17C377.985 57.17 375.615 59.555 375.615 62.6ZM377.61 62.6C377.61 60.5 379.17 58.94 381.12 58.94C383.07 58.94 384.63 60.5 384.63 62.6C384.63 64.79 383.07 66.41 381.12 66.41C379.17 66.41 377.61 64.79 377.61 62.6ZM388.686 68H390.591V61.985H392.226V60.47H390.591V60.17C390.591 59.06 391.521 58.925 392.061 58.925C392.286 58.925 392.451 58.955 392.451 58.955V57.335C392.451 57.335 392.196 57.29 391.806 57.29C390.741 57.29 388.686 57.62 388.686 60.125V60.47H387.741V61.985H388.686V68ZM393.886 68H395.791V61.985H397.426V60.47H395.791V60.17C395.791 59.06 396.721 58.925 397.261 58.925C397.486 58.925 397.651 58.955 397.651 58.955V57.335C397.651 57.335 397.396 57.29 397.006 57.29C395.941 57.29 393.886 57.62 393.886 60.125V60.47H392.941V61.985H393.886V68ZM398.156 64.175C398.156 66.35 399.731 68.18 402.266 68.18C404.171 68.18 405.341 67.085 405.341 67.085L404.606 65.72C404.606 65.72 403.631 66.56 402.401 66.56C401.261 66.56 400.226 65.87 400.106 64.535H405.386C405.386 64.535 405.431 64.025 405.431 63.8C405.431 61.775 404.246 60.17 402.041 60.17C399.761 60.17 398.156 61.82 398.156 64.175ZM400.166 63.23C400.346 62.24 401.021 61.64 401.996 61.64C402.836 61.64 403.481 62.195 403.511 63.23H400.166ZM407.002 68H408.907V64.97C408.907 64.52 408.952 64.1 409.072 63.725C409.432 62.585 410.347 62.12 411.157 62.12C411.412 62.12 411.607 62.15 411.607 62.15V60.275C411.607 60.275 411.442 60.245 411.262 60.245C410.092 60.245 409.177 61.115 408.832 62.21H408.802C408.802 62.21 408.832 61.955 408.832 61.67V60.35H407.002V68ZM412.246 67.055C412.246 67.055 413.311 68.18 415.216 68.18C417.031 68.18 418.141 67.16 418.141 65.885C418.141 63.425 414.421 63.56 414.421 62.48C414.421 62 414.901 61.79 415.396 61.79C416.566 61.79 417.271 62.45 417.271 62.45L417.976 61.04C417.976 61.04 417.136 60.17 415.411 60.17C413.761 60.17 412.486 60.995 412.486 62.42C412.486 64.88 416.206 64.73 416.206 65.87C416.206 66.32 415.741 66.56 415.201 66.56C413.956 66.56 413.116 65.72 413.116 65.72L412.246 67.055Z" fill="white"/>
<line opacity="0.4" x1="85.5" y1="2" x2="85.5" y2="85" stroke="white" stroke-linejoin="round" stroke-dasharray="2 2"/>
<line opacity="0.4" x1="351.5" y1="1" x2="351.5" y2="86" stroke="white" stroke-linejoin="round" stroke-dasharray="2 2"/>
<path d="M467.98 41.676C467.98 41.676 470.332 44.336 474.56 44.336C478.984 44.336 481.56 41.2 481.56 37.812C481.56 34.368 478.872 32.408 476.128 32.016L481 26.388V24.12H468.848V27.228H474.784C475.96 27.228 476.548 27.144 476.548 27.144V27.2C476.548 27.2 475.904 27.788 475.12 28.712L471.48 33.024L472.292 34.872H473.664C475.988 34.872 477.92 35.852 477.92 37.952C477.92 39.66 476.408 40.92 474.336 40.92C471.704 40.92 469.828 38.904 469.828 38.904L467.98 41.676ZM484.646 44H497.834V40.892H488.538C488.622 37.14 497.526 36.048 497.526 29.664C497.526 25.912 494.558 23.784 491.058 23.784C486.298 23.784 484.478 27.76 484.478 27.76L487.166 29.552C487.166 29.552 488.426 27.2 490.75 27.2C492.43 27.2 493.774 28.236 493.774 29.972C493.774 33.92 484.478 35.068 484.478 42.236C484.478 42.796 484.562 43.356 484.646 44ZM508.112 44.336C513.544 44.336 515.336 39.744 515.336 34.032C515.336 28.32 513.544 23.784 508.112 23.784C502.68 23.784 500.916 28.32 500.916 34.032C500.916 39.744 502.68 44.336 508.112 44.336ZM508.112 41.032C505.396 41.032 504.612 37.952 504.612 34.032C504.612 30.168 505.396 27.116 508.112 27.116C510.828 27.116 511.612 30.168 511.612 34.032C511.612 37.952 510.828 41.032 508.112 41.032ZM524.475 44H526.47L522.72 33.35H520.695L516.945 44H518.94L519.84 41.27H523.575L524.475 44ZM521.73 35.195C521.73 35.195 521.955 36.245 522.15 36.845L523.095 39.695H520.305L521.25 36.845C521.46 36.245 521.7 35.195 521.7 35.195H521.73ZM527.83 44H534.445V42.335H529.765V39.47H533.35V37.805H529.765V35.015H534.205V33.35H527.83V44ZM536.458 44H540.088C543.373 44 545.518 42.02 545.518 38.66C545.518 35.3 543.373 33.35 540.088 33.35H536.458V44ZM538.393 42.335V35.015H539.983C542.113 35.015 543.523 36.29 543.523 38.66C543.523 41.06 542.143 42.335 539.983 42.335H538.393Z" fill="white"/>
<path d="M468.35 68H474.965V66.335H470.285V63.47H473.87V61.805H470.285V59.015H474.725V57.35H468.35V68ZM476.033 67.055C476.033 67.055 477.098 68.18 479.003 68.18C480.818 68.18 481.928 67.16 481.928 65.885C481.928 63.425 478.208 63.56 478.208 62.48C478.208 62 478.688 61.79 479.183 61.79C480.353 61.79 481.058 62.45 481.058 62.45L481.763 61.04C481.763 61.04 480.923 60.17 479.198 60.17C477.548 60.17 476.273 60.995 476.273 62.42C476.273 64.88 479.993 64.73 479.993 65.87C479.993 66.32 479.528 66.56 478.988 66.56C477.743 66.56 476.903 65.72 476.903 65.72L476.033 67.055ZM483.79 65.195C483.79 67.76 485.905 68.075 486.97 68.075C487.33 68.075 487.555 68.03 487.555 68.03V66.365C487.555 66.365 487.42 66.395 487.21 66.395C486.685 66.395 485.695 66.215 485.695 64.955V61.985H487.435V60.47H485.695V58.265H483.835V60.47H482.8V61.985H483.79V65.195ZM489.039 68H490.944V66.095H489.039V68ZM496.104 66.725C496.104 66.725 497.409 68.18 499.779 68.18C501.999 68.18 503.289 66.755 503.289 65.06C503.289 61.655 498.279 62.12 498.279 60.23C498.279 59.48 498.984 58.955 499.884 58.955C501.219 58.955 502.239 59.885 502.239 59.885L503.079 58.31C503.079 58.31 501.999 57.17 499.899 57.17C497.859 57.17 496.329 58.49 496.329 60.26C496.329 63.53 501.354 63.2 501.354 65.105C501.354 65.975 500.619 66.395 499.809 66.395C498.309 66.395 497.154 65.27 497.154 65.27L496.104 66.725ZM504.275 65.795C504.275 67.325 505.505 68.18 506.87 68.18C508.61 68.18 509.21 66.83 509.195 66.83H509.225C509.225 66.83 509.195 67.07 509.195 67.37V68H510.95V63.215C510.95 61.28 509.78 60.17 507.77 60.17C505.955 60.17 504.77 61.115 504.77 61.115L505.49 62.48C505.49 62.48 506.495 61.745 507.59 61.745C508.43 61.745 509.06 62.09 509.06 63.095V63.2H508.805C507.56 63.2 504.275 63.365 504.275 65.795ZM506.195 65.705C506.195 64.64 507.77 64.505 508.745 64.505H509.075V64.685C509.075 65.615 508.355 66.695 507.35 66.695C506.57 66.695 506.195 66.215 506.195 65.705ZM514.658 68H516.908L519.653 60.35H517.643L516.053 65.09C515.903 65.54 515.798 66.245 515.783 66.245H515.753C515.738 66.245 515.633 65.54 515.483 65.09L513.893 60.35H511.883L514.658 68ZM520.711 59.045H522.601V57.35H520.711V59.045ZM520.711 68H522.616V60.35H520.711V68ZM524.71 68H526.615V64.49C526.615 64.13 526.645 63.785 526.75 63.47C527.035 62.555 527.785 61.91 528.805 61.91C529.78 61.91 530.02 62.54 530.02 63.47V68H531.91V63.08C531.91 61.055 530.95 60.17 529.255 60.17C527.71 60.17 526.87 61.115 526.54 61.76H526.51C526.51 61.76 526.54 61.52 526.54 61.235V60.35H524.71V68ZM534.689 69.035L534.119 70.49C534.854 70.88 535.874 71.15 536.834 71.15C538.829 71.15 540.869 70.16 540.869 67.535V60.35H539.084V60.935C539.084 61.055 539.099 61.145 539.099 61.145H539.054C539.054 61.145 538.454 60.17 536.789 60.17C534.584 60.17 533.399 61.88 533.399 63.98C533.399 66.08 534.644 67.85 536.834 67.85C537.854 67.85 538.514 67.49 538.964 66.815H538.994C538.994 66.815 538.964 67.04 538.964 67.22V67.67C538.964 69.035 537.974 69.53 536.804 69.53C535.649 69.53 534.689 69.035 534.689 69.035ZM537.239 66.245C536.009 66.245 535.319 65.255 535.319 63.92C535.319 62.63 535.964 61.79 537.119 61.79C538.154 61.79 539.009 62.255 539.009 63.995C539.009 65.72 538.154 66.245 537.239 66.245ZM542.317 67.055C542.317 67.055 543.382 68.18 545.287 68.18C547.102 68.18 548.212 67.16 548.212 65.885C548.212 63.425 544.492 63.56 544.492 62.48C544.492 62 544.972 61.79 545.467 61.79C546.637 61.79 547.342 62.45 547.342 62.45L548.047 61.04C548.047 61.04 547.207 60.17 545.482 60.17C543.832 60.17 542.557 60.995 542.557 62.42C542.557 64.88 546.277 64.73 546.277 65.87C546.277 66.32 545.812 66.56 545.272 66.56C544.027 66.56 543.187 65.72 543.187 65.72L542.317 67.055Z" fill="white"/>
<line opacity="0.4" x1="443.5" y1="1" x2="443.5" y2="86" stroke="white" stroke-linejoin="round" stroke-dasharray="2 2"/>
<path d="M102.35 28H104.285V23.695H107.81V22.03H104.285V19.015H108.47V17.35H102.35V28ZM109.872 28H111.777V24.97C111.777 24.52 111.822 24.1 111.942 23.725C112.302 22.585 113.217 22.12 114.027 22.12C114.282 22.12 114.477 22.15 114.477 22.15V20.275C114.477 20.275 114.312 20.245 114.132 20.245C112.962 20.245 112.047 21.115 111.702 22.21H111.672C111.672 22.21 111.702 21.955 111.702 21.67V20.35H109.872V28ZM115.761 19.045H117.651V17.35H115.761V19.045ZM115.761 28H117.666V20.35H115.761V28ZM119.235 24.175C119.235 26.545 120.555 28.18 122.625 28.18C124.38 28.18 125.025 26.875 125.025 26.875H125.055C125.055 26.875 125.025 27.085 125.025 27.37V28H126.825V17.35H124.92V20.71C124.92 20.95 124.935 21.145 124.935 21.145H124.905C124.905 21.145 124.38 20.17 122.7 20.17C120.675 20.17 119.235 21.745 119.235 24.175ZM121.155 24.175C121.155 22.66 122.025 21.805 123.075 21.805C124.35 21.805 124.98 22.975 124.98 24.16C124.98 25.855 124.05 26.575 123.06 26.575C121.935 26.575 121.155 25.63 121.155 24.175ZM128.285 25.795C128.285 27.325 129.515 28.18 130.88 28.18C132.62 28.18 133.22 26.83 133.205 26.83H133.235C133.235 26.83 133.205 27.07 133.205 27.37V28H134.96V23.215C134.96 21.28 133.79 20.17 131.78 20.17C129.965 20.17 128.78 21.115 128.78 21.115L129.5 22.48C129.5 22.48 130.505 21.745 131.6 21.745C132.44 21.745 133.07 22.09 133.07 23.095V23.2H132.815C131.57 23.2 128.285 23.365 128.285 25.795ZM130.205 25.705C130.205 24.64 131.78 24.505 132.755 24.505H133.085V24.685C133.085 25.615 132.365 26.695 131.36 26.695C130.58 26.695 130.205 26.215 130.205 25.705ZM135.908 30.655C135.908 30.655 136.583 31.15 137.498 31.15C138.653 31.15 139.718 30.55 140.258 29.155L143.678 20.35H141.593L140.093 24.79C139.958 25.195 139.838 25.795 139.838 25.795H139.808C139.808 25.795 139.673 25.165 139.523 24.76L137.918 20.35H135.773L138.998 27.88L138.713 28.555C138.428 29.23 137.918 29.545 137.393 29.545C136.958 29.545 136.538 29.23 136.538 29.23L135.908 30.655ZM148.412 28H150.212V27.565C150.212 27.265 150.182 27.04 150.182 27.04H150.212C150.212 27.04 150.902 28.18 152.492 28.18C154.517 28.18 156.002 26.605 156.002 24.175C156.002 21.805 154.682 20.17 152.612 20.17C150.992 20.17 150.317 21.28 150.317 21.28H150.287C150.287 21.28 150.317 21.01 150.317 20.635V17.35H148.412V28ZM150.257 24.22C150.257 22.525 151.187 21.805 152.177 21.805C153.302 21.805 154.082 22.75 154.082 24.205C154.082 25.72 153.212 26.575 152.162 26.575C150.887 26.575 150.257 25.405 150.257 24.22ZM157.582 28H159.487V24.97C159.487 24.52 159.532 24.1 159.652 23.725C160.012 22.585 160.927 22.12 161.737 22.12C161.992 22.12 162.187 22.15 162.187 22.15V20.275C162.187 20.275 162.022 20.245 161.842 20.245C160.672 20.245 159.757 21.115 159.412 22.21H159.382C159.382 22.21 159.412 21.955 159.412 21.67V20.35H157.582V28ZM163.366 25.27C163.366 27.355 164.386 28.18 166.021 28.18C167.326 28.18 168.301 27.385 168.676 26.59H168.706C168.706 26.59 168.676 26.83 168.676 27.13V28H170.506V20.35H168.601V23.86C168.601 25.225 167.836 26.44 166.456 26.44C165.511 26.44 165.271 25.81 165.271 24.88V20.35H163.366V25.27ZM172.612 28H174.517V24.49C174.517 24.13 174.547 23.785 174.652 23.47C174.937 22.555 175.687 21.91 176.707 21.91C177.682 21.91 177.922 22.54 177.922 23.47V28H179.812V23.08C179.812 21.055 178.852 20.17 177.157 20.17C175.612 20.17 174.772 21.115 174.442 21.76H174.412C174.412 21.76 174.442 21.52 174.442 21.235V20.35H172.612V28ZM181.256 24.175C181.256 26.395 182.876 28.18 185.411 28.18C187.466 28.18 188.561 26.935 188.561 26.935L187.826 25.585C187.826 25.585 186.866 26.56 185.576 26.56C184.121 26.56 183.191 25.45 183.191 24.16C183.191 22.855 184.106 21.79 185.516 21.79C186.716 21.79 187.511 22.615 187.511 22.615L188.351 21.31C188.351 21.31 187.406 20.17 185.411 20.17C182.876 20.17 181.256 22 181.256 24.175ZM189.985 28H191.89V24.49C191.89 24.13 191.92 23.8 192.01 23.5C192.295 22.57 193.075 21.91 194.08 21.91C195.055 21.91 195.295 22.54 195.295 23.47V28H197.185V23.08C197.185 21.055 196.225 20.17 194.53 20.17C193.195 20.17 192.265 20.95 191.89 21.685H191.86C191.86 21.685 191.89 21.415 191.89 21.04V17.35H189.985V28Z" fill="white"/>
<path d="M101.99 51H104.652C107.061 51 108.634 49.548 108.634 47.084C108.634 44.62 107.061 43.19 104.652 43.19H101.99V51ZM103.409 49.779V44.411H104.575C106.137 44.411 107.171 45.346 107.171 47.084C107.171 48.844 106.159 49.779 104.575 49.779H103.409ZM109.902 44.433H111.288V43.19H109.902V44.433ZM109.902 51H111.299V45.39H109.902V51ZM112.834 51H114.231V48.426C114.231 48.162 114.253 47.909 114.33 47.678C114.539 47.007 115.089 46.534 115.837 46.534C116.552 46.534 116.728 46.996 116.728 47.678V51H118.114V47.392C118.114 45.907 117.41 45.258 116.167 45.258C115.034 45.258 114.418 45.951 114.176 46.424H114.154C114.154 46.424 114.176 46.248 114.176 46.039V45.39H112.834V51ZM119.185 48.195C119.185 49.79 120.34 51.132 122.199 51.132C123.596 51.132 124.454 50.329 124.454 50.329L123.915 49.328C123.915 49.328 123.2 49.944 122.298 49.944C121.462 49.944 120.703 49.438 120.615 48.459H124.487C124.487 48.459 124.52 48.085 124.52 47.92C124.52 46.435 123.651 45.258 122.034 45.258C120.362 45.258 119.185 46.468 119.185 48.195ZM120.659 47.502C120.791 46.776 121.286 46.336 122.001 46.336C122.617 46.336 123.09 46.743 123.112 47.502H120.659ZM125.759 48.47H129.07V47.249H125.759V48.47ZM130.699 44.433H132.085V43.19H130.699V44.433ZM130.699 51H132.096V45.39H130.699V51ZM133.631 51H135.028V48.426C135.028 48.162 135.05 47.909 135.127 47.678C135.336 47.007 135.886 46.534 136.634 46.534C137.349 46.534 137.525 46.996 137.525 47.678V51H138.911V47.392C138.911 45.907 138.207 45.258 136.964 45.258C135.831 45.258 135.215 45.951 134.973 46.424H134.951C134.951 46.424 134.973 46.248 134.973 46.039V45.39H133.631V51ZM142.634 48.195C142.634 49.922 144.009 51.132 145.725 51.132C147.43 51.132 148.805 49.922 148.805 48.195C148.805 46.479 147.43 45.258 145.714 45.258C144.009 45.258 142.634 46.479 142.634 48.195ZM144.053 48.195C144.053 47.161 144.812 46.446 145.725 46.446C146.627 46.446 147.386 47.161 147.386 48.195C147.386 49.24 146.627 49.944 145.725 49.944C144.812 49.944 144.053 49.24 144.053 48.195ZM149.927 51H151.324V48.426C151.324 48.162 151.346 47.909 151.423 47.678C151.632 47.007 152.182 46.534 152.93 46.534C153.645 46.534 153.821 46.996 153.821 47.678V51H155.207V47.392C155.207 45.907 154.503 45.258 153.26 45.258C152.127 45.258 151.511 45.951 151.269 46.424H151.247C151.247 46.424 151.269 46.248 151.269 46.039V45.39H149.927V51ZM156.596 49.251C156.596 50.857 157.553 51.055 158.323 51.055C158.554 51.055 158.763 51.022 158.763 51.022V49.801C158.763 49.801 158.664 49.812 158.554 49.812C158.191 49.812 157.982 49.658 157.982 49.042V43.19H156.596V49.251ZM159.04 52.947C159.04 52.947 159.535 53.31 160.206 53.31C161.053 53.31 161.834 52.87 162.23 51.847L164.738 45.39H163.209L162.109 48.646C162.01 48.943 161.922 49.383 161.922 49.383H161.9C161.9 49.383 161.801 48.921 161.691 48.624L160.514 45.39H158.941L161.306 50.912L161.097 51.407C160.888 51.902 160.514 52.133 160.129 52.133C159.81 52.133 159.502 51.902 159.502 51.902L159.04 52.947Z" fill="white"/>
<path d="M177.594 51H182.368V49.779H180.674V43.19H179.431L177.473 45.071L178.309 45.951L178.936 45.357C179.189 45.104 179.277 44.917 179.277 44.917H179.299C179.299 44.917 179.288 45.181 179.288 45.445V49.779H177.594V51ZM186.074 53.2H187.471V50.846C187.471 50.56 187.449 50.362 187.449 50.362H187.471C187.471 50.362 187.966 51.132 189.077 51.132C190.551 51.132 191.64 49.977 191.64 48.195C191.64 46.457 190.672 45.258 189.154 45.258C187.834 45.258 187.35 46.182 187.35 46.182H187.328C187.328 46.182 187.35 46.006 187.35 45.797V45.39H186.074V53.2ZM187.427 48.228C187.427 46.985 188.109 46.457 188.835 46.457C189.66 46.457 190.232 47.15 190.232 48.217C190.232 49.328 189.594 49.955 188.824 49.955C187.9 49.955 187.427 49.097 187.427 48.228ZM192.402 48.195C192.402 49.79 193.557 51.132 195.416 51.132C196.813 51.132 197.671 50.329 197.671 50.329L197.132 49.328C197.132 49.328 196.417 49.944 195.515 49.944C194.679 49.944 193.92 49.438 193.832 48.459H197.704C197.704 48.459 197.737 48.085 197.737 47.92C197.737 46.435 196.868 45.258 195.251 45.258C193.579 45.258 192.402 46.468 192.402 48.195ZM193.876 47.502C194.008 46.776 194.503 46.336 195.218 46.336C195.834 46.336 196.307 46.743 196.329 47.502H193.876ZM198.471 48.195C198.471 49.922 199.846 51.132 201.562 51.132C203.267 51.132 204.642 49.922 204.642 48.195C204.642 46.479 203.267 45.258 201.551 45.258C199.846 45.258 198.471 46.479 198.471 48.195ZM199.89 48.195C199.89 47.161 200.649 46.446 201.562 46.446C202.464 46.446 203.223 47.161 203.223 48.195C203.223 49.24 202.464 49.944 201.562 49.944C200.649 49.944 199.89 49.24 199.89 48.195ZM205.764 53.2H207.161V50.846C207.161 50.56 207.139 50.362 207.139 50.362H207.161C207.161 50.362 207.656 51.132 208.767 51.132C210.241 51.132 211.33 49.977 211.33 48.195C211.33 46.457 210.362 45.258 208.844 45.258C207.524 45.258 207.04 46.182 207.04 46.182H207.018C207.018 46.182 207.04 46.006 207.04 45.797V45.39H205.764V53.2ZM207.117 48.228C207.117 46.985 207.799 46.457 208.525 46.457C209.35 46.457 209.922 47.15 209.922 48.217C209.922 49.328 209.284 49.955 208.514 49.955C207.59 49.955 207.117 49.097 207.117 48.228ZM212.412 49.251C212.412 50.857 213.369 51.055 214.139 51.055C214.37 51.055 214.579 51.022 214.579 51.022V49.801C214.579 49.801 214.48 49.812 214.37 49.812C214.007 49.812 213.798 49.658 213.798 49.042V43.19H212.412V49.251ZM215.219 48.195C215.219 49.79 216.374 51.132 218.233 51.132C219.63 51.132 220.488 50.329 220.488 50.329L219.949 49.328C219.949 49.328 219.234 49.944 218.332 49.944C217.496 49.944 216.737 49.438 216.649 48.459H220.521C220.521 48.459 220.554 48.085 220.554 47.92C220.554 46.435 219.685 45.258 218.068 45.258C216.396 45.258 215.219 46.468 215.219 48.195ZM216.693 47.502C216.825 46.776 217.32 46.336 218.035 46.336C218.651 46.336 219.124 46.743 219.146 47.502H216.693Z" fill="white"/>
<circle cx="171" cy="48" r="2" fill="white"/>
<path d="M233.539 48.404H235.915V51H237.048V48.404H239.424V47.315H237.048V44.708H235.915V47.315H233.539V48.404ZM240.346 50.087C240.346 50.087 241.27 51.132 242.931 51.132C244.669 51.132 245.681 49.9 245.681 48.569C245.681 47.216 244.625 46.446 243.547 46.292L245.461 44.081V43.19H240.687V44.411H243.019C243.481 44.411 243.712 44.378 243.712 44.378V44.4C243.712 44.4 243.459 44.631 243.151 44.994L241.721 46.688L242.04 47.414H242.579C243.492 47.414 244.251 47.799 244.251 48.624C244.251 49.295 243.657 49.79 242.843 49.79C241.809 49.79 241.072 48.998 241.072 48.998L240.346 50.087ZM249.731 51.132C251.865 51.132 252.569 49.328 252.569 47.084C252.569 44.84 251.865 43.058 249.731 43.058C247.597 43.058 246.904 44.84 246.904 47.084C246.904 49.328 247.597 51.132 249.731 51.132ZM249.731 49.834C248.664 49.834 248.356 48.624 248.356 47.084C248.356 45.566 248.664 44.367 249.731 44.367C250.798 44.367 251.106 45.566 251.106 47.084C251.106 48.624 250.798 49.834 249.731 49.834ZM256.167 50.307C256.167 50.307 256.948 51.132 258.345 51.132C259.676 51.132 260.49 50.384 260.49 49.449C260.49 47.645 257.762 47.744 257.762 46.952C257.762 46.6 258.114 46.446 258.477 46.446C259.335 46.446 259.852 46.93 259.852 46.93L260.369 45.896C260.369 45.896 259.753 45.258 258.488 45.258C257.278 45.258 256.343 45.863 256.343 46.908C256.343 48.712 259.071 48.602 259.071 49.438C259.071 49.768 258.73 49.944 258.334 49.944C257.421 49.944 256.805 49.328 256.805 49.328L256.167 50.307ZM261.614 51H263.011V48.536C263.011 48.283 263.022 48.03 263.077 47.821C263.253 47.106 263.726 46.534 264.452 46.534C265.112 46.534 265.211 47.051 265.211 47.656V51H266.608V48.536C266.608 48.272 266.619 48.03 266.674 47.81C266.839 47.106 267.312 46.534 268.027 46.534C268.676 46.534 268.797 47.018 268.797 47.656V51H270.194V47.392C270.194 45.918 269.523 45.258 268.357 45.258C267.477 45.258 266.751 45.808 266.443 46.413H266.421C266.19 45.654 265.64 45.258 264.782 45.258C263.902 45.258 263.231 45.874 262.956 46.424H262.934C262.934 46.424 262.956 46.248 262.956 46.039V45.39H261.614V51ZM271.658 44.433H273.044V43.19H271.658V44.433ZM271.658 51H273.055V45.39H271.658V51ZM274.513 49.251C274.513 50.857 275.47 51.055 276.24 51.055C276.471 51.055 276.68 51.022 276.68 51.022V49.801C276.68 49.801 276.581 49.812 276.471 49.812C276.108 49.812 275.899 49.658 275.899 49.042V43.19H274.513V49.251ZM277.32 48.195C277.32 49.79 278.475 51.132 280.334 51.132C281.731 51.132 282.589 50.329 282.589 50.329L282.05 49.328C282.05 49.328 281.335 49.944 280.433 49.944C279.597 49.944 278.838 49.438 278.75 48.459H282.622C282.622 48.459 282.655 48.085 282.655 47.92C282.655 46.435 281.786 45.258 280.169 45.258C278.497 45.258 277.32 46.468 277.32 48.195ZM278.794 47.502C278.926 46.776 279.421 46.336 280.136 46.336C280.752 46.336 281.225 46.743 281.247 47.502H278.794ZM283.334 50.307C283.334 50.307 284.115 51.132 285.512 51.132C286.843 51.132 287.657 50.384 287.657 49.449C287.657 47.645 284.929 47.744 284.929 46.952C284.929 46.6 285.281 46.446 285.644 46.446C286.502 46.446 287.019 46.93 287.019 46.93L287.536 45.896C287.536 45.896 286.92 45.258 285.655 45.258C284.445 45.258 283.51 45.863 283.51 46.908C283.51 48.712 286.238 48.602 286.238 49.438C286.238 49.768 285.897 49.944 285.501 49.944C284.588 49.944 283.972 49.328 283.972 49.328L283.334 50.307Z" fill="white"/>
<circle cx="227" cy="48" r="2" fill="white"/>
<path d="M103.937 72H105.026L107.886 64.234H106.731L104.784 69.723C104.641 70.141 104.487 70.79 104.487 70.79H104.465C104.465 70.79 104.311 70.141 104.168 69.723L102.243 64.234H101.066L103.937 72ZM108.099 70.438C108.099 71.549 109.034 72.132 109.991 72.132C111.322 72.132 111.773 71.032 111.773 71.032H111.795C111.795 71.032 111.773 71.219 111.773 71.472V72H112.763V68.48C112.763 67.072 111.971 66.302 110.563 66.302C109.287 66.302 108.484 66.962 108.484 66.962L108.924 67.743C108.924 67.743 109.617 67.204 110.475 67.204C111.179 67.204 111.696 67.512 111.696 68.425V68.524H111.454C110.519 68.524 108.099 68.601 108.099 70.438ZM109.177 70.383C109.177 69.382 110.629 69.327 111.432 69.327H111.707V69.503C111.707 70.328 111.124 71.274 110.222 71.274C109.529 71.274 109.177 70.834 109.177 70.383ZM114.295 70.482C114.295 71.879 115.186 72.044 115.791 72.044C115.978 72.044 116.143 72.022 116.143 72.022V71.076C116.143 71.076 116.055 71.087 115.956 71.087C115.626 71.087 115.362 70.966 115.362 70.295V64.234H114.295V70.482ZM117.262 65.323H118.34V64.234H117.262V65.323ZM117.273 72H118.34V66.434H117.273V72ZM119.649 69.217C119.649 70.944 120.595 72.132 122.102 72.132C123.477 72.132 123.928 71.098 123.928 71.098H123.95C123.95 71.098 123.939 71.252 123.939 71.472V72H124.951V64.234H123.884V66.808C123.884 67.017 123.906 67.182 123.906 67.182H123.884C123.884 67.182 123.455 66.302 122.168 66.302C120.694 66.302 119.649 67.446 119.649 69.217ZM120.738 69.217C120.738 67.952 121.464 67.226 122.344 67.226C123.4 67.226 123.917 68.216 123.917 69.206C123.917 70.625 123.136 71.208 122.311 71.208C121.387 71.208 120.738 70.427 120.738 69.217ZM129.74 72H130.796V67.369H132.116V66.511H130.796V66.269C130.796 65.235 131.555 65.103 131.962 65.103C132.127 65.103 132.237 65.125 132.237 65.125V64.212C132.237 64.212 132.072 64.179 131.83 64.179C131.126 64.179 129.74 64.41 129.74 66.247V66.511H129.047V67.369H129.74V72ZM132.732 69.206C132.732 70.9 134.074 72.132 135.735 72.132C137.396 72.132 138.738 70.9 138.738 69.206C138.738 67.523 137.396 66.302 135.735 66.302C134.074 66.302 132.732 67.523 132.732 69.206ZM133.821 69.206C133.821 68.051 134.69 67.226 135.735 67.226C136.791 67.226 137.649 68.051 137.649 69.206C137.649 70.372 136.791 71.208 135.735 71.208C134.69 71.208 133.821 70.372 133.821 69.206ZM140.003 72H141.07V69.723C141.07 69.382 141.103 69.041 141.202 68.722C141.455 67.897 142.082 67.413 142.764 67.413C142.929 67.413 143.072 67.446 143.072 67.446V66.39C143.072 66.39 142.94 66.368 142.797 66.368C141.939 66.368 141.29 67.006 141.037 67.82H141.015C141.015 67.82 141.037 67.633 141.037 67.402V66.434H140.003V72ZM146.733 72H151.199V71.054H149.505V64.234H148.537L146.678 66.038L147.338 66.72L148.064 66.005C148.35 65.73 148.438 65.554 148.438 65.554H148.46C148.46 65.554 148.449 65.796 148.449 66.038V71.054H146.733V72ZM154.379 73.969C154.379 73.969 154.83 74.31 155.457 74.31C156.238 74.31 156.92 73.859 157.261 73.001L159.868 66.434H158.713L157.36 70.086C157.261 70.372 157.173 70.746 157.173 70.746H157.151C157.151 70.746 157.052 70.361 156.942 70.075L155.545 66.434H154.346L156.678 71.934L156.403 72.572C156.194 73.078 155.831 73.386 155.402 73.386C155.061 73.386 154.753 73.155 154.753 73.155L154.379 73.969ZM160.383 69.217C160.383 70.867 161.582 72.132 163.331 72.132C164.662 72.132 165.487 71.34 165.487 71.34L165.047 70.559C165.047 70.559 164.354 71.208 163.397 71.208C162.407 71.208 161.538 70.592 161.483 69.371H165.542C165.542 69.371 165.575 69.052 165.575 68.909C165.575 67.468 164.739 66.302 163.166 66.302C161.582 66.302 160.383 67.446 160.383 69.217ZM161.516 68.568C161.67 67.655 162.33 67.149 163.144 67.149C163.859 67.149 164.453 67.611 164.486 68.568H161.516ZM166.418 70.438C166.418 71.549 167.353 72.132 168.31 72.132C169.641 72.132 170.092 71.032 170.092 71.032H170.114C170.114 71.032 170.092 71.219 170.092 71.472V72H171.082V68.48C171.082 67.072 170.29 66.302 168.882 66.302C167.606 66.302 166.803 66.962 166.803 66.962L167.243 67.743C167.243 67.743 167.936 67.204 168.794 67.204C169.498 67.204 170.015 67.512 170.015 68.425V68.524H169.773C168.838 68.524 166.418 68.601 166.418 70.438ZM167.496 70.383C167.496 69.382 168.948 69.327 169.751 69.327H170.026V69.503C170.026 70.328 169.443 71.274 168.541 71.274C167.848 71.274 167.496 70.834 167.496 70.383ZM172.681 72H173.748V69.723C173.748 69.382 173.781 69.041 173.88 68.722C174.133 67.897 174.76 67.413 175.442 67.413C175.607 67.413 175.75 67.446 175.75 67.446V66.39C175.75 66.39 175.618 66.368 175.475 66.368C174.617 66.368 173.968 67.006 173.715 67.82H173.693C173.693 67.82 173.715 67.633 173.715 67.402V66.434H172.681V72Z" fill="white"/>
<defs>
<filter id="filter0_d_815_249" x="0" y="0" width="575" height="92" filterUnits="userSpaceOnUse" color-interpolation-filters="sRGB">
<feFlood flood-opacity="0" result="BackgroundImageFix"/>
<feColorMatrix in="SourceAlpha" type="matrix" values="0 0 0 0 0 0 0 0 0 0 0 0 0 0 0 0 0 0 127 0" result="hardAlpha"/>
<feOffset dy="2"/>
<feGaussianBlur stdDeviation="1"/>
<feComposite in2="hardAlpha" operator="out"/>
<feColorMatrix type="matrix" values="0 0 0 0 0 0 0 0 0 0 0 0 0 0 0 0 0 0 0.12 0"/>
<feBlend mode="normal" in2="BackgroundImageFix" result="effect1_dropShadow_815_249"/>
<feBlend mode="normal" in="SourceGraphic" in2="effect1_dropShadow_815_249" result="shape"/>
</filter>
<linearGradient id="paint0_linear_815_249" x1="-66.6735" y1="96" x2="192.66" y2="-263.015" gradientUnits="userSpaceOnUse">
<stop stop-color="#1F70AE"/>
<stop offset="0.266806" stop-color="#53AAED"/>
<stop offset="1" stop-color="#2D8ED9"/>
</linearGradient>
</defs>
</svg>
