<svg width="16" height="16" viewBox="0 0 16 16" fill="none" xmlns="http://www.w3.org/2000/svg">
<circle cx="8" cy="8" r="8" fill="white"/>
<path fill-rule="evenodd" clip-rule="evenodd" d="M7.11133 9.11885V4.31153C7.11133 4.11106 7.19096 3.9188 7.33272 3.77705C7.47447 3.6353 7.66673 3.55566 7.8672 3.55566C8.06766 3.55566 8.25992 3.6353 8.40167 3.77705C8.54343 3.9188 8.62306 4.11106 8.62306 4.31153V9.11885C8.62306 9.31932 8.54343 9.51157 8.40167 9.65333C8.25992 9.79508 8.06766 9.87471 7.8672 9.87471C7.66673 9.87471 7.47447 9.79508 7.33272 9.65333C7.19096 9.51157 7.11133 9.31932 7.11133 9.11885ZM7.44726 12.3172C7.57156 12.4003 7.7177 12.4446 7.8672 12.4446C8.06766 12.4446 8.25992 12.3649 8.40168 12.2232C8.54343 12.0814 8.62306 11.8892 8.62306 11.6887C8.62306 11.5392 8.57873 11.3931 8.49568 11.2688C8.41262 11.1445 8.29457 11.0476 8.15645 10.9904C8.01834 10.9332 7.86636 10.9182 7.71973 10.9474C7.57311 10.9765 7.43843 11.0485 7.33272 11.1542C7.22701 11.2599 7.15502 11.3946 7.12585 11.5413C7.09669 11.6879 7.11166 11.8399 7.16887 11.978C7.22608 12.1161 7.32296 12.2341 7.44726 12.3172Z" fill="#CC2727"/>
</svg>
