<svg width="60" height="60" viewBox="0 0 60 60" fill="none" xmlns="http://www.w3.org/2000/svg">
<mask id="path-1-inside-1_301_24487" fill="white">
<path d="M18.8757 17.0468C16.9658 17.0468 15.4119 18.6007 15.4119 20.5107C15.4119 22.4206 16.9658 23.9745 18.8757 23.9745C20.7857 23.9745 22.3396 22.4206 22.3396 20.5107C22.3396 18.6007 20.7857 17.0468 18.8757 17.0468ZM18.8757 22.0448C18.0299 22.0448 17.3418 21.3566 17.3418 20.5108C17.3418 19.6651 18.0299 18.9768 18.8757 18.9768C19.7216 18.9768 20.4097 19.6651 20.4097 20.5108C20.4097 21.3566 19.7215 22.0448 18.8757 22.0448ZM20.7415 8.79264L10.2163 23.4432C9.90616 23.8742 9.30538 23.972 8.87442 23.6619C8.44346 23.3518 8.34564 22.751 8.65574 22.32L19.181 7.66947C19.4911 7.23851 20.0919 7.14069 20.5229 7.45079C20.9538 7.76101 21.0517 8.3618 20.7415 8.79264ZM13.9766 10.494C13.9766 8.58409 12.4227 7.03008 10.5127 7.03008C8.60279 7.03008 7.0489 8.58397 7.0489 10.494C7.0489 12.404 8.60267 13.9579 10.5127 13.9579C12.4227 13.9579 13.9766 12.404 13.9766 10.494ZM8.97875 10.494C8.97875 9.64816 9.66698 8.95993 10.5127 8.95993C11.3585 8.95993 12.0467 9.64816 12.0467 10.494C12.0467 11.3399 11.3586 12.028 10.5127 12.028C9.66686 12.028 8.97875 11.3398 8.97875 10.494ZM59.3347 25.4548L56.9938 12.8659C56.7029 11.3026 56.1814 9.53237 54.5184 8.2565C52.9532 7.05577 51.2274 6.94493 49.7081 7.03949L44.4668 1.21279C43.7531 0.419381 42.8118 0 41.7447 0H3.66129C1.64242 0 0 1.64242 0 3.66129V27.3434C0 29.3623 1.64254 31.0047 3.66129 31.0047H17.5279L10.8596 39.6967C9.63092 41.2984 9.93439 43.6013 11.5359 44.8303L30.3258 59.2452C30.989 59.7539 31.7725 60 32.5501 60C33.6506 60 34.7392 59.5072 35.4593 58.5687L58.6399 28.3529C59.2896 27.506 59.5299 26.504 59.3347 25.4548ZM3.66129 29.0749C2.70649 29.0749 1.92985 28.2982 1.92985 27.3434V3.66129C1.92985 2.70649 2.70661 1.92985 3.66129 1.92985H41.7447C42.2638 1.92985 42.6849 2.11741 43.032 2.50338L47.2813 7.22729L36.6596 8.05917C35.5957 8.1424 34.69 8.63403 34.0404 9.48075L19.0084 29.0749H3.66129ZM57.1089 27.1781L33.9283 57.394C33.3472 58.1517 32.2582 58.2952 31.5006 57.7139L12.7108 43.2991C11.9534 42.718 11.81 41.6287 12.391 40.8712L35.5716 10.6554C35.8876 10.2435 36.2928 10.0236 36.8102 9.98311L49.5756 8.98333C50.8893 8.88057 52.2601 8.95631 53.3437 9.7876C54.2671 10.4961 54.7749 11.4901 55.0965 13.2187L57.4374 25.8075C57.5323 26.318 57.4249 26.7662 57.1089 27.1781ZM50.7721 13.1397C49.2534 11.9748 47.07 12.2624 45.9049 13.7811C44.7397 15.2997 45.0274 17.4832 46.5461 18.6484C48.046 19.7992 50.2644 19.5048 51.4134 18.0071C52.5784 16.4884 52.2907 14.3049 50.7721 13.1397ZM49.8823 16.8324C49.3712 17.4984 48.3859 17.6276 47.7209 17.1172C47.0547 16.606 46.9253 15.6215 47.4361 14.9557C47.7393 14.5605 48.1977 14.353 48.6611 14.353C49.9053 14.3531 50.648 15.8343 49.8823 16.8324ZM49.2516 25.254L46.1147 29.3441C45.7921 29.7666 45.1879 29.8477 44.7653 29.525L36.4345 23.1359C36.012 22.8132 35.9309 22.2091 36.2536 21.7864C36.5762 21.3639 37.1804 21.2829 37.6029 21.6055L45.1715 27.41L47.7212 24.0855C48.0439 23.663 48.648 23.5819 49.0707 23.9046C49.4933 24.2272 49.5742 24.8315 49.2516 25.254ZM30.8707 43.4004C30.8707 43.4004 26.6313 40.1491 26.63 40.1481C25.1268 38.9953 22.8228 39.2989 21.6672 40.8057L20.0987 42.8508C19.776 43.2733 19.8571 43.8776 20.2796 44.2002L28.6104 50.5893C29.0329 50.912 29.6372 50.8309 29.9598 50.4084C29.9598 50.4084 31.5265 48.3657 31.5283 48.3634C32.6738 46.8697 32.3565 44.5398 30.8707 43.4004ZM29.9981 47.1948L29.0167 48.4743L22.2138 43.2569C22.2138 43.2569 23.1975 41.9741 23.1976 41.9741C23.7262 41.2849 24.7636 41.143 25.4617 41.6784C25.4617 41.6784 29.7021 44.9304 29.7024 44.9306C30.3916 45.4593 30.5337 46.4964 29.9981 47.1948ZM38.3124 39.5177L35.1755 43.6077C34.8529 44.0303 34.2487 44.1113 33.8261 43.7887L25.4952 37.3995C25.0727 37.0769 24.9917 36.4727 25.3143 36.0501L28.4512 31.96C28.7738 31.5375 29.378 31.4564 29.8006 31.7791C30.2231 32.1017 30.3042 32.7059 29.9815 33.1285L27.4293 36.4563L30.0669 38.4792L31.7015 36.3478C32.0242 35.9252 32.6283 35.8442 33.051 36.1668C33.4735 36.4895 33.5546 37.0936 33.2319 37.5163L31.5948 39.6509L34.2324 41.6738L36.7821 38.3493C37.1047 37.9267 37.7089 37.8457 38.1315 38.1683C38.5541 38.4909 38.635 39.095 38.3124 39.5177ZM43.8257 30.4254L33.4453 26.7086L33.4444 26.7111C33.163 26.6109 32.8392 26.6428 32.5745 26.8254C32.1374 27.1272 32.0277 27.7264 32.3296 28.1635L38.6109 37.2251C38.9127 37.6622 39.5119 37.772 39.949 37.4701C40.3861 37.1683 40.4959 36.5691 40.194 36.132L38.6906 33.9631L40.6928 31.3523L43.1774 32.242C43.679 32.421 44.2308 32.1595 44.41 31.6577C44.5889 31.1562 44.3275 30.6044 43.8257 30.4254ZM37.5387 32.3013L35.6225 29.537L38.7891 30.6709L37.5387 32.3013Z"/>
</mask>
<path d="M18.8757 17.0468C16.9658 17.0468 15.4119 18.6007 15.4119 20.5107C15.4119 22.4206 16.9658 23.9745 18.8757 23.9745C20.7857 23.9745 22.3396 22.4206 22.3396 20.5107C22.3396 18.6007 20.7857 17.0468 18.8757 17.0468ZM18.8757 22.0448C18.0299 22.0448 17.3418 21.3566 17.3418 20.5108C17.3418 19.6651 18.0299 18.9768 18.8757 18.9768C19.7216 18.9768 20.4097 19.6651 20.4097 20.5108C20.4097 21.3566 19.7215 22.0448 18.8757 22.0448ZM20.7415 8.79264L10.2163 23.4432C9.90616 23.8742 9.30538 23.972 8.87442 23.6619C8.44346 23.3518 8.34564 22.751 8.65574 22.32L19.181 7.66947C19.4911 7.23851 20.0919 7.14069 20.5229 7.45079C20.9538 7.76101 21.0517 8.3618 20.7415 8.79264ZM13.9766 10.494C13.9766 8.58409 12.4227 7.03008 10.5127 7.03008C8.60279 7.03008 7.0489 8.58397 7.0489 10.494C7.0489 12.404 8.60267 13.9579 10.5127 13.9579C12.4227 13.9579 13.9766 12.404 13.9766 10.494ZM8.97875 10.494C8.97875 9.64816 9.66698 8.95993 10.5127 8.95993C11.3585 8.95993 12.0467 9.64816 12.0467 10.494C12.0467 11.3399 11.3586 12.028 10.5127 12.028C9.66686 12.028 8.97875 11.3398 8.97875 10.494ZM59.3347 25.4548L56.9938 12.8659C56.7029 11.3026 56.1814 9.53237 54.5184 8.2565C52.9532 7.05577 51.2274 6.94493 49.7081 7.03949L44.4668 1.21279C43.7531 0.419381 42.8118 0 41.7447 0H3.66129C1.64242 0 0 1.64242 0 3.66129V27.3434C0 29.3623 1.64254 31.0047 3.66129 31.0047H17.5279L10.8596 39.6967C9.63092 41.2984 9.93439 43.6013 11.5359 44.8303L30.3258 59.2452C30.989 59.7539 31.7725 60 32.5501 60C33.6506 60 34.7392 59.5072 35.4593 58.5687L58.6399 28.3529C59.2896 27.506 59.5299 26.504 59.3347 25.4548ZM3.66129 29.0749C2.70649 29.0749 1.92985 28.2982 1.92985 27.3434V3.66129C1.92985 2.70649 2.70661 1.92985 3.66129 1.92985H41.7447C42.2638 1.92985 42.6849 2.11741 43.032 2.50338L47.2813 7.22729L36.6596 8.05917C35.5957 8.1424 34.69 8.63403 34.0404 9.48075L19.0084 29.0749H3.66129ZM57.1089 27.1781L33.9283 57.394C33.3472 58.1517 32.2582 58.2952 31.5006 57.7139L12.7108 43.2991C11.9534 42.718 11.81 41.6287 12.391 40.8712L35.5716 10.6554C35.8876 10.2435 36.2928 10.0236 36.8102 9.98311L49.5756 8.98333C50.8893 8.88057 52.2601 8.95631 53.3437 9.7876C54.2671 10.4961 54.7749 11.4901 55.0965 13.2187L57.4374 25.8075C57.5323 26.318 57.4249 26.7662 57.1089 27.1781ZM50.7721 13.1397C49.2534 11.9748 47.07 12.2624 45.9049 13.7811C44.7397 15.2997 45.0274 17.4832 46.5461 18.6484C48.046 19.7992 50.2644 19.5048 51.4134 18.0071C52.5784 16.4884 52.2907 14.3049 50.7721 13.1397ZM49.8823 16.8324C49.3712 17.4984 48.3859 17.6276 47.7209 17.1172C47.0547 16.606 46.9253 15.6215 47.4361 14.9557C47.7393 14.5605 48.1977 14.353 48.6611 14.353C49.9053 14.3531 50.648 15.8343 49.8823 16.8324ZM49.2516 25.254L46.1147 29.3441C45.7921 29.7666 45.1879 29.8477 44.7653 29.525L36.4345 23.1359C36.012 22.8132 35.9309 22.2091 36.2536 21.7864C36.5762 21.3639 37.1804 21.2829 37.6029 21.6055L45.1715 27.41L47.7212 24.0855C48.0439 23.663 48.648 23.5819 49.0707 23.9046C49.4933 24.2272 49.5742 24.8315 49.2516 25.254ZM30.8707 43.4004C30.8707 43.4004 26.6313 40.1491 26.63 40.1481C25.1268 38.9953 22.8228 39.2989 21.6672 40.8057L20.0987 42.8508C19.776 43.2733 19.8571 43.8776 20.2796 44.2002L28.6104 50.5893C29.0329 50.912 29.6372 50.8309 29.9598 50.4084C29.9598 50.4084 31.5265 48.3657 31.5283 48.3634C32.6738 46.8697 32.3565 44.5398 30.8707 43.4004ZM29.9981 47.1948L29.0167 48.4743L22.2138 43.2569C22.2138 43.2569 23.1975 41.9741 23.1976 41.9741C23.7262 41.2849 24.7636 41.143 25.4617 41.6784C25.4617 41.6784 29.7021 44.9304 29.7024 44.9306C30.3916 45.4593 30.5337 46.4964 29.9981 47.1948ZM38.3124 39.5177L35.1755 43.6077C34.8529 44.0303 34.2487 44.1113 33.8261 43.7887L25.4952 37.3995C25.0727 37.0769 24.9917 36.4727 25.3143 36.0501L28.4512 31.96C28.7738 31.5375 29.378 31.4564 29.8006 31.7791C30.2231 32.1017 30.3042 32.7059 29.9815 33.1285L27.4293 36.4563L30.0669 38.4792L31.7015 36.3478C32.0242 35.9252 32.6283 35.8442 33.051 36.1668C33.4735 36.4895 33.5546 37.0936 33.2319 37.5163L31.5948 39.6509L34.2324 41.6738L36.7821 38.3493C37.1047 37.9267 37.7089 37.8457 38.1315 38.1683C38.5541 38.4909 38.635 39.095 38.3124 39.5177ZM43.8257 30.4254L33.4453 26.7086L33.4444 26.7111C33.163 26.6109 32.8392 26.6428 32.5745 26.8254C32.1374 27.1272 32.0277 27.7264 32.3296 28.1635L38.6109 37.2251C38.9127 37.6622 39.5119 37.772 39.949 37.4701C40.3861 37.1683 40.4959 36.5691 40.194 36.132L38.6906 33.9631L40.6928 31.3523L43.1774 32.242C43.679 32.421 44.2308 32.1595 44.41 31.6577C44.5889 31.1562 44.3275 30.6044 43.8257 30.4254ZM37.5387 32.3013L35.6225 29.537L38.7891 30.6709L37.5387 32.3013Z" fill="url(#paint0_linear_301_24487)" stroke="#282828" stroke-width="2" mask="url(#path-1-inside-1_301_24487)"/>
<defs>
<linearGradient id="paint0_linear_301_24487" x1="-26.6697" y1="-20.6452" x2="66.272" y2="-25.7773" gradientUnits="userSpaceOnUse">
<stop stop-color="#D4145A"/>
<stop offset="1" stop-color="#FBB03B"/>
</linearGradient>
</defs>
</svg>
