<svg width="56" height="60" viewBox="0 0 56 60" fill="none" xmlns="http://www.w3.org/2000/svg">
<path d="M0.972656 14.4828H6.17948C8.83355 14.4828 11.1432 13.1861 11.1432 10.3092C11.1432 8.85046 10.3936 7.39174 8.81328 6.92576V6.88524C9.90733 6.2977 10.5556 5.14288 10.5556 3.80572C10.5556 1.43529 8.71199 0.0981337 6.1187 0.0981337H0.972656V14.4828ZM3.5862 5.97354V2.347H6.07818C7.29378 2.347 7.90158 3.09662 7.90158 4.12988C7.90158 5.16314 7.25326 5.97354 6.1187 5.97354H3.5862ZM3.5862 12.2339V8.08058H6.38208C7.69898 8.08058 8.46886 8.95176 8.46886 10.1471C8.46886 11.3627 7.71924 12.2339 6.38208 12.2339H3.5862Z" fill="#282828"/>
<path d="M13.7689 9.31644C13.7689 12.5378 16.0988 14.7259 19.5835 14.7259C23.048 14.7259 25.3779 12.5378 25.3779 9.31644V0.0981337H22.7644V9.29619C22.7644 11.2411 21.488 12.3352 19.5633 12.3352C17.6386 12.3352 16.3825 11.2411 16.3825 9.31644V0.0981337H13.7689V9.31644Z" fill="#282828"/>
<path d="M31.8287 14.4828H34.4422V8.46552L39.2236 0.0981337H36.2656L34.037 4.33248C33.571 5.22392 33.1658 6.25718 33.1658 6.25718H33.1253C33.1051 6.27744 32.7201 5.22392 32.2541 4.33248L30.0053 0.0981337H27.0473L31.8287 8.46552V14.4828Z" fill="#282828"/>
<path d="M42.4953 11.4457H45.5719V5.40135C45.5719 5.26945 45.5719 5.13755 45.5719 5.00565C45.5719 4.86715 45.5752 4.74515 45.5818 4.63962C45.5818 4.52091 45.5851 4.4055 45.5917 4.29338H45.5521C45.5125 4.37252 45.4664 4.45496 45.4136 4.5407C45.3674 4.61324 45.3081 4.69568 45.2355 4.78801C45.163 4.88034 45.0805 4.97267 44.9882 5.06501L44.1177 5.85641L42.0699 3.66026L45.9775 0H49.0343V11.4457H52.1406V14.4828H42.4953V11.4457Z" fill="#282828"/>
<path d="M1.13379 43.1035H11.4864V46.6467H5.26559V50.1899H10.4246V53.7331H5.26559V60.0001H1.13379V43.1035Z" fill="#282828"/>
<path d="M14.1063 43.1035H19.9924C20.4232 43.1035 20.8003 43.1112 21.1234 43.1266C21.4543 43.142 21.7467 43.1651 22.0006 43.1958C22.2622 43.2266 22.493 43.2689 22.693 43.3228C22.9008 43.369 23.097 43.4267 23.2817 43.4959C23.7587 43.6806 24.1896 43.9268 24.5743 44.2346C24.959 44.5346 25.286 44.8924 25.5553 45.3079C25.8246 45.7234 26.0323 46.1928 26.1785 46.716C26.3247 47.2315 26.3978 47.797 26.3978 48.4125C26.3978 48.8665 26.344 49.3205 26.2362 49.7744C26.1285 50.2284 25.9669 50.6631 25.7515 51.0786C25.5438 51.4864 25.2822 51.8596 24.9667 52.1981C24.6512 52.5366 24.2857 52.8136 23.8703 53.0291V53.0752C23.9164 53.1445 23.9703 53.2253 24.0318 53.3176C24.0857 53.4023 24.1511 53.51 24.228 53.6408C24.305 53.7639 24.3973 53.9139 24.505 54.0909L27.7943 60.0001H23.1778L20.177 54.2986H18.2381V60.0001H14.1063V43.1035ZM20.0385 50.7554C20.7079 50.7554 21.2311 50.5785 21.6082 50.2245C21.9929 49.8706 22.1852 49.3551 22.1852 48.678C22.1852 48.3548 22.1506 48.0701 22.0813 47.8239C22.0121 47.57 21.8813 47.3584 21.6889 47.1892C21.4966 47.0122 21.235 46.8775 20.9041 46.7852C20.5733 46.6929 20.1501 46.6467 19.6346 46.6467H18.2381V50.7554H20.0385Z" fill="#282828"/>
<path d="M30.2642 43.1035H40.8591V46.6467H34.396V49.7167H39.555V53.2599H34.396V56.4569H41.1823V60.0001H30.2642V43.1035Z" fill="#282828"/>
<path d="M44.16 43.1035H54.7549V46.6467H48.2918V49.7167H53.4508V53.2599H48.2918V56.4569H55.0781V60.0001H44.16V43.1035Z" fill="#282828"/>
<path d="M0 28.8937C0 33.4117 3.26186 36.3494 7.05049 36.3494C9.72481 36.3494 11.2241 34.8096 11.2241 34.8096H11.2646C11.2646 34.8096 11.2443 35.1135 11.2443 35.4174V36.1063H13.4729V28.529H8.91441V30.7779H11.1228V32.4594C11.1228 32.4594 9.68429 33.9587 7.51647 33.9587C4.82189 33.9587 2.69458 31.9327 2.69458 28.8126C2.69458 26.0978 4.41669 23.8692 7.63803 23.8692C9.92741 23.8692 11.4672 25.2469 11.4672 25.2469L12.7638 23.3019C12.7638 23.3019 10.9404 21.4785 7.41517 21.4785C3.1403 21.4785 0 24.7201 0 28.8937Z" fill="#282828"/>
<path d="M16.3654 36.1063H25.3V33.8574H18.9789V29.9877H23.821V27.7389H18.9789V23.9705H24.9759V21.7216H16.3654V36.1063Z" fill="#282828"/>
<path d="M30.997 36.1063H33.6106V23.9705H38.3312V21.7216H26.2765V23.9705H30.997V36.1063Z" fill="#282828"/>
<path d="M42.4951 33.0692H45.5717V27.0249C45.5717 26.893 45.5717 26.7611 45.5717 26.6292C45.5717 26.4907 45.575 26.3686 45.5816 26.2631C45.5816 26.1444 45.5849 26.029 45.5915 25.9169H45.5519C45.5123 25.996 45.4662 26.0785 45.4134 26.1642C45.3673 26.2367 45.3079 26.3192 45.2354 26.4115C45.1628 26.5038 45.0804 26.5962 44.988 26.6885L44.1175 27.4799L42.0697 25.2838L45.9773 21.6235H49.0341V33.0692H52.1404V36.1063H42.4951V33.0692Z" fill="#282828"/>
</svg>
