<svg width="60" height="60" viewBox="0 0 60 60" fill="none" xmlns="http://www.w3.org/2000/svg">
<mask id="path-1-inside-1_2516_14710" fill="white">
<path fill-rule="evenodd" clip-rule="evenodd" d="M58.7513 28.7503C58.0591 28.7503 57.4987 29.3096 57.4987 30C57.4987 33.7134 56.7736 37.3151 55.3399 40.7044C53.9538 43.9784 51.9727 46.9189 49.4457 49.4459C46.9188 51.9728 43.9782 53.9539 40.7043 55.34C37.315 56.7737 33.7133 57.4989 29.9999 57.4989C26.2864 57.4989 22.6848 56.7737 19.2964 55.34C16.0225 53.9539 13.0809 51.9728 10.554 49.4459C8.02805 46.9191 6.045 43.9784 4.65984 40.7044C3.22699 37.3151 2.50008 33.7134 2.50008 30C2.50008 26.2866 3.22699 22.6849 4.65984 19.2966C6.045 16.0218 8.02805 13.0811 10.554 10.5541C13.0808 8.02816 16.0225 6.04512 19.2964 4.65996C22.6848 3.22629 26.2864 2.5002 29.9999 2.5002C33.7133 2.5002 37.315 3.22617 40.7043 4.65996C43.7328 5.94176 46.4794 7.73707 48.8745 10.0002H44.2859C43.5974 10.0002 43.0371 10.5595 43.0371 11.2499C43.0371 11.9402 43.5974 12.4996 44.2859 12.4996H51.7859C52.478 12.4996 53.0384 11.9402 53.0384 11.2499V3.75C53.0384 3.05965 52.4781 2.50031 51.7859 2.50031C51.0974 2.50031 50.5371 3.05965 50.5371 3.75V8.13258C45.1685 3.08895 37.9467 0 30 0C13.4317 0 0 13.4317 0 30C0 46.5674 13.4317 60 30 60C46.5674 60 60 46.5674 60 30C60 29.3096 59.4397 28.7503 58.7513 28.7503ZM12.5 17.5V27.4994V37.4997H47.5016V27.4994V17.5H12.5ZM45.0003 27.4994V34.9984H15.0003V27.4994V19.9994H45.0003V27.4994ZM23.7266 27.4222C23.7266 23.9707 26.5244 21.1719 29.9769 21.1719C33.4284 21.1719 36.2263 23.9707 36.2263 27.4222C36.2263 30.8737 33.4284 33.6734 29.9769 33.6734C26.5245 33.6734 23.7266 30.8737 23.7266 27.4222ZM26.2269 27.4222C26.2269 29.4895 27.9088 31.1722 29.9769 31.1722C32.0442 31.1722 33.7269 29.4895 33.7269 27.4222C33.7269 25.3541 32.0442 23.6722 29.9769 23.6722C27.9088 23.6722 26.2269 25.3541 26.2269 27.4222ZM46.2491 38.748H13.7506C13.0603 38.748 12.5 39.3083 12.5 40.0005C12.5 40.689 13.0603 41.2493 13.7506 41.2493H46.2491C46.9412 41.2493 47.5016 40.689 47.5016 40.0005C47.5016 39.3084 46.9412 38.748 46.2491 38.748ZM13.7506 42.498H46.2491C46.9412 42.498 47.5016 43.0584 47.5016 43.7505C47.5016 44.439 46.9412 44.9993 46.2491 44.9993H13.7506C13.0603 44.9993 12.5 44.439 12.5 43.7505C12.5 43.0583 13.0603 42.498 13.7506 42.498Z"/>
</mask>
<path fill-rule="evenodd" clip-rule="evenodd" d="M58.7513 28.7503C58.0591 28.7503 57.4987 29.3096 57.4987 30C57.4987 33.7134 56.7736 37.3151 55.3399 40.7044C53.9538 43.9784 51.9727 46.9189 49.4457 49.4459C46.9188 51.9728 43.9782 53.9539 40.7043 55.34C37.315 56.7737 33.7133 57.4989 29.9999 57.4989C26.2864 57.4989 22.6848 56.7737 19.2964 55.34C16.0225 53.9539 13.0809 51.9728 10.554 49.4459C8.02805 46.9191 6.045 43.9784 4.65984 40.7044C3.22699 37.3151 2.50008 33.7134 2.50008 30C2.50008 26.2866 3.22699 22.6849 4.65984 19.2966C6.045 16.0218 8.02805 13.0811 10.554 10.5541C13.0808 8.02816 16.0225 6.04512 19.2964 4.65996C22.6848 3.22629 26.2864 2.5002 29.9999 2.5002C33.7133 2.5002 37.315 3.22617 40.7043 4.65996C43.7328 5.94176 46.4794 7.73707 48.8745 10.0002H44.2859C43.5974 10.0002 43.0371 10.5595 43.0371 11.2499C43.0371 11.9402 43.5974 12.4996 44.2859 12.4996H51.7859C52.478 12.4996 53.0384 11.9402 53.0384 11.2499V3.75C53.0384 3.05965 52.4781 2.50031 51.7859 2.50031C51.0974 2.50031 50.5371 3.05965 50.5371 3.75V8.13258C45.1685 3.08895 37.9467 0 30 0C13.4317 0 0 13.4317 0 30C0 46.5674 13.4317 60 30 60C46.5674 60 60 46.5674 60 30C60 29.3096 59.4397 28.7503 58.7513 28.7503ZM12.5 17.5V27.4994V37.4997H47.5016V27.4994V17.5H12.5ZM45.0003 27.4994V34.9984H15.0003V27.4994V19.9994H45.0003V27.4994ZM23.7266 27.4222C23.7266 23.9707 26.5244 21.1719 29.9769 21.1719C33.4284 21.1719 36.2263 23.9707 36.2263 27.4222C36.2263 30.8737 33.4284 33.6734 29.9769 33.6734C26.5245 33.6734 23.7266 30.8737 23.7266 27.4222ZM26.2269 27.4222C26.2269 29.4895 27.9088 31.1722 29.9769 31.1722C32.0442 31.1722 33.7269 29.4895 33.7269 27.4222C33.7269 25.3541 32.0442 23.6722 29.9769 23.6722C27.9088 23.6722 26.2269 25.3541 26.2269 27.4222ZM46.2491 38.748H13.7506C13.0603 38.748 12.5 39.3083 12.5 40.0005C12.5 40.689 13.0603 41.2493 13.7506 41.2493H46.2491C46.9412 41.2493 47.5016 40.689 47.5016 40.0005C47.5016 39.3084 46.9412 38.748 46.2491 38.748ZM13.7506 42.498H46.2491C46.9412 42.498 47.5016 43.0584 47.5016 43.7505C47.5016 44.439 46.9412 44.9993 46.2491 44.9993H13.7506C13.0603 44.9993 12.5 44.439 12.5 43.7505C12.5 43.0583 13.0603 42.498 13.7506 42.498Z" fill="#282828"/>
<path d="M55.3399 40.7044L56.2608 41.0942L56.2609 41.094L55.3399 40.7044ZM40.7043 55.34L41.0938 56.261L41.0941 56.2609L40.7043 55.34ZM19.2964 55.34L18.9066 56.2609L18.9068 56.261L19.2964 55.34ZM10.554 49.4459L9.8468 50.1528L9.84692 50.153L10.554 49.4459ZM4.65984 40.7044L3.73877 41.0938L3.73888 41.094L4.65984 40.7044ZM4.65984 19.2966L3.73884 18.907L3.73881 18.9071L4.65984 19.2966ZM10.554 10.5541L9.84703 9.84692L9.84678 9.84716L10.554 10.5541ZM19.2964 4.65996L19.6861 5.58093L19.6861 5.58091L19.2964 4.65996ZM40.7043 4.65996L41.094 3.73904L41.0939 3.73898L40.7043 4.65996ZM48.8745 10.0002V11.0002H51.3888L49.5613 9.27335L48.8745 10.0002ZM50.5371 8.13258L49.8524 8.8614L51.5371 10.4441V8.13258H50.5371ZM12.5 17.5V16.5H11.5V17.5H12.5ZM12.5 37.4997H11.5V38.4997H12.5V37.4997ZM47.5016 37.4997V38.4997H48.5016V37.4997H47.5016ZM47.5016 17.5H48.5016V16.5H47.5016V17.5ZM45.0003 34.9984V35.9984H46.0003V34.9984H45.0003ZM15.0003 34.9984H14.0003V35.9984H15.0003V34.9984ZM15.0003 19.9994V18.9994H14.0003V19.9994H15.0003ZM45.0003 19.9994H46.0003V18.9994H45.0003V19.9994ZM58.4987 30C58.4987 29.8639 58.6094 29.7503 58.7513 29.7503V27.7503C57.5089 27.7503 56.4987 28.7554 56.4987 30H58.4987ZM56.2609 41.094C57.7473 37.5799 58.4987 33.8457 58.4987 30H56.4987C56.4987 33.5812 55.7998 37.0502 54.4189 40.3148L56.2609 41.094ZM50.1529 50.153C52.7706 47.5353 54.8244 44.487 56.2608 41.0942L54.4191 40.3145C53.0833 43.4697 51.1748 46.3026 48.7386 48.7388L50.1529 50.153ZM41.0941 56.2609C44.4869 54.8245 47.5351 52.7707 50.1529 50.153L48.7386 48.7388C46.3025 51.1749 43.4696 53.0834 40.3144 54.4192L41.0941 56.2609ZM29.9999 58.4989C33.8456 58.4989 37.5798 57.7475 41.0938 56.261L40.3147 54.419C37.0501 55.8 33.5811 56.4989 29.9999 56.4989V58.4989ZM18.9068 56.261C22.4199 57.7475 26.1542 58.4989 29.9999 58.4989V56.4989C26.4187 56.4989 22.9497 55.8 19.6861 54.4191L18.9068 56.261ZM9.84692 50.153C12.4647 52.7707 15.5139 54.8246 18.9066 56.2609L19.6863 54.4192C16.531 53.0833 13.6972 51.1748 11.2611 48.7388L9.84692 50.153ZM3.73888 41.094C5.17447 44.4872 7.23032 47.5355 9.8468 50.1528L11.2612 48.7389C8.82577 46.3026 6.91553 43.4695 5.58081 40.3147L3.73888 41.094ZM1.50008 30C1.50008 33.846 2.25337 37.5802 3.73877 41.0938L5.58092 40.315C4.20062 37.05 3.50008 33.5809 3.50008 30H1.50008ZM3.73881 18.9071C2.25336 22.4198 1.50008 26.154 1.50008 30H3.50008C3.50008 26.4191 4.20062 22.95 5.58088 19.686L3.73881 18.9071ZM9.84678 9.84716C7.23031 12.4646 5.17444 15.5129 3.73884 18.907L5.58085 19.6861C6.91556 16.5306 8.82579 13.6975 11.2613 11.2611L9.84678 9.84716ZM18.9068 3.73899C15.5137 5.17455 12.4644 7.23037 9.84703 9.84692L11.261 11.2614C13.6972 8.82596 16.5312 6.91569 19.6861 5.58093L18.9068 3.73899ZM29.9999 1.5002C26.154 1.5002 22.4198 2.2526 18.9068 3.73901L19.6861 5.58091C22.9498 4.19998 26.4189 3.5002 29.9999 3.5002V1.5002ZM41.0939 3.73898C37.58 2.25248 33.8457 1.5002 29.9999 1.5002V3.5002C33.5809 3.5002 37.0499 4.19986 40.3147 5.58094L41.0939 3.73898ZM49.5613 9.27335C47.0797 6.92853 44.2327 5.06741 41.094 3.73904L40.3145 5.58088C43.233 6.8161 45.879 8.54561 48.1877 10.727L49.5613 9.27335ZM44.2859 11.0002H48.8745V9.0002H44.2859V11.0002ZM44.0371 11.2499C44.0371 11.1118 44.1497 11.0002 44.2859 11.0002V9.0002C43.0451 9.0002 42.0371 10.0072 42.0371 11.2499H44.0371ZM44.2859 11.4996C44.1497 11.4996 44.0371 11.388 44.0371 11.2499H42.0371C42.0371 12.4925 43.0451 13.4996 44.2859 13.4996V11.4996ZM51.7859 11.4996H44.2859V13.4996H51.7859V11.4996ZM52.0384 11.2499C52.0384 11.3859 51.9277 11.4996 51.7859 11.4996V13.4996C53.0282 13.4996 54.0384 12.4945 54.0384 11.2499H52.0384ZM52.0384 3.75V11.2499H54.0384V3.75H52.0384ZM51.7859 3.50031C51.9278 3.50031 52.0384 3.61389 52.0384 3.75H54.0384C54.0384 2.50541 53.0284 1.50031 51.7859 1.50031V3.50031ZM51.5371 3.75C51.5371 3.61193 51.6497 3.50031 51.7859 3.50031V1.50031C50.5451 1.50031 49.5371 2.50737 49.5371 3.75H51.5371ZM51.5371 8.13258V3.75H49.5371V8.13258H51.5371ZM30 1C37.6823 1 44.6618 3.98497 49.8524 8.8614L51.2218 7.40376C45.6752 2.19292 38.2112 -1 30 -1V1ZM1 30C1 13.984 13.984 1 30 1V-1C12.8794 -1 -1 12.8794 -1 30H1ZM30 59C13.984 59 1 46.0151 1 30H-1C-1 47.1196 12.8794 61 30 61V59ZM59 30C59 46.0151 46.0151 59 30 59V61C47.1197 61 61 47.1197 61 30H59ZM58.7513 29.7503C58.8874 29.7503 59 29.8619 59 30H61C61 28.7574 59.992 27.7503 58.7513 27.7503V29.7503ZM13.5 27.4994V17.5H11.5V27.4994H13.5ZM13.5 37.4997V27.4994H11.5V37.4997H13.5ZM47.5016 36.4997H12.5V38.4997H47.5016V36.4997ZM46.5016 27.4994V37.4997H48.5016V27.4994H46.5016ZM46.5016 17.5V27.4994H48.5016V17.5H46.5016ZM12.5 18.5H47.5016V16.5H12.5V18.5ZM46.0003 34.9984V27.4994H44.0003V34.9984H46.0003ZM15.0003 35.9984H45.0003V33.9984H15.0003V35.9984ZM14.0003 27.4994V34.9984H16.0003V27.4994H14.0003ZM14.0003 19.9994V27.4994H16.0003V19.9994H14.0003ZM45.0003 18.9994H15.0003V20.9994H45.0003V18.9994ZM46.0003 27.4994V19.9994H44.0003V27.4994H46.0003ZM29.9769 20.1719C25.972 20.1719 22.7266 23.4185 22.7266 27.4222H24.7266C24.7266 24.5229 27.0768 22.1719 29.9769 22.1719V20.1719ZM37.2263 27.4222C37.2263 23.4186 33.9809 20.1719 29.9769 20.1719V22.1719C32.8759 22.1719 35.2263 24.5228 35.2263 27.4222H37.2263ZM29.9769 34.6734C33.9811 34.6734 37.2263 31.4256 37.2263 27.4222H35.2263C35.2263 30.3218 32.8757 32.6734 29.9769 32.6734V34.6734ZM22.7266 27.4222C22.7266 31.4257 25.972 34.6734 29.9769 34.6734V32.6734C27.0771 32.6734 24.7266 30.3217 24.7266 27.4222H22.7266ZM29.9769 30.1722C28.4612 30.1722 27.2269 28.9374 27.2269 27.4222H25.2269C25.2269 30.0416 27.3563 32.1722 29.9769 32.1722V30.1722ZM32.7269 27.4222C32.7269 28.9372 31.4919 30.1722 29.9769 30.1722V32.1722C32.5965 32.1722 34.7269 30.0418 34.7269 27.4222H32.7269ZM29.9769 24.6722C31.492 24.6722 32.7269 25.9065 32.7269 27.4222H34.7269C34.7269 24.8016 32.5963 22.6722 29.9769 22.6722V24.6722ZM27.2269 27.4222C27.2269 25.9063 28.461 24.6722 29.9769 24.6722V22.6722C27.3565 22.6722 25.2269 24.8018 25.2269 27.4222H27.2269ZM13.7506 39.748H46.2491V37.748H13.7506V39.748ZM13.5 40.0005C13.5 39.8596 13.6135 39.748 13.7506 39.748V37.748C12.507 37.748 11.5 38.757 11.5 40.0005H13.5ZM13.7506 40.2493C13.6116 40.2493 13.5 40.1358 13.5 40.0005H11.5C11.5 41.2423 12.509 42.2493 13.7506 42.2493V40.2493ZM46.2491 40.2493H13.7506V42.2493H46.2491V40.2493ZM46.5016 40.0005C46.5016 40.1347 46.3909 40.2493 46.2491 40.2493V42.2493C47.4914 42.2493 48.5016 41.2433 48.5016 40.0005H46.5016ZM46.2491 39.748C46.3889 39.748 46.5016 39.8607 46.5016 40.0005H48.5016C48.5016 38.7562 47.4935 37.748 46.2491 37.748V39.748ZM46.2491 41.498H13.7506V43.498H46.2491V41.498ZM48.5016 43.7505C48.5016 42.5062 47.4935 41.498 46.2491 41.498V43.498C46.3889 43.498 46.5016 43.6107 46.5016 43.7505H48.5016ZM46.2491 45.9993C47.4914 45.9993 48.5016 44.9933 48.5016 43.7505H46.5016C46.5016 43.8847 46.3909 43.9993 46.2491 43.9993V45.9993ZM13.7506 45.9993H46.2491V43.9993H13.7506V45.9993ZM11.5 43.7505C11.5 44.9923 12.509 45.9993 13.7506 45.9993V43.9993C13.6116 43.9993 13.5 43.8858 13.5 43.7505H11.5ZM13.7506 41.498C12.507 41.498 11.5 42.507 11.5 43.7505H13.5C13.5 43.6096 13.6135 43.498 13.7506 43.498V41.498Z" fill="#282828" mask="url(#path-1-inside-1_2516_14710)"/>
</svg>
