<svg width="55" height="55" viewBox="0 0 55 55" fill="none" xmlns="http://www.w3.org/2000/svg">
<g clip-path="url(#clip0_9_44)">
<rect width="55" height="55" fill="white"/>
<path d="M28.2822 39.9902L28.2822 39.9902C28.4342 40.1421 28.5219 40.3537 28.5219 40.5684C28.5219 40.783 28.4342 40.9945 28.2824 41.1464C28.1292 41.2986 27.9185 41.3861 27.7041 41.3861C27.4887 41.3861 27.2779 41.2986 27.1248 41.1463C26.9733 40.9947 26.8863 40.7834 26.8863 40.5684C26.8863 40.3533 26.9733 40.1419 27.125 39.9902C27.2768 39.8384 27.4884 39.7506 27.7041 39.7506C27.9188 39.7506 28.1303 39.8382 28.2822 39.9902Z" fill="#282828" stroke="#D1E8EB" stroke-width="0.3"/>
<path d="M28.2822 41.1465C28.1303 41.2984 27.9188 41.3861 27.7041 41.3861C27.4893 41.3861 27.2779 41.2984 27.126 41.1465C26.974 40.9946 26.8863 40.783 26.8863 40.5684C26.8863 40.3537 26.974 40.1421 27.126 39.9902C27.2779 39.8383 27.4894 39.7506 27.7041 39.7506C27.9197 39.7506 28.1303 39.8382 28.2822 39.9902C28.4342 40.1421 28.5219 40.3537 28.5219 40.5684C28.5219 40.783 28.4342 40.9946 28.2822 41.1465Z" fill="#282828" stroke="#D1E8EB" stroke-width="0.3"/>
<circle cx="27.647" cy="17.0006" r="10.9449" stroke="#282828" stroke-width="2"/>
<path d="M27.5328 11.3953L29.0528 13.7619C29.3237 14.1836 29.7429 14.4882 30.2277 14.6155L32.9481 15.3298L31.1671 17.5068C30.8498 17.8947 30.6896 18.3876 30.7184 18.8879L30.8796 21.696L28.2588 20.6749C27.7919 20.4929 27.2736 20.4929 26.8067 20.6749L24.1859 21.696L24.3471 18.8879C24.3759 18.3876 24.2157 17.8947 23.8984 17.5068L22.1174 15.3298L24.8378 14.6155C25.3226 14.4882 25.7418 14.1836 26.0127 13.7619L27.5328 11.3953Z" stroke="#282828" stroke-width="2"/>
<path d="M11.9827 26.8877L16.4162 34.8476M43.0114 26.8877L38.584 34.8476M51.9446 53.9328C51.2982 48.47 48.8345 43.3495 44.9055 39.4205C40.2893 34.8043 34.0284 32.2109 27.5001 32.2109C20.9718 32.2109 14.7109 34.8043 10.0947 39.4205C6.16567 43.3495 3.70206 48.47 3.05566 53.9328H51.9446ZM40.8178 45.2395C40.8178 46.4366 39.8473 47.407 38.6502 47.407C37.4531 47.407 36.4826 46.4366 36.4826 45.2395C36.4826 44.0423 37.4531 43.0719 38.6502 43.0719C39.8473 43.0719 40.8178 44.0423 40.8178 45.2395ZM18.4234 45.2395C18.4234 46.4366 17.453 47.407 16.2558 47.407C15.0587 47.407 14.0882 46.4366 14.0882 45.2395C14.0882 44.0423 15.0587 43.0719 16.2558 43.0719C17.453 43.0719 18.4234 44.0423 18.4234 45.2395Z" stroke="#282828" stroke-width="2" stroke-linecap="round" stroke-linejoin="round"/>
</g>
<defs>
<clipPath id="clip0_9_44">
<rect width="55" height="55" fill="white"/>
</clipPath>
</defs>
</svg>
