<svg width="55" height="55" viewBox="0 0 55 55" fill="none" xmlns="http://www.w3.org/2000/svg">
<g clip-path="url(#clip0_9_2)">
<rect width="55" height="55" fill="white"/>
<path d="M43.6358 23.6836H24.5749C25.4268 22.6673 25.9415 21.3591 25.9415 19.9322C25.9415 16.7062 23.3171 14.0818 20.0912 14.0818C16.8652 14.0818 14.2408 16.7062 14.2408 19.9322C14.2408 21.3591 14.7556 22.6673 15.6073 23.6836H11.1398C8.34703 23.6836 6.075 25.9556 6.075 28.7484V34.6658C6.075 35.2474 6.54641 35.7188 7.12796 35.7188C7.70951 35.7188 8.18093 35.2474 8.18093 34.6658V28.7484C8.18093 27.1169 9.50833 25.7895 11.1398 25.7895H39.2228C40.8543 25.7895 42.1817 27.1169 42.1817 28.7484V34.1144H31.8009C29.0081 34.1144 26.736 36.3864 26.736 39.1792C26.736 41.972 29.0081 44.244 31.8009 44.244H42.1817V49.6101C42.1817 51.2415 40.8543 52.5689 39.2228 52.5689H11.1398C9.50833 52.5689 8.18093 51.2415 8.18093 49.6101V43.6847C8.18093 43.1032 7.70951 42.6318 7.12796 42.6318C6.54641 42.6318 6.075 43.1032 6.075 43.6847V49.6101C6.075 52.4028 8.34703 54.6749 11.1398 54.6749H43.6358C46.4286 54.6749 48.7006 52.4028 48.7006 49.6101V28.7484C48.7006 25.9556 46.4286 23.6836 43.6358 23.6836ZM20.0912 16.1879C22.1558 16.1879 23.8356 17.8676 23.8356 19.9323C23.8356 21.9969 22.1558 23.6767 20.0912 23.6767C18.0266 23.6767 16.3468 21.9969 16.3468 19.9323C16.3468 17.8676 18.0265 16.1879 20.0912 16.1879ZM44.2876 28.7484C44.2876 27.6448 43.9325 26.6225 43.3309 25.7895H43.6358C45.2673 25.7895 46.5947 27.1169 46.5947 28.7484V34.1144H44.2876V28.7484ZM28.842 39.1792C28.842 37.5477 30.1694 36.2203 31.8009 36.2203H46.5947V42.1381H31.8009C30.1694 42.1381 28.842 40.8107 28.842 39.1792ZM43.6358 52.5689H43.3309C43.9325 51.736 44.2876 50.7138 44.2876 49.6101V44.244H46.5947V49.6101C46.5947 51.2415 45.2673 52.5689 43.6358 52.5689Z" fill="#282828" stroke="#D1E8EB" stroke-width="0.1"/>
<path d="M34.6841 17.0237C37.9101 17.0237 40.5345 14.3993 40.5345 11.1734C40.5345 7.94752 37.9101 5.32305 34.6841 5.32305C31.4582 5.32305 28.8338 7.94742 28.8338 11.1734C28.8338 14.3993 31.4582 17.0237 34.6841 17.0237ZM34.6841 7.42907C36.7487 7.42907 38.4285 9.10882 38.4285 11.1735C38.4285 13.2382 36.7488 14.9179 34.6841 14.9179C32.6195 14.9179 30.9397 13.2382 30.9397 11.1735C30.9397 9.10882 32.6195 7.42907 34.6841 7.42907Z" fill="#282828" stroke="#D1E8EB" stroke-width="0.1"/>
<path d="M24.8877 13.1043C25.4693 13.1043 25.9407 12.6329 25.9407 12.0513V4.16996C25.9407 3.5884 25.4693 3.11699 24.8877 3.11699C24.3062 3.11699 23.8348 3.5884 23.8348 4.16996V12.0513C23.8348 12.6329 24.3062 13.1043 24.8877 13.1043Z" fill="#282828" stroke="#D1E8EB" stroke-width="0.1"/>
<path d="M20.0752 9.63596C20.6568 9.63596 21.1282 9.16454 21.1282 8.58299V4.16996C21.1282 3.5884 20.6568 3.11699 20.0752 3.11699C19.4937 3.11699 19.0223 3.5884 19.0223 4.16996V8.58299C19.0223 9.16454 19.4937 9.63596 20.0752 9.63596Z" fill="#282828" stroke="#D1E8EB" stroke-width="0.1"/>
</g>
<defs>
<clipPath id="clip0_9_2">
<rect width="55" height="55" fill="white"/>
</clipPath>
</defs>
</svg>
