<svg width="55" height="55" viewBox="0 0 55 55" fill="none" xmlns="http://www.w3.org/2000/svg">
<g clip-path="url(#clip0_9_19)">
<rect width="55" height="55" fill="white"/>
<path fill-rule="evenodd" clip-rule="evenodd" d="M22.1236 19.6542C22.3227 19.7599 22.5636 19.7482 22.7509 19.6279C23.0226 19.6478 23.2944 19.7063 23.5634 19.7964C24.5911 20.1406 25.5065 20.9232 26.0267 21.5475C26.2466 21.8114 26.6388 21.847 26.9027 21.6271C27.1666 21.4072 27.2022 21.015 26.9823 20.7511C26.3665 20.0122 25.2711 19.0565 23.9585 18.6169C23.9271 18.6063 23.8954 18.5961 23.8637 18.5861C25.2442 17.5803 26.9281 17.4266 28.6122 17.7711C30.7354 18.2054 32.7577 19.4209 33.9035 20.5666C34.9592 21.6224 35.1253 22.7912 34.9093 23.8638C34.7429 24.6905 34.3471 25.4541 33.9437 26.0223L33.211 24.3124C33.1264 24.1149 32.9458 23.9751 32.7334 23.9426C32.5211 23.9101 32.3069 23.9895 32.1671 24.1526C31.568 24.8515 29.6826 26.3211 27.186 26.3211C24.6894 26.3211 22.8043 24.8516 22.2052 24.1526C22.0654 23.9895 21.8513 23.9101 21.6389 23.9426C21.4265 23.9751 21.2459 24.1149 21.1613 24.3124L20.4286 26.0223C20.0252 25.4541 19.6294 24.6905 19.463 23.8638C19.247 22.7912 19.4131 21.6224 20.4688 20.5666C21.0038 20.0316 21.5362 19.7692 22.0374 19.6697C22.0661 19.664 22.0948 19.6589 22.1236 19.6542ZM22.2163 18.3902C24.0864 16.3975 26.5822 16.0862 28.8615 16.5524C31.237 17.0383 33.475 18.3789 34.7831 19.687C36.1812 21.0852 36.4127 22.6997 36.1288 24.1093C35.8751 25.3695 35.213 26.4719 34.6244 27.1758V27.3506C35.1658 27.3768 35.8698 27.4803 36.4913 27.7289C37.2085 28.0157 38.0326 28.5981 38.0326 29.6696C38.0326 30.2034 37.8971 30.662 37.6193 31.0297C37.3449 31.3929 36.9734 31.6121 36.5973 31.7464C35.9682 31.9711 35.2107 31.9934 34.5956 31.9955C34.3977 34.0958 33.2044 35.554 31.7946 36.507C31.4968 36.7083 31.1883 36.8881 30.8755 37.0481V39.0821L41.328 42.0219C41.3448 42.0266 41.3615 42.0321 41.3779 42.0382C42.4339 42.4342 44.5081 43.9082 44.5081 46.7104V54.2083C44.5081 54.5518 44.2296 54.8303 43.8861 54.8303H38.4952C38.3999 54.8897 38.2873 54.924 38.1668 54.924C38.0462 54.924 37.9337 54.8897 37.8384 54.8303H27.5304C27.5293 54.8303 27.5281 54.8303 27.527 54.8303H17.0238C16.9285 54.8897 16.816 54.924 16.6954 54.924C16.5749 54.924 16.4624 54.8897 16.3671 54.8303H10.4862C10.1427 54.8303 9.86426 54.5518 9.86426 54.2083V46.7104C9.86426 43.9082 11.9384 42.4342 12.9944 42.0383C13.0108 42.0321 13.0275 42.0266 13.0444 42.0219L23.4968 39.0821V37.0482C23.184 36.8882 22.8754 36.7083 22.5776 36.507C21.1669 35.5534 19.9731 34.0939 19.7763 31.9914C19.2363 31.979 18.6327 31.9311 18.1158 31.7464C17.7397 31.6121 17.3682 31.3929 17.0938 31.0297C16.816 30.662 16.6806 30.2034 16.6806 29.6696C16.6806 28.5981 17.5046 28.0157 18.2218 27.7289C18.7195 27.5298 19.2702 27.4237 19.7479 27.376V27.1758C19.1594 26.4719 18.4973 25.3695 18.2435 24.1093C17.9596 22.6997 18.1911 21.0852 19.5892 19.687C20.2812 18.9951 21.0297 18.6015 21.7952 18.4496C21.9365 18.4216 22.077 18.402 22.2163 18.3902ZM19.7479 28.6275C19.3954 28.6708 19.0137 28.7519 18.6838 28.8838C18.1229 29.1082 17.9245 29.3778 17.9245 29.6696C17.9245 29.9879 18.0021 30.1683 18.0863 30.2798C18.1741 30.396 18.3138 30.4963 18.5342 30.575C18.8661 30.6935 19.2831 30.7327 19.7479 30.7456V28.6275ZM20.9918 27.498C21.1176 27.4343 21.2225 27.3278 21.2824 27.1881L21.9505 25.629C23.0122 26.5131 24.868 27.5651 27.186 27.5651C29.504 27.5651 31.36 26.5131 32.4218 25.629L33.0899 27.1881C33.1498 27.3278 33.2547 27.4343 33.3805 27.4979V31.3737C33.3805 33.2982 32.3932 34.6009 31.0979 35.4765C29.8083 36.3482 28.2457 36.7672 27.186 36.883C26.1263 36.7672 24.5638 36.3482 23.2743 35.4765C21.9791 34.6009 20.9918 33.2982 20.9918 31.3737V27.498ZM34.6244 28.5963V30.751C35.226 30.7469 35.7677 30.7218 36.179 30.575C36.3993 30.4963 36.539 30.396 36.6268 30.2798C36.7111 30.1683 36.7886 29.9879 36.7886 29.6696C36.7886 29.3778 36.5903 29.1082 36.0294 28.8838C35.5891 28.7077 35.0566 28.6222 34.6244 28.5963ZM24.7408 37.5808V39.2779L27.5407 41.8191L29.6315 39.3269V37.5807C28.7543 37.8906 27.9115 38.0609 27.2479 38.1273C27.2067 38.1314 27.1653 38.1314 27.1241 38.1273C26.4605 38.0609 25.6179 37.8906 24.7408 37.5808ZM30.4718 40.2608L28.078 43.114C27.9693 43.2436 27.8125 43.3234 27.6437 43.3348C27.4749 43.3463 27.3088 43.2885 27.1835 43.1748L23.9558 40.2453L13.4082 43.2118C12.6385 43.511 11.1082 44.6258 11.1082 46.7104V53.5864H16.0735V49.1898C16.0735 48.8463 16.3519 48.5678 16.6954 48.5678C17.039 48.5678 17.3174 48.8463 17.3174 49.1898V53.5864H26.8419C26.843 53.5863 26.8442 53.5863 26.8453 53.5863H37.5448V49.1898C37.5448 48.8463 37.8233 48.5678 38.1668 48.5678C38.5103 48.5678 38.7888 48.8463 38.7888 49.1898V53.5863H43.2641V46.7104C43.2641 44.6258 41.7338 43.5109 40.9641 43.2118L30.4718 40.2608Z" fill="#282828" stroke="black" stroke-width="0.3" stroke-linecap="round" stroke-linejoin="round"/>
<path fill-rule="evenodd" clip-rule="evenodd" d="M11.0724 24.933C10.3606 24.9898 9.66666 25.2458 8.97099 25.9463C7.79917 27.1261 7.60513 28.4919 7.84256 29.679C8.0503 30.7177 8.58533 31.6264 9.06854 32.2171V32.244C8.69463 32.2885 8.27624 32.3764 7.89319 32.5307C7.29139 32.773 6.56459 33.2804 6.56459 34.2281C6.56459 34.6851 6.67998 35.0862 6.92383 35.4112C7.16449 35.7319 7.48887 35.9232 7.81075 36.039C8.21608 36.1847 8.68155 36.2303 9.1022 36.2444C9.29349 37.9586 10.2758 39.155 11.4271 39.9387C11.6549 40.0937 11.8903 40.2335 12.1289 40.359V41.8816L3.6785 44.2746C3.66153 44.2794 3.64477 44.2849 3.62827 44.2911C2.73743 44.6275 1.00027 45.8718 1.00027 48.2345L1 54.2104C0.999993 54.3753 1.06552 54.5335 1.18216 54.6502C1.29881 54.7668 1.45701 54.8324 1.62197 54.8324H15.5328C15.8763 54.8324 16.1548 54.5539 16.1548 54.2104C16.1548 53.8669 15.8763 53.5884 15.5328 53.5884H7.31274L7.31297 50.2725C7.31299 49.929 7.03454 49.6505 6.69104 49.6504C6.34753 49.6504 6.06905 49.9289 6.06902 50.2724L6.0688 53.5884H2.24397L2.24422 48.2346C2.24422 46.5844 3.44398 45.7011 4.04503 45.4636L12.9204 42.9503C13.1881 42.8745 13.3729 42.6301 13.3729 42.3519V40.8876C14.0433 41.1124 14.6816 41.2385 15.1924 41.2899C15.2338 41.2941 15.2756 41.2941 15.317 41.2899C15.8278 41.2385 16.4663 41.1124 17.1368 40.8875V41.1081C17.1368 41.4516 17.4153 41.7301 17.7588 41.7301C18.1023 41.7301 18.3808 41.4516 18.3808 41.1081V40.3589C18.6194 40.2334 18.8547 40.0937 19.0824 39.9387C20.367 39.0644 21.4411 37.6764 21.4411 35.6288C21.4411 35.6051 21.4398 35.5815 21.4371 35.558L21.024 31.9515C20.9849 31.6102 20.6766 31.3653 20.3353 31.4044C19.994 31.4434 19.7491 31.7518 19.7882 32.0931L20.1971 35.6631C20.1855 37.1823 19.4088 38.2118 18.3825 38.9103C17.354 39.6104 16.1051 39.95 15.2547 40.0456C14.4044 39.95 13.1555 39.6104 12.1271 38.9103C11.0931 38.2066 10.3125 37.1668 10.3125 35.6288V32.5056C10.4106 32.4406 10.4915 32.3471 10.541 32.2307L11.0268 31.0894C11.9261 31.8071 13.4143 32.6091 15.2547 32.6091C16.6097 32.6091 17.77 32.1731 18.6353 31.6688C18.9321 31.4959 19.0325 31.1151 18.8596 30.8183C18.6866 30.5215 18.3058 30.4211 18.009 30.594C17.2861 31.0153 16.3403 31.3651 15.2547 31.3651C13.2607 31.3651 11.7514 30.1804 11.2769 29.623C11.1372 29.4589 10.9225 29.3788 10.7094 29.4114C10.4964 29.4439 10.3154 29.5843 10.231 29.7826L9.7155 30.9938C9.43652 30.5608 9.17865 30.0166 9.06235 29.435C8.89172 28.5819 9.02226 27.6599 9.8536 26.8229C10.3616 26.3114 10.8054 26.1801 11.3108 26.1654C11.3149 26.1654 11.319 26.1653 11.3231 26.1651C11.3994 26.1696 11.4761 26.16 11.5491 26.1367C11.5668 26.1327 11.5814 26.1286 11.5918 26.1249C11.6222 26.1112 11.67 26.0856 11.6878 26.0746C11.6998 26.0668 11.7199 26.0527 11.7282 26.0465C11.7344 26.0418 11.7452 26.0332 11.7499 26.0293L11.7634 26.0178L11.7694 26.0124C11.7941 25.9908 11.8174 25.9669 11.839 25.9408L11.8463 25.9318L11.8508 25.9263L11.856 25.9196C13.6218 23.9096 16.4788 24.2195 18.7103 25.4137C19.0132 25.5758 19.3901 25.4617 19.5522 25.1588C19.7143 24.856 19.6001 24.4791 19.2973 24.317C16.9394 23.0551 13.4219 22.4501 11.0724 24.933ZM9.06854 33.4993C8.82717 33.5365 8.57702 33.5963 8.35791 33.6845C7.91639 33.8624 7.80854 34.0553 7.80854 34.2281C7.80854 34.4715 7.86704 34.5956 7.9188 34.6646C7.97374 34.7378 8.06668 34.8091 8.23168 34.8684C8.45979 34.9504 8.74369 34.984 9.06854 34.9976V33.4993ZM11.8276 25.9523C11.8269 25.9531 11.827 25.953 11.8276 25.9523V25.9523Z" fill="#282828" stroke="black" stroke-width="0.3" stroke-linecap="round" stroke-linejoin="round"/>
<path fill-rule="evenodd" clip-rule="evenodd" d="M43.9276 24.933C44.6394 24.9898 45.3333 25.2458 46.029 25.9463C47.2008 27.1261 47.3949 28.4919 47.1574 29.679C46.9497 30.7177 46.4147 31.6264 45.9315 32.2171V32.244C46.3054 32.2885 46.7238 32.3764 47.1068 32.5307C47.7086 32.773 48.4354 33.2804 48.4354 34.2281C48.4354 34.6851 48.32 35.0862 48.0762 35.4112C47.8355 35.7319 47.5111 35.9232 47.1893 36.039C46.7839 36.1847 46.3185 36.2303 45.8978 36.2444C45.7065 37.9586 44.7242 39.155 43.5729 39.9387C43.3451 40.0937 43.1097 40.2335 42.8711 40.359V41.8816L51.3215 44.2746C51.3385 44.2794 51.3552 44.2849 51.3717 44.2911C52.2626 44.6275 53.9997 45.8718 53.9997 48.2345L54 54.2104C54 54.3753 53.9345 54.5335 53.8178 54.6502C53.7012 54.7668 53.543 54.8324 53.378 54.8324H39.4672C39.1237 54.8324 38.8452 54.5539 38.8452 54.2104C38.8452 53.8669 39.1237 53.5884 39.4672 53.5884H47.6873L47.687 50.2725C47.687 49.929 47.9655 49.6505 48.309 49.6504C48.6525 49.6504 48.931 49.9289 48.931 50.2724L48.9312 53.5884H52.756L52.7558 48.2346C52.7558 46.5844 51.556 45.7011 50.955 45.4636L42.0796 42.9503C41.8119 42.8745 41.6271 42.6301 41.6271 42.3519V40.8876C40.9567 41.1124 40.3184 41.2385 39.8076 41.2899C39.7662 41.2941 39.7244 41.2941 39.683 41.2899C39.1722 41.2385 38.5337 41.1124 37.8632 40.8875V41.1081C37.8632 41.4516 37.5847 41.7301 37.2412 41.7301C36.8977 41.7301 36.6192 41.4516 36.6192 41.1081V40.3589C36.3806 40.2334 36.1453 40.0937 35.9176 39.9387C34.633 39.0644 33.5589 37.6764 33.5589 35.6288C33.5589 35.6051 33.5602 35.5815 33.5629 35.558L33.976 31.9515C34.0151 31.6102 34.3234 31.3653 34.6647 31.4044C35.006 31.4434 35.2509 31.7518 35.2118 32.0931L34.8029 35.6631C34.8145 37.1823 35.5912 38.2118 36.6175 38.9103C37.646 39.6104 38.8949 39.95 39.7453 40.0456C40.5956 39.95 41.8445 39.6104 42.8729 38.9103C43.9069 38.2066 44.6875 37.1668 44.6875 35.6288V32.5056C44.5894 32.4406 44.5085 32.3471 44.459 32.2307L43.9732 31.0894C43.0739 31.8071 41.5857 32.6091 39.7453 32.6091C38.3903 32.6091 37.23 32.1731 36.3647 31.6688C36.0679 31.4959 35.9675 31.1151 36.1404 30.8183C36.3134 30.5215 36.6942 30.4211 36.991 30.594C37.7139 31.0153 38.6597 31.3651 39.7453 31.3651C41.7393 31.3651 43.2486 30.1804 43.7231 29.623C43.8628 29.4589 44.0775 29.3788 44.2906 29.4114C44.5036 29.4439 44.6846 29.5843 44.769 29.7826L45.2845 30.9938C45.5635 30.5608 45.8213 30.0166 45.9377 29.435C46.1083 28.5819 45.9777 27.6599 45.1464 26.8229C44.6384 26.3114 44.1946 26.1801 43.6892 26.1654C43.6851 26.1654 43.681 26.1653 43.6769 26.1651C43.6006 26.1696 43.5239 26.16 43.4509 26.1367C43.4332 26.1327 43.4186 26.1286 43.4082 26.1249C43.3778 26.1112 43.33 26.0856 43.3122 26.0746C43.3002 26.0668 43.2801 26.0527 43.2718 26.0465C43.2656 26.0418 43.2548 26.0332 43.2501 26.0293L43.2366 26.0178L43.2306 26.0124C43.2059 25.9908 43.1826 25.9669 43.161 25.9408L43.1537 25.9318L43.1492 25.9263L43.144 25.9196C41.3782 23.9096 38.5212 24.2195 36.2897 25.4137C35.9868 25.5758 35.6099 25.4617 35.4478 25.1588C35.2857 24.856 35.3999 24.4791 35.7027 24.317C38.0606 23.0551 41.5781 22.4501 43.9276 24.933ZM45.9315 33.4993C46.1728 33.5365 46.423 33.5963 46.6421 33.6845C47.0836 33.8624 47.1915 34.0553 47.1915 34.2281C47.1915 34.4715 47.133 34.5956 47.0812 34.6646C47.0263 34.7378 46.9333 34.8091 46.7683 34.8684C46.5402 34.9504 46.2563 34.984 45.9315 34.9976V33.4993ZM43.1724 25.9523C43.1731 25.9531 43.173 25.953 43.1724 25.9523V25.9523Z" fill="#282828" stroke="black" stroke-width="0.3" stroke-linecap="round" stroke-linejoin="round"/>
</g>
<defs>
<clipPath id="clip0_9_19">
<rect width="55" height="55" fill="white"/>
</clipPath>
</defs>
</svg>
