<svg width="55" height="55" viewBox="0 0 55 55" fill="none" xmlns="http://www.w3.org/2000/svg">
<rect width="55" height="55" fill="white"/>
<g clip-path="url(#clip0_7_176)">
<path d="M34.4813 34.0808V23.766C34.8888 23.6289 35.2342 23.3513 35.4558 22.9829C35.6773 22.6145 35.7605 22.1792 35.6905 21.7551C35.6205 21.3309 35.4019 20.9455 35.0737 20.6678C34.7456 20.3901 34.3293 20.2382 33.8994 20.2393H30.9886C30.5637 20.2384 30.1522 20.3868 29.8257 20.6586C29.4991 20.9304 29.2785 21.3083 29.2023 21.7262C29.126 22.1442 29.1991 22.5756 29.4086 22.9452C29.6181 23.3148 29.9508 23.599 30.3486 23.7482C30.2166 24.3783 29.872 24.944 29.3726 25.3503C28.8732 25.7566 28.2492 25.9788 27.6054 25.9798H11.8589C11.2151 25.9787 10.5911 25.7564 10.0918 25.3501C9.5924 24.9437 9.24796 24.3779 9.11612 23.7478C9.51364 23.5984 9.84609 23.3141 10.0554 22.9447C10.2647 22.5751 10.3376 22.1438 10.2613 21.726C10.185 21.3082 9.96449 20.9305 9.63816 20.6588C9.31175 20.3871 8.90032 20.2386 8.47567 20.2393H5.56647C5.1366 20.2383 4.72039 20.3902 4.3923 20.668C4.06421 20.9457 3.84565 21.3312 3.77571 21.7553C3.70577 22.1795 3.78902 22.6147 4.01057 22.983C4.23212 23.3514 4.5775 23.6289 4.98494 23.766V34.0808C4.24271 34.172 3.55938 34.5312 3.06344 35.0909C2.56751 35.6506 2.29316 36.3722 2.29199 37.1201V48.0855C2.2921 48.269 2.36502 48.4449 2.49474 48.5747C2.62445 48.7044 2.80036 48.7772 2.98381 48.7774H5.67439C5.85784 48.7772 6.03375 48.7044 6.16347 48.5747C6.29318 48.4449 6.3661 48.269 6.36621 48.0855C6.36757 47.343 6.66318 46.6311 7.1883 46.106C7.71339 45.5809 8.42526 45.2853 9.16791 45.2839H30.2984C31.0411 45.2847 31.7532 45.5802 32.2784 46.1055C32.8035 46.6307 33.0989 47.3428 33.0996 48.0855C33.0998 48.269 33.1727 48.4449 33.3024 48.5747C33.4321 48.7044 33.608 48.7772 33.7915 48.7774H36.4821C36.6655 48.7774 36.8415 48.7045 36.9712 48.5747C37.101 48.445 37.1738 48.269 37.1738 48.0855V37.1201C37.1727 36.3723 36.8984 35.6507 36.4025 35.091C35.9067 34.5313 35.2235 34.1721 34.4813 34.0808ZM30.9886 21.6229H33.8994C33.9572 21.6211 34.0148 21.6311 34.0687 21.6519C34.1226 21.6729 34.1718 21.7044 34.2133 21.7447C34.2549 21.785 34.2879 21.8332 34.3104 21.8864C34.3329 21.9397 34.3445 21.997 34.3445 22.0548C34.3445 22.1126 34.3329 22.1699 34.3104 22.2232C34.2879 22.2765 34.2549 22.3247 34.2133 22.3649C34.1718 22.4052 34.1226 22.4367 34.0687 22.4577C34.0148 22.4786 33.9572 22.4885 33.8994 22.4867H30.9886C30.8763 22.4833 30.7698 22.4363 30.6915 22.3557C30.6133 22.275 30.5696 22.1672 30.5696 22.0548C30.5696 21.9425 30.6133 21.8346 30.6915 21.7539C30.7698 21.6733 30.8763 21.6263 30.9886 21.6229ZM11.8589 27.3634H27.6054C28.5952 27.3625 29.5527 27.0112 30.3082 26.3718C31.0638 25.7325 31.5687 24.8463 31.7334 23.8703H33.0976V34.0563H31.4899V33.0893C31.4887 32.0674 31.0823 31.0877 30.3597 30.3651C29.6371 29.6425 28.6574 29.236 27.6355 29.2349H22.8955C22.2737 29.2353 21.6613 29.3863 21.1105 29.6748C20.5599 29.9634 20.0872 30.3811 19.7329 30.8921C19.3787 30.381 18.906 29.9634 18.3553 29.6748C17.8046 29.3862 17.1921 29.2353 16.5703 29.2349H11.8304C10.8085 29.236 9.82875 29.6425 9.10619 30.3651C8.38355 31.0877 7.97716 32.0674 7.97594 33.0893V34.0563H6.36819V23.8703H7.73248C7.8971 24.846 8.40173 25.732 9.15699 26.3713C9.91224 27.0107 10.8693 27.3621 11.8589 27.3634ZM9.35804 34.0563V33.0893C9.35873 32.4342 9.61929 31.8062 10.0825 31.343C10.5457 30.8798 11.1737 30.6193 11.8288 30.6185H16.5688C17.2238 30.6193 17.8519 30.8798 18.315 31.343C18.7782 31.8062 19.0388 32.4342 19.0395 33.0893V34.0563H9.35804ZM20.4232 33.0893C20.4239 32.4342 20.6844 31.8062 21.1477 31.343C21.6108 30.8798 22.2389 30.6193 22.8939 30.6185H27.6339C28.289 30.6193 28.917 30.8798 29.3802 31.343C29.8434 31.8062 30.104 32.4342 30.1047 33.0893V34.0563H20.4247L20.4232 33.0893ZM5.56647 21.6229H8.47728C8.53503 21.6211 8.59262 21.6311 8.64655 21.6519C8.70048 21.6729 8.74968 21.7044 8.79116 21.7447C8.83271 21.785 8.86571 21.8332 8.88825 21.8864C8.91078 21.9397 8.92239 21.997 8.92239 22.0548C8.92239 22.1126 8.91078 22.1699 8.88825 22.2232C8.86571 22.2765 8.83271 22.3247 8.79116 22.3649C8.74968 22.4052 8.70048 22.4367 8.64655 22.4577C8.59262 22.4786 8.53503 22.4885 8.47728 22.4867H5.56647C5.50865 22.4885 5.45107 22.4786 5.39715 22.4577C5.34322 22.4367 5.29404 22.4052 5.25252 22.3649C5.211 22.3247 5.178 22.2765 5.15546 22.2232C5.13293 22.1699 5.12131 22.1126 5.12131 22.0548C5.12131 21.997 5.13293 21.9397 5.15546 21.8864C5.178 21.8332 5.211 21.785 5.25252 21.7447C5.29404 21.7044 5.34322 21.6729 5.39715 21.6519C5.45107 21.6311 5.50865 21.6211 5.56647 21.6229ZM3.67563 37.1201C3.67615 36.6746 3.85334 36.2475 4.1683 35.9326C4.48328 35.6176 4.91032 35.4404 5.35576 35.4399H34.1101C34.5555 35.4404 34.9826 35.6176 35.2976 35.9326C35.6125 36.2475 35.7897 36.6746 35.7902 37.1201V39.8636H3.67563V37.1201ZM35.7902 47.3922H34.4264C34.2617 46.4161 33.7569 45.5299 33.0013 44.8904C32.2458 44.251 31.2882 43.8997 30.2984 43.8987H9.16791C8.17806 43.8997 7.2205 44.251 6.46493 44.8904C5.70935 45.5299 5.20452 46.4161 5.03989 47.3922H3.67563V41.2472H35.7902V47.3922Z" fill="black"/>
<path d="M52.2011 34.0565H46.8271V31.645H49.5208C49.6237 31.6449 49.7254 31.6219 49.8183 31.5776C49.9113 31.5333 49.9932 31.4689 50.058 31.389C50.1228 31.309 50.169 31.2156 50.1931 31.1155C50.2173 31.0154 50.2188 30.9111 50.1976 30.8105L49.0116 25.1771C48.9789 25.0217 48.8937 24.8824 48.7704 24.7824C48.6471 24.6825 48.4932 24.6279 48.3345 24.6279H43.9368C43.7782 24.6279 43.6242 24.6825 43.501 24.7825C43.3778 24.8825 43.2927 25.0218 43.26 25.1771L42.0741 30.8105C42.0529 30.9112 42.0544 31.0154 42.0787 31.1155C42.1029 31.2156 42.1491 31.309 42.214 31.389C42.2789 31.4689 42.3608 31.5333 42.4537 31.5776C42.5466 31.6219 42.6483 31.6449 42.7513 31.645H45.4446V34.0565H40.0698C39.9789 34.0564 39.8889 34.0743 39.8049 34.109C39.721 34.1438 39.6447 34.1947 39.5804 34.259C39.5162 34.3232 39.4652 34.3995 39.4305 34.4835C39.3957 34.5674 39.3779 34.6574 39.3779 34.7483V48.0857C39.3779 48.2692 39.4508 48.4452 39.5806 48.5749C39.7103 48.7046 39.8863 48.7776 40.0698 48.7776H43.2075C43.3909 48.7774 43.5668 48.7046 43.6965 48.5748C43.8263 48.4451 43.8992 48.2692 43.8993 48.0857V42.2816H48.3712V48.0857C48.3713 48.2692 48.4442 48.4451 48.5739 48.5748C48.7036 48.7046 48.8796 48.7774 49.063 48.7776H52.2011C52.3845 48.7774 52.5604 48.7046 52.6901 48.5748C52.8199 48.4451 52.8928 48.2692 52.8929 48.0857V34.7483C52.8929 34.5648 52.82 34.3888 52.6903 34.2591C52.5605 34.1293 52.3846 34.0565 52.2011 34.0565ZM44.4982 26.0124H47.7723L48.6677 30.2621H43.6028L44.4982 26.0124ZM40.7616 35.4401H51.5092V40.8979H40.7616V35.4401ZM42.5157 47.3924H40.7616V42.2816H42.5157V47.3924ZM51.5092 47.3924H49.7548V42.2816H51.5092V47.3924Z" fill="black"/>
<path d="M44.7778 38.8612H47.4956C47.6791 38.8612 47.8551 38.7883 47.9848 38.6586C48.1145 38.5288 48.1875 38.3529 48.1875 38.1694C48.1875 37.9859 48.1145 37.8099 47.9848 37.6802C47.8551 37.5505 47.6791 37.4775 47.4956 37.4775H44.7778C44.5943 37.4775 44.4183 37.5505 44.2886 37.6802C44.1588 37.8099 44.0859 37.9859 44.0859 38.1694C44.0859 38.3529 44.1588 38.5288 44.2886 38.6586C44.4183 38.7883 44.5943 38.8612 44.7778 38.8612Z" fill="black"/>
<path d="M19.7319 17.6131C20.8803 17.6132 22.003 17.2726 22.9579 16.6347C23.9129 15.9967 24.6572 15.0899 25.0967 14.0289C25.5363 12.9679 25.6513 11.8004 25.4273 10.674C25.2033 9.54759 24.6503 8.51293 23.8382 7.70084C23.0262 6.88874 21.9916 6.33568 20.8653 6.1116C19.7389 5.88752 18.5714 6.00249 17.5103 6.44196C16.4493 6.88143 15.5424 7.62567 14.9044 8.58055C14.2663 9.53545 13.9258 10.6581 13.9258 11.8065C13.927 13.3461 14.5391 14.8222 15.6277 15.9108C16.7163 16.9995 18.1923 17.6117 19.7319 17.6131ZM19.7319 7.38404C20.6067 7.38395 21.4619 7.6433 22.1893 8.12926C22.9167 8.61523 23.4836 9.30598 23.8184 10.1142C24.1533 10.9224 24.2409 11.8117 24.0702 12.6697C23.8996 13.5277 23.4783 14.3158 22.8598 14.9344C22.2412 15.553 21.4531 15.9742 20.5951 16.1448C19.7371 16.3155 18.8477 16.2279 18.0396 15.893C17.2314 15.5582 16.5406 14.9913 16.0546 14.2639C15.5687 13.5365 15.3093 12.6813 15.3094 11.8065C15.3112 10.6343 15.7778 9.51062 16.6068 8.68188C17.4359 7.85313 18.5597 7.38698 19.7319 7.38562V7.38404Z" fill="black"/>
<path d="M20.618 13.6714C20.7484 13.7974 20.9232 13.8672 21.1045 13.8656C21.2859 13.8641 21.4595 13.7914 21.5877 13.6631C21.7161 13.5349 21.7889 13.3614 21.7905 13.18C21.7921 12.9986 21.7223 12.8238 21.5964 12.6933L20.4246 11.5216V9.85491C20.4246 9.67142 20.3518 9.49546 20.222 9.36571C20.0923 9.23598 19.9163 9.16309 19.7328 9.16309C19.5493 9.16309 19.3734 9.23598 19.2436 9.36571C19.1139 9.49546 19.041 9.67142 19.041 9.85491V11.8066C19.0411 11.9902 19.114 12.1662 19.2438 12.296L20.618 13.6714Z" fill="black"/>
</g>
<defs>
<clipPath id="clip0_7_176">
<rect width="55" height="42.7778" fill="white" transform="translate(0 6)"/>
</clipPath>
</defs>
</svg>
