<svg width="30" height="30" viewBox="0 0 30 30" fill="none" xmlns="http://www.w3.org/2000/svg">
<g clip-path="url(#clip0_905_239)">
<path d="M24.8971 8.43356C24.897 8.43356 24.897 8.43356 24.8969 8.43356C24.4842 7.78305 23.9333 7.22809 23.2789 6.80984C23.1426 6.72272 23.0026 6.64298 22.8599 6.56927C23.4128 5.97727 23.7522 5.18343 23.7522 4.31138C23.7522 2.48542 22.2667 1 20.4409 1C18.615 1 17.1295 2.48542 17.1295 4.31133C17.1295 5.18212 17.4679 5.97498 18.0194 6.5667C17.4394 6.86595 16.9162 7.27326 16.4779 7.77354C16.0327 7.55047 15.531 7.42414 14.9999 7.42414C14.4689 7.42414 13.9672 7.55047 13.522 7.77354C13.0837 7.27326 12.5605 6.86589 11.9805 6.5667C12.532 5.97498 12.8704 5.18212 12.8704 4.31133C12.8705 2.48542 11.385 1 9.55914 1C7.73329 1 6.24781 2.48542 6.24781 4.31133C6.24781 5.18337 6.5872 5.97722 7.14015 6.56921C6.99741 6.64298 6.85736 6.72272 6.72113 6.80978C6.06674 7.22809 5.51582 7.783 5.10315 8.43351C5.10304 8.43351 5.10298 8.43351 5.10288 8.43351C3.7452 8.43356 2.64062 9.53814 2.64062 10.8958V19.3793L7.26883 25.9777V29H22.7312V25.9777L27.3594 19.3793V10.8958C27.3594 9.53814 26.2548 8.43356 24.8971 8.43356V8.43356ZM18.7702 4.31133C18.7702 3.39012 19.5196 2.64062 20.4409 2.64062C21.3621 2.64062 22.1115 3.39012 22.1115 4.31133C22.1115 5.23254 21.3621 5.98203 20.4409 5.98203C19.5196 5.98203 18.7702 5.23254 18.7702 4.31133ZM20.4409 7.62266C21.584 7.62266 22.6271 8.14295 23.3068 9.01828C22.7739 9.47027 22.4349 10.1441 22.4349 10.8959V14.0333C21.5685 13.7282 20.564 13.9214 19.8722 14.6132L19.5211 14.9642C19.1715 14.3853 18.712 13.8714 18.1694 13.4634C17.9308 13.284 17.6802 13.1271 17.4201 12.9923C17.9724 12.4004 18.3113 11.607 18.3113 10.7355C18.3113 10.0344 18.0917 9.38392 17.7185 8.84804C18.403 8.07208 19.3844 7.62266 20.4409 7.62266V7.62266ZM15 19.4854L11.6891 16.1744C12.2726 14.8847 13.5498 14.0468 15 14.0468C16.4502 14.0468 17.7274 14.8847 18.3109 16.1744L15 19.4854ZM16.6707 10.7355C16.6707 11.6567 15.9212 12.4062 15 12.4062C14.0788 12.4062 13.3293 11.6567 13.3293 10.7355C13.3293 9.81426 14.0788 9.06477 15 9.06477C15.9212 9.06477 16.6707 9.81426 16.6707 10.7355ZM7.88844 4.31133C7.88844 3.39012 8.63793 2.64062 9.55909 2.64062C10.4803 2.64062 11.2298 3.39012 11.2298 4.31133C11.2298 5.23254 10.4804 5.98203 9.55914 5.98203C8.63793 5.98203 7.88844 5.23254 7.88844 4.31133V4.31133ZM9.55914 7.62266C10.6156 7.62266 11.597 8.07213 12.2815 8.84804C11.9084 9.38392 11.6887 10.0344 11.6887 10.7355C11.6887 11.607 12.0277 12.4004 12.58 12.9923C12.3198 13.1271 12.0692 13.284 11.8307 13.4634C11.288 13.8714 10.8285 14.3852 10.4789 14.9642L10.1279 14.6132C9.43615 13.9215 8.43165 13.728 7.56518 14.0333V10.8959C7.56518 10.1441 7.22612 9.47027 6.6933 9.01828C7.37284 8.14295 8.41601 7.62266 9.55914 7.62266V7.62266ZM14.1797 27.3594H8.90945V25.4598L4.28125 18.8613V10.8958C4.28125 10.4428 4.64984 10.0742 5.10288 10.0742C5.55591 10.0742 5.9245 10.4428 5.9245 10.8958V16.353H5.92565C5.92538 16.984 6.16534 17.6149 6.64566 18.0953L9.95694 21.4065L11.117 20.2464L7.80575 16.9352C7.48539 16.6148 7.48539 16.0935 7.80575 15.7732C8.12605 15.4529 8.64734 15.4528 8.96775 15.7732L14.1797 20.9852V27.3594ZM25.7188 18.8613L21.0905 25.4597V27.3594H15.8203V20.9852L21.0322 15.7732C21.3526 15.4529 21.8739 15.4528 22.1942 15.7732C22.5146 16.0935 22.5146 16.6148 22.1942 16.9352L18.8829 20.2464L20.043 21.4065L23.3543 18.0953C23.8346 17.6149 24.0746 16.984 24.0744 16.353H24.0755V10.8958C24.0755 10.4428 24.4441 10.0742 24.8971 10.0742C25.3502 10.0742 25.7188 10.4428 25.7188 10.8958V18.8613Z" fill="#4E98D1"/>
</g>
<defs>
<clipPath id="clip0_905_239">
<rect width="28" height="28" fill="white" transform="translate(1 1)"/>
</clipPath>
</defs>
</svg>
