<svg width="30" height="30" viewBox="0 0 30 30" fill="none" xmlns="http://www.w3.org/2000/svg">
<path d="M25.6704 16.0906L23.8496 9.53941C23.3159 7.62019 22.156 5.93444 20.5542 4.75012C18.9525 3.56579 17.0008 2.95086 15.0094 3.00307C13.018 3.05528 11.1013 3.77163 9.56378 5.03827C8.02628 6.3049 6.95629 8.04911 6.52389 9.99367L5.11418 16.333C4.95846 17.0335 4.96206 17.76 5.12471 18.4589C5.28736 19.1578 5.60491 19.8113 6.0539 20.371C6.5029 20.9308 7.07188 21.3825 7.71884 21.693C8.3658 22.0034 9.07422 22.1645 9.7918 22.1645H10.8594C11.0793 23.2477 11.667 24.2215 12.5228 24.921C13.3786 25.6205 14.4499 26.0026 15.5552 26.0026C16.6605 26.0026 17.7318 25.6205 18.5876 24.921C19.4434 24.2215 20.0311 23.2477 20.2511 22.1645H21.0541C21.7928 22.1646 22.5215 21.9938 23.1833 21.6656C23.8451 21.3374 24.4221 20.8607 24.8691 20.2726C25.3161 19.6845 25.6211 19.0011 25.7603 18.2756C25.8995 17.5502 25.8691 16.8023 25.6714 16.0906H25.6704ZM15.5552 24.0812C14.9627 24.0787 14.3854 23.8933 13.9024 23.5502C13.4193 23.2071 13.054 22.7231 12.8566 22.1645H18.2539C18.0564 22.7231 17.6911 23.2071 17.2081 23.5502C16.725 23.8933 16.1477 24.0787 15.5552 24.0812V24.0812ZM23.3426 19.1122C23.0756 19.4665 22.7296 19.7536 22.3322 19.9507C21.9347 20.1478 21.4968 20.2496 21.0532 20.2478H9.7918C9.3613 20.2478 8.93632 20.151 8.54821 19.9647C8.16011 19.7784 7.81879 19.5074 7.54946 19.1715C7.28012 18.8357 7.08965 18.4436 6.99209 18.0244C6.89453 17.6051 6.89238 17.1692 6.9858 16.749L8.39455 10.4086C8.73414 8.88124 9.57455 7.5112 10.7822 6.5163C11.9898 5.52141 13.4954 4.95875 15.0595 4.91777C16.6237 4.87679 18.1566 5.35985 19.4147 6.29016C20.6728 7.22046 21.5838 8.54461 22.0029 10.0521L23.8237 16.6033C23.944 17.0301 23.9632 17.4791 23.8797 17.9146C23.7962 18.3501 23.6123 18.7602 23.3426 19.1122V19.1122Z" fill="#4E98D1"/>
</svg>
