<svg width="30" height="30" viewBox="0 0 30 30" fill="none" xmlns="http://www.w3.org/2000/svg">
<path d="M8.53518 4.29905L9.70706 11.6233C9.77526 12.0497 10.1431 12.3633 10.5749 12.3633H19.364C19.7958 12.3633 20.1636 12.0497 20.2319 11.6233L21.4038 4.29905C21.5254 3.53968 20.6776 3.00097 20.0417 3.43339L17.7135 5.01659L15.591 2.89415C15.2478 2.55091 14.6913 2.55091 14.348 2.89415L12.2255 5.01659L9.89731 3.43339C9.26157 3.00097 8.4136 3.53956 8.53518 4.29905V4.29905ZM11.8385 6.87917C12.1874 7.11647 12.6558 7.07224 12.9542 6.77388L14.9695 4.7586L16.9848 6.77382C17.2832 7.07224 17.7515 7.11642 18.1004 6.87911L19.3464 6.0319L18.6145 10.6055H11.3244L10.5926 6.03196L11.8385 6.87917Z" fill="#4E98D1"/>
<path d="M14.9707 1.75781C15.4561 1.75781 15.8496 1.36431 15.8496 0.878906C15.8496 0.3935 15.4561 0 14.9707 0C14.4853 0 14.0918 0.3935 14.0918 0.878906C14.0918 1.36431 14.4853 1.75781 14.9707 1.75781Z" fill="#4E98D1"/>
<path d="M21.123 2.63672C21.6085 2.63672 22.002 2.24322 22.002 1.75781C22.002 1.27241 21.6085 0.878906 21.123 0.878906C20.6376 0.878906 20.2441 1.27241 20.2441 1.75781C20.2441 2.24322 20.6376 2.63672 21.123 2.63672Z" fill="#4E98D1"/>
<path d="M8.81836 2.63672C9.30377 2.63672 9.69727 2.24322 9.69727 1.75781C9.69727 1.27241 9.30377 0.878906 8.81836 0.878906C8.33295 0.878906 7.93945 1.27241 7.93945 1.75781C7.93945 2.24322 8.33295 2.63672 8.81836 2.63672Z" fill="#4E98D1"/>
<path d="M27.334 19.4531H19.9903V15C19.9903 14.5146 19.5967 14.1211 19.1113 14.1211H10.8887C10.4033 14.1211 10.0097 14.5146 10.0097 15V17.6953H2.66602C2.18062 17.6953 1.78711 18.0888 1.78711 18.5742V29.1211C1.78711 29.6065 2.18062 30 2.66602 30H27.334C27.8194 30 28.2129 29.6065 28.2129 29.1211V20.332C28.2129 19.8466 27.8194 19.4531 27.334 19.4531ZM3.54492 19.4531H10.0097V28.2422H3.54492V19.4531ZM11.7676 15.8789H18.2324V28.2422H11.7676V15.8789ZM26.4551 28.2422H19.9903V21.2109H26.4551V28.2422Z" fill="#4E98D1"/>
<path d="M15 17.6367H14.1211C13.6357 17.6367 13.2422 18.0302 13.2422 18.5156C13.2422 19.001 13.6357 19.3945 14.1211 19.3945V22.0312C14.1211 22.5166 14.5146 22.9102 15 22.9102C15.4854 22.9102 15.8789 22.5166 15.8789 22.0312V18.5156C15.8789 18.0302 15.4854 17.6367 15 17.6367Z" fill="#4E98D1"/>
</svg>
