<svg width="23" height="23" viewBox="0 0 23 23" fill="none" xmlns="http://www.w3.org/2000/svg">
<path d="M21.8198 1.1802C21.5796 0.939933 21.1899 0.939933 20.9497 1.1802L19.1577 2.97217C19.0475 2.91967 18.9313 2.87739 18.8099 2.84708L13.2412 1.47129C12.6159 1.31498 11.9442 1.50098 11.4884 1.95679L1.53972 11.889C0.820095 12.6087 0.820095 13.7797 1.53972 14.4994L8.50062 21.4602C9.22028 22.1799 10.3913 22.1799 11.111 21.4602L21.0433 11.5116C21.4991 11.0558 21.6851 10.3841 21.5287 9.75874L20.153 4.19005C20.1226 4.06873 20.0804 3.95245 20.0279 3.84228L21.8199 2.05031C22.0601 1.81004 22.0601 1.42047 21.8198 1.1802ZM20.3349 10.0572C20.387 10.2657 20.325 10.4896 20.1731 10.6415L10.2408 20.5901C10.0009 20.83 9.61055 20.83 9.37065 20.5901L2.40978 13.6293C2.16988 13.3894 2.16988 12.999 2.40978 12.7591L12.3585 2.8269C12.4748 2.71053 12.6334 2.64692 12.7949 2.64692C12.8443 2.64692 12.894 2.65287 12.9427 2.66505L18.1735 3.95634L16.6918 5.43803C16.0058 5.1113 15.1585 5.23115 14.5914 5.79823C13.8717 6.51793 13.8717 7.68888 14.5914 8.40859C14.9512 8.76841 15.4239 8.94835 15.8965 8.94835C16.3692 8.94835 16.8419 8.76846 17.2017 8.40859C17.7689 7.84142 17.8887 6.99412 17.5619 6.30814L19.0436 4.82645L20.3349 10.0572ZM16.3316 7.53852C16.0917 7.77838 15.7014 7.77842 15.4615 7.53852C15.2216 7.29866 15.2216 6.90828 15.4615 6.66842C15.5815 6.54845 15.739 6.48852 15.8965 6.48852C16.054 6.48852 16.2116 6.54849 16.3315 6.66838L16.3316 6.66842L16.3316 6.66846C16.5715 6.90832 16.5715 7.29866 16.3316 7.53852Z" fill="white" stroke="white" stroke-width="0.4"/>
</svg>
