<svg width="24" height="18" viewBox="0 0 24 18" fill="none" xmlns="http://www.w3.org/2000/svg">
<rect x="0.1875" y="0.1875" width="23.625" height="17.625" rx="1.3125" fill="white"/>
<path fill-rule="evenodd" clip-rule="evenodd" d="M11.6379 13.1598C10.6432 14.0197 9.35251 14.5388 7.94215 14.5388C4.7963 14.5388 2.24609 11.956 2.24609 8.7699C2.24609 5.58381 4.7963 3.00098 7.94215 3.00098C9.35251 3.00098 10.6432 3.52012 11.6379 4.38001C12.6327 3.52012 13.9234 3.00098 15.3337 3.00098C18.4796 3.00098 21.0298 5.58381 21.0298 8.7699C21.0298 11.956 18.4796 14.5388 15.3337 14.5388C13.9234 14.5388 12.6327 14.0197 11.6379 13.1598Z" fill="#ED0006"/>
<path fill-rule="evenodd" clip-rule="evenodd" d="M11.6406 13.1611C12.8656 12.1029 13.6423 10.5283 13.6423 8.7699C13.6423 7.01152 12.8656 5.43688 11.6406 4.37875C12.6352 3.51961 13.9253 3.00098 15.335 3.00098C18.4808 3.00098 21.031 5.58381 21.031 8.7699C21.031 11.956 18.4808 14.5388 15.335 14.5388C13.9253 14.5388 12.6352 14.0202 11.6406 13.1611Z" fill="#F9A000"/>
<path fill-rule="evenodd" clip-rule="evenodd" d="M11.6423 13.1612C12.8673 12.1031 13.6441 10.5284 13.6441 8.77006C13.6441 7.01168 12.8673 5.43704 11.6423 4.37891C10.4174 5.43704 9.64062 7.01168 9.64062 8.77006C9.64062 10.5284 10.4174 12.1031 11.6423 13.1612Z" fill="#FF5E00"/>
<rect x="0.1875" y="0.1875" width="23.625" height="17.625" rx="1.3125" stroke="#B2B2B2" stroke-width="0.375" style="mix-blend-mode:multiply"/>
</svg>
