<svg width="30" height="30" viewBox="0 0 30 30" fill="none" xmlns="http://www.w3.org/2000/svg">
<path d="M13 11C13 9.1416 11.7207 7.58887 10 7.1416V6C10 5.44727 9.55273 5 9 5C8.44727 5 8 5.44727 8 6V7.1416C6.2793 7.58887 5 9.1416 5 11C5 12.8584 6.2793 14.4111 8 14.8584V24C8 24.5527 8.44727 25 9 25C9.55273 25 10 24.5527 10 24V14.8584C11.7207 14.4111 13 12.8584 13 11ZM7 11C7 9.89746 7.89746 9 9 9C10.1025 9 11 9.89746 11 11C11 12.1025 10.1025 13 9 13C7.89746 13 7 12.1025 7 11ZM16 15.1416V6C16 5.44727 15.5527 5 15 5C14.4473 5 14 5.44727 14 6V15.1416C12.2793 15.5889 11 17.1416 11 19C11 20.8584 12.2793 22.4111 14 22.8584V24C14 24.5527 14.4473 25 15 25C15.5527 25 16 24.5527 16 24V22.8584C17.7207 22.4111 19 20.8584 19 19C19 17.1416 17.7207 15.5889 16 15.1416V15.1416ZM15 21C13.8975 21 13 20.1025 13 19C13 17.8975 13.8975 17 15 17C16.1025 17 17 17.8975 17 19C17 20.1025 16.1025 21 15 21ZM25 11C25 9.1416 23.7207 7.58887 22 7.1416V6C22 5.44727 21.5527 5 21 5C20.4473 5 20 5.44727 20 6V7.1416C18.2793 7.58887 17 9.1416 17 11C17 12.8584 18.2793 14.4111 20 14.8584V24C20 24.5527 20.4473 25 21 25C21.5527 25 22 24.5527 22 24V14.8584C23.7207 14.4111 25 12.8584 25 11ZM21 13C19.8975 13 19 12.1025 19 11C19 9.89746 19.8975 9 21 9C22.1025 9 23 9.89746 23 11C23 12.1025 22.1025 13 21 13Z" fill="#4E98D1"/>
</svg>
