<svg width="24" height="18" viewBox="0 0 24 18" fill="none" xmlns="http://www.w3.org/2000/svg">
<rect x="0.25" y="0.25" width="23.5" height="17.5" rx="1.75" fill="white"/>
<path fill-rule="evenodd" clip-rule="evenodd" d="M11.6408 13.1607C10.6461 14.0201 9.3559 14.5388 7.94605 14.5388C4.80021 14.5388 2.25 11.956 2.25 8.7699C2.25 5.58381 4.80021 3.00098 7.94605 3.00098C9.3559 3.00098 10.6461 3.51974 11.6408 4.37907C12.6354 3.51974 13.9256 3.00098 15.3355 3.00098C18.4813 3.00098 21.0315 5.58381 21.0315 8.7699C21.0315 11.956 18.4813 14.5388 15.3355 14.5388C13.9256 14.5388 12.6354 14.0201 11.6408 13.1607Z" fill="#ED0006"/>
<path fill-rule="evenodd" clip-rule="evenodd" d="M11.6406 13.1607C12.8654 12.1026 13.642 10.5281 13.642 8.7699C13.642 7.01169 12.8654 5.43719 11.6406 4.37907C12.6353 3.51974 13.9255 3.00098 15.3353 3.00098C18.4812 3.00098 21.0314 5.58381 21.0314 8.7699C21.0314 11.956 18.4812 14.5388 15.3353 14.5388C13.9255 14.5388 12.6353 14.0201 11.6406 13.1607Z" fill="#F9A000"/>
<path fill-rule="evenodd" clip-rule="evenodd" d="M11.6407 13.1605C12.8654 12.1024 13.642 10.5279 13.642 8.7697C13.642 7.01152 12.8654 5.43703 11.6407 4.37891C10.416 5.43703 9.6394 7.01152 9.6394 8.7697C9.6394 10.5279 10.416 12.1024 11.6407 13.1605Z" fill="#FF5E00"/>
<rect x="0.25" y="0.25" width="23.5" height="17.5" rx="1.75" stroke="#B2B2B2" stroke-width="0.5" style="mix-blend-mode:multiply"/>
</svg>
