<svg width="30" height="30" viewBox="0 0 30 30" fill="none" xmlns="http://www.w3.org/2000/svg">
<path d="M29.1504 13.2407H26.8753C26.8064 13.2407 26.7383 13.2435 26.6706 13.248C26.1595 12.792 25.5942 12.4154 24.9895 12.1253C26.3686 11.1459 27.27 9.53624 27.27 7.71998C27.27 4.74258 24.8477 2.32031 21.8703 2.32031C18.8927 2.32031 16.4704 4.74258 16.4704 7.71998C16.4704 9.15082 17.0302 10.4533 17.9417 11.4204H13.9685C14.8801 10.4533 15.4396 9.15082 15.4396 7.71998C15.4396 4.74258 13.0173 2.32031 10.0399 2.32031C7.06254 2.32031 4.64005 4.74258 4.64005 7.71998C4.64005 9.38977 5.40204 10.8848 6.59636 11.8762C5.76932 12.1853 5.00201 12.6475 4.32919 13.248C4.26148 13.2435 4.19356 13.2407 4.12475 13.2407H1.84961C1.38033 13.2407 1 13.621 1 14.0903V18.6403C1 19.1096 1.38033 19.4899 1.84961 19.4899H1.91001V25.9206C1.91001 26.3897 2.29034 26.7703 2.75962 26.7703H28.2404C28.7097 26.7703 29.09 26.3897 29.09 25.9206V19.4899H29.1504C29.6197 19.4899 30 19.1096 30 18.6403V14.0903C30 13.621 29.6197 13.2407 29.1504 13.2407V13.2407ZM28.3008 17.7907H26.8753C26.0894 17.7907 25.4497 17.1513 25.4497 16.3652C25.4497 15.5793 26.0894 14.9399 26.8753 14.9399H28.3008V17.7907ZM18.1696 7.71998C18.1696 5.67959 19.8297 4.01953 21.8701 4.01953C23.9105 4.01953 25.5707 5.67959 25.5707 7.71998C25.5707 9.76059 23.9107 11.4204 21.8703 11.4204C19.8297 11.4204 18.1696 9.76059 18.1696 7.71998ZM10.0399 4.01953C12.0803 4.01953 13.7404 5.67959 13.7404 7.71998C13.7404 9.76037 12.0803 11.4204 10.0399 11.4204C7.99932 11.4204 6.33926 9.76059 6.33926 7.71998C6.33926 5.67959 7.99932 4.01953 10.0399 4.01953ZM2.69922 14.9399H4.12475C4.91064 14.9399 5.55028 15.5793 5.55028 16.3654C5.55028 17.1513 4.91064 17.7907 4.12475 17.7907H2.69922V14.9399ZM3.60923 19.4899H4.12475C5.84764 19.4899 7.2495 18.0883 7.2495 16.3652C7.2495 15.4112 6.81894 14.556 6.14279 13.9825H6.16293C7.04108 13.4208 8.06238 13.1199 9.12992 13.1199H17.2231C15.6509 14.4452 14.6504 16.428 14.6504 18.6403V25.071H7.24928V21.3704C7.24928 20.9013 6.86894 20.5208 6.39967 20.5208C5.93061 20.5208 5.55006 20.9013 5.55006 21.3704V25.0708H3.60923V19.4899ZM27.3908 25.0708H25.4497V21.3704C25.4497 20.9013 25.0694 20.5208 24.6001 20.5208C24.1311 20.5208 23.7505 20.9013 23.7505 21.3704V25.0708H16.3496V18.6403C16.3496 15.5963 18.8261 13.1199 21.8703 13.1199C22.9427 13.1199 23.9682 13.4234 24.8486 13.9898C24.1773 14.5635 23.7507 15.4151 23.7507 16.3654C23.7507 18.0883 25.1524 19.4899 26.8755 19.4899H27.3908V25.0708Z" fill="#4E98D1"/>
</svg>
