<svg width="30" height="30" viewBox="0 0 30 30" fill="none" xmlns="http://www.w3.org/2000/svg">
<g clip-path="url(#clip0_905_238)">
<path d="M15.5 15.5C16.6372 15.5 17.7489 15.1628 18.6945 14.531C19.6401 13.8991 20.3771 13.0011 20.8123 11.9504C21.2475 10.8998 21.3614 9.74362 21.1395 8.62823C20.9177 7.51284 20.37 6.48829 19.5659 5.68414C18.7617 4.87999 17.7372 4.33235 16.6218 4.11049C15.5064 3.88862 14.3502 4.00249 13.2996 4.4377C12.2489 4.8729 11.3509 5.60989 10.719 6.55547C10.0872 7.50106 9.75 8.61276 9.75 9.75C9.75152 11.2745 10.3578 12.7362 11.4358 13.8142C12.5138 14.8922 13.9755 15.4985 15.5 15.5ZM15.5 5.91667C16.2582 5.91667 16.9993 6.14149 17.6297 6.5627C18.2601 6.98391 18.7514 7.5826 19.0415 8.28305C19.3317 8.9835 19.4076 9.75425 19.2597 10.4978C19.1118 11.2414 18.7467 11.9245 18.2106 12.4606C17.6745 12.9967 16.9914 13.3618 16.2478 13.5097C15.5043 13.6576 14.7335 13.5817 14.033 13.2915C13.3326 13.0014 12.7339 12.5101 12.3127 11.8797C11.8915 11.2493 11.6667 10.5082 11.6667 9.75C11.6667 8.73334 12.0705 7.75832 12.7894 7.03943C13.5083 6.32054 14.4833 5.91667 15.5 5.91667V5.91667Z" fill="#4E98D1"/>
<path d="M15.5 17.418C13.2133 17.4205 11.021 18.33 9.40401 19.947C7.78705 21.5639 6.87754 23.7563 6.875 26.043C6.875 26.2971 6.97597 26.5409 7.15569 26.7206C7.33541 26.9003 7.57917 27.0013 7.83333 27.0013C8.0875 27.0013 8.33125 26.9003 8.51098 26.7206C8.6907 26.5409 8.79167 26.2971 8.79167 26.043C8.79167 24.2638 9.49844 22.5575 10.7565 21.2995C12.0145 20.0414 13.7208 19.3346 15.5 19.3346C17.2792 19.3346 18.9855 20.0414 20.2435 21.2995C21.5016 22.5575 22.2083 24.2638 22.2083 26.043C22.2083 26.2971 22.3093 26.5409 22.489 26.7206C22.6687 26.9003 22.9125 27.0013 23.1667 27.0013C23.4208 27.0013 23.6646 26.9003 23.8443 26.7206C24.024 26.5409 24.125 26.2971 24.125 26.043C24.1225 23.7563 23.2129 21.5639 21.596 19.947C19.979 18.33 17.7867 17.4205 15.5 17.418V17.418Z" fill="#4E98D1"/>
</g>
<defs>
<clipPath id="clip0_905_238">
<rect width="23" height="23" fill="white" transform="translate(4 4)"/>
</clipPath>
</defs>
</svg>
