<svg width="30" height="30" viewBox="0 0 30 30" fill="none" xmlns="http://www.w3.org/2000/svg">
<path d="M29.143 9.99872H19.9009C20.3024 13.203 20.3047 16.7336 19.9087 19.9419H29.1627C29.7029 18.3941 29.9999 16.732 29.9999 15.0002C30.0001 13.2456 29.6962 11.5631 29.143 9.99872Z" fill="#EFECEC"/>
<path d="M19.9007 9.99874H29.1426C29.1412 9.99399 29.1398 9.99 29.1379 9.98569C27.2183 4.5727 22.28 0.590175 16.3469 0.0615234C18.6431 1.3201 19.3138 5.30763 19.9007 9.99874Z" fill="#429945"/>
<path d="M16.3475 29.9378C22.2913 29.4082 27.2364 25.4119 29.1487 19.9845C29.1537 19.97 29.1579 19.9558 29.1631 19.9418H19.9089C19.3265 24.6583 18.653 28.674 16.3475 29.9378Z" fill="#0B0B0B"/>
<path d="M0 15.0001C0 16.7322 0.297481 18.3941 0.837216 19.9418H20.6807C21.0771 16.7333 21.0743 13.2029 20.6733 9.99866H0.857166C0.303878 11.5631 0 13.2456 0 15.0001Z" fill="#EFEFEF"/>
<path d="M0.861764 9.98573C0.86037 9.98997 0.858914 9.99402 0.857014 9.99877H20.6732C20.0859 5.3076 18.643 1.32014 16.3471 0.0615609C15.903 0.0222303 15.4539 7.21875e-10 14.9997 7.21875e-10C8.47442 -6.33336e-05 2.92538 4.1674 0.861764 9.98573Z" fill="#49A948"/>
<path d="M20.6805 19.9418H0.83709C0.842093 19.9558 0.84678 19.97 0.85153 19.9844C2.90692 25.8176 8.46393 29.9998 14.9996 29.9998C15.4539 29.9998 15.903 29.9775 16.347 29.9378C18.6527 28.674 20.0981 24.6583 20.6805 19.9418Z" fill="#151515"/>
<path d="M0 15.0001C0 21.244 3.81671 26.5957 9.24376 28.8535V1.14624C3.81671 3.4036 0 8.75535 0 15.0001Z" fill="#E73B36"/>
</svg>
