<svg width="143" height="36" viewBox="0 0 143 36" fill="none" xmlns="http://www.w3.org/2000/svg">
<path d="M1.00672 31.2015H0.364012C0.26747 31.2015 0.174882 31.1636 0.106617 31.0963C0.0383512 31.0289 0 30.9376 0 30.8423C0 30.7471 0.0383512 30.6557 0.106617 30.5884C0.174882 30.521 0.26747 30.4832 0.364012 30.4832H2.63909C2.73563 30.4832 2.82822 30.521 2.89649 30.5884C2.96475 30.6557 3.0031 30.7471 3.0031 30.8423C3.0031 30.9376 2.96475 31.0289 2.89649 31.0963C2.82822 31.1636 2.73563 31.2015 2.63909 31.2015H1.97932V33.2946C1.98445 33.3593 1.97532 33.4243 1.95255 33.4851C1.92978 33.546 1.89392 33.6013 1.84743 33.6471C1.80095 33.693 1.74494 33.7284 1.68327 33.7508C1.62159 33.7733 1.55572 33.7823 1.49018 33.7772C1.42509 33.7815 1.35985 33.7718 1.29887 33.749C1.2379 33.7261 1.18261 33.6906 1.13676 33.6449C1.09091 33.5991 1.05557 33.5441 1.03313 33.4837C1.0107 33.4233 1.00169 33.3588 1.00672 33.2946V31.2015ZM3.45243 30.9321C3.45243 30.6571 3.62306 30.4383 4.13495 30.4383C4.4364 30.4383 4.65253 30.4832 4.85729 30.9321L5.42606 32.3855L5.99483 30.9321C6.19959 30.4832 6.41572 30.4383 6.71717 30.4383C7.23475 30.4383 7.40538 30.6571 7.40538 30.9321V33.2946C7.40538 33.5864 7.31437 33.7772 6.96742 33.7772C6.62048 33.7772 6.52947 33.5864 6.52947 33.2946V31.6111L5.9607 33.2946C5.85832 33.5696 5.7787 33.7772 5.44881 33.7772C5.11892 33.7772 5.03361 33.5752 4.93692 33.2946L4.36815 31.6111V33.2946C4.36815 33.5864 4.28283 33.7772 3.9302 33.7772C3.57756 33.7772 3.49793 33.5864 3.49793 33.2946L3.45243 30.9321Z" fill="#0055B8"/>
<path d="M72.9222 12.6493C72.9222 15.0522 72.2 17.4011 70.8469 19.399C69.4938 21.397 67.5707 22.9542 65.3206 23.8737C63.0705 24.7933 60.5946 25.0339 58.206 24.5651C55.8173 24.0963 53.6232 22.9392 51.9011 21.2401C50.179 19.541 49.0062 17.3762 48.531 15.0195C48.0559 12.6627 48.2998 10.2199 49.2318 7.99995C50.1638 5.77996 51.7421 3.8825 53.7671 2.54752C55.7921 1.21254 58.1728 0.5 60.6083 0.5C63.8741 0.5 67.0062 1.78001 69.3155 4.05844C71.6248 6.33687 72.9222 9.42708 72.9222 12.6493Z" fill="#FFA400"/>
<path d="M57.9634 8.78845C57.9645 9.17049 57.8507 9.54426 57.6364 9.86246C57.4221 10.1806 57.117 10.4289 56.7595 10.5759C56.4021 10.7229 56.0086 10.7619 55.6286 10.6881C55.2487 10.6142 54.8996 10.4308 54.6254 10.1611C54.3512 9.89131 54.1643 9.54735 54.0883 9.17274C54.0124 8.79812 54.0508 8.40969 54.1987 8.05663C54.3466 7.70356 54.5974 7.40174 54.9193 7.18937C55.2411 6.97701 55.6196 6.86365 56.0069 6.86365C56.5243 6.86512 57.0203 7.0682 57.3867 7.4287C57.7531 7.78919 57.9604 8.2779 57.9634 8.78845Z" fill="white"/>
<path d="M67.1831 8.78845C67.1843 9.17097 67.0702 9.54519 66.8554 9.86362C66.6406 10.1821 66.3347 10.4303 65.9766 10.577C65.6185 10.7236 65.2244 10.762 64.8442 10.6872C64.4639 10.6125 64.1148 10.4279 63.8411 10.157C63.5673 9.88617 63.3813 9.54117 63.3066 9.16581C63.232 8.79046 63.272 8.40168 63.4217 8.04882C63.5714 7.69595 63.8239 7.39491 64.1473 7.1839C64.4706 6.97289 64.8503 6.86143 65.238 6.86365C65.7544 6.86514 66.2491 7.06858 66.6138 7.42939C66.9784 7.7902 67.1831 8.27893 67.1831 8.78845Z" fill="white"/>
<path d="M60.6081 21.4596C62.7803 21.458 64.876 20.6678 66.4956 19.2396C68.1152 17.8114 69.1454 15.8451 69.3899 13.7155C69.4023 13.635 69.3968 13.5529 69.3738 13.4748C69.3508 13.3967 69.3109 13.3244 69.2568 13.263C69.2027 13.2017 69.1357 13.1526 69.0605 13.1193C68.9852 13.086 68.9036 13.0692 68.8211 13.0701C68.3434 13.0701 68.2524 13.5135 68.2182 13.7155C67.7845 15.3794 66.8022 16.8537 65.426 17.9065C64.0499 18.9592 62.358 19.5305 60.6166 19.5305C58.8753 19.5305 57.1834 18.9592 55.8072 17.9065C54.4311 16.8537 53.4488 15.3794 53.015 13.7155C52.9525 13.5135 52.8899 13.0701 52.4121 13.0701C52.3297 13.0692 52.248 13.086 52.1728 13.1193C52.0976 13.1526 52.0306 13.2017 51.9765 13.263C51.9224 13.3244 51.8825 13.3967 51.8595 13.4748C51.8365 13.5529 51.831 13.635 51.8434 13.7155C52.0864 15.8436 53.1146 17.8091 54.7321 19.2373C56.3496 20.6655 58.4432 21.4565 60.6138 21.4596" fill="white"/>
<path d="M133.473 18.6706C133.242 18.671 133.013 18.7192 132.801 18.8123C132.59 18.9054 132.401 19.0412 132.246 19.211C132.091 19.3807 131.974 19.5807 131.902 19.7979C131.83 20.0151 131.806 20.2447 131.829 20.4719V24.8322C131.833 25.1133 131.778 25.392 131.669 25.6515C131.559 25.9111 131.397 26.1459 131.193 26.3417C130.989 26.5375 130.746 26.6903 130.48 26.7906C130.214 26.891 129.93 26.9368 129.645 26.9254H110.978C110.558 26.877 110.164 26.7033 109.846 26.4275C109.529 26.1518 109.305 25.787 109.204 25.3822V20.4719C109.227 20.2447 109.202 20.0151 109.13 19.7981C109.058 19.581 108.941 19.3813 108.785 19.2118C108.63 19.0423 108.441 18.9068 108.229 18.814C108.018 18.7213 107.789 18.6734 107.557 18.6734C107.326 18.6734 107.097 18.7213 106.885 18.814C106.674 18.9068 106.484 19.0423 106.329 19.2118C106.174 19.3813 106.056 19.581 105.984 19.7981C105.912 20.0151 105.887 20.2447 105.911 20.4719V21.0331C105.865 21.2071 105.842 25.3709 105.842 25.3709C105.716 25.8229 105.437 26.2193 105.053 26.4954C104.669 26.7715 104.201 26.9112 103.727 26.8917H92.1919C91.6746 26.8409 91.1957 26.5995 90.8509 26.2157C90.5062 25.8318 90.3208 25.3338 90.332 24.821C90.332 24.821 90.2922 20.1914 90.2922 19.72V18.4574C90.3059 18.2165 90.2697 17.9753 90.1857 17.7487C90.1018 17.5221 89.9718 17.3148 89.8038 17.1395C89.6359 16.9642 89.4334 16.8245 89.2088 16.729C88.9842 16.6336 88.7422 16.5844 88.4977 16.5844C88.2532 16.5844 88.0112 16.6336 87.7866 16.729C87.562 16.8245 87.3596 16.9642 87.1916 17.1395C87.0236 17.3148 86.8936 17.5221 86.8097 17.7487C86.7257 17.9753 86.6895 18.2165 86.7032 18.4574V26.7009C86.7032 28.7772 85.2187 30.5954 83.046 30.5954C80.1567 30.5954 79.7187 33.8502 83.046 33.8502C84.4109 33.8636 85.7518 33.4962 86.9141 32.7903C88.0764 32.0843 89.0128 31.0686 89.6153 29.8603C90.4219 30.2081 91.2891 30.3986 92.1691 30.4214H103.709C105.059 30.4824 106.392 30.0995 107.497 29.3328C108.505 30.0367 109.709 30.415 110.944 30.4158H129.634C133.109 30.4158 135.106 28.564 135.106 25.6796V20.4607C135.128 20.2353 135.102 20.0079 135.03 19.7928C134.958 19.5777 134.842 19.3797 134.689 19.2113C134.535 19.043 134.348 18.908 134.138 18.8149C133.929 18.7218 133.703 18.6727 133.473 18.6706Z" fill="#0055B8"/>
<path d="M77.8873 18.6706C77.6558 18.6709 77.4269 18.7192 77.2155 18.8123C77.004 18.9054 76.8147 19.0412 76.6598 19.211C76.5049 19.3807 76.3878 19.5807 76.3161 19.7979C76.2444 20.0151 76.2197 20.2447 76.2436 20.4719V24.8322C76.2462 25.112 76.1909 25.3895 76.081 25.6475C75.9711 25.9055 75.8088 26.1386 75.6043 26.3325C75.3998 26.5264 75.1573 26.677 74.8916 26.7751C74.626 26.8732 74.3428 26.9167 74.0595 26.9029H55.2901C54.8704 26.8585 54.4743 26.6893 54.1543 26.4177C53.8344 26.1461 53.6056 25.785 53.4985 25.3821V20.4719C53.5258 20.2429 53.5037 20.0108 53.4336 19.7909C53.3635 19.5709 53.2469 19.3681 53.0917 19.1958C52.9364 19.0235 52.7459 18.8855 52.5327 18.7911C52.3195 18.6966 52.0884 18.6478 51.8547 18.6478C51.621 18.6478 51.39 18.6966 51.1768 18.7911C50.9636 18.8855 50.7731 19.0235 50.6178 19.1958C50.4625 19.3681 50.346 19.5709 50.2759 19.7909C50.2057 20.0108 50.1836 20.2429 50.211 20.4719V21.0331C50.211 21.4652 50.1427 25.3709 50.1427 25.3709C50.016 25.8229 49.7378 26.2192 49.3536 26.4954C48.9694 26.7715 48.5018 26.9112 48.0269 26.8917H39.848C39.3307 26.8409 38.8519 26.5995 38.5071 26.2157C38.1623 25.8318 37.977 25.3338 37.9881 24.821V20.4719C38.0155 20.2429 37.9934 20.0108 37.9233 19.7909C37.8531 19.5709 37.7366 19.3681 37.5813 19.1958C37.426 19.0235 37.2355 18.8855 37.0223 18.7911C36.8091 18.6966 36.5781 18.6478 36.3444 18.6478C36.1107 18.6478 35.8796 18.6966 35.6664 18.7911C35.4532 18.8855 35.2627 19.0235 35.1074 19.1958C34.9522 19.3681 34.8356 19.5709 34.7655 19.7909C34.6954 20.0108 34.6733 20.2429 34.7006 20.4719V24.8322C34.7033 25.112 34.648 25.3895 34.5381 25.6475C34.4281 25.9055 34.2659 26.1386 34.0614 26.3325C33.8569 26.5264 33.6143 26.677 33.3487 26.7751C33.083 26.8732 32.7999 26.9167 32.5166 26.9029H19.7818C19.2645 26.8522 18.7857 26.6108 18.4409 26.2269C18.0961 25.843 17.9108 25.345 17.9219 24.8322C17.9219 24.8322 17.9219 20.0174 17.9219 19.9444V18.4573C17.9452 18.2162 17.9155 17.9729 17.8347 17.7441C17.754 17.5153 17.6241 17.3063 17.454 17.1316C17.2839 16.9569 17.0776 16.8204 16.8492 16.7315C16.6207 16.6427 16.3755 16.6035 16.1303 16.6167C15.8842 16.6018 15.6377 16.6397 15.4079 16.7278C15.1781 16.816 14.9703 16.9522 14.7989 17.1271C14.6276 17.3021 14.4967 17.5116 14.4153 17.7412C14.3338 17.9708 14.3038 18.2152 14.3273 18.4573V26.7009C14.3273 28.7772 12.8428 30.5954 10.6644 30.5954C7.7751 30.5954 7.34283 33.8502 10.6644 33.8502C12.0278 33.8633 13.3673 33.497 14.5292 32.7933C15.6912 32.0896 16.6285 31.0769 17.2337 29.8715C18.0315 30.2158 18.8887 30.4062 19.7591 30.4327H32.5109C33.8784 30.494 35.227 30.0985 36.3387 29.3103C37.35 30.0372 38.5683 30.4301 39.8196 30.4327H48.0269C49.3795 30.4932 50.7141 30.1082 51.8206 29.3384C52.8284 30.0423 54.0326 30.4206 55.2673 30.4214H74.0367C77.5062 30.4214 79.5083 28.5696 79.5083 25.6852V20.4663C79.5311 20.2414 79.5064 20.0143 79.4357 19.7993C79.365 19.5843 79.2498 19.3861 79.0974 19.2173C78.945 19.0485 78.7588 18.9127 78.5505 18.8186C78.3422 18.7245 78.1164 18.6741 77.8873 18.6706Z" fill="#0055B8"/>
<path d="M139.388 15.9209C139.374 15.6785 139.411 15.4359 139.495 15.2079C139.58 14.9799 139.711 14.7713 139.88 14.5949C140.049 14.4185 140.252 14.278 140.478 14.1819C140.704 14.0859 140.948 14.0363 141.194 14.0363C141.44 14.0363 141.683 14.0859 141.909 14.1819C142.135 14.278 142.339 14.4185 142.508 14.5949C142.677 14.7713 142.808 14.9799 142.893 15.2079C142.977 15.4359 143.014 15.6785 143 15.9209V28.5864C143.014 28.8288 142.977 29.0714 142.893 29.2994C142.808 29.5274 142.677 29.736 142.508 29.9124C142.339 30.0888 142.135 30.2294 141.909 30.3254C141.683 30.4214 141.44 30.471 141.194 30.471C140.948 30.471 140.704 30.4214 140.478 30.3254C140.252 30.2294 140.049 30.0888 139.88 29.9124C139.711 29.736 139.58 29.5274 139.495 29.2994C139.411 29.0714 139.374 28.8288 139.388 28.5864V15.9209Z" fill="#0055B8"/>
<path d="M133.513 17.5034C133.164 17.5111 132.821 17.4157 132.528 17.2294C132.235 17.0432 132.005 16.7745 131.868 16.4582C131.731 16.1418 131.693 15.7922 131.759 15.4544C131.825 15.1166 131.992 14.8061 132.239 14.5628C132.486 14.3195 132.8 14.1547 133.143 14.0895C133.485 14.0242 133.839 14.0617 134.16 14.1969C134.481 14.3321 134.753 14.559 134.942 14.8482C135.131 15.1375 135.227 15.4759 135.219 15.8199C135.219 16.2663 135.04 16.6946 134.72 17.0103C134.4 17.326 133.966 17.5034 133.513 17.5034Z" fill="#0055B8"/>
<path d="M105.723 17.5034C105.374 17.5111 105.031 17.4157 104.738 17.2294C104.445 17.0432 104.215 16.7745 104.078 16.4582C103.941 16.1418 103.903 15.7922 103.969 15.4544C104.035 15.1166 104.202 14.8061 104.449 14.5628C104.696 14.3195 105.01 14.1547 105.353 14.0895C105.695 14.0242 106.049 14.0617 106.37 14.1969C106.691 14.3321 106.963 14.559 107.152 14.8482C107.34 15.1375 107.437 15.4759 107.429 15.8199C107.429 16.2663 107.25 16.6946 106.93 17.0103C106.61 17.326 106.176 17.5034 105.723 17.5034Z" fill="#0055B8"/>
<path d="M109.363 17.5034C109.015 17.5111 108.672 17.4157 108.378 17.2294C108.085 17.0432 107.855 16.7745 107.718 16.4582C107.581 16.1418 107.543 15.7922 107.609 15.4544C107.675 15.1166 107.842 14.8061 108.089 14.5628C108.336 14.3195 108.65 14.1547 108.993 14.0895C109.335 14.0242 109.689 14.0617 110.01 14.1969C110.331 14.3321 110.603 14.559 110.792 14.8482C110.981 15.1375 111.077 15.4759 111.069 15.8199C111.069 16.2663 110.89 16.6946 110.57 17.0103C110.25 17.326 109.816 17.5034 109.363 17.5034Z" fill="#0055B8"/>
<path d="M76.1126 17.5034C75.764 17.5111 75.421 17.4157 75.1279 17.2294C74.8347 17.0432 74.6048 16.7745 74.4677 16.4582C74.3306 16.1418 74.2927 15.7922 74.3588 15.4544C74.4249 15.1166 74.592 14.8061 74.8386 14.5628C75.0851 14.3195 75.3999 14.1547 75.7423 14.0895C76.0847 14.0242 76.439 14.0617 76.7596 14.1969C77.0803 14.3321 77.3525 14.559 77.5413 14.8482C77.7301 15.1375 77.8268 15.4759 77.819 15.8199C77.819 16.2663 77.6392 16.6946 77.3192 17.0103C76.9992 17.326 76.5652 17.5034 76.1126 17.5034Z" fill="#0055B8"/>
<path d="M79.7469 17.5034C79.3983 17.5111 79.0553 17.4157 78.7621 17.2294C78.469 17.0432 78.2391 16.7745 78.102 16.4582C77.9649 16.1418 77.927 15.7922 77.9931 15.4544C78.0592 15.1166 78.2263 14.8061 78.4729 14.5628C78.7194 14.3195 79.0342 14.1547 79.3766 14.0895C79.7189 14.0242 80.0733 14.0617 80.3939 14.1969C80.7145 14.3321 80.9868 14.559 81.1756 14.8482C81.3644 15.1375 81.4611 15.4759 81.4532 15.8199C81.4532 16.2663 81.2735 16.6946 80.9535 17.0103C80.6335 17.326 80.1995 17.5034 79.7469 17.5034Z" fill="#0055B8"/>
<path d="M36.3558 17.5034C36.0072 17.5111 35.6642 17.4157 35.371 17.2294C35.0779 17.0432 34.8479 16.7745 34.7109 16.4582C34.5738 16.1418 34.5359 15.7922 34.602 15.4544C34.6681 15.1166 34.8352 14.8061 35.0817 14.5628C35.3283 14.3195 35.6431 14.1547 35.9854 14.0895C36.3278 14.0242 36.6822 14.0617 37.0028 14.1969C37.3234 14.3321 37.5957 14.559 37.7845 14.8482C37.9733 15.1375 38.07 15.4759 38.0621 15.8199C38.0621 16.2663 37.8823 16.6946 37.5623 17.0103C37.2424 17.326 36.8083 17.5034 36.3558 17.5034Z" fill="#0055B8"/>
<path d="M50.0516 35.5C49.703 35.5078 49.36 35.4124 49.0668 35.2261C48.7737 35.0398 48.5437 34.7712 48.4067 34.4548C48.2696 34.1385 48.2317 33.7889 48.2978 33.4511C48.3639 33.1133 48.531 32.8027 48.7775 32.5595C49.0241 32.3162 49.3389 32.1513 49.6812 32.0861C50.0236 32.0209 50.378 32.0583 50.6986 32.1935C51.0192 32.3288 51.2915 32.5556 51.4803 32.8449C51.6691 33.1341 51.7658 33.4725 51.7579 33.8165C51.7579 34.263 51.5781 34.6912 51.2581 35.0069C50.9382 35.3226 50.5041 35.5 50.0516 35.5Z" fill="#0055B8"/>
<path d="M53.703 35.5C53.3544 35.5078 53.0114 35.4124 52.7182 35.2261C52.425 35.0398 52.1951 34.7712 52.058 34.4548C51.921 34.1385 51.883 33.7889 51.9491 33.4511C52.0152 33.1133 52.1823 32.8027 52.4289 32.5595C52.6755 32.3162 52.9902 32.1513 53.3326 32.0861C53.675 32.0209 54.0293 32.0583 54.35 32.1935C54.6706 32.3288 54.9428 32.5556 55.1316 32.8449C55.3204 33.1341 55.4171 33.4725 55.4093 33.8165C55.4093 34.263 55.2295 34.6912 54.9095 35.0069C54.5895 35.3226 54.1555 35.5 53.703 35.5Z" fill="#0055B8"/>
</svg>
