<svg width="22" height="17" viewBox="0 0 22 17" fill="none" xmlns="http://www.w3.org/2000/svg">
<path fill-rule="evenodd" clip-rule="evenodd" d="M0 0.879314C0 0.393682 0.393682 0 0.879314 0H21.1207C21.6063 0 22 0.393682 22 0.879314C22 1.36495 21.6063 1.75863 21.1207 1.75863H0.879315C0.393683 1.75863 0 1.36495 0 0.879314ZM0 16.1206C0 15.635 0.393682 15.2413 0.879314 15.2413H21.1207C21.6063 15.2413 22 15.635 22 16.1206C22 16.6062 21.6063 16.9999 21.1207 16.9999H0.879315C0.393683 16.9999 0 16.6062 0 16.1206ZM4.87931 7.62115C4.39368 7.62115 4 8.01484 4 8.50047C4 8.9861 4.39368 9.37978 4.87931 9.37978H21.1207C21.6063 9.37978 22 8.9861 22 8.50047C22 8.01484 21.6063 7.62115 21.1207 7.62115H4.87931Z" fill="#282828"/>
</svg>
