<svg width="55" height="55" viewBox="0 0 55 55" fill="none" xmlns="http://www.w3.org/2000/svg">
<g id="profits 2" clip-path="url(#clip0_4608_145169)">
<g id="Group">
<g id="Group_2">
<path id="Vector" d="M28.6421 38.5629H3.16034C1.85936 38.5629 0.804688 37.5082 0.804688 36.2072V33.2424C0.804688 31.9414 1.85936 30.8867 3.16034 30.8867H28.6421C29.9431 30.8867 30.9978 31.9414 30.9978 33.2424V36.2072C30.9978 37.5082 29.9431 38.5629 28.6421 38.5629Z" fill="#F1E64C"/>
<path id="Vector_2" d="M8.06286 38.5629H3.1612C1.85946 38.5629 0.804688 37.508 0.804688 36.2075V33.2421C0.804688 31.9415 1.85957 30.8867 3.1612 30.8867H8.06286C6.7623 30.8867 5.70753 31.9416 5.70753 33.2421V36.2075C5.70753 37.508 6.76241 38.5629 8.06286 38.5629Z" fill="#FFC250"/>
<path id="Vector_3" d="M30.9978 34.3359V36.2094C30.9978 37.5103 29.9429 38.5641 28.642 38.5641H3.16045C1.85957 38.5641 0.804688 37.5103 0.804688 36.2094V34.3359C0.804688 35.6368 1.85957 36.6917 3.16045 36.6917H28.642C29.9429 36.6917 30.9978 35.6368 30.9978 34.3359Z" fill="#FFC250"/>
<path id="Vector_4" d="M33.0074 30.8871H7.52558C6.22459 30.8871 5.16992 29.8324 5.16992 28.5314V25.5666C5.16992 24.2656 6.22459 23.2109 7.52558 23.2109H33.0074C34.3084 23.2109 35.3631 24.2656 35.3631 25.5666V28.5314C35.3631 29.8324 34.3084 30.8871 33.0074 30.8871Z" fill="#F1E64C"/>
<path id="Vector_5" d="M12.4281 30.8871H7.52644C6.2247 30.8871 5.16992 29.8322 5.16992 28.5318V25.5663C5.16992 24.2657 6.2248 23.2109 7.52644 23.2109H12.4281C11.1275 23.2109 10.0728 24.2658 10.0728 25.5663V28.5318C10.0728 29.8323 11.1275 30.8871 12.4281 30.8871Z" fill="#FFC250"/>
<path id="Vector_6" d="M35.363 26.6602V28.5336C35.363 29.8345 34.3081 30.8883 33.0072 30.8883H7.52568C6.2248 30.8883 5.16992 29.8345 5.16992 28.5336V26.6602C5.16992 27.961 6.2248 29.0159 7.52568 29.0159H33.0072C34.3081 29.0159 35.363 27.961 35.363 26.6602Z" fill="#FFC250"/>
<path id="Vector_7" d="M29.939 23.2113H4.45722C3.15623 23.2113 2.10156 22.1566 2.10156 20.8557V17.8908C2.10156 16.5898 3.15623 15.5352 4.45722 15.5352H29.939C31.24 15.5352 32.2946 16.5898 32.2946 17.8908V20.8557C32.2946 22.1566 31.24 23.2113 29.939 23.2113Z" fill="#F1E64C"/>
<path id="Vector_8" d="M9.35778 23.2113H4.45612C3.15438 23.2113 2.09961 22.1564 2.09961 20.856V17.8905C2.09961 16.5899 3.15449 15.5352 4.45612 15.5352H9.35778C8.05723 15.5352 7.00245 16.59 7.00245 17.8905V20.856C7.00234 22.1564 8.05723 23.2113 9.35778 23.2113Z" fill="#FFC250"/>
<path id="Vector_9" d="M32.2946 18.9844V20.8578C32.2946 22.1587 31.2397 23.2125 29.9389 23.2125H4.45732C3.15645 23.2125 2.10156 22.1587 2.10156 20.8578V18.9844C2.10156 20.2853 3.15645 21.3401 4.45732 21.3401H29.9389C31.2397 21.3401 32.2946 20.2853 32.2946 18.9844Z" fill="#FFC250"/>
<path id="Vector_10" d="M30.7905 46.2387H5.30878C4.00779 46.2387 2.95312 45.184 2.95312 43.883V40.9182C2.95312 39.6172 4.00779 38.5625 5.30878 38.5625H30.7905C32.0915 38.5625 33.1462 39.6172 33.1462 40.9182V43.883C33.1462 45.184 32.0915 46.2387 30.7905 46.2387Z" fill="#F1E64C"/>
<path id="Vector_11" d="M33.1462 42.0117V43.8852C33.1462 45.186 32.0913 46.2398 30.7904 46.2398H5.30889C4.00801 46.2398 2.95312 45.186 2.95312 43.8852V42.0117C2.95312 43.3126 4.00801 44.3675 5.30889 44.3675H30.7904C32.0913 44.3675 33.1462 43.3126 33.1462 42.0117Z" fill="#FFC250"/>
<path id="Vector_12" d="M10.2113 46.2386H5.30964C4.0079 46.2386 2.95312 45.1838 2.95312 43.8833V40.9178C2.95312 39.6173 4.00801 38.5625 5.30964 38.5625H10.2113C8.91074 38.5625 7.85597 39.6174 7.85597 40.9178V43.8833C7.85597 45.1838 8.91085 46.2386 10.2113 46.2386Z" fill="#FFC250"/>
<path id="Vector_13" d="M29.1792 53.9144H3.69745C2.39646 53.9144 1.3418 52.8598 1.3418 51.5588V48.5939C1.3418 47.293 2.39646 46.2383 3.69745 46.2383H29.1792C30.4802 46.2383 31.5349 47.293 31.5349 48.5939V51.5588C31.5349 52.8598 30.4802 53.9144 29.1792 53.9144Z" fill="#F1E64C"/>
<path id="Vector_14" d="M31.5349 49.6875V51.5609C31.5349 52.8618 30.48 53.9156 29.1791 53.9156H3.69756C2.39668 53.9156 1.3418 52.8618 1.3418 51.5609V49.6875C1.3418 50.9884 2.39668 52.0433 3.69756 52.0433H29.1791C30.48 52.0433 31.5349 50.9884 31.5349 49.6875Z" fill="#FFC250"/>
<path id="Vector_15" d="M8.59997 53.9144H3.69831C2.39657 53.9144 1.3418 52.8596 1.3418 51.5591V48.5936C1.3418 47.2931 2.39668 46.2383 3.69831 46.2383H8.59997C7.29941 46.2383 6.24464 47.2932 6.24464 48.5936V51.5591C6.24464 52.8596 7.29952 53.9144 8.59997 53.9144Z" fill="#FFC250"/>
<g id="Group_3">
<path id="Vector_16" d="M39.0965 53.9157C47.4341 53.9157 54.1931 47.1568 54.1931 38.8192C54.1931 30.4816 47.4341 23.7227 39.0965 23.7227C30.7589 23.7227 24 30.4816 24 38.8192C24 47.1568 30.7589 53.9157 39.0965 53.9157Z" fill="#F1E64C"/>
<g id="Group_4">
<path id="Vector_17" d="M40.3732 53.8615C39.9529 53.8978 39.5268 53.9153 39.0963 53.9153C30.7585 53.9153 24 47.1568 24 38.819C24 30.4811 30.7585 23.7227 39.0963 23.7227C39.5269 23.7227 39.9529 23.7401 40.3732 23.7765C32.6317 24.4237 26.5523 30.9101 26.5523 38.819C26.5523 46.7278 32.6317 53.2143 40.3732 53.8615Z" fill="#FFC250"/>
<path id="Vector_18" d="M39.0964 49.013C44.7264 49.013 49.2904 44.449 49.2904 38.819C49.2904 33.189 44.7264 28.625 39.0964 28.625C33.4664 28.625 28.9023 33.189 28.9023 38.819C28.9023 44.449 33.4664 49.013 39.0964 49.013Z" fill="#FFC250"/>
</g>
</g>
<g id="Group_5">
<path id="Vector_19" d="M21.2014 33.3002V20.872H23.3258C25.905 20.872 27.5169 18.0798 26.2272 15.8463L19.4182 4.05394C18.1286 1.82063 14.9051 1.82053 13.6154 4.05383L6.80558 15.8461C5.51576 18.0797 7.12763 20.872 9.70694 20.872H11.8324V33.3002C11.8324 34.4646 12.7763 35.4086 13.9408 35.4086H19.093C20.2575 35.4086 21.2014 34.4645 21.2014 33.3002Z" fill="#95D6A4"/>
<path id="Vector_20" d="M15.8804 35.4079H13.9405C12.7765 35.4079 11.8329 34.4643 11.8329 33.3003V20.8707H9.7067C7.12739 20.8707 5.51531 18.079 6.80609 15.845L13.6148 4.05297C14.2597 2.93653 15.388 2.37891 16.5165 2.37891C15.7606 2.37891 15.0046 2.93653 14.5733 4.05297L10.0117 15.845C9.14682 18.079 10.2274 20.8707 11.9548 20.8707H12.8283C13.7336 20.8707 14.4676 21.6047 14.4676 22.5101V33.2991C14.4676 34.4636 15.1006 35.4079 15.8804 35.4079Z" fill="#78C2A4"/>
</g>
<g id="Group_6">
<path id="Vector_21" d="M40.1008 17.7116L40.0391 17.4816C39.8218 16.6706 40.2695 15.8297 41.0638 15.5574L43.507 14.7197C44.3821 14.4197 45.3282 14.9236 45.5677 15.8171L45.7208 16.3885C45.9602 17.282 45.3927 18.1916 44.4849 18.3692L41.9503 18.8654C41.1263 19.0269 40.3181 18.5226 40.1008 17.7116Z" fill="#F7F493"/>
<path id="Vector_22" d="M36.1986 10.8301L36.0303 10.6618C35.4366 10.0681 35.4039 9.11598 35.9557 8.48305L37.6527 6.53603C38.2606 5.83865 39.3319 5.80191 39.986 6.45611L40.4043 6.87441C41.0585 7.52861 41.0218 8.59993 40.3244 9.20772L38.3774 10.9048C37.7445 11.4565 36.7925 11.4238 36.1986 10.8301Z" fill="#F7F493"/>
<path id="Vector_23" d="M29.3769 6.81871L29.1469 6.75705C28.3359 6.53974 27.8315 5.7315 27.9929 4.90746L28.4891 2.37284C28.6667 1.46491 29.5763 0.897512 30.4698 1.13696L31.0412 1.29003C31.9347 1.52948 32.4387 2.47565 32.1386 3.35071L31.3009 5.79391C31.0288 6.58829 30.1881 7.03603 29.3769 6.81871Z" fill="#F7F493"/>
</g>
</g>
<g id="Group_7">
<path id="Vector_24" d="M50.6751 27.9169C50.37 27.5929 49.8601 27.5778 49.5362 27.8828C49.2123 28.1879 49.1971 28.6978 49.5023 29.0217C52.0084 31.6822 53.3887 35.1614 53.3887 38.8182C53.3887 46.6986 46.9775 53.1096 39.0973 53.1096C31.2175 53.1096 24.8069 46.6986 24.8069 38.8182C24.8069 30.9385 31.2175 24.5279 39.0973 24.5279C42.0066 24.5279 44.8053 25.3966 47.191 27.0401C47.5574 27.2924 48.0592 27.2001 48.3115 26.8337C48.564 26.4673 48.4715 25.9656 48.1051 25.7132C45.4494 23.8837 42.3345 22.9166 39.0974 22.9166C37.7859 22.9166 36.5114 23.0773 35.2914 23.3781C34.701 22.7603 33.8828 22.4044 33.0087 22.4044H32.6922C32.9512 21.946 33.0999 21.4173 33.0999 20.8543V17.8895C33.0999 16.1462 31.6817 14.728 29.9385 14.728H26.5112L20.1163 3.6524C19.3644 2.35099 18.0187 1.57422 16.516 1.57422C16.5158 1.57422 16.5154 1.57422 16.5151 1.57422C15.0134 1.57454 13.6686 2.35109 12.918 3.65144L6.52212 14.728H4.45693C2.71369 14.728 1.29551 16.1462 1.29551 17.8895V20.8543C1.29551 22.5975 2.71369 24.0157 4.45693 24.0157H4.77329C4.5143 24.4741 4.36562 25.0028 4.36562 25.5658V28.5307C4.36562 29.0937 4.5143 29.6224 4.77329 30.0808H3.16143C1.41818 30.0808 0 31.4985 0 33.2411V36.206C0 37.7529 1.11708 39.043 2.58683 39.3141C2.30871 39.7846 2.14844 40.3326 2.14844 40.9176V43.8824C2.14844 44.5187 2.33804 45.1112 2.66277 45.6077C1.42688 46.0376 0.537109 47.2135 0.537109 48.594V51.5588C0.537109 53.302 1.95529 54.7202 3.69854 54.7202H29.1801C30.3768 54.7202 31.4401 54.0424 31.9751 53.0338C34.1189 54.1124 36.5383 54.721 39.0973 54.721C47.8661 54.721 55 47.5871 55 38.8182C55 34.749 53.4641 30.8775 50.6751 27.9169ZM3.75977 43.8824V40.9176C3.75977 40.0628 4.45511 39.3675 5.30986 39.3675H23.2061C23.2797 41.5248 23.7847 43.5745 24.638 45.4325H5.30986C4.45511 45.4325 3.75977 44.7372 3.75977 43.8824ZM33.2416 24.034C30.1919 25.2461 27.6037 27.3762 25.8181 30.0809H22.0075V24.0158H29.9385H33.0086C33.0874 24.0158 33.1651 24.0224 33.2416 24.034ZM31.4886 17.8896V20.8544C31.4886 21.7092 30.7932 22.4045 29.9385 22.4045H22.0075V21.6791H23.3256C24.8283 21.6791 26.1739 20.902 26.9252 19.6003C27.5103 18.5866 27.6374 17.4203 27.3109 16.3394H29.9385C30.7932 16.3395 31.4886 17.0348 31.4886 17.8896ZM2.90684 20.8544V17.8896C2.90684 17.0348 3.60218 16.3395 4.45693 16.3395H5.72172C5.51923 17.0144 5.49119 17.7301 5.6476 18.4241C5.74535 18.8582 6.17665 19.1308 6.61063 19.033C7.04473 18.9351 7.31736 18.5039 7.2195 18.0699C7.12143 17.6345 7.09113 16.9654 7.50396 16.2501L14.3135 4.45721C14.773 3.66121 15.5962 3.18587 16.5156 3.18565H16.516C17.4363 3.18565 18.2606 3.66143 18.7209 4.45839L25.5295 16.2502C25.9895 17.0466 25.9896 17.998 25.5297 18.7948C25.0696 19.5919 24.2457 20.0678 23.3256 20.0678H21.2019C20.7569 20.0678 20.3962 20.4285 20.3962 20.8734V33.3011C20.3962 34.0195 19.8117 34.6041 19.0932 34.6041H13.9412C13.2228 34.6041 12.6382 34.0196 12.6382 33.3011V20.8734C12.6382 20.4285 12.2775 20.0678 11.8325 20.0678H9.70772C9.40167 20.0678 9.10647 20.0168 8.8304 19.9165C8.41199 19.7643 7.94997 19.9801 7.79797 20.3983C7.64586 20.8165 7.86156 21.2787 8.27976 21.4307C8.73286 21.5955 9.21325 21.6791 9.70772 21.6791H11.0269V22.4045H7.52705H4.45693C3.60218 22.4045 2.90684 21.7092 2.90684 20.8544ZM5.97695 28.5308V25.5659C5.97695 24.7112 6.6723 24.0158 7.52705 24.0158H11.0269V30.0809H7.52705C6.6723 30.0809 5.97695 29.3855 5.97695 28.5308ZM1.61133 36.2061V33.2412C1.61133 32.3871 2.30667 31.6922 3.16143 31.6922H7.52705H11.0269V33.3011C11.0269 34.908 12.3342 36.2154 13.9412 36.2154H19.0932C20.7001 36.2154 22.0075 34.9081 22.0075 33.3011V31.6922H24.8846C23.9554 33.538 23.3756 35.5883 23.2319 37.7562H5.30986H3.16143C2.30667 37.7562 1.61133 37.0608 1.61133 36.2061ZM29.1801 53.1089H3.69854C2.84378 53.1089 2.14844 52.4136 2.14844 51.5588V48.594C2.14844 47.7392 2.84378 47.0439 3.69854 47.0439H5.30986H25.4925C26.7645 49.1401 28.5071 50.9202 30.5724 52.2371C30.3189 52.7559 29.7848 53.1089 29.1801 53.1089Z" fill="black"/>
<path id="Vector_25" d="M40.6874 37.9816C40.4023 37.8986 40.1102 37.8114 39.8192 37.7203V34.1503C40.6841 34.2781 41.2008 34.6424 41.2398 34.6708C41.5939 34.9354 42.0958 34.8652 42.3636 34.5126C42.6327 34.1583 42.5636 33.6528 42.2093 33.3838C42.1574 33.3443 41.2671 32.6846 39.8192 32.529V31.833C39.8192 31.3881 39.4586 31.0273 39.0135 31.0273C38.5685 31.0273 38.2078 31.3881 38.2078 31.833V32.5807C38.0524 32.6069 37.8936 32.6396 37.7313 32.6799C36.3731 33.0169 35.359 34.0532 35.1478 35.32C34.9697 36.3887 35.4056 37.4055 36.2855 37.9739C36.7695 38.2865 37.3747 38.5732 38.2078 38.8773V43.3992C37.3715 43.364 36.8186 43.2232 35.9087 42.7329C35.5168 42.5218 35.0282 42.6683 34.8173 43.0601C34.6062 43.4518 34.7526 43.9404 35.1444 44.1515C36.3472 44.7995 37.1259 44.9734 38.2079 45.0115V45.8027C38.2079 46.2476 38.5686 46.6084 39.0136 46.6084C39.4587 46.6084 39.8193 46.2476 39.8193 45.8027V44.9592C41.9417 44.6422 43.2351 43.1353 43.4428 41.6494C43.6766 39.9767 42.595 38.537 40.6874 37.9816ZM37.1598 36.6203C36.6748 36.307 36.7028 35.7918 36.7372 35.5848C36.8211 35.0814 37.2283 34.4647 38.1192 34.2438C38.1491 34.2364 38.1783 34.2302 38.2077 34.2235V37.1486C37.8082 36.9824 37.4482 36.8065 37.1598 36.6203ZM41.8469 41.4263C41.7336 42.2357 41.0155 43.055 39.8191 43.3198V39.4052C39.9544 39.4458 40.0928 39.4869 40.2368 39.5288C41.3821 39.8622 41.9688 40.5537 41.8469 41.4263Z" fill="black"/>
<path id="Vector_26" d="M39.0972 27.8203C33.032 27.8203 28.0977 32.7547 28.0977 38.82C28.0977 44.8852 33.032 49.8196 39.0972 49.8196C45.1625 49.8196 50.0968 44.8851 50.0968 38.8199C50.0968 32.7546 45.1625 27.8203 39.0972 27.8203ZM39.0972 48.2082C33.9206 48.2082 29.709 43.9967 29.709 38.8199C29.709 33.6431 33.9206 29.4315 39.0972 29.4315C44.2739 29.4315 48.4855 33.6431 48.4855 38.8199C48.4855 43.9967 44.2739 48.2082 39.0972 48.2082Z" fill="black"/>
<path id="Vector_27" d="M39.2632 17.6898L39.3247 17.9198C39.3248 17.9198 39.3248 17.9199 39.3248 17.9199C39.6099 18.9838 40.582 19.7006 41.6481 19.7006C41.7998 19.7006 41.9535 19.6861 42.1073 19.6559L44.642 19.1597C45.2931 19.0323 45.8679 18.6364 46.219 18.0736C46.5702 17.5108 46.6731 16.8205 46.5014 16.1799L46.3483 15.6083C46.1765 14.9675 45.7422 14.4211 45.1568 14.1094C44.5711 13.7976 43.8755 13.7422 43.248 13.9573L40.8049 14.7949C39.6148 15.2031 38.9376 16.4746 39.2632 17.6898ZM41.3276 16.3193L43.7707 15.4817C43.9803 15.4098 44.2037 15.4276 44.3994 15.5318C44.5952 15.636 44.7346 15.8114 44.7919 16.0255L44.945 16.5971C45.0024 16.8112 44.9694 17.0327 44.852 17.2209C44.7346 17.4091 44.5501 17.5361 44.3326 17.5787L41.7979 18.0749C41.3898 18.1545 40.9886 17.9033 40.8814 17.5031L40.8197 17.273C40.7124 16.8725 40.9354 16.4537 41.3276 16.3193Z" fill="black"/>
<path id="Vector_28" d="M35.6313 11.397C36.0971 11.8628 36.7135 12.0982 37.3313 12.0982C37.8937 12.0982 38.4571 11.9031 38.9091 11.5093L40.8561 9.81223C41.3561 9.37641 41.6559 8.74617 41.6787 8.08316C41.7015 7.42016 41.4454 6.7709 40.9764 6.30189L40.558 5.88349C40.089 5.41448 39.44 5.15774 38.7766 5.18116C38.1137 5.20383 37.4835 5.50375 37.0476 6.0038L35.3505 7.95082C34.524 8.89925 34.5733 10.339 35.4629 11.2287L35.6313 11.397ZM36.5653 9.00957L38.2625 7.06255C38.408 6.8954 38.6103 6.79915 38.832 6.79163C38.8414 6.79131 38.8508 6.79109 38.8602 6.79109C39.0713 6.79109 39.2687 6.87284 39.4188 7.02291L39.8372 7.44132C39.9939 7.59805 40.0761 7.80644 40.0685 8.02806C40.0609 8.24967 39.9646 8.45194 39.7975 8.59761L37.8504 10.2947C37.5382 10.5669 37.0639 10.5506 36.7707 10.2576L36.6025 10.0894C36.3093 9.79622 36.2931 9.32195 36.5653 9.00957Z" fill="black"/>
<path id="Vector_29" d="M28.941 7.53526L29.1709 7.59681C29.3767 7.65192 29.5842 7.67835 29.7887 7.67835C30.792 7.67835 31.7268 7.0437 32.0657 6.05509L32.9033 3.612C33.1184 2.98444 33.0629 2.28878 32.7512 1.70322C32.4393 1.11777 31.893 0.683463 31.2523 0.511803L30.6809 0.358727C30.04 0.186959 29.3499 0.28987 28.787 0.641139C28.2242 0.992301 27.8283 1.56712 27.7009 2.21809L27.2048 4.75282C26.9632 5.98731 27.7259 7.20956 28.941 7.53526ZM28.7861 5.06219L29.2823 2.52757C29.3248 2.31005 29.4519 2.12549 29.64 2.00819C29.7677 1.92848 29.9109 1.88766 30.0569 1.88766C30.1258 1.88766 30.1952 1.89679 30.2639 1.91516L30.8353 2.06824C31.0495 2.1256 31.2248 2.26504 31.329 2.46065C31.4333 2.65637 31.4511 2.8797 31.3792 3.0895L30.5416 5.53259C30.4072 5.92458 29.9885 6.14748 29.588 6.04048C29.588 6.04048 29.588 6.04048 29.5879 6.04048L29.358 5.97893C28.9577 5.87151 28.7065 5.46889 28.7861 5.06219Z" fill="black"/>
</g>
</g>
</g>
<defs>
<clipPath id="clip0_4608_145169">
<rect width="55" height="55" fill="white"/>
</clipPath>
</defs>
</svg>
