<svg width="84" height="85" viewBox="0 0 84 85" fill="none" xmlns="http://www.w3.org/2000/svg">
<path d="M2.7886 32.3103C4.69504 31.8998 6.57323 33.1124 6.98406 35.0185C7.39458 36.925 6.18206 38.8039 4.27562 39.2144C2.36918 39.6253 0.490676 38.4124 0.07985 36.5059C-0.330669 34.5994 0.882158 32.7209 2.7886 32.3103Z" fill="#FF6D83"/>
<path d="M77.4015 21.2713C79.3081 20.8607 81.1867 22.0731 81.5972 23.9796C82.0081 25.8862 80.7955 27.7646 78.8889 28.1754C76.9823 28.586 75.104 27.3737 74.6932 25.4671C74.2826 23.5605 75.4952 21.6818 77.4015 21.2713Z" fill="#0373E3"/>
<path d="M43.5802 0.0798675C45.6058 -0.330663 47.6015 0.881892 48.0377 2.78808C48.4742 4.69458 47.1855 6.57344 45.1598 6.98397C43.1342 7.3948 41.1385 6.18194 40.702 4.27545C40.2658 2.36895 41.5545 0.490398 43.5802 0.0798675Z" fill="#FFB636"/>
<path d="M25.92 76.9053C27.9457 76.4688 29.9411 77.7571 30.3776 79.7829C30.8138 81.8086 29.5257 83.8043 27.5001 84.2409C25.4744 84.6771 23.4784 83.389 23.0419 81.3633C22.6057 79.3379 23.8944 77.3415 25.92 76.9053Z" fill="#0373E3"/>
<path d="M75.8087 59.6864C77.834 59.2502 79.83 60.5386 80.2662 62.5643C80.7027 64.5901 79.414 66.5858 77.3884 67.022C75.3627 67.4585 73.3671 66.1701 72.9305 64.1444C72.4944 62.1187 73.783 60.123 75.8087 59.6864Z" fill="#BDA3FF"/>
<path d="M49.6114 12.9975C66.3295 17.4772 76.2504 34.6612 71.7711 51.3791C67.2912 68.0973 50.1068 78.0182 33.3891 73.5386C16.6713 69.0586 6.7501 51.8749 11.2301 35.157C15.7093 18.4388 32.8933 8.51789 49.6114 12.9975Z" fill="#43D296"/>
<path d="M36.4587 55.3218C36.1014 55.6444 35.5516 55.621 35.2225 55.2697L23.8546 43.1295C23.4656 42.6438 23.2772 42.0319 23.3272 41.4164C23.3771 40.8004 23.662 40.2268 24.1246 39.8089C24.5873 39.3912 25.1937 39.1607 25.8224 39.1631C26.4513 39.1654 27.0563 39.4008 27.517 39.8225L35.7098 48.5718C35.9289 48.8059 36.2956 48.821 36.5337 48.6059L53.716 33.091C54.21 32.7095 54.8331 32.5253 55.4598 32.5757C56.0868 32.6259 56.6714 32.9062 57.0974 33.3616C57.5234 33.8161 57.7592 34.4123 57.7576 35.0299C57.7561 35.6475 57.5173 36.2412 57.0888 36.6931L36.4587 55.3218Z" fill="white"/>
<path fill-rule="evenodd" clip-rule="evenodd" d="M6.1911 3.44048C6.26369 2.93714 6.74006 2.58662 7.2551 2.65756C10.2903 3.07561 12.5507 4.10537 14.2212 5.42783C14.6253 5.74779 14.6876 6.32736 14.3602 6.72233C14.0328 7.1173 13.4397 7.17811 13.0355 6.85815C11.6535 5.76401 9.71955 4.85594 6.99222 4.48029C6.47718 4.40935 6.11851 3.94381 6.1911 3.44048Z" fill="#FF6E83"/>
<path fill-rule="evenodd" clip-rule="evenodd" d="M4.09709 78.1571C4.7768 78.2196 5.58666 78.5114 6.54322 79.0055L6.54325 79.0055C7.66834 79.5867 8.46469 79.8851 9.01306 80.0095C9.44108 80.1065 9.64562 80.0813 9.72012 80.0631C9.72143 80.0545 9.72278 80.044 9.72402 80.0313C9.73745 79.8949 9.7108 79.6849 9.64023 79.4319C9.50797 78.9578 9.77789 78.4642 10.2431 78.3294C10.7083 78.1946 11.1927 78.4697 11.325 78.9438C11.4199 79.2841 11.5124 79.7462 11.4668 80.2095C11.4188 80.6973 11.2 81.2823 10.593 81.6194C10.0442 81.9242 9.3612 81.917 8.63265 81.7518C7.88274 81.5818 6.93928 81.2112 5.75135 80.5976C4.86885 80.1417 4.2926 79.9673 3.93957 79.9348C3.7712 79.9193 3.68692 79.9395 3.65606 79.9503C3.63617 79.9573 3.63314 79.9614 3.63055 79.9649C3.63028 79.9652 3.63001 79.9656 3.62972 79.966C3.60302 79.9995 3.5254 80.149 3.51794 80.554C3.5109 80.9357 3.56736 81.4101 3.66076 81.9547C3.74403 82.4402 3.42531 82.9026 2.94887 82.9875C2.47243 83.0724 2.01869 82.7476 1.93542 82.262C1.83704 81.6884 1.75648 81.0778 1.76675 80.5205C1.7766 79.9864 1.8706 79.3427 2.26939 78.8416C2.7182 78.2777 3.38391 78.0915 4.09709 78.1571ZM9.71253 80.097C9.71248 80.0969 9.71289 80.0956 9.71392 80.0933C9.7131 80.096 9.71258 80.0972 9.71253 80.097Z" fill="#BEA4FF"/>
<path fill-rule="evenodd" clip-rule="evenodd" d="M75.6603 18.525C75.4611 18.9166 74.9823 19.0725 74.5908 18.8734C73.5102 18.3238 72.5231 17.355 72.114 16.0443C71.6962 14.7057 71.9213 13.1407 73.0319 11.5088C75.7723 7.48204 79.0658 6.24694 81.9258 6.1309C82.3647 6.11309 82.735 6.45446 82.7528 6.89336C82.7706 7.33226 82.4292 7.7025 81.9903 7.72031C79.6104 7.81687 76.7912 8.81226 74.347 12.4038L74.347 12.4038C73.4583 13.7097 73.3845 14.7758 73.6325 15.5704C73.8892 16.3928 74.5328 17.0592 75.3119 17.4555C75.7035 17.6547 75.8594 18.1335 75.6603 18.525Z" fill="#FFB636"/>
<path fill-rule="evenodd" clip-rule="evenodd" d="M68.0462 78.6896C68.2175 78.2568 68.7303 78.0363 69.1915 78.1971C69.3679 78.2586 69.5515 78.319 69.7428 78.3789M68.0462 78.6896C67.8749 79.1224 68.1099 79.6036 68.5711 79.7643L68.0462 78.6896ZM68.5711 79.7643C68.7687 79.8332 68.9713 79.8998 69.1789 79.9649L68.5711 79.7643ZM74.3168 82.6448C73.8344 81.999 72.5199 81.0099 69.1794 79.965L69.1789 79.9649M69.7432 78.3791C73.1862 79.4561 74.9568 80.5889 75.7757 81.6851C76.0581 82.0632 75.9604 82.5845 75.5576 82.8495C75.1547 83.1145 74.5992 83.0228 74.3168 82.6448" fill="#213262"/>
</svg>
