<svg width="20" height="45" viewBox="0 0 20 45" fill="none" xmlns="http://www.w3.org/2000/svg">
<path d="M19.5758 33.4425C19.3071 33.1631 18.9436 33.0063 18.5647 33.0063C18.1859 33.0063 17.8224 33.1631 17.5537 33.4425L11.3944 39.8775V1.5C11.3944 1.10218 11.2433 0.720644 10.9743 0.43934C10.7054 0.158035 10.3406 0 9.9603 0C9.57996 0 9.2152 0.158035 8.94625 0.43934C8.67731 0.720644 8.52622 1.10218 8.52622 1.5V39.8775L2.36688 33.4425C2.09254 33.1968 1.73965 33.0684 1.37872 33.0829C1.0178 33.0975 0.675433 33.254 0.420032 33.5212C0.164631 33.7883 0.0150104 34.1464 0.0010695 34.5239C-0.0128714 34.9014 0.109895 35.2705 0.344834 35.5575L8.94928 44.5575C9.08259 44.6981 9.2412 44.8097 9.41596 44.8858C9.59071 44.962 9.77815 45.0012 9.96747 45.0012C10.1568 45.0012 10.3442 44.962 10.519 44.8858C10.6937 44.8097 10.8523 44.6981 10.9857 44.5575L19.5901 35.5575C19.8553 35.2745 20.0027 34.8932 20 34.4969C19.9973 34.1006 19.8448 33.7216 19.5758 33.4425Z" fill="#282828"/>
</svg>
