<svg width="14" height="14" viewBox="0 0 14 14" fill="none" xmlns="http://www.w3.org/2000/svg">
<path d="M7 13C10.3137 13 13 10.3137 13 7C13 3.68629 10.3137 1 7 1C3.68629 1 1 3.68629 1 7C1 10.3137 3.68629 13 7 13Z" stroke="#F58423" stroke-miterlimit="10" stroke-linecap="round" stroke-linejoin="round"/>
<path d="M9 10C9.55228 10 10 9.55228 10 9C10 8.44772 9.55228 8 9 8C8.44772 8 8 8.44772 8 9C8 9.55228 8.44772 10 9 10Z" stroke="#F58423" stroke-miterlimit="10" stroke-linecap="round" stroke-linejoin="round"/>
<path d="M5 6C5.55228 6 6 5.55228 6 5C6 4.44772 5.55228 4 5 4C4.44772 4 4 4.44772 4 5C4 5.55228 4.44772 6 5 6Z" stroke="#F58423" stroke-miterlimit="10" stroke-linecap="round" stroke-linejoin="round"/>
<path d="M4.40039 9.60039L9.60039 4.40039" stroke="#F58423" stroke-miterlimit="10" stroke-linecap="round" stroke-linejoin="round"/>
</svg>
