<svg width="56" height="56" viewBox="0 0 56 56" fill="none" xmlns="http://www.w3.org/2000/svg">
<g clip-path="url(#clip0_13_3969)">
<path d="M31.7461 35.4458C31.7461 40.597 35.922 44.7729 41.0732 44.7729C46.224 44.7729 50.3999 40.597 50.3999 35.4458C50.3999 30.295 46.224 26.1191 41.0732 26.1191C35.9242 26.1248 31.7517 30.2973 31.7461 35.4458ZM41.0732 27.9843C45.1941 27.9843 48.5347 31.3249 48.5347 35.4458C48.5347 39.5668 45.1941 42.9074 41.0732 42.9074C36.9522 42.9074 33.6117 39.5668 33.6117 35.4458C33.6162 31.3272 36.9541 27.9888 41.0732 27.9843Z" fill="black"/>
<path d="M35.7441 54.0996H46.404V55.9648H35.7441V54.0996Z" fill="black"/>
<path d="M31.7461 50.3691H50.4003V52.2347H31.7461V50.3691Z" fill="black"/>
<path d="M11.2266 50.3691H13.0921V52.2347H11.2266V50.3691Z" fill="black"/>
<path d="M5.63086 52.2344H7.49605V54.0999H5.63086V52.2344Z" fill="black"/>
<path d="M11.3217 45.121C16.1918 36.639 19.2475 27.2378 20.2951 17.5134L28.9693 26.1361C29.1428 26.3088 29.3772 26.4062 29.6221 26.4074C29.6726 26.4077 29.7234 26.4036 29.773 26.3953C30.0688 26.3472 30.3231 26.1598 30.4567 25.8919C32.2151 22.3824 31.5265 18.141 28.7481 15.3682L27.9854 14.6051H34.5457C35.0608 14.6055 35.4789 14.1882 35.4789 13.6731C35.4792 13.5723 35.4627 13.4722 35.4311 13.377C34.1924 9.65187 30.7066 7.13987 26.7809 7.14363H25.5685L30.2264 2.45864C30.5899 2.09366 30.5884 1.50328 30.2234 1.1398C30.1527 1.06944 30.0714 1.01074 29.9822 0.96634C26.4712 -0.79387 22.2276 -0.105665 19.453 2.67425L18.5623 3.56489C18.2718 3.85725 18.0021 4.16881 17.7537 4.49767C17.5084 4.16881 17.2405 3.85725 16.9522 3.56489L16.0616 2.67425C13.2892 -0.103784 9.04786 -0.791989 5.5391 0.96634C5.07817 1.19662 4.89116 1.75689 5.12144 2.21745C5.16584 2.30663 5.22454 2.3879 5.2949 2.45864L9.95807 7.14363H8.73367C4.808 7.13987 1.32182 9.65187 0.0835066 13.377C-0.0797964 13.8654 0.183972 14.3937 0.672752 14.557C0.767949 14.589 0.868038 14.6051 0.968879 14.6051H7.52282L6.76011 15.3682C3.98171 18.141 3.29312 22.3824 5.05108 25.8919C5.18503 26.1598 5.43939 26.3472 5.73477 26.3953C5.78481 26.4036 5.83523 26.4077 5.88603 26.4074C6.13249 26.4074 6.36879 26.3099 6.54338 26.1361L14.6209 18.1064C13.6207 27.044 10.2546 35.5531 4.86934 42.7557C3.61559 42.4265 2.34454 42.1672 1.0622 41.9798L0.479347 41.9211L0.292715 43.778L0.836431 43.8311C1.76921 43.9647 2.69598 44.1532 3.61785 44.3665C3.43122 44.6006 3.24458 44.8384 3.05156 45.069L4.48215 46.2656C11.6498 37.7437 15.9228 27.164 16.684 16.0546L17.7575 14.9878L18.5612 15.787C17.5806 27.6679 13.5026 39.0844 6.73377 48.8976L8.26145 49.9666C8.99481 48.9198 9.6943 47.8335 10.3723 46.7265C14.7352 48.8133 18.5875 51.8314 21.6579 55.5682L23.1006 54.3863C21.285 52.1791 19.205 50.2033 16.9067 48.5041H55.9978V46.6385H14.1434C13.229 46.0865 12.2853 45.5864 11.3217 45.121V45.121ZM29.2797 23.8126L19.4251 14.0148C21.9458 13.2622 24.676 13.9452 26.5454 15.7961L27.436 16.6871C29.3019 18.5496 30.0078 21.2787 29.2797 23.8126ZM33.1226 12.74H25.4C23.6014 11.8839 21.5721 11.6416 19.6227 12.0506C20.9799 10.1422 23.1766 9.00882 25.5185 9.0092H26.7775C29.4141 9.00506 31.8444 10.4341 33.1226 12.74ZM19.8782 4.88373L20.7692 3.99309C22.6332 2.12677 25.3635 1.4205 27.8984 2.14897L22.3695 7.71068C20.575 8.37104 19.0345 9.58038 17.9663 11.1664C17.5325 8.88465 18.2481 6.5352 19.8812 4.88373H19.8782ZM14.7401 3.99309L15.6308 4.88373C16.0462 5.30779 16.4067 5.78265 16.7035 6.29664C16.281 7.27909 16.0398 8.32927 15.9909 9.39714C15.1537 8.66566 14.1893 8.09448 13.1462 7.71068L7.61614 2.14897C10.1503 1.42088 12.8798 2.12715 14.7428 3.99309H14.7401ZM8.73066 9.0092H9.99005C12.3335 9.00694 14.5332 10.1399 15.8919 12.0495C13.9436 11.642 11.9151 11.8843 10.1176 12.74H2.39195C3.66977 10.4353 6.09825 9.00656 8.73367 9.0092H8.73066ZM6.23483 23.8126C5.50674 21.2787 6.21301 18.5496 8.07895 16.6871L8.96959 15.7961C10.3114 14.4576 12.131 13.7085 14.0267 13.7145C14.7262 13.7149 15.4219 13.8146 16.0936 14.011L6.23483 23.8126Z" fill="black"/>
</g>
<defs>
<clipPath id="clip0_13_3969">
<rect width="56" height="56" fill="white"/>
</clipPath>
</defs>
</svg>
