<svg width="132" height="52" viewBox="0 0 132 52" fill="none" xmlns="http://www.w3.org/2000/svg">
<rect width="132" height="52" rx="6" fill="black"/>
<path d="M28.0745 26.4936C28.1 24.517 29.1362 22.6912 30.8202 21.6559C29.753 20.1318 28.0296 19.2002 26.17 19.142C24.2135 18.9366 22.3167 20.3127 21.3197 20.3127C20.3034 20.3127 18.7683 19.1624 17.1153 19.1964C14.9404 19.2667 12.962 20.4732 11.9038 22.3747C9.65049 26.276 11.3313 32.0096 13.4898 35.1632C14.5698 36.7074 15.8319 38.4323 17.4834 38.3711C19.0995 38.3041 19.7031 37.3406 21.6539 37.3406C23.5865 37.3406 24.1528 38.3711 25.8378 38.3322C27.572 38.3041 28.6645 36.7811 29.7066 35.2223C30.4826 34.122 31.0796 32.906 31.4758 31.6192C29.4161 30.7481 28.0769 28.7299 28.0745 26.4936Z" fill="white"/>
<path d="M24.892 17.067C25.8375 15.9319 26.3034 14.473 26.1906 13C24.746 13.1517 23.4117 13.8421 22.4533 14.9336C21.5071 16.0106 21.0277 17.4195 21.1208 18.8501C22.5847 18.8652 23.9747 18.208 24.892 17.067Z" fill="white"/>
<path fill-rule="evenodd" clip-rule="evenodd" d="M43.4221 31.6393H47.9074L48.9836 34.8199H50.9158L46.6674 23.0527H44.6936L40.4452 34.8199H42.345L43.4221 31.6393ZM47.4419 30.1715H43.8866L45.6402 25.0098H45.6892L47.4419 30.1715Z" fill="white"/>
<path fill-rule="evenodd" clip-rule="evenodd" d="M56.5108 34.9087C58.6642 34.9087 60.0911 33.1959 60.0911 30.5299C60.0911 27.8712 58.6558 26.15 56.4784 26.15C55.358 26.1139 54.3085 26.6966 53.7467 27.6667H53.7143V26.2398H52.0098V37.6571H53.7708V33.4078H53.8115C54.3494 34.384 55.3978 34.967 56.5108 34.9087ZM56.0142 27.6523C57.3838 27.6523 58.2814 28.7943 58.2814 30.5312C58.2814 32.2839 57.3838 33.4175 56.0142 33.4175C54.6687 33.4175 53.7637 32.2598 53.7637 30.5312C53.7637 28.8183 54.6687 27.6523 56.0142 27.6523Z" fill="white"/>
<path fill-rule="evenodd" clip-rule="evenodd" d="M65.9522 34.9087C68.1056 34.9087 69.5325 33.1959 69.5325 30.5298C69.5325 27.8712 68.0973 26.15 65.9198 26.15C64.7994 26.1139 63.7498 26.6966 63.1881 27.6667H63.1557V26.2398H61.4512V37.6571H63.2122V33.4078H63.2529C63.7908 34.384 64.8392 34.967 65.9522 34.9087ZM65.4558 27.6523C66.8253 27.6523 67.7229 28.7943 67.7229 30.5312H67.7229C67.7229 32.2839 66.8253 33.4175 65.4558 33.4175C64.1103 33.4175 63.2052 32.2598 63.2052 30.5312C63.2052 28.8183 64.1103 27.6523 65.4558 27.6523Z" fill="white"/>
<path d="M75.7753 31.5402C75.9058 32.7071 77.0394 33.4733 78.5885 33.4733C80.0728 33.4733 81.1407 32.7071 81.1407 31.6549C81.1407 30.7416 80.4966 30.1947 78.9716 29.8199L77.4466 29.4525C75.2858 28.9306 74.2827 27.9201 74.2827 26.2803C74.2827 24.25 76.052 22.8555 78.5644 22.8555C81.0509 22.8555 82.7555 24.25 82.8128 26.2803H81.0352C80.9287 25.106 79.958 24.3972 78.5394 24.3972C77.1208 24.3972 76.1501 25.1143 76.1501 26.1582C76.1501 26.9901 76.7701 27.4796 78.2868 27.8543L79.5832 28.1727C81.9975 28.7436 83.0007 29.7134 83.0007 31.4346C83.0007 33.6361 81.2471 35.0149 78.458 35.0149C75.8484 35.0149 74.0865 33.6685 73.9727 31.5401L75.7753 31.5402Z" fill="white"/>
<path d="M86.7999 24.2109V26.2412H88.4314V27.6358H86.7999V32.3654C86.7999 33.1001 87.1266 33.4425 87.8438 33.4425C88.0374 33.4391 88.2308 33.4255 88.423 33.4018V34.788C88.1006 34.8482 87.7729 34.8755 87.4449 34.8694C85.708 34.8694 85.0306 34.217 85.0306 32.5532V27.6358H83.7832V26.2412H85.0306V24.2109H86.7999Z" fill="white"/>
<path fill-rule="evenodd" clip-rule="evenodd" d="M93.446 26.1348C90.9669 26.1348 89.3771 27.831 89.3771 30.5303C89.3771 33.237 90.9511 34.9259 93.446 34.9259C95.9417 34.9259 97.5158 33.2371 97.5158 30.5303C97.5158 27.8309 95.9334 26.1348 93.446 26.1348ZM93.4466 27.5858C94.8735 27.5858 95.7221 28.6787 95.7221 30.5304H95.7221C95.7221 32.3895 94.8735 33.474 93.4466 33.474C92.0197 33.474 91.172 32.3895 91.172 30.5304C91.172 28.687 92.0197 27.5858 93.4466 27.5858Z" fill="white"/>
<path d="M98.9688 26.2397H100.648V27.7H100.689C100.923 26.7599 101.785 26.113 102.753 26.1499C102.956 26.1492 103.158 26.1713 103.356 26.2156V27.8628C103.1 27.7845 102.833 27.7486 102.565 27.7564C102.047 27.7354 101.546 27.9417 101.193 28.3212C100.84 28.7007 100.671 29.2154 100.73 29.7302V34.8189H98.9688L98.9688 26.2397Z" fill="white"/>
<path fill-rule="evenodd" clip-rule="evenodd" d="M107.779 34.9259C109.72 34.9259 111.236 33.857 111.473 32.2996L109.801 32.2996C109.48 33.0957 108.675 33.5864 107.82 33.5063C107.179 33.5299 106.559 33.2771 106.118 32.8122C105.676 32.3472 105.455 31.715 105.512 31.0763V30.9699H111.571V30.3665C111.571 27.7653 110.079 26.1348 107.705 26.1348C105.292 26.1348 103.734 27.88 103.734 30.571C103.734 33.2537 105.283 34.9259 107.779 34.9259ZM109.809 29.7384L105.52 29.7384C105.518 29.1592 105.748 28.6034 106.158 28.1945C106.569 27.7856 107.125 27.5576 107.704 27.561C108.279 27.5487 108.833 27.7766 109.232 28.19C109.632 28.6033 109.841 29.1645 109.809 29.7384Z" fill="white"/>
<path fill-rule="evenodd" clip-rule="evenodd" d="M46.852 14.0529C46.3366 13.5087 45.6044 13.2243 44.8568 13.2779H42.8145V18.932H44.8568C46.541 18.932 47.5172 17.8937 47.5172 16.0874C47.6115 15.3438 47.3673 14.5971 46.852 14.0529ZM44.7594 18.1324H43.6934V14.077H44.7594C45.2908 14.0475 45.8076 14.257 46.1685 14.6483C46.5293 15.0396 46.6964 15.5716 46.624 16.0989C46.7021 16.6284 46.5373 17.1649 46.1756 17.5594C45.8139 17.9539 45.2937 18.1644 44.7594 18.1324Z" fill="white"/>
<path fill-rule="evenodd" clip-rule="evenodd" d="M49.4559 14.8859C48.8031 15.291 48.4364 16.0311 48.5096 16.796C48.435 17.5616 48.8014 18.3032 49.4548 18.7092C50.1082 19.1152 50.9354 19.1152 51.5888 18.7092C52.2422 18.3032 52.6086 17.5616 52.534 16.796C52.6072 16.0311 52.2405 15.291 51.5876 14.8859C50.9348 14.4808 50.1088 14.4808 49.4559 14.8859ZM50.5226 15.3301C51.2518 15.3301 51.6673 15.871 51.6673 16.7959H51.6673C51.6673 17.7245 51.2519 18.2649 50.5226 18.2649C49.7907 18.2649 49.3789 17.7282 49.3789 16.7959C49.3789 15.871 49.7907 15.3301 50.5226 15.3301Z" fill="white"/>
<path d="M57.8842 18.9329H57.0107L56.1288 15.7903H56.0622L55.184 18.9329H54.3187L53.1426 14.666H53.9967L54.7611 17.9219H54.824L55.7013 14.666H56.5091L57.3864 17.9219H57.453L58.2137 14.666H59.0557L57.8842 18.9329Z" fill="white"/>
<path d="M60.0449 14.6647H60.8556V15.3426H60.9185C61.1373 14.8435 61.6487 14.5382 62.1918 14.5823C62.6124 14.5507 63.0245 14.7121 63.3118 15.0208C63.5991 15.3295 63.7304 15.7522 63.6687 16.1694V18.9316H62.8266V16.3808C62.8266 15.6951 62.5286 15.3541 61.9059 15.3541C61.6206 15.3408 61.3438 15.4528 61.1479 15.6606C60.9521 15.8685 60.8568 16.1515 60.887 16.4354V18.9316H60.0449L60.0449 14.6647Z" fill="white"/>
<path d="M65.0099 13H65.852V18.9326H65.0099V13Z" fill="white"/>
<path fill-rule="evenodd" clip-rule="evenodd" d="M67.9698 14.8878C67.3169 15.2929 66.9501 16.0331 67.0232 16.798C66.9487 17.5636 67.3152 18.3052 67.9686 18.7112C68.6221 19.1172 69.4493 19.1172 70.1027 18.7112C70.7561 18.3052 71.1226 17.5636 71.0481 16.798C71.1212 16.0331 70.7545 15.2929 70.1016 14.8878C69.4487 14.4827 68.6226 14.4827 67.9698 14.8878ZM69.0363 15.332C69.7655 15.332 70.181 15.8729 70.181 16.7978H70.181C70.181 17.7264 69.7655 18.2669 69.0363 18.2669C68.3044 18.2669 67.8926 17.7302 67.8926 16.7978C67.8926 15.8729 68.3043 15.332 69.0363 15.332Z" fill="white"/>
<path fill-rule="evenodd" clip-rule="evenodd" d="M73.5205 16.4528C72.5053 16.5157 71.9334 16.9585 71.9334 17.7266C71.9349 18.0907 72.0903 18.4373 72.3613 18.6806C72.6323 18.9239 72.9935 19.0412 73.3558 19.0036C73.8725 19.0275 74.3621 18.7715 74.6374 18.3336H74.704V18.9333H75.5147V16.0179C75.5147 15.1165 74.9113 14.584 73.8416 14.584C72.8736 14.584 72.1842 15.0541 72.0982 15.787H72.9134C73.0069 15.4853 73.3326 15.3127 73.8027 15.3127C74.3783 15.3127 74.6763 15.5672 74.6763 16.0179V16.3862L73.5205 16.4528ZM74.6772 17.0059V17.3626C74.6588 17.6345 74.5308 17.8874 74.3225 18.0632C74.1142 18.239 73.8435 18.3228 73.5723 18.2954C73.1142 18.2954 72.7811 18.0719 72.7811 17.6879C72.7811 17.3117 73.0476 17.1118 73.6352 17.0725L74.6772 17.0059Z" fill="white"/>
<path fill-rule="evenodd" clip-rule="evenodd" d="M78.3923 14.5949C77.3142 14.5949 76.6211 15.449 76.6211 16.7973C76.6211 18.1488 77.3068 19.003 78.3923 19.0029C78.9426 19.0232 79.4587 18.7364 79.7322 18.2585H79.7988V18.9326H80.6058V13H79.7637V15.3435H79.7008C79.4465 14.8615 78.9366 14.5698 78.3923 14.5949ZM78.6323 18.2471C77.9188 18.2471 77.4922 17.7025 77.4922 16.7975H77.4922C77.4922 15.8998 77.9234 15.3516 78.6323 15.3516C79.3374 15.3516 79.7807 15.9119 79.7807 16.8012C79.7807 17.6946 79.342 18.2471 78.6323 18.2471Z" fill="white"/>
<path fill-rule="evenodd" clip-rule="evenodd" d="M85.036 14.8859C84.3832 15.291 84.0165 16.0311 84.0896 16.796C84.0151 17.5616 84.3815 18.3032 85.0349 18.7092C85.6883 19.1152 86.5155 19.1152 87.1689 18.7092C87.8223 18.3032 88.1887 17.5616 88.1141 16.796C88.1873 16.0311 87.8205 15.291 87.1677 14.8859C86.5149 14.4808 85.6888 14.4808 85.036 14.8859ZM86.1027 15.3301C86.8319 15.3301 87.2474 15.871 87.2474 16.7959C87.2474 17.7245 86.8319 18.2649 86.1027 18.2649C85.3708 18.2649 84.959 17.7282 84.959 16.7959C84.959 15.871 85.3707 15.3301 86.1027 15.3301Z" fill="white"/>
<path d="M89.2461 14.6647H90.0567V15.3426H90.1197C90.3385 14.8435 90.8498 14.5382 91.393 14.5823C91.8135 14.5507 92.2256 14.7121 92.513 15.0208C92.8003 15.3295 92.9316 15.7522 92.8699 16.1694V18.9316H92.0278V16.3808C92.0278 15.6951 91.7298 15.3541 91.107 15.3541C90.8218 15.3408 90.5449 15.4528 90.3491 15.6606C90.1533 15.8685 90.058 16.1515 90.0882 16.4354V18.9316H89.2461V14.6647Z" fill="white"/>
<path d="M97.6277 13.6035V14.6853H98.5521V15.3946H97.6277V17.5887C97.6277 18.0356 97.8118 18.2313 98.231 18.2313C98.3383 18.231 98.4455 18.2245 98.5521 18.2119V18.9133C98.4009 18.9404 98.2477 18.9548 98.0941 18.9564C97.1576 18.9564 96.7846 18.6269 96.7846 17.8043V15.3946H96.1073V14.6852H96.7846V13.6035H97.6277Z" fill="white"/>
<path d="M99.7031 13H100.538V15.3514H100.604C100.834 14.848 101.354 14.5423 101.905 14.587C102.324 14.5643 102.73 14.7292 103.014 15.0368C103.299 15.3444 103.431 15.7627 103.375 16.1778V18.9326H102.532V16.3855C102.532 15.704 102.215 15.3588 101.62 15.3588C101.327 15.3348 101.038 15.4413 100.831 15.6498C100.624 15.8584 100.519 16.1478 100.545 16.4405V18.9326H99.7032L99.7031 13Z" fill="white"/>
<path fill-rule="evenodd" clip-rule="evenodd" d="M106.435 19.0157C107.268 19.1061 108.047 18.5861 108.283 17.7812L107.473 17.7812C107.271 18.1436 106.87 18.348 106.458 18.2985C106.14 18.302 105.836 18.1714 105.619 17.9386C105.403 17.7059 105.295 17.3927 105.321 17.0761V17.0289H108.334V16.7351C108.334 15.3952 107.618 14.5841 106.431 14.5841C105.86 14.5792 105.316 14.8221 104.939 15.2498C104.561 15.6775 104.388 16.2479 104.464 16.8133C104.386 17.3771 104.56 17.9466 104.939 18.3708C105.319 18.7949 105.866 19.0307 106.435 19.0157ZM107.478 16.4064H105.322C105.319 16.1122 105.434 15.8289 105.642 15.6208C105.85 15.4126 106.133 15.2974 106.427 15.3011C106.718 15.2944 106.997 15.4106 107.197 15.6211C107.397 15.8316 107.499 16.1168 107.478 16.4064Z" fill="white"/>
</svg>
