<svg width="180" height="52" viewBox="0 0 180 52" fill="none" xmlns="http://www.w3.org/2000/svg">
<path d="M180 46.3877C180 49.2122 177.683 51.5 174.817 51.5H5.1901C2.32534 51.5 0 49.2122 0 46.3877V5.61895C0 2.79585 2.32534 0.5 5.1901 0.5H174.815C177.683 0.5 179.999 2.79585 179.999 5.61895L180 46.3877Z" fill="black"/>
<path d="M39.1705 25.2381C39.1318 21.0482 42.6891 19.0098 42.8518 18.9149C40.8371 16.051 37.7145 15.6597 36.6171 15.6285C33.9945 15.3594 31.4505 17.1586 30.1145 17.1586C28.7518 17.1586 26.6945 15.6545 24.4771 15.6987C21.6238 15.7416 18.9545 17.3523 17.4905 19.8535C14.4691 24.9534 16.7225 32.4479 19.6171 36.5702C21.0651 38.5891 22.7571 40.8433 24.9718 40.764C27.1385 40.6769 27.9478 39.4172 30.5625 39.4172C33.1531 39.4172 33.9131 40.764 36.1718 40.7133C38.4971 40.6769 39.9611 38.6853 41.3585 36.6482C43.0318 34.3342 43.7038 32.0553 43.7305 31.9383C43.6758 31.9201 39.2145 30.26 39.1705 25.2381Z" fill="white"/>
<path d="M34.9038 12.9167C36.0691 11.4958 36.8665 9.56266 36.6451 7.60096C34.9585 7.67376 32.8491 8.73846 31.6345 10.1282C30.5598 11.3528 29.5998 13.36 29.8478 15.2476C31.7425 15.3854 33.6878 14.3155 34.9038 12.9167Z" fill="white"/>
<path d="M64.3997 12.5306C64.3997 14.0607 63.9291 15.2125 62.989 15.986C62.1184 16.6997 60.881 17.0572 59.2784 17.0572C58.4837 17.0572 57.8037 17.0234 57.2344 16.9558V8.59547C57.977 8.47847 58.777 8.41867 59.641 8.41867C61.1677 8.41867 62.3184 8.74237 63.0944 9.38977C63.9637 10.1217 64.3997 11.1682 64.3997 12.5306ZM62.9264 12.5683C62.9264 11.5764 62.657 10.8159 62.1184 10.2855C61.5797 9.75637 60.793 9.49117 59.757 9.49117C59.317 9.49117 58.9424 9.51977 58.6317 9.57957V15.9353C58.8037 15.9613 59.1184 15.973 59.5757 15.973C60.645 15.973 61.4704 15.6831 62.0517 15.1033C62.6331 14.5235 62.9264 13.6785 62.9264 12.5683Z" fill="white"/>
<path d="M72.2117 13.867C72.2117 14.8095 71.9357 15.5817 71.3837 16.1875C70.805 16.8102 70.0383 17.1209 69.081 17.1209C68.1583 17.1209 67.4237 16.8232 66.8757 16.2252C66.329 15.6285 66.0557 14.8758 66.0557 13.9684C66.0557 13.0194 66.337 12.2407 66.9023 11.6362C67.4677 11.0317 68.2277 10.7288 69.185 10.7288C70.1077 10.7288 70.849 11.0265 71.4103 11.6232C71.9437 12.203 72.2117 12.9518 72.2117 13.867ZM70.7623 13.9112C70.7623 13.3457 70.637 12.8608 70.3877 12.4565C70.0943 11.9677 69.677 11.7233 69.1343 11.7233C68.573 11.7233 68.1463 11.9677 67.853 12.4565C67.6023 12.8608 67.4783 13.3535 67.4783 13.9359C67.4783 14.5014 67.6037 14.9863 67.853 15.3906C68.1557 15.8794 68.577 16.1238 69.121 16.1238C69.6543 16.1238 70.073 15.8755 70.3743 15.3776C70.633 14.9655 70.7623 14.4767 70.7623 13.9112Z" fill="white"/>
<path d="M82.6867 10.8536L80.7201 16.9818H79.4401L78.6254 14.3207C78.4187 13.6564 78.2507 12.996 78.1201 12.3408H78.0947C77.9734 13.0142 77.8054 13.6733 77.5894 14.3207L76.7241 16.9818H75.4294L73.5801 10.8536H75.0161L75.7267 13.7669C75.8987 14.4559 76.0401 15.1124 76.1534 15.7338H76.1787C76.2827 15.2216 76.4547 14.569 76.6974 13.7799L77.5894 10.8549H78.7281L79.5827 13.7175C79.7894 14.4156 79.9574 15.0877 80.0867 15.7351H80.1254C80.2201 15.1046 80.3627 14.4325 80.5521 13.7175L81.3147 10.8549H82.6867V10.8536Z" fill="white"/>
<path d="M89.9302 16.9818H88.5329V13.4718C88.5329 12.3902 88.1116 11.8494 87.2662 11.8494C86.8516 11.8494 86.5169 11.9976 86.2569 12.2953C85.9996 12.593 85.8689 12.944 85.8689 13.3457V16.9805H84.4716V12.6047C84.4716 12.0665 84.4542 11.4828 84.4209 10.851H85.6489L85.7142 11.8091H85.7529C85.9156 11.5114 86.1582 11.2657 86.4769 11.0694C86.8556 10.8406 87.2796 10.7249 87.7436 10.7249C88.3302 10.7249 88.8182 10.9095 89.2062 11.28C89.6889 11.7337 89.9302 12.411 89.9302 13.3106V16.9818Z" fill="white"/>
<path d="M93.7837 16.9818H92.3877V8.04166H93.7837V16.9818Z" fill="white"/>
<path d="M102.01 13.867C102.01 14.8095 101.734 15.5817 101.182 16.1875C100.604 16.8102 99.8358 17.1209 98.8798 17.1209C97.9558 17.1209 97.2212 16.8232 96.6745 16.2252C96.1278 15.6285 95.8545 14.8758 95.8545 13.9684C95.8545 13.0194 96.1358 12.2407 96.7012 11.6362C97.2665 11.0317 98.0265 10.7288 98.9825 10.7288C99.9065 10.7288 100.646 11.0265 101.209 11.6232C101.742 12.203 102.01 12.9518 102.01 13.867ZM100.56 13.9112C100.56 13.3457 100.434 12.8608 100.185 12.4565C99.8932 11.9677 99.4745 11.7233 98.9332 11.7233C98.3705 11.7233 97.9438 11.9677 97.6518 12.4565C97.4012 12.8608 97.2772 13.3535 97.2772 13.9359C97.2772 14.5014 97.4025 14.9863 97.6518 15.3906C97.9545 15.8794 98.3758 16.1238 98.9198 16.1238C99.4532 16.1238 99.8705 15.8755 100.172 15.3776C100.432 14.9655 100.56 14.4767 100.56 13.9112Z" fill="white"/>
<path d="M108.773 16.9818H107.519L107.415 16.2759H107.376C106.947 16.8388 106.335 17.1209 105.54 17.1209C104.947 17.1209 104.467 16.935 104.105 16.5658C103.777 16.2304 103.613 15.8131 103.613 15.3178C103.613 14.569 103.933 13.9983 104.577 13.6031C105.22 13.2079 106.124 13.0142 107.288 13.0233V12.9089C107.288 12.1016 106.853 11.6986 105.983 11.6986C105.363 11.6986 104.816 11.8507 104.344 12.1523L104.06 11.2579C104.644 10.9056 105.365 10.7288 106.216 10.7288C107.859 10.7288 108.683 11.5738 108.683 13.2638V15.5206C108.683 16.1329 108.713 16.6204 108.773 16.9818ZM107.323 14.8758V13.9307C105.781 13.9047 105.011 14.3168 105.011 15.1657C105.011 15.4855 105.099 15.7247 105.279 15.8846C105.459 16.0445 105.688 16.1238 105.961 16.1238C106.268 16.1238 106.555 16.0289 106.816 15.8404C107.079 15.6506 107.24 15.4101 107.3 15.115C107.315 15.0487 107.323 14.9681 107.323 14.8758Z" fill="white"/>
<path d="M116.713 16.9818H115.473L115.408 15.9977H115.369C114.973 16.7465 114.298 17.1209 113.35 17.1209C112.593 17.1209 111.962 16.831 111.462 16.2512C110.962 15.6714 110.713 14.9187 110.713 13.9944C110.713 13.0025 110.984 12.1991 111.528 11.5855C112.054 11.0135 112.7 10.7275 113.468 10.7275C114.312 10.7275 114.902 11.0044 115.238 11.5595H115.265V8.04166H116.664V15.3308C116.664 15.9275 116.68 16.4774 116.713 16.9818ZM115.265 14.3974V13.3756C115.265 13.1988 115.252 13.0558 115.226 12.9466C115.148 12.619 114.978 12.3434 114.721 12.1211C114.461 11.8988 114.148 11.787 113.786 11.787C113.265 11.787 112.857 11.9885 112.557 12.3928C112.26 12.7971 112.109 13.3132 112.109 13.9437C112.109 14.5495 112.252 15.0409 112.538 15.4192C112.841 15.8222 113.249 16.0237 113.76 16.0237C114.218 16.0237 114.585 15.856 114.864 15.5193C115.133 15.2086 115.265 14.8342 115.265 14.3974Z" fill="white"/>
<path d="M128.664 13.867C128.664 14.8095 128.388 15.5817 127.836 16.1875C127.257 16.8102 126.492 17.1209 125.533 17.1209C124.612 17.1209 123.877 16.8232 123.328 16.2252C122.781 15.6285 122.508 14.8758 122.508 13.9684C122.508 13.0194 122.789 12.2407 123.354 11.6362C123.92 11.0317 124.68 10.7288 125.638 10.7288C126.56 10.7288 127.302 11.0265 127.862 11.6232C128.396 12.203 128.664 12.9518 128.664 13.867ZM127.216 13.9112C127.216 13.3457 127.09 12.8608 126.841 12.4565C126.546 11.9677 126.13 11.7233 125.586 11.7233C125.026 11.7233 124.6 11.9677 124.305 12.4565C124.054 12.8608 123.93 13.3535 123.93 13.9359C123.93 14.5014 124.056 14.9863 124.305 15.3906C124.608 15.8794 125.029 16.1238 125.573 16.1238C126.106 16.1238 126.526 15.8755 126.828 15.3776C127.085 14.9655 127.216 14.4767 127.216 13.9112Z" fill="white"/>
<path d="M136.177 16.9818H134.781V13.4718C134.781 12.3902 134.36 11.8494 133.513 11.8494C133.098 11.8494 132.764 11.9976 132.505 12.2953C132.246 12.593 132.117 12.944 132.117 13.3457V16.9805H130.718V12.6047C130.718 12.0665 130.702 11.4828 130.669 10.851H131.896L131.961 11.8091H132C132.164 11.5114 132.406 11.2657 132.724 11.0694C133.104 10.8406 133.526 10.7249 133.992 10.7249C134.577 10.7249 135.065 10.9095 135.453 11.28C135.937 11.7337 136.177 12.411 136.177 13.3106V16.9818Z" fill="white"/>
<path d="M145.581 11.8741H144.042V14.8511C144.042 15.6077 144.316 15.986 144.857 15.986C145.108 15.986 145.316 15.9652 145.48 15.9223L145.516 16.9558C145.24 17.0572 144.877 17.1079 144.43 17.1079C143.878 17.1079 143.449 16.9441 143.138 16.6165C142.826 16.2889 142.672 15.7377 142.672 14.9642V11.8741H141.753V10.8536H142.672V9.73038L144.041 9.32738V10.8523H145.58V11.8741H145.581Z" fill="white"/>
<path d="M152.978 16.9818H151.58V13.4978C151.58 12.3993 151.158 11.8494 150.314 11.8494C149.666 11.8494 149.224 12.1679 148.981 12.8049C148.94 12.9388 148.916 13.1026 148.916 13.295V16.9805H147.52V8.04166H148.916V11.735H148.942C149.382 11.0629 150.013 10.7275 150.83 10.7275C151.409 10.7275 151.888 10.9121 152.268 11.2826C152.741 11.7441 152.978 12.4305 152.978 13.3379V16.9818Z" fill="white"/>
<path d="M160.609 13.6278C160.609 13.8722 160.591 14.0776 160.557 14.2453H156.367C156.385 14.8511 156.585 15.3126 156.973 15.6324C157.328 15.9184 157.785 16.0614 158.345 16.0614C158.965 16.0614 159.531 15.9652 160.04 15.7715L160.259 16.7179C159.663 16.9701 158.961 17.0962 158.149 17.0962C157.176 17.0962 156.409 16.8167 155.855 16.2577C155.297 15.6987 155.021 14.9486 155.021 14.0074C155.021 13.0831 155.279 12.3135 155.797 11.6999C156.339 11.0447 157.071 10.7171 157.995 10.7171C158.899 10.7171 159.585 11.0447 160.049 11.6999C160.424 12.2199 160.609 12.8634 160.609 13.6278ZM159.276 13.2755C159.287 12.8712 159.195 12.5228 159.005 12.229C158.763 11.8507 158.393 11.6609 157.893 11.6609C157.437 11.6609 157.065 11.8455 156.781 12.216C156.549 12.5111 156.412 12.8634 156.367 13.2755H159.276Z" fill="white"/>
<path d="M70.5269 40.474H67.4989L65.8402 35.3923H60.0749L58.4949 40.474H55.5469L61.2589 23.1736H64.7869L70.5269 40.474ZM65.3402 33.2603L63.8402 28.7428C63.6815 28.2813 63.3842 27.1945 62.9455 25.4837H62.8922C62.7175 26.2195 62.4362 27.3063 62.0495 28.7428L60.5762 33.2603H65.3402Z" fill="white"/>
<path d="M85.2159 34.0833C85.2159 36.2049 84.6279 37.8819 83.4519 39.113C82.3985 40.2089 81.0905 40.7562 79.5292 40.7562C77.8439 40.7562 76.6332 40.166 75.8959 38.9856H75.8425V45.5571H72.9999V32.106C72.9999 30.7722 72.9639 29.4033 72.8945 27.9993H75.3945L75.5532 29.9766H75.6065C76.5545 28.4868 77.9932 27.7432 79.9239 27.7432C81.4332 27.7432 82.6932 28.3243 83.7012 29.4878C84.7119 30.6526 85.2159 32.184 85.2159 34.0833ZM82.3199 34.1847C82.3199 32.9705 82.0399 31.9695 81.4772 31.1817C80.8625 30.3601 80.0372 29.9493 79.0025 29.9493C78.3012 29.9493 77.6639 30.1781 77.0945 30.6292C76.5239 31.0842 76.1505 31.6783 75.9759 32.4141C75.8879 32.7573 75.8439 33.0381 75.8439 33.2591V35.3391C75.8439 36.2465 76.1292 37.0122 76.6999 37.6375C77.2705 38.2628 78.0119 38.5748 78.9239 38.5748C79.9945 38.5748 80.8279 38.1718 81.4239 37.3684C82.0212 36.5637 82.3199 35.5029 82.3199 34.1847Z" fill="white"/>
<path d="M99.9323 34.0833C99.9323 36.2049 99.3443 37.8819 98.167 39.113C97.115 40.2089 95.807 40.7562 94.2456 40.7562C92.5603 40.7562 91.3496 40.166 90.6136 38.9856H90.5603V45.5571H87.7176V32.106C87.7176 30.7722 87.6816 29.4033 87.6123 27.9993H90.1123L90.271 29.9766H90.3243C91.271 28.4868 92.7096 27.7432 94.6416 27.7432C96.1496 27.7432 97.4096 28.3243 98.4203 29.4878C99.427 30.6526 99.9323 32.184 99.9323 34.0833ZM97.0363 34.1847C97.0363 32.9705 96.755 31.9695 96.1923 31.1817C95.5776 30.3601 94.755 29.9493 93.719 29.9493C93.0163 29.9493 92.3803 30.1781 91.8096 30.6292C91.239 31.0842 90.867 31.6783 90.6923 32.4141C90.6056 32.7573 90.5603 33.0381 90.5603 33.2591V35.3391C90.5603 36.2465 90.8456 37.0122 91.4136 37.6375C91.9843 38.2615 92.7256 38.5748 93.6403 38.5748C94.711 38.5748 95.5443 38.1718 96.1403 37.3684C96.7376 36.5637 97.0363 35.5029 97.0363 34.1847Z" fill="white"/>
<path d="M116.386 35.6225C116.386 37.0941 115.862 38.2914 114.81 39.2157C113.654 40.2258 112.045 40.7302 109.977 40.7302C108.067 40.7302 106.537 40.3714 105.378 39.6525L106.037 37.3424C107.285 38.0782 108.654 38.4474 110.146 38.4474C111.217 38.4474 112.05 38.2108 112.649 37.7402C113.245 37.2696 113.542 36.6378 113.542 35.85C113.542 35.148 113.297 34.5565 112.805 34.0768C112.315 33.5971 111.498 33.1512 110.357 32.7391C107.25 31.6094 105.698 29.9545 105.698 27.7783C105.698 26.3561 106.242 25.19 107.331 24.2826C108.417 23.3739 109.865 22.9202 111.675 22.9202C113.29 22.9202 114.631 23.1945 115.702 23.7418L114.991 26.0012C113.991 25.4708 112.861 25.2056 111.595 25.2056C110.595 25.2056 109.814 25.4461 109.254 25.9245C108.781 26.3522 108.543 26.8735 108.543 27.491C108.543 28.1748 108.814 28.7403 109.358 29.1849C109.831 29.5957 110.691 30.0403 111.939 30.52C113.466 31.1193 114.587 31.82 115.309 32.6234C116.027 33.4242 116.386 34.4265 116.386 35.6225Z" fill="white"/>
<path d="M125.784 30.0792H122.651V36.1359C122.651 37.6764 123.203 38.446 124.31 38.446C124.818 38.446 125.239 38.4031 125.572 38.3173L125.651 40.422C125.091 40.6261 124.354 40.7288 123.44 40.7288C122.318 40.7288 121.44 40.3947 120.807 39.7278C120.176 39.0596 119.859 37.939 119.859 36.3647V30.0766H117.992V27.9966H119.859V25.7125L122.651 24.8909V27.9966H125.784V30.0792Z" fill="white"/>
<path d="M139.922 34.134C139.922 36.0515 139.359 37.6258 138.236 38.8569C137.059 40.1244 135.496 40.7562 133.548 40.7562C131.671 40.7562 130.176 40.1491 129.062 38.9349C127.947 37.7207 127.39 36.188 127.39 34.3407C127.39 32.4076 127.963 30.8242 129.114 29.5931C130.262 28.3607 131.811 27.7445 133.759 27.7445C135.636 27.7445 137.147 28.3516 138.287 29.5671C139.378 30.7462 139.922 32.2685 139.922 34.134ZM136.972 34.2237C136.972 33.0732 136.72 32.0865 136.21 31.2636C135.614 30.2678 134.762 29.7712 133.658 29.7712C132.515 29.7712 131.647 30.2691 131.051 31.2636C130.54 32.0878 130.288 33.0901 130.288 34.2757C130.288 35.4262 130.54 36.4129 131.051 37.2345C131.666 38.2303 132.524 38.7269 133.632 38.7269C134.718 38.7269 135.57 38.2199 136.184 37.2085C136.708 36.37 136.972 35.3729 136.972 34.2237Z" fill="white"/>
<path d="M149.162 30.4368C148.88 30.3861 148.58 30.3601 148.266 30.3601C147.266 30.3601 146.492 30.728 145.948 31.4651C145.475 32.1151 145.238 32.9367 145.238 33.9286V40.4741H142.396L142.423 31.9279C142.423 30.4901 142.387 29.181 142.316 28.0006H144.792L144.896 30.3874H144.975C145.275 29.5671 145.748 28.9067 146.396 28.4114C147.03 27.9655 147.714 27.7432 148.451 27.7432C148.714 27.7432 148.951 27.7614 149.162 27.7939V30.4368Z" fill="white"/>
<path d="M161.875 33.6465C161.875 34.1431 161.841 34.5617 161.771 34.9036H153.243C153.276 36.136 153.688 37.0785 154.48 37.7285C155.199 38.3096 156.128 38.6008 157.269 38.6008C158.532 38.6008 159.684 38.4045 160.72 38.0106L161.165 39.9346C159.955 40.4494 158.525 40.7055 156.876 40.7055C154.892 40.7055 153.335 40.1361 152.201 38.9986C151.071 37.8611 150.504 36.3336 150.504 34.4174C150.504 32.5363 151.031 30.9698 152.085 29.7205C153.189 28.3867 154.681 27.7198 156.559 27.7198C158.403 27.7198 159.799 28.3867 160.747 29.7205C161.497 30.78 161.875 32.0904 161.875 33.6465ZM159.164 32.9276C159.183 32.106 158.997 31.3962 158.612 30.7969C158.12 30.026 157.364 29.6412 156.347 29.6412C155.417 29.6412 154.661 30.0169 154.084 30.7709C153.611 31.3702 153.329 32.0891 153.243 32.9263H159.164V32.9276Z" fill="white"/>
</svg>
