<svg width="40" height="103" viewBox="0 0 40 103" fill="none" xmlns="http://www.w3.org/2000/svg">
<g clip-path="url(#clip0_808_439)">
<path d="M6.96667 40H11.818C12.269 39.9991 12.6988 39.8078 13.0013 39.4733L13.0047 39.47C16.6447 35.3907 17.6047 29.294 15.6987 22.3033C15.1823 20.4511 14.5175 18.6434 13.7107 16.898C12.7173 14.6367 12.082 13.146 12.3107 10.6827C12.3107 10.6767 12.3107 10.672 12.3107 10.6667V10.6607C12.4132 9.68691 12.5995 8.7238 12.8673 7.782C13.6293 4.982 13.4853 2.86333 12.4387 1.494C11.6997 0.563195 10.581 0.0144952 9.39267 -9.53674e-07C8.20428 0.0144001 7.08554 0.563119 6.34667 1.494C5.29933 2.86667 5.15533 4.97933 5.91733 7.782C7.12667 12.2273 6.354 13.9853 5.074 16.8987C4.26757 18.644 3.60276 20.4514 3.086 22.3033C1.18333 29.294 2.14 35.3907 5.78333 39.4727C6.08579 39.8074 6.51552 39.9989 6.96667 40V40ZM7.846 11.3333H10.9387C10.9109 12.2307 11.0044 13.1277 11.2167 14H7.568C7.78022 13.1277 7.87373 12.2307 7.846 11.3333ZM7.40533 2.304C7.89251 1.70358 8.6196 1.34845 9.39267 1.33333C10.1655 1.34846 10.8924 1.70361 11.3793 2.304C12.1493 3.31133 12.2193 5.08467 11.5793 7.43133C11.3439 8.27456 11.1657 9.13274 11.046 10H7.73333C7.61362 9.13274 7.43543 8.27456 7.2 7.43133C6.566 5.08467 6.63533 3.31133 7.40533 2.304V2.304ZM4.37267 22.6533C4.8728 20.8652 5.51552 19.12 6.29467 17.4347C6.61667 16.7013 6.916 16.02 7.16133 15.3333H11.62C11.8687 16.0193 12.1687 16.702 12.4907 17.4347C13.2698 19.12 13.9125 20.8652 14.4127 22.6533C16.218 29.288 15.3887 34.7947 12.0127 38.58C11.9626 38.6342 11.8925 38.6655 11.8187 38.6667H6.96667C6.89402 38.6657 6.82491 38.6351 6.77533 38.582C3.4 34.8 2.56666 29.2893 4.37267 22.6533Z" fill="black"/>
<path d="M7.782 37.3338C8.0361 37.3337 8.26802 37.1891 8.38001 36.961C8.492 36.7329 8.46459 36.461 8.30934 36.2598C5.33334 32.4005 5.92334 27.1118 6.94534 23.3545C7.02997 23.0039 6.82039 22.6495 6.47236 22.5548C6.12432 22.4601 5.76407 22.6593 5.65934 23.0045C4.55734 27.0532 3.93934 32.7805 7.254 37.0712C7.3796 37.236 7.57474 37.3331 7.782 37.3338V37.3338Z" fill="black"/>
<path d="M15.8449 16.3149C20.8129 12.1277 28.1435 12.3783 32.8139 16.8952C37.4843 21.4121 37.9798 28.7302 33.9608 33.8353C29.9419 38.9405 22.712 40.177 17.2249 36.6976C16.915 36.5091 16.5113 36.6029 16.3163 36.9087C16.1213 37.2146 16.2066 37.6202 16.5082 37.8216C22.5728 41.6692 30.5651 40.3035 35.0081 34.6606C39.451 29.0176 38.9031 20.928 33.74 15.9355C28.5768 10.9431 20.4733 10.6675 14.9829 15.2976C14.8012 15.4516 14.7154 15.6908 14.7579 15.9252C14.8004 16.1596 14.9647 16.3535 15.1889 16.4338C15.4131 16.5142 15.6632 16.4689 15.8449 16.3149V16.3149Z" fill="black"/>
<path d="M23.3333 36.6673C23.3333 37.0355 23.6318 37.334 24 37.334C30.2563 37.327 35.3263 32.257 35.3333 26.0007C35.3333 25.6325 35.0348 25.334 34.6667 25.334C34.2985 25.334 34 25.6325 34 26.0007C33.9937 31.5209 29.5202 35.9944 24 36.0007C23.8232 36.0007 23.6536 36.0709 23.5286 36.1959C23.4036 36.3209 23.3333 36.4905 23.3333 36.6673Z" fill="black"/>
<path d="M27.1927 16.526C26.4191 17.4406 26.5243 18.8071 27.4287 19.5927C27.889 20.0653 28.517 20.3374 29.1767 20.35C29.6675 20.3592 30.1416 20.1712 30.4927 19.828C31.2662 18.9134 31.1611 17.5469 30.2567 16.7613C29.471 15.8592 28.1069 15.7544 27.1927 16.526ZM29.55 18.8833C29.2987 19.134 28.75 19.024 28.3713 18.6473C27.9927 18.2707 27.8847 17.72 28.1353 17.4693C28.2365 17.3769 28.3705 17.3289 28.5073 17.336C28.8137 17.3525 29.1023 17.4853 29.314 17.7073C29.6907 18.0813 29.8 18.632 29.55 18.8833Z" fill="black"/>
<path d="M31.0771 23.905C31.5374 24.3776 32.1654 24.6497 32.8251 24.6623C33.3159 24.6715 33.79 24.4835 34.1411 24.1403C34.8286 23.2005 34.7283 21.8998 33.9049 21.0764C33.0816 20.253 31.7809 20.1528 30.8411 20.8403C30.0688 21.7546 30.174 23.1196 31.0771 23.905V23.905ZM31.7837 21.783C31.8851 21.6909 32.0189 21.6429 32.1557 21.6496C32.4621 21.6655 32.7508 21.7982 32.9624 22.0203C33.3391 22.397 33.4491 22.9476 33.1984 23.199C32.9477 23.4503 32.3984 23.339 32.0197 22.963C31.6411 22.587 31.5337 22.0343 31.7837 21.783V21.783Z" fill="black"/>
<path d="M26.0956 24.2565C26.5559 24.7292 27.184 25.0013 27.8436 25.0139C28.3345 25.0231 28.8085 24.835 29.1596 24.4919C29.8471 23.552 29.7469 22.2514 28.9235 21.428C28.1001 20.6046 26.7994 20.5044 25.8596 21.1919C25.0874 22.1062 25.1925 23.4712 26.0956 24.2565V24.2565ZM26.8003 22.1325C26.9014 22.0401 27.0354 21.9921 27.1723 21.9992C27.4787 22.0157 27.7672 22.1485 27.9789 22.3705C28.3556 22.7472 28.4656 23.2979 28.2149 23.5492C27.9643 23.8005 27.4149 23.6899 27.0363 23.3132C26.6576 22.9365 26.5516 22.3859 26.8003 22.1325Z" fill="black"/>
</g>
<g clip-path="url(#clip1_808_439)">
<path d="M6.96667 103H11.818C12.269 102.999 12.6988 102.808 13.0013 102.473L13.0047 102.47C16.6447 98.3907 17.6047 92.294 15.6987 85.3033C15.1823 83.4511 14.5175 81.6434 13.7107 79.898C12.7173 77.6367 12.082 76.146 12.3107 73.6827C12.3107 73.6767 12.3107 73.672 12.3107 73.6667V73.6607C12.4132 72.6869 12.5995 71.7238 12.8673 70.782C13.6293 67.982 13.4853 65.8633 12.4387 64.494C11.6997 63.5632 10.581 63.0145 9.39267 63C8.20428 63.0144 7.08554 63.5631 6.34667 64.494C5.29933 65.8667 5.15533 67.9793 5.91733 70.782C7.12667 75.2273 6.354 76.9853 5.074 79.8987C4.26757 81.644 3.60276 83.4514 3.086 85.3033C1.18333 92.294 2.14 98.3907 5.78333 102.473C6.08579 102.807 6.51552 102.999 6.96667 103V103ZM7.846 74.3333H10.9387C10.9109 75.2307 11.0044 76.1277 11.2167 77H7.568C7.78022 76.1277 7.87373 75.2307 7.846 74.3333ZM7.40533 65.304C7.89251 64.7036 8.6196 64.3484 9.39267 64.3333C10.1655 64.3485 10.8924 64.7036 11.3793 65.304C12.1493 66.3113 12.2193 68.0847 11.5793 70.4313C11.3439 71.2746 11.1657 72.1327 11.046 73H7.73333C7.61362 72.1327 7.43543 71.2746 7.2 70.4313C6.566 68.0847 6.63533 66.3113 7.40533 65.304V65.304ZM4.37267 85.6533C4.8728 83.8652 5.51552 82.12 6.29467 80.4347C6.61667 79.7013 6.916 79.02 7.16133 78.3333H11.62C11.8687 79.0193 12.1687 79.702 12.4907 80.4347C13.2698 82.12 13.9125 83.8652 14.4127 85.6533C16.218 92.288 15.3887 97.7947 12.0127 101.58C11.9626 101.634 11.8925 101.666 11.8187 101.667H6.96667C6.89402 101.666 6.82491 101.635 6.77533 101.582C3.4 97.8 2.56666 92.2893 4.37267 85.6533Z" fill="#2F85FE"/>
<path d="M7.782 100.334C8.0361 100.334 8.26802 100.189 8.38001 99.961C8.492 99.7329 8.46459 99.461 8.30934 99.2598C5.33334 95.4005 5.92334 90.1118 6.94534 86.3545C7.02997 86.0039 6.82039 85.6495 6.47236 85.5548C6.12432 85.4601 5.76407 85.6593 5.65934 86.0045C4.55734 90.0532 3.93934 95.7805 7.254 100.071C7.3796 100.236 7.57474 100.333 7.782 100.334V100.334Z" fill="#2F85FE"/>
<path d="M15.8449 79.3149C20.8129 75.1277 28.1435 75.3783 32.8139 79.8952C37.4843 84.4121 37.9798 91.7302 33.9608 96.8353C29.9419 101.941 22.712 103.177 17.2249 99.6976C16.915 99.5091 16.5113 99.6029 16.3163 99.9087C16.1213 100.215 16.2066 100.62 16.5082 100.822C22.5728 104.669 30.5651 103.304 35.0081 97.6606C39.451 92.0176 38.9031 83.928 33.74 78.9355C28.5768 73.9431 20.4733 73.6675 14.9829 78.2976C14.8012 78.4516 14.7154 78.6908 14.7579 78.9252C14.8004 79.1596 14.9647 79.3535 15.1889 79.4339C15.4131 79.5142 15.6632 79.4689 15.8449 79.3149V79.3149Z" fill="#2F85FE"/>
<path d="M23.3333 99.6673C23.3333 100.036 23.6318 100.334 24 100.334C30.2563 100.327 35.3263 95.257 35.3333 89.0007C35.3333 88.6325 35.0348 88.334 34.6667 88.334C34.2985 88.334 34 88.6325 34 89.0007C33.9937 94.5209 29.5202 98.9944 24 99.0007C23.8232 99.0007 23.6536 99.0709 23.5286 99.1959C23.4036 99.3209 23.3333 99.4905 23.3333 99.6673Z" fill="#2F85FE"/>
<path d="M27.1927 79.526C26.4191 80.4406 26.5243 81.8071 27.4287 82.5927C27.889 83.0653 28.517 83.3374 29.1767 83.35C29.6675 83.3592 30.1416 83.1712 30.4927 82.828C31.2662 81.9134 31.1611 80.5469 30.2567 79.7613C29.471 78.8592 28.1069 78.7544 27.1927 79.526ZM29.55 81.8833C29.2987 82.134 28.75 82.024 28.3713 81.6473C27.9927 81.2707 27.8847 80.72 28.1353 80.4693C28.2365 80.3769 28.3705 80.3289 28.5073 80.336C28.8137 80.3525 29.1023 80.4853 29.314 80.7073C29.6907 81.0813 29.8 81.632 29.55 81.8833Z" fill="#2F85FE"/>
<path d="M31.0771 86.905C31.5374 87.3776 32.1654 87.6497 32.8251 87.6623C33.3159 87.6715 33.79 87.4835 34.1411 87.1403C34.8286 86.2005 34.7283 84.8998 33.9049 84.0764C33.0816 83.253 31.7809 83.1528 30.8411 83.8403C30.0688 84.7546 30.174 86.1196 31.0771 86.905V86.905ZM31.7837 84.783C31.8851 84.6909 32.0189 84.6429 32.1557 84.6496C32.4621 84.6655 32.7508 84.7982 32.9624 85.0203C33.3391 85.397 33.4491 85.9476 33.1984 86.199C32.9477 86.4503 32.3984 86.339 32.0197 85.963C31.6411 85.587 31.5337 85.0343 31.7837 84.783V84.783Z" fill="#2F85FE"/>
<path d="M26.0956 87.2565C26.5559 87.7292 27.184 88.0013 27.8436 88.0139C28.3345 88.0231 28.8085 87.835 29.1596 87.4919C29.8471 86.552 29.7469 85.2514 28.9235 84.428C28.1001 83.6046 26.7994 83.5044 25.8596 84.1919C25.0874 85.1062 25.1925 86.4712 26.0956 87.2565V87.2565ZM26.8003 85.1325C26.9014 85.0401 27.0354 84.9921 27.1723 84.9992C27.4787 85.0157 27.7672 85.1485 27.9789 85.3705C28.3556 85.7472 28.4656 86.2979 28.2149 86.5492C27.9643 86.8005 27.4149 86.6899 27.0363 86.3132C26.6576 85.9365 26.5516 85.3859 26.8003 85.1325Z" fill="#2F85FE"/>
</g>
<defs>
<clipPath id="clip0_808_439">
<rect width="40" height="40" fill="white"/>
</clipPath>
<clipPath id="clip1_808_439">
<rect width="40" height="40" fill="white" transform="translate(0 63)"/>
</clipPath>
</defs>
</svg>
