<svg width="72" height="56" viewBox="0 0 72 56" fill="none" xmlns="http://www.w3.org/2000/svg">
<g clip-path="url(#clip0_23_4301)">
<path d="M8.15965 43.6524C8.25588 43.7247 8.81965 44.1394 9.7407 44.686V55.2993C9.7407 55.7963 10.1436 56.1995 10.6403 56.1995C11.1374 56.1995 11.5404 55.7964 11.5404 55.2993V45.6587C12.8284 46.2908 14.4268 46.9415 16.2305 47.4057V55.2993C16.2305 55.7964 16.6335 56.1995 17.1306 56.1995C17.6279 56.1995 18.0302 55.7962 18.0302 55.2993V47.7836C19.0197 47.9497 20.052 48.0536 21.1221 48.0536C21.5577 48.0536 21.9989 48.034 22.4426 47.9991V55.2993C22.4426 55.7964 22.8456 56.1995 23.3427 56.1995C23.84 56.1995 24.2423 55.7962 24.2423 55.2993V47.7608C25.6221 47.5012 27.0283 47.056 28.4358 46.3619L28.4358 46.3619C28.5323 46.3143 28.6266 46.2661 28.7193 46.2183V55.2993C28.7193 55.7964 29.1223 56.1995 29.6194 56.1995C30.1167 56.1995 30.519 55.7962 30.519 55.2993V45.2665C32.3596 44.2445 33.864 43.2527 35.2091 42.3279V55.2993C35.2091 55.7963 35.612 56.1995 36.1087 56.1995C36.6058 56.1995 37.0088 55.7964 37.0088 55.2993V41.0829C38.4903 40.0653 39.8503 39.1948 41.4211 38.5407V55.2993C41.4211 55.7963 41.8241 56.1995 42.3208 56.1995C42.8179 56.1995 43.2209 55.7964 43.2209 55.2993V37.9175C44.4936 37.5666 45.9466 37.3428 47.6978 37.2741V55.2999C47.6978 55.7975 48.1009 56.2 48.5975 56.2C49.0945 56.2 49.4976 55.7976 49.4976 55.2999V37.2734C51.1598 37.327 52.6486 37.5841 53.9745 37.9722V55.2993C53.9745 55.7962 54.3768 56.1995 54.8742 56.1995C55.3713 56.1995 55.7743 55.7964 55.7743 55.2993V38.6106C57.7046 39.4237 59.1988 40.4751 60.2844 41.4362V55.2993C60.2844 55.7963 60.6873 56.1995 61.184 56.1995C61.6811 56.1995 62.0841 55.7964 62.0841 55.2993V43.314C62.1825 43.4383 62.2646 43.5471 62.3305 43.6374C62.3971 43.7285 62.4472 43.8006 62.4811 43.8506C62.4981 43.8756 62.511 43.895 62.5198 43.9085L62.53 43.9242L62.5327 43.9286L62.533 43.929C62.5332 43.9293 62.5334 43.9296 62.5336 43.9299C62.7938 44.3515 63.3465 44.4821 63.7697 44.2247L63.7706 44.2241C64.1922 43.9643 64.3267 43.4126 64.0672 42.9885M8.15965 43.6524L8.27868 43.494L8.15967 43.6524C8.15966 43.6524 8.15966 43.6524 8.15965 43.6524ZM8.15965 43.6524C7.76202 43.3537 7.68254 42.7899 7.98038 42.3926L7.98064 42.3922C8.27978 41.995 8.84333 41.9152 9.24031 42.2126L9.24039 42.2126L9.24059 42.2128L9.24115 42.2132L9.24307 42.2146L9.24971 42.2195L9.27329 42.2366C9.29349 42.2512 9.32254 42.2719 9.36012 42.2982C9.43528 42.3509 9.54454 42.4259 9.68552 42.5189C9.96751 42.7049 10.3762 42.9624 10.8926 43.2559C11.9257 43.8431 13.3878 44.5732 15.1269 45.1623C18.6077 46.3413 23.1762 46.9492 27.6393 44.7476L27.7278 44.927L27.6393 44.7476C30.8688 43.1547 33.1222 41.5893 35.1187 40.2014L35.1187 40.2014C36.9861 38.9042 38.681 37.7283 40.744 36.8729C42.8069 36.0176 45.2294 35.4857 48.5592 35.4545C48.5694 35.4526 48.5824 35.4511 48.5975 35.4511C48.6097 35.4511 48.6207 35.4521 48.6301 35.4535C48.6608 35.4531 48.6911 35.4523 48.7231 35.4514L48.7309 35.4512C48.7722 35.4501 48.816 35.4489 48.8623 35.4489C59.332 35.4489 63.8686 42.6622 64.0672 42.9885M64.0672 42.9885L63.8964 43.0925L64.067 42.9881C64.0671 42.9882 64.0672 42.9884 64.0672 42.9885ZM48.5317 35.4611C48.5307 35.4614 48.5319 35.461 48.5333 35.4606L48.5317 35.4611ZM48.5809 35.4543L48.5791 35.4543L48.5809 35.4543Z" fill="black" stroke="black" stroke-width="0.4"/>
<mask id="path-2-outside-1_23_4301" maskUnits="userSpaceOnUse" x="7" y="-1" width="49" height="48" fill="black">
<rect fill="white" x="7" y="-1" width="49" height="48"/>
<path d="M10.9416 26.7042C11.5787 26.7042 12.1656 26.4953 12.6478 26.1493C13.1045 29.8262 14.587 33.2137 16.8439 35.9737C15.2732 36.0319 14.0107 37.319 14.0107 38.904C14.0107 40.5265 15.3304 41.8456 16.9523 41.8456C18.5614 41.8456 19.8698 40.5457 19.8901 38.9409C20.7232 39.594 21.6119 40.1788 22.5518 40.6904L20.8722 44.7503C20.7243 45.1076 20.8941 45.5172 21.2514 45.6651C21.3385 45.7009 21.4292 45.718 21.5184 45.718C21.7935 45.718 22.0541 45.5556 22.1657 45.2859L23.8074 41.3185C25.1991 41.9481 26.6774 42.4325 28.2352 42.7209C28.2779 42.7289 28.3212 42.7321 28.3634 42.7321C28.6939 42.7321 28.9882 42.4966 29.0507 42.1596C29.1212 41.7794 28.8702 41.4141 28.4899 41.3441C25.0293 40.7038 21.9681 39.0781 19.5446 36.8041L29.4512 26.8975C29.9094 27.2313 30.4408 27.4695 31.0181 27.5789V40.1185C31.0181 40.5051 31.3316 40.8181 31.7183 40.8181C32.1049 40.8181 32.4184 40.5051 32.4184 40.1185V27.588C33.0112 27.4849 33.5581 27.2489 34.028 26.9103L41.7275 34.6097C41.8642 34.7464 42.0431 34.8148 42.222 34.8148C42.4014 34.8148 42.5803 34.7464 42.7171 34.6097C42.9905 34.3363 42.9905 33.8936 42.7171 33.6201L35.0022 25.9047C35.2932 25.4694 35.4967 24.9722 35.5934 24.4382H49.6191C49.5 27.6201 48.5526 30.6978 46.8405 33.3777C46.6322 33.7029 46.7278 34.1355 47.0536 34.3438C47.3804 34.5526 47.8124 34.457 48.0202 34.1307C49.5679 31.7093 50.535 28.9851 50.8864 26.1477C51.3692 26.4943 51.9567 26.7042 52.5949 26.7042C54.2168 26.7042 55.5364 25.385 55.5364 23.7626C55.5364 22.1407 54.2168 20.8216 52.5949 20.8216C51.9577 20.8216 51.3719 21.0299 50.8896 21.3754C50.4667 17.9676 49.1566 14.8317 47.1903 12.2121C48.6044 11.9996 49.6966 10.7878 49.6966 9.31545C49.6966 7.69301 48.3769 6.3739 46.755 6.3739C45.3195 6.3739 44.1248 7.40942 43.869 8.77179C41.1363 6.56082 37.7899 5.0831 34.1285 4.63236C34.4676 4.15332 34.6716 3.57173 34.6716 2.94155C34.6716 1.31911 33.3519 0 31.73 0C30.1086 0 28.789 1.31911 28.789 2.94155C28.789 3.57547 28.9952 4.15919 29.338 4.64037C25.9281 5.07028 22.7921 6.38992 20.1742 8.36538C19.9852 6.92451 18.7627 5.80514 17.2711 5.80514C15.6497 5.80514 14.3301 7.12424 14.3301 8.74669C14.3301 10.2025 15.3955 11.4057 16.7862 11.6391C14.5731 14.3676 13.0927 17.7102 12.6372 21.3674C12.1565 21.0261 11.5739 20.8216 10.9416 20.8216C9.31964 20.8216 8 22.1407 8 23.7626C8 25.385 9.31964 26.7042 10.9416 26.7042ZM31.7482 26.2497C30.3629 26.2497 29.236 25.1234 29.236 23.738C29.236 22.3532 30.3629 21.2259 31.7482 21.2259C33.133 21.2259 34.2598 22.3532 34.2598 23.738C34.2598 25.1234 33.133 26.2497 31.7482 26.2497ZM27.9025 24.4382C27.9981 24.9648 28.1978 25.4555 28.4825 25.8865L18.5619 35.8071C15.7886 32.763 14.0759 28.7773 13.913 24.4382H27.9025ZM35.0022 21.5703L44.9109 11.6615C47.6933 14.6821 49.4488 18.6597 49.6245 23.0384H35.5934C35.4967 22.5038 35.2932 22.0061 35.0022 21.5703ZM34.0275 20.5652C33.5656 20.2325 33.0294 19.9981 32.4478 19.8923V5.89966C36.8708 6.06735 40.8858 7.84735 43.9229 10.6698L34.0275 20.5652ZM31.048 19.8923C30.459 19.9991 29.9169 20.2384 29.4512 20.5781L19.5724 10.6992C22.6063 7.86657 26.6218 6.07537 31.048 5.9002V19.8923ZM28.4825 21.5896C28.1978 22.0205 27.9981 22.5113 27.9025 23.0384H13.9013C14.0764 18.6747 15.8196 14.7088 18.5854 11.692L28.4825 21.5896ZM16.9523 40.4458C16.1026 40.4458 15.411 39.7537 15.411 38.904C15.411 38.0543 16.1026 37.3627 16.9523 37.3627C17.802 37.3627 18.4936 38.0543 18.4936 38.904C18.4936 39.7537 17.802 40.4458 16.9523 40.4458ZM52.5949 22.2213C53.4451 22.2213 54.1367 22.9129 54.1367 23.7626C54.1367 24.6123 53.4451 25.3044 52.5949 25.3044C51.7452 25.3044 51.0536 24.6123 51.0536 23.7626C51.0536 22.9129 51.7452 22.2213 52.5949 22.2213ZM46.755 7.77365C47.6052 7.77365 48.2968 8.46578 48.2968 9.31545C48.2968 10.1651 47.6052 10.8562 46.755 10.8562C45.9053 10.8562 45.2137 10.1651 45.2137 9.31545C45.2137 8.46578 45.9053 7.77365 46.755 7.77365ZM31.73 1.39975C32.5797 1.39975 33.2713 2.09188 33.2713 2.94155C33.2713 3.79123 32.5797 4.48229 31.73 4.48229C30.8804 4.48229 30.1893 3.79123 30.1893 2.94155C30.1893 2.09188 30.8804 1.39975 31.73 1.39975ZM15.7304 8.74669C15.7304 7.89701 16.4215 7.20488 17.2711 7.20488C18.1213 7.20488 18.8129 7.89701 18.8129 8.74669C18.8129 9.59636 18.1213 10.288 17.2711 10.288C16.4215 10.288 15.7304 9.59636 15.7304 8.74669ZM10.9416 22.2213C11.7912 22.2213 12.4828 22.9129 12.4828 23.7626C12.4828 24.6123 11.7912 25.3044 10.9416 25.3044C10.0919 25.3044 9.40028 24.6123 9.40028 23.7626C9.40028 22.9129 10.0919 22.2213 10.9416 22.2213Z"/>
</mask>
<path d="M10.9416 26.7042C11.5787 26.7042 12.1656 26.4953 12.6478 26.1493C13.1045 29.8262 14.587 33.2137 16.8439 35.9737C15.2732 36.0319 14.0107 37.319 14.0107 38.904C14.0107 40.5265 15.3304 41.8456 16.9523 41.8456C18.5614 41.8456 19.8698 40.5457 19.8901 38.9409C20.7232 39.594 21.6119 40.1788 22.5518 40.6904L20.8722 44.7503C20.7243 45.1076 20.8941 45.5172 21.2514 45.6651C21.3385 45.7009 21.4292 45.718 21.5184 45.718C21.7935 45.718 22.0541 45.5556 22.1657 45.2859L23.8074 41.3185C25.1991 41.9481 26.6774 42.4325 28.2352 42.7209C28.2779 42.7289 28.3212 42.7321 28.3634 42.7321C28.6939 42.7321 28.9882 42.4966 29.0507 42.1596C29.1212 41.7794 28.8702 41.4141 28.4899 41.3441C25.0293 40.7038 21.9681 39.0781 19.5446 36.8041L29.4512 26.8975C29.9094 27.2313 30.4408 27.4695 31.0181 27.5789V40.1185C31.0181 40.5051 31.3316 40.8181 31.7183 40.8181C32.1049 40.8181 32.4184 40.5051 32.4184 40.1185V27.588C33.0112 27.4849 33.5581 27.2489 34.028 26.9103L41.7275 34.6097C41.8642 34.7464 42.0431 34.8148 42.222 34.8148C42.4014 34.8148 42.5803 34.7464 42.7171 34.6097C42.9905 34.3363 42.9905 33.8936 42.7171 33.6201L35.0022 25.9047C35.2932 25.4694 35.4967 24.9722 35.5934 24.4382H49.6191C49.5 27.6201 48.5526 30.6978 46.8405 33.3777C46.6322 33.7029 46.7278 34.1355 47.0536 34.3438C47.3804 34.5526 47.8124 34.457 48.0202 34.1307C49.5679 31.7093 50.535 28.9851 50.8864 26.1477C51.3692 26.4943 51.9567 26.7042 52.5949 26.7042C54.2168 26.7042 55.5364 25.385 55.5364 23.7626C55.5364 22.1407 54.2168 20.8216 52.5949 20.8216C51.9577 20.8216 51.3719 21.0299 50.8896 21.3754C50.4667 17.9676 49.1566 14.8317 47.1903 12.2121C48.6044 11.9996 49.6966 10.7878 49.6966 9.31545C49.6966 7.69301 48.3769 6.3739 46.755 6.3739C45.3195 6.3739 44.1248 7.40942 43.869 8.77179C41.1363 6.56082 37.7899 5.0831 34.1285 4.63236C34.4676 4.15332 34.6716 3.57173 34.6716 2.94155C34.6716 1.31911 33.3519 0 31.73 0C30.1086 0 28.789 1.31911 28.789 2.94155C28.789 3.57547 28.9952 4.15919 29.338 4.64037C25.9281 5.07028 22.7921 6.38992 20.1742 8.36538C19.9852 6.92451 18.7627 5.80514 17.2711 5.80514C15.6497 5.80514 14.3301 7.12424 14.3301 8.74669C14.3301 10.2025 15.3955 11.4057 16.7862 11.6391C14.5731 14.3676 13.0927 17.7102 12.6372 21.3674C12.1565 21.0261 11.5739 20.8216 10.9416 20.8216C9.31964 20.8216 8 22.1407 8 23.7626C8 25.385 9.31964 26.7042 10.9416 26.7042ZM31.7482 26.2497C30.3629 26.2497 29.236 25.1234 29.236 23.738C29.236 22.3532 30.3629 21.2259 31.7482 21.2259C33.133 21.2259 34.2598 22.3532 34.2598 23.738C34.2598 25.1234 33.133 26.2497 31.7482 26.2497ZM27.9025 24.4382C27.9981 24.9648 28.1978 25.4555 28.4825 25.8865L18.5619 35.8071C15.7886 32.763 14.0759 28.7773 13.913 24.4382H27.9025ZM35.0022 21.5703L44.9109 11.6615C47.6933 14.6821 49.4488 18.6597 49.6245 23.0384H35.5934C35.4967 22.5038 35.2932 22.0061 35.0022 21.5703ZM34.0275 20.5652C33.5656 20.2325 33.0294 19.9981 32.4478 19.8923V5.89966C36.8708 6.06735 40.8858 7.84735 43.9229 10.6698L34.0275 20.5652ZM31.048 19.8923C30.459 19.9991 29.9169 20.2384 29.4512 20.5781L19.5724 10.6992C22.6063 7.86657 26.6218 6.07537 31.048 5.9002V19.8923ZM28.4825 21.5896C28.1978 22.0205 27.9981 22.5113 27.9025 23.0384H13.9013C14.0764 18.6747 15.8196 14.7088 18.5854 11.692L28.4825 21.5896ZM16.9523 40.4458C16.1026 40.4458 15.411 39.7537 15.411 38.904C15.411 38.0543 16.1026 37.3627 16.9523 37.3627C17.802 37.3627 18.4936 38.0543 18.4936 38.904C18.4936 39.7537 17.802 40.4458 16.9523 40.4458ZM52.5949 22.2213C53.4451 22.2213 54.1367 22.9129 54.1367 23.7626C54.1367 24.6123 53.4451 25.3044 52.5949 25.3044C51.7452 25.3044 51.0536 24.6123 51.0536 23.7626C51.0536 22.9129 51.7452 22.2213 52.5949 22.2213ZM46.755 7.77365C47.6052 7.77365 48.2968 8.46578 48.2968 9.31545C48.2968 10.1651 47.6052 10.8562 46.755 10.8562C45.9053 10.8562 45.2137 10.1651 45.2137 9.31545C45.2137 8.46578 45.9053 7.77365 46.755 7.77365ZM31.73 1.39975C32.5797 1.39975 33.2713 2.09188 33.2713 2.94155C33.2713 3.79123 32.5797 4.48229 31.73 4.48229C30.8804 4.48229 30.1893 3.79123 30.1893 2.94155C30.1893 2.09188 30.8804 1.39975 31.73 1.39975ZM15.7304 8.74669C15.7304 7.89701 16.4215 7.20488 17.2711 7.20488C18.1213 7.20488 18.8129 7.89701 18.8129 8.74669C18.8129 9.59636 18.1213 10.288 17.2711 10.288C16.4215 10.288 15.7304 9.59636 15.7304 8.74669ZM10.9416 22.2213C11.7912 22.2213 12.4828 22.9129 12.4828 23.7626C12.4828 24.6123 11.7912 25.3044 10.9416 25.3044C10.0919 25.3044 9.40028 24.6123 9.40028 23.7626C9.40028 22.9129 10.0919 22.2213 10.9416 22.2213Z" fill="black"/>
<path d="M10.9416 26.7042C11.5787 26.7042 12.1656 26.4953 12.6478 26.1493C13.1045 29.8262 14.587 33.2137 16.8439 35.9737C15.2732 36.0319 14.0107 37.319 14.0107 38.904C14.0107 40.5265 15.3304 41.8456 16.9523 41.8456C18.5614 41.8456 19.8698 40.5457 19.8901 38.9409C20.7232 39.594 21.6119 40.1788 22.5518 40.6904L20.8722 44.7503C20.7243 45.1076 20.8941 45.5172 21.2514 45.6651C21.3385 45.7009 21.4292 45.718 21.5184 45.718C21.7935 45.718 22.0541 45.5556 22.1657 45.2859L23.8074 41.3185C25.1991 41.9481 26.6774 42.4325 28.2352 42.7209C28.2779 42.7289 28.3212 42.7321 28.3634 42.7321C28.6939 42.7321 28.9882 42.4966 29.0507 42.1596C29.1212 41.7794 28.8702 41.4141 28.4899 41.3441C25.0293 40.7038 21.9681 39.0781 19.5446 36.8041L29.4512 26.8975C29.9094 27.2313 30.4408 27.4695 31.0181 27.5789V40.1185C31.0181 40.5051 31.3316 40.8181 31.7183 40.8181C32.1049 40.8181 32.4184 40.5051 32.4184 40.1185V27.588C33.0112 27.4849 33.5581 27.2489 34.028 26.9103L41.7275 34.6097C41.8642 34.7464 42.0431 34.8148 42.222 34.8148C42.4014 34.8148 42.5803 34.7464 42.7171 34.6097C42.9905 34.3363 42.9905 33.8936 42.7171 33.6201L35.0022 25.9047C35.2932 25.4694 35.4967 24.9722 35.5934 24.4382H49.6191C49.5 27.6201 48.5526 30.6978 46.8405 33.3777C46.6322 33.7029 46.7278 34.1355 47.0536 34.3438C47.3804 34.5526 47.8124 34.457 48.0202 34.1307C49.5679 31.7093 50.535 28.9851 50.8864 26.1477C51.3692 26.4943 51.9567 26.7042 52.5949 26.7042C54.2168 26.7042 55.5364 25.385 55.5364 23.7626C55.5364 22.1407 54.2168 20.8216 52.5949 20.8216C51.9577 20.8216 51.3719 21.0299 50.8896 21.3754C50.4667 17.9676 49.1566 14.8317 47.1903 12.2121C48.6044 11.9996 49.6966 10.7878 49.6966 9.31545C49.6966 7.69301 48.3769 6.3739 46.755 6.3739C45.3195 6.3739 44.1248 7.40942 43.869 8.77179C41.1363 6.56082 37.7899 5.0831 34.1285 4.63236C34.4676 4.15332 34.6716 3.57173 34.6716 2.94155C34.6716 1.31911 33.3519 0 31.73 0C30.1086 0 28.789 1.31911 28.789 2.94155C28.789 3.57547 28.9952 4.15919 29.338 4.64037C25.9281 5.07028 22.7921 6.38992 20.1742 8.36538C19.9852 6.92451 18.7627 5.80514 17.2711 5.80514C15.6497 5.80514 14.3301 7.12424 14.3301 8.74669C14.3301 10.2025 15.3955 11.4057 16.7862 11.6391C14.5731 14.3676 13.0927 17.7102 12.6372 21.3674C12.1565 21.0261 11.5739 20.8216 10.9416 20.8216C9.31964 20.8216 8 22.1407 8 23.7626C8 25.385 9.31964 26.7042 10.9416 26.7042ZM31.7482 26.2497C30.3629 26.2497 29.236 25.1234 29.236 23.738C29.236 22.3532 30.3629 21.2259 31.7482 21.2259C33.133 21.2259 34.2598 22.3532 34.2598 23.738C34.2598 25.1234 33.133 26.2497 31.7482 26.2497ZM27.9025 24.4382C27.9981 24.9648 28.1978 25.4555 28.4825 25.8865L18.5619 35.8071C15.7886 32.763 14.0759 28.7773 13.913 24.4382H27.9025ZM35.0022 21.5703L44.9109 11.6615C47.6933 14.6821 49.4488 18.6597 49.6245 23.0384H35.5934C35.4967 22.5038 35.2932 22.0061 35.0022 21.5703ZM34.0275 20.5652C33.5656 20.2325 33.0294 19.9981 32.4478 19.8923V5.89966C36.8708 6.06735 40.8858 7.84735 43.9229 10.6698L34.0275 20.5652ZM31.048 19.8923C30.459 19.9991 29.9169 20.2384 29.4512 20.5781L19.5724 10.6992C22.6063 7.86657 26.6218 6.07537 31.048 5.9002V19.8923ZM28.4825 21.5896C28.1978 22.0205 27.9981 22.5113 27.9025 23.0384H13.9013C14.0764 18.6747 15.8196 14.7088 18.5854 11.692L28.4825 21.5896ZM16.9523 40.4458C16.1026 40.4458 15.411 39.7537 15.411 38.904C15.411 38.0543 16.1026 37.3627 16.9523 37.3627C17.802 37.3627 18.4936 38.0543 18.4936 38.904C18.4936 39.7537 17.802 40.4458 16.9523 40.4458ZM52.5949 22.2213C53.4451 22.2213 54.1367 22.9129 54.1367 23.7626C54.1367 24.6123 53.4451 25.3044 52.5949 25.3044C51.7452 25.3044 51.0536 24.6123 51.0536 23.7626C51.0536 22.9129 51.7452 22.2213 52.5949 22.2213ZM46.755 7.77365C47.6052 7.77365 48.2968 8.46578 48.2968 9.31545C48.2968 10.1651 47.6052 10.8562 46.755 10.8562C45.9053 10.8562 45.2137 10.1651 45.2137 9.31545C45.2137 8.46578 45.9053 7.77365 46.755 7.77365ZM31.73 1.39975C32.5797 1.39975 33.2713 2.09188 33.2713 2.94155C33.2713 3.79123 32.5797 4.48229 31.73 4.48229C30.8804 4.48229 30.1893 3.79123 30.1893 2.94155C30.1893 2.09188 30.8804 1.39975 31.73 1.39975ZM15.7304 8.74669C15.7304 7.89701 16.4215 7.20488 17.2711 7.20488C18.1213 7.20488 18.8129 7.89701 18.8129 8.74669C18.8129 9.59636 18.1213 10.288 17.2711 10.288C16.4215 10.288 15.7304 9.59636 15.7304 8.74669ZM10.9416 22.2213C11.7912 22.2213 12.4828 22.9129 12.4828 23.7626C12.4828 24.6123 11.7912 25.3044 10.9416 25.3044C10.0919 25.3044 9.40028 24.6123 9.40028 23.7626C9.40028 22.9129 10.0919 22.2213 10.9416 22.2213Z" stroke="black" stroke-width="0.8" mask="url(#path-2-outside-1_23_4301)"/>
</g>
<defs>
<clipPath id="clip0_23_4301">
<rect width="72" height="56" fill="white"/>
</clipPath>
</defs>
</svg>
