<svg width="55" height="55" viewBox="0 0 55 55" fill="none" xmlns="http://www.w3.org/2000/svg">
<rect width="55" height="55" fill="white"/>
<path d="M0.807906 6.47363H0V45.1992C0 46.5951 1.13559 47.7306 2.53144 47.7306C3.92728 47.7306 5.06289 46.5951 5.06289 45.1992V31.7335C6.17678 30.5017 6.78638 28.9226 6.78638 27.25V12.4521C6.78638 9.15555 4.10445 6.47363 0.807906 6.47363ZM3.44706 45.1992C3.40591 46.407 1.65987 46.4144 1.61581 45.1992V31.411C1.61581 30.9061 2.02655 30.4953 2.53144 30.4953C3.03632 30.4953 3.44706 30.9061 3.44706 31.411V45.1992ZM5.17055 27.25C5.17055 28.1612 4.93207 29.0357 4.48476 29.8024C3.85145 28.9915 2.59897 28.6429 1.61581 29.0507V8.16442C3.63668 8.54435 5.17055 10.3225 5.17055 12.4521V27.25Z" fill="black"/>
<path d="M48.2454 11.5489C39.604 2.54399 24.0573 2.54313 15.4162 11.5491C6.17082 20.4853 6.45538 36.31 15.9843 44.9273L17.0874 43.7468C12.7869 39.7277 10.2969 34.0697 10.2341 28.1918L15.5222 33.4799C15.1893 40.4579 21.0603 46.3286 28.0381 45.9958L31.6029 49.5604C26.8211 49.5118 22.3106 47.9351 18.5451 44.9931L17.5503 46.2664C26.4333 53.4547 40.3055 52.6058 48.2454 44.378C57.2507 35.7378 57.2511 20.1893 48.2454 11.5489ZM53.4275 27.7354L49.0012 23.3088C49.3344 16.3308 43.4631 10.4603 36.4853 10.793L32.059 6.36678C43.7876 6.48893 53.3055 16.0069 53.4275 27.7354ZM31.6027 6.36678L24.6788 13.2907C21.4149 14.8847 18.752 17.5474 17.158 20.8114L10.2342 27.7352C10.3562 16.0068 19.8742 6.48893 31.6027 6.36678ZM12.291 27.9636L31.8309 8.42371L34.4581 11.051C29.7573 12.0601 26.0246 15.8158 25.1698 20.7152L26.7615 20.9929C27.6305 16.0128 31.937 12.398 37.0014 12.398C49.2778 12.6865 51.2529 29.695 39.4824 32.8895C39.2479 30.3334 38.2091 28.0067 36.6221 26.165C41.3638 26.4647 41.7466 19.6315 37.0014 19.3997C34.7873 19.3648 33.1033 21.6076 33.7374 23.7214C32.6217 23.0439 31.3875 22.5432 30.0739 22.2578C30.3479 18.6758 33.3502 15.8449 37.0014 15.8449C44.3041 15.8999 46.6136 25.7395 40.089 29.019L40.8081 30.4662C48.8512 26.4207 45.999 14.2963 37.0014 14.2292C32.5391 14.2292 28.863 17.6599 28.4722 22.0223C22.4389 21.5135 16.9836 25.7341 15.7819 31.4543L12.291 27.9636ZM35.224 22.793C35.224 21.8129 36.0214 21.0156 37.0014 21.0156C39.3562 21.105 39.3554 24.4813 37.0014 24.5704C36.0214 24.5704 35.224 23.7729 35.224 22.793ZM17.127 33.9959C17.127 28.2641 21.7902 23.6009 27.522 23.6009C41.2936 24.1235 41.2898 43.8705 27.5219 44.391C21.7902 44.391 17.127 39.7277 17.127 33.9959ZM39.5208 34.5388C44.0348 33.626 47.8201 29.8495 48.7407 25.3335L51.3707 27.9635L31.8309 47.5034L30.0636 45.7361C35.299 44.6038 39.2745 40.0483 39.5208 34.5388ZM32.059 49.5603L38.9829 42.6364C42.2468 41.0424 44.9096 38.3798 46.5037 35.1157L53.4275 28.1918C53.3055 39.9202 43.7876 49.4382 32.059 49.5603Z" fill="black"/>
<path d="M27.5228 27.0484V25.4326C22.8007 25.4326 18.959 29.2742 18.959 33.9964H20.5748C20.5748 30.1652 23.6917 27.0484 27.5228 27.0484Z" fill="black"/>
<path d="M27.5231 30.6025C25.6521 30.6025 24.1299 32.1247 24.1299 33.9957C24.3006 38.4911 30.7464 38.4898 30.9163 33.9957C30.9163 32.1246 29.3941 30.6025 27.5231 30.6025ZM27.5231 35.7731C26.543 35.7731 25.7457 34.9758 25.7457 33.9957C25.8352 31.6411 29.2114 31.6417 29.3005 33.9957C29.3005 34.9757 28.5031 35.7731 27.5231 35.7731Z" fill="black"/>
<path d="M26.6611 40.082H28.3847V41.6979H26.6611V40.082Z" fill="black"/>
<path d="M32.6934 37.4971H34.4168V39.1128H32.6934V37.4971Z" fill="black"/>
<path d="M33.5547 32.3271H35.2783V33.943H33.5547V32.3271Z" fill="black"/>
<path d="M30.1084 27.1553H31.832V28.7711H30.1084V27.1553Z" fill="black"/>
<path d="M21.4902 37.4971H23.2138V39.1128H21.4902V37.4971Z" fill="black"/>
</svg>
