<svg width="575" height="98" viewBox="0 0 575 98" fill="none" xmlns="http://www.w3.org/2000/svg">
<g filter="url(#filter0_d_815_419)">
<mask id="path-1-inside-1_815_419" fill="white">
<path fill-rule="evenodd" clip-rule="evenodd" d="M2 18C2 12.4772 6.47715 8 12 8H563C568.523 8 573 12.4772 573 18V41C567.477 41 563 45.4772 563 51C563 56.5228 567.477 61 573 61V84C573 89.5229 568.523 94 563 94H12C6.47716 94 2 89.5229 2 84V61.0001C7.52285 61.0001 12 56.523 12 51.0001C12 45.4773 7.52285 41.0001 2 41.0001V18Z"/>
</mask>
<path fill-rule="evenodd" clip-rule="evenodd" d="M2 18C2 12.4772 6.47715 8 12 8H563C568.523 8 573 12.4772 573 18V41C567.477 41 563 45.4772 563 51C563 56.5228 567.477 61 573 61V84C573 89.5229 568.523 94 563 94H12C6.47716 94 2 89.5229 2 84V61.0001C7.52285 61.0001 12 56.523 12 51.0001C12 45.4773 7.52285 41.0001 2 41.0001V18Z" fill="url(#paint0_linear_815_419)"/>
<path d="M573 41V42H574V41H573ZM573 61H574V60H573V61ZM2 61.0001V60.0001H1V61.0001H2ZM2 41.0001H1V42.0001H2V41.0001ZM12 7C5.92487 7 1 11.9249 1 18H3C3 13.0294 7.02944 9 12 9V7ZM563 7H12V9H563V7ZM574 18C574 11.9249 569.075 7 563 7V9C567.971 9 572 13.0294 572 18H574ZM574 41V18H572V41H574ZM564 51C564 46.0294 568.029 42 573 42V40C566.925 40 562 44.9249 562 51H564ZM573 60C568.029 60 564 55.9706 564 51H562C562 57.0751 566.925 62 573 62V60ZM574 84V61H572V84H574ZM563 95C569.075 95 574 90.0751 574 84H572C572 88.9706 567.971 93 563 93V95ZM12 95H563V93H12V95ZM1 84C1 90.0751 5.92488 95 12 95V93C7.02945 93 3 88.9706 3 84H1ZM1 61.0001V84H3V61.0001H1ZM11 51.0001C11 55.9707 6.97056 60.0001 2 60.0001V62.0001C8.07513 62.0001 13 57.0753 13 51.0001H11ZM2 42.0001C6.97056 42.0001 11 46.0296 11 51.0001H13C13 44.925 8.07513 40.0001 2 40.0001V42.0001ZM1 18V41.0001H3V18H1Z" fill="#B883D7" mask="url(#path-1-inside-1_815_419)"/>
</g>
<path fill-rule="evenodd" clip-rule="evenodd" d="M73.0426 50.0419C72.512 50.0419 72.0824 50.4707 72.0824 51C72.0824 53.847 71.5264 56.6082 70.4273 59.2067C69.3646 61.7167 67.8457 63.9712 65.9084 65.9085C63.9711 67.8458 61.7167 69.3647 59.2066 70.4274C56.6081 71.5265 53.8469 72.0825 50.9999 72.0825C48.1529 72.0825 45.3917 71.5265 42.7939 70.4274C40.2839 69.3647 38.0287 67.8458 36.0914 65.9085C34.1548 63.9713 32.6345 61.7167 31.5725 59.2067C30.474 56.6082 29.9167 53.847 29.9167 51C29.9167 48.153 30.474 45.3918 31.5725 42.794C32.6345 40.2833 34.1548 38.0288 36.0914 36.0915C38.0286 34.1549 40.2839 32.6346 42.7939 31.5726C45.3917 30.4735 48.1529 29.9168 50.9999 29.9168C53.8469 29.9168 56.6081 30.4734 59.2066 31.5726C61.5285 32.5553 63.6342 33.9318 65.4704 35.6668H61.9525C61.4247 35.6668 60.9951 36.0956 60.9951 36.6249C60.9951 37.1542 61.4247 37.583 61.9525 37.583H67.7025C68.2331 37.583 68.6627 37.1542 68.6627 36.6249V30.875C68.6627 30.3457 68.2332 29.9169 67.7025 29.9169C67.1747 29.9169 66.7451 30.3457 66.7451 30.875V34.235C62.6292 30.3682 57.0925 28 51 28C38.2976 28 28 38.2976 28 51C28 63.7017 38.2976 74 51 74C63.7017 74 74 63.7017 74 51C74 50.4707 73.5705 50.0419 73.0426 50.0419ZM37.583 41.4169V49.0831V56.75H64.4175V49.0831V41.4169H37.583ZM62.4999 49.0831V54.8323H39.4999V49.0831V43.3331H62.4999V49.0831ZM46.1914 49.0235C46.1914 46.3773 48.3364 44.2316 50.9833 44.2316C53.6295 44.2316 55.7745 46.3773 55.7745 49.0235C55.7745 51.6696 53.6295 53.8161 50.9833 53.8161C48.3365 53.8161 46.1914 51.6696 46.1914 49.0235ZM48.1083 49.0235C48.1083 50.6084 49.3977 51.8985 50.9833 51.8985C52.5682 51.8985 53.8583 50.6084 53.8583 49.0235C53.8583 47.4379 52.5682 46.1485 50.9833 46.1485C49.3977 46.1485 48.1083 47.4379 48.1083 49.0235ZM63.4573 57.7074H38.5418C38.0126 57.7074 37.583 58.1369 37.583 58.6676C37.583 59.1955 38.0126 59.625 38.5418 59.625H63.4573C63.9879 59.625 64.4175 59.1955 64.4175 58.6676C64.4175 58.137 63.9879 57.7074 63.4573 57.7074ZM38.5418 60.5824H63.4573C63.9879 60.5824 64.4175 61.012 64.4175 61.5426C64.4175 62.0705 63.9879 62.5 63.4573 62.5H38.5418C38.0126 62.5 37.583 62.0705 37.583 61.5426C37.583 61.0119 38.0126 60.5824 38.5418 60.5824Z" fill="white"/>
<path d="M118.594 58H123.368V56.779H121.674V50.19H120.431L118.473 52.071L119.309 52.951L119.936 52.357C120.189 52.104 120.277 51.917 120.277 51.917H120.299C120.299 51.917 120.288 52.181 120.288 52.445V56.779H118.594V58ZM127.074 60.2H128.471V57.846C128.471 57.56 128.449 57.362 128.449 57.362H128.471C128.471 57.362 128.966 58.132 130.077 58.132C131.551 58.132 132.64 56.977 132.64 55.195C132.64 53.457 131.672 52.258 130.154 52.258C128.834 52.258 128.35 53.182 128.35 53.182H128.328C128.328 53.182 128.35 53.006 128.35 52.797V52.39H127.074V60.2ZM128.427 55.228C128.427 53.985 129.109 53.457 129.835 53.457C130.66 53.457 131.232 54.15 131.232 55.217C131.232 56.328 130.594 56.955 129.824 56.955C128.9 56.955 128.427 56.097 128.427 55.228ZM133.402 55.195C133.402 56.79 134.557 58.132 136.416 58.132C137.813 58.132 138.671 57.329 138.671 57.329L138.132 56.328C138.132 56.328 137.417 56.944 136.515 56.944C135.679 56.944 134.92 56.438 134.832 55.459H138.704C138.704 55.459 138.737 55.085 138.737 54.92C138.737 53.435 137.868 52.258 136.251 52.258C134.579 52.258 133.402 53.468 133.402 55.195ZM134.876 54.502C135.008 53.776 135.503 53.336 136.218 53.336C136.834 53.336 137.307 53.743 137.329 54.502H134.876ZM139.471 55.195C139.471 56.922 140.846 58.132 142.562 58.132C144.267 58.132 145.642 56.922 145.642 55.195C145.642 53.479 144.267 52.258 142.551 52.258C140.846 52.258 139.471 53.479 139.471 55.195ZM140.89 55.195C140.89 54.161 141.649 53.446 142.562 53.446C143.464 53.446 144.223 54.161 144.223 55.195C144.223 56.24 143.464 56.944 142.562 56.944C141.649 56.944 140.89 56.24 140.89 55.195ZM146.764 60.2H148.161V57.846C148.161 57.56 148.139 57.362 148.139 57.362H148.161C148.161 57.362 148.656 58.132 149.767 58.132C151.241 58.132 152.33 56.977 152.33 55.195C152.33 53.457 151.362 52.258 149.844 52.258C148.524 52.258 148.04 53.182 148.04 53.182H148.018C148.018 53.182 148.04 53.006 148.04 52.797V52.39H146.764V60.2ZM148.117 55.228C148.117 53.985 148.799 53.457 149.525 53.457C150.35 53.457 150.922 54.15 150.922 55.217C150.922 56.328 150.284 56.955 149.514 56.955C148.59 56.955 148.117 56.097 148.117 55.228ZM153.412 56.251C153.412 57.857 154.369 58.055 155.139 58.055C155.37 58.055 155.579 58.022 155.579 58.022V56.801C155.579 56.801 155.48 56.812 155.37 56.812C155.007 56.812 154.798 56.658 154.798 56.042V50.19H153.412V56.251ZM156.219 55.195C156.219 56.79 157.374 58.132 159.233 58.132C160.63 58.132 161.488 57.329 161.488 57.329L160.949 56.328C160.949 56.328 160.234 56.944 159.332 56.944C158.496 56.944 157.737 56.438 157.649 55.459H161.521C161.521 55.459 161.554 55.085 161.554 54.92C161.554 53.435 160.685 52.258 159.068 52.258C157.396 52.258 156.219 53.468 156.219 55.195ZM157.693 54.502C157.825 53.776 158.32 53.336 159.035 53.336C159.651 53.336 160.124 53.743 160.146 54.502H157.693Z" fill="white"/>
<path d="M174.539 55.404H176.915V58H178.048V55.404H180.424V54.315H178.048V51.708H176.915V54.315H174.539V55.404ZM181.346 57.087C181.346 57.087 182.27 58.132 183.931 58.132C185.669 58.132 186.681 56.9 186.681 55.569C186.681 54.216 185.625 53.446 184.547 53.292L186.461 51.081V50.19H181.687V51.411H184.019C184.481 51.411 184.712 51.378 184.712 51.378V51.4C184.712 51.4 184.459 51.631 184.151 51.994L182.721 53.688L183.04 54.414H183.579C184.492 54.414 185.251 54.799 185.251 55.624C185.251 56.295 184.657 56.79 183.843 56.79C182.809 56.79 182.072 55.998 182.072 55.998L181.346 57.087ZM190.731 58.132C192.865 58.132 193.569 56.328 193.569 54.084C193.569 51.84 192.865 50.058 190.731 50.058C188.597 50.058 187.904 51.84 187.904 54.084C187.904 56.328 188.597 58.132 190.731 58.132ZM190.731 56.834C189.664 56.834 189.356 55.624 189.356 54.084C189.356 52.566 189.664 51.367 190.731 51.367C191.798 51.367 192.106 52.566 192.106 54.084C192.106 55.624 191.798 56.834 190.731 56.834ZM197.167 57.307C197.167 57.307 197.948 58.132 199.345 58.132C200.676 58.132 201.49 57.384 201.49 56.449C201.49 54.645 198.762 54.744 198.762 53.952C198.762 53.6 199.114 53.446 199.477 53.446C200.335 53.446 200.852 53.93 200.852 53.93L201.369 52.896C201.369 52.896 200.753 52.258 199.488 52.258C198.278 52.258 197.343 52.863 197.343 53.908C197.343 55.712 200.071 55.602 200.071 56.438C200.071 56.768 199.73 56.944 199.334 56.944C198.421 56.944 197.805 56.328 197.805 56.328L197.167 57.307ZM202.614 58H204.011V55.536C204.011 55.283 204.022 55.03 204.077 54.821C204.253 54.106 204.726 53.534 205.452 53.534C206.112 53.534 206.211 54.051 206.211 54.656V58H207.608V55.536C207.608 55.272 207.619 55.03 207.674 54.81C207.839 54.106 208.312 53.534 209.027 53.534C209.676 53.534 209.797 54.018 209.797 54.656V58H211.194V54.392C211.194 52.918 210.523 52.258 209.357 52.258C208.477 52.258 207.751 52.808 207.443 53.413H207.421C207.19 52.654 206.64 52.258 205.782 52.258C204.902 52.258 204.231 52.874 203.956 53.424H203.934C203.934 53.424 203.956 53.248 203.956 53.039V52.39H202.614V58ZM212.658 51.433H214.044V50.19H212.658V51.433ZM212.658 58H214.055V52.39H212.658V58ZM215.513 56.251C215.513 57.857 216.47 58.055 217.24 58.055C217.471 58.055 217.68 58.022 217.68 58.022V56.801C217.68 56.801 217.581 56.812 217.471 56.812C217.108 56.812 216.899 56.658 216.899 56.042V50.19H215.513V56.251ZM218.32 55.195C218.32 56.79 219.475 58.132 221.334 58.132C222.731 58.132 223.589 57.329 223.589 57.329L223.05 56.328C223.05 56.328 222.335 56.944 221.433 56.944C220.597 56.944 219.838 56.438 219.75 55.459H223.622C223.622 55.459 223.655 55.085 223.655 54.92C223.655 53.435 222.786 52.258 221.169 52.258C219.497 52.258 218.32 53.468 218.32 55.195ZM219.794 54.502C219.926 53.776 220.421 53.336 221.136 53.336C221.752 53.336 222.225 53.743 222.247 54.502H219.794ZM224.334 57.307C224.334 57.307 225.115 58.132 226.512 58.132C227.843 58.132 228.657 57.384 228.657 56.449C228.657 54.645 225.929 54.744 225.929 53.952C225.929 53.6 226.281 53.446 226.644 53.446C227.502 53.446 228.019 53.93 228.019 53.93L228.536 52.896C228.536 52.896 227.92 52.258 226.655 52.258C225.445 52.258 224.51 52.863 224.51 53.908C224.51 55.712 227.238 55.602 227.238 56.438C227.238 56.768 226.897 56.944 226.501 56.944C225.588 56.944 224.972 56.328 224.972 56.328L224.334 57.307Z" fill="white"/>
<circle cx="168" cy="55" r="2" fill="white"/>
<path d="M120.937 79H122.026L124.886 71.234H123.731L121.784 76.723C121.641 77.141 121.487 77.79 121.487 77.79H121.465C121.465 77.79 121.311 77.141 121.168 76.723L119.243 71.234H118.066L120.937 79ZM125.099 77.438C125.099 78.549 126.034 79.132 126.991 79.132C128.322 79.132 128.773 78.032 128.773 78.032H128.795C128.795 78.032 128.773 78.219 128.773 78.472V79H129.763V75.48C129.763 74.072 128.971 73.302 127.563 73.302C126.287 73.302 125.484 73.962 125.484 73.962L125.924 74.743C125.924 74.743 126.617 74.204 127.475 74.204C128.179 74.204 128.696 74.512 128.696 75.425V75.524H128.454C127.519 75.524 125.099 75.601 125.099 77.438ZM126.177 77.383C126.177 76.382 127.629 76.327 128.432 76.327H128.707V76.503C128.707 77.328 128.124 78.274 127.222 78.274C126.529 78.274 126.177 77.834 126.177 77.383ZM131.295 77.482C131.295 78.879 132.186 79.044 132.791 79.044C132.978 79.044 133.143 79.022 133.143 79.022V78.076C133.143 78.076 133.055 78.087 132.956 78.087C132.626 78.087 132.362 77.966 132.362 77.295V71.234H131.295V77.482ZM134.262 72.323H135.34V71.234H134.262V72.323ZM134.273 79H135.34V73.434H134.273V79ZM136.649 76.217C136.649 77.944 137.595 79.132 139.102 79.132C140.477 79.132 140.928 78.098 140.928 78.098H140.95C140.95 78.098 140.939 78.252 140.939 78.472V79H141.951V71.234H140.884V73.808C140.884 74.017 140.906 74.182 140.906 74.182H140.884C140.884 74.182 140.455 73.302 139.168 73.302C137.694 73.302 136.649 74.446 136.649 76.217ZM137.738 76.217C137.738 74.952 138.464 74.226 139.344 74.226C140.4 74.226 140.917 75.216 140.917 76.206C140.917 77.625 140.136 78.208 139.311 78.208C138.387 78.208 137.738 77.427 137.738 76.217ZM146.674 76.965C146.674 78.824 148.093 79.044 148.808 79.044C149.028 79.044 149.182 79.022 149.182 79.022V78.076C149.182 78.076 149.083 78.098 148.929 78.098C148.522 78.098 147.741 77.955 147.741 76.844V74.369H149.083V73.511H147.741V71.905H146.707V73.511H145.948V74.369H146.674V76.965ZM149.979 76.206C149.979 77.9 151.321 79.132 152.982 79.132C154.643 79.132 155.985 77.9 155.985 76.206C155.985 74.523 154.643 73.302 152.982 73.302C151.321 73.302 149.979 74.523 149.979 76.206ZM151.068 76.206C151.068 75.051 151.937 74.226 152.982 74.226C154.038 74.226 154.896 75.051 154.896 76.206C154.896 77.372 154.038 78.208 152.982 78.208C151.937 78.208 151.068 77.372 151.068 76.206ZM159.679 78.076C159.679 78.076 160.614 79.132 162.198 79.132C163.793 79.132 164.838 77.966 164.838 76.635C164.838 75.128 163.584 74.468 162.561 74.358L164.673 71.927V71.234H160.031V72.18H162.66C163.089 72.18 163.32 72.147 163.32 72.147V72.169C163.32 72.169 163.089 72.378 162.836 72.675L161.142 74.666L161.395 75.249H161.934C162.891 75.249 163.738 75.722 163.738 76.679C163.738 77.515 163.023 78.098 162.154 78.098C161.032 78.098 160.273 77.251 160.273 77.251L159.679 78.076ZM166.096 79H170.562V78.054H168.868V71.234H167.9L166.041 73.038L166.701 73.72L167.427 73.005C167.713 72.73 167.801 72.554 167.801 72.554H167.823C167.823 72.554 167.812 72.796 167.812 73.038V78.054H166.096V79ZM174.744 79H177.318C179.694 79 181.256 77.57 181.256 75.106C181.256 72.653 179.694 71.234 177.318 71.234H174.744V79ZM175.833 78.054V72.18H177.241C178.979 72.18 180.134 73.203 180.134 75.106C180.134 77.02 178.99 78.054 177.241 78.054H175.833ZM182.281 76.217C182.281 77.867 183.48 79.132 185.229 79.132C186.56 79.132 187.385 78.34 187.385 78.34L186.945 77.559C186.945 77.559 186.252 78.208 185.295 78.208C184.305 78.208 183.436 77.592 183.381 76.371H187.44C187.44 76.371 187.473 76.052 187.473 75.909C187.473 74.468 186.637 73.302 185.064 73.302C183.48 73.302 182.281 74.446 182.281 76.217ZM183.414 75.568C183.568 74.655 184.228 74.149 185.042 74.149C185.757 74.149 186.351 74.611 186.384 75.568H183.414ZM188.372 76.217C188.372 77.889 189.604 79.132 191.353 79.132C192.805 79.132 193.575 78.241 193.575 78.241L193.146 77.46C193.146 77.46 192.464 78.208 191.43 78.208C190.275 78.208 189.461 77.339 189.461 76.206C189.461 75.062 190.275 74.226 191.397 74.226C192.343 74.226 192.937 74.864 192.937 74.864L193.443 74.116C193.443 74.116 192.75 73.302 191.353 73.302C189.604 73.302 188.372 74.567 188.372 76.217ZM197.432 79H202.437V78.054H198.587C198.609 76.283 202.316 75.887 202.316 73.335C202.316 71.993 201.293 71.102 199.863 71.102C198.114 71.102 197.41 72.576 197.41 72.576L198.213 73.115C198.213 73.115 198.763 72.125 199.786 72.125C200.6 72.125 201.183 72.642 201.183 73.412C201.183 75.238 197.377 75.634 197.377 78.406C197.377 78.593 197.399 78.791 197.432 79ZM206.499 79.132C208.578 79.132 209.249 77.35 209.249 75.106C209.249 72.873 208.578 71.102 206.499 71.102C204.431 71.102 203.76 72.873 203.76 75.106C203.76 77.35 204.431 79.132 206.499 79.132ZM206.499 78.131C205.234 78.131 204.871 76.8 204.871 75.106C204.871 73.423 205.234 72.103 206.499 72.103C207.775 72.103 208.138 73.423 208.138 75.106C208.138 76.8 207.775 78.131 206.499 78.131ZM210.602 79H215.607V78.054H211.757C211.779 76.283 215.486 75.887 215.486 73.335C215.486 71.993 214.463 71.102 213.033 71.102C211.284 71.102 210.58 72.576 210.58 72.576L211.383 73.115C211.383 73.115 211.933 72.125 212.956 72.125C213.77 72.125 214.353 72.642 214.353 73.412C214.353 75.238 210.547 75.634 210.547 78.406C210.547 78.593 210.569 78.791 210.602 79ZM216.853 79H221.319V78.054H219.625V71.234H218.657L216.798 73.038L217.458 73.72L218.184 73.005C218.47 72.73 218.558 72.554 218.558 72.554H218.58C218.58 72.554 218.569 72.796 218.569 73.038V78.054H216.853V79Z" fill="white"/>
<path d="M118.54 33.725C118.54 33.725 119.845 35.18 122.215 35.18C124.435 35.18 125.725 33.755 125.725 32.06C125.725 28.655 120.715 29.12 120.715 27.23C120.715 26.48 121.42 25.955 122.32 25.955C123.655 25.955 124.675 26.885 124.675 26.885L125.515 25.31C125.515 25.31 124.435 24.17 122.335 24.17C120.295 24.17 118.765 25.49 118.765 27.26C118.765 30.53 123.79 30.2 123.79 32.105C123.79 32.975 123.055 33.395 122.245 33.395C120.745 33.395 119.59 32.27 119.59 32.27L118.54 33.725ZM127.356 38H129.261V34.79C129.261 34.4 129.231 34.13 129.231 34.13H129.261C129.261 34.13 129.936 35.18 131.451 35.18C133.461 35.18 134.946 33.605 134.946 31.175C134.946 28.805 133.626 27.17 131.556 27.17C129.756 27.17 129.096 28.43 129.096 28.43H129.066C129.066 28.43 129.096 28.19 129.096 27.905V27.35H127.356V38ZM129.201 31.22C129.201 29.525 130.131 28.805 131.121 28.805C132.246 28.805 133.026 29.75 133.026 31.205C133.026 32.72 132.156 33.575 131.106 33.575C129.846 33.575 129.201 32.405 129.201 31.22ZM135.986 31.175C135.986 33.35 137.561 35.18 140.096 35.18C142.001 35.18 143.171 34.085 143.171 34.085L142.436 32.72C142.436 32.72 141.461 33.56 140.231 33.56C139.091 33.56 138.056 32.87 137.936 31.535H143.216C143.216 31.535 143.261 31.025 143.261 30.8C143.261 28.775 142.076 27.17 139.871 27.17C137.591 27.17 135.986 28.82 135.986 31.175ZM137.996 30.23C138.176 29.24 138.851 28.64 139.826 28.64C140.666 28.64 141.311 29.195 141.341 30.23H137.996ZM144.831 35H146.736V31.49C146.736 31.13 146.766 30.785 146.871 30.47C147.156 29.555 147.906 28.91 148.926 28.91C149.901 28.91 150.141 29.54 150.141 30.47V35H152.031V30.08C152.031 28.055 151.071 27.17 149.376 27.17C147.831 27.17 146.991 28.115 146.661 28.76H146.631C146.631 28.76 146.661 28.52 146.661 28.235V27.35H144.831V35ZM153.505 31.175C153.505 33.545 154.825 35.18 156.895 35.18C158.65 35.18 159.295 33.875 159.295 33.875H159.325C159.325 33.875 159.295 34.085 159.295 34.37V35H161.095V24.35H159.19V27.71C159.19 27.95 159.205 28.145 159.205 28.145H159.175C159.175 28.145 158.65 27.17 156.97 27.17C154.945 27.17 153.505 28.745 153.505 31.175ZM155.425 31.175C155.425 29.66 156.295 28.805 157.345 28.805C158.62 28.805 159.25 29.975 159.25 31.16C159.25 32.855 158.32 33.575 157.33 33.575C156.205 33.575 155.425 32.63 155.425 31.175ZM173.343 35H175.338L171.588 24.35H169.563L165.813 35H167.808L168.708 32.27H172.443L173.343 35ZM170.598 26.195C170.598 26.195 170.823 27.245 171.018 27.845L171.963 30.695H169.173L170.118 27.845C170.328 27.245 170.568 26.195 170.568 26.195H170.598ZM176.699 35H183.314V33.335H178.634V30.47H182.219V28.805H178.634V26.015H183.074V24.35H176.699V35ZM185.327 35H188.957C192.242 35 194.387 33.02 194.387 29.66C194.387 26.3 192.242 24.35 188.957 24.35H185.327V35ZM187.262 33.335V26.015H188.852C190.982 26.015 192.392 27.29 192.392 29.66C192.392 32.06 191.012 33.335 188.852 33.335H187.262ZM195.71 33.74C195.71 33.74 196.865 35.18 199.115 35.18C201.335 35.18 202.955 33.62 202.955 31.52C202.955 29.6 201.56 28.025 199.205 28.025C198.56 28.025 198.065 28.265 198.065 28.265H198.035C198.035 28.265 198.08 28.055 198.11 27.77L198.275 26.015H202.205V24.35H196.61L196.115 29.75L197.18 30.14C197.18 30.14 197.885 29.69 198.83 29.69C200.045 29.69 200.975 30.425 200.975 31.535C200.975 32.66 200 33.35 198.965 33.35C197.585 33.35 196.7 32.285 196.7 32.285L195.71 33.74ZM208.315 35.18C211.225 35.18 212.185 32.72 212.185 29.66C212.185 26.6 211.225 24.17 208.315 24.17C205.405 24.17 204.46 26.6 204.46 29.66C204.46 32.72 205.405 35.18 208.315 35.18ZM208.315 33.41C206.86 33.41 206.44 31.76 206.44 29.66C206.44 27.59 206.86 25.955 208.315 25.955C209.77 25.955 210.19 27.59 210.19 29.66C210.19 31.76 209.77 33.41 208.315 33.41ZM217.749 35.18C220.659 35.18 221.619 32.72 221.619 29.66C221.619 26.6 220.659 24.17 217.749 24.17C214.839 24.17 213.894 26.6 213.894 29.66C213.894 32.72 214.839 35.18 217.749 35.18ZM217.749 33.41C216.294 33.41 215.874 31.76 215.874 29.66C215.874 27.59 216.294 25.955 217.749 25.955C219.204 25.955 219.624 27.59 219.624 29.66C219.624 31.76 219.204 33.41 217.749 33.41ZM227.29 31.55H231.805V29.885H227.29V31.55ZM237.163 33.725C237.163 33.725 238.468 35.18 240.838 35.18C243.058 35.18 244.348 33.755 244.348 32.06C244.348 28.655 239.338 29.12 239.338 27.23C239.338 26.48 240.043 25.955 240.943 25.955C242.278 25.955 243.298 26.885 243.298 26.885L244.138 25.31C244.138 25.31 243.058 24.17 240.958 24.17C238.918 24.17 237.388 25.49 237.388 27.26C237.388 30.53 242.413 30.2 242.413 32.105C242.413 32.975 241.678 33.395 240.868 33.395C239.368 33.395 238.213 32.27 238.213 32.27L237.163 33.725ZM245.334 32.795C245.334 34.325 246.564 35.18 247.929 35.18C249.669 35.18 250.269 33.83 250.254 33.83H250.284C250.284 33.83 250.254 34.07 250.254 34.37V35H252.009V30.215C252.009 28.28 250.839 27.17 248.829 27.17C247.014 27.17 245.829 28.115 245.829 28.115L246.549 29.48C246.549 29.48 247.554 28.745 248.649 28.745C249.489 28.745 250.119 29.09 250.119 30.095V30.2H249.864C248.619 30.2 245.334 30.365 245.334 32.795ZM247.254 32.705C247.254 31.64 248.829 31.505 249.804 31.505H250.134V31.685C250.134 32.615 249.414 33.695 248.409 33.695C247.629 33.695 247.254 33.215 247.254 32.705ZM255.716 35H257.966L260.711 27.35H258.701L257.111 32.09C256.961 32.54 256.856 33.245 256.841 33.245H256.811C256.796 33.245 256.691 32.54 256.541 32.09L254.951 27.35H252.941L255.716 35ZM261.23 31.175C261.23 33.35 262.805 35.18 265.34 35.18C267.245 35.18 268.415 34.085 268.415 34.085L267.68 32.72C267.68 32.72 266.705 33.56 265.475 33.56C264.335 33.56 263.3 32.87 263.18 31.535H268.46C268.46 31.535 268.505 31.025 268.505 30.8C268.505 28.775 267.32 27.17 265.115 27.17C262.835 27.17 261.23 28.82 261.23 31.175ZM263.24 30.23C263.42 29.24 264.095 28.64 265.07 28.64C265.91 28.64 266.555 29.195 266.585 30.23H263.24ZM280.218 35H282.213L278.463 24.35H276.438L272.688 35H274.683L275.583 32.27H279.318L280.218 35ZM277.473 26.195C277.473 26.195 277.698 27.245 277.893 27.845L278.838 30.695H276.048L276.993 27.845C277.203 27.245 277.443 26.195 277.443 26.195H277.473ZM283.574 35H290.189V33.335H285.509V30.47H289.094V28.805H285.509V26.015H289.949V24.35H283.574V35ZM292.202 35H295.832C299.117 35 301.262 33.02 301.262 29.66C301.262 26.3 299.117 24.35 295.832 24.35H292.202V35ZM294.137 33.335V26.015H295.727C297.857 26.015 299.267 27.29 299.267 29.66C299.267 32.06 297.887 33.335 295.727 33.335H294.137ZM302.75 35H309.26V33.335H306.95V24.35H305.255L302.585 26.915L303.725 28.115L304.58 27.305C304.925 26.96 305.045 26.705 305.045 26.705H305.075C305.075 26.705 305.06 27.065 305.06 27.425V33.335H302.75V35ZM310.456 35H317.521V33.335H312.541C312.586 31.325 317.356 30.74 317.356 27.32C317.356 25.31 315.766 24.17 313.891 24.17C311.341 24.17 310.366 26.3 310.366 26.3L311.806 27.26C311.806 27.26 312.481 26 313.726 26C314.626 26 315.346 26.555 315.346 27.485C315.346 29.6 310.366 30.215 310.366 34.055C310.366 34.355 310.411 34.655 310.456 35ZM318.962 33.74C318.962 33.74 320.117 35.18 322.367 35.18C324.587 35.18 326.207 33.62 326.207 31.52C326.207 29.6 324.812 28.025 322.457 28.025C321.812 28.025 321.317 28.265 321.317 28.265H321.287C321.287 28.265 321.332 28.055 321.362 27.77L321.527 26.015H325.457V24.35H319.862L319.367 29.75L320.432 30.14C320.432 30.14 321.137 29.69 322.082 29.69C323.297 29.69 324.227 30.425 324.227 31.535C324.227 32.66 323.252 33.35 322.217 33.35C320.837 33.35 319.952 32.285 319.952 32.285L318.962 33.74Z" fill="white"/>
<line opacity="0.4" x1="94.5" y1="8" x2="94.5" y2="92" stroke="white" stroke-linejoin="round" stroke-dasharray="2 2"/>
<path d="M392.568 50H405.756V46.892H396.46C396.544 43.14 405.448 42.048 405.448 35.664C405.448 31.912 402.48 29.784 398.98 29.784C394.22 29.784 392.4 33.76 392.4 33.76L395.088 35.552C395.088 35.552 396.348 33.2 398.672 33.2C400.352 33.2 401.696 34.236 401.696 35.972C401.696 39.92 392.4 41.068 392.4 48.236C392.4 48.796 392.484 49.356 392.568 50Z" fill="white"/>
<path d="M377.615 65.6C377.615 68.735 379.985 71.18 383.12 71.18C386.255 71.18 388.625 68.735 388.625 65.6C388.625 62.555 386.255 60.17 383.12 60.17C379.985 60.17 377.615 62.555 377.615 65.6ZM379.61 65.6C379.61 63.5 381.17 61.94 383.12 61.94C385.07 61.94 386.63 63.5 386.63 65.6C386.63 67.79 385.07 69.41 383.12 69.41C381.17 69.41 379.61 67.79 379.61 65.6ZM390.686 71H392.591V64.985H394.226V63.47H392.591V63.17C392.591 62.06 393.521 61.925 394.061 61.925C394.286 61.925 394.451 61.955 394.451 61.955V60.335C394.451 60.335 394.196 60.29 393.806 60.29C392.741 60.29 390.686 60.62 390.686 63.125V63.47H389.741V64.985H390.686V71ZM395.886 71H397.791V64.985H399.426V63.47H397.791V63.17C397.791 62.06 398.721 61.925 399.261 61.925C399.486 61.925 399.651 61.955 399.651 61.955V60.335C399.651 60.335 399.396 60.29 399.006 60.29C397.941 60.29 395.886 60.62 395.886 63.125V63.47H394.941V64.985H395.886V71ZM400.156 67.175C400.156 69.35 401.731 71.18 404.266 71.18C406.171 71.18 407.341 70.085 407.341 70.085L406.606 68.72C406.606 68.72 405.631 69.56 404.401 69.56C403.261 69.56 402.226 68.87 402.106 67.535H407.386C407.386 67.535 407.431 67.025 407.431 66.8C407.431 64.775 406.246 63.17 404.041 63.17C401.761 63.17 400.156 64.82 400.156 67.175ZM402.166 66.23C402.346 65.24 403.021 64.64 403.996 64.64C404.836 64.64 405.481 65.195 405.511 66.23H402.166ZM409.002 71H410.907V67.97C410.907 67.52 410.952 67.1 411.072 66.725C411.432 65.585 412.347 65.12 413.157 65.12C413.412 65.12 413.607 65.15 413.607 65.15V63.275C413.607 63.275 413.442 63.245 413.262 63.245C412.092 63.245 411.177 64.115 410.832 65.21H410.802C410.802 65.21 410.832 64.955 410.832 64.67V63.35H409.002V71ZM414.246 70.055C414.246 70.055 415.311 71.18 417.216 71.18C419.031 71.18 420.141 70.16 420.141 68.885C420.141 66.425 416.421 66.56 416.421 65.48C416.421 65 416.901 64.79 417.396 64.79C418.566 64.79 419.271 65.45 419.271 65.45L419.976 64.04C419.976 64.04 419.136 63.17 417.411 63.17C415.761 63.17 414.486 63.995 414.486 65.42C414.486 67.88 418.206 67.73 418.206 68.87C418.206 69.32 417.741 69.56 417.201 69.56C415.956 69.56 415.116 68.72 415.116 68.72L414.246 70.055Z" fill="white"/>
<line opacity="0.4" x1="352.5" y1="8" x2="352.5" y2="92" stroke="white" stroke-linejoin="round" stroke-dasharray="2 2"/>
<line opacity="0.4" x1="444.5" y1="8" x2="444.5" y2="92" stroke="white" stroke-linejoin="round" stroke-dasharray="2 2"/>
<path d="M462.98 45.676C462.98 45.676 465.332 48.336 469.56 48.336C473.984 48.336 476.56 45.2 476.56 41.812C476.56 38.368 473.872 36.408 471.128 36.016L476 30.388V28.12H463.848V31.228H469.784C470.96 31.228 471.548 31.144 471.548 31.144V31.2C471.548 31.2 470.904 31.788 470.12 32.712L466.48 37.024L467.292 38.872H468.664C470.988 38.872 472.92 39.852 472.92 41.952C472.92 43.66 471.408 44.92 469.336 44.92C466.704 44.92 464.828 42.904 464.828 42.904L462.98 45.676ZM479.646 48H492.834V44.892H483.538C483.622 41.14 492.526 40.048 492.526 33.664C492.526 29.912 489.558 27.784 486.058 27.784C481.298 27.784 479.478 31.76 479.478 31.76L482.166 33.552C482.166 33.552 483.426 31.2 485.75 31.2C487.43 31.2 488.774 32.236 488.774 33.972C488.774 37.92 479.478 39.068 479.478 46.236C479.478 46.796 479.562 47.356 479.646 48ZM503.112 48.336C508.544 48.336 510.336 43.744 510.336 38.032C510.336 32.32 508.544 27.784 503.112 27.784C497.68 27.784 495.916 32.32 495.916 38.032C495.916 43.744 497.68 48.336 503.112 48.336ZM503.112 45.032C500.396 45.032 499.612 41.952 499.612 38.032C499.612 34.168 500.396 31.116 503.112 31.116C505.828 31.116 506.612 34.168 506.612 38.032C506.612 41.952 505.828 45.032 503.112 45.032ZM519.475 48H521.47L517.72 37.35H515.695L511.945 48H513.94L514.84 45.27H518.575L519.475 48ZM516.73 39.195C516.73 39.195 516.955 40.245 517.15 40.845L518.095 43.695H515.305L516.25 40.845C516.46 40.245 516.7 39.195 516.7 39.195H516.73ZM522.83 48H529.445V46.335H524.765V43.47H528.35V41.805H524.765V39.015H529.205V37.35H522.83V48ZM531.458 48H535.088C538.373 48 540.518 46.02 540.518 42.66C540.518 39.3 538.373 37.35 535.088 37.35H531.458V48ZM533.393 46.335V39.015H534.983C537.113 39.015 538.523 40.29 538.523 42.66C538.523 45.06 537.143 46.335 534.983 46.335H533.393Z" fill="white"/>
<path d="M463.35 72H469.965V70.335H465.285V67.47H468.87V65.805H465.285V63.015H469.725V61.35H463.35V72ZM471.033 71.055C471.033 71.055 472.098 72.18 474.003 72.18C475.818 72.18 476.928 71.16 476.928 69.885C476.928 67.425 473.208 67.56 473.208 66.48C473.208 66 473.688 65.79 474.183 65.79C475.353 65.79 476.058 66.45 476.058 66.45L476.763 65.04C476.763 65.04 475.923 64.17 474.198 64.17C472.548 64.17 471.273 64.995 471.273 66.42C471.273 68.88 474.993 68.73 474.993 69.87C474.993 70.32 474.528 70.56 473.988 70.56C472.743 70.56 471.903 69.72 471.903 69.72L471.033 71.055ZM478.79 69.195C478.79 71.76 480.905 72.075 481.97 72.075C482.33 72.075 482.555 72.03 482.555 72.03V70.365C482.555 70.365 482.42 70.395 482.21 70.395C481.685 70.395 480.695 70.215 480.695 68.955V65.985H482.435V64.47H480.695V62.265H478.835V64.47H477.8V65.985H478.79V69.195ZM484.039 72H485.944V70.095H484.039V72ZM491.104 70.725C491.104 70.725 492.409 72.18 494.779 72.18C496.999 72.18 498.289 70.755 498.289 69.06C498.289 65.655 493.279 66.12 493.279 64.23C493.279 63.48 493.984 62.955 494.884 62.955C496.219 62.955 497.239 63.885 497.239 63.885L498.079 62.31C498.079 62.31 496.999 61.17 494.899 61.17C492.859 61.17 491.329 62.49 491.329 64.26C491.329 67.53 496.354 67.2 496.354 69.105C496.354 69.975 495.619 70.395 494.809 70.395C493.309 70.395 492.154 69.27 492.154 69.27L491.104 70.725ZM499.275 69.795C499.275 71.325 500.505 72.18 501.87 72.18C503.61 72.18 504.21 70.83 504.195 70.83H504.225C504.225 70.83 504.195 71.07 504.195 71.37V72H505.95V67.215C505.95 65.28 504.78 64.17 502.77 64.17C500.955 64.17 499.77 65.115 499.77 65.115L500.49 66.48C500.49 66.48 501.495 65.745 502.59 65.745C503.43 65.745 504.06 66.09 504.06 67.095V67.2H503.805C502.56 67.2 499.275 67.365 499.275 69.795ZM501.195 69.705C501.195 68.64 502.77 68.505 503.745 68.505H504.075V68.685C504.075 69.615 503.355 70.695 502.35 70.695C501.57 70.695 501.195 70.215 501.195 69.705ZM509.658 72H511.908L514.653 64.35H512.643L511.053 69.09C510.903 69.54 510.798 70.245 510.783 70.245H510.753C510.738 70.245 510.633 69.54 510.483 69.09L508.893 64.35H506.883L509.658 72ZM515.711 63.045H517.601V61.35H515.711V63.045ZM515.711 72H517.616V64.35H515.711V72ZM519.71 72H521.615V68.49C521.615 68.13 521.645 67.785 521.75 67.47C522.035 66.555 522.785 65.91 523.805 65.91C524.78 65.91 525.02 66.54 525.02 67.47V72H526.91V67.08C526.91 65.055 525.95 64.17 524.255 64.17C522.71 64.17 521.87 65.115 521.54 65.76H521.51C521.51 65.76 521.54 65.52 521.54 65.235V64.35H519.71V72ZM529.689 73.035L529.119 74.49C529.854 74.88 530.874 75.15 531.834 75.15C533.829 75.15 535.869 74.16 535.869 71.535V64.35H534.084V64.935C534.084 65.055 534.099 65.145 534.099 65.145H534.054C534.054 65.145 533.454 64.17 531.789 64.17C529.584 64.17 528.399 65.88 528.399 67.98C528.399 70.08 529.644 71.85 531.834 71.85C532.854 71.85 533.514 71.49 533.964 70.815H533.994C533.994 70.815 533.964 71.04 533.964 71.22V71.67C533.964 73.035 532.974 73.53 531.804 73.53C530.649 73.53 529.689 73.035 529.689 73.035ZM532.239 70.245C531.009 70.245 530.319 69.255 530.319 67.92C530.319 66.63 530.964 65.79 532.119 65.79C533.154 65.79 534.009 66.255 534.009 67.995C534.009 69.72 533.154 70.245 532.239 70.245ZM537.317 71.055C537.317 71.055 538.382 72.18 540.287 72.18C542.102 72.18 543.212 71.16 543.212 69.885C543.212 67.425 539.492 67.56 539.492 66.48C539.492 66 539.972 65.79 540.467 65.79C541.637 65.79 542.342 66.45 542.342 66.45L543.047 65.04C543.047 65.04 542.207 64.17 540.482 64.17C538.832 64.17 537.557 64.995 537.557 66.42C537.557 68.88 541.277 68.73 541.277 69.87C541.277 70.32 540.812 70.56 540.272 70.56C539.027 70.56 538.187 69.72 538.187 69.72L537.317 71.055Z" fill="white"/>
<g filter="url(#filter1_d_815_419)">
<mask id="path-16-inside-2_815_419" fill="white">
<path fill-rule="evenodd" clip-rule="evenodd" d="M2 14C2 8.47715 6.47715 4 12 4H563C568.523 4 573 8.47715 573 14V37C567.477 37 563 41.4772 563 47C563 52.5228 567.477 57 573 57V80C573 85.5229 568.523 90 563 90H12C6.47716 90 2 85.5229 2 80V57.0001C7.52285 57.0001 12 52.523 12 47.0001C12 41.4773 7.52285 37.0001 2 37.0001V14Z"/>
</mask>
<path fill-rule="evenodd" clip-rule="evenodd" d="M2 14C2 8.47715 6.47715 4 12 4H563C568.523 4 573 8.47715 573 14V37C567.477 37 563 41.4772 563 47C563 52.5228 567.477 57 573 57V80C573 85.5229 568.523 90 563 90H12C6.47716 90 2 85.5229 2 80V57.0001C7.52285 57.0001 12 52.523 12 47.0001C12 41.4773 7.52285 37.0001 2 37.0001V14Z" fill="url(#paint1_linear_815_419)"/>
<path d="M573 37V38H574V37H573ZM573 57H574V56H573V57ZM2 57.0001V56.0001H1V57.0001H2ZM2 37.0001H1V38.0001H2V37.0001ZM12 3C5.92487 3 1 7.92487 1 14H3C3 9.02944 7.02944 5 12 5V3ZM563 3H12V5H563V3ZM574 14C574 7.92487 569.075 3 563 3V5C567.971 5 572 9.02944 572 14H574ZM574 37V14H572V37H574ZM564 47C564 42.0294 568.029 38 573 38V36C566.925 36 562 40.9249 562 47H564ZM573 56C568.029 56 564 51.9706 564 47H562C562 53.0751 566.925 58 573 58V56ZM574 80V57H572V80H574ZM563 91C569.075 91 574 86.0751 574 80H572C572 84.9706 567.971 89 563 89V91ZM12 91H563V89H12V91ZM1 80C1 86.0751 5.92488 91 12 91V89C7.02945 89 3 84.9706 3 80H1ZM1 57.0001V80H3V57.0001H1ZM11 47.0001C11 51.9707 6.97056 56.0001 2 56.0001V58.0001C8.07513 58.0001 13 53.0753 13 47.0001H11ZM2 38.0001C6.97056 38.0001 11 42.0296 11 47.0001H13C13 40.925 8.07513 36.0001 2 36.0001V38.0001ZM1 14V37.0001H3V14H1Z" fill="#B883D7" mask="url(#path-16-inside-2_815_419)"/>
</g>
<path fill-rule="evenodd" clip-rule="evenodd" d="M73.0426 46.0419C72.512 46.0419 72.0824 46.4707 72.0824 47C72.0824 49.847 71.5264 52.6082 70.4273 55.2067C69.3646 57.7167 67.8457 59.9712 65.9084 61.9085C63.9711 63.8458 61.7167 65.3647 59.2066 66.4274C56.6081 67.5265 53.8469 68.0825 50.9999 68.0825C48.1529 68.0825 45.3917 67.5265 42.7939 66.4274C40.2839 65.3647 38.0287 63.8458 36.0914 61.9085C34.1548 59.9713 32.6345 57.7167 31.5725 55.2067C30.474 52.6082 29.9167 49.847 29.9167 47C29.9167 44.153 30.474 41.3918 31.5725 38.794C32.6345 36.2833 34.1548 34.0288 36.0914 32.0915C38.0286 30.1549 40.2839 28.6346 42.7939 27.5726C45.3917 26.4735 48.1529 25.9168 50.9999 25.9168C53.8469 25.9168 56.6081 26.4734 59.2066 27.5726C61.5285 28.5553 63.6342 29.9318 65.4704 31.6668H61.9525C61.4247 31.6668 60.9951 32.0956 60.9951 32.6249C60.9951 33.1542 61.4247 33.583 61.9525 33.583H67.7025C68.2331 33.583 68.6627 33.1542 68.6627 32.6249V26.875C68.6627 26.3457 68.2332 25.9169 67.7025 25.9169C67.1747 25.9169 66.7451 26.3457 66.7451 26.875V30.235C62.6292 26.3682 57.0925 24 51 24C38.2976 24 28 34.2976 28 47C28 59.7017 38.2976 70 51 70C63.7017 70 74 59.7017 74 47C74 46.4707 73.5705 46.0419 73.0426 46.0419ZM37.583 37.4169V45.0831V52.75H64.4175V45.0831V37.4169H37.583ZM62.4999 45.0831V50.8323H39.4999V45.0831V39.3331H62.4999V45.0831ZM46.1914 45.0235C46.1914 42.3773 48.3364 40.2316 50.9833 40.2316C53.6295 40.2316 55.7745 42.3773 55.7745 45.0235C55.7745 47.6696 53.6295 49.8161 50.9833 49.8161C48.3365 49.8161 46.1914 47.6696 46.1914 45.0235ZM48.1083 45.0235C48.1083 46.6084 49.3977 47.8985 50.9833 47.8985C52.5682 47.8985 53.8583 46.6084 53.8583 45.0235C53.8583 43.4379 52.5682 42.1485 50.9833 42.1485C49.3977 42.1485 48.1083 43.4379 48.1083 45.0235ZM63.4573 53.7074H38.5418C38.0126 53.7074 37.583 54.1369 37.583 54.6676C37.583 55.1955 38.0126 55.625 38.5418 55.625H63.4573C63.9879 55.625 64.4175 55.1955 64.4175 54.6676C64.4175 54.137 63.9879 53.7074 63.4573 53.7074ZM38.5418 56.5824H63.4573C63.9879 56.5824 64.4175 57.012 64.4175 57.5426C64.4175 58.0705 63.9879 58.5 63.4573 58.5H38.5418C38.0126 58.5 37.583 58.0705 37.583 57.5426C37.583 57.0119 38.0126 56.5824 38.5418 56.5824Z" fill="white"/>
<path d="M118.594 54H123.368V52.779H121.674V46.19H120.431L118.473 48.071L119.309 48.951L119.936 48.357C120.189 48.104 120.277 47.917 120.277 47.917H120.299C120.299 47.917 120.288 48.181 120.288 48.445V52.779H118.594V54ZM127.074 56.2H128.471V53.846C128.471 53.56 128.449 53.362 128.449 53.362H128.471C128.471 53.362 128.966 54.132 130.077 54.132C131.551 54.132 132.64 52.977 132.64 51.195C132.64 49.457 131.672 48.258 130.154 48.258C128.834 48.258 128.35 49.182 128.35 49.182H128.328C128.328 49.182 128.35 49.006 128.35 48.797V48.39H127.074V56.2ZM128.427 51.228C128.427 49.985 129.109 49.457 129.835 49.457C130.66 49.457 131.232 50.15 131.232 51.217C131.232 52.328 130.594 52.955 129.824 52.955C128.9 52.955 128.427 52.097 128.427 51.228ZM133.402 51.195C133.402 52.79 134.557 54.132 136.416 54.132C137.813 54.132 138.671 53.329 138.671 53.329L138.132 52.328C138.132 52.328 137.417 52.944 136.515 52.944C135.679 52.944 134.92 52.438 134.832 51.459H138.704C138.704 51.459 138.737 51.085 138.737 50.92C138.737 49.435 137.868 48.258 136.251 48.258C134.579 48.258 133.402 49.468 133.402 51.195ZM134.876 50.502C135.008 49.776 135.503 49.336 136.218 49.336C136.834 49.336 137.307 49.743 137.329 50.502H134.876ZM139.471 51.195C139.471 52.922 140.846 54.132 142.562 54.132C144.267 54.132 145.642 52.922 145.642 51.195C145.642 49.479 144.267 48.258 142.551 48.258C140.846 48.258 139.471 49.479 139.471 51.195ZM140.89 51.195C140.89 50.161 141.649 49.446 142.562 49.446C143.464 49.446 144.223 50.161 144.223 51.195C144.223 52.24 143.464 52.944 142.562 52.944C141.649 52.944 140.89 52.24 140.89 51.195ZM146.764 56.2H148.161V53.846C148.161 53.56 148.139 53.362 148.139 53.362H148.161C148.161 53.362 148.656 54.132 149.767 54.132C151.241 54.132 152.33 52.977 152.33 51.195C152.33 49.457 151.362 48.258 149.844 48.258C148.524 48.258 148.04 49.182 148.04 49.182H148.018C148.018 49.182 148.04 49.006 148.04 48.797V48.39H146.764V56.2ZM148.117 51.228C148.117 49.985 148.799 49.457 149.525 49.457C150.35 49.457 150.922 50.15 150.922 51.217C150.922 52.328 150.284 52.955 149.514 52.955C148.59 52.955 148.117 52.097 148.117 51.228ZM153.412 52.251C153.412 53.857 154.369 54.055 155.139 54.055C155.37 54.055 155.579 54.022 155.579 54.022V52.801C155.579 52.801 155.48 52.812 155.37 52.812C155.007 52.812 154.798 52.658 154.798 52.042V46.19H153.412V52.251ZM156.219 51.195C156.219 52.79 157.374 54.132 159.233 54.132C160.63 54.132 161.488 53.329 161.488 53.329L160.949 52.328C160.949 52.328 160.234 52.944 159.332 52.944C158.496 52.944 157.737 52.438 157.649 51.459H161.521C161.521 51.459 161.554 51.085 161.554 50.92C161.554 49.435 160.685 48.258 159.068 48.258C157.396 48.258 156.219 49.468 156.219 51.195ZM157.693 50.502C157.825 49.776 158.32 49.336 159.035 49.336C159.651 49.336 160.124 49.743 160.146 50.502H157.693Z" fill="white"/>
<path d="M174.539 51.404H176.915V54H178.048V51.404H180.424V50.315H178.048V47.708H176.915V50.315H174.539V51.404ZM181.346 53.087C181.346 53.087 182.27 54.132 183.931 54.132C185.669 54.132 186.681 52.9 186.681 51.569C186.681 50.216 185.625 49.446 184.547 49.292L186.461 47.081V46.19H181.687V47.411H184.019C184.481 47.411 184.712 47.378 184.712 47.378V47.4C184.712 47.4 184.459 47.631 184.151 47.994L182.721 49.688L183.04 50.414H183.579C184.492 50.414 185.251 50.799 185.251 51.624C185.251 52.295 184.657 52.79 183.843 52.79C182.809 52.79 182.072 51.998 182.072 51.998L181.346 53.087ZM190.731 54.132C192.865 54.132 193.569 52.328 193.569 50.084C193.569 47.84 192.865 46.058 190.731 46.058C188.597 46.058 187.904 47.84 187.904 50.084C187.904 52.328 188.597 54.132 190.731 54.132ZM190.731 52.834C189.664 52.834 189.356 51.624 189.356 50.084C189.356 48.566 189.664 47.367 190.731 47.367C191.798 47.367 192.106 48.566 192.106 50.084C192.106 51.624 191.798 52.834 190.731 52.834ZM197.167 53.307C197.167 53.307 197.948 54.132 199.345 54.132C200.676 54.132 201.49 53.384 201.49 52.449C201.49 50.645 198.762 50.744 198.762 49.952C198.762 49.6 199.114 49.446 199.477 49.446C200.335 49.446 200.852 49.93 200.852 49.93L201.369 48.896C201.369 48.896 200.753 48.258 199.488 48.258C198.278 48.258 197.343 48.863 197.343 49.908C197.343 51.712 200.071 51.602 200.071 52.438C200.071 52.768 199.73 52.944 199.334 52.944C198.421 52.944 197.805 52.328 197.805 52.328L197.167 53.307ZM202.614 54H204.011V51.536C204.011 51.283 204.022 51.03 204.077 50.821C204.253 50.106 204.726 49.534 205.452 49.534C206.112 49.534 206.211 50.051 206.211 50.656V54H207.608V51.536C207.608 51.272 207.619 51.03 207.674 50.81C207.839 50.106 208.312 49.534 209.027 49.534C209.676 49.534 209.797 50.018 209.797 50.656V54H211.194V50.392C211.194 48.918 210.523 48.258 209.357 48.258C208.477 48.258 207.751 48.808 207.443 49.413H207.421C207.19 48.654 206.64 48.258 205.782 48.258C204.902 48.258 204.231 48.874 203.956 49.424H203.934C203.934 49.424 203.956 49.248 203.956 49.039V48.39H202.614V54ZM212.658 47.433H214.044V46.19H212.658V47.433ZM212.658 54H214.055V48.39H212.658V54ZM215.513 52.251C215.513 53.857 216.47 54.055 217.24 54.055C217.471 54.055 217.68 54.022 217.68 54.022V52.801C217.68 52.801 217.581 52.812 217.471 52.812C217.108 52.812 216.899 52.658 216.899 52.042V46.19H215.513V52.251ZM218.32 51.195C218.32 52.79 219.475 54.132 221.334 54.132C222.731 54.132 223.589 53.329 223.589 53.329L223.05 52.328C223.05 52.328 222.335 52.944 221.433 52.944C220.597 52.944 219.838 52.438 219.75 51.459H223.622C223.622 51.459 223.655 51.085 223.655 50.92C223.655 49.435 222.786 48.258 221.169 48.258C219.497 48.258 218.32 49.468 218.32 51.195ZM219.794 50.502C219.926 49.776 220.421 49.336 221.136 49.336C221.752 49.336 222.225 49.743 222.247 50.502H219.794ZM224.334 53.307C224.334 53.307 225.115 54.132 226.512 54.132C227.843 54.132 228.657 53.384 228.657 52.449C228.657 50.645 225.929 50.744 225.929 49.952C225.929 49.6 226.281 49.446 226.644 49.446C227.502 49.446 228.019 49.93 228.019 49.93L228.536 48.896C228.536 48.896 227.92 48.258 226.655 48.258C225.445 48.258 224.51 48.863 224.51 49.908C224.51 51.712 227.238 51.602 227.238 52.438C227.238 52.768 226.897 52.944 226.501 52.944C225.588 52.944 224.972 52.328 224.972 52.328L224.334 53.307Z" fill="white"/>
<circle cx="168" cy="51" r="2" fill="white"/>
<path d="M120.937 75H122.026L124.886 67.234H123.731L121.784 72.723C121.641 73.141 121.487 73.79 121.487 73.79H121.465C121.465 73.79 121.311 73.141 121.168 72.723L119.243 67.234H118.066L120.937 75ZM125.099 73.438C125.099 74.549 126.034 75.132 126.991 75.132C128.322 75.132 128.773 74.032 128.773 74.032H128.795C128.795 74.032 128.773 74.219 128.773 74.472V75H129.763V71.48C129.763 70.072 128.971 69.302 127.563 69.302C126.287 69.302 125.484 69.962 125.484 69.962L125.924 70.743C125.924 70.743 126.617 70.204 127.475 70.204C128.179 70.204 128.696 70.512 128.696 71.425V71.524H128.454C127.519 71.524 125.099 71.601 125.099 73.438ZM126.177 73.383C126.177 72.382 127.629 72.327 128.432 72.327H128.707V72.503C128.707 73.328 128.124 74.274 127.222 74.274C126.529 74.274 126.177 73.834 126.177 73.383ZM131.295 73.482C131.295 74.879 132.186 75.044 132.791 75.044C132.978 75.044 133.143 75.022 133.143 75.022V74.076C133.143 74.076 133.055 74.087 132.956 74.087C132.626 74.087 132.362 73.966 132.362 73.295V67.234H131.295V73.482ZM134.262 68.323H135.34V67.234H134.262V68.323ZM134.273 75H135.34V69.434H134.273V75ZM136.649 72.217C136.649 73.944 137.595 75.132 139.102 75.132C140.477 75.132 140.928 74.098 140.928 74.098H140.95C140.95 74.098 140.939 74.252 140.939 74.472V75H141.951V67.234H140.884V69.808C140.884 70.017 140.906 70.182 140.906 70.182H140.884C140.884 70.182 140.455 69.302 139.168 69.302C137.694 69.302 136.649 70.446 136.649 72.217ZM137.738 72.217C137.738 70.952 138.464 70.226 139.344 70.226C140.4 70.226 140.917 71.216 140.917 72.206C140.917 73.625 140.136 74.208 139.311 74.208C138.387 74.208 137.738 73.427 137.738 72.217ZM146.674 72.965C146.674 74.824 148.093 75.044 148.808 75.044C149.028 75.044 149.182 75.022 149.182 75.022V74.076C149.182 74.076 149.083 74.098 148.929 74.098C148.522 74.098 147.741 73.955 147.741 72.844V70.369H149.083V69.511H147.741V67.905H146.707V69.511H145.948V70.369H146.674V72.965ZM149.979 72.206C149.979 73.9 151.321 75.132 152.982 75.132C154.643 75.132 155.985 73.9 155.985 72.206C155.985 70.523 154.643 69.302 152.982 69.302C151.321 69.302 149.979 70.523 149.979 72.206ZM151.068 72.206C151.068 71.051 151.937 70.226 152.982 70.226C154.038 70.226 154.896 71.051 154.896 72.206C154.896 73.372 154.038 74.208 152.982 74.208C151.937 74.208 151.068 73.372 151.068 72.206ZM159.679 74.076C159.679 74.076 160.614 75.132 162.198 75.132C163.793 75.132 164.838 73.966 164.838 72.635C164.838 71.128 163.584 70.468 162.561 70.358L164.673 67.927V67.234H160.031V68.18H162.66C163.089 68.18 163.32 68.147 163.32 68.147V68.169C163.32 68.169 163.089 68.378 162.836 68.675L161.142 70.666L161.395 71.249H161.934C162.891 71.249 163.738 71.722 163.738 72.679C163.738 73.515 163.023 74.098 162.154 74.098C161.032 74.098 160.273 73.251 160.273 73.251L159.679 74.076ZM166.096 75H170.562V74.054H168.868V67.234H167.9L166.041 69.038L166.701 69.72L167.427 69.005C167.713 68.73 167.801 68.554 167.801 68.554H167.823C167.823 68.554 167.812 68.796 167.812 69.038V74.054H166.096V75ZM174.744 75H177.318C179.694 75 181.256 73.57 181.256 71.106C181.256 68.653 179.694 67.234 177.318 67.234H174.744V75ZM175.833 74.054V68.18H177.241C178.979 68.18 180.134 69.203 180.134 71.106C180.134 73.02 178.99 74.054 177.241 74.054H175.833ZM182.281 72.217C182.281 73.867 183.48 75.132 185.229 75.132C186.56 75.132 187.385 74.34 187.385 74.34L186.945 73.559C186.945 73.559 186.252 74.208 185.295 74.208C184.305 74.208 183.436 73.592 183.381 72.371H187.44C187.44 72.371 187.473 72.052 187.473 71.909C187.473 70.468 186.637 69.302 185.064 69.302C183.48 69.302 182.281 70.446 182.281 72.217ZM183.414 71.568C183.568 70.655 184.228 70.149 185.042 70.149C185.757 70.149 186.351 70.611 186.384 71.568H183.414ZM188.372 72.217C188.372 73.889 189.604 75.132 191.353 75.132C192.805 75.132 193.575 74.241 193.575 74.241L193.146 73.46C193.146 73.46 192.464 74.208 191.43 74.208C190.275 74.208 189.461 73.339 189.461 72.206C189.461 71.062 190.275 70.226 191.397 70.226C192.343 70.226 192.937 70.864 192.937 70.864L193.443 70.116C193.443 70.116 192.75 69.302 191.353 69.302C189.604 69.302 188.372 70.567 188.372 72.217ZM197.432 75H202.437V74.054H198.587C198.609 72.283 202.316 71.887 202.316 69.335C202.316 67.993 201.293 67.102 199.863 67.102C198.114 67.102 197.41 68.576 197.41 68.576L198.213 69.115C198.213 69.115 198.763 68.125 199.786 68.125C200.6 68.125 201.183 68.642 201.183 69.412C201.183 71.238 197.377 71.634 197.377 74.406C197.377 74.593 197.399 74.791 197.432 75ZM206.499 75.132C208.578 75.132 209.249 73.35 209.249 71.106C209.249 68.873 208.578 67.102 206.499 67.102C204.431 67.102 203.76 68.873 203.76 71.106C203.76 73.35 204.431 75.132 206.499 75.132ZM206.499 74.131C205.234 74.131 204.871 72.8 204.871 71.106C204.871 69.423 205.234 68.103 206.499 68.103C207.775 68.103 208.138 69.423 208.138 71.106C208.138 72.8 207.775 74.131 206.499 74.131ZM210.602 75H215.607V74.054H211.757C211.779 72.283 215.486 71.887 215.486 69.335C215.486 67.993 214.463 67.102 213.033 67.102C211.284 67.102 210.58 68.576 210.58 68.576L211.383 69.115C211.383 69.115 211.933 68.125 212.956 68.125C213.77 68.125 214.353 68.642 214.353 69.412C214.353 71.238 210.547 71.634 210.547 74.406C210.547 74.593 210.569 74.791 210.602 75ZM216.853 75H221.319V74.054H219.625V67.234H218.657L216.798 69.038L217.458 69.72L218.184 69.005C218.47 68.73 218.558 68.554 218.558 68.554H218.58C218.58 68.554 218.569 68.796 218.569 69.038V74.054H216.853V75Z" fill="white"/>
<path d="M118.54 29.725C118.54 29.725 119.845 31.18 122.215 31.18C124.435 31.18 125.725 29.755 125.725 28.06C125.725 24.655 120.715 25.12 120.715 23.23C120.715 22.48 121.42 21.955 122.32 21.955C123.655 21.955 124.675 22.885 124.675 22.885L125.515 21.31C125.515 21.31 124.435 20.17 122.335 20.17C120.295 20.17 118.765 21.49 118.765 23.26C118.765 26.53 123.79 26.2 123.79 28.105C123.79 28.975 123.055 29.395 122.245 29.395C120.745 29.395 119.59 28.27 119.59 28.27L118.54 29.725ZM127.356 34H129.261V30.79C129.261 30.4 129.231 30.13 129.231 30.13H129.261C129.261 30.13 129.936 31.18 131.451 31.18C133.461 31.18 134.946 29.605 134.946 27.175C134.946 24.805 133.626 23.17 131.556 23.17C129.756 23.17 129.096 24.43 129.096 24.43H129.066C129.066 24.43 129.096 24.19 129.096 23.905V23.35H127.356V34ZM129.201 27.22C129.201 25.525 130.131 24.805 131.121 24.805C132.246 24.805 133.026 25.75 133.026 27.205C133.026 28.72 132.156 29.575 131.106 29.575C129.846 29.575 129.201 28.405 129.201 27.22ZM135.986 27.175C135.986 29.35 137.561 31.18 140.096 31.18C142.001 31.18 143.171 30.085 143.171 30.085L142.436 28.72C142.436 28.72 141.461 29.56 140.231 29.56C139.091 29.56 138.056 28.87 137.936 27.535H143.216C143.216 27.535 143.261 27.025 143.261 26.8C143.261 24.775 142.076 23.17 139.871 23.17C137.591 23.17 135.986 24.82 135.986 27.175ZM137.996 26.23C138.176 25.24 138.851 24.64 139.826 24.64C140.666 24.64 141.311 25.195 141.341 26.23H137.996ZM144.831 31H146.736V27.49C146.736 27.13 146.766 26.785 146.871 26.47C147.156 25.555 147.906 24.91 148.926 24.91C149.901 24.91 150.141 25.54 150.141 26.47V31H152.031V26.08C152.031 24.055 151.071 23.17 149.376 23.17C147.831 23.17 146.991 24.115 146.661 24.76H146.631C146.631 24.76 146.661 24.52 146.661 24.235V23.35H144.831V31ZM153.505 27.175C153.505 29.545 154.825 31.18 156.895 31.18C158.65 31.18 159.295 29.875 159.295 29.875H159.325C159.325 29.875 159.295 30.085 159.295 30.37V31H161.095V20.35H159.19V23.71C159.19 23.95 159.205 24.145 159.205 24.145H159.175C159.175 24.145 158.65 23.17 156.97 23.17C154.945 23.17 153.505 24.745 153.505 27.175ZM155.425 27.175C155.425 25.66 156.295 24.805 157.345 24.805C158.62 24.805 159.25 25.975 159.25 27.16C159.25 28.855 158.32 29.575 157.33 29.575C156.205 29.575 155.425 28.63 155.425 27.175ZM173.343 31H175.338L171.588 20.35H169.563L165.813 31H167.808L168.708 28.27H172.443L173.343 31ZM170.598 22.195C170.598 22.195 170.823 23.245 171.018 23.845L171.963 26.695H169.173L170.118 23.845C170.328 23.245 170.568 22.195 170.568 22.195H170.598ZM176.699 31H183.314V29.335H178.634V26.47H182.219V24.805H178.634V22.015H183.074V20.35H176.699V31ZM185.327 31H188.957C192.242 31 194.387 29.02 194.387 25.66C194.387 22.3 192.242 20.35 188.957 20.35H185.327V31ZM187.262 29.335V22.015H188.852C190.982 22.015 192.392 23.29 192.392 25.66C192.392 28.06 191.012 29.335 188.852 29.335H187.262ZM195.71 29.74C195.71 29.74 196.865 31.18 199.115 31.18C201.335 31.18 202.955 29.62 202.955 27.52C202.955 25.6 201.56 24.025 199.205 24.025C198.56 24.025 198.065 24.265 198.065 24.265H198.035C198.035 24.265 198.08 24.055 198.11 23.77L198.275 22.015H202.205V20.35H196.61L196.115 25.75L197.18 26.14C197.18 26.14 197.885 25.69 198.83 25.69C200.045 25.69 200.975 26.425 200.975 27.535C200.975 28.66 200 29.35 198.965 29.35C197.585 29.35 196.7 28.285 196.7 28.285L195.71 29.74ZM208.315 31.18C211.225 31.18 212.185 28.72 212.185 25.66C212.185 22.6 211.225 20.17 208.315 20.17C205.405 20.17 204.46 22.6 204.46 25.66C204.46 28.72 205.405 31.18 208.315 31.18ZM208.315 29.41C206.86 29.41 206.44 27.76 206.44 25.66C206.44 23.59 206.86 21.955 208.315 21.955C209.77 21.955 210.19 23.59 210.19 25.66C210.19 27.76 209.77 29.41 208.315 29.41ZM217.749 31.18C220.659 31.18 221.619 28.72 221.619 25.66C221.619 22.6 220.659 20.17 217.749 20.17C214.839 20.17 213.894 22.6 213.894 25.66C213.894 28.72 214.839 31.18 217.749 31.18ZM217.749 29.41C216.294 29.41 215.874 27.76 215.874 25.66C215.874 23.59 216.294 21.955 217.749 21.955C219.204 21.955 219.624 23.59 219.624 25.66C219.624 27.76 219.204 29.41 217.749 29.41ZM227.29 27.55H231.805V25.885H227.29V27.55ZM237.163 29.725C237.163 29.725 238.468 31.18 240.838 31.18C243.058 31.18 244.348 29.755 244.348 28.06C244.348 24.655 239.338 25.12 239.338 23.23C239.338 22.48 240.043 21.955 240.943 21.955C242.278 21.955 243.298 22.885 243.298 22.885L244.138 21.31C244.138 21.31 243.058 20.17 240.958 20.17C238.918 20.17 237.388 21.49 237.388 23.26C237.388 26.53 242.413 26.2 242.413 28.105C242.413 28.975 241.678 29.395 240.868 29.395C239.368 29.395 238.213 28.27 238.213 28.27L237.163 29.725ZM245.334 28.795C245.334 30.325 246.564 31.18 247.929 31.18C249.669 31.18 250.269 29.83 250.254 29.83H250.284C250.284 29.83 250.254 30.07 250.254 30.37V31H252.009V26.215C252.009 24.28 250.839 23.17 248.829 23.17C247.014 23.17 245.829 24.115 245.829 24.115L246.549 25.48C246.549 25.48 247.554 24.745 248.649 24.745C249.489 24.745 250.119 25.09 250.119 26.095V26.2H249.864C248.619 26.2 245.334 26.365 245.334 28.795ZM247.254 28.705C247.254 27.64 248.829 27.505 249.804 27.505H250.134V27.685C250.134 28.615 249.414 29.695 248.409 29.695C247.629 29.695 247.254 29.215 247.254 28.705ZM255.716 31H257.966L260.711 23.35H258.701L257.111 28.09C256.961 28.54 256.856 29.245 256.841 29.245H256.811C256.796 29.245 256.691 28.54 256.541 28.09L254.951 23.35H252.941L255.716 31ZM261.23 27.175C261.23 29.35 262.805 31.18 265.34 31.18C267.245 31.18 268.415 30.085 268.415 30.085L267.68 28.72C267.68 28.72 266.705 29.56 265.475 29.56C264.335 29.56 263.3 28.87 263.18 27.535H268.46C268.46 27.535 268.505 27.025 268.505 26.8C268.505 24.775 267.32 23.17 265.115 23.17C262.835 23.17 261.23 24.82 261.23 27.175ZM263.24 26.23C263.42 25.24 264.095 24.64 265.07 24.64C265.91 24.64 266.555 25.195 266.585 26.23H263.24ZM280.218 31H282.213L278.463 20.35H276.438L272.688 31H274.683L275.583 28.27H279.318L280.218 31ZM277.473 22.195C277.473 22.195 277.698 23.245 277.893 23.845L278.838 26.695H276.048L276.993 23.845C277.203 23.245 277.443 22.195 277.443 22.195H277.473ZM283.574 31H290.189V29.335H285.509V26.47H289.094V24.805H285.509V22.015H289.949V20.35H283.574V31ZM292.202 31H295.832C299.117 31 301.262 29.02 301.262 25.66C301.262 22.3 299.117 20.35 295.832 20.35H292.202V31ZM294.137 29.335V22.015H295.727C297.857 22.015 299.267 23.29 299.267 25.66C299.267 28.06 297.887 29.335 295.727 29.335H294.137ZM302.75 31H309.26V29.335H306.95V20.35H305.255L302.585 22.915L303.725 24.115L304.58 23.305C304.925 22.96 305.045 22.705 305.045 22.705H305.075C305.075 22.705 305.06 23.065 305.06 23.425V29.335H302.75V31ZM310.456 31H317.521V29.335H312.541C312.586 27.325 317.356 26.74 317.356 23.32C317.356 21.31 315.766 20.17 313.891 20.17C311.341 20.17 310.366 22.3 310.366 22.3L311.806 23.26C311.806 23.26 312.481 22 313.726 22C314.626 22 315.346 22.555 315.346 23.485C315.346 25.6 310.366 26.215 310.366 30.055C310.366 30.355 310.411 30.655 310.456 31ZM318.962 29.74C318.962 29.74 320.117 31.18 322.367 31.18C324.587 31.18 326.207 29.62 326.207 27.52C326.207 25.6 324.812 24.025 322.457 24.025C321.812 24.025 321.317 24.265 321.317 24.265H321.287C321.287 24.265 321.332 24.055 321.362 23.77L321.527 22.015H325.457V20.35H319.862L319.367 25.75L320.432 26.14C320.432 26.14 321.137 25.69 322.082 25.69C323.297 25.69 324.227 26.425 324.227 27.535C324.227 28.66 323.252 29.35 322.217 29.35C320.837 29.35 319.952 28.285 319.952 28.285L318.962 29.74Z" fill="white"/>
<line opacity="0.4" x1="94.5" y1="4" x2="94.5" y2="88" stroke="white" stroke-linejoin="round" stroke-dasharray="2 2"/>
<path d="M392.568 46H405.756V42.892H396.46C396.544 39.14 405.448 38.048 405.448 31.664C405.448 27.912 402.48 25.784 398.98 25.784C394.22 25.784 392.4 29.76 392.4 29.76L395.088 31.552C395.088 31.552 396.348 29.2 398.672 29.2C400.352 29.2 401.696 30.236 401.696 31.972C401.696 35.92 392.4 37.068 392.4 44.236C392.4 44.796 392.484 45.356 392.568 46Z" fill="white"/>
<path d="M377.615 61.6C377.615 64.735 379.985 67.18 383.12 67.18C386.255 67.18 388.625 64.735 388.625 61.6C388.625 58.555 386.255 56.17 383.12 56.17C379.985 56.17 377.615 58.555 377.615 61.6ZM379.61 61.6C379.61 59.5 381.17 57.94 383.12 57.94C385.07 57.94 386.63 59.5 386.63 61.6C386.63 63.79 385.07 65.41 383.12 65.41C381.17 65.41 379.61 63.79 379.61 61.6ZM390.686 67H392.591V60.985H394.226V59.47H392.591V59.17C392.591 58.06 393.521 57.925 394.061 57.925C394.286 57.925 394.451 57.955 394.451 57.955V56.335C394.451 56.335 394.196 56.29 393.806 56.29C392.741 56.29 390.686 56.62 390.686 59.125V59.47H389.741V60.985H390.686V67ZM395.886 67H397.791V60.985H399.426V59.47H397.791V59.17C397.791 58.06 398.721 57.925 399.261 57.925C399.486 57.925 399.651 57.955 399.651 57.955V56.335C399.651 56.335 399.396 56.29 399.006 56.29C397.941 56.29 395.886 56.62 395.886 59.125V59.47H394.941V60.985H395.886V67ZM400.156 63.175C400.156 65.35 401.731 67.18 404.266 67.18C406.171 67.18 407.341 66.085 407.341 66.085L406.606 64.72C406.606 64.72 405.631 65.56 404.401 65.56C403.261 65.56 402.226 64.87 402.106 63.535H407.386C407.386 63.535 407.431 63.025 407.431 62.8C407.431 60.775 406.246 59.17 404.041 59.17C401.761 59.17 400.156 60.82 400.156 63.175ZM402.166 62.23C402.346 61.24 403.021 60.64 403.996 60.64C404.836 60.64 405.481 61.195 405.511 62.23H402.166ZM409.002 67H410.907V63.97C410.907 63.52 410.952 63.1 411.072 62.725C411.432 61.585 412.347 61.12 413.157 61.12C413.412 61.12 413.607 61.15 413.607 61.15V59.275C413.607 59.275 413.442 59.245 413.262 59.245C412.092 59.245 411.177 60.115 410.832 61.21H410.802C410.802 61.21 410.832 60.955 410.832 60.67V59.35H409.002V67ZM414.246 66.055C414.246 66.055 415.311 67.18 417.216 67.18C419.031 67.18 420.141 66.16 420.141 64.885C420.141 62.425 416.421 62.56 416.421 61.48C416.421 61 416.901 60.79 417.396 60.79C418.566 60.79 419.271 61.45 419.271 61.45L419.976 60.04C419.976 60.04 419.136 59.17 417.411 59.17C415.761 59.17 414.486 59.995 414.486 61.42C414.486 63.88 418.206 63.73 418.206 64.87C418.206 65.32 417.741 65.56 417.201 65.56C415.956 65.56 415.116 64.72 415.116 64.72L414.246 66.055Z" fill="white"/>
<line opacity="0.4" x1="352.5" y1="4" x2="352.5" y2="88" stroke="white" stroke-linejoin="round" stroke-dasharray="2 2"/>
<line opacity="0.4" x1="444.5" y1="4" x2="444.5" y2="88" stroke="white" stroke-linejoin="round" stroke-dasharray="2 2"/>
<path d="M462.98 41.676C462.98 41.676 465.332 44.336 469.56 44.336C473.984 44.336 476.56 41.2 476.56 37.812C476.56 34.368 473.872 32.408 471.128 32.016L476 26.388V24.12H463.848V27.228H469.784C470.96 27.228 471.548 27.144 471.548 27.144V27.2C471.548 27.2 470.904 27.788 470.12 28.712L466.48 33.024L467.292 34.872H468.664C470.988 34.872 472.92 35.852 472.92 37.952C472.92 39.66 471.408 40.92 469.336 40.92C466.704 40.92 464.828 38.904 464.828 38.904L462.98 41.676ZM479.646 44H492.834V40.892H483.538C483.622 37.14 492.526 36.048 492.526 29.664C492.526 25.912 489.558 23.784 486.058 23.784C481.298 23.784 479.478 27.76 479.478 27.76L482.166 29.552C482.166 29.552 483.426 27.2 485.75 27.2C487.43 27.2 488.774 28.236 488.774 29.972C488.774 33.92 479.478 35.068 479.478 42.236C479.478 42.796 479.562 43.356 479.646 44ZM503.112 44.336C508.544 44.336 510.336 39.744 510.336 34.032C510.336 28.32 508.544 23.784 503.112 23.784C497.68 23.784 495.916 28.32 495.916 34.032C495.916 39.744 497.68 44.336 503.112 44.336ZM503.112 41.032C500.396 41.032 499.612 37.952 499.612 34.032C499.612 30.168 500.396 27.116 503.112 27.116C505.828 27.116 506.612 30.168 506.612 34.032C506.612 37.952 505.828 41.032 503.112 41.032ZM519.475 44H521.47L517.72 33.35H515.695L511.945 44H513.94L514.84 41.27H518.575L519.475 44ZM516.73 35.195C516.73 35.195 516.955 36.245 517.15 36.845L518.095 39.695H515.305L516.25 36.845C516.46 36.245 516.7 35.195 516.7 35.195H516.73ZM522.83 44H529.445V42.335H524.765V39.47H528.35V37.805H524.765V35.015H529.205V33.35H522.83V44ZM531.458 44H535.088C538.373 44 540.518 42.02 540.518 38.66C540.518 35.3 538.373 33.35 535.088 33.35H531.458V44ZM533.393 42.335V35.015H534.983C537.113 35.015 538.523 36.29 538.523 38.66C538.523 41.06 537.143 42.335 534.983 42.335H533.393Z" fill="white"/>
<path d="M463.35 68H469.965V66.335H465.285V63.47H468.87V61.805H465.285V59.015H469.725V57.35H463.35V68ZM471.033 67.055C471.033 67.055 472.098 68.18 474.003 68.18C475.818 68.18 476.928 67.16 476.928 65.885C476.928 63.425 473.208 63.56 473.208 62.48C473.208 62 473.688 61.79 474.183 61.79C475.353 61.79 476.058 62.45 476.058 62.45L476.763 61.04C476.763 61.04 475.923 60.17 474.198 60.17C472.548 60.17 471.273 60.995 471.273 62.42C471.273 64.88 474.993 64.73 474.993 65.87C474.993 66.32 474.528 66.56 473.988 66.56C472.743 66.56 471.903 65.72 471.903 65.72L471.033 67.055ZM478.79 65.195C478.79 67.76 480.905 68.075 481.97 68.075C482.33 68.075 482.555 68.03 482.555 68.03V66.365C482.555 66.365 482.42 66.395 482.21 66.395C481.685 66.395 480.695 66.215 480.695 64.955V61.985H482.435V60.47H480.695V58.265H478.835V60.47H477.8V61.985H478.79V65.195ZM484.039 68H485.944V66.095H484.039V68ZM491.104 66.725C491.104 66.725 492.409 68.18 494.779 68.18C496.999 68.18 498.289 66.755 498.289 65.06C498.289 61.655 493.279 62.12 493.279 60.23C493.279 59.48 493.984 58.955 494.884 58.955C496.219 58.955 497.239 59.885 497.239 59.885L498.079 58.31C498.079 58.31 496.999 57.17 494.899 57.17C492.859 57.17 491.329 58.49 491.329 60.26C491.329 63.53 496.354 63.2 496.354 65.105C496.354 65.975 495.619 66.395 494.809 66.395C493.309 66.395 492.154 65.27 492.154 65.27L491.104 66.725ZM499.275 65.795C499.275 67.325 500.505 68.18 501.87 68.18C503.61 68.18 504.21 66.83 504.195 66.83H504.225C504.225 66.83 504.195 67.07 504.195 67.37V68H505.95V63.215C505.95 61.28 504.78 60.17 502.77 60.17C500.955 60.17 499.77 61.115 499.77 61.115L500.49 62.48C500.49 62.48 501.495 61.745 502.59 61.745C503.43 61.745 504.06 62.09 504.06 63.095V63.2H503.805C502.56 63.2 499.275 63.365 499.275 65.795ZM501.195 65.705C501.195 64.64 502.77 64.505 503.745 64.505H504.075V64.685C504.075 65.615 503.355 66.695 502.35 66.695C501.57 66.695 501.195 66.215 501.195 65.705ZM509.658 68H511.908L514.653 60.35H512.643L511.053 65.09C510.903 65.54 510.798 66.245 510.783 66.245H510.753C510.738 66.245 510.633 65.54 510.483 65.09L508.893 60.35H506.883L509.658 68ZM515.711 59.045H517.601V57.35H515.711V59.045ZM515.711 68H517.616V60.35H515.711V68ZM519.71 68H521.615V64.49C521.615 64.13 521.645 63.785 521.75 63.47C522.035 62.555 522.785 61.91 523.805 61.91C524.78 61.91 525.02 62.54 525.02 63.47V68H526.91V63.08C526.91 61.055 525.95 60.17 524.255 60.17C522.71 60.17 521.87 61.115 521.54 61.76H521.51C521.51 61.76 521.54 61.52 521.54 61.235V60.35H519.71V68ZM529.689 69.035L529.119 70.49C529.854 70.88 530.874 71.15 531.834 71.15C533.829 71.15 535.869 70.16 535.869 67.535V60.35H534.084V60.935C534.084 61.055 534.099 61.145 534.099 61.145H534.054C534.054 61.145 533.454 60.17 531.789 60.17C529.584 60.17 528.399 61.88 528.399 63.98C528.399 66.08 529.644 67.85 531.834 67.85C532.854 67.85 533.514 67.49 533.964 66.815H533.994C533.994 66.815 533.964 67.04 533.964 67.22V67.67C533.964 69.035 532.974 69.53 531.804 69.53C530.649 69.53 529.689 69.035 529.689 69.035ZM532.239 66.245C531.009 66.245 530.319 65.255 530.319 63.92C530.319 62.63 530.964 61.79 532.119 61.79C533.154 61.79 534.009 62.255 534.009 63.995C534.009 65.72 533.154 66.245 532.239 66.245ZM537.317 67.055C537.317 67.055 538.382 68.18 540.287 68.18C542.102 68.18 543.212 67.16 543.212 65.885C543.212 63.425 539.492 63.56 539.492 62.48C539.492 62 539.972 61.79 540.467 61.79C541.637 61.79 542.342 62.45 542.342 62.45L543.047 61.04C543.047 61.04 542.207 60.17 540.482 60.17C538.832 60.17 537.557 60.995 537.557 62.42C537.557 64.88 541.277 64.73 541.277 65.87C541.277 66.32 540.812 66.56 540.272 66.56C539.027 66.56 538.187 65.72 538.187 65.72L537.317 67.055Z" fill="white"/>
<g filter="url(#filter2_d_815_419)">
<mask id="path-31-inside-3_815_419" fill="white">
<path fill-rule="evenodd" clip-rule="evenodd" d="M2 10C2 4.47715 6.47715 0 12 0H563C568.523 0 573 4.47715 573 10V33C567.477 33 563 37.4772 563 43C563 48.5228 567.477 53 573 53V76C573 81.5229 568.523 86 563 86H12C6.47716 86 2 81.5229 2 76V53.0001C7.52285 53.0001 12 48.523 12 43.0001C12 37.4773 7.52285 33.0001 2 33.0001V10Z"/>
</mask>
<path fill-rule="evenodd" clip-rule="evenodd" d="M2 10C2 4.47715 6.47715 0 12 0H563C568.523 0 573 4.47715 573 10V33C567.477 33 563 37.4772 563 43C563 48.5228 567.477 53 573 53V76C573 81.5229 568.523 86 563 86H12C6.47716 86 2 81.5229 2 76V53.0001C7.52285 53.0001 12 48.523 12 43.0001C12 37.4773 7.52285 33.0001 2 33.0001V10Z" fill="url(#paint2_linear_815_419)"/>
<path d="M573 33V34H574V33H573ZM573 53H574V52H573V53ZM2 53.0001V52.0001H1V53.0001H2ZM2 33.0001H1V34.0001H2V33.0001ZM12 -1C5.92487 -1 1 3.92487 1 10H3C3 5.02944 7.02944 1 12 1V-1ZM563 -1H12V1H563V-1ZM574 10C574 3.92487 569.075 -1 563 -1V1C567.971 1 572 5.02944 572 10H574ZM574 33V10H572V33H574ZM564 43C564 38.0294 568.029 34 573 34V32C566.925 32 562 36.9249 562 43H564ZM573 52C568.029 52 564 47.9706 564 43H562C562 49.0751 566.925 54 573 54V52ZM574 76V53H572V76H574ZM563 87C569.075 87 574 82.0751 574 76H572C572 80.9706 567.971 85 563 85V87ZM12 87H563V85H12V87ZM1 76C1 82.0751 5.92488 87 12 87V85C7.02945 85 3 80.9706 3 76H1ZM1 53.0001V76H3V53.0001H1ZM11 43.0001C11 47.9707 6.97056 52.0001 2 52.0001V54.0001C8.07513 54.0001 13 49.0753 13 43.0001H11ZM2 34.0001C6.97056 34.0001 11 38.0296 11 43.0001H13C13 36.925 8.07513 32.0001 2 32.0001V34.0001ZM1 10V33.0001H3V10H1Z" fill="#B883D7" mask="url(#path-31-inside-3_815_419)"/>
</g>
<path fill-rule="evenodd" clip-rule="evenodd" d="M73.0426 42.0419C72.512 42.0419 72.0824 42.4707 72.0824 43C72.0824 45.847 71.5264 48.6082 70.4273 51.2067C69.3646 53.7167 67.8457 55.9712 65.9084 57.9085C63.9711 59.8458 61.7167 61.3647 59.2066 62.4274C56.6081 63.5265 53.8469 64.0825 50.9999 64.0825C48.1529 64.0825 45.3917 63.5265 42.7939 62.4274C40.2839 61.3647 38.0287 59.8458 36.0914 57.9085C34.1548 55.9713 32.6345 53.7167 31.5725 51.2067C30.474 48.6082 29.9167 45.847 29.9167 43C29.9167 40.153 30.474 37.3918 31.5725 34.794C32.6345 32.2833 34.1548 30.0288 36.0914 28.0915C38.0286 26.1549 40.2839 24.6346 42.7939 23.5726C45.3917 22.4735 48.1529 21.9168 50.9999 21.9168C53.8469 21.9168 56.6081 22.4734 59.2066 23.5726C61.5285 24.5553 63.6342 25.9318 65.4704 27.6668H61.9525C61.4247 27.6668 60.9951 28.0956 60.9951 28.6249C60.9951 29.1542 61.4247 29.583 61.9525 29.583H67.7025C68.2331 29.583 68.6627 29.1542 68.6627 28.6249V22.875C68.6627 22.3457 68.2332 21.9169 67.7025 21.9169C67.1747 21.9169 66.7451 22.3457 66.7451 22.875V26.235C62.6292 22.3682 57.0925 20 51 20C38.2976 20 28 30.2976 28 43C28 55.7017 38.2976 66 51 66C63.7017 66 74 55.7017 74 43C74 42.4707 73.5705 42.0419 73.0426 42.0419ZM37.583 33.4169V41.0831V48.75H64.4175V41.0831V33.4169H37.583ZM62.4999 41.0831V46.8323H39.4999V41.0831V35.3331H62.4999V41.0831ZM46.1914 41.0235C46.1914 38.3773 48.3364 36.2316 50.9833 36.2316C53.6295 36.2316 55.7745 38.3773 55.7745 41.0235C55.7745 43.6696 53.6295 45.8161 50.9833 45.8161C48.3365 45.8161 46.1914 43.6696 46.1914 41.0235ZM48.1083 41.0235C48.1083 42.6084 49.3977 43.8985 50.9833 43.8985C52.5682 43.8985 53.8583 42.6084 53.8583 41.0235C53.8583 39.4379 52.5682 38.1485 50.9833 38.1485C49.3977 38.1485 48.1083 39.4379 48.1083 41.0235ZM63.4573 49.7074H38.5418C38.0126 49.7074 37.583 50.1369 37.583 50.6676C37.583 51.1955 38.0126 51.625 38.5418 51.625H63.4573C63.9879 51.625 64.4175 51.1955 64.4175 50.6676C64.4175 50.137 63.9879 49.7074 63.4573 49.7074ZM38.5418 52.5824H63.4573C63.9879 52.5824 64.4175 53.012 64.4175 53.5426C64.4175 54.0705 63.9879 54.5 63.4573 54.5H38.5418C38.0126 54.5 37.583 54.0705 37.583 53.5426C37.583 53.0119 38.0126 52.5824 38.5418 52.5824Z" fill="white"/>
<path d="M118.594 50H123.368V48.779H121.674V42.19H120.431L118.473 44.071L119.309 44.951L119.936 44.357C120.189 44.104 120.277 43.917 120.277 43.917H120.299C120.299 43.917 120.288 44.181 120.288 44.445V48.779H118.594V50ZM127.074 52.2H128.471V49.846C128.471 49.56 128.449 49.362 128.449 49.362H128.471C128.471 49.362 128.966 50.132 130.077 50.132C131.551 50.132 132.64 48.977 132.64 47.195C132.64 45.457 131.672 44.258 130.154 44.258C128.834 44.258 128.35 45.182 128.35 45.182H128.328C128.328 45.182 128.35 45.006 128.35 44.797V44.39H127.074V52.2ZM128.427 47.228C128.427 45.985 129.109 45.457 129.835 45.457C130.66 45.457 131.232 46.15 131.232 47.217C131.232 48.328 130.594 48.955 129.824 48.955C128.9 48.955 128.427 48.097 128.427 47.228ZM133.402 47.195C133.402 48.79 134.557 50.132 136.416 50.132C137.813 50.132 138.671 49.329 138.671 49.329L138.132 48.328C138.132 48.328 137.417 48.944 136.515 48.944C135.679 48.944 134.92 48.438 134.832 47.459H138.704C138.704 47.459 138.737 47.085 138.737 46.92C138.737 45.435 137.868 44.258 136.251 44.258C134.579 44.258 133.402 45.468 133.402 47.195ZM134.876 46.502C135.008 45.776 135.503 45.336 136.218 45.336C136.834 45.336 137.307 45.743 137.329 46.502H134.876ZM139.471 47.195C139.471 48.922 140.846 50.132 142.562 50.132C144.267 50.132 145.642 48.922 145.642 47.195C145.642 45.479 144.267 44.258 142.551 44.258C140.846 44.258 139.471 45.479 139.471 47.195ZM140.89 47.195C140.89 46.161 141.649 45.446 142.562 45.446C143.464 45.446 144.223 46.161 144.223 47.195C144.223 48.24 143.464 48.944 142.562 48.944C141.649 48.944 140.89 48.24 140.89 47.195ZM146.764 52.2H148.161V49.846C148.161 49.56 148.139 49.362 148.139 49.362H148.161C148.161 49.362 148.656 50.132 149.767 50.132C151.241 50.132 152.33 48.977 152.33 47.195C152.33 45.457 151.362 44.258 149.844 44.258C148.524 44.258 148.04 45.182 148.04 45.182H148.018C148.018 45.182 148.04 45.006 148.04 44.797V44.39H146.764V52.2ZM148.117 47.228C148.117 45.985 148.799 45.457 149.525 45.457C150.35 45.457 150.922 46.15 150.922 47.217C150.922 48.328 150.284 48.955 149.514 48.955C148.59 48.955 148.117 48.097 148.117 47.228ZM153.412 48.251C153.412 49.857 154.369 50.055 155.139 50.055C155.37 50.055 155.579 50.022 155.579 50.022V48.801C155.579 48.801 155.48 48.812 155.37 48.812C155.007 48.812 154.798 48.658 154.798 48.042V42.19H153.412V48.251ZM156.219 47.195C156.219 48.79 157.374 50.132 159.233 50.132C160.63 50.132 161.488 49.329 161.488 49.329L160.949 48.328C160.949 48.328 160.234 48.944 159.332 48.944C158.496 48.944 157.737 48.438 157.649 47.459H161.521C161.521 47.459 161.554 47.085 161.554 46.92C161.554 45.435 160.685 44.258 159.068 44.258C157.396 44.258 156.219 45.468 156.219 47.195ZM157.693 46.502C157.825 45.776 158.32 45.336 159.035 45.336C159.651 45.336 160.124 45.743 160.146 46.502H157.693Z" fill="white"/>
<path d="M174.539 47.404H176.915V50H178.048V47.404H180.424V46.315H178.048V43.708H176.915V46.315H174.539V47.404ZM181.346 49.087C181.346 49.087 182.27 50.132 183.931 50.132C185.669 50.132 186.681 48.9 186.681 47.569C186.681 46.216 185.625 45.446 184.547 45.292L186.461 43.081V42.19H181.687V43.411H184.019C184.481 43.411 184.712 43.378 184.712 43.378V43.4C184.712 43.4 184.459 43.631 184.151 43.994L182.721 45.688L183.04 46.414H183.579C184.492 46.414 185.251 46.799 185.251 47.624C185.251 48.295 184.657 48.79 183.843 48.79C182.809 48.79 182.072 47.998 182.072 47.998L181.346 49.087ZM190.731 50.132C192.865 50.132 193.569 48.328 193.569 46.084C193.569 43.84 192.865 42.058 190.731 42.058C188.597 42.058 187.904 43.84 187.904 46.084C187.904 48.328 188.597 50.132 190.731 50.132ZM190.731 48.834C189.664 48.834 189.356 47.624 189.356 46.084C189.356 44.566 189.664 43.367 190.731 43.367C191.798 43.367 192.106 44.566 192.106 46.084C192.106 47.624 191.798 48.834 190.731 48.834ZM197.167 49.307C197.167 49.307 197.948 50.132 199.345 50.132C200.676 50.132 201.49 49.384 201.49 48.449C201.49 46.645 198.762 46.744 198.762 45.952C198.762 45.6 199.114 45.446 199.477 45.446C200.335 45.446 200.852 45.93 200.852 45.93L201.369 44.896C201.369 44.896 200.753 44.258 199.488 44.258C198.278 44.258 197.343 44.863 197.343 45.908C197.343 47.712 200.071 47.602 200.071 48.438C200.071 48.768 199.73 48.944 199.334 48.944C198.421 48.944 197.805 48.328 197.805 48.328L197.167 49.307ZM202.614 50H204.011V47.536C204.011 47.283 204.022 47.03 204.077 46.821C204.253 46.106 204.726 45.534 205.452 45.534C206.112 45.534 206.211 46.051 206.211 46.656V50H207.608V47.536C207.608 47.272 207.619 47.03 207.674 46.81C207.839 46.106 208.312 45.534 209.027 45.534C209.676 45.534 209.797 46.018 209.797 46.656V50H211.194V46.392C211.194 44.918 210.523 44.258 209.357 44.258C208.477 44.258 207.751 44.808 207.443 45.413H207.421C207.19 44.654 206.64 44.258 205.782 44.258C204.902 44.258 204.231 44.874 203.956 45.424H203.934C203.934 45.424 203.956 45.248 203.956 45.039V44.39H202.614V50ZM212.658 43.433H214.044V42.19H212.658V43.433ZM212.658 50H214.055V44.39H212.658V50ZM215.513 48.251C215.513 49.857 216.47 50.055 217.24 50.055C217.471 50.055 217.68 50.022 217.68 50.022V48.801C217.68 48.801 217.581 48.812 217.471 48.812C217.108 48.812 216.899 48.658 216.899 48.042V42.19H215.513V48.251ZM218.32 47.195C218.32 48.79 219.475 50.132 221.334 50.132C222.731 50.132 223.589 49.329 223.589 49.329L223.05 48.328C223.05 48.328 222.335 48.944 221.433 48.944C220.597 48.944 219.838 48.438 219.75 47.459H223.622C223.622 47.459 223.655 47.085 223.655 46.92C223.655 45.435 222.786 44.258 221.169 44.258C219.497 44.258 218.32 45.468 218.32 47.195ZM219.794 46.502C219.926 45.776 220.421 45.336 221.136 45.336C221.752 45.336 222.225 45.743 222.247 46.502H219.794ZM224.334 49.307C224.334 49.307 225.115 50.132 226.512 50.132C227.843 50.132 228.657 49.384 228.657 48.449C228.657 46.645 225.929 46.744 225.929 45.952C225.929 45.6 226.281 45.446 226.644 45.446C227.502 45.446 228.019 45.93 228.019 45.93L228.536 44.896C228.536 44.896 227.92 44.258 226.655 44.258C225.445 44.258 224.51 44.863 224.51 45.908C224.51 47.712 227.238 47.602 227.238 48.438C227.238 48.768 226.897 48.944 226.501 48.944C225.588 48.944 224.972 48.328 224.972 48.328L224.334 49.307Z" fill="white"/>
<circle cx="168" cy="47" r="2" fill="white"/>
<path d="M120.937 71H122.026L124.886 63.234H123.731L121.784 68.723C121.641 69.141 121.487 69.79 121.487 69.79H121.465C121.465 69.79 121.311 69.141 121.168 68.723L119.243 63.234H118.066L120.937 71ZM125.099 69.438C125.099 70.549 126.034 71.132 126.991 71.132C128.322 71.132 128.773 70.032 128.773 70.032H128.795C128.795 70.032 128.773 70.219 128.773 70.472V71H129.763V67.48C129.763 66.072 128.971 65.302 127.563 65.302C126.287 65.302 125.484 65.962 125.484 65.962L125.924 66.743C125.924 66.743 126.617 66.204 127.475 66.204C128.179 66.204 128.696 66.512 128.696 67.425V67.524H128.454C127.519 67.524 125.099 67.601 125.099 69.438ZM126.177 69.383C126.177 68.382 127.629 68.327 128.432 68.327H128.707V68.503C128.707 69.328 128.124 70.274 127.222 70.274C126.529 70.274 126.177 69.834 126.177 69.383ZM131.295 69.482C131.295 70.879 132.186 71.044 132.791 71.044C132.978 71.044 133.143 71.022 133.143 71.022V70.076C133.143 70.076 133.055 70.087 132.956 70.087C132.626 70.087 132.362 69.966 132.362 69.295V63.234H131.295V69.482ZM134.262 64.323H135.34V63.234H134.262V64.323ZM134.273 71H135.34V65.434H134.273V71ZM136.649 68.217C136.649 69.944 137.595 71.132 139.102 71.132C140.477 71.132 140.928 70.098 140.928 70.098H140.95C140.95 70.098 140.939 70.252 140.939 70.472V71H141.951V63.234H140.884V65.808C140.884 66.017 140.906 66.182 140.906 66.182H140.884C140.884 66.182 140.455 65.302 139.168 65.302C137.694 65.302 136.649 66.446 136.649 68.217ZM137.738 68.217C137.738 66.952 138.464 66.226 139.344 66.226C140.4 66.226 140.917 67.216 140.917 68.206C140.917 69.625 140.136 70.208 139.311 70.208C138.387 70.208 137.738 69.427 137.738 68.217ZM146.674 68.965C146.674 70.824 148.093 71.044 148.808 71.044C149.028 71.044 149.182 71.022 149.182 71.022V70.076C149.182 70.076 149.083 70.098 148.929 70.098C148.522 70.098 147.741 69.955 147.741 68.844V66.369H149.083V65.511H147.741V63.905H146.707V65.511H145.948V66.369H146.674V68.965ZM149.979 68.206C149.979 69.9 151.321 71.132 152.982 71.132C154.643 71.132 155.985 69.9 155.985 68.206C155.985 66.523 154.643 65.302 152.982 65.302C151.321 65.302 149.979 66.523 149.979 68.206ZM151.068 68.206C151.068 67.051 151.937 66.226 152.982 66.226C154.038 66.226 154.896 67.051 154.896 68.206C154.896 69.372 154.038 70.208 152.982 70.208C151.937 70.208 151.068 69.372 151.068 68.206ZM159.679 70.076C159.679 70.076 160.614 71.132 162.198 71.132C163.793 71.132 164.838 69.966 164.838 68.635C164.838 67.128 163.584 66.468 162.561 66.358L164.673 63.927V63.234H160.031V64.18H162.66C163.089 64.18 163.32 64.147 163.32 64.147V64.169C163.32 64.169 163.089 64.378 162.836 64.675L161.142 66.666L161.395 67.249H161.934C162.891 67.249 163.738 67.722 163.738 68.679C163.738 69.515 163.023 70.098 162.154 70.098C161.032 70.098 160.273 69.251 160.273 69.251L159.679 70.076ZM166.096 71H170.562V70.054H168.868V63.234H167.9L166.041 65.038L166.701 65.72L167.427 65.005C167.713 64.73 167.801 64.554 167.801 64.554H167.823C167.823 64.554 167.812 64.796 167.812 65.038V70.054H166.096V71ZM174.744 71H177.318C179.694 71 181.256 69.57 181.256 67.106C181.256 64.653 179.694 63.234 177.318 63.234H174.744V71ZM175.833 70.054V64.18H177.241C178.979 64.18 180.134 65.203 180.134 67.106C180.134 69.02 178.99 70.054 177.241 70.054H175.833ZM182.281 68.217C182.281 69.867 183.48 71.132 185.229 71.132C186.56 71.132 187.385 70.34 187.385 70.34L186.945 69.559C186.945 69.559 186.252 70.208 185.295 70.208C184.305 70.208 183.436 69.592 183.381 68.371H187.44C187.44 68.371 187.473 68.052 187.473 67.909C187.473 66.468 186.637 65.302 185.064 65.302C183.48 65.302 182.281 66.446 182.281 68.217ZM183.414 67.568C183.568 66.655 184.228 66.149 185.042 66.149C185.757 66.149 186.351 66.611 186.384 67.568H183.414ZM188.372 68.217C188.372 69.889 189.604 71.132 191.353 71.132C192.805 71.132 193.575 70.241 193.575 70.241L193.146 69.46C193.146 69.46 192.464 70.208 191.43 70.208C190.275 70.208 189.461 69.339 189.461 68.206C189.461 67.062 190.275 66.226 191.397 66.226C192.343 66.226 192.937 66.864 192.937 66.864L193.443 66.116C193.443 66.116 192.75 65.302 191.353 65.302C189.604 65.302 188.372 66.567 188.372 68.217ZM197.432 71H202.437V70.054H198.587C198.609 68.283 202.316 67.887 202.316 65.335C202.316 63.993 201.293 63.102 199.863 63.102C198.114 63.102 197.41 64.576 197.41 64.576L198.213 65.115C198.213 65.115 198.763 64.125 199.786 64.125C200.6 64.125 201.183 64.642 201.183 65.412C201.183 67.238 197.377 67.634 197.377 70.406C197.377 70.593 197.399 70.791 197.432 71ZM206.499 71.132C208.578 71.132 209.249 69.35 209.249 67.106C209.249 64.873 208.578 63.102 206.499 63.102C204.431 63.102 203.76 64.873 203.76 67.106C203.76 69.35 204.431 71.132 206.499 71.132ZM206.499 70.131C205.234 70.131 204.871 68.8 204.871 67.106C204.871 65.423 205.234 64.103 206.499 64.103C207.775 64.103 208.138 65.423 208.138 67.106C208.138 68.8 207.775 70.131 206.499 70.131ZM210.602 71H215.607V70.054H211.757C211.779 68.283 215.486 67.887 215.486 65.335C215.486 63.993 214.463 63.102 213.033 63.102C211.284 63.102 210.58 64.576 210.58 64.576L211.383 65.115C211.383 65.115 211.933 64.125 212.956 64.125C213.77 64.125 214.353 64.642 214.353 65.412C214.353 67.238 210.547 67.634 210.547 70.406C210.547 70.593 210.569 70.791 210.602 71ZM216.853 71H221.319V70.054H219.625V63.234H218.657L216.798 65.038L217.458 65.72L218.184 65.005C218.47 64.73 218.558 64.554 218.558 64.554H218.58C218.58 64.554 218.569 64.796 218.569 65.038V70.054H216.853V71Z" fill="white"/>
<path d="M118.54 25.725C118.54 25.725 119.845 27.18 122.215 27.18C124.435 27.18 125.725 25.755 125.725 24.06C125.725 20.655 120.715 21.12 120.715 19.23C120.715 18.48 121.42 17.955 122.32 17.955C123.655 17.955 124.675 18.885 124.675 18.885L125.515 17.31C125.515 17.31 124.435 16.17 122.335 16.17C120.295 16.17 118.765 17.49 118.765 19.26C118.765 22.53 123.79 22.2 123.79 24.105C123.79 24.975 123.055 25.395 122.245 25.395C120.745 25.395 119.59 24.27 119.59 24.27L118.54 25.725ZM127.356 30H129.261V26.79C129.261 26.4 129.231 26.13 129.231 26.13H129.261C129.261 26.13 129.936 27.18 131.451 27.18C133.461 27.18 134.946 25.605 134.946 23.175C134.946 20.805 133.626 19.17 131.556 19.17C129.756 19.17 129.096 20.43 129.096 20.43H129.066C129.066 20.43 129.096 20.19 129.096 19.905V19.35H127.356V30ZM129.201 23.22C129.201 21.525 130.131 20.805 131.121 20.805C132.246 20.805 133.026 21.75 133.026 23.205C133.026 24.72 132.156 25.575 131.106 25.575C129.846 25.575 129.201 24.405 129.201 23.22ZM135.986 23.175C135.986 25.35 137.561 27.18 140.096 27.18C142.001 27.18 143.171 26.085 143.171 26.085L142.436 24.72C142.436 24.72 141.461 25.56 140.231 25.56C139.091 25.56 138.056 24.87 137.936 23.535H143.216C143.216 23.535 143.261 23.025 143.261 22.8C143.261 20.775 142.076 19.17 139.871 19.17C137.591 19.17 135.986 20.82 135.986 23.175ZM137.996 22.23C138.176 21.24 138.851 20.64 139.826 20.64C140.666 20.64 141.311 21.195 141.341 22.23H137.996ZM144.831 27H146.736V23.49C146.736 23.13 146.766 22.785 146.871 22.47C147.156 21.555 147.906 20.91 148.926 20.91C149.901 20.91 150.141 21.54 150.141 22.47V27H152.031V22.08C152.031 20.055 151.071 19.17 149.376 19.17C147.831 19.17 146.991 20.115 146.661 20.76H146.631C146.631 20.76 146.661 20.52 146.661 20.235V19.35H144.831V27ZM153.505 23.175C153.505 25.545 154.825 27.18 156.895 27.18C158.65 27.18 159.295 25.875 159.295 25.875H159.325C159.325 25.875 159.295 26.085 159.295 26.37V27H161.095V16.35H159.19V19.71C159.19 19.95 159.205 20.145 159.205 20.145H159.175C159.175 20.145 158.65 19.17 156.97 19.17C154.945 19.17 153.505 20.745 153.505 23.175ZM155.425 23.175C155.425 21.66 156.295 20.805 157.345 20.805C158.62 20.805 159.25 21.975 159.25 23.16C159.25 24.855 158.32 25.575 157.33 25.575C156.205 25.575 155.425 24.63 155.425 23.175ZM173.343 27H175.338L171.588 16.35H169.563L165.813 27H167.808L168.708 24.27H172.443L173.343 27ZM170.598 18.195C170.598 18.195 170.823 19.245 171.018 19.845L171.963 22.695H169.173L170.118 19.845C170.328 19.245 170.568 18.195 170.568 18.195H170.598ZM176.699 27H183.314V25.335H178.634V22.47H182.219V20.805H178.634V18.015H183.074V16.35H176.699V27ZM185.327 27H188.957C192.242 27 194.387 25.02 194.387 21.66C194.387 18.3 192.242 16.35 188.957 16.35H185.327V27ZM187.262 25.335V18.015H188.852C190.982 18.015 192.392 19.29 192.392 21.66C192.392 24.06 191.012 25.335 188.852 25.335H187.262ZM195.71 25.74C195.71 25.74 196.865 27.18 199.115 27.18C201.335 27.18 202.955 25.62 202.955 23.52C202.955 21.6 201.56 20.025 199.205 20.025C198.56 20.025 198.065 20.265 198.065 20.265H198.035C198.035 20.265 198.08 20.055 198.11 19.77L198.275 18.015H202.205V16.35H196.61L196.115 21.75L197.18 22.14C197.18 22.14 197.885 21.69 198.83 21.69C200.045 21.69 200.975 22.425 200.975 23.535C200.975 24.66 200 25.35 198.965 25.35C197.585 25.35 196.7 24.285 196.7 24.285L195.71 25.74ZM208.315 27.18C211.225 27.18 212.185 24.72 212.185 21.66C212.185 18.6 211.225 16.17 208.315 16.17C205.405 16.17 204.46 18.6 204.46 21.66C204.46 24.72 205.405 27.18 208.315 27.18ZM208.315 25.41C206.86 25.41 206.44 23.76 206.44 21.66C206.44 19.59 206.86 17.955 208.315 17.955C209.77 17.955 210.19 19.59 210.19 21.66C210.19 23.76 209.77 25.41 208.315 25.41ZM217.749 27.18C220.659 27.18 221.619 24.72 221.619 21.66C221.619 18.6 220.659 16.17 217.749 16.17C214.839 16.17 213.894 18.6 213.894 21.66C213.894 24.72 214.839 27.18 217.749 27.18ZM217.749 25.41C216.294 25.41 215.874 23.76 215.874 21.66C215.874 19.59 216.294 17.955 217.749 17.955C219.204 17.955 219.624 19.59 219.624 21.66C219.624 23.76 219.204 25.41 217.749 25.41ZM227.29 23.55H231.805V21.885H227.29V23.55ZM237.163 25.725C237.163 25.725 238.468 27.18 240.838 27.18C243.058 27.18 244.348 25.755 244.348 24.06C244.348 20.655 239.338 21.12 239.338 19.23C239.338 18.48 240.043 17.955 240.943 17.955C242.278 17.955 243.298 18.885 243.298 18.885L244.138 17.31C244.138 17.31 243.058 16.17 240.958 16.17C238.918 16.17 237.388 17.49 237.388 19.26C237.388 22.53 242.413 22.2 242.413 24.105C242.413 24.975 241.678 25.395 240.868 25.395C239.368 25.395 238.213 24.27 238.213 24.27L237.163 25.725ZM245.334 24.795C245.334 26.325 246.564 27.18 247.929 27.18C249.669 27.18 250.269 25.83 250.254 25.83H250.284C250.284 25.83 250.254 26.07 250.254 26.37V27H252.009V22.215C252.009 20.28 250.839 19.17 248.829 19.17C247.014 19.17 245.829 20.115 245.829 20.115L246.549 21.48C246.549 21.48 247.554 20.745 248.649 20.745C249.489 20.745 250.119 21.09 250.119 22.095V22.2H249.864C248.619 22.2 245.334 22.365 245.334 24.795ZM247.254 24.705C247.254 23.64 248.829 23.505 249.804 23.505H250.134V23.685C250.134 24.615 249.414 25.695 248.409 25.695C247.629 25.695 247.254 25.215 247.254 24.705ZM255.716 27H257.966L260.711 19.35H258.701L257.111 24.09C256.961 24.54 256.856 25.245 256.841 25.245H256.811C256.796 25.245 256.691 24.54 256.541 24.09L254.951 19.35H252.941L255.716 27ZM261.23 23.175C261.23 25.35 262.805 27.18 265.34 27.18C267.245 27.18 268.415 26.085 268.415 26.085L267.68 24.72C267.68 24.72 266.705 25.56 265.475 25.56C264.335 25.56 263.3 24.87 263.18 23.535H268.46C268.46 23.535 268.505 23.025 268.505 22.8C268.505 20.775 267.32 19.17 265.115 19.17C262.835 19.17 261.23 20.82 261.23 23.175ZM263.24 22.23C263.42 21.24 264.095 20.64 265.07 20.64C265.91 20.64 266.555 21.195 266.585 22.23H263.24ZM280.218 27H282.213L278.463 16.35H276.438L272.688 27H274.683L275.583 24.27H279.318L280.218 27ZM277.473 18.195C277.473 18.195 277.698 19.245 277.893 19.845L278.838 22.695H276.048L276.993 19.845C277.203 19.245 277.443 18.195 277.443 18.195H277.473ZM283.574 27H290.189V25.335H285.509V22.47H289.094V20.805H285.509V18.015H289.949V16.35H283.574V27ZM292.202 27H295.832C299.117 27 301.262 25.02 301.262 21.66C301.262 18.3 299.117 16.35 295.832 16.35H292.202V27ZM294.137 25.335V18.015H295.727C297.857 18.015 299.267 19.29 299.267 21.66C299.267 24.06 297.887 25.335 295.727 25.335H294.137ZM302.75 27H309.26V25.335H306.95V16.35H305.255L302.585 18.915L303.725 20.115L304.58 19.305C304.925 18.96 305.045 18.705 305.045 18.705H305.075C305.075 18.705 305.06 19.065 305.06 19.425V25.335H302.75V27ZM310.456 27H317.521V25.335H312.541C312.586 23.325 317.356 22.74 317.356 19.32C317.356 17.31 315.766 16.17 313.891 16.17C311.341 16.17 310.366 18.3 310.366 18.3L311.806 19.26C311.806 19.26 312.481 18 313.726 18C314.626 18 315.346 18.555 315.346 19.485C315.346 21.6 310.366 22.215 310.366 26.055C310.366 26.355 310.411 26.655 310.456 27ZM318.962 25.74C318.962 25.74 320.117 27.18 322.367 27.18C324.587 27.18 326.207 25.62 326.207 23.52C326.207 21.6 324.812 20.025 322.457 20.025C321.812 20.025 321.317 20.265 321.317 20.265H321.287C321.287 20.265 321.332 20.055 321.362 19.77L321.527 18.015H325.457V16.35H319.862L319.367 21.75L320.432 22.14C320.432 22.14 321.137 21.69 322.082 21.69C323.297 21.69 324.227 22.425 324.227 23.535C324.227 24.66 323.252 25.35 322.217 25.35C320.837 25.35 319.952 24.285 319.952 24.285L318.962 25.74Z" fill="white"/>
<line opacity="0.4" x1="94.5" y1="2.18557e-08" x2="94.5" y2="84" stroke="white" stroke-linejoin="round" stroke-dasharray="2 2"/>
<path d="M391.98 39.676C391.98 39.676 394.332 42.336 398.56 42.336C402.984 42.336 405.56 39.2 405.56 35.812C405.56 32.368 402.872 30.408 400.128 30.016L405 24.388V22.12H392.848V25.228H398.784C399.96 25.228 400.548 25.144 400.548 25.144V25.2C400.548 25.2 399.904 25.788 399.12 26.712L395.48 31.024L396.292 32.872H397.664C399.988 32.872 401.92 33.852 401.92 35.952C401.92 37.66 400.408 38.92 398.336 38.92C395.704 38.92 393.828 36.904 393.828 36.904L391.98 39.676Z" fill="white"/>
<path d="M377.615 57.6C377.615 60.735 379.985 63.18 383.12 63.18C386.255 63.18 388.625 60.735 388.625 57.6C388.625 54.555 386.255 52.17 383.12 52.17C379.985 52.17 377.615 54.555 377.615 57.6ZM379.61 57.6C379.61 55.5 381.17 53.94 383.12 53.94C385.07 53.94 386.63 55.5 386.63 57.6C386.63 59.79 385.07 61.41 383.12 61.41C381.17 61.41 379.61 59.79 379.61 57.6ZM390.686 63H392.591V56.985H394.226V55.47H392.591V55.17C392.591 54.06 393.521 53.925 394.061 53.925C394.286 53.925 394.451 53.955 394.451 53.955V52.335C394.451 52.335 394.196 52.29 393.806 52.29C392.741 52.29 390.686 52.62 390.686 55.125V55.47H389.741V56.985H390.686V63ZM395.886 63H397.791V56.985H399.426V55.47H397.791V55.17C397.791 54.06 398.721 53.925 399.261 53.925C399.486 53.925 399.651 53.955 399.651 53.955V52.335C399.651 52.335 399.396 52.29 399.006 52.29C397.941 52.29 395.886 52.62 395.886 55.125V55.47H394.941V56.985H395.886V63ZM400.156 59.175C400.156 61.35 401.731 63.18 404.266 63.18C406.171 63.18 407.341 62.085 407.341 62.085L406.606 60.72C406.606 60.72 405.631 61.56 404.401 61.56C403.261 61.56 402.226 60.87 402.106 59.535H407.386C407.386 59.535 407.431 59.025 407.431 58.8C407.431 56.775 406.246 55.17 404.041 55.17C401.761 55.17 400.156 56.82 400.156 59.175ZM402.166 58.23C402.346 57.24 403.021 56.64 403.996 56.64C404.836 56.64 405.481 57.195 405.511 58.23H402.166ZM409.002 63H410.907V59.97C410.907 59.52 410.952 59.1 411.072 58.725C411.432 57.585 412.347 57.12 413.157 57.12C413.412 57.12 413.607 57.15 413.607 57.15V55.275C413.607 55.275 413.442 55.245 413.262 55.245C412.092 55.245 411.177 56.115 410.832 57.21H410.802C410.802 57.21 410.832 56.955 410.832 56.67V55.35H409.002V63ZM414.246 62.055C414.246 62.055 415.311 63.18 417.216 63.18C419.031 63.18 420.141 62.16 420.141 60.885C420.141 58.425 416.421 58.56 416.421 57.48C416.421 57 416.901 56.79 417.396 56.79C418.566 56.79 419.271 57.45 419.271 57.45L419.976 56.04C419.976 56.04 419.136 55.17 417.411 55.17C415.761 55.17 414.486 55.995 414.486 57.42C414.486 59.88 418.206 59.73 418.206 60.87C418.206 61.32 417.741 61.56 417.201 61.56C415.956 61.56 415.116 60.72 415.116 60.72L414.246 62.055Z" fill="white"/>
<line opacity="0.4" x1="352.5" y1="2.18557e-08" x2="352.5" y2="84" stroke="white" stroke-linejoin="round" stroke-dasharray="2 2"/>
<line opacity="0.4" x1="444.5" y1="2.18557e-08" x2="444.5" y2="84" stroke="white" stroke-linejoin="round" stroke-dasharray="2 2"/>
<path d="M462.98 37.676C462.98 37.676 465.332 40.336 469.56 40.336C473.984 40.336 476.56 37.2 476.56 33.812C476.56 30.368 473.872 28.408 471.128 28.016L476 22.388V20.12H463.848V23.228H469.784C470.96 23.228 471.548 23.144 471.548 23.144V23.2C471.548 23.2 470.904 23.788 470.12 24.712L466.48 29.024L467.292 30.872H468.664C470.988 30.872 472.92 31.852 472.92 33.952C472.92 35.66 471.408 36.92 469.336 36.92C466.704 36.92 464.828 34.904 464.828 34.904L462.98 37.676ZM479.646 40H492.834V36.892H483.538C483.622 33.14 492.526 32.048 492.526 25.664C492.526 21.912 489.558 19.784 486.058 19.784C481.298 19.784 479.478 23.76 479.478 23.76L482.166 25.552C482.166 25.552 483.426 23.2 485.75 23.2C487.43 23.2 488.774 24.236 488.774 25.972C488.774 29.92 479.478 31.068 479.478 38.236C479.478 38.796 479.562 39.356 479.646 40ZM503.112 40.336C508.544 40.336 510.336 35.744 510.336 30.032C510.336 24.32 508.544 19.784 503.112 19.784C497.68 19.784 495.916 24.32 495.916 30.032C495.916 35.744 497.68 40.336 503.112 40.336ZM503.112 37.032C500.396 37.032 499.612 33.952 499.612 30.032C499.612 26.168 500.396 23.116 503.112 23.116C505.828 23.116 506.612 26.168 506.612 30.032C506.612 33.952 505.828 37.032 503.112 37.032ZM519.475 40H521.47L517.72 29.35H515.695L511.945 40H513.94L514.84 37.27H518.575L519.475 40ZM516.73 31.195C516.73 31.195 516.955 32.245 517.15 32.845L518.095 35.695H515.305L516.25 32.845C516.46 32.245 516.7 31.195 516.7 31.195H516.73ZM522.83 40H529.445V38.335H524.765V35.47H528.35V33.805H524.765V31.015H529.205V29.35H522.83V40ZM531.458 40H535.088C538.373 40 540.518 38.02 540.518 34.66C540.518 31.3 538.373 29.35 535.088 29.35H531.458V40ZM533.393 38.335V31.015H534.983C537.113 31.015 538.523 32.29 538.523 34.66C538.523 37.06 537.143 38.335 534.983 38.335H533.393Z" fill="white"/>
<path d="M463.35 64H469.965V62.335H465.285V59.47H468.87V57.805H465.285V55.015H469.725V53.35H463.35V64ZM471.033 63.055C471.033 63.055 472.098 64.18 474.003 64.18C475.818 64.18 476.928 63.16 476.928 61.885C476.928 59.425 473.208 59.56 473.208 58.48C473.208 58 473.688 57.79 474.183 57.79C475.353 57.79 476.058 58.45 476.058 58.45L476.763 57.04C476.763 57.04 475.923 56.17 474.198 56.17C472.548 56.17 471.273 56.995 471.273 58.42C471.273 60.88 474.993 60.73 474.993 61.87C474.993 62.32 474.528 62.56 473.988 62.56C472.743 62.56 471.903 61.72 471.903 61.72L471.033 63.055ZM478.79 61.195C478.79 63.76 480.905 64.075 481.97 64.075C482.33 64.075 482.555 64.03 482.555 64.03V62.365C482.555 62.365 482.42 62.395 482.21 62.395C481.685 62.395 480.695 62.215 480.695 60.955V57.985H482.435V56.47H480.695V54.265H478.835V56.47H477.8V57.985H478.79V61.195ZM484.039 64H485.944V62.095H484.039V64ZM491.104 62.725C491.104 62.725 492.409 64.18 494.779 64.18C496.999 64.18 498.289 62.755 498.289 61.06C498.289 57.655 493.279 58.12 493.279 56.23C493.279 55.48 493.984 54.955 494.884 54.955C496.219 54.955 497.239 55.885 497.239 55.885L498.079 54.31C498.079 54.31 496.999 53.17 494.899 53.17C492.859 53.17 491.329 54.49 491.329 56.26C491.329 59.53 496.354 59.2 496.354 61.105C496.354 61.975 495.619 62.395 494.809 62.395C493.309 62.395 492.154 61.27 492.154 61.27L491.104 62.725ZM499.275 61.795C499.275 63.325 500.505 64.18 501.87 64.18C503.61 64.18 504.21 62.83 504.195 62.83H504.225C504.225 62.83 504.195 63.07 504.195 63.37V64H505.95V59.215C505.95 57.28 504.78 56.17 502.77 56.17C500.955 56.17 499.77 57.115 499.77 57.115L500.49 58.48C500.49 58.48 501.495 57.745 502.59 57.745C503.43 57.745 504.06 58.09 504.06 59.095V59.2H503.805C502.56 59.2 499.275 59.365 499.275 61.795ZM501.195 61.705C501.195 60.64 502.77 60.505 503.745 60.505H504.075V60.685C504.075 61.615 503.355 62.695 502.35 62.695C501.57 62.695 501.195 62.215 501.195 61.705ZM509.658 64H511.908L514.653 56.35H512.643L511.053 61.09C510.903 61.54 510.798 62.245 510.783 62.245H510.753C510.738 62.245 510.633 61.54 510.483 61.09L508.893 56.35H506.883L509.658 64ZM515.711 55.045H517.601V53.35H515.711V55.045ZM515.711 64H517.616V56.35H515.711V64ZM519.71 64H521.615V60.49C521.615 60.13 521.645 59.785 521.75 59.47C522.035 58.555 522.785 57.91 523.805 57.91C524.78 57.91 525.02 58.54 525.02 59.47V64H526.91V59.08C526.91 57.055 525.95 56.17 524.255 56.17C522.71 56.17 521.87 57.115 521.54 57.76H521.51C521.51 57.76 521.54 57.52 521.54 57.235V56.35H519.71V64ZM529.689 65.035L529.119 66.49C529.854 66.88 530.874 67.15 531.834 67.15C533.829 67.15 535.869 66.16 535.869 63.535V56.35H534.084V56.935C534.084 57.055 534.099 57.145 534.099 57.145H534.054C534.054 57.145 533.454 56.17 531.789 56.17C529.584 56.17 528.399 57.88 528.399 59.98C528.399 62.08 529.644 63.85 531.834 63.85C532.854 63.85 533.514 63.49 533.964 62.815H533.994C533.994 62.815 533.964 63.04 533.964 63.22V63.67C533.964 65.035 532.974 65.53 531.804 65.53C530.649 65.53 529.689 65.035 529.689 65.035ZM532.239 62.245C531.009 62.245 530.319 61.255 530.319 59.92C530.319 58.63 530.964 57.79 532.119 57.79C533.154 57.79 534.009 58.255 534.009 59.995C534.009 61.72 533.154 62.245 532.239 62.245ZM537.317 63.055C537.317 63.055 538.382 64.18 540.287 64.18C542.102 64.18 543.212 63.16 543.212 61.885C543.212 59.425 539.492 59.56 539.492 58.48C539.492 58 539.972 57.79 540.467 57.79C541.637 57.79 542.342 58.45 542.342 58.45L543.047 57.04C543.047 57.04 542.207 56.17 540.482 56.17C538.832 56.17 537.557 56.995 537.557 58.42C537.557 60.88 541.277 60.73 541.277 61.87C541.277 62.32 540.812 62.56 540.272 62.56C539.027 62.56 538.187 61.72 538.187 61.72L537.317 63.055Z" fill="white"/>
<defs>
<filter id="filter0_d_815_419" x="0" y="8" width="575" height="90" filterUnits="userSpaceOnUse" color-interpolation-filters="sRGB">
<feFlood flood-opacity="0" result="BackgroundImageFix"/>
<feColorMatrix in="SourceAlpha" type="matrix" values="0 0 0 0 0 0 0 0 0 0 0 0 0 0 0 0 0 0 127 0" result="hardAlpha"/>
<feOffset dy="2"/>
<feGaussianBlur stdDeviation="1"/>
<feComposite in2="hardAlpha" operator="out"/>
<feColorMatrix type="matrix" values="0 0 0 0 0 0 0 0 0 0 0 0 0 0 0 0 0 0 0.12 0"/>
<feBlend mode="normal" in2="BackgroundImageFix" result="effect1_dropShadow_815_419"/>
<feBlend mode="normal" in="SourceGraphic" in2="effect1_dropShadow_815_419" result="shape"/>
</filter>
<filter id="filter1_d_815_419" x="0" y="4" width="575" height="90" filterUnits="userSpaceOnUse" color-interpolation-filters="sRGB">
<feFlood flood-opacity="0" result="BackgroundImageFix"/>
<feColorMatrix in="SourceAlpha" type="matrix" values="0 0 0 0 0 0 0 0 0 0 0 0 0 0 0 0 0 0 127 0" result="hardAlpha"/>
<feOffset dy="2"/>
<feGaussianBlur stdDeviation="1"/>
<feComposite in2="hardAlpha" operator="out"/>
<feColorMatrix type="matrix" values="0 0 0 0 0 0 0 0 0 0 0 0 0 0 0 0 0 0 0.12 0"/>
<feBlend mode="normal" in2="BackgroundImageFix" result="effect1_dropShadow_815_419"/>
<feBlend mode="normal" in="SourceGraphic" in2="effect1_dropShadow_815_419" result="shape"/>
</filter>
<filter id="filter2_d_815_419" x="0" y="0" width="575" height="90" filterUnits="userSpaceOnUse" color-interpolation-filters="sRGB">
<feFlood flood-opacity="0" result="BackgroundImageFix"/>
<feColorMatrix in="SourceAlpha" type="matrix" values="0 0 0 0 0 0 0 0 0 0 0 0 0 0 0 0 0 0 127 0" result="hardAlpha"/>
<feOffset dy="2"/>
<feGaussianBlur stdDeviation="1"/>
<feComposite in2="hardAlpha" operator="out"/>
<feColorMatrix type="matrix" values="0 0 0 0 0 0 0 0 0 0 0 0 0 0 0 0 0 0 0.12 0"/>
<feBlend mode="normal" in2="BackgroundImageFix" result="effect1_dropShadow_815_419"/>
<feBlend mode="normal" in="SourceGraphic" in2="effect1_dropShadow_815_419" result="shape"/>
</filter>
<linearGradient id="paint0_linear_815_419" x1="1.99999" y1="94" x2="241.331" y2="-106.034" gradientUnits="userSpaceOnUse">
<stop stop-color="#773E97"/>
<stop offset="0.182435" stop-color="#C27BEB"/>
<stop offset="1" stop-color="#A663CC"/>
</linearGradient>
<linearGradient id="paint1_linear_815_419" x1="1.99999" y1="90" x2="241.331" y2="-110.034" gradientUnits="userSpaceOnUse">
<stop stop-color="#773E97"/>
<stop offset="0.182435" stop-color="#C27BEB"/>
<stop offset="1" stop-color="#A663CC"/>
</linearGradient>
<linearGradient id="paint2_linear_815_419" x1="1.99999" y1="86" x2="241.331" y2="-114.034" gradientUnits="userSpaceOnUse">
<stop stop-color="#773E97"/>
<stop offset="0.182435" stop-color="#C27BEB"/>
<stop offset="1" stop-color="#A663CC"/>
</linearGradient>
</defs>
</svg>
