<svg width="53" height="60" viewBox="0 0 53 60" fill="none" xmlns="http://www.w3.org/2000/svg">
<mask id="path-1-inside-1_301_24454" fill="white">
<path fill-rule="evenodd" clip-rule="evenodd" d="M45.3345 0.2341C45.3892 0.248218 45.4457 0.265865 45.4986 0.290571C45.7051 0.378807 50.5299 2.51589 51.2234 6.34357L51.2358 6.4371L51.2411 6.53416V11.6466C51.2411 11.733 51.2305 11.8195 51.2093 11.906C51.1669 12.0719 50.8634 13.1836 50.1187 14.1454L49.9387 14.3642L51.744 16.196C52.4393 16.9002 52.854 17.8125 52.9299 18.7902L52.9422 19.1184V55.8441C52.9422 58.0412 51.234 59.8447 49.0775 59.9912L48.7951 60H21.636C20.8737 60 20.1678 59.7794 19.5537 59.4176C19.5407 59.4194 19.5278 59.4218 19.5149 59.4241C19.489 59.4288 19.4631 59.4335 19.4372 59.4335C19.3331 59.4335 19.2254 59.4176 19.1213 59.3841L18.9678 59.3223L1.78467 50.8481C0.307593 50.0328 -0.336531 48.3458 0.171709 46.8105L0.274063 46.5422L14.5171 13.2172C14.8489 12.4425 15.4613 11.8195 16.2236 11.4736L16.5166 11.3572L26.782 7.81359C26.8526 7.78888 26.9214 7.78006 26.9937 7.77476L27.0996 7.77123L28.5079 6.35946C28.8432 6.02063 29.2155 5.75416 29.6144 5.56357C30.1773 5.29533 31.065 4.97415 32.0956 4.97415C32.685 4.97415 33.1632 5.45592 33.1632 6.0471C33.1632 6.63828 32.685 7.11652 32.0956 7.11652C31.4638 7.11652 30.8973 7.32299 30.532 7.4977C30.4138 7.55417 30.2973 7.63006 30.1844 7.72182L30.0185 7.87182L20.2137 17.7031C19.8872 18.0296 19.6878 18.4478 19.6366 18.9013L19.6243 19.129V55.8441C19.6243 56.88 20.4096 57.7394 21.4172 57.847L21.636 57.8594H48.7951C49.8293 57.8594 50.6852 57.0723 50.7946 56.0629L50.8069 55.8441V19.1184C50.8069 18.6596 50.6552 18.2255 50.3763 17.8707L50.2263 17.6996L41.108 8.45242C41.0674 8.41006 41.0268 8.36418 40.9951 8.31653C40.1198 7.07593 38.6409 7.79771 38.5756 7.83124C38.0497 8.09594 37.4091 7.88065 37.1427 7.35123C36.8815 6.82181 37.095 6.17945 37.6209 5.91475C38.6603 5.39592 40.9351 4.95121 42.4774 6.74593L42.6839 7.00534L48.4334 12.836C48.7193 12.4636 48.9275 12.0013 49.0457 11.6748L49.104 11.4983V6.63828C48.6487 4.48179 45.8798 2.81236 44.7327 2.29177C43.4463 2.00412 41.1239 2.20353 40.2098 2.32C37.065 3.34001 35.738 5.95004 35.3868 6.7777L35.3462 6.87828V10.9954H38.8086V13.136H31.6844V10.9954H33.2109V6.68417C33.2109 6.57122 33.2303 6.45475 33.2656 6.3471C33.3273 6.16004 34.8432 1.74823 39.6592 0.249982C39.7156 0.232335 39.7739 0.218217 39.8321 0.211158C40.1921 0.163511 43.3916 -0.252964 45.3345 0.2341ZM46.2756 42.0845C46.2756 39.2839 44.0009 37.0039 41.2091 37.0039C38.4138 37.0039 36.1426 39.2839 36.1426 42.0845C36.1426 44.8852 38.4138 47.1652 41.2091 47.1652C44.0009 47.1652 46.2756 44.8852 46.2756 42.0845ZM46.0074 25.1291L27.2696 47.0099H23.9572L42.8097 25.1291H46.0074ZM29.214 24.8613C32.0075 24.8613 34.2805 27.1396 34.2805 29.942C34.2805 32.7426 32.0075 35.0226 29.214 35.0226C26.4204 35.0226 24.1475 32.7426 24.1475 29.942C24.1475 27.1396 26.4204 24.8613 29.214 24.8613Z"/>
</mask>
<path d="M45.4986 0.290571L44.6529 2.10293L44.6826 2.11679L44.7127 2.12968L45.4986 0.290571ZM45.3345 0.2341L45.8343 -1.7025L45.8208 -1.70587L45.3345 0.2341ZM51.2234 6.34357L53.2062 6.08172L53.1999 6.03418L53.1914 5.987L51.2234 6.34357ZM51.2358 6.4371L53.2328 6.32816L53.2286 6.25143L53.2185 6.17525L51.2358 6.4371ZM51.2411 6.53416H53.2411V6.47965L53.2381 6.42522L51.2411 6.53416ZM51.2093 11.906L53.1471 12.4008L53.1495 12.3912L53.1519 12.3817L51.2093 11.906ZM50.1187 14.1454L51.6633 15.416L51.682 15.3932L51.7 15.3699L50.1187 14.1454ZM49.9387 14.3642L48.3941 13.0937L47.2496 14.485L48.5142 15.7681L49.9387 14.3642ZM51.744 16.196L50.3195 17.5999L50.3209 17.6013L51.744 16.196ZM52.9299 18.7902L54.9285 18.715L54.927 18.6751L54.9239 18.6354L52.9299 18.7902ZM52.9422 19.1184H54.9422V19.0808L54.9408 19.0432L52.9422 19.1184ZM49.0775 59.9912L49.14 61.9902L49.1765 61.9891L49.213 61.9866L49.0775 59.9912ZM48.7951 60V62H48.8264L48.8576 61.999L48.7951 60ZM19.5537 59.4176L20.5688 57.6944L19.9708 57.3422L19.2832 57.436L19.5537 59.4176ZM19.5149 59.4241L19.8724 61.3919L19.8728 61.3918L19.5149 59.4241ZM19.1213 59.3841L18.3748 61.2396L18.4407 61.2661L18.5083 61.2878L19.1213 59.3841ZM18.9678 59.3223L18.0832 61.1161L18.1511 61.1496L18.2213 61.1778L18.9678 59.3223ZM1.78467 50.8481L0.818179 52.5991L0.858622 52.6214L0.900054 52.6419L1.78467 50.8481ZM0.171709 46.8105L-1.69688 46.0974L-1.71287 46.1393L-1.72696 46.1819L0.171709 46.8105ZM0.274063 46.5422L-1.56501 45.7562L-1.58048 45.7924L-1.59452 45.8292L0.274063 46.5422ZM14.5171 13.2172L12.6786 12.4298L12.6781 12.4312L14.5171 13.2172ZM16.2236 11.4736L15.4847 9.61513L15.4406 9.63268L15.3973 9.65231L16.2236 11.4736ZM16.5166 11.3572L15.864 9.46662L15.8205 9.48165L15.7777 9.49866L16.5166 11.3572ZM26.782 7.81359L27.4346 9.70414L27.4427 9.7013L26.782 7.81359ZM26.9937 7.77476L26.9271 5.77587L26.8874 5.7772L26.8478 5.7801L26.9937 7.77476ZM27.0996 7.77123L27.1663 9.77012L27.9569 9.74376L28.5156 9.18368L27.0996 7.77123ZM28.5079 6.35946L29.9239 7.77191L29.9295 7.76624L28.5079 6.35946ZM29.6144 5.56357L28.7541 3.75805L28.752 3.75903L29.6144 5.56357ZM30.532 7.4977L31.394 9.30243L31.3949 9.30197L30.532 7.4977ZM30.1844 7.72182L28.9232 6.1696L28.8822 6.20293L28.843 6.23838L30.1844 7.72182ZM30.0185 7.87182L28.6771 6.38838L28.6388 6.42298L28.6024 6.45952L30.0185 7.87182ZM20.2137 17.7031L21.6279 19.1173L21.6298 19.1154L20.2137 17.7031ZM19.6366 18.9013L17.6492 18.6771L17.6427 18.7349L17.6396 18.793L19.6366 18.9013ZM19.6243 19.129L17.6272 19.0206L17.6243 19.0748V19.129H19.6243ZM21.4172 57.847L21.2048 59.8357L21.2545 59.841L21.3045 59.8439L21.4172 57.847ZM21.636 57.8594L21.5233 59.8562L21.5796 59.8594H21.636V57.8594ZM50.7946 56.0629L52.7829 56.2784L52.7885 56.2271L52.7914 56.1756L50.7946 56.0629ZM50.8069 55.8441L52.8037 55.9568L52.8069 55.9005V55.8441H50.8069ZM50.3763 17.8707L51.9487 16.6348L51.9157 16.5928L51.8805 16.5526L50.3763 17.8707ZM50.2263 17.6996L51.7305 16.3815L51.6917 16.3372L51.6504 16.2953L50.2263 17.6996ZM41.108 8.45242L39.664 9.83622L39.6739 9.84652L39.6839 9.85668L41.108 8.45242ZM40.9951 8.31653L42.6592 7.20713L42.6445 7.18514L42.6293 7.16353L40.9951 8.31653ZM38.5756 7.83124L39.4748 9.61768L39.482 9.61406L39.4892 9.61038L38.5756 7.83124ZM37.1427 7.35123L35.3491 8.23607L35.3526 8.24326L35.3562 8.25042L37.1427 7.35123ZM37.6209 5.91475L36.7277 4.12527L36.7217 4.1283L37.6209 5.91475ZM42.4774 6.74593L44.0423 5.50043L44.0188 5.47095L43.9943 5.44238L42.4774 6.74593ZM42.6839 7.00534L41.1191 8.25084L41.1852 8.33396L41.2598 8.40961L42.6839 7.00534ZM48.4334 12.836L47.0093 14.2403L48.6215 15.8752L50.0197 14.054L48.4334 12.836ZM49.0457 11.6748L50.9262 12.3558L50.936 12.3288L50.945 12.3016L49.0457 11.6748ZM49.104 11.4983L51.0032 12.1251L51.104 11.8198V11.4983H49.104ZM49.104 6.63828H51.104V6.42945L51.0608 6.22513L49.104 6.63828ZM44.7327 2.29177L45.5593 0.470556L45.371 0.385088L45.1692 0.339962L44.7327 2.29177ZM40.2098 2.32L39.957 0.336042L39.771 0.359736L39.5927 0.417575L40.2098 2.32ZM35.3868 6.7777L33.5457 5.99649L33.5387 6.01284L33.5321 6.02931L35.3868 6.7777ZM35.3462 6.87828L33.4915 6.1299L33.3462 6.48999V6.87828H35.3462ZM35.3462 10.9954H33.3462V12.9954H35.3462V10.9954ZM38.8086 10.9954H40.8086V8.99538H38.8086V10.9954ZM38.8086 13.136V15.136H40.8086V13.136H38.8086ZM31.6844 13.136H29.6844V15.136H31.6844V13.136ZM31.6844 10.9954V8.99538H29.6844V10.9954H31.6844ZM33.2109 10.9954V12.9954H35.2109V10.9954H33.2109ZM33.2656 6.3471L31.3664 5.72L31.3651 5.72402L33.2656 6.3471ZM39.6592 0.249982L40.2533 2.1597L40.2557 2.15895L39.6592 0.249982ZM39.8321 0.211158L40.0728 2.19663L40.0837 2.19531L40.0945 2.19387L39.8321 0.211158ZM27.2696 47.0099V49.0099H28.19L28.7887 48.3108L27.2696 47.0099ZM46.0074 25.1291L47.5265 26.43L50.3533 23.1291H46.0074V25.1291ZM23.9572 47.0099L22.442 45.7044L19.594 49.0099H23.9572V47.0099ZM42.8097 25.1291V23.1291H41.893L41.2946 23.8236L42.8097 25.1291ZM46.3444 -1.52179C46.1361 -1.61902 45.949 -1.67285 45.8343 -1.70246L44.8348 2.17065C44.8291 2.16919 44.8092 2.16395 44.7802 2.15421C44.7513 2.14448 44.707 2.1282 44.6529 2.10293L46.3444 -1.52179ZM53.1914 5.987C52.7137 3.35055 50.8672 1.47028 49.4048 0.334979C47.9009 -0.832588 46.4736 -1.46775 46.2846 -1.54853L44.7127 2.12968C44.7082 2.12776 44.9868 2.24848 45.4138 2.48494C45.8404 2.72119 46.3934 3.06099 46.9519 3.49458C48.1269 4.40679 49.0396 5.50891 49.2554 6.70015L53.1914 5.987ZM53.2185 6.17525L53.2062 6.08172L49.2406 6.60543L49.253 6.69896L53.2185 6.17525ZM53.2381 6.42522L53.2328 6.32816L49.2387 6.54605L49.244 6.64311L53.2381 6.42522ZM53.2411 11.6466V6.53416H49.2411V11.6466H53.2411ZM53.1519 12.3817C53.2101 12.1442 53.2411 11.898 53.2411 11.6466H49.2411C49.2411 11.568 49.2509 11.4949 49.2667 11.4303L53.1519 12.3817ZM51.7 15.3699C52.698 14.0811 53.0835 12.6499 53.1471 12.4008L49.2715 11.4112C49.2504 11.4939 49.0288 12.2862 48.5373 12.921L51.7 15.3699ZM51.4833 15.6348L51.6633 15.416L48.5741 12.8749L48.3941 13.0937L51.4833 15.6348ZM53.1685 14.7921L51.3632 12.9604L48.5142 15.7681L50.3195 17.5999L53.1685 14.7921ZM54.9239 18.6354C54.8114 17.1867 54.1946 15.8313 53.1671 14.7908L50.3209 17.6013C50.684 17.969 50.8966 18.4383 50.9359 18.9449L54.9239 18.6354ZM54.9408 19.0432L54.9285 18.715L50.9313 18.8654L50.9437 19.1936L54.9408 19.0432ZM54.9422 55.8441V19.1184H50.9422V55.8441H54.9422ZM49.213 61.9866C52.4149 61.7691 54.9422 59.0973 54.9422 55.8441H50.9422C50.9422 56.985 50.0531 57.9203 48.942 57.9958L49.213 61.9866ZM48.8576 61.999L49.14 61.9902L49.015 57.9921L48.7326 58.001L48.8576 61.999ZM21.636 62H48.7951V58H21.636V62ZM18.5386 61.1409C19.4255 61.6634 20.4784 62 21.636 62V58C21.269 58 20.91 57.8954 20.5688 57.6944L18.5386 61.1409ZM19.8728 61.3918C19.8811 61.3903 19.8767 61.3911 19.8705 61.3922C19.8631 61.3934 19.8465 61.3962 19.8242 61.3993L19.2832 57.436C19.219 57.4448 19.1624 57.4554 19.1569 57.4564L19.8728 61.3918ZM19.4372 61.4335C19.5688 61.4335 19.677 61.4217 19.7461 61.4123C19.8103 61.4035 19.867 61.3929 19.8724 61.3919L19.1573 57.4563C19.1368 57.46 19.1676 57.4541 19.206 57.4489C19.2491 57.443 19.3314 57.4335 19.4372 57.4335V61.4335ZM18.5083 61.2878C18.8176 61.3874 19.1326 61.4335 19.4372 61.4335V57.4335C19.5336 57.4335 19.6332 57.4478 19.7343 57.4804L18.5083 61.2878ZM18.2213 61.1778L18.3748 61.2396L19.8678 57.5286L19.7143 57.4669L18.2213 61.1778ZM0.900054 52.6419L18.0832 61.1161L19.8524 57.5286L2.66928 49.0544L0.900054 52.6419ZM-1.72696 46.1819C-2.54018 48.6385 -1.49533 51.3221 0.818179 52.5991L2.75115 49.0972C2.11051 48.7436 1.86712 48.053 2.07038 47.439L-1.72696 46.1819ZM-1.59452 45.8292L-1.69688 46.0974L2.04029 47.5235L2.14265 47.2552L-1.59452 45.8292ZM12.6781 12.4312L-1.56501 45.7562L2.11313 47.3282L16.3562 14.0032L12.6781 12.4312ZM15.3973 9.65231C14.1816 10.2039 13.2075 11.1949 12.6786 12.4298L16.3557 14.0045C16.4904 13.69 16.741 13.4351 17.05 13.2949L15.3973 9.65231ZM15.7777 9.49866L15.4847 9.61513L16.9626 13.3321L17.2555 13.2156L15.7777 9.49866ZM26.1294 5.92306L15.864 9.46662L17.1692 13.2477L27.4346 9.70412L26.1294 5.92306ZM26.8478 5.7801C26.7118 5.79005 26.4382 5.81496 26.1213 5.92587L27.4427 9.7013C27.267 9.76281 27.131 9.77007 27.1397 9.76943L26.8478 5.7801ZM27.033 5.77234L26.9271 5.77587L27.0604 9.77365L27.1663 9.77012L27.033 5.77234ZM27.0919 4.94701L25.6836 6.35879L28.5156 9.18368L29.9239 7.7719L27.0919 4.94701ZM28.752 3.75903C28.1338 4.05444 27.5745 4.45927 27.0863 4.95267L29.9295 7.76624C30.1118 7.58199 30.2972 7.45387 30.4767 7.36811L28.752 3.75903ZM32.0956 2.97415C30.6639 2.97415 29.4735 3.41526 28.7541 3.75805L30.4747 7.36908C30.8812 7.17539 31.466 6.97415 32.0956 6.97415V2.97415ZM35.1632 6.0471C35.1632 4.3621 33.8003 2.97415 32.0956 2.97415V6.97415C31.5697 6.97415 31.1632 6.54974 31.1632 6.0471H35.1632ZM32.0956 9.11652C33.7917 9.11652 35.1632 7.7407 35.1632 6.0471H31.1632C31.1632 5.53587 31.5783 5.11652 32.0956 5.11652V9.11652ZM31.3949 9.30197C31.4942 9.25448 31.6156 9.20549 31.7458 9.16957C31.8766 9.13347 31.9949 9.11652 32.0956 9.11652V5.11652C31.0519 5.11652 30.1785 5.44983 29.6691 5.69343L31.3949 9.30197ZM31.4456 9.27404C31.4506 9.26998 31.4495 9.27127 31.4419 9.27617C31.4344 9.28106 31.4185 9.29072 31.394 9.30243L29.6701 5.69298C29.3863 5.82852 29.1373 5.99563 28.9232 6.1696L31.4456 9.27404ZM31.3599 9.35527L31.5258 9.20527L28.843 6.23838L28.6771 6.38838L31.3599 9.35527ZM21.6298 19.1154L31.4346 9.28413L28.6024 6.45952L18.7976 16.2908L21.6298 19.1154ZM21.624 19.1256C21.6244 19.1221 21.6249 19.1203 21.625 19.1199C21.6251 19.1196 21.625 19.1199 21.6247 19.1205C21.6244 19.1212 21.6241 19.1216 21.6243 19.1214C21.6244 19.1212 21.6254 19.1198 21.6279 19.1173L18.7995 16.2889C18.1505 16.9378 17.7509 17.7765 17.6492 18.6771L21.624 19.1256ZM21.6213 19.2374L21.6337 19.0097L17.6396 18.793L17.6272 19.0206L21.6213 19.2374ZM21.6243 55.8441V19.129H17.6243V55.8441H21.6243ZM21.6297 55.8584C21.63 55.8584 21.6311 55.8586 21.6323 55.8589C21.6335 55.8593 21.6341 55.8596 21.6342 55.8596C21.6342 55.8597 21.6336 55.8593 21.6326 55.8585C21.6315 55.8577 21.6302 55.8565 21.6289 55.8551C21.6262 55.8521 21.625 55.8496 21.6247 55.8489C21.6246 55.8486 21.6246 55.8485 21.6245 55.8483C21.6245 55.8482 21.6243 55.8469 21.6243 55.8441H17.6243C17.6243 57.906 19.1843 59.6199 21.2048 59.8357L21.6297 55.8584ZM21.7488 55.8626L21.5299 55.8502L21.3045 59.8439L21.5233 59.8562L21.7488 55.8626ZM48.7951 55.8594H21.636V59.8594H48.7951V55.8594ZM48.8062 55.8474C48.8062 55.8479 48.8061 55.8482 48.8061 55.8483C48.8061 55.8484 48.8061 55.8484 48.8061 55.8484C48.8061 55.8484 48.8061 55.8484 48.8061 55.8484C48.8061 55.8484 48.806 55.8485 48.806 55.8486C48.8059 55.8487 48.8058 55.849 48.8057 55.8493C48.8048 55.851 48.8028 55.8538 48.7998 55.8566C48.7968 55.8594 48.7949 55.86 48.7955 55.8598C48.7958 55.8596 48.7964 55.8595 48.797 55.8593C48.7977 55.8592 48.7973 55.8594 48.7951 55.8594V59.8594C50.8649 59.8594 52.565 58.2886 52.7829 56.2784L48.8062 55.8474ZM48.8101 55.7314L48.7978 55.9502L52.7914 56.1756L52.8037 55.9568L48.8101 55.7314ZM48.8069 19.1184V55.8441H52.8069V19.1184H48.8069ZM48.804 19.1067C48.8056 19.1088 48.8062 19.11 48.8064 19.1102C48.8065 19.1104 48.8064 19.1103 48.8063 19.11C48.8062 19.1096 48.8063 19.1098 48.8064 19.1107C48.8066 19.1116 48.8069 19.1141 48.8069 19.1184H52.8069C52.8069 18.2106 52.5041 17.3413 51.9487 16.6348L48.804 19.1067ZM48.7221 19.0177L48.8721 19.1889L51.8805 16.5526L51.7305 16.3815L48.7221 19.0177ZM39.6839 9.85668L48.8022 19.1038L51.6504 16.2953L42.5321 7.04816L39.6839 9.85668ZM39.331 9.42593C39.4601 9.61964 39.5958 9.76499 39.664 9.83622L42.552 7.06862C42.5497 7.06627 42.5598 7.07657 42.5761 7.09592C42.592 7.11476 42.6228 7.15258 42.6592 7.20713L39.331 9.42593ZM39.4892 9.61038C39.4669 9.62186 39.4533 9.62823 39.4494 9.63003C39.4436 9.63276 39.4417 9.63353 39.4432 9.63287C39.4468 9.63137 39.4607 9.62567 39.4817 9.61876C39.503 9.61178 39.5267 9.60516 39.5505 9.60016C39.5746 9.5951 39.5923 9.59305 39.6027 9.59242C39.6275 9.59091 39.5851 9.59826 39.5071 9.56671C39.4668 9.55041 39.4286 9.52816 39.3972 9.50316C39.366 9.47828 39.3556 9.46202 39.3609 9.46953L42.6293 7.16353C41.6867 5.82764 40.3349 5.54065 39.3605 5.59976C38.478 5.65329 37.8066 5.97785 37.662 6.05209L39.4892 9.61038ZM35.3562 8.25042C36.1117 9.75143 37.9473 10.3866 39.4748 9.61768L37.6764 6.04479C38.1522 5.80532 38.7066 6.00987 38.9291 6.45204L35.3562 8.25042ZM36.7217 4.1283C35.2086 4.88992 34.605 6.72791 35.3491 8.23607L38.9363 6.46639C39.158 6.91572 38.9815 7.46899 38.5201 7.70119L36.7217 4.1283ZM43.9943 5.44238C42.8104 4.06486 41.3102 3.53838 39.9688 3.46569C38.6841 3.39606 37.5125 3.73356 36.7277 4.12528L38.5141 7.70421C38.7688 7.5771 39.2542 7.43283 39.7523 7.45983C40.1938 7.48375 40.6021 7.63228 40.9606 8.04948L43.9943 5.44238ZM44.2487 5.75985L44.0423 5.50043L40.9126 7.99143L41.1191 8.25084L44.2487 5.75985ZM49.8575 11.4317L44.108 5.60108L41.2598 8.40961L47.0093 14.2403L49.8575 11.4317ZM47.1653 10.9938C47.1298 11.0918 47.0791 11.214 47.0175 11.336C46.9542 11.4612 46.8942 11.5565 46.847 11.618L50.0197 14.054C50.4793 13.4555 50.7718 12.7823 50.9262 12.3558L47.1653 10.9938ZM47.2047 10.8716L47.1465 11.0481L50.945 12.3016L51.0032 12.1251L47.2047 10.8716ZM47.104 6.63828V11.4983H51.104V6.63828H47.104ZM43.9062 4.11298C44.3422 4.31084 45.1591 4.76594 45.8891 5.38104C46.6631 6.03316 47.0576 6.62725 47.1471 7.05143L51.0608 6.22513C50.6951 4.49282 49.4775 3.17395 48.4665 2.32208C47.4115 1.4332 46.2704 0.793285 45.5593 0.470556L43.9062 4.11298ZM40.4625 4.30396C40.8668 4.25246 41.6132 4.17934 42.3981 4.15323C43.2275 4.12565 43.9154 4.1584 44.2963 4.24357L45.1692 0.339962C44.2636 0.137483 43.1471 0.126115 42.2651 0.155445C41.3387 0.186254 40.4669 0.271075 39.957 0.336042L40.4625 4.30396ZM37.2279 7.5589C37.498 6.92225 38.5089 4.97425 40.8268 4.22243L39.5927 0.417575C35.6211 1.70577 33.9779 4.97783 33.5457 5.99649L37.2279 7.5589ZM37.2009 7.62667L37.2415 7.52608L33.5321 6.02931L33.4915 6.1299L37.2009 7.62667ZM37.3462 10.9954V6.87828H33.3462V10.9954H37.3462ZM38.8086 8.99538H35.3462V12.9954H38.8086V8.99538ZM40.8086 13.136V10.9954H36.8086V13.136H40.8086ZM31.6844 15.136H38.8086V11.136H31.6844V15.136ZM29.6844 10.9954V13.136H33.6844V10.9954H29.6844ZM33.2109 8.99538H31.6844V12.9954H33.2109V8.99538ZM31.2109 6.68417V10.9954H35.2109V6.68417H31.2109ZM31.3651 5.72402C31.2669 6.02352 31.2109 6.35004 31.2109 6.68417H35.2109C35.2109 6.79241 35.1936 6.88598 35.166 6.97019L31.3651 5.72402ZM39.065 -1.65974C33.2694 0.143297 31.471 5.40337 31.3664 5.72L35.1647 6.9742C35.1531 7.00927 35.4618 6.07681 36.2775 4.99294C37.084 3.92142 38.3442 2.75362 40.2533 2.1597L39.065 -1.65974ZM39.5914 -1.77431C39.3796 -1.74862 39.1985 -1.70143 39.0626 -1.65898L40.2557 2.15895C40.2328 2.1661 40.1682 2.18506 40.0728 2.19663L39.5914 -1.77431ZM45.8208 -1.70587C44.5515 -2.02408 43.0212 -2.02658 41.8994 -1.97585C40.7277 -1.92286 39.7727 -1.79842 39.5697 -1.77155L40.0945 2.19387C40.2515 2.17309 41.0762 2.06547 42.0801 2.02007C43.1337 1.97242 44.1746 2.00521 44.8482 2.17407L45.8208 -1.70587ZM41.2091 39.0039C42.8913 39.0039 44.2756 40.3835 44.2756 42.0845H48.2756C48.2756 38.1843 45.1104 35.0039 41.2091 35.0039V39.0039ZM38.1426 42.0845C38.1426 40.3826 39.5242 39.0039 41.2091 39.0039V35.0039C37.3033 35.0039 34.1426 38.1852 34.1426 42.0845H38.1426ZM41.2091 45.1652C39.5242 45.1652 38.1426 43.7865 38.1426 42.0845H34.1426C34.1426 45.9838 37.3033 49.1652 41.2091 49.1652V45.1652ZM44.2756 42.0845C44.2756 43.7856 42.8913 45.1652 41.2091 45.1652V49.1652C45.1104 49.1652 48.2756 45.9847 48.2756 42.0845H44.2756ZM28.7887 48.3108L47.5265 26.43L44.4883 23.8282L25.7505 45.709L28.7887 48.3108ZM23.9572 49.0099H27.2696V45.0099H23.9572V49.0099ZM41.2946 23.8236L22.442 45.7044L25.4724 48.3154L44.3249 26.4345L41.2946 23.8236ZM46.0074 23.1291H42.8097V27.1291H46.0074V23.1291ZM36.2805 29.942C36.2805 26.04 33.1171 22.8613 29.214 22.8613V26.8613C30.898 26.8613 32.2805 28.2392 32.2805 29.942H36.2805ZM29.214 37.0226C33.1175 37.0226 36.2805 33.8417 36.2805 29.942H32.2805C32.2805 31.6435 30.8975 33.0226 29.214 33.0226V37.0226ZM22.1475 29.942C22.1475 33.8417 25.3104 37.0226 29.214 37.0226V33.0226C27.5304 33.0226 26.1475 31.6435 26.1475 29.942H22.1475ZM29.214 22.8613C25.3109 22.8613 22.1475 26.04 22.1475 29.942H26.1475C26.1475 28.2392 27.53 26.8613 29.214 26.8613V22.8613Z" fill="#282828" mask="url(#path-1-inside-1_301_24454)"/>
</svg>
