<svg width="40" height="103" viewBox="0 0 40 103" fill="none" xmlns="http://www.w3.org/2000/svg">
<g clip-path="url(#clip0_808_441)">
<path d="M35.5112 32.086C35.4193 31.8566 35.3594 31.1291 35.3106 30.5379C35.205 29.2548 35.06 27.4973 34.4469 25.9123C34.1819 25.226 33.6306 23.9241 33.0975 22.6654C32.5062 21.2685 31.77 19.5298 31.6887 19.2348C31.3775 18.1066 31.0487 16.7623 30.7306 15.4623C30.1812 13.2185 29.6625 11.0991 29.1994 9.87165C28.7781 8.75352 28.3431 8.16665 27.7906 7.96852C27.2381 7.76977 26.7756 8.0354 26.6237 8.12352C25.6312 8.69477 25.7906 10.6716 26.1581 14.116C26.2462 14.9398 26.3618 16.0254 26.3925 16.8216C26.07 16.1273 25.635 15.0135 25.1262 13.4073C23.8443 9.35602 23.1381 7.94102 22.2212 7.58477C21.9681 7.48665 21.5712 7.42415 21.1168 7.68602C19.4187 8.6629 20.0093 10.4548 21.1862 14.0248C21.4018 14.6735 21.4162 14.7385 21.835 15.9691C22.105 16.7635 22.4406 17.7498 22.6118 18.4416C21.9425 17.5379 20.9506 15.7835 20.3175 14.6841C19.8175 13.8216 19.3943 13.0779 19.0312 12.441C17.5031 9.75852 17.0418 8.94852 16.2862 8.7429C15.8381 8.62227 15.455 8.7929 15.1725 8.9554C14.7181 9.21665 14.4287 9.57102 14.3112 10.0098C14.005 11.1535 14.8637 12.8023 17.0468 16.5704C17.89 18.026 18.6093 19.5523 18.9843 20.5023C18.3468 19.9198 17.4662 18.8416 16.87 18.1116C15.0693 15.9073 13.6462 14.1673 12.4125 14.8779C11.995 15.1179 11.7118 15.4773 11.5937 15.9179C11.4331 16.5173 11.5818 17.2179 12.0362 18.0004C12.2937 18.4454 13.03 19.4091 14.0481 20.7429C15.5918 22.7641 18.65 26.7685 19.1862 28.1966C18.6225 27.9623 17.6112 27.2298 16.8962 26.7123C15.0212 25.3541 13.0843 23.9491 11.7762 24.7016C11.1625 25.0548 10.7893 25.5091 10.6681 26.0523C10.28 27.7835 11.7712 27.7529 15.1862 30.9473C16.6612 32.3229 18.0337 33.7579 20.5981 35.3516C22.9612 36.8198 25.9462 37.2766 26.3125 37.586C26.6562 38.1798 26.905 38.9373 26.9081 38.9448C27.1637 39.7304 28.3537 39.3491 28.0969 38.5579C28.085 38.5216 27.8062 37.6698 27.3944 36.9585C26.8056 35.9429 23.925 35.9466 21.2581 34.2891C18.8831 32.8129 17.5325 31.4266 16.04 30.0329C14.8375 28.9085 12.4637 27.0673 11.9281 26.6548C11.8956 26.5791 11.8568 26.4504 11.8893 26.3166C11.9456 26.0873 12.1981 25.9004 12.3993 25.7848C13.0043 25.4366 14.9812 26.8685 16.1625 27.7248C17.9031 28.986 19.1612 29.8985 20.0725 29.3723C20.2931 29.2454 20.4431 29.0323 20.495 28.7716C20.7187 27.6573 18.9937 25.1604 15.0412 19.9854C14.1256 18.7866 13.335 17.751 13.1168 17.3748C12.8475 16.9104 12.7325 16.4985 12.8012 16.2429C12.8225 16.1635 12.8681 16.0591 12.9925 15.9773H12.9931C13.5112 15.9773 15.0662 17.8816 15.9025 18.9048C17.63 21.0198 18.9956 22.6885 20.1606 22.0179C20.3043 21.9354 20.4393 21.7535 20.4825 21.5929C20.7562 20.5735 18.1562 15.9923 18.1293 15.946C16.4825 13.1035 15.3312 11.0373 15.52 10.3354C15.5337 10.2835 15.5625 10.176 15.7975 10.041C15.9106 9.97602 15.9631 9.95915 15.9625 9.9529C16.2518 10.0866 16.9643 11.3366 17.9468 13.0616C18.3112 13.701 18.7356 14.4466 19.2375 15.3129C20.9856 18.2873 22.2375 20.8523 23.4825 20.1373C24.3956 19.6116 23.9075 18.1754 23.0206 15.5685C22.5493 14.1823 22.6631 14.5004 22.3756 13.6348C21.275 10.296 20.9637 9.21915 21.7675 8.75102C22.9581 9.08977 24.685 18.1766 26.3943 18.8404C26.6275 18.9316 26.8731 18.9141 27.0825 18.7929C27.8356 18.3604 27.725 17.0066 27.4031 13.9866C27.2406 12.4654 26.9387 9.63477 27.2481 9.20977C27.3312 9.16227 27.3712 9.15227 27.3725 9.14915C27.4019 9.16352 27.655 9.31727 28.0312 10.316C28.4675 11.4729 29.0018 13.6535 29.5175 15.7623C29.8381 17.071 30.1687 18.4241 30.485 19.5704C30.5818 19.9198 31.1018 21.1579 31.9475 23.1554C32.4768 24.4054 33.0237 25.6979 33.2818 26.366C33.83 27.7829 33.9606 29.3691 34.0656 30.6435C34.1112 31.1979 34.1731 32.4473 34.5106 32.8404L38.2737 37.2804C38.4968 37.5435 38.8912 37.5773 39.1543 37.3529C39.4175 37.1298 39.4506 36.7354 39.2268 36.4723L35.5112 32.086Z" fill="black"/>
<path d="M19.9531 36.3338C16.8006 37.3263 14.0731 37.9644 12.4512 38.0988C12.3737 37.2238 12.2575 36.3556 12.1031 35.51C12.0412 35.1706 11.7194 34.9488 11.3756 35.0075C11.0362 35.0694 10.8112 35.395 10.8731 35.735C11.055 36.7294 11.1819 37.7581 11.2506 38.7919C11.2731 39.12 11.5462 39.375 11.875 39.375C13.5144 39.375 16.5956 38.7013 20.3287 37.5263C20.6581 37.4225 20.8406 37.0713 20.7375 36.7425C20.6337 36.4131 20.2825 36.2313 19.9531 36.3338V36.3338Z" fill="black"/>
<path d="M37.8812 24.7106C36.3262 22.725 35.47 21.6312 34.3475 17.9431C33.9506 16.6375 33.5306 14.7319 33.0862 12.7144C32.0612 8.06 30.8994 2.785 29.2225 0.841875C29.0087 0.593125 28.6375 0.553125 28.375 0.75C25.8569 2.63875 22.8631 3.19812 19.9681 3.73937C17.7637 4.15125 15.4837 4.5775 13.4237 5.58438C12.245 6.16063 10.6875 7.35563 8.88436 8.73875C6.32499 10.7025 3.42374 12.9281 1.03811 13.7862C0.775615 13.8806 0.60749 14.1381 0.62624 14.4162C0.806865 17.085 2.51186 19.4975 4.48624 22.2906C6.28749 24.8394 8.32874 27.7275 9.70811 31.4687C9.99436 32.2431 11.1687 31.8175 10.8812 31.0369C9.44499 27.1406 7.35249 24.1806 5.50686 21.5694C3.76249 19.1013 2.24124 16.9481 1.92186 14.7844C4.38249 13.7681 7.16936 11.63 9.64499 9.73063C11.3219 8.44375 12.9062 7.22875 13.9725 6.7075C15.8794 5.775 17.9769 5.38312 20.1969 4.96812C23.0462 4.43562 25.9856 3.88625 28.6106 2.115C29.9262 4.17875 30.9937 9.02688 31.865 12.9831C32.315 15.0256 32.7394 16.9544 33.1512 18.3069C34.3406 22.2187 35.3025 23.4469 36.8962 25.4812C37.2294 25.9069 37.5912 26.3687 37.9912 26.9025C37.6156 27.4394 37.0612 28.01 36.3375 28.6044C36.0706 28.8231 36.0319 29.2169 36.2506 29.4837C36.4706 29.7512 36.8637 29.79 37.13 29.5706C38.1262 28.7531 38.8537 27.9506 39.2912 27.185C39.4137 26.97 39.3987 26.7031 39.2519 26.5044C38.7425 25.8106 38.2906 25.2337 37.8812 24.7106V24.7106Z" fill="black"/>
<path d="M10.2325 33.1694L7.85438 32.2187C7.53813 32.0925 7.28438 31.8388 7.15813 31.5231L6.20562 29.1431C6.11 28.9056 5.88063 28.75 5.625 28.75C5.36937 28.75 5.14 28.9056 5.045 29.1425L4.09187 31.5231C3.96562 31.8388 3.71188 32.0925 3.39563 32.2187L1.01812 33.1694C0.780625 33.2644 0.625 33.4944 0.625 33.75C0.625 34.0056 0.780625 34.2356 1.0175 34.3306L3.39563 35.2813C3.71188 35.4075 3.96562 35.6612 4.09187 35.9769L5.04438 38.3569C5.14 38.5944 5.36937 38.75 5.625 38.75C5.88063 38.75 6.11 38.5944 6.205 38.3575L7.15813 35.9769C7.28438 35.6612 7.53813 35.4075 7.85438 35.2813L10.2319 34.3306C10.4694 34.2356 10.625 34.0056 10.625 33.75C10.625 33.4944 10.4694 33.2644 10.2325 33.1694ZM7.39062 34.1206C6.75812 34.3731 6.25 34.8806 5.9975 35.5125L5.625 36.4431L5.2525 35.5131C5 34.8806 4.4925 34.3731 3.86 34.1206L2.93312 33.75L3.85938 33.3794C4.4925 33.1269 5 32.6194 5.2525 31.9875L5.625 31.0569L5.9975 31.9869C6.25 32.6194 6.75812 33.1269 7.39062 33.3794L8.31688 33.75L7.39062 34.1206Z" fill="black"/>
<path d="M32.2681 4.95562L33.9663 5.63438C34.1475 5.70688 34.2919 5.85125 34.3644 6.03188L35.0444 7.73188C35.14 7.96938 35.3694 8.125 35.625 8.125C35.8806 8.125 36.11 7.96937 36.205 7.7325L36.8856 6.0325C36.9575 5.85188 37.1025 5.70687 37.2837 5.635L38.9819 4.95625C39.2194 4.86062 39.375 4.63063 39.375 4.375C39.375 4.11937 39.2194 3.88938 38.9819 3.79438L37.2837 3.11563C37.1025 3.04313 36.9581 2.89875 36.8856 2.71812L36.2056 1.01812C36.11 0.780625 35.8806 0.625 35.625 0.625C35.3694 0.625 35.14 0.780625 35.045 1.0175L34.3644 2.7175C34.2925 2.89813 34.1475 3.04313 33.9663 3.115L32.2681 3.79375C32.0306 3.88938 31.875 4.11937 31.875 4.375C31.875 4.63063 32.0306 4.86062 32.2681 4.95562V4.95562ZM34.43 4.27625C35.3813 3.89625 35.5663 3.02812 35.625 2.9325C35.6713 3.00875 35.8612 3.89375 36.82 4.27625L37.0662 4.375L36.8194 4.47375C35.8681 4.85375 35.6831 5.72187 35.625 5.8175C35.5787 5.74125 35.3888 4.85625 34.43 4.47375L34.1838 4.375L34.43 4.27625Z" fill="black"/>
<path d="M1.01812 5.58062L3.05625 6.39562C3.30437 6.495 3.50437 6.69437 3.60375 6.9425L4.42 8.9825C4.515 9.21937 4.74437 9.375 5 9.375C5.25563 9.375 5.485 9.21937 5.58 8.9825L6.39625 6.9425C6.49563 6.69375 6.69562 6.49437 6.94375 6.39562L8.98188 5.58062C9.21938 5.48562 9.375 5.25563 9.375 5C9.375 4.74437 9.21938 4.51438 8.98188 4.41938L6.94375 3.605C6.69562 3.50563 6.49563 3.30625 6.39625 3.05813L5.58 1.0175C5.485 0.780625 5.25563 0.625 5 0.625C4.74437 0.625 4.515 0.780625 4.42 1.0175L3.60375 3.0575C3.50375 3.30625 3.30437 3.50563 3.05625 3.605L1.01812 4.41938C0.780625 4.51438 0.625 4.74437 0.625 5C0.625 5.25563 0.780625 5.48562 1.01812 5.58062V5.58062ZM3.52 4.76562C4.08437 4.54 4.5375 4.08688 4.76375 3.5225L5 2.9325L5.23625 3.5225C5.4625 4.08688 5.91563 4.54 6.48 4.76562L7.06625 5L6.48 5.23438C5.91563 5.46 5.4625 5.91313 5.23625 6.4775L5 7.0675L4.76375 6.4775C4.5375 5.91313 4.08437 5.46 3.52 5.23438L2.93375 5L3.52 4.76562Z" fill="black"/>
</g>
<g clip-path="url(#clip1_808_441)">
<path d="M35.5112 95.086C35.4193 94.8566 35.3594 94.1291 35.3106 93.5379C35.205 92.2548 35.06 90.4973 34.4469 88.9123C34.1819 88.226 33.6306 86.9241 33.0975 85.6654C32.5062 84.2685 31.77 82.5298 31.6887 82.2348C31.3775 81.1066 31.0487 79.7623 30.7306 78.4623C30.1812 76.2185 29.6625 74.0991 29.1994 72.8716C28.7781 71.7535 28.3431 71.1666 27.7906 70.9685C27.2381 70.7698 26.7756 71.0354 26.6237 71.1235C25.6312 71.6948 25.7906 73.6716 26.1581 77.116C26.2462 77.9398 26.3618 79.0254 26.3925 79.8216C26.07 79.1273 25.635 78.0135 25.1262 76.4073C23.8443 72.356 23.1381 70.941 22.2212 70.5848C21.9681 70.4866 21.5712 70.4241 21.1168 70.686C19.4187 71.6629 20.0093 73.4548 21.1862 77.0248C21.4018 77.6735 21.4162 77.7385 21.835 78.9691C22.105 79.7635 22.4406 80.7498 22.6118 81.4416C21.9425 80.5379 20.9506 78.7835 20.3175 77.6841C19.8175 76.8216 19.3943 76.0779 19.0312 75.441C17.5031 72.7585 17.0418 71.9485 16.2862 71.7429C15.8381 71.6223 15.455 71.7929 15.1725 71.9554C14.7181 72.2166 14.4287 72.571 14.3112 73.0098C14.005 74.1535 14.8637 75.8023 17.0468 79.5704C17.89 81.026 18.6093 82.5523 18.9843 83.5023C18.3468 82.9198 17.4662 81.8416 16.87 81.1116C15.0693 78.9073 13.6462 77.1673 12.4125 77.8779C11.995 78.1179 11.7118 78.4773 11.5937 78.9179C11.4331 79.5173 11.5818 80.2179 12.0362 81.0004C12.2937 81.4454 13.03 82.4091 14.0481 83.7429C15.5918 85.7641 18.65 89.7685 19.1862 91.1966C18.6225 90.9623 17.6112 90.2298 16.8962 89.7123C15.0212 88.3541 13.0843 86.9491 11.7762 87.7016C11.1625 88.0548 10.7893 88.5091 10.6681 89.0523C10.28 90.7835 11.7712 90.7529 15.1862 93.9473C16.6612 95.3229 18.0337 96.7579 20.5981 98.3516C22.9612 99.8198 25.9462 100.277 26.3125 100.586C26.6562 101.18 26.905 101.937 26.9081 101.945C27.1637 102.73 28.3537 102.349 28.0969 101.558C28.085 101.522 27.8062 100.67 27.3944 99.9585C26.8056 98.9429 23.925 98.9466 21.2581 97.2891C18.8831 95.8129 17.5325 94.4266 16.04 93.0329C14.8375 91.9085 12.4637 90.0673 11.9281 89.6548C11.8956 89.5791 11.8568 89.4504 11.8893 89.3166C11.9456 89.0873 12.1981 88.9004 12.3993 88.7848C13.0043 88.4366 14.9812 89.8685 16.1625 90.7248C17.9031 91.986 19.1612 92.8985 20.0725 92.3723C20.2931 92.2454 20.4431 92.0323 20.495 91.7716C20.7187 90.6573 18.9937 88.1604 15.0412 82.9854C14.1256 81.7866 13.335 80.751 13.1168 80.3748C12.8475 79.9104 12.7325 79.4985 12.8012 79.2429C12.8225 79.1635 12.8681 79.0591 12.9925 78.9773H12.9931C13.5112 78.9773 15.0662 80.8816 15.9025 81.9048C17.63 84.0198 18.9956 85.6885 20.1606 85.0179C20.3043 84.9354 20.4393 84.7535 20.4825 84.5929C20.7562 83.5735 18.1562 78.9923 18.1293 78.946C16.4825 76.1035 15.3312 74.0373 15.52 73.3354C15.5337 73.2835 15.5625 73.176 15.7975 73.041C15.9106 72.976 15.9631 72.9591 15.9625 72.9529C16.2518 73.0866 16.9643 74.3366 17.9468 76.0616C18.3112 76.701 18.7356 77.4466 19.2375 78.3129C20.9856 81.2873 22.2375 83.8523 23.4825 83.1373C24.3956 82.6116 23.9075 81.1754 23.0206 78.5685C22.5493 77.1823 22.6631 77.5004 22.3756 76.6348C21.275 73.296 20.9637 72.2191 21.7675 71.751C22.9581 72.0898 24.685 81.1766 26.3943 81.8404C26.6275 81.9316 26.8731 81.9141 27.0825 81.7929C27.8356 81.3604 27.725 80.0066 27.4031 76.9866C27.2406 75.4654 26.9387 72.6348 27.2481 72.2098C27.3312 72.1623 27.3712 72.1523 27.3725 72.1491C27.4019 72.1635 27.655 72.3173 28.0312 73.316C28.4675 74.4729 29.0018 76.6535 29.5175 78.7623C29.8381 80.071 30.1687 81.4241 30.485 82.5704C30.5818 82.9198 31.1018 84.1579 31.9475 86.1554C32.4768 87.4054 33.0237 88.6979 33.2818 89.366C33.83 90.7829 33.9606 92.3691 34.0656 93.6435C34.1112 94.1979 34.1731 95.4473 34.5106 95.8404L38.2737 100.28C38.4968 100.544 38.8912 100.577 39.1543 100.353C39.4175 100.13 39.4506 99.7354 39.2268 99.4723L35.5112 95.086Z" fill="#2F85FE"/>
<path d="M19.9531 99.3337C16.8006 100.326 14.0731 100.964 12.4512 101.099C12.3737 100.224 12.2575 99.3556 12.1031 98.51C12.0412 98.1706 11.7194 97.9487 11.3756 98.0075C11.0362 98.0694 10.8112 98.395 10.8731 98.735C11.055 99.7294 11.1819 100.758 11.2506 101.792C11.2731 102.12 11.5462 102.375 11.875 102.375C13.5144 102.375 16.5956 101.701 20.3287 100.526C20.6581 100.422 20.8406 100.071 20.7375 99.7425C20.6337 99.4131 20.2825 99.2312 19.9531 99.3337V99.3337Z" fill="#2F85FE"/>
<path d="M37.8812 87.7106C36.3262 85.725 35.47 84.6313 34.3475 80.9431C33.9506 79.6375 33.5306 77.7319 33.0862 75.7144C32.0612 71.06 30.8994 65.785 29.2225 63.8419C29.0087 63.5931 28.6375 63.5531 28.375 63.75C25.8569 65.6388 22.8631 66.1981 19.9681 66.7394C17.7637 67.1513 15.4837 67.5775 13.4237 68.5844C12.245 69.1606 10.6875 70.3556 8.88436 71.7388C6.32499 73.7025 3.42374 75.9281 1.03811 76.7863C0.775615 76.8806 0.60749 77.1381 0.62624 77.4163C0.806865 80.085 2.51186 82.4975 4.48624 85.2906C6.28749 87.8394 8.32874 90.7275 9.70811 94.4688C9.99436 95.2431 11.1687 94.8175 10.8812 94.0369C9.44499 90.1406 7.35249 87.1806 5.50686 84.5694C3.76249 82.1013 2.24124 79.9481 1.92186 77.7844C4.38249 76.7681 7.16936 74.63 9.64499 72.7306C11.3219 71.4438 12.9062 70.2288 13.9725 69.7075C15.8794 68.775 17.9769 68.3831 20.1969 67.9681C23.0462 67.4356 25.9856 66.8863 28.6106 65.115C29.9262 67.1788 30.9937 72.0269 31.865 75.9831C32.315 78.0256 32.7394 79.9544 33.1512 81.3069C34.3406 85.2188 35.3025 86.4469 36.8962 88.4813C37.2294 88.9069 37.5912 89.3688 37.9912 89.9025C37.6156 90.4394 37.0612 91.01 36.3375 91.6044C36.0706 91.8231 36.0319 92.2169 36.2506 92.4838C36.4706 92.7513 36.8637 92.79 37.13 92.5706C38.1262 91.7531 38.8537 90.9506 39.2912 90.185C39.4137 89.97 39.3987 89.7031 39.2519 89.5044C38.7425 88.8106 38.2906 88.2338 37.8812 87.7106V87.7106Z" fill="#2F85FE"/>
<path d="M10.2325 96.1694L7.85438 95.2187C7.53813 95.0925 7.28438 94.8388 7.15813 94.5231L6.20562 92.1431C6.11 91.9056 5.88063 91.75 5.625 91.75C5.36937 91.75 5.14 91.9056 5.045 92.1425L4.09187 94.5231C3.96562 94.8388 3.71188 95.0925 3.39563 95.2187L1.01812 96.1694C0.780625 96.2644 0.625 96.4944 0.625 96.75C0.625 97.0056 0.780625 97.2356 1.0175 97.3306L3.39563 98.2813C3.71188 98.4075 3.96562 98.6612 4.09187 98.9769L5.04438 101.357C5.14 101.594 5.36937 101.75 5.625 101.75C5.88063 101.75 6.11 101.594 6.205 101.358L7.15813 98.9769C7.28438 98.6612 7.53813 98.4075 7.85438 98.2813L10.2319 97.3306C10.4694 97.2356 10.625 97.0056 10.625 96.75C10.625 96.4944 10.4694 96.2644 10.2325 96.1694ZM7.39062 97.1206C6.75812 97.3731 6.25 97.8806 5.9975 98.5125L5.625 99.4431L5.2525 98.5131C5 97.8806 4.4925 97.3731 3.86 97.1206L2.93312 96.75L3.85938 96.3794C4.4925 96.1269 5 95.6194 5.2525 94.9875L5.625 94.0569L5.9975 94.9869C6.25 95.6194 6.75812 96.1269 7.39062 96.3794L8.31688 96.75L7.39062 97.1206Z" fill="#2F85FE"/>
<path d="M32.2681 67.9556L33.9663 68.6344C34.1475 68.7069 34.2919 68.8513 34.3644 69.0319L35.0444 70.7319C35.14 70.9694 35.3694 71.125 35.625 71.125C35.8806 71.125 36.11 70.9694 36.205 70.7325L36.8856 69.0325C36.9575 68.8519 37.1025 68.7069 37.2837 68.635L38.9819 67.9562C39.2194 67.8606 39.375 67.6306 39.375 67.375C39.375 67.1194 39.2194 66.8894 38.9819 66.7944L37.2837 66.1156C37.1025 66.0431 36.9581 65.8987 36.8856 65.7181L36.2056 64.0181C36.11 63.7806 35.8806 63.625 35.625 63.625C35.3694 63.625 35.14 63.7806 35.045 64.0175L34.3644 65.7175C34.2925 65.8981 34.1475 66.0431 33.9663 66.115L32.2681 66.7938C32.0306 66.8894 31.875 67.1194 31.875 67.375C31.875 67.6306 32.0306 67.8606 32.2681 67.9556V67.9556ZM34.43 67.2763C35.3813 66.8963 35.5663 66.0281 35.625 65.9325C35.6713 66.0087 35.8612 66.8938 36.82 67.2763L37.0662 67.375L36.8194 67.4737C35.8681 67.8537 35.6831 68.7219 35.625 68.8175C35.5787 68.7412 35.3888 67.8562 34.43 67.4737L34.1838 67.375L34.43 67.2763Z" fill="#2F85FE"/>
<path d="M1.01812 68.5806L3.05625 69.3956C3.30437 69.495 3.50437 69.6944 3.60375 69.9425L4.42 71.9825C4.515 72.2194 4.74437 72.375 5 72.375C5.25563 72.375 5.485 72.2194 5.58 71.9825L6.39625 69.9425C6.49563 69.6937 6.69562 69.4944 6.94375 69.3956L8.98188 68.5806C9.21938 68.4856 9.375 68.2556 9.375 68C9.375 67.7444 9.21938 67.5144 8.98188 67.4194L6.94375 66.605C6.69562 66.5056 6.49563 66.3063 6.39625 66.0581L5.58 64.0175C5.485 63.7806 5.25563 63.625 5 63.625C4.74437 63.625 4.515 63.7806 4.42 64.0175L3.60375 66.0575C3.50375 66.3063 3.30437 66.5056 3.05625 66.605L1.01812 67.4194C0.780625 67.5144 0.625 67.7444 0.625 68C0.625 68.2556 0.780625 68.4856 1.01812 68.5806V68.5806ZM3.52 67.7656C4.08437 67.54 4.5375 67.0869 4.76375 66.5225L5 65.9325L5.23625 66.5225C5.4625 67.0869 5.91563 67.54 6.48 67.7656L7.06625 68L6.48 68.2344C5.91563 68.46 5.4625 68.9131 5.23625 69.4775L5 70.0675L4.76375 69.4775C4.5375 68.9131 4.08437 68.46 3.52 68.2344L2.93375 68L3.52 67.7656Z" fill="#2F85FE"/>
</g>
<defs>
<clipPath id="clip0_808_441">
<rect width="40" height="40" fill="white"/>
</clipPath>
<clipPath id="clip1_808_441">
<rect width="40" height="40" fill="white" transform="translate(0 63)"/>
</clipPath>
</defs>
</svg>
