<svg width="40" height="103" viewBox="0 0 40 103" fill="none" xmlns="http://www.w3.org/2000/svg">
<g clip-path="url(#clip0_808_440)">
<path d="M39.8111 14.3826L33.3595 7.93106C33.2667 7.83849 33.1479 7.77639 33.0188 7.753L25.9221 6.46269C25.5716 6.3989 25.2357 6.6314 25.1719 6.98196C25.165 7.01986 25.1615 7.05833 25.1615 7.09688C25.1596 7.30188 25.1412 7.50639 25.1067 7.70849L20.6454 6.59366V6.38721C22.3909 6.03092 23.5171 4.32698 23.1609 2.58143C22.8046 0.83588 21.1006 -0.29032 19.3551 0.0659671C17.8534 0.372497 16.7748 1.69329 16.7745 3.22594H18.0648C18.0648 2.157 18.9313 1.29047 20.0002 1.29047C21.0692 1.29047 21.9357 2.157 21.9357 3.22594C21.9357 4.29488 21.0692 5.16141 20.0002 5.16141C19.644 5.16141 19.3551 5.45028 19.3551 5.80657V6.59301L14.8938 7.70849C14.8592 7.50639 14.8408 7.30188 14.839 7.09688C14.8391 6.90551 14.7542 6.72406 14.6074 6.6014C14.4613 6.47704 14.2666 6.426 14.0784 6.46269L6.98164 7.753C6.85261 7.77639 6.73382 7.83849 6.64099 7.93106L0.189433 14.3826C-0.0624195 14.6346 -0.0624195 15.0429 0.189433 15.2949L5.35068 20.4561C5.60262 20.708 6.011 20.708 6.26293 20.4561L7.74228 18.9768V23.2258H3.22618C1.44999 23.2206 0.00596709 24.6564 0.000805846 26.4326C-0.002178 27.4585 0.484431 28.4242 1.31071 29.0322C-0.114516 30.0735 -0.425723 32.0731 0.61572 33.4984C0.810154 33.7645 1.04459 33.9989 1.31071 34.1934C-0.119838 35.2461 -0.426126 37.2593 0.626607 38.6898C1.23467 39.5161 2.20039 40.0027 3.22618 39.9998H26.4518C26.6229 39.9998 26.787 39.9317 26.9079 39.8107L32.0692 34.6495C32.1886 34.5279 32.2546 34.3638 32.2524 34.1934H32.2582V18.9768L33.7375 20.4561C33.9895 20.708 34.3979 20.708 34.6498 20.4561L39.8111 15.2949C40.0629 15.0429 40.0629 14.6345 39.8111 14.3826ZM20.0002 7.76139L24.6918 8.93428C23.7194 10.5918 21.9211 11.5876 20.0002 11.5323C18.0794 11.5876 16.2811 10.5918 15.3087 8.93428L20.0002 7.76139ZM1.29071 26.4516C1.29071 25.3826 2.15724 24.5161 3.22618 24.5161H17.4196C18.4886 24.5161 19.3551 25.3826 19.3551 26.4516C19.3551 27.5205 18.4886 28.387 17.4196 28.387H3.22618C2.15724 28.387 1.29071 27.5204 1.29071 26.4516ZM1.29071 31.6128C1.29071 30.5439 2.15724 29.6773 3.22618 29.6773H17.4196C18.4886 29.6773 19.3551 30.5439 19.3551 31.6128C19.3551 32.6818 18.4886 33.5483 17.4196 33.5483H3.22618C2.15724 33.5483 1.29071 32.6817 1.29071 31.6128ZM17.4196 38.7095H16.1293H3.22618C2.15724 38.7095 1.29071 37.843 1.29071 36.7741C1.29071 35.7051 2.15724 34.8386 3.22618 34.8386H17.4196C18.4886 34.8386 19.3551 35.7051 19.3551 36.7741C19.3551 37.843 18.4886 38.7095 17.4196 38.7095ZM27.097 37.7973V34.8386H30.0556L27.097 37.7973ZM34.1937 19.0877L30.1337 15.0278L29.2215 15.94L30.9679 17.6865V33.5483H26.4518C26.0955 33.5483 25.8066 33.8371 25.8066 34.1934V38.7095H19.9835C21.0572 37.3184 20.8001 35.3203 19.409 34.2464C19.3857 34.2284 19.3622 34.2108 19.3383 34.1934C20.7635 33.1521 21.0747 31.1525 20.0334 29.7272C19.839 29.4611 19.6045 29.2266 19.3383 29.0322C20.7689 27.9795 21.0752 25.9662 20.0224 24.5357C19.4137 23.7085 18.4465 23.2218 17.4196 23.2258H9.03259V17.6865L10.779 15.94L9.86677 15.0278L5.80681 19.0877L1.55781 14.8388L7.41067 8.9859L13.6042 7.8601C14.0261 10.6575 16.7332 12.8226 19.999 12.8226C23.2647 12.8226 25.9718 10.6575 26.3937 7.8601L32.5872 8.9859L38.4427 14.8388L34.1937 19.0877Z" fill="black"/>
<path d="M18.0648 25.8068H2.58104V27.0971H18.0648V25.8068Z" fill="black"/>
<path d="M17.4196 30.967H2.58104V32.2573H17.4196V30.967Z" fill="black"/>
<path d="M17.4196 36.1289H2.58102V37.4192H17.4196V36.1289Z" fill="black"/>
</g>
<g clip-path="url(#clip1_808_440)">
<path d="M39.8111 77.3826L33.3595 70.9311C33.2667 70.8385 33.1479 70.7764 33.0188 70.753L25.9221 69.4627C25.5716 69.3989 25.2357 69.6314 25.1719 69.982C25.165 70.0199 25.1615 70.0583 25.1615 70.0969C25.1596 70.3019 25.1412 70.5064 25.1067 70.7085L20.6454 69.5937V69.3872C22.3909 69.0309 23.5171 67.327 23.1609 65.5814C22.8046 63.8359 21.1006 62.7097 19.3551 63.066C17.8534 63.3725 16.7748 64.6933 16.7745 66.2259H18.0648C18.0648 65.157 18.9313 64.2905 20.0002 64.2905C21.0692 64.2905 21.9357 65.157 21.9357 66.2259C21.9357 67.2949 21.0692 68.1614 20.0002 68.1614C19.644 68.1614 19.3551 68.4503 19.3551 68.8066V69.593L14.8938 70.7085C14.8592 70.5064 14.8408 70.3019 14.839 70.0969C14.8391 69.9055 14.7542 69.7241 14.6074 69.6014C14.4613 69.477 14.2666 69.426 14.0784 69.4627L6.98164 70.753C6.85261 70.7764 6.73382 70.8385 6.64099 70.9311L0.189433 77.3826C-0.0624195 77.6346 -0.0624195 78.0429 0.189433 78.2949L5.35068 83.4561C5.60262 83.708 6.011 83.708 6.26293 83.4561L7.74228 81.9768V86.2258H3.22618C1.44999 86.2206 0.00596709 87.6564 0.000805846 89.4326C-0.002178 90.4585 0.484431 91.4242 1.31071 92.0322C-0.114516 93.0736 -0.425723 95.0731 0.61572 96.4984C0.810154 96.7645 1.04459 96.9989 1.31071 97.1934C-0.119838 98.2461 -0.426126 100.259 0.626607 101.69C1.23467 102.516 2.20039 103.003 3.22618 103H26.4518C26.6229 103 26.787 102.932 26.9079 102.811L32.0692 97.6495C32.1886 97.528 32.2546 97.3638 32.2524 97.1934H32.2582V81.9768L33.7375 83.4561C33.9895 83.708 34.3979 83.708 34.6498 83.4561L39.8111 78.2949C40.0629 78.0429 40.0629 77.6345 39.8111 77.3826ZM20.0002 70.7614L24.6918 71.9343C23.7194 73.5918 21.9211 74.5876 20.0002 74.5323C18.0794 74.5876 16.2811 73.5918 15.3087 71.9343L20.0002 70.7614ZM1.29071 89.4516C1.29071 88.3826 2.15724 87.5161 3.22618 87.5161H17.4196C18.4886 87.5161 19.3551 88.3826 19.3551 89.4516C19.3551 90.5205 18.4886 91.387 17.4196 91.387H3.22618C2.15724 91.387 1.29071 90.5204 1.29071 89.4516ZM1.29071 94.6128C1.29071 93.5439 2.15724 92.6773 3.22618 92.6773H17.4196C18.4886 92.6773 19.3551 93.5439 19.3551 94.6128C19.3551 95.6818 18.4886 96.5483 17.4196 96.5483H3.22618C2.15724 96.5483 1.29071 95.6817 1.29071 94.6128ZM17.4196 101.71H16.1293H3.22618C2.15724 101.71 1.29071 100.843 1.29071 99.7741C1.29071 98.7051 2.15724 97.8386 3.22618 97.8386H17.4196C18.4886 97.8386 19.3551 98.7051 19.3551 99.7741C19.3551 100.843 18.4886 101.71 17.4196 101.71ZM27.097 100.797V97.8386H30.0556L27.097 100.797ZM34.1937 82.0878L30.1337 78.0278L29.2215 78.94L30.9679 80.6865V96.5483H26.4518C26.0955 96.5483 25.8066 96.8372 25.8066 97.1934V101.71H19.9835C21.0572 100.318 20.8001 98.3203 19.409 97.2464C19.3857 97.2284 19.3622 97.2108 19.3383 97.1934C20.7635 96.1521 21.0747 94.1525 20.0334 92.7272C19.839 92.4611 19.6045 92.2266 19.3383 92.0322C20.7689 90.9795 21.0752 88.9662 20.0224 87.5357C19.4137 86.7085 18.4465 86.2218 17.4196 86.2258H9.03259V80.6865L10.779 78.94L9.86677 78.0278L5.80681 82.0878L1.55781 77.8388L7.41067 71.9859L13.6042 70.8601C14.0261 73.6575 16.7332 75.8226 19.999 75.8226C23.2647 75.8226 25.9718 73.6575 26.3937 70.8601L32.5872 71.9859L38.4427 77.8388L34.1937 82.0878Z" fill="#2F85FE"/>
<path d="M18.0648 88.8068H2.58104V90.0971H18.0648V88.8068Z" fill="#2F85FE"/>
<path d="M17.4196 93.967H2.58104V95.2573H17.4196V93.967Z" fill="#2F85FE"/>
<path d="M17.4196 99.1289H2.58102V100.419H17.4196V99.1289Z" fill="#2F85FE"/>
</g>
<defs>
<clipPath id="clip0_808_440">
<rect width="40" height="40" fill="white"/>
</clipPath>
<clipPath id="clip1_808_440">
<rect width="40" height="40" fill="white" transform="translate(0 63)"/>
</clipPath>
</defs>
</svg>
