<svg width="40" height="103" viewBox="0 0 40 103" fill="none" xmlns="http://www.w3.org/2000/svg">
<g clip-path="url(#clip0_808_437)">
<path d="M37.9189 11.6243C37.7992 11.499 37.6334 11.4277 37.4598 11.4277H19.0472C18.8735 11.4277 18.7076 11.499 18.588 11.6243C18.468 11.7495 18.4047 11.9187 18.4128 12.0924L18.8714 21.9534C18.8876 22.3032 19.1895 22.5792 19.5352 22.5581C19.8855 22.5419 20.1563 22.2443 20.1401 21.8939L19.7124 12.6976H36.7952L35.5842 38.7292H21.3251C20.9745 38.7292 20.6901 39.0132 20.6901 39.3642C20.6901 39.7152 20.9745 39.9991 21.3251 39.9991H36.1901C36.5293 39.9991 36.8085 39.7325 36.8244 39.3938L38.0942 12.0924C38.1022 11.9187 38.039 11.7495 37.9189 11.6243Z" fill="black"/>
<path d="M26.032 34.9199H3.17499C2.82436 34.9199 2.54004 35.2039 2.54004 35.5549C2.54004 38.0053 4.5338 39.9993 6.98449 39.9993H22.2225C24.6731 39.9993 26.667 38.0052 26.667 35.5549C26.6669 35.2039 26.3827 34.9199 26.032 34.9199ZM22.2225 38.7294H6.98449C5.4513 38.7294 4.16847 37.6369 3.87374 36.1897H25.3333C25.0384 37.6369 23.7555 38.7294 22.2225 38.7294Z" fill="black"/>
<path d="M26.0315 31.1113H3.17447C1.77418 31.1113 0.634766 32.2504 0.634766 33.651C0.634766 35.0517 1.77408 36.1907 3.17447 36.1907H26.0315C27.4318 36.1907 28.5712 35.0517 28.5712 33.651C28.5712 32.2504 27.4318 31.1113 26.0315 31.1113ZM26.0315 34.9208H3.17447C2.47414 34.9208 1.90466 34.351 1.90466 33.651C1.90466 32.9511 2.47423 32.3812 3.17447 32.3812H26.0315C26.7318 32.3812 27.3013 32.9511 27.3013 33.651C27.3013 34.351 26.7317 34.9208 26.0315 34.9208Z" fill="black"/>
<path d="M27.9359 19.0469C25.039 19.0469 22.511 21.0039 21.7879 23.8051C21.7001 24.145 21.9045 24.4909 22.2439 24.5789C22.5842 24.6658 22.9297 24.4624 23.0175 24.1226C23.5956 21.8816 25.6181 20.3167 27.9359 20.3167C30.7366 20.3167 33.0152 22.5952 33.0152 25.396C33.0152 28.1968 30.7366 30.4753 27.9359 30.4753C27.3534 30.4753 26.7829 30.378 26.2407 30.1858C25.9105 30.0699 25.5472 30.2417 25.4303 30.5721C25.3131 30.9026 25.4862 31.2653 25.8167 31.3825C26.4954 31.623 27.2084 31.7452 27.936 31.7452C31.4371 31.7452 34.285 28.8968 34.285 25.396C34.285 21.8952 31.437 19.0469 27.9359 19.0469Z" fill="black"/>
<path d="M15.8733 20.9531H13.3336C7.38191 20.9531 2.54004 25.795 2.54004 31.7467C2.54004 32.0976 2.82436 32.3816 3.17499 32.3816H26.032C26.3827 32.3816 26.667 32.0977 26.667 31.7467C26.6669 25.7951 21.825 20.9531 15.8733 20.9531ZM3.83096 31.1118C4.15889 26.1552 8.2955 22.223 13.3336 22.223H15.8733C20.9114 22.223 25.048 26.1552 25.376 31.1118H3.83096Z" fill="black"/>
<path d="M9.52386 24.7619H8.25406V26.0317H9.52386V24.7619Z" fill="black"/>
<path d="M8.88888 27.3008H7.61908V28.5706H8.88888V27.3008Z" fill="black"/>
<path d="M16.5079 24.1269H15.2381V25.3967H16.5079V24.1269Z" fill="black"/>
<path d="M20.3177 27.3008H19.0479V28.5706H20.3177V27.3008Z" fill="black"/>
<path d="M14.6028 27.9355H13.333V29.2054H14.6028V27.9355Z" fill="black"/>
<path d="M38.7301 8.88867H17.1429C16.7923 8.88867 16.5079 9.17262 16.5079 9.52362V12.0633C16.5079 12.4142 16.7923 12.6983 17.1429 12.6983H38.7301C39.0807 12.6983 39.3651 12.4143 39.3651 12.0633V9.52362C39.3651 9.17262 39.0807 8.88867 38.7301 8.88867ZM38.0952 11.4283H17.7778V10.1585H38.0952V11.4283Z" fill="black"/>
<path d="M22.2077 9.3906L20.303 0.501783C20.2295 0.159523 19.8926 -0.0599701 19.549 0.0145274C19.2062 0.0877227 18.9876 0.425612 19.0611 0.768523L20.9658 9.65734C21.0296 9.95496 21.2931 10.1589 21.5862 10.1589C21.6302 10.1589 21.6752 10.1545 21.7198 10.1446C22.0628 10.0714 22.2813 9.73342 22.2077 9.3906Z" fill="black"/>
</g>
<g clip-path="url(#clip1_808_437)">
<path d="M37.9189 74.6243C37.7992 74.499 37.6334 74.4277 37.4598 74.4277H19.0472C18.8735 74.4277 18.7076 74.499 18.588 74.6243C18.468 74.7495 18.4047 74.9187 18.4128 75.0924L18.8714 84.9534C18.8876 85.3032 19.1895 85.5792 19.5352 85.5581C19.8855 85.5419 20.1563 85.2443 20.1401 84.8939L19.7124 75.6976H36.7952L35.5842 101.729H21.3251C20.9745 101.729 20.6901 102.013 20.6901 102.364C20.6901 102.715 20.9745 102.999 21.3251 102.999H36.1901C36.5293 102.999 36.8085 102.732 36.8244 102.394L38.0942 75.0924C38.1022 74.9187 38.039 74.7495 37.9189 74.6243Z" fill="#2F85FE"/>
<path d="M26.032 97.9199H3.17499C2.82436 97.9199 2.54004 98.2039 2.54004 98.5549C2.54004 101.005 4.5338 102.999 6.98449 102.999H22.2225C24.6731 102.999 26.667 101.005 26.667 98.5549C26.6669 98.2039 26.3827 97.9199 26.032 97.9199ZM22.2225 101.729H6.98449C5.4513 101.729 4.16847 100.637 3.87374 99.1897H25.3333C25.0384 100.637 23.7555 101.729 22.2225 101.729Z" fill="#2F85FE"/>
<path d="M26.0315 94.1113H3.17447C1.77418 94.1113 0.634766 95.2504 0.634766 96.651C0.634766 98.0517 1.77408 99.1907 3.17447 99.1907H26.0315C27.4318 99.1907 28.5712 98.0517 28.5712 96.651C28.5712 95.2504 27.4318 94.1113 26.0315 94.1113ZM26.0315 97.9208H3.17447C2.47414 97.9208 1.90466 97.351 1.90466 96.651C1.90466 95.9511 2.47423 95.3812 3.17447 95.3812H26.0315C26.7318 95.3812 27.3013 95.9511 27.3013 96.651C27.3013 97.351 26.7317 97.9208 26.0315 97.9208Z" fill="#2F85FE"/>
<path d="M27.9359 82.0469C25.039 82.0469 22.511 84.0039 21.7879 86.8051C21.7001 87.145 21.9045 87.4909 22.2439 87.5789C22.5842 87.6658 22.9297 87.4624 23.0175 87.1226C23.5956 84.8816 25.6181 83.3167 27.9359 83.3167C30.7366 83.3167 33.0152 85.5952 33.0152 88.396C33.0152 91.1968 30.7366 93.4753 27.9359 93.4753C27.3534 93.4753 26.7829 93.378 26.2407 93.1858C25.9105 93.0699 25.5472 93.2417 25.4303 93.5721C25.3131 93.9026 25.4862 94.2653 25.8167 94.3825C26.4954 94.623 27.2084 94.7452 27.936 94.7452C31.4371 94.7452 34.285 91.8968 34.285 88.396C34.285 84.8952 31.437 82.0469 27.9359 82.0469Z" fill="#2F85FE"/>
<path d="M15.8733 83.9531H13.3336C7.38191 83.9531 2.54004 88.795 2.54004 94.7467C2.54004 95.0976 2.82436 95.3816 3.17499 95.3816H26.032C26.3827 95.3816 26.667 95.0977 26.667 94.7467C26.6669 88.7951 21.825 83.9531 15.8733 83.9531ZM3.83096 94.1118C4.15889 89.1552 8.2955 85.223 13.3336 85.223H15.8733C20.9114 85.223 25.048 89.1552 25.376 94.1118H3.83096Z" fill="#2F85FE"/>
<path d="M9.52386 87.7619H8.25406V89.0317H9.52386V87.7619Z" fill="#2F85FE"/>
<path d="M8.88888 90.3008H7.61908V91.5706H8.88888V90.3008Z" fill="#2F85FE"/>
<path d="M16.5079 87.1269H15.2381V88.3967H16.5079V87.1269Z" fill="#2F85FE"/>
<path d="M20.3177 90.3008H19.0479V91.5706H20.3177V90.3008Z" fill="#2F85FE"/>
<path d="M14.6028 90.9355H13.333V92.2054H14.6028V90.9355Z" fill="#2F85FE"/>
<path d="M38.7301 71.8887H17.1429C16.7923 71.8887 16.5079 72.1726 16.5079 72.5236V75.0633C16.5079 75.4142 16.7923 75.6983 17.1429 75.6983H38.7301C39.0807 75.6983 39.3651 75.4143 39.3651 75.0633V72.5236C39.3651 72.1726 39.0807 71.8887 38.7301 71.8887ZM38.0952 74.4283H17.7778V73.1585H38.0952V74.4283Z" fill="#2F85FE"/>
<path d="M22.2077 72.3906L20.303 63.5018C20.2295 63.1595 19.8926 62.94 19.549 63.0145C19.2062 63.0877 18.9876 63.4256 19.0611 63.7685L20.9658 72.6573C21.0296 72.955 21.2931 73.1589 21.5862 73.1589C21.6302 73.1589 21.6752 73.1545 21.7198 73.1446C22.0628 73.0714 22.2813 72.7334 22.2077 72.3906Z" fill="#2F85FE"/>
</g>
<defs>
<clipPath id="clip0_808_437">
<rect width="40" height="40" fill="white"/>
</clipPath>
<clipPath id="clip1_808_437">
<rect width="40" height="40" fill="white" transform="translate(0 63)"/>
</clipPath>
</defs>
</svg>
