<svg width="55" height="55" viewBox="0 0 55 55" fill="none" xmlns="http://www.w3.org/2000/svg">
<g clip-path="url(#clip0_9_26)">
<rect width="55" height="55" fill="white"/>
<path d="M20.1758 19.5439C20.1758 17.749 21.6309 16.2939 23.4258 16.2939H31.6134C33.4083 16.2939 34.8634 17.749 34.8634 19.5439V39.4536C34.8634 41.2485 33.4083 42.7036 31.6134 42.7036H23.4258C21.6309 42.7036 20.1758 41.2485 20.1758 39.4536V19.5439Z" stroke="#282828" stroke-width="1.5"/>
<circle cx="27.7995" cy="29.4978" r="3.96554" stroke="#282828"/>
<circle cx="26.3628" cy="28.0621" r="0.797418" fill="#282828"/>
<circle cx="29.2369" cy="28.0621" r="0.797418" fill="#282828"/>
<mask id="path-5-inside-1_9_26" fill="white">
<path fill-rule="evenodd" clip-rule="evenodd" d="M25.0184 29.5769C24.9571 29.4514 24.862 29.3379 24.7668 29.3379C24.6891 29.3379 24.6366 29.4263 24.6094 29.5478C24.6365 31.286 26.054 32.6868 27.7987 32.6868C29.5386 32.6868 30.9531 31.2936 30.9877 29.562C30.9614 29.4333 30.9079 29.3379 30.8272 29.3379C30.7354 29.3379 30.6437 29.4434 30.5823 29.5635C30.5744 29.5947 30.566 29.6258 30.5572 29.6566C30.5423 29.7082 30.526 29.7591 30.5083 29.8095C30.5083 29.8118 30.5082 29.8141 30.5082 29.8163L30.5063 29.8154C30.1124 30.9307 29.0488 31.7299 27.7987 31.7299C26.5479 31.7299 25.484 30.93 25.0906 29.814L25.0858 29.8163C25.0858 29.8106 25.0856 29.8047 25.0852 29.7986C25.06 29.726 25.0377 29.652 25.0184 29.5769Z"/>
</mask>
<path fill-rule="evenodd" clip-rule="evenodd" d="M25.0184 29.5769C24.9571 29.4514 24.862 29.3379 24.7668 29.3379C24.6891 29.3379 24.6366 29.4263 24.6094 29.5478C24.6365 31.286 26.054 32.6868 27.7987 32.6868C29.5386 32.6868 30.9531 31.2936 30.9877 29.562C30.9614 29.4333 30.9079 29.3379 30.8272 29.3379C30.7354 29.3379 30.6437 29.4434 30.5823 29.5635C30.5744 29.5947 30.566 29.6258 30.5572 29.6566C30.5423 29.7082 30.526 29.7591 30.5083 29.8095C30.5083 29.8118 30.5082 29.8141 30.5082 29.8163L30.5063 29.8154C30.1124 30.9307 29.0488 31.7299 27.7987 31.7299C26.5479 31.7299 25.484 30.93 25.0906 29.814L25.0858 29.8163C25.0858 29.8106 25.0856 29.8047 25.0852 29.7986C25.06 29.726 25.0377 29.652 25.0184 29.5769Z" fill="white"/>
<path d="M25.0184 29.5769L25.9868 29.3276L25.9615 29.2293L25.917 29.138L25.0184 29.5769ZM24.6094 29.5478L23.6336 29.3292L23.6076 29.4448L23.6095 29.5634L24.6094 29.5478ZM30.9877 29.562L31.9875 29.582L31.9897 29.471L31.9675 29.3623L30.9877 29.562ZM30.5823 29.5635L29.692 29.1081L29.6404 29.209L29.6127 29.3189L30.5823 29.5635ZM30.5572 29.6566L31.5179 29.9338L31.5179 29.9338L30.5572 29.6566ZM30.5083 29.8095L29.5647 29.4785L29.513 29.626L29.5087 29.7821L30.5083 29.8095ZM30.5082 29.8163L30.061 30.7108L31.5082 31.4343V29.8163H30.5082ZM30.5063 29.8154L30.9534 28.9209L29.9405 28.4145L29.5633 29.4824L30.5063 29.8154ZM25.0906 29.814L26.0337 29.4814L25.6569 28.4128L24.6433 28.9195L25.0906 29.814ZM25.0858 29.8163H24.0858V31.4344L25.533 30.7108L25.0858 29.8163ZM25.0852 29.7986L26.083 29.7326L26.0741 29.5985L26.0302 29.4715L25.0852 29.7986ZM24.7668 30.3379C24.5882 30.3379 24.449 30.2843 24.3612 30.2368C24.2754 30.1903 24.2203 30.14 24.1924 30.1115C24.1393 30.0576 24.1215 30.0191 24.1199 30.0158L25.917 29.138C25.854 29.0092 25.758 28.8512 25.6183 28.7091C25.5 28.5888 25.2093 28.3379 24.7668 28.3379V30.3379ZM25.5852 29.7664C25.5841 29.7712 25.5661 29.8603 25.487 29.9727C25.4008 30.0952 25.1648 30.3379 24.7668 30.3379V28.3379C24.2911 28.3379 23.99 28.6248 23.8513 28.8218C23.7197 29.0089 23.6619 29.2029 23.6336 29.3292L25.5852 29.7664ZM27.7987 31.6868C26.601 31.6868 25.6278 30.7251 25.6093 29.5322L23.6095 29.5634C23.6451 31.8469 25.5069 33.6868 27.7987 33.6868V31.6868ZM29.9879 29.542C29.9642 30.7304 28.993 31.6868 27.7987 31.6868V33.6868C30.0842 33.6868 31.9421 31.8569 31.9875 29.582L29.9879 29.542ZM31.9675 29.3623C31.9412 29.2331 31.8866 29.0361 31.7588 28.8452C31.6264 28.6476 31.3231 28.3379 30.8272 28.3379V30.3379C30.412 30.3379 30.1758 30.0759 30.097 29.9581C30.0227 29.8472 30.0079 29.7621 30.0078 29.7617L31.9675 29.3623ZM30.8272 28.3379C30.3991 28.3379 30.1136 28.5733 29.9921 28.6928C29.8519 28.8307 29.7554 28.9842 29.692 29.1081L31.4726 30.0188C31.4706 30.0227 31.4507 30.0635 31.3946 30.1186C31.3573 30.1553 31.1635 30.3379 30.8272 30.3379V28.3379ZM31.5179 29.9338C31.53 29.8922 31.5413 29.8503 31.5519 29.808L29.6127 29.3189C29.6076 29.3392 29.6021 29.3593 29.5964 29.3793L31.5179 29.9338ZM31.452 30.1404C31.4758 30.0724 31.4978 30.0035 31.5179 29.9338L29.5964 29.3793C29.5867 29.4128 29.5761 29.4459 29.5647 29.4785L31.452 30.1404ZM29.5087 29.7821C29.5084 29.7932 29.5082 29.8047 29.5082 29.8163H31.5082C31.5082 29.8235 31.5081 29.8304 31.5079 29.8368L29.5087 29.7821ZM30.9554 28.9219L30.9534 28.9209L30.0591 30.7098L30.061 30.7108L30.9554 28.9219ZM27.7987 32.7299C29.4859 32.7299 30.9186 31.6509 31.4492 30.1484L29.5633 29.4824C29.3062 30.2105 28.6118 30.7299 27.7987 30.7299V32.7299ZM24.1475 30.1465C24.6775 31.65 26.1107 32.7299 27.7987 32.7299V30.7299C26.9852 30.7299 26.2905 30.2101 26.0337 29.4814L24.1475 30.1465ZM25.533 30.7108L25.5378 30.7084L24.6433 28.9195L24.6386 28.9219L25.533 30.7108ZM24.0874 29.8645C24.0864 29.8506 24.0858 29.8344 24.0858 29.8163H26.0858C26.0858 29.7868 26.0847 29.7588 26.083 29.7326L24.0874 29.8645ZM24.05 29.8262C24.0761 29.9277 24.1062 30.0276 24.1402 30.1257L26.0302 29.4715C26.0139 29.4243 25.9994 29.3764 25.9868 29.3276L24.05 29.8262Z" fill="#282828" mask="url(#path-5-inside-1_9_26)"/>
<path d="M14.3837 14.9619L14.8678 15.0868C14.912 14.9155 14.8624 14.7336 14.7373 14.6084C14.6122 14.4833 14.4303 14.4336 14.259 14.4777L14.3837 14.9619ZM9.86102 20.5401L9.36376 20.5924C9.38033 20.7498 9.47041 20.8901 9.60666 20.9706C9.7429 21.0511 9.90921 21.0623 10.0551 21.0009L9.86102 20.5401ZM7.63386 16.1587L8.09146 15.9572C8.02015 15.7952 7.86856 15.683 7.69286 15.6622C7.51716 15.6413 7.3435 15.7148 7.23623 15.8555L7.63386 16.1587ZM7.53389 23.3393L7.1757 23.6881C7.28612 23.8015 7.44368 23.8559 7.60052 23.8348C7.75736 23.8137 7.89496 23.7196 7.9715 23.5811L7.53389 23.3393ZM4.7071 21.8836L5.11349 21.5923C5.01042 21.4485 4.83901 21.3699 4.66277 21.3856C4.48652 21.4013 4.3317 21.5089 4.25564 21.6687L4.7071 21.8836ZM6.08542 28.9314L5.80659 29.3464C5.93795 29.4347 6.10334 29.4555 6.25249 29.4026C6.40165 29.3498 6.51696 29.2294 6.5634 29.0781L6.08542 28.9314ZM2.63169 28.0969L2.91785 27.6869C2.77275 27.5856 2.58494 27.5686 2.42399 27.6421C2.26304 27.7156 2.15292 27.8687 2.13443 28.0447L2.63169 28.0969ZM6.27905 34.283L6.15441 34.7672C6.30766 34.8067 6.47055 34.7712 6.59357 34.6717C6.71659 34.5721 6.78522 34.4202 6.77861 34.2621L6.27905 34.283ZM11.5206 35.6527L12.0028 35.5203C11.9559 35.3497 11.8224 35.2165 11.6516 35.1702C11.4808 35.1238 11.2983 35.1711 11.1716 35.2947L11.5206 35.6527ZM10.3715 42.7414L9.96612 43.0342C10.0588 43.1625 10.2067 43.2393 10.3649 43.2414C10.5232 43.2435 10.673 43.1705 10.769 43.0447L10.3715 42.7414ZM2 34.1208L2.10408 33.6318C1.93101 33.595 1.75137 33.6523 1.6317 33.7827C1.51203 33.913 1.47016 34.0969 1.52159 34.2662L2 34.1208ZM7.76685 38.4004L7.84043 38.8949C7.99696 38.8716 8.13322 38.7756 8.20781 38.636C8.28241 38.4965 8.28653 38.3298 8.21892 38.1868L7.76685 38.4004ZM2.78297 38.9424L2.80661 38.4429C2.62987 38.4346 2.46187 38.5202 2.36484 38.6682C2.26782 38.8162 2.25622 39.0044 2.33435 39.1632L2.78297 38.9424ZM9.16581 42.2333L9.31837 42.7095C9.46908 42.6612 9.58802 42.5444 9.63908 42.3946C9.69013 42.2448 9.66725 42.0797 9.5774 41.9494L9.16581 42.2333ZM5.37317 43.5791L5.30387 43.0839C5.12863 43.1084 4.97941 43.2237 4.91148 43.3871C4.84356 43.5505 4.86703 43.7376 4.97322 43.8791L5.37317 43.5791ZM12.2552 45.6304L12.4934 46.07C12.6325 45.9947 12.7278 45.8579 12.7502 45.7012C12.7726 45.5446 12.7195 45.3865 12.6071 45.2752L12.2552 45.6304ZM9.54046 47.5634L9.40669 47.0816C9.2362 47.1289 9.10343 47.2629 9.05755 47.4338C9.01168 47.6046 9.05954 47.787 9.18341 47.9134L9.54046 47.5634ZM16.6324 48.6926L16.9263 49.0972C17.0543 49.0042 17.1307 48.856 17.1324 48.6978C17.134 48.5395 17.0606 48.3899 16.9346 48.2942L16.6324 48.6926ZM13.9261 51.2858L13.6615 50.8616C13.5114 50.9552 13.4219 51.1212 13.4263 51.2981C13.4306 51.475 13.5281 51.6364 13.6827 51.7226L13.9261 51.2858ZM21.0478 50.3628L21.4441 50.6677C21.5406 50.5423 21.572 50.3786 21.5289 50.2263C21.4857 50.0741 21.3729 49.9513 21.2249 49.8952L21.0478 50.3628ZM19.0469 53.5008L18.7313 53.113C18.594 53.2247 18.5261 53.4006 18.5525 53.5756C18.579 53.7505 18.696 53.8984 18.8601 53.9646L19.0469 53.5008ZM25.9968 51.6926L26.4282 51.9454C26.5082 51.8089 26.5189 51.6425 26.457 51.4969C26.395 51.3513 26.2678 51.2435 26.114 51.2065L25.9968 51.6926ZM13.6039 38.9592L13.9964 38.6494C13.8868 38.5105 13.7119 38.4399 13.5366 38.4637C13.3613 38.4875 13.2116 38.6022 13.143 38.7653L13.6039 38.9592ZM13.8237 46.1371L13.3902 46.3862C13.4691 46.5234 13.6082 46.6152 13.7654 46.6337C13.9226 46.6521 14.0792 46.5951 14.1877 46.4799L13.8237 46.1371ZM16.2318 41.7679L16.5164 41.3569C16.371 41.2561 16.1831 41.2398 16.0224 41.3139C15.8617 41.388 15.7522 41.5414 15.7343 41.7175L16.2318 41.7679ZM18.543 48.5671L18.2014 48.9323C18.3169 49.0404 18.4769 49.0874 18.6325 49.0591C18.7882 49.0307 18.9213 48.9303 18.9914 48.7884L18.543 48.5671ZM19.9436 45.7879L19.9641 45.2884C19.7873 45.2811 19.6198 45.3678 19.5237 45.5164C19.4277 45.665 19.4173 45.8533 19.4964 46.0116L19.9436 45.7879ZM25.5349 50.2944L25.4417 50.7857C25.5972 50.8152 25.7575 50.7693 25.8738 50.662C25.9902 50.5548 26.0489 50.3987 26.0321 50.2414L25.5349 50.2944ZM13.356 20.2691L13.8487 20.3542C13.8788 20.1798 13.8145 20.0025 13.6796 19.888C13.5447 19.7735 13.3594 19.7387 13.1922 19.7967L13.356 20.2691ZM8.16275 25.2291L7.68772 25.073C7.63833 25.2234 7.66304 25.3882 7.75432 25.5175C7.84561 25.6468 7.9927 25.7252 8.1509 25.7289L8.16275 25.2291ZM10.3438 25.6047L10.8383 25.5302C10.8119 25.3552 10.6951 25.2072 10.531 25.141C10.3669 25.0748 10.1801 25.1002 10.0396 25.2079L10.3438 25.6047ZM6.9769 31.9477L6.4769 31.9492C6.47737 32.1075 6.55273 32.2562 6.68008 32.3501C6.80743 32.444 6.97174 32.4722 7.12308 32.4259L6.9769 31.9477ZM10.2037 30.4358L10.6662 30.2456C10.5988 30.082 10.4501 29.9661 10.2749 29.9409C10.0998 29.9157 9.92438 29.985 9.81368 30.123L10.2037 30.4358ZM8.44651 37.3988L7.96129 37.5195C7.99949 37.673 8.10813 37.7995 8.2542 37.8603C8.40028 37.9212 8.56655 37.9093 8.70249 37.8283L8.44651 37.3988ZM14.259 14.4777C13.3663 14.7076 12.0644 15.2772 11.0222 16.258C9.96689 17.2511 9.16303 18.6848 9.36376 20.5924L10.3583 20.4878C10.1973 18.9579 10.8256 17.8161 11.7075 16.9863C12.6025 16.1441 13.7428 15.6433 14.5084 15.4461L14.259 14.4777ZM10.0551 21.0009C10.7368 20.7139 11.3461 20.488 11.8161 20.2709C12.3095 20.043 12.7358 19.7891 13.108 19.3944C13.8327 18.6257 14.2709 17.4002 14.8678 15.0868L13.8996 14.837C13.2905 17.1974 12.8994 18.1579 12.3804 18.7084C12.1307 18.9732 11.8315 19.1622 11.3967 19.363C10.9387 19.5746 10.4173 19.7633 9.66698 20.0793L10.0551 21.0009ZM7.23623 15.8555C6.67736 16.5886 6.00734 17.8417 5.79571 19.2572C5.58143 20.6903 5.83738 22.314 7.1757 23.6881L7.89208 22.9904C6.81879 21.8884 6.60565 20.6027 6.78471 19.405C6.96644 18.1896 7.55221 17.0905 8.0315 16.4618L7.23623 15.8555ZM7.9715 23.5811C8.32932 22.9337 8.6681 22.3792 8.90289 21.9178C9.14936 21.4334 9.32711 20.9702 9.37514 20.4298C9.46866 19.3775 9.05433 18.1437 8.09146 15.9572L7.17627 16.3602C8.15872 18.5912 8.44604 19.5877 8.37907 20.3413C8.34684 20.7038 8.22881 21.0375 8.01164 21.4642C7.7828 21.914 7.4901 22.3848 7.09628 23.0974L7.9715 23.5811ZM4.25564 21.6687C3.85941 22.501 3.46131 23.8651 3.54518 25.2938C3.6301 26.7404 4.21437 28.2768 5.80659 29.3464L6.36424 28.5163C5.08732 27.6585 4.61442 26.4441 4.54346 25.2352C4.47144 24.0084 4.81875 22.8123 5.15855 22.0985L4.25564 21.6687ZM6.5634 29.0781C6.78048 28.3709 6.99803 27.7586 7.13295 27.2588C7.27458 26.7341 7.35331 26.2442 7.28922 25.7055C7.16442 24.6564 6.5053 23.5342 5.11349 21.5923L4.3007 22.1749C5.72081 24.1562 6.20685 25.0724 6.29622 25.8237C6.33922 26.1851 6.2923 26.5359 6.16751 26.9982C6.036 27.4853 5.84635 28.0063 5.60743 28.7846L6.5634 29.0781ZM2.13443 28.0447C2.0381 28.9614 2.11714 30.3802 2.67214 31.6994C3.23411 33.0351 4.29681 34.2891 6.15441 34.7672L6.40369 33.7988C4.91395 33.4153 4.06349 32.4278 3.59388 31.3116C3.11731 30.1788 3.04634 28.9354 3.12896 28.1492L2.13443 28.0447ZM6.77861 34.2621C6.74772 33.523 6.74887 32.8732 6.70958 32.357C6.66834 31.8151 6.57939 31.327 6.3395 30.8404C5.87235 29.8928 4.87704 29.0542 2.91785 27.6869L2.34554 28.5069C4.34456 29.902 5.10804 30.604 5.44257 31.2826C5.60352 31.609 5.67613 31.9554 5.71246 32.4329C5.75075 32.936 5.74549 33.4904 5.77948 34.3039L6.77861 34.2621ZM11.1716 35.2947C10.5115 35.9381 9.66542 37.0798 9.24905 38.449C8.82745 39.8354 8.84318 41.4791 9.96612 43.0342L10.7768 42.4487C9.87628 41.2016 9.85348 39.8985 10.2058 38.7399C10.5633 37.5642 11.3036 36.5626 11.8696 36.0107L11.1716 35.2947ZM10.769 43.0447C11.2177 42.4566 11.6339 41.9576 11.9337 41.5355C12.2483 41.0924 12.4919 40.6601 12.6185 40.1326C12.8649 39.1052 12.6355 37.8241 12.0028 35.5203L11.0385 35.7851C11.6841 38.1358 11.8225 39.1636 11.6461 39.8993C11.5612 40.2533 11.3956 40.566 11.1183 40.9565C10.8262 41.3679 10.4678 41.7909 9.97395 42.4382L10.769 43.0447ZM1.52159 34.2662C1.78956 35.1482 2.41439 36.4244 3.43892 37.4237C4.4763 38.4355 5.94316 39.1772 7.84043 38.8949L7.69326 37.9058C6.17171 38.1322 5.00403 37.5533 4.13714 36.7078C3.25739 35.8498 2.70822 34.7319 2.47841 33.9755L1.52159 34.2662ZM8.21892 38.1868C7.90291 37.5179 7.65113 36.9189 7.41409 36.4586C7.16526 35.9755 6.89339 35.5604 6.48308 35.2055C5.68406 34.5143 4.44089 34.1291 2.10408 33.6318L1.89592 34.6099C4.28025 35.1173 5.25667 35.4669 5.82887 35.9618C6.10416 36.1999 6.30582 36.4908 6.52506 36.9165C6.7561 37.3651 6.96695 37.8778 7.31477 38.614L8.21892 38.1868ZM2.33435 39.1632C2.74138 39.9903 3.56432 41.1487 4.73692 41.9692C5.92422 42.8 7.49169 43.2948 9.31837 42.7095L9.01324 41.7572C7.5483 42.2266 6.3024 41.8441 5.31022 41.1498C4.30333 40.4453 3.58066 39.4309 3.23159 38.7216L2.33435 39.1632ZM9.5774 41.9494C9.15742 41.3405 8.8121 40.79 8.50377 40.3741C8.18011 39.9376 7.84472 39.5719 7.38243 39.288C6.48218 38.7351 5.19308 38.5559 2.80661 38.4429L2.75932 39.4418C5.19431 39.5571 6.2144 39.7442 6.85909 40.1401C7.16926 40.3306 7.41528 40.585 7.70046 40.9697C8.00098 41.375 8.29196 41.847 8.75421 42.5172L9.5774 41.9494ZM4.97322 43.8791C5.52646 44.6165 6.54979 45.6024 7.8541 46.1914C9.17478 46.7878 10.8068 46.9836 12.4934 46.07L12.0171 45.1908C10.6645 45.9234 9.3693 45.7784 8.26567 45.2801C7.14567 44.7743 6.24757 43.9114 5.77312 43.279L4.97322 43.8791ZM12.6071 45.2752C12.0816 44.7546 11.6402 44.2776 11.2602 43.9261C10.8613 43.557 10.4639 43.2599 9.95703 43.0665C8.96993 42.69 7.66995 42.7527 5.30387 43.0839L5.44247 44.0742C7.85666 43.7364 8.89375 43.7312 9.60064 44.0009C9.94074 44.1306 10.2296 44.335 10.5812 44.6602C10.9516 45.0028 11.3249 45.4127 11.9034 45.9856L12.6071 45.2752ZM9.18341 47.9134C9.82874 48.5717 10.9727 49.4146 12.3431 49.8271C13.7307 50.2448 15.3743 50.2245 16.9263 49.0972L16.3386 48.2881C15.0939 49.1922 13.7909 49.2186 12.6314 48.8695C11.4546 48.5153 10.4509 47.7779 9.89751 47.2134L9.18341 47.9134ZM16.9346 48.2942C16.3452 47.8472 15.845 47.4324 15.422 47.1338C14.9781 46.8204 14.5451 46.578 14.0172 46.453C12.9892 46.2094 11.7087 46.4424 9.40669 47.0816L9.67422 48.0452C12.0231 47.393 13.0505 47.2516 13.7867 47.426C14.1409 47.5099 14.4541 47.6746 14.8453 47.9508C15.2576 48.2418 15.6816 48.599 16.3303 49.091L16.9346 48.2942ZM13.6827 51.7226C14.4878 52.1714 15.8236 52.6563 17.2547 52.6643C18.7038 52.6724 20.2745 52.188 21.4441 50.6677L20.6516 50.0579C19.7135 51.2771 18.4712 51.6711 17.2603 51.6643C16.0314 51.6574 14.8601 51.234 14.1696 50.8491L13.6827 51.7226ZM21.2249 49.8952C20.5332 49.6332 19.9361 49.3768 19.446 49.21C18.9315 49.035 18.4476 48.925 17.9059 48.9544C16.851 49.0116 15.6887 49.5973 13.6615 50.8616L14.1907 51.7101C16.2591 50.4201 17.2046 49.9939 17.9601 49.9529C18.3235 49.9332 18.6706 50.0026 19.1239 50.1568C19.6016 50.3193 20.1093 50.542 20.8707 50.8304L21.2249 49.8952ZM18.8601 53.9646C19.7152 54.309 21.1011 54.6226 22.522 54.4512C23.9607 54.2777 25.4583 53.6003 26.4282 51.9454L25.5655 51.4397C24.7876 52.7669 23.6045 53.3134 22.4022 53.4584C21.1822 53.6056 19.967 53.3323 19.2337 53.037L18.8601 53.9646ZM26.114 51.2065C25.3948 51.0332 24.7703 50.8536 24.2631 50.7496C23.7307 50.6405 23.237 50.592 22.7032 50.689C21.6638 50.8779 20.5841 51.6047 18.7313 53.113L19.3626 53.8885C21.2531 52.3495 22.1377 51.8082 22.882 51.6729C23.2402 51.6078 23.5932 51.6331 24.0623 51.7293C24.5566 51.8306 25.0882 51.9879 25.8797 52.1787L26.114 51.2065ZM13.2114 39.2689C13.7011 39.8895 14.3051 40.9787 14.5071 42.1909C14.7062 43.3854 14.5145 44.6745 13.4598 45.7943L14.1877 46.4799C15.5029 45.0836 15.7317 43.4559 15.4935 42.0265C15.2583 40.6148 14.5674 39.3731 13.9964 38.6494L13.2114 39.2689ZM14.2572 45.888C13.8516 45.182 13.5511 44.7161 13.3147 44.2703C13.0905 43.8472 12.9669 43.5156 12.9286 43.1536C12.8491 42.4012 13.1197 41.4001 14.0648 39.153L13.143 38.7653C12.2168 40.9676 11.8231 42.2081 11.9342 43.2588C11.9912 43.7983 12.1767 44.2585 12.4312 44.7386C12.6736 45.1961 13.0216 45.7449 13.3902 46.3862L14.2572 45.888ZM15.9471 42.179C16.597 42.6291 17.4934 43.4938 18.0414 44.5938C18.5813 45.6777 18.7754 46.9664 18.0946 48.3459L18.9914 48.7884C19.8403 47.0683 19.5826 45.4449 18.9365 44.1479C18.2983 42.8669 17.2743 41.8817 16.5164 41.3569L15.9471 42.179ZM18.8846 48.202C18.2901 47.6458 17.8663 47.2882 17.5099 46.9311C17.1716 46.5922 16.9564 46.3113 16.8138 45.9763C16.5175 45.2802 16.4833 44.2437 16.7292 41.8184L15.7343 41.7175C15.4933 44.0944 15.4799 45.3959 15.8937 46.368C16.1061 46.8671 16.4182 47.2529 16.8021 47.6375C17.1678 48.004 17.6612 48.4269 18.2014 48.9323L18.8846 48.202ZM19.9231 46.2875C20.713 46.3199 21.933 46.5705 22.9846 47.2065C24.0208 47.8331 24.8745 48.8179 25.0377 50.3475L26.0321 50.2414C25.8286 48.3341 24.7421 47.1006 23.5021 46.3508C22.2774 45.6102 20.8851 45.3261 19.9641 45.2884L19.9231 46.2875ZM25.628 49.8032C24.8281 49.6515 24.2788 49.5762 23.7866 49.4653C23.3194 49.3601 22.9873 49.238 22.6876 49.0314C22.0647 48.6019 21.4811 47.7446 20.3908 45.5643L19.4964 46.0116C20.5649 48.1484 21.2502 49.2549 22.1199 49.8546C22.5666 50.1626 23.0366 50.3214 23.5668 50.4409C24.0718 50.5547 24.715 50.6479 25.4417 50.7857L25.628 49.8032ZM12.8633 20.1841C12.7288 20.9631 12.3221 22.1403 11.5552 23.1006C10.7996 24.0468 9.71246 24.7657 8.17459 24.7292L8.1509 25.7289C10.0685 25.7744 11.4324 24.8569 12.3366 23.7246C13.2297 22.6063 13.6919 21.2626 13.8487 20.3542L12.8633 20.1841ZM8.63777 25.3851C8.89187 24.6116 9.03768 24.0767 9.21145 23.603C9.37636 23.1534 9.54049 22.8399 9.78422 22.5695C10.2908 22.0076 11.2165 21.54 13.5197 20.7415L13.1922 19.7967C10.9348 20.5792 9.74888 21.1153 9.04148 21.9C8.67822 22.3029 8.45978 22.7484 8.27262 23.2586C8.09433 23.7447 7.91859 24.3703 7.68772 25.073L8.63777 25.3851ZM9.84942 25.6791C9.96713 26.4609 9.95186 27.7062 9.52644 28.8592C9.10724 29.9952 8.30182 31.0198 6.83072 31.4696L7.12308 32.4259C8.95743 31.8651 9.96296 30.5648 10.4646 29.2053C10.96 27.8627 10.9755 26.4418 10.8383 25.5302L9.84942 25.6791ZM7.4769 31.9462C7.47447 31.1321 7.4444 30.5785 7.46014 30.0741C7.47508 29.5955 7.53212 29.2462 7.67831 28.9129C7.98215 28.22 8.71345 27.4846 10.6481 26.0015L10.0396 25.2079C8.14358 26.6615 7.18678 27.5437 6.76249 28.5113C6.54461 29.0081 6.47759 29.4997 6.46063 30.0429C6.44448 30.5604 6.4747 31.2095 6.4769 31.9492L7.4769 31.9462ZM9.74133 30.626C10.0421 31.3571 10.3242 32.5702 10.186 33.7913C10.0498 34.9946 9.51194 36.1817 8.19053 36.9693L8.70249 37.8283C10.3502 36.8463 11.0167 35.3437 11.1796 33.9038C11.3406 32.4817 11.0168 31.0981 10.6662 30.2456L9.74133 30.626ZM8.93173 37.2781C8.73522 36.488 8.57401 35.9575 8.46903 35.464C8.3694 34.9956 8.34151 34.6428 8.40398 34.2842C8.53383 33.5389 9.06868 32.6503 10.5938 30.7486L9.81368 30.123C8.31896 31.9868 7.60014 33.0718 7.41882 34.1126C7.32571 34.647 7.37784 35.1405 7.49091 35.672C7.59862 36.1784 7.78275 36.8016 7.96129 37.5195L8.93173 37.2781Z" fill="#282828"/>
<path d="M41.2315 14.9619L40.7474 15.0868C40.7032 14.9155 40.7528 14.7336 40.8779 14.6084C41.003 14.4833 41.1849 14.4336 41.3562 14.4777L41.2315 14.9619ZM45.7542 20.5401L46.2515 20.5924C46.2349 20.7498 46.1448 20.8901 46.0086 20.9706C45.8723 21.0511 45.706 21.0623 45.5602 21.0009L45.7542 20.5401ZM47.9814 16.1587L47.5238 15.9572C47.5951 15.7952 47.7467 15.683 47.9224 15.6622C48.0981 15.6413 48.2717 15.7148 48.379 15.8555L47.9814 16.1587ZM48.0813 23.3393L48.4395 23.6881C48.3291 23.8015 48.1716 23.8559 48.0147 23.8348C47.8579 23.8137 47.7203 23.7196 47.6437 23.5811L48.0813 23.3393ZM50.9081 21.8836L50.5017 21.5923C50.6048 21.4485 50.7762 21.3699 50.9525 21.3856C51.1287 21.4013 51.2835 21.5089 51.3596 21.6687L50.9081 21.8836ZM49.5298 28.9314L49.8086 29.3464C49.6773 29.4347 49.5119 29.4555 49.3627 29.4026C49.2136 29.3498 49.0983 29.2294 49.0518 29.0781L49.5298 28.9314ZM52.9835 28.0969L52.6974 27.6869C52.8425 27.5856 53.0303 27.5686 53.1912 27.6421C53.3522 27.7156 53.4623 27.8687 53.4808 28.0447L52.9835 28.0969ZM49.3362 34.283L49.4608 34.7672C49.3076 34.8067 49.1447 34.7712 49.0217 34.6717C48.8986 34.5721 48.83 34.4202 48.8366 34.2621L49.3362 34.283ZM44.0946 35.6527L43.6125 35.5203C43.6593 35.3497 43.7929 35.2165 43.9636 35.1702C44.1344 35.1238 44.3169 35.1711 44.4436 35.2947L44.0946 35.6527ZM45.2437 42.7414L45.6491 43.0342C45.5565 43.1625 45.4086 43.2393 45.2503 43.2414C45.0921 43.2435 44.9422 43.1705 44.8462 43.0447L45.2437 42.7414ZM53.6152 34.1208L53.5112 33.6318C53.6842 33.595 53.8639 33.6523 53.9835 33.7827C54.1032 33.913 54.1451 34.0969 54.0936 34.2662L53.6152 34.1208ZM47.8484 38.4004L47.7748 38.8949C47.6183 38.8716 47.482 38.7756 47.4074 38.636C47.3328 38.4965 47.3287 38.3298 47.3963 38.1868L47.8484 38.4004ZM52.8323 38.9424L52.8086 38.4429C52.9854 38.4346 53.1534 38.5202 53.2504 38.6682C53.3474 38.8162 53.359 39.0044 53.2809 39.1632L52.8323 38.9424ZM46.4494 42.2333L46.2969 42.7095C46.1462 42.6612 46.0272 42.5444 45.9762 42.3946C45.9251 42.2448 45.948 42.0797 46.0378 41.9494L46.4494 42.2333ZM50.2421 43.5791L50.3114 43.0839C50.4866 43.1084 50.6358 43.2237 50.7037 43.3871C50.7717 43.5505 50.7482 43.7376 50.642 43.8791L50.2421 43.5791ZM43.36 45.6304L43.1218 46.07C42.9827 45.9947 42.8874 45.8579 42.865 45.7012C42.8426 45.5446 42.8957 45.3865 43.0081 45.2752L43.36 45.6304ZM46.0748 47.5634L46.2085 47.0816C46.379 47.1289 46.5118 47.2629 46.5577 47.4338C46.6036 47.6046 46.5557 47.787 46.4318 47.9134L46.0748 47.5634ZM38.9828 48.6926L38.689 49.0972C38.5609 49.0042 38.4845 48.856 38.4829 48.6978C38.4812 48.5395 38.5546 48.3899 38.6807 48.2942L38.9828 48.6926ZM41.6891 51.2858L41.9537 50.8616C42.1038 50.9552 42.1933 51.1212 42.189 51.2981C42.1846 51.475 42.0871 51.6364 41.9326 51.7226L41.6891 51.2858ZM34.5674 50.3628L34.1711 50.6677C34.0746 50.5423 34.0432 50.3786 34.0864 50.2263C34.1296 50.0741 34.2423 49.9513 34.3903 49.8952L34.5674 50.3628ZM36.5683 53.5008L36.884 53.113C37.0212 53.2247 37.0892 53.4006 37.0627 53.5756C37.0362 53.7505 36.9192 53.8984 36.7551 53.9646L36.5683 53.5008ZM29.6184 51.6926L29.187 51.9454C29.107 51.8089 29.0963 51.6425 29.1583 51.4969C29.2202 51.3513 29.3474 51.2435 29.5013 51.2065L29.6184 51.6926ZM42.0114 38.9592L41.6188 38.6494C41.7284 38.5105 41.9033 38.4399 42.0786 38.4637C42.254 38.4875 42.4036 38.6022 42.4722 38.7653L42.0114 38.9592ZM41.7915 46.1371L42.225 46.3862C42.1462 46.5234 42.007 46.6152 41.8499 46.6337C41.6927 46.6521 41.536 46.5951 41.4275 46.4799L41.7915 46.1371ZM39.3835 41.7679L39.0988 41.3569C39.2443 41.2561 39.4321 41.2398 39.5928 41.3139C39.7535 41.388 39.8631 41.5414 39.8809 41.7175L39.3835 41.7679ZM37.0723 48.5671L37.4139 48.9323C37.2983 49.0404 37.1384 49.0874 36.9827 49.0591C36.827 49.0307 36.6939 48.9303 36.6239 48.7884L37.0723 48.5671ZM35.6716 45.7879L35.6512 45.2884C35.828 45.2811 35.9954 45.3678 36.0915 45.5164C36.1876 45.665 36.198 45.8533 36.1188 46.0116L35.6716 45.7879ZM30.0804 50.2944L30.1735 50.7857C30.018 50.8152 29.8578 50.7693 29.7414 50.662C29.6251 50.5548 29.5664 50.3987 29.5832 50.2414L30.0804 50.2944ZM42.2593 20.2691L41.7666 20.3542C41.7365 20.1798 41.8007 20.0025 41.9356 19.888C42.0705 19.7735 42.2559 19.7387 42.423 19.7967L42.2593 20.2691ZM47.4525 25.2291L47.9275 25.073C47.9769 25.2234 47.9522 25.3882 47.8609 25.5175C47.7696 25.6468 47.6225 25.7252 47.4643 25.7289L47.4525 25.2291ZM45.2714 25.6047L44.777 25.5302C44.8033 25.3552 44.9202 25.2072 45.0842 25.141C45.2483 25.0748 45.4352 25.1002 45.5756 25.2079L45.2714 25.6047ZM48.6383 31.9477L49.1383 31.9492C49.1379 32.1075 49.0625 32.2562 48.9352 32.3501C48.8078 32.444 48.6435 32.4722 48.4922 32.4259L48.6383 31.9477ZM45.4115 30.4358L44.9491 30.2456C45.0164 30.082 45.1652 29.9661 45.3403 29.9409C45.5154 29.9157 45.6909 29.985 45.8016 30.123L45.4115 30.4358ZM47.1687 37.3988L47.6539 37.5195C47.6157 37.673 47.5071 37.7995 47.361 37.8603C47.215 37.9212 47.0487 37.9093 46.9127 37.8283L47.1687 37.3988ZM41.3562 14.4777C42.2489 14.7076 43.5508 15.2772 44.593 16.258C45.6483 17.2511 46.4522 18.6848 46.2515 20.5924L45.257 20.4878C45.4179 18.9579 44.7896 17.8161 43.9077 16.9863C43.0128 16.1441 41.8724 15.6433 41.1068 15.4461L41.3562 14.4777ZM45.5602 21.0009C44.8784 20.7139 44.2691 20.488 43.7991 20.2709C43.3058 20.043 42.8795 19.7891 42.5073 19.3944C41.7825 18.6257 41.3444 17.4002 40.7474 15.0868L41.7157 14.837C42.3248 17.1974 42.7158 18.1579 43.2349 18.7084C43.4846 18.9732 43.7838 19.1622 44.2185 19.363C44.6766 19.5746 45.1979 19.7633 45.9483 20.0793L45.5602 21.0009ZM48.379 15.8555C48.9379 16.5886 49.6079 17.8417 49.8195 19.2572C50.0338 20.6903 49.7779 22.314 48.4395 23.6881L47.7232 22.9904C48.7964 21.8884 49.0096 20.6027 48.8305 19.405C48.6488 18.1896 48.063 17.0905 47.5837 16.4618L48.379 15.8555ZM47.6437 23.5811C47.2859 22.9337 46.9471 22.3792 46.7123 21.9178C46.4659 21.4334 46.2881 20.9702 46.2401 20.4298C46.1466 19.3775 46.5609 18.1437 47.5238 15.9572L48.439 16.3602C47.4565 18.5912 47.1692 19.5877 47.2362 20.3413C47.2684 20.7038 47.3864 21.0375 47.6036 21.4642C47.8324 21.914 48.1251 22.3848 48.519 23.0974L47.6437 23.5811ZM51.3596 21.6687C51.7558 22.501 52.1539 23.8651 52.0701 25.2938C51.9851 26.7404 51.4009 28.2768 49.8086 29.3464L49.251 28.5163C50.5279 27.6585 51.0008 26.4441 51.0718 25.2352C51.1438 24.0084 50.7965 22.8123 50.4567 22.0985L51.3596 21.6687ZM49.0518 29.0781C48.8348 28.3709 48.6172 27.7586 48.4823 27.2588C48.3407 26.7341 48.2619 26.2442 48.326 25.7055C48.4508 24.6564 49.1099 23.5342 50.5017 21.5923L51.3145 22.1749C49.8944 24.1562 49.4084 25.0724 49.319 25.8237C49.276 26.1851 49.3229 26.5359 49.4477 26.9982C49.5792 27.4853 49.7689 28.0063 50.0078 28.7846L49.0518 29.0781ZM53.4808 28.0447C53.5771 28.9614 53.4981 30.3802 52.9431 31.6994C52.3811 33.0351 51.3184 34.2891 49.4608 34.7672L49.2115 33.7988C50.7013 33.4153 51.5517 32.4278 52.0213 31.3116C52.4979 30.1788 52.5689 28.9354 52.4863 28.1492L53.4808 28.0447ZM48.8366 34.2621C48.8675 33.523 48.8664 32.8732 48.9057 32.357C48.9469 31.8151 49.0358 31.327 49.2757 30.8404C49.7429 29.8928 50.7382 29.0542 52.6974 27.6869L53.2697 28.5069C51.2707 29.902 50.5072 30.604 50.1727 31.2826C50.0117 31.609 49.9391 31.9554 49.9028 32.4329C49.8645 32.936 49.8697 33.4904 49.8358 34.3039L48.8366 34.2621ZM44.4436 35.2947C45.1037 35.9381 45.9498 37.0798 46.3662 38.449C46.7878 39.8354 46.7721 41.4791 45.6491 43.0342L44.8384 42.4487C45.739 41.2016 45.7618 39.8985 45.4094 38.7399C45.0519 37.5642 44.3117 36.5626 43.7456 36.0107L44.4436 35.2947ZM44.8462 43.0447C44.3976 42.4566 43.9813 41.9576 43.6816 41.5355C43.3669 41.0924 43.1233 40.6601 42.9968 40.1326C42.7503 39.1052 42.9797 37.8241 43.6125 35.5203L44.5768 35.7851C43.9312 38.1358 43.7927 39.1636 43.9692 39.8993C44.0541 40.2533 44.2196 40.566 44.4969 40.9565C44.789 41.3679 45.1475 41.7909 45.6413 42.4382L44.8462 43.0447ZM54.0936 34.2662C53.8257 35.1482 53.2008 36.4244 52.1763 37.4237C51.1389 38.4355 49.6721 39.1772 47.7748 38.8949L47.922 37.9058C49.4435 38.1322 50.6112 37.5533 51.4781 36.7078C52.3578 35.8498 52.907 34.7319 53.1368 33.9755L54.0936 34.2662ZM47.3963 38.1868C47.7123 37.5179 47.9641 36.9189 48.2011 36.4586C48.45 35.9755 48.7218 35.5604 49.1322 35.2055C49.9312 34.5143 51.1743 34.1291 53.5112 33.6318L53.7193 34.6099C51.335 35.1173 50.3586 35.4669 49.7864 35.9618C49.5111 36.1999 49.3094 36.4908 49.0902 36.9165C48.8591 37.3651 48.6483 37.8778 48.3005 38.614L47.3963 38.1868ZM53.2809 39.1632C52.8739 39.9903 52.0509 41.1487 50.8783 41.9692C49.691 42.8 48.1235 43.2948 46.2969 42.7095L46.602 41.7572C48.0669 42.2266 49.3128 41.8441 50.305 41.1498C51.3119 40.4453 52.0346 39.4309 52.3836 38.7216L53.2809 39.1632ZM46.0378 41.9494C46.4578 41.3405 46.8031 40.79 47.1115 40.3741C47.4351 39.9376 47.7705 39.5719 48.2328 39.288C49.1331 38.7351 50.4222 38.5559 52.8086 38.4429L52.8559 39.4418C50.4209 39.5571 49.4008 39.7442 48.7561 40.1401C48.446 40.3306 48.2 40.585 47.9148 40.9697C47.6143 41.375 47.3233 41.847 46.861 42.5172L46.0378 41.9494ZM50.642 43.8791C50.0888 44.6165 49.0654 45.6024 47.7611 46.1914C46.4405 46.7878 44.8084 46.9836 43.1218 46.07L43.5981 45.1908C44.9507 45.9234 46.2459 45.7784 47.3496 45.2801C48.4696 44.7743 49.3677 43.9114 49.8421 43.279L50.642 43.8791ZM43.0081 45.2752C43.5337 44.7546 43.975 44.2776 44.355 43.9261C44.754 43.557 45.1513 43.2599 45.6582 43.0665C46.6453 42.69 47.9453 42.7527 50.3114 43.0839L50.1728 44.0742C47.7586 43.7364 46.7215 43.7312 46.0146 44.0009C45.6745 44.1306 45.3856 44.335 45.0341 44.6602C44.6637 45.0028 44.2903 45.4127 43.7119 45.9856L43.0081 45.2752ZM46.4318 47.9134C45.7865 48.5717 44.6425 49.4146 43.2721 49.8271C41.8845 50.2448 40.2409 50.2245 38.689 49.0972L39.2767 48.2881C40.5213 49.1921 41.8243 49.2186 42.9838 48.8695C44.1606 48.5153 45.1643 47.7779 45.7177 47.2134L46.4318 47.9134ZM38.6807 48.2942C39.2701 47.8472 39.7702 47.4324 40.1932 47.1338C40.6372 46.8204 41.0701 46.578 41.598 46.453C42.626 46.2094 43.9065 46.4424 46.2085 47.0816L45.941 48.0452C43.5922 47.393 42.5647 47.2516 41.8285 47.426C41.4743 47.5099 41.1611 47.6746 40.7699 47.9508C40.3577 48.2418 39.9337 48.599 39.285 49.091L38.6807 48.2942ZM41.9326 51.7226C41.1274 52.1714 39.7917 52.6563 38.3605 52.6643C36.9115 52.6724 35.3408 52.188 34.1711 50.6677L34.9637 50.0579C35.9017 51.2771 37.144 51.6711 38.3549 51.6643C39.5838 51.6574 40.7551 51.234 41.4457 50.8491L41.9326 51.7226ZM34.3903 49.8952C35.082 49.6332 35.6791 49.3768 36.1693 49.21C36.6838 49.035 37.1676 48.925 37.7093 48.9544C38.7642 49.0116 39.9265 49.5973 41.9537 50.8616L41.4245 51.7101C39.3561 50.4201 38.4106 49.9939 37.6552 49.9529C37.2917 49.9332 36.9447 50.0026 36.4913 50.1568C36.0136 50.3193 35.5059 50.542 34.7445 50.8304L34.3903 49.8952ZM36.7551 53.9646C35.9 54.309 34.5141 54.6226 33.0933 54.4512C31.6546 54.2777 30.157 53.6003 29.187 51.9454L30.0498 51.4397C30.8276 52.7669 32.0108 53.3134 33.213 53.4584C34.4331 53.6056 35.6482 53.3323 36.3815 53.037L36.7551 53.9646ZM29.5013 51.2065C30.2204 51.0332 30.8449 50.8536 31.3521 50.7496C31.8845 50.6405 32.3783 50.592 32.912 50.689C33.9515 50.8779 35.0312 51.6047 36.884 53.113L36.2527 53.8885C34.3622 52.3495 33.4776 51.8082 32.7332 51.6729C32.3751 51.6078 32.0221 51.6331 31.553 51.7293C31.0587 51.8306 30.527 51.9879 29.7355 52.1787L29.5013 51.2065ZM42.4039 39.2689C41.9141 39.8895 41.3101 40.9787 41.1081 42.1909C40.9091 43.3854 41.1007 44.6745 42.1555 45.7943L41.4275 46.4799C40.1124 45.0836 39.8835 43.4559 40.1217 42.0265C40.3569 40.6148 41.0478 39.3731 41.6188 38.6494L42.4039 39.2689ZM41.358 45.888C41.7637 45.182 42.0642 44.7161 42.3005 44.2703C42.5248 43.8472 42.6483 43.5156 42.6866 43.1536C42.7662 42.4012 42.4955 41.4001 41.5505 39.153L42.4722 38.7653C43.3985 40.9676 43.7922 42.2081 43.6811 43.2588C43.624 43.7983 43.4386 44.2585 43.184 44.7386C42.9416 45.1961 42.5936 45.7449 42.225 46.3862L41.358 45.888ZM39.6681 42.179C39.0182 42.6291 38.1218 43.4938 37.5738 44.5938C37.0339 45.6777 36.8398 46.9664 37.5206 48.3459L36.6239 48.7884C35.775 47.0683 36.0326 45.4449 36.6788 44.1479C37.3169 42.8669 38.3409 41.8817 39.0988 41.3569L39.6681 42.179ZM36.7306 48.202C37.3252 47.6458 37.7489 47.2882 38.1054 46.9311C38.4436 46.5922 38.6589 46.3113 38.8014 45.9763C39.0977 45.2802 39.132 44.2437 38.886 41.8184L39.8809 41.7175C40.122 44.0944 40.1353 45.3959 39.7216 46.368C39.5091 46.8671 39.1971 47.2529 38.8131 47.6375C38.4474 48.004 37.954 48.4269 37.4139 48.9323L36.7306 48.202ZM35.6921 46.2875C34.9022 46.3199 33.6822 46.5706 32.6306 47.2065C31.5944 47.8331 30.7407 48.8179 30.5775 50.3475L29.5832 50.2414C29.7867 48.3341 30.8732 47.1006 32.1132 46.3508C33.3378 45.6102 34.7301 45.3261 35.6512 45.2884L35.6921 46.2875ZM29.9872 49.8032C30.7871 49.6515 31.3364 49.5763 31.8287 49.4653C32.2958 49.3601 32.628 49.238 32.9276 49.0314C33.5505 48.6019 34.1342 47.7446 35.2244 45.5643L36.1188 46.0116C35.0503 48.1484 34.365 49.2549 33.4953 49.8546C33.0487 50.1626 32.5786 50.3215 32.0484 50.4409C31.5434 50.5547 30.9003 50.6479 30.1735 50.7857L29.9872 49.8032ZM42.752 20.1841C42.8865 20.9631 43.2931 22.1403 44.06 23.1006C44.8157 24.0468 45.9028 24.7657 47.4406 24.7292L47.4643 25.7289C45.5467 25.7744 44.1829 24.8569 43.2786 23.7246C42.3855 22.6063 41.9234 21.2626 41.7666 20.3542L42.752 20.1841ZM46.9775 25.3851C46.7234 24.6116 46.5776 24.0767 46.4038 23.603C46.2389 23.1534 46.0747 22.8399 45.831 22.5695C45.3244 22.0076 44.3987 21.54 42.0955 20.7415L42.423 19.7967C44.6804 20.5792 45.8664 21.1153 46.5738 21.9C46.937 22.3029 47.1555 22.7484 47.3426 23.2586C47.5209 23.7447 47.6966 24.3703 47.9275 25.073L46.9775 25.3851ZM45.7658 25.6791C45.6481 26.4609 45.6634 27.7062 46.0888 28.8592C46.508 29.9952 47.3134 31.0198 48.7845 31.4696L48.4922 32.4259C46.6578 31.8651 45.6523 30.5648 45.1506 29.2053C44.6552 27.8627 44.6397 26.4418 44.777 25.5302L45.7658 25.6791ZM48.1383 31.9462C48.1408 31.1321 48.1708 30.5785 48.1551 30.0741C48.1402 29.5955 48.0831 29.2462 47.9369 28.9129C47.6331 28.22 46.9018 27.4846 44.9672 26.0015L45.5756 25.2079C47.4717 26.6615 48.4285 27.5437 48.8527 28.5113C49.0706 29.0081 49.1376 29.4997 49.1546 30.0429C49.1708 30.5604 49.1405 31.2095 49.1383 31.9492L48.1383 31.9462ZM45.8739 30.626C45.5732 31.3571 45.291 32.5702 45.4292 33.7913C45.5654 34.9946 46.1033 36.1817 47.4247 36.9693L46.9127 37.8283C45.265 36.8463 44.5986 35.3437 44.4356 33.9038C44.2746 32.4817 44.5984 31.0981 44.9491 30.2456L45.8739 30.626ZM46.6835 37.2781C46.88 36.488 47.0412 35.9575 47.1462 35.464C47.2458 34.9956 47.2737 34.6428 47.2113 34.2842C47.0814 33.5389 46.5466 32.6503 45.0214 30.7486L45.8016 30.123C47.2963 31.9868 48.0151 33.0718 48.1964 34.1126C48.2895 34.647 48.2374 35.1405 48.1243 35.672C48.0166 36.1784 47.8325 36.8016 47.6539 37.5195L46.6835 37.2781Z" fill="#282828"/>
<circle cx="27.8095" cy="51.2421" r="0.5" fill="#282828" stroke="#282828" stroke-width="0.966712"/>
<path d="M28.1792 8.21371L29.1186 8.36311L28.4464 9.03613L28.2667 9.2161L28.3063 9.46735L28.4545 10.4069L27.6067 9.97564L27.38 9.8603L27.1533 9.97564L26.3055 10.4069L26.4537 9.46735L26.4934 9.2161L26.3136 9.03613L25.6415 8.36311L26.5808 8.21371L26.832 8.17375L26.9477 7.94719L27.38 7.09996L27.8124 7.94719L27.928 8.17375L28.1792 8.21371ZM34.5287 10.1223L35.2144 10.2313L34.7237 10.7226L34.544 10.9026L34.5836 11.1538L34.6918 11.8397L34.0729 11.5249L33.8462 11.4096L33.6195 11.5249L33.0006 11.8397L33.1088 11.1538L33.1484 10.9026L32.9687 10.7226L32.478 10.2313L33.1638 10.1223L33.415 10.0823L33.5306 9.85576L33.8462 9.2373L34.1618 9.85576L34.2775 10.0823L34.5287 10.1223ZM20.4438 10.1223L20.695 10.0823L20.8106 9.85576L21.1262 9.23729L21.4418 9.85576L21.5574 10.0823L21.8087 10.1223L22.4944 10.2313L22.0037 10.7226L21.824 10.9026L21.8636 11.1538L21.9718 11.8397L21.3529 11.5249L21.1262 11.4096L20.8995 11.5249L20.2806 11.8397L20.3888 11.1538L20.4284 10.9026L20.2487 10.7226L19.758 10.2313L20.4438 10.1223ZM39.13 12.8231L39.3423 12.8569L39.1904 13.0089L39.0107 13.1889L39.0503 13.4402L39.0838 13.6525L38.8922 13.555L38.6655 13.4397L38.4388 13.555L38.2472 13.6525L38.2807 13.4402L38.3203 13.1889L38.1406 13.0089L37.9887 12.8569L38.201 12.8231L38.4522 12.7832L38.5678 12.5566L38.6655 12.3651L38.7632 12.5566L38.8788 12.7832L39.13 12.8231ZM15.8424 12.8231L16.0936 12.7832L16.2092 12.5566L16.3069 12.3651L16.4046 12.5566L16.5202 12.7832L16.7714 12.8231L16.9837 12.8569L16.8318 13.0089L16.6521 13.1889L16.6917 13.4402L16.7252 13.6525L16.5336 13.555L16.3069 13.4397L16.0802 13.555L15.8886 13.6525L15.9221 13.4402L15.9617 13.1889L15.782 13.0089L15.6301 12.8569L15.8424 12.8231Z" fill="#282828" stroke="#282828"/>
</g>
<defs>
<clipPath id="clip0_9_26">
<rect width="55" height="55" fill="white"/>
</clipPath>
</defs>
</svg>
