<svg width="180" height="53" viewBox="0 0 180 53" fill="none" xmlns="http://www.w3.org/2000/svg">
<path d="M173.333 52.5H6.66667C3.00167 52.5 0 49.5734 0 46V7C0 3.42663 3.00167 0.500003 6.66667 0.500003H173.333C176.998 0.500003 180 3.42663 180 7V46C180 49.5734 176.998 52.5 173.333 52.5Z" fill="black"/>
<path d="M13.9133 10.3004C13.5216 10.7001 13.2949 11.3225 13.2949 12.1285V40.878C13.2949 41.684 13.5216 42.3064 13.9133 42.7061L14.0099 42.7939L30.5332 26.6901V26.3099L14.0099 10.2061L13.9133 10.3004Z" fill="url(#paint0_linear_346_2141)"/>
<path d="M36.0349 32.0607L30.5332 26.6901V26.3099L36.0415 20.9392L36.1649 21.0091L42.6882 24.628C44.5499 25.655 44.5499 27.345 42.6882 28.3785L36.1649 31.9909L36.0349 32.0607Z" fill="url(#paint1_linear_346_2141)"/>
<path d="M36.1647 31.9909L30.5331 26.5L13.9131 42.7061C14.5314 43.3399 15.5398 43.4162 16.6864 42.7825L36.1647 31.9909Z" fill="url(#paint2_linear_346_2141)"/>
<path d="M36.1647 21.0091L16.6864 10.2175C15.5398 9.59025 14.5314 9.66663 13.9131 10.3004L30.5331 26.5L36.1647 21.0091Z" fill="url(#paint3_linear_346_2141)"/>
<path d="M63.2234 13.8169C63.2234 14.9024 62.8901 15.7718 62.2334 16.4201C61.4784 17.1888 60.4951 17.5755 59.2901 17.5755C58.1384 17.5755 57.155 17.1823 56.3484 16.4071C55.54 15.6206 55.1367 14.6554 55.1367 13.5C55.1367 12.3446 55.54 11.3794 56.3484 10.5994C57.155 9.81775 58.1384 9.4245 59.2901 9.4245C59.8634 9.4245 60.41 9.53988 60.9317 9.75438C61.4517 9.9705 61.875 10.263 62.1817 10.6238L61.4851 11.3095C60.95 10.6936 60.2217 10.3898 59.2901 10.3898C58.4501 10.3898 57.7217 10.6758 57.1034 11.2526C56.4917 11.8311 56.185 12.5803 56.185 13.5C56.185 14.4198 56.4917 15.1754 57.1034 15.7539C57.7217 16.3243 58.4501 16.6168 59.2901 16.6168C60.1817 16.6168 60.9317 16.3243 61.5234 15.7474C61.9134 15.3655 62.1351 14.839 62.1934 14.1663H59.2901V13.227H63.1634C63.2101 13.4301 63.2234 13.6268 63.2234 13.8169Z" fill="white" stroke="white" stroke-width="0.16" stroke-miterlimit="10"/>
<path d="M69.3685 10.5604H65.7302V13.0304H69.0102V13.9696H65.7302V16.4396H69.3685V17.3967H64.7002V9.60324H69.3685V10.5604Z" fill="white" stroke="white" stroke-width="0.16" stroke-miterlimit="10"/>
<path d="M73.705 17.3967H72.675V10.5604H70.4434V9.60324H75.9384V10.5604H73.705V17.3967Z" fill="white" stroke="white" stroke-width="0.16" stroke-miterlimit="10"/>
<path d="M79.915 17.3967V9.60324H80.9434V17.3967H79.915Z" fill="white" stroke="white" stroke-width="0.16" stroke-miterlimit="10"/>
<path d="M85.5019 17.3967H84.4802V10.5604H82.2402V9.60324H87.7419V10.5604H85.5019V17.3967Z" fill="white" stroke="white" stroke-width="0.16" stroke-miterlimit="10"/>
<path d="M98.1446 16.3941C97.3563 17.1823 96.3796 17.5755 95.2146 17.5755C94.0429 17.5755 93.0663 17.1823 92.2779 16.3941C91.4913 15.6076 91.0996 14.6424 91.0996 13.5C91.0996 12.3576 91.4913 11.3924 92.2779 10.6059C93.0663 9.81775 94.0429 9.4245 95.2146 9.4245C96.3729 9.4245 97.3496 9.81775 98.138 10.6124C98.9313 11.4054 99.3229 12.3641 99.3229 13.5C99.3229 14.6424 98.9313 15.6076 98.1446 16.3941ZM93.0396 15.7409C93.6329 16.3243 94.3546 16.6168 95.2146 16.6168C96.0679 16.6168 96.7963 16.3243 97.3829 15.7409C97.9746 15.1575 98.2746 14.4084 98.2746 13.5C98.2746 12.5916 97.9746 11.8425 97.3829 11.2591C96.7963 10.6758 96.0679 10.3833 95.2146 10.3833C94.3546 10.3833 93.6329 10.6758 93.0396 11.2591C92.4479 11.8425 92.1479 12.5916 92.1479 13.5C92.1479 14.4084 92.4479 15.1575 93.0396 15.7409Z" fill="white" stroke="white" stroke-width="0.16" stroke-miterlimit="10"/>
<path d="M100.769 17.3967V9.60324H102.019L105.905 15.6645H105.95L105.905 14.1662V9.60324H106.934V17.3967H105.86L101.79 11.0365H101.745L101.79 12.5412V17.3967H100.769Z" fill="white" stroke="white" stroke-width="0.16" stroke-miterlimit="10"/>
<path d="M90.8464 28.7783C87.7147 28.7783 85.1564 31.102 85.1564 34.3081C85.1564 37.4883 87.7147 39.8364 90.8464 39.8364C93.9847 39.8364 96.543 37.4883 96.543 34.3081C96.543 31.102 93.9847 28.7783 90.8464 28.7783ZM90.8464 37.6589C89.128 37.6589 87.6497 36.276 87.6497 34.3081C87.6497 32.3143 89.128 30.9558 90.8464 30.9558C92.5647 30.9558 94.0497 32.3143 94.0497 34.3081C94.0497 36.276 92.5647 37.6589 90.8464 37.6589ZM78.4314 28.7783C75.293 28.7783 72.7414 31.102 72.7414 34.3081C72.7414 37.4883 75.293 39.8364 78.4314 39.8364C81.568 39.8364 84.1214 37.4883 84.1214 34.3081C84.1214 31.102 81.568 28.7783 78.4314 28.7783ZM78.4314 37.6589C76.7114 37.6589 75.2281 36.276 75.2281 34.3081C75.2281 32.3143 76.7114 30.9558 78.4314 30.9558C80.1497 30.9558 81.6281 32.3143 81.6281 34.3081C81.6281 36.276 80.1497 37.6589 78.4314 37.6589ZM63.6581 30.4731V32.8229H69.4131C69.2447 34.1359 68.7947 35.1011 68.1047 35.7739C67.2647 36.5864 65.9564 37.4883 63.6581 37.4883C60.1164 37.4883 57.3431 34.7014 57.3431 31.2483C57.3431 27.7951 60.1164 25.0083 63.6581 25.0083C65.5731 25.0083 66.9664 25.7379 67.9947 26.6836L69.6931 25.0278C68.2547 23.6888 66.3414 22.6601 63.6581 22.6601C58.8014 22.6601 54.7197 26.513 54.7197 31.2483C54.7197 35.9835 58.8014 39.8364 63.6581 39.8364C66.2831 39.8364 68.2547 38.9979 69.8047 37.4249C71.3931 35.8763 71.8881 33.6988 71.8881 31.9405C71.8881 31.3945 71.8414 30.8924 71.7581 30.4731H63.6581ZM124.068 32.2948C123.6 31.0581 122.155 28.7783 119.211 28.7783C116.295 28.7783 113.866 31.0191 113.866 34.3081C113.866 37.4054 116.27 39.8364 119.491 39.8364C122.096 39.8364 123.6 38.2878 124.218 37.3859L122.285 36.1298C121.64 37.0495 120.761 37.6589 119.491 37.6589C118.23 37.6589 117.325 37.095 116.745 35.9835L124.33 32.9236L124.068 32.2948ZM116.335 34.1359C116.27 32.0039 118.033 30.9119 119.296 30.9119C120.286 30.9119 121.126 31.3945 121.406 32.0851L116.335 34.1359ZM110.17 39.5H112.663V23.25H110.17V39.5ZM106.086 30.01H106.003C105.443 29.3633 104.375 28.7783 103.021 28.7783C100.181 28.7783 97.5847 31.2093 97.5847 34.326C97.5847 37.4249 100.181 39.8364 103.021 39.8364C104.375 39.8364 105.443 39.2465 106.003 38.5803H106.086V39.3733C106.086 41.4874 104.928 42.6233 103.06 42.6233C101.536 42.6233 100.591 41.5508 100.201 40.6489L98.033 41.5313C98.658 42.997 100.313 44.8008 103.06 44.8008C105.983 44.8008 108.45 43.1238 108.45 39.0434V29.1146H106.086V30.01ZM103.235 37.6589C101.516 37.6589 100.078 36.2565 100.078 34.326C100.078 32.3776 101.516 30.9558 103.235 30.9558C104.928 30.9558 106.263 32.3776 106.263 34.326C106.263 36.2565 104.928 37.6589 103.235 37.6589ZM135.741 23.25H129.778V39.5H132.265V33.3429H135.741C138.503 33.3429 141.211 31.3945 141.211 28.2956C141.211 25.1984 138.496 23.25 135.741 23.25ZM135.806 31.0825H132.265V25.5104H135.806C137.663 25.5104 138.723 27.0135 138.723 28.2956C138.723 29.5534 137.663 31.0825 135.806 31.0825ZM151.178 28.7474C149.381 28.7474 147.513 29.5209 146.745 31.2353L148.951 32.1371C149.426 31.2353 150.3 30.9428 151.223 30.9428C152.513 30.9428 153.821 31.6984 153.841 33.0325V33.2031C153.391 32.9496 152.428 32.5743 151.243 32.5743C148.866 32.5743 146.445 33.8499 146.445 36.2305C146.445 38.408 148.391 39.8104 150.58 39.8104C152.253 39.8104 153.176 39.0743 153.756 38.2179H153.841V39.474H156.243V33.2405C156.243 30.3594 154.036 28.7474 151.178 28.7474ZM150.878 37.6524C150.065 37.6524 148.931 37.2591 148.931 36.276C148.931 35.0183 150.345 34.5356 151.568 34.5356C152.663 34.5356 153.176 34.7713 153.841 35.0816C153.646 36.5864 152.318 37.6524 150.878 37.6524ZM164.993 29.1033L162.135 36.1476H162.05L159.095 29.1033H156.413L160.853 38.9475L158.32 44.4254H160.918L167.76 29.1033H164.993ZM142.578 39.5H145.071V23.25H142.578V39.5Z" fill="white"/>
<defs>
<linearGradient id="paint0_linear_346_2141" x1="29.0662" y1="41.1774" x2="7.25605" y2="18.808" gradientUnits="userSpaceOnUse">
<stop stop-color="#00A0FF"/>
<stop offset="0.0066" stop-color="#00A1FF"/>
<stop offset="0.2601" stop-color="#00BEFF"/>
<stop offset="0.5122" stop-color="#00D2FF"/>
<stop offset="0.7604" stop-color="#00DFFF"/>
<stop offset="1" stop-color="#00E3FF"/>
</linearGradient>
<linearGradient id="paint1_linear_346_2141" x1="45.1124" y1="26.4982" x2="12.8499" y2="26.4982" gradientUnits="userSpaceOnUse">
<stop stop-color="#FFE000"/>
<stop offset="0.4087" stop-color="#FFBD00"/>
<stop offset="0.7754" stop-color="#FFA500"/>
<stop offset="1" stop-color="#FF9C00"/>
</linearGradient>
<linearGradient id="paint2_linear_346_2141" x1="33.1024" y1="23.5151" x2="3.52611" y2="-6.8196" gradientUnits="userSpaceOnUse">
<stop stop-color="#FF3A44"/>
<stop offset="1" stop-color="#C31162"/>
</linearGradient>
<linearGradient id="paint3_linear_346_2141" x1="9.72949" y1="52.2709" x2="22.9366" y2="38.7253" gradientUnits="userSpaceOnUse">
<stop stop-color="#32A071"/>
<stop offset="0.0685" stop-color="#2DA771"/>
<stop offset="0.4762" stop-color="#15CF74"/>
<stop offset="0.8009" stop-color="#06E775"/>
<stop offset="1" stop-color="#00F076"/>
</linearGradient>
</defs>
</svg>
