<svg width="140" height="52" viewBox="0 0 140 52" fill="none" xmlns="http://www.w3.org/2000/svg">
<g clip-path="url(#clip0_1_4879)">
<path d="M130.137 0H8.74807C8.43164 0 8.11521 0 7.79598 0C7.09976 0.0125335 6.40525 0.0890153 5.71817 0.228815C5.03554 0.371952 4.37454 0.643178 3.75798 1.03314C3.1378 1.42568 2.57092 1.93567 2.07781 2.5447C1.58479 3.15404 1.17272 3.8561 0.856886 4.62484C0.538086 5.39903 0.317094 6.22918 0.20162 7.08634C0.0855632 7.93532 0.0237655 8.7943 0.0168017 9.65531C0 10.054 0 10.4423 0 10.8375V41.1694C0 41.5681 0 41.9564 0.0168017 42.3551C0.0240085 43.2161 0.0858045 44.075 0.20162 44.9241C0.316095 45.7691 0.534236 46.5875 0.848485 47.3509C1.48371 48.9036 2.49911 50.168 3.74957 50.9634C4.3664 51.354 5.0272 51.6275 5.70977 51.7746C6.39691 51.9133 7.09143 51.9886 7.78758 52C8.10681 52 8.42324 52 8.73967 52H131.252C131.568 52 131.89 52 132.207 52C132.901 51.9894 133.594 51.9141 134.279 51.7746C134.968 51.627 135.635 51.3536 136.259 50.9634C136.881 50.575 137.448 50.0645 137.939 49.4518C138.434 48.8435 138.849 48.1413 139.166 47.3717C139.477 46.6073 139.693 45.7892 139.807 44.9449C139.923 44.0957 139.987 43.237 140 42.3759C140 41.9772 140 41.5889 140 41.1902C140 40.7256 140 40.2611 140 39.8035V12.2381C140 11.7667 140 11.3021 140 10.8514C140 10.4562 140 10.0609 140 9.66918C139.987 8.80809 139.923 7.94937 139.807 7.10021C139.692 6.25623 139.476 5.43826 139.166 4.67338C138.531 3.11611 137.517 1.84513 136.267 1.04007C135.643 0.654113 134.976 0.386484 134.287 0.24615C133.602 0.10559 132.91 0.0291017 132.215 0.0173345C131.899 0.0173345 131.577 0.0173345 131.26 0.0173345L130.137 0Z" fill="black"/>
<path d="M8.83538 51C8.51939 51 8.21179 51 7.8986 51C7.25034 50.9895 6.60356 50.9196 5.96353 50.7909C5.36777 50.6647 4.79018 50.4299 4.24936 50.0939C3.17489 49.4076 2.29973 48.3193 1.74663 46.9817C1.47443 46.3078 1.28586 45.5863 1.18736 44.8419C1.08043 44.0424 1.0234 43.2338 1.01678 42.4233C1.01678 42.1515 1 41.2453 1 41.2453V10.7477C1 10.7477 1 9.85551 1.01678 9.59413C1.02161 8.78252 1.07771 7.97265 1.18456 7.17202C1.28179 6.42499 1.47041 5.70097 1.74383 5.02523C2.01563 4.3603 2.3716 3.75427 2.79805 3.23043C3.22397 2.69907 3.71359 2.25347 4.24936 1.9096C4.78898 1.57293 5.36573 1.33803 5.96073 1.21259C6.60242 1.08107 7.25114 1.01001 7.9014 1H8.83538H131.165H132.11C132.754 1.00687 133.398 1.07679 134.034 1.2091C134.635 1.33196 135.217 1.56694 135.762 1.90611C136.839 2.59845 137.713 3.69586 138.262 5.04266C138.533 5.71326 138.722 6.43116 138.821 7.17202C138.928 7.97866 138.988 8.79402 139 9.61156C139 9.97749 139 10.3713 139 10.7616C139 11.246 139 11.7061 139 12.1556V39.8269C139 40.2974 139 40.754 139 41.221C139 41.6879 139 42.026 139 42.4233C138.99 43.2246 138.931 44.0238 138.824 44.814C138.728 45.5638 138.539 46.2904 138.265 46.9678C137.709 48.3003 136.836 49.3852 135.765 50.073C135.221 50.4126 134.639 50.6476 134.039 50.77C133.399 50.8995 132.752 50.9694 132.104 50.9791C131.802 50.9791 131.483 50.9791 131.176 50.9791H8.83538V51Z" fill="black"/>
<path d="M51.9652 32.2786H47.04L45.8444 35.4857H43.68L48.496 23.5044H50.54L55.4652 35.4857H53.2L51.9652 32.2786ZM47.6672 30.6396H51.3352L50.022 27.2086C49.8428 26.736 49.6636 26.2115 49.49 25.6379C49.3304 26.146 49.1568 26.6622 48.972 27.1922L47.6672 30.6396Z" fill="white"/>
<path d="M56.336 28.7465C56.336 28.0855 56.3136 27.357 56.2688 26.5612H58.2288C58.3024 26.9358 58.3529 27.3143 58.38 27.6948C58.7229 27.2939 59.1507 26.97 59.6341 26.7456C60.1174 26.5211 60.6448 26.4014 61.18 26.3945C61.8076 26.3849 62.4239 26.558 62.9501 26.8918C63.4763 27.2256 63.8885 27.7049 64.134 28.2685C64.4784 29.0432 64.642 29.883 64.6128 30.727C64.6341 31.6473 64.4427 32.5604 64.0528 33.3986C63.7266 34.0943 63.1941 34.6786 62.524 35.0759C61.8346 35.4646 61.0493 35.662 60.2532 35.6468C59.6267 35.6465 59.0048 35.543 58.4136 35.3409V39.0369L56.3192 39.2117L56.336 28.7465ZM61.8408 33.3003C62.2664 32.754 62.482 31.9344 62.482 30.8418C62.482 29.8456 62.3047 29.1171 61.95 28.6564C61.7898 28.4423 61.5787 28.2693 61.3348 28.1522C61.091 28.0352 60.8217 27.9776 60.55 27.9844C60.1587 27.9793 59.7728 28.0734 59.43 28.2576C59.0659 28.4588 58.7346 28.712 58.4472 29.0088V33.7893C58.6792 33.896 58.9237 33.9749 59.1752 34.0242C59.4457 34.0813 59.7216 34.1106 59.9984 34.1116C60.3499 34.1322 60.7012 34.069 61.0222 33.9277C61.3431 33.7864 61.6241 33.5711 61.8408 33.3003Z" fill="white"/>
<path d="M65.8868 28.7465C65.8868 28.0855 65.8644 27.357 65.8196 26.5612H67.7796C67.8555 26.9355 67.907 27.3141 67.9336 27.6948C68.7493 26.828 69.6826 26.3945 70.7336 26.3945C71.3612 26.3849 71.9774 26.558 72.5036 26.8918C73.0298 27.2256 73.4421 27.7049 73.6876 28.2685C74.032 29.0432 74.1956 29.883 74.1664 30.727C74.1921 31.6463 74.0055 32.5593 73.6204 33.3986C73.2934 34.0947 72.7599 34.679 72.0888 35.0759C71.3995 35.465 70.6142 35.6624 69.818 35.6468C69.1915 35.6465 68.5696 35.543 67.9784 35.3409V39.0369L65.884 39.2117L65.8868 28.7465ZM71.4 33.3003C71.8256 32.7412 72.0384 31.9217 72.0384 30.8418C72.0384 29.8456 71.862 29.1171 71.5092 28.6564C71.3489 28.4423 71.1378 28.2693 70.894 28.1522C70.6502 28.0352 70.3808 27.9776 70.1092 27.9844C69.718 27.9798 69.3322 28.0739 68.9892 28.2576C68.6251 28.4588 68.2938 28.712 68.0064 29.0088V33.7893C68.2388 33.8952 68.4831 33.9741 68.7344 34.0242C69.0049 34.0813 69.2808 34.1106 69.5576 34.1116C69.909 34.1317 70.2602 34.0684 70.5811 33.9271C70.9019 33.7858 71.1829 33.5707 71.4 33.3003Z" fill="white"/>
<path d="M78.0164 34.9202C77.1216 34.4414 76.3949 33.7115 75.9304 32.825C75.4227 31.8232 75.1729 30.7159 75.2024 29.5988C75.1661 28.4036 75.456 27.2205 76.0424 26.1705C76.5719 25.2594 77.3672 24.5224 78.3272 24.0535C79.3361 23.5725 80.4469 23.3302 81.5696 23.3459C82.2505 23.3431 82.9292 23.4201 83.5912 23.5754C84.2104 23.7176 84.8114 23.9265 85.3832 24.1982L84.84 25.769C83.8496 25.2815 82.7599 25.0165 81.6508 24.9932C80.868 24.9804 80.0954 25.1689 79.4108 25.5395C78.7612 25.9033 78.2392 26.4498 77.9128 27.1075C77.5375 27.8876 77.3553 28.7429 77.3808 29.6043C77.3669 30.3804 77.5056 31.1519 77.7896 31.8771C78.0474 32.5189 78.5009 33.0681 79.0888 33.4505C79.7586 33.8594 80.5394 34.0612 81.3288 34.0296C81.7379 34.0287 82.1462 33.9949 82.5496 33.9286C82.94 33.868 83.3235 33.7711 83.6948 33.639V31.2023H80.8556V29.6152H85.7304V34.6661C85.0232 34.9877 84.2825 35.234 83.5212 35.401C82.7663 35.5706 81.9943 35.6568 81.2196 35.6577C80.1047 35.6839 79.0017 35.4299 78.0164 34.9202Z" fill="white"/>
<path d="M93.17 35.4857C93.0908 35.0956 93.0421 34.7002 93.0244 34.3028C92.6746 34.6999 92.2472 35.0249 91.7672 35.2589C91.2253 35.5267 90.6246 35.6618 90.0172 35.6523C89.5202 35.6584 89.0281 35.5548 88.578 35.3491C88.1498 35.1532 87.7918 34.8362 87.5504 34.4394C87.2829 33.9897 87.15 33.4758 87.1668 32.9561C87.1511 32.5619 87.2297 32.1696 87.3964 31.8102C87.5631 31.4508 87.8133 31.1342 88.1272 30.8855C88.7656 30.3683 89.8305 30.1106 91.322 30.1124C91.8776 30.1122 92.4324 30.1505 92.9824 30.2271V30.0523C92.9824 29.2656 92.8107 28.7101 92.4672 28.386C92.0566 28.0413 91.5237 27.8676 90.9832 27.9025C90.4991 27.9082 90.0175 27.9724 89.5496 28.0937C89.086 28.2027 88.6341 28.3546 88.2 28.5471L87.8696 27.0611C88.3444 26.8634 88.8376 26.7106 89.3424 26.6049C89.9773 26.4648 90.6263 26.3952 91.2772 26.3973C91.9668 26.3789 92.653 26.4988 93.2932 26.7497C93.8563 26.9926 94.3148 27.4196 94.5896 27.9571C94.9332 28.6768 95.0936 29.4668 95.0572 30.2599V33.8111C95.0572 34.1754 95.0796 34.7345 95.1244 35.4884L93.17 35.4857ZM91.9156 33.8466C92.3192 33.6637 92.6818 33.4047 92.9824 33.0845V31.4455C92.5176 31.3919 92.0503 31.3618 91.5824 31.3553C90.7181 31.3553 90.1199 31.4919 89.7876 31.7651C89.6255 31.8987 89.4967 32.0665 89.4108 32.2558C89.325 32.445 89.2843 32.6509 89.292 32.8578C89.2768 33.0365 89.3012 33.2163 89.3636 33.3851C89.4259 33.5538 89.5247 33.7075 89.6532 33.8357C89.9261 34.0603 90.2767 34.1746 90.6332 34.1553C91.0791 34.1488 91.5177 34.0432 91.9156 33.8466Z" fill="white"/>
<path d="M96.6756 33.344V22.7996L98.7588 22.6357V32.9807C98.7292 33.2678 98.7992 33.5564 98.9576 33.8002C99.0376 33.8841 99.1362 33.9491 99.2458 33.9903C99.3555 34.0315 99.4733 34.0478 99.5904 34.0378C99.7803 34.0298 99.9684 33.9986 100.15 33.9449L100.397 35.4091C100.162 35.4955 99.9193 35.5578 99.6716 35.5949C99.4043 35.6401 99.1337 35.6639 98.8624 35.6659C97.4045 35.6568 96.6756 34.8828 96.6756 33.344Z" fill="white"/>
<path d="M101.886 33.344V22.7996L103.972 22.6357V32.9807C103.943 33.2678 104.013 33.5564 104.171 33.8002C104.251 33.8841 104.35 33.9491 104.459 33.9903C104.569 34.0315 104.687 34.0478 104.804 34.0378C104.994 34.0298 105.182 33.9986 105.364 33.9449L105.608 35.4091C105.374 35.4955 105.132 35.5578 104.885 35.5949C104.617 35.6403 104.345 35.664 104.073 35.6659C102.617 35.6568 101.888 34.8828 101.886 33.344Z" fill="white"/>
<path d="M114.176 31.2843H108.192C108.287 33.1546 109.2 34.0897 110.93 34.0897C111.375 34.0875 111.817 34.0362 112.249 33.9368C112.691 33.8365 113.123 33.6994 113.54 33.527L113.999 34.9256C112.921 35.4213 111.741 35.6698 110.55 35.6523C109.696 35.6763 108.85 35.4883 108.091 35.1059C107.434 34.7593 106.906 34.2179 106.585 33.5598C106.229 32.7973 106.057 31.9658 106.081 31.1286C106.058 30.2512 106.241 29.3803 106.616 28.5826C106.935 27.9056 107.453 27.3356 108.102 26.9436C108.768 26.5608 109.53 26.366 110.303 26.3809C111.07 26.3544 111.827 26.5616 112.468 26.9736C113.046 27.365 113.493 27.913 113.756 28.5498C114.044 29.2436 114.187 29.9867 114.176 30.7352V31.2843ZM112.134 29.9867C112.138 29.4067 111.941 28.8425 111.574 28.3859C111.41 28.2064 111.207 28.0643 110.98 27.9699C110.753 27.8755 110.508 27.831 110.261 27.8396C110.013 27.8346 109.767 27.8807 109.538 27.9748C109.309 28.0689 109.103 28.209 108.934 28.3859C108.539 28.8347 108.297 29.3923 108.242 29.9812L112.134 29.9867Z" fill="white"/>
<path d="M115.76 28.8039C115.76 28.3149 115.735 27.5664 115.69 26.5639H117.65C117.684 26.8125 117.715 27.1102 117.748 27.4517C117.782 27.7932 117.799 28.0773 117.81 28.2931C118.021 27.9449 118.261 27.6142 118.527 27.3042C118.758 27.0393 119.037 26.818 119.35 26.6513C119.679 26.478 120.048 26.3905 120.422 26.3973C120.706 26.3905 120.989 26.4246 121.262 26.4983L120.999 28.2685C120.671 28.1759 120.327 28.1524 119.989 28.1994C119.651 28.2465 119.327 28.3632 119.039 28.5417C118.576 28.8777 118.172 29.2856 117.844 29.7491V35.4856H115.76V28.8039Z" fill="white"/>
<path d="M122.427 39.1379C122.172 39.0977 121.92 39.0383 121.674 38.9604L122.055 37.4716C122.231 37.5179 122.409 37.5552 122.59 37.5836C122.791 37.6185 122.995 37.6368 123.2 37.6382C124.133 37.6382 124.828 37.0564 125.283 35.8927L125.42 35.5621L122.046 26.5639H124.286L126 31.593C126.219 32.2399 126.397 32.8995 126.532 33.568C126.692 32.9233 126.876 32.2786 127.092 31.634L128.8 26.5639H130.908L127.548 35.6031C127.295 36.3312 126.95 37.0258 126.521 37.671C126.194 38.1584 125.747 38.5584 125.222 38.8347C124.658 39.1031 124.037 39.2343 123.41 39.2172C123.081 39.2184 122.752 39.1919 122.427 39.1379Z" fill="white"/>
<path d="M43.68 12.0968H47.404L47.3004 12.9764H44.7664V14.6783H47.1548V15.4978H44.7664V17.3827H47.4348L47.3424 18.2759H43.68V12.0968Z" fill="white"/>
<path d="M49.9772 15.1235L48.0172 12.0968H49.2604L50.5932 14.3204L51.9932 12.0968H53.2L51.24 15.0853L53.3596 18.2759H52.0996L50.5904 15.8447L49.0532 18.2759H47.8464L49.9772 15.1235Z" fill="white"/>
<path d="M54.1632 12.0968H55.8712C56.672 12.0968 57.2861 12.2562 57.7136 12.5749C57.9262 12.7381 58.0953 12.949 58.2065 13.1896C58.3176 13.4303 58.3675 13.6936 58.352 13.9571C58.3639 14.3335 58.2668 14.7056 58.072 15.0307C57.8819 15.3363 57.6046 15.5812 57.274 15.7354C56.9067 15.9048 56.5042 15.989 56.098 15.9813C55.816 15.9774 55.5349 15.9491 55.258 15.8966V18.2759H54.1632V12.0968ZM56.9072 14.8558C57.0267 14.7439 57.1198 14.608 57.1802 14.4576C57.2407 14.3072 57.2669 14.1457 57.2572 13.9844C57.2715 13.8298 57.2465 13.6742 57.1845 13.5313C57.1224 13.3883 57.0253 13.2625 56.9016 13.1649C56.5865 12.9777 56.2198 12.8899 55.8516 12.9136H55.258V15.0989C55.4661 15.1355 55.6767 15.1565 55.888 15.1618C56.2551 15.1887 56.6191 15.0794 56.9072 14.8558Z" fill="white"/>
<path d="M59.4328 12.0968H60.5248V17.3635H63.1456L63.0532 18.2759H59.4328V12.0968Z" fill="white"/>
<path d="M64.8088 17.9727C64.3499 17.7208 63.9792 17.3401 63.7448 16.88C63.4901 16.3701 63.3643 15.8081 63.378 15.241C63.3646 14.6484 63.4991 14.0615 63.77 13.5309C64.0183 13.0527 64.4086 12.6586 64.89 12.4C65.4289 12.1247 66.032 11.991 66.64 12.0121C67.2148 11.9971 67.7836 12.1299 68.2892 12.3973C68.7453 12.6501 69.1131 13.0308 69.3448 13.49C69.5945 13.9946 69.7183 14.5497 69.706 15.1099C69.7212 15.7091 69.5856 16.3028 69.3112 16.839C69.0605 17.3156 68.6708 17.7092 68.1912 17.97C67.6617 18.2448 67.0687 18.3821 66.4692 18.3688C65.8895 18.3831 65.3163 18.2464 64.8088 17.9727ZM67.6424 17.216C67.9511 17.0165 68.1911 16.7309 68.3312 16.3965C68.4883 16.0137 68.5654 15.6041 68.558 15.1918C68.565 14.7871 68.4967 14.3845 68.3564 14.0035C68.2307 13.6736 68.0064 13.3881 67.7124 13.184C67.3714 12.9805 66.9795 12.8728 66.5798 12.8728C66.1801 12.8728 65.7881 12.9805 65.4472 13.184C65.1377 13.3935 64.8966 13.6857 64.7528 14.0254C64.5935 14.3924 64.5143 14.7878 64.5204 15.1864C64.5136 15.597 64.5878 16.005 64.7388 16.3883C64.8729 16.739 65.1182 17.0388 65.4389 17.2442C65.7597 17.4495 66.1393 17.5497 66.5224 17.5302C66.9199 17.5397 67.3108 17.4301 67.6424 17.216Z" fill="white"/>
<path d="M70.924 12.0968H72.9064C73.4872 12.0567 74.0652 12.2056 74.55 12.5202C74.736 12.6627 74.884 12.8468 74.9815 13.057C75.079 13.2672 75.1231 13.4973 75.11 13.7276C75.1166 14.0272 75.0473 14.3237 74.9084 14.5909C74.7869 14.8251 74.6172 15.0325 74.41 15.2C74.2247 15.346 74.0168 15.4622 73.794 15.5442L75.754 18.2759H74.48L72.8308 15.8174H72.0272V18.2759H70.924V12.0968ZM72.6404 15.0197C72.8836 15.0249 73.1245 14.9734 73.3432 14.8695C73.5401 14.7772 73.7062 14.6323 73.822 14.4515C73.9375 14.2586 73.9966 14.0385 73.9928 13.815C74.0041 13.6861 73.9823 13.5564 73.9296 13.4377C73.8768 13.319 73.7946 13.2149 73.6904 13.1349C73.4279 12.9745 73.1202 12.899 72.8112 12.919H72.0188V15.0307L72.6404 15.0197Z" fill="white"/>
<path d="M76.608 12.0968H80.3404L80.234 12.9764H77.714V14.6783H80.08V15.4978H77.6916V17.3827H80.36L80.2788 18.2759H76.608V12.0968Z" fill="white"/>
<path d="M84.4004 12.0968H85.4924V18.2759H84.4004V12.0968Z" fill="white"/>
<path d="M88.3848 12.9873H86.4248L86.52 12.0968H91.448L91.3472 12.9873H89.4796V18.2759H88.3848V12.9873Z" fill="white"/>
<path d="M96.194 17.9727C95.7359 17.7206 95.3661 17.3398 95.1328 16.88C94.8758 16.3708 94.749 15.8084 94.7632 15.241C94.7498 14.6484 94.8843 14.0615 95.1552 13.5309C95.4042 13.0531 95.7943 12.6592 96.2752 12.4C96.81 12.1233 97.4089 11.9859 98.014 12.0012C98.5956 11.9859 99.1708 12.1226 99.68 12.3973C100.137 12.6493 100.505 13.0302 100.736 13.4899C100.986 13.9943 101.111 14.5494 101.1 15.1098C101.115 15.7094 100.979 16.3034 100.702 16.839C100.452 17.3162 100.062 17.7099 99.582 17.9699C99.0528 18.2454 98.4596 18.3828 97.86 18.3688C97.2784 18.384 96.7032 18.2473 96.194 17.9727ZM99.0304 17.216C99.3376 17.0155 99.5764 16.7302 99.7164 16.3965C99.8735 16.0137 99.9506 15.6041 99.9432 15.1918C99.9502 14.7871 99.8819 14.3844 99.7416 14.0035C99.617 13.6737 99.3936 13.3882 99.1004 13.184C98.759 12.9802 98.3666 12.8724 97.9664 12.8724C97.5662 12.8724 97.1738 12.9802 96.8324 13.184C96.5229 13.3935 96.2818 13.6856 96.138 14.0253C95.98 14.3928 95.9009 14.7879 95.9056 15.1863C95.8989 15.5969 95.973 16.005 96.124 16.3883C96.2576 16.7252 96.4905 17.0161 96.7932 17.2242C97.1247 17.4376 97.5163 17.5446 97.9132 17.5301C98.3096 17.5381 98.6991 17.4285 99.0304 17.216Z" fill="white"/>
<path d="M102.312 12.0968H103.566L106.7 16.8855C106.672 16.4293 106.66 16.0113 106.66 15.6262V12.0968H107.674V18.2759H106.459L103.278 13.4108C103.309 13.9571 103.326 14.4515 103.326 14.8804V18.2759H102.312V12.0968Z" fill="white"/>
<path fill-rule="evenodd" clip-rule="evenodd" d="M28.28 12.1296H16.6572C11.1776 12.1296 9.17279 14.0855 9.17279 19.4314V30.7789C9.17279 36.1249 11.1776 38.0808 16.6572 38.0808H28.28C33.7596 38.0808 35.7672 36.1249 35.7672 30.7789V19.4314C35.7728 14.0855 33.768 12.1296 28.28 12.1296Z" fill="#C8102E"/>
<path d="M14.4396 25.1052H15.1452V28.5007H14.4396V27.1212H12.8464V28.5007H12.1408V25.1052H12.8464V26.471H14.4396V25.1052ZM18.4156 27.0474C18.4156 27.5937 18.1356 27.8942 17.626 27.8942C17.1164 27.8942 16.8308 27.5937 16.8308 27.0174V25.1052H16.1252V27.0447C16.1252 27.998 16.6684 28.5444 17.6148 28.5444C18.5612 28.5444 19.1212 27.998 19.1212 27.0146V25.1052H18.4156V27.0474ZM26.5692 27.438L25.7796 25.1052H25.2L24.416 27.4408L23.646 25.1052H22.8956L24.108 28.5007H24.6932L25.48 26.2716L26.2696 28.5007H26.8604L28.0728 25.1052H27.3392L26.5692 27.438ZM29.3356 27.0365H30.6208V26.4218H29.3356V25.728H31.2004V25.1052H28.6412V28.4925H31.2676V27.8806H29.3356V27.0365ZM32.1076 28.4925H32.8048V25.1052H32.1076V28.4925ZM20.5156 27.7904L20.1992 28.4952H19.4796L21 25.1052H21.6216L23.1476 28.4952H22.4196L22.12 27.7932L20.5156 27.7904ZM20.7788 27.1785H21.84L21.308 25.9657L20.7788 27.1785Z" fill="white"/>
<path d="M22.4728 20.7864C21.299 20.7856 20.1734 20.3304 19.3434 19.5206C18.5134 18.7108 18.0467 17.6127 18.046 16.4675H18.6704C18.6704 17.4514 19.071 18.395 19.7841 19.0907C20.4972 19.7863 21.4643 20.1772 22.4728 20.1772C23.4813 20.1772 24.4484 19.7863 25.1615 19.0907C25.8746 18.395 26.2752 17.4514 26.2752 16.4675H26.8996C26.8989 17.6127 26.4322 18.7108 25.6022 19.5206C24.7722 20.3304 23.6466 20.7856 22.4728 20.7864Z" fill="white"/>
</g>
<defs>
<clipPath id="clip0_1_4879">
<rect width="140" height="52" fill="white"/>
</clipPath>
</defs>
</svg>
