<svg width="24" height="18" viewBox="0 0 24 18" fill="none" xmlns="http://www.w3.org/2000/svg">
<path d="M3.02306 18H20.9769C22.9855 18 24 17.0061 24 15.0977V2.9122C24 0.993926 22.9855 0 20.9769 0H3.02306C1.02477 0 0 0.983987 0 2.9122V15.0977C0 17.016 1.02477 18 3.02306 18ZM1.27071 2.97184C1.27071 1.82882 1.89582 1.23247 3.04355 1.23247H20.9564C22.0837 1.23247 22.7293 1.82882 22.7293 2.97184V4.46273H1.27071V2.97184ZM3.04355 16.7675C1.89582 16.7675 1.27071 16.1811 1.27071 15.0282V6.68912H22.7293V15.0282C22.7293 16.1811 22.0837 16.7675 20.9564 16.7675H3.04355ZM4.62169 14.5014H7.13237C7.73698 14.5014 8.13663 14.1038 8.13663 13.5472V11.6985C8.13663 11.1419 7.73698 10.7443 7.13237 10.7443H4.62169C4.01708 10.7443 3.61742 11.1419 3.61742 11.6985V13.5472C3.61742 14.1038 4.01708 14.5014 4.62169 14.5014Z" fill="#484848"/>
</svg>
