<svg width="30" height="30" viewBox="0 0 30 30" fill="none" xmlns="http://www.w3.org/2000/svg">
<path d="M2.64224 6.50055C1.67494 7.90454 0.939824 9.48098 0.49408 11.1754H7.31729L2.64224 6.50055Z" fill="#29337A"/>
<path d="M10.7996 0.600281C9.07135 1.1036 7.47077 1.90673 6.06134 2.95428L10.7996 7.69254V0.600281Z" fill="#29337A"/>
<path d="M6.4137 27.2956C7.73573 28.2208 9.21274 28.9369 10.7996 29.399V22.9105L6.4137 27.2956Z" fill="#29337A"/>
<path d="M0.666214 19.4289C1.16218 21.0354 1.92219 22.5259 2.89348 23.8517L7.31627 19.4289H0.666214Z" fill="#29337A"/>
<path d="M2.88889 6.15268C2.80503 6.26731 2.72238 6.38359 2.64138 6.50108L7.31643 11.1759H0.493219C0.382638 11.5967 0.292387 12.0257 0.218033 12.4605H9.19726L2.88889 6.15268Z" fill="white"/>
<path d="M6.06497 27.0485C6.1791 27.1335 6.29639 27.2145 6.41287 27.296L10.7987 22.9106V29.3992C11.2201 29.5223 11.648 29.6287 12.0834 29.7142V21.0302L6.06497 27.0485Z" fill="white"/>
<path d="M0.332138 18.1446C0.425239 18.5799 0.535123 19.0086 0.665148 19.4292H7.31527L2.89247 23.852C3.3735 24.5092 3.90689 25.126 4.48646 25.6963L12.0381 18.1446H0.332138Z" fill="white"/>
<path d="M10.7988 0.600606V7.69286L6.06049 2.95485C5.40726 3.44062 4.79666 3.97991 4.2309 4.56372L12.0832 12.416V0.285583C11.6481 0.371591 11.2202 0.478182 10.7988 0.600606Z" fill="white"/>
<path d="M10.7993 19.384L10.7543 19.4293H10.7993V19.384Z" fill="#D32030"/>
<path d="M12.0389 18.1446H12.0839V18.0994L12.0389 18.1446Z" fill="#D32030"/>
<path d="M17.8115 12.4604H17.7682V12.504L17.8115 12.4604Z" fill="#D32030"/>
<path d="M10.8436 11.176L10.7993 11.1315V11.176H10.8436Z" fill="#D32030"/>
<path d="M12.0839 12.4161V12.4604H12.1282L12.0839 12.4161Z" fill="#D32030"/>
<path d="M19.0521 26.0786V29.441C20.6595 28.991 22.1583 28.2817 23.4988 27.3575L19.8555 23.7142C19.5643 24.7371 19.4578 25.2659 19.0521 26.0786Z" fill="#252F6C"/>
<path d="M19.8749 6.86992L23.8523 2.89261C22.4234 1.84621 20.8024 1.04877 19.0524 0.558502V4.01261C19.5202 4.94931 19.5595 5.66106 19.8749 6.86992Z" fill="#252F6C"/>
<path d="M27.0451 23.9392C28.0467 22.5917 28.8273 21.0708 29.3344 19.429H22.5349L27.0451 23.9392Z" fill="#252F6C"/>
<path d="M29.5061 11.1757C29.0508 9.4455 28.2937 7.83948 27.2959 6.41345L22.5331 11.1757H29.5061Z" fill="#252F6C"/>
<path d="M20.7508 18.3986L21.7815 19.4293L26.7154 24.3632C26.8275 24.223 26.9387 24.0833 27.0458 23.9395L22.5356 19.4293H29.3352C29.4647 19.0089 29.5748 18.58 29.6677 18.1447H20.8472C20.8327 18.3268 20.7681 18.2176 20.7508 18.3986Z" fill="#E7E7E7"/>
<path d="M19.7193 7.62216L24.1912 3.14984C24.0791 3.06294 23.9669 2.97649 23.8524 2.89264L19.8751 6.86994C19.9164 7.0272 19.681 7.4611 19.7193 7.62216Z" fill="#E7E7E7"/>
<path d="M19.0524 3.7362V0.558229C18.6316 0.440302 18.2031 0.340361 17.7678 0.25885V1.80901C18.2457 2.32721 18.6742 2.97809 19.0524 3.7362Z" fill="#E7E7E7"/>
<path d="M20.6496 12.4602H29.7821C29.7079 12.0253 29.6175 11.5966 29.5069 11.1755H22.5339L27.2966 6.4133C26.8284 5.74443 26.3081 5.11539 25.7396 4.53253L20.3751 9.89653C20.5196 10.8695 20.5843 11.4346 20.6496 12.4602Z" fill="#E7E7E7"/>
<path d="M19.6393 23.4971L23.4996 27.3578C24.1417 26.9156 24.7463 26.4235 25.3105 25.8892L20.2328 20.8112C20.0707 21.7504 19.8785 22.6574 19.6393 23.4971Z" fill="#E7E7E7"/>
<path d="M17.7682 28.0127V29.7405C18.2035 29.6594 18.6317 29.559 19.0529 29.4411V26.0786C18.6744 26.837 18.2459 27.4952 17.7682 28.0127Z" fill="#E7E7E7"/>
<path d="M20.375 9.89652L25.739 4.53252C25.2561 4.03655 24.7383 3.57497 24.1907 3.14981L19.9758 7.36538C20.1632 8.14838 20.2482 9.04461 20.375 9.89652Z" fill="#D71F28"/>
<path d="M14.2513 0.0184935C14.5012 0.00639672 14.7504 0 14.9997 0C14.7489 0 14.4993 0.00639672 14.2513 0.0184935Z" fill="#D32030"/>
<path d="M15 30C14.7506 30 14.5015 29.9931 14.2521 29.981C14.5001 29.9936 14.7492 30 15 30Z" fill="#D32030"/>
<path d="M15.0001 30C15.9465 30 16.8706 29.9083 17.7683 29.7404V28.0126C16.9803 28.8667 16.0586 30 15.0001 30Z" fill="#D32030"/>
<path d="M29.7816 12.4603H20.7679C20.8873 14.3416 20.8728 16.2761 20.7248 18.1445H29.6675C29.884 17.1301 30 16.079 30 15.0005C30 14.1341 29.9228 13.2866 29.7816 12.4603Z" fill="#D71F28"/>
<path d="M20.7506 18.3987C20.6672 19.285 20.3768 19.9756 20.2324 20.8116L25.31 25.8893C25.8124 25.4132 26.282 24.904 26.715 24.3633L21.7813 19.4292L20.7506 18.3987Z" fill="#D71F28"/>
<path d="M17.768 1.92054V0.259099C16.8706 0.0916442 15.9465 0 14.9997 0C16.0582 0 16.98 1.06673 17.768 1.92054Z" fill="#D32030"/>
<path d="M19.0521 26.7278C19.4578 25.9149 19.8057 24.9792 20.0971 23.9565L19.0521 22.9115V26.7278Z" fill="#29337A"/>
<path d="M20.2274 6.51742C19.9114 5.30857 19.5202 4.2096 19.0524 3.27289V7.69188L20.2274 6.51742Z" fill="#29337A"/>
<path d="M21.0418 18.6892C21.0589 18.5082 21.0743 18.3266 21.089 18.1442H20.4969L21.0418 18.6892Z" fill="white"/>
<path d="M19.0524 7.69199V3.27274C18.6739 2.51463 18.2457 1.86331 17.7678 1.34555V9.573L20.3477 6.9931C20.3088 6.83204 20.2681 6.67427 20.2273 6.51702L19.0524 7.69199Z" fill="white"/>
<path d="M17.8115 12.4599H21.1321C21.067 11.4344 20.9632 10.4255 20.8189 9.45273L17.8115 12.4599Z" fill="white"/>
<path d="M17.7682 28.6541C18.2462 28.1359 18.6744 27.485 19.0529 26.7269V22.9107L20.0978 23.9556C20.3375 23.1156 20.5385 22.2181 20.7011 21.2791L17.7683 18.3465L17.7682 28.6541Z" fill="white"/>
<path d="M17.768 28.6543V18.3466L20.7006 21.2794C20.8448 20.4431 20.9583 19.5758 21.0414 18.6893L20.4964 18.1443H21.0885C21.2366 16.2759 21.251 14.3413 21.1317 12.4601H17.8111L20.8184 9.4529C20.6916 8.60074 20.5349 7.77652 20.3475 6.99327L17.7681 9.57317V1.34572C16.98 0.491661 16.0582 0 14.9997 0C14.7503 0 14.5012 0.00639672 14.2513 0.0184935C13.5136 0.0554172 12.79 0.146175 12.0837 0.285446V12.4159L4.23121 4.56352C3.74873 5.06139 3.29995 5.59188 2.88923 6.15251L7.91243 11.1757L9.19754 12.4604H0.218375C0.0777107 13.2864 0 14.1338 0 15.0003C0 16.0791 0.116534 17.1299 0.332503 18.1443H12.0388L4.48702 25.6961C4.98153 26.1819 5.50802 26.6342 6.06536 27.0482L12.0835 21.03V29.7141C12.7898 29.8534 13.5138 29.9441 14.2516 29.9811C14.501 29.9932 14.7501 30 14.9996 30C16.0582 30 16.98 29.5083 17.768 28.6543Z" fill="#E51D35"/>
</svg>
