<svg width="143" height="40" viewBox="0 0 143 40" fill="none" xmlns="http://www.w3.org/2000/svg">
<path d="M51.0641 12.2796C51.0641 14.7089 50.3452 17.0836 48.9985 19.1033C47.6517 21.123 45.7376 22.6969 43.4982 23.6259C41.2588 24.5549 38.7949 24.7972 36.4181 24.3223C34.0413 23.8473 31.8584 22.6764 30.1457 20.9576C28.4329 19.2388 27.2673 17.0495 26.7962 14.6665C26.3251 12.2836 26.5697 9.81412 27.4991 7.57056C28.4285 5.327 30.0009 3.41017 32.0174 2.06258C34.0339 0.714991 36.4039 -0.00280452 38.8275 8.23497e-06C42.0738 0.00502946 45.1854 1.30084 47.4796 3.60303C49.7737 5.90523 51.0628 9.02572 51.0641 12.2796" fill="#FFA400"/>
<path d="M36.1893 8.37914C36.1893 8.76439 36.0754 9.14099 35.8618 9.46132C35.6483 9.78164 35.3448 10.0313 34.9897 10.1787C34.6346 10.3262 34.2439 10.3647 33.8669 10.2896C33.49 10.2144 33.1437 10.0289 32.8719 9.75649C32.6001 9.48408 32.4151 9.137 32.3401 8.75915C32.2651 8.3813 32.3036 7.98965 32.4507 7.63373C32.5977 7.2778 32.8468 6.97358 33.1664 6.75955C33.486 6.54552 33.8617 6.43127 34.246 6.43127C34.7614 6.43127 35.2557 6.6365 35.6201 7.00179C35.9846 7.36709 36.1893 7.86254 36.1893 8.37914Z" fill="white"/>
<path d="M45.3905 8.37915C45.3905 8.7646 45.2764 9.14139 45.0627 9.46182C44.8489 9.78224 44.5451 10.0319 44.1898 10.1792C43.8344 10.3265 43.4434 10.3648 43.0663 10.2892C42.6893 10.2137 42.343 10.0277 42.0714 9.75481C41.7998 9.48192 41.6151 9.1344 41.5407 8.75624C41.4662 8.37808 41.5054 7.98628 41.6532 7.63044C41.801 7.2746 42.0508 6.97071 42.371 6.75725C42.6912 6.54379 43.0674 6.43034 43.4519 6.43128C43.7069 6.43128 43.9594 6.4817 44.1949 6.57964C44.4304 6.67759 44.6443 6.82115 44.8244 7.00208C45.0045 7.18302 45.1471 7.39779 45.2443 7.63409C45.3414 7.87039 45.3911 8.12357 45.3905 8.37915Z" fill="white"/>
<path d="M38.8274 21.1848C40.9884 21.1833 43.0733 20.3842 44.684 18.9401C46.2948 17.496 47.3187 15.508 47.5604 13.3555C47.5728 13.2742 47.5674 13.1911 47.5444 13.1122C47.5214 13.0333 47.4815 12.9603 47.4275 12.8984C47.3734 12.8366 47.3065 12.7873 47.2315 12.7541C47.1564 12.7209 47.075 12.7045 46.993 12.7062C46.5202 12.7062 46.4493 13.1517 46.3925 13.3555C45.9611 15.038 44.9836 16.5289 43.6141 17.5935C42.2445 18.6581 40.5605 19.2359 38.8274 19.2359C37.0942 19.2359 35.4103 18.6581 34.0407 17.5935C32.6711 16.5289 31.6937 15.038 31.2623 13.3555C31.2008 13.1517 31.1393 12.7062 30.6618 12.7062C30.5797 12.7045 30.4984 12.7209 30.4233 12.7541C30.3483 12.7873 30.2814 12.8366 30.2273 12.8984C30.1732 12.9603 30.1333 13.0333 30.1104 13.1122C30.0874 13.1911 30.082 13.2742 30.0944 13.3555C30.335 15.5084 31.3587 17.497 32.9696 18.9413C34.5806 20.3856 36.666 21.1843 38.8274 21.1848Z" fill="white"/>
<path d="M51.8442 11.1754H51.0641C50.8626 11.1886 50.6606 11.1586 50.4716 11.0873C50.2826 11.016 50.111 10.9051 49.9682 10.762C49.8254 10.6189 49.7148 10.4468 49.6436 10.2574C49.5725 10.068 49.5426 9.86549 49.5558 9.66352C49.5506 9.46335 49.586 9.26421 49.66 9.07818C49.7339 8.89214 49.8447 8.7231 49.9857 8.58128C50.1268 8.43947 50.2951 8.32785 50.4804 8.25319C50.6658 8.17852 50.8644 8.14238 51.0641 8.14694H51.8301V6.08532C51.8301 4.93367 52.5487 4.16589 53.5511 4.16589C54.5535 4.16589 55.3195 4.93367 55.3195 6.08532V8.14694H56.2651C57.154 8.14694 57.9153 8.55926 57.9153 9.66352C57.9153 10.7678 57.154 11.1754 56.2651 11.1754H55.3195V19.1517C55.3195 20.3033 54.6008 21.0758 53.5889 21.0758C52.5771 21.0758 51.8679 20.3033 51.8679 19.1517L51.8442 11.1754Z" fill="#0055B8"/>
<path d="M59.0693 4.35545C59.0693 3.20379 59.788 2.45972 60.7951 2.45972C61.8022 2.45972 62.5162 3.22749 62.5162 4.37915V9.08531H62.5682C63.2869 8.19905 64.6297 7.88626 65.7077 7.88626C68.417 7.88626 70.436 9.61611 70.436 12.545V19.1801C70.436 20.3318 69.7173 21.1043 68.7149 21.1043C67.7125 21.1043 66.9844 20.3318 66.9844 19.1801V13.1185C66.9844 11.5118 65.982 10.7488 64.7337 10.7488C63.3153 10.7488 62.5257 11.782 62.5257 13.1185V19.1517C62.5257 20.3033 61.807 21.0758 60.8046 21.0758C59.8022 21.0758 59.0788 20.3033 59.0788 19.1517L59.0693 4.35545Z" fill="#0055B8"/>
<path d="M75.0888 15.5498C75.3252 17.2559 76.7436 18.0474 78.3465 18.0474C80.1243 18.0474 81.3442 16.6493 82.252 16.6493C82.6307 16.6784 82.9852 16.8471 83.2472 17.1228C83.5091 17.3985 83.6599 17.7616 83.6705 18.1422C83.6705 19.6303 80.6019 21.0758 78.0392 21.0758C74.1573 21.0758 71.5615 18.2322 71.5615 14.4408C71.5615 10.9337 74.1053 7.73935 77.7507 7.73935C81.486 7.73935 83.9542 11.1517 83.9542 14.0332C83.9542 15.0664 83.4813 15.5735 82.4459 15.5735L75.0888 15.5498ZM80.5073 13.2702C80.3134 11.7536 79.3536 10.6209 77.7507 10.6209C76.1479 10.6209 75.1786 11.7773 75.0178 13.2702H80.5073Z" fill="#0055B8"/>
<path d="M-0.000255574 24.9905C-0.000255574 23.7867 0.595499 22.9005 1.89103 22.9005H7.81075C8.03406 22.8857 8.25798 22.9181 8.468 22.9956C8.67802 23.0731 8.86946 23.194 9.02993 23.3503C9.19039 23.5067 9.3163 23.6951 9.3995 23.9034C9.4827 24.1116 9.52133 24.3351 9.5129 24.5592C9.51773 24.7824 9.47663 25.0043 9.39217 25.2108C9.30771 25.4174 9.18171 25.6043 9.02201 25.76C8.86232 25.9156 8.67235 26.0366 8.46395 26.1154C8.25556 26.1942 8.0332 26.2291 7.81075 26.218H3.59318V29.7204H7.52233C7.7486 29.7024 7.97612 29.7322 8.19017 29.808C8.40422 29.8837 8.60002 30.0036 8.76492 30.1599C8.92982 30.3163 9.06014 30.5056 9.14745 30.7156C9.23475 30.9256 9.27711 31.1517 9.27177 31.3791C9.27282 31.6054 9.22756 31.8294 9.13878 32.0375C9.05 32.2455 8.91959 32.433 8.75562 32.5885C8.59164 32.744 8.39759 32.8641 8.18546 32.9414C7.97333 33.0187 7.74763 33.0515 7.52233 33.0379H3.59318V36.6872H8.0377C8.2614 36.6717 8.48584 36.7036 8.69643 36.7808C8.90702 36.858 9.09905 36.9788 9.26003 37.1352C9.42102 37.2917 9.54736 37.4803 9.63084 37.6889C9.71432 37.8975 9.75308 38.1214 9.74459 38.346C9.74809 38.569 9.7059 38.7904 9.62062 38.9964C9.53534 39.2025 9.40879 39.3888 9.2488 39.5438C9.0888 39.6988 8.89876 39.8193 8.69045 39.8978C8.48213 39.9763 8.25997 40.0111 8.0377 40H1.84375C1.60238 40.0139 1.36076 39.9773 1.13423 39.8927C0.907698 39.808 0.70119 39.6771 0.527809 39.5082C0.354427 39.3393 0.217955 39.1362 0.127051 38.9116C0.0361473 38.6871 -0.00720504 38.446 -0.000255574 38.2038V24.9905Z" fill="#0055B8"/>
<path d="M10.9506 24.4882C10.925 24.241 10.9531 23.9912 11.033 23.756C11.1129 23.5208 11.2427 23.3057 11.4134 23.1256C11.5841 22.9454 11.7918 22.8045 12.0221 22.7124C12.2523 22.6204 12.4997 22.5795 12.7473 22.5924C13.3352 22.6452 13.8787 22.9278 14.2603 23.3792L21.8538 33.5687H21.9059V24.4882C21.8934 24.2442 21.9305 24.0003 22.015 23.7711C22.0996 23.542 22.2297 23.3325 22.3976 23.1554C22.5654 22.9783 22.7675 22.8373 22.9914 22.7409C23.2153 22.6446 23.4565 22.5949 23.7002 22.5949C23.9439 22.5949 24.1851 22.6446 24.409 22.7409C24.633 22.8373 24.835 22.9783 25.0028 23.1554C25.1707 23.3325 25.3008 23.542 25.3854 23.7711C25.4699 24.0003 25.5071 24.2442 25.4946 24.4882V38.128C25.5202 38.3751 25.4921 38.6249 25.4122 38.8601C25.3323 39.0954 25.2025 39.3104 25.0317 39.4906C24.861 39.6707 24.6534 39.8117 24.4231 39.9037C24.1928 39.9957 23.9454 40.0367 23.6978 40.0237C23.1127 39.9627 22.573 39.6795 22.1895 39.2322L14.5913 29.1706H14.544V38.128C14.5696 38.3751 14.5415 38.6249 14.4616 38.8601C14.3817 39.0954 14.252 39.3104 14.0812 39.4906C13.9105 39.6707 13.7028 39.8117 13.4726 39.9037C13.2423 39.9957 12.9949 40.0367 12.7473 40.0237C12.4997 40.0367 12.2523 39.9957 12.0221 39.9037C11.7918 39.8117 11.5841 39.6707 11.4134 39.4906C11.2427 39.3104 11.1129 39.0954 11.033 38.8601C10.9531 38.6249 10.925 38.3751 10.9506 38.128V24.4882Z" fill="#0055B8"/>
<path d="M31.0071 26.0664H28.3971C28.1779 26.0784 27.9587 26.0435 27.754 25.964C27.5493 25.8844 27.3639 25.7622 27.21 25.6052C27.0562 25.4483 26.9374 25.2604 26.8616 25.0539C26.7859 24.8474 26.7548 24.6271 26.7706 24.4076C26.7642 24.1904 26.8017 23.9742 26.8808 23.7719C26.9599 23.5697 27.079 23.3855 27.231 23.2306C27.3829 23.0756 27.5645 22.9531 27.7649 22.8703C27.9653 22.7875 28.1804 22.7462 28.3971 22.7488H37.2152C37.4325 22.7449 37.6484 22.7852 37.8496 22.8675C38.0509 22.9498 38.2334 23.0722 38.386 23.2273C38.5385 23.3825 38.658 23.5671 38.7372 23.77C38.8164 23.9729 38.8535 24.1899 38.8464 24.4076C38.8615 24.6273 38.8298 24.8477 38.7535 25.0542C38.6772 25.2607 38.5579 25.4486 38.4037 25.6054C38.2495 25.7622 38.0638 25.8844 37.8589 25.9639C37.654 26.0434 37.4346 26.0783 37.2152 26.0664H34.6052V38.128C34.6178 38.3726 34.5805 38.6172 34.4957 38.8469C34.411 39.0766 34.2805 39.2866 34.1122 39.4641C33.9439 39.6417 33.7413 39.7831 33.5168 39.8797C33.2923 39.9763 33.0505 40.0261 32.8062 40.0261C32.5618 40.0261 32.32 39.9763 32.0955 39.8797C31.871 39.7831 31.6684 39.6417 31.5001 39.4641C31.3318 39.2866 31.2013 39.0766 31.1166 38.8469C31.0318 38.6172 30.9946 38.3726 31.0071 38.128V26.0664Z" fill="#0055B8"/>
<path d="M39.9859 24.9905C39.9859 23.7867 40.5864 22.9005 41.8772 22.9005H47.8017C48.0246 22.8864 48.248 22.9193 48.4575 22.9971C48.6669 23.075 48.8578 23.1959 49.0177 23.3522C49.1776 23.5085 49.3031 23.6967 49.386 23.9046C49.469 24.1125 49.5075 24.3355 49.4991 24.5592C49.5046 24.7822 49.4641 25.0039 49.3802 25.2105C49.2962 25.4171 49.1707 25.6041 49.0114 25.7598C48.852 25.9155 48.6624 26.0365 48.4542 26.1154C48.2461 26.1942 48.0239 26.2292 47.8017 26.218H43.5841V29.7204H47.5085C47.735 29.7025 47.9627 29.7323 48.177 29.808C48.3913 29.8836 48.5874 30.0035 48.7527 30.1598C48.9179 30.316 49.0487 30.5053 49.1365 30.7153C49.2244 30.9253 49.2674 31.1515 49.2627 31.3791C49.2638 31.6058 49.2184 31.8303 49.1293 32.0386C49.0403 32.247 48.9094 32.4348 48.7449 32.5903C48.5804 32.7459 48.3858 32.8658 48.1731 32.9428C47.9604 33.0198 47.7342 33.0522 47.5085 33.0379H43.5841V36.6872H48.0144C48.2378 36.6724 48.4617 36.7049 48.6717 36.7824C48.8817 36.8599 49.0732 36.9807 49.2336 37.1371C49.3941 37.2934 49.52 37.4819 49.6032 37.6901C49.6864 37.8984 49.725 38.1218 49.7166 38.346C49.7208 38.5688 49.6792 38.7901 49.5944 38.9961C49.5097 39.2021 49.3836 39.3885 49.2239 39.5436C49.0643 39.6987 48.8746 39.8193 48.6665 39.8978C48.4584 39.9763 48.2365 40.0111 48.0144 40H41.8347C41.5931 40.0138 41.3513 39.9773 41.1245 39.8927C40.8977 39.8081 40.6909 39.6772 40.5172 39.5084C40.3434 39.3396 40.2065 39.1365 40.1151 38.9119C40.0236 38.6874 39.9797 38.4463 39.9859 38.2038V24.9905Z" fill="#0055B8"/>
<path d="M50.8708 24.6446C50.8415 24.3922 50.8688 24.1365 50.9508 23.8961C51.0327 23.6557 51.1671 23.4367 51.3443 23.255C51.5215 23.0733 51.7369 22.9336 51.9748 22.846C52.2127 22.7585 52.4671 22.7252 52.7195 22.7488H56.9323C60.6251 22.7488 62.8993 24.4076 62.8993 28.1801C62.8993 30.8246 60.9087 32.3365 58.469 32.7204L62.54 37.0948C62.8283 37.3723 62.9979 37.7512 63.0128 38.1517C63.0174 38.525 62.9077 38.8907 62.6985 39.1996C62.4892 39.5085 62.1904 39.7455 61.8425 39.8788C61.4946 40.0121 61.1142 40.0352 60.7528 39.945C60.3913 39.8548 60.0662 39.6557 59.8213 39.3744L54.5115 32.9147H54.4642V38.128C54.4642 38.3645 54.4177 38.5987 54.3274 38.8172C54.2371 39.0357 54.1048 39.2342 53.9379 39.4014C53.7711 39.5687 53.573 39.7013 53.355 39.7918C53.1371 39.8823 52.9034 39.9289 52.6675 39.9289C52.4315 39.9289 52.1979 39.8823 51.9799 39.7918C51.7619 39.7013 51.5638 39.5687 51.397 39.4014C51.2302 39.2342 51.0978 39.0357 51.0075 38.8172C50.9172 38.5987 50.8708 38.3645 50.8708 38.128V24.6446ZM54.4642 30.3318H56.9323C58.2468 30.3318 59.1593 29.5355 59.1593 28.1896C59.1593 26.8436 58.2468 26.0664 56.9323 26.0664H54.4642V30.3318Z" fill="#0055B8"/>
<path d="M67.6464 26.0663H65.027C64.8078 26.0784 64.5886 26.0434 64.3839 25.9639C64.1792 25.8844 63.9938 25.7621 63.8399 25.6052C63.6861 25.4483 63.5673 25.2603 63.4915 25.0538C63.4157 24.8473 63.3847 24.627 63.4005 24.4076C63.3941 24.1904 63.4316 23.9742 63.5107 23.7719C63.5898 23.5696 63.7089 23.3855 63.8608 23.2305C64.0128 23.0756 64.1944 22.953 64.3948 22.8703C64.5952 22.7875 64.8102 22.7462 65.027 22.7488H73.8498C74.0667 22.7455 74.2821 22.7863 74.4828 22.8689C74.6835 22.9514 74.8654 23.074 75.0175 23.2291C75.1695 23.3842 75.2886 23.5686 75.3675 23.7711C75.4464 23.9737 75.4834 24.1902 75.4763 24.4076C75.4921 24.627 75.4611 24.8473 75.3853 25.0538C75.3095 25.2603 75.1908 25.4483 75.0369 25.6052C74.883 25.7621 74.6976 25.8844 74.4929 25.9639C74.2882 26.0434 74.069 26.0784 73.8498 26.0663H71.2399V38.128C71.2399 38.3645 71.1934 38.5987 71.1031 38.8172C71.0128 39.0357 70.8804 39.2342 70.7136 39.4014C70.5468 39.5687 70.3487 39.7013 70.1307 39.7918C69.9127 39.8823 69.6791 39.9289 69.4431 39.9289C69.2072 39.9289 68.9735 39.8823 68.7556 39.7918C68.5376 39.7013 68.3395 39.5687 68.1727 39.4014C68.0058 39.2342 67.8735 39.0357 67.7832 38.8172C67.6929 38.5987 67.6464 38.3645 67.6464 38.128V26.0663Z" fill="#0055B8"/>
<path d="M77.902 24.4645C78.0743 23.9091 78.4124 23.4201 78.8706 23.0633C79.3288 22.7065 79.8852 22.4992 80.4647 22.4692C81.0496 22.4792 81.6156 22.679 82.0777 23.0388C82.5398 23.3986 82.873 23.8988 83.0274 24.4645L87.7272 37.5308C87.8371 37.8142 87.901 38.1134 87.9163 38.4171C87.9152 38.6311 87.8711 38.8427 87.7866 39.0393C87.7021 39.2358 87.5789 39.4133 87.4244 39.561C87.27 39.7088 87.0874 39.8238 86.8876 39.8992C86.6877 39.9747 86.4748 40.0089 86.2614 40C85.8711 40.0295 85.4828 39.921 85.1641 39.6933C84.8453 39.4655 84.6162 39.133 84.5167 38.7536L83.798 36.4929H77.1313L76.422 38.7299C76.3272 39.1082 76.1042 39.4417 75.7911 39.6734C75.478 39.9051 75.0943 40.0206 74.7057 40C74.4791 40.0076 74.2533 39.9701 74.0412 39.8897C73.8292 39.8093 73.6351 39.6876 73.4703 39.5316C73.3054 39.3756 73.173 39.1884 73.0807 38.9809C72.9885 38.7733 72.9381 38.5495 72.9326 38.3223C72.9344 38.0495 72.9923 37.7801 73.1028 37.5308L77.902 24.4645ZM78.1668 33.1848H82.7153L80.4883 26.218H80.441L78.1668 33.1848Z" fill="#0055B8"/>
<path d="M89.2402 24.4882C89.2402 24.0105 89.4295 23.5525 89.7665 23.2147C90.1034 22.877 90.5604 22.6872 91.0369 22.6872C91.5135 22.6872 91.9705 22.877 92.3074 23.2147C92.6444 23.5525 92.8337 24.0105 92.8337 24.4882V38.128C92.8337 38.6056 92.6444 39.0637 92.3074 39.4014C91.9705 39.7392 91.5135 39.9289 91.0369 39.9289C90.5604 39.9289 90.1034 39.7392 89.7665 39.4014C89.4295 39.0637 89.2402 38.6056 89.2402 38.128V24.4882Z" fill="#0055B8"/>
<path d="M94.3129 24.4882C94.2873 24.241 94.3154 23.9912 94.3953 23.756C94.4752 23.5208 94.605 23.3057 94.7757 23.1256C94.9464 22.9454 95.1541 22.8045 95.3844 22.7124C95.6146 22.6204 95.8621 22.5795 96.1096 22.5924C96.6972 22.6462 97.2404 22.9286 97.6226 23.3792L105.216 33.545H105.263V24.4882C105.251 24.2436 105.288 23.999 105.373 23.7693C105.458 23.5396 105.588 23.3296 105.756 23.152C105.925 22.9744 106.127 22.833 106.352 22.7364C106.576 22.6398 106.818 22.59 107.063 22.59C107.307 22.59 107.549 22.6398 107.773 22.7364C107.998 22.833 108.2 22.9744 108.369 23.152C108.537 23.3296 108.667 23.5396 108.752 23.7693C108.837 23.999 108.874 24.2436 108.862 24.4882V38.128C108.887 38.3755 108.859 38.6258 108.779 38.8613C108.699 39.0969 108.569 39.3122 108.397 39.4925C108.226 39.6727 108.018 39.8135 107.787 39.9053C107.556 39.997 107.308 40.0374 107.06 40.0237C106.475 39.9637 105.935 39.6803 105.552 39.2322L97.9536 29.1706H97.9063V38.128C97.9063 38.6056 97.717 39.0637 97.3801 39.4014C97.0431 39.7392 96.5861 39.9289 96.1096 39.9289C95.6331 39.9289 95.1761 39.7392 94.8391 39.4014C94.5022 39.0637 94.3129 38.6056 94.3129 38.128V24.4882Z" fill="#0055B8"/>
<path d="M110.371 24.9905C110.371 23.7867 110.971 22.9005 112.238 22.9005H118.205C118.429 22.8857 118.653 22.9181 118.863 22.9956C119.073 23.0731 119.264 23.194 119.425 23.3503C119.585 23.5067 119.711 23.6951 119.794 23.9034C119.877 24.1116 119.916 24.3351 119.908 24.5592C119.912 24.7824 119.871 25.0043 119.787 25.2108C119.702 25.4174 119.576 25.6043 119.417 25.76C119.257 25.9156 119.067 26.0366 118.859 26.1154C118.65 26.1942 118.428 26.2291 118.205 26.218H113.95V29.7204H117.874C118.101 29.7032 118.328 29.7336 118.542 29.8095C118.756 29.8854 118.952 30.0053 119.117 30.1614C119.282 30.3176 119.413 30.5065 119.501 30.7162C119.589 30.9259 119.632 31.1517 119.629 31.3791C119.63 31.6058 119.584 31.8303 119.495 32.0386C119.406 32.247 119.275 32.4348 119.111 32.5903C118.946 32.7459 118.752 32.8658 118.539 32.9428C118.326 33.0198 118.1 33.0522 117.874 33.0379H113.95V36.6872H118.38C118.604 36.6724 118.828 36.7049 119.038 36.7824C119.248 36.8599 119.439 36.9807 119.599 37.1371C119.76 37.2934 119.886 37.4819 119.969 37.6901C120.052 37.8984 120.091 38.1218 120.082 38.346C120.087 38.5688 120.045 38.7901 119.96 38.9961C119.876 39.2021 119.749 39.3885 119.59 39.5436C119.43 39.6987 119.24 39.8193 119.032 39.8978C118.824 39.9763 118.602 40.0111 118.38 40H112.219C111.978 40.0138 111.736 39.9773 111.509 39.8927C111.282 39.8081 111.076 39.6772 110.902 39.5084C110.728 39.3396 110.591 39.1365 110.5 38.9119C110.408 38.6874 110.364 38.4463 110.371 38.2038V24.9905Z" fill="#0055B8"/>
<path d="M121.377 24.6446C121.347 24.3925 121.374 24.1368 121.455 23.8964C121.536 23.656 121.67 23.4368 121.847 23.2551C122.024 23.0733 122.239 22.9335 122.477 22.8459C122.715 22.7583 122.969 22.7251 123.221 22.7488H127.439C131.127 22.7488 133.406 24.4076 133.406 28.1801C133.406 30.8247 131.42 32.3365 128.975 32.7204L133.046 37.0948C133.335 37.3723 133.504 37.7513 133.519 38.1517C133.523 38.5239 133.413 38.8883 133.204 39.196C132.995 39.5037 132.697 39.74 132.35 39.873C132.003 40.0061 131.624 40.0297 131.263 39.9406C130.903 39.8514 130.578 39.6539 130.332 39.3744L125.023 32.9147H124.971V38.128C124.971 38.6056 124.781 39.0637 124.444 39.4014C124.107 39.7392 123.65 39.9289 123.174 39.9289C122.697 39.9289 122.24 39.7392 121.903 39.4014C121.567 39.0637 121.377 38.6056 121.377 38.128V24.6446ZM124.971 30.3318H127.439C128.758 30.3318 129.666 29.5356 129.666 28.1896C129.666 26.8436 128.758 26.0664 127.439 26.0664H124.971V30.3318Z" fill="#0055B8"/>
<path d="M134.725 23.6967H133.897C133.834 23.7017 133.77 23.6929 133.711 23.6708C133.651 23.6488 133.597 23.614 133.552 23.569C133.507 23.5239 133.472 23.4696 133.45 23.4099C133.428 23.3501 133.42 23.2863 133.425 23.2228C133.419 23.1591 133.427 23.0949 133.449 23.0347C133.47 22.9746 133.505 22.92 133.55 22.8747C133.595 22.8295 133.65 22.7948 133.71 22.773C133.77 22.7513 133.834 22.743 133.897 22.7488H136.805C136.869 22.7421 136.933 22.7498 136.994 22.7712C137.054 22.7927 137.109 22.8274 137.154 22.8728C137.2 22.9182 137.234 22.9732 137.256 23.0338C137.277 23.0943 137.285 23.1589 137.278 23.2228C137.284 23.2865 137.276 23.3507 137.254 23.4108C137.232 23.471 137.198 23.5256 137.153 23.5708C137.107 23.616 137.053 23.6508 136.993 23.6725C136.933 23.6943 136.869 23.7025 136.805 23.6967H135.978V26.4408C135.985 26.5278 135.975 26.6155 135.947 26.6982C135.919 26.781 135.874 26.8569 135.815 26.9214C135.756 26.9858 135.684 27.0372 135.605 27.0724C135.525 27.1076 135.439 27.1257 135.351 27.1257C135.264 27.1257 135.178 27.1076 135.098 27.0724C135.018 27.0372 134.947 26.9858 134.888 26.9214C134.829 26.8569 134.784 26.781 134.756 26.6982C134.728 26.6155 134.717 26.5278 134.725 26.4408V23.6967ZM137.883 23.3365C137.883 22.9811 138.101 22.6872 138.768 22.6872C139.155 22.6872 139.439 22.7488 139.713 23.3365L140.456 25.2322L141.198 23.3365C141.458 22.7488 141.742 22.6872 142.143 22.6872C142.81 22.6872 143.028 22.9811 143.028 23.3365V26.4408C143.028 26.8199 142.914 27.0711 142.465 27.0711C142.016 27.0711 141.902 26.8199 141.902 26.4408V24.2702H141.846L141.094 26.455C140.966 26.8104 140.867 27.0853 140.437 27.0853C140.006 27.0853 139.902 26.8199 139.779 26.455L139.009 24.2702V26.455C139.009 26.8341 138.895 27.0853 138.446 27.0853C137.997 27.0853 137.883 26.8341 137.883 26.455V23.3365Z" fill="#0055B8"/>
</svg>
