<svg width="144" height="40" viewBox="0 0 144 40" fill="none" xmlns="http://www.w3.org/2000/svg">
<path fill-rule="evenodd" clip-rule="evenodd" d="M51.4291 12.3332C51.4291 19.1418 45.887 24.6653 39.0484 24.6653C32.2183 24.6653 26.6719 19.1418 26.6719 12.3332C26.6719 5.52213 32.2183 0 39.0484 0C45.887 0 51.4291 5.52213 51.4291 12.3332Z" fill="#F6BA3B"/>
<path fill-rule="evenodd" clip-rule="evenodd" d="M36.2458 8.31429C36.2458 9.38808 35.3741 10.264 34.2923 10.264C33.2126 10.264 32.3369 9.38808 32.3369 8.31429C32.3369 7.23995 33.2126 6.37002 34.2923 6.37002C35.3741 6.37002 36.2458 7.23995 36.2458 8.31429Z" fill="#FEFEFE"/>
<path fill-rule="evenodd" clip-rule="evenodd" d="M45.1296 8.31651C45.1296 9.39152 44.2575 10.264 43.1796 10.264C42.0956 10.2684 41.2207 9.39152 41.2207 8.31651C41.2207 7.24095 42.0956 6.37002 43.1796 6.37002C44.2575 6.37002 45.1296 7.24095 45.1296 8.31651Z" fill="#FEFEFE"/>
<path fill-rule="evenodd" clip-rule="evenodd" d="M38.9081 21.5921C43.4207 21.5921 47.1237 18.1601 47.6152 13.7478C47.6336 13.5246 47.5351 13.0961 47.0502 13.0961C46.5746 13.0961 46.5083 13.5433 46.4512 13.7478C45.6285 17.0501 42.5373 19.6317 38.9081 19.6317C35.2828 19.6317 32.1932 17.0501 31.3692 13.7478C31.3075 13.5433 31.2463 13.0961 30.77 13.0961C30.2874 13.0961 30.1878 13.5246 30.2074 13.7478C30.6975 18.1601 34.4027 21.5921 38.9081 21.5921Z" fill="#FEFEFE"/>
<path fill-rule="evenodd" clip-rule="evenodd" d="M51.975 11.2912H51.2234C50.3102 11.2912 49.75 10.7113 49.75 9.77314C49.75 8.9001 50.3824 8.24959 51.2234 8.24959H51.975V6.17383C51.975 5.01691 52.6759 4.24609 53.6573 4.24609C54.6438 4.24609 55.3481 5.01691 55.3481 6.17383V8.24959H56.3072C57.1761 8.24959 57.9231 8.6623 57.9231 9.77314C57.9231 10.8585 57.1761 11.2912 56.3072 11.2912H55.3481V19.3038C55.3481 20.4628 54.6438 21.238 53.6573 21.238C52.6759 21.238 51.975 20.4628 51.975 19.3038V11.2912Z" fill="#0055B7"/>
<path fill-rule="evenodd" clip-rule="evenodd" d="M59.3438 4.40799C59.3438 3.24702 60.0651 2.47607 61.0723 2.47607C62.0775 2.47607 62.7963 3.24702 62.7963 4.40799V9.14434H62.8462C63.5669 8.25176 64.9101 7.93735 65.9914 7.93735C68.7018 7.93735 70.715 9.68015 70.715 12.6249V19.3003C70.715 20.4614 69.9948 21.238 68.9897 21.238C67.9795 21.238 67.2575 20.4614 67.2575 19.3003V13.2298C67.2575 11.6111 66.2534 10.8397 65.006 10.8397C63.5911 10.8397 62.7963 11.8795 62.7963 13.2298V19.3003C62.7963 20.4614 62.0775 21.238 61.0723 21.238C60.0651 21.238 59.3438 20.4614 59.3438 19.3003V4.40799Z" fill="#0055B7"/>
<path fill-rule="evenodd" clip-rule="evenodd" d="M80.7564 13.2057C80.5639 11.7192 79.599 10.6124 77.9901 10.6124C76.4505 10.6124 75.4173 11.7688 75.2466 13.2057H80.7564ZM75.3207 15.4644C75.5575 17.1379 76.979 17.9127 78.5894 17.9127C80.3725 17.9127 81.5987 16.5455 82.5087 16.5455C83.2602 16.5455 83.9313 17.2775 83.9313 18.0073C83.9313 19.4657 80.8512 20.884 78.2806 20.884C74.3845 20.884 71.7812 18.1021 71.7812 14.356C71.7812 10.916 74.3325 7.78603 77.9905 7.78603C81.7384 7.78603 84.2185 11.1318 84.2185 13.9537C84.2185 14.9697 83.7603 15.4644 82.7022 15.4644H75.3207Z" fill="#0055B7"/>
<path fill-rule="evenodd" clip-rule="evenodd" d="M0 25.1241C0 23.9293 0.588826 23.0504 1.84159 23.0504H7.70121C8.83062 23.0504 9.37531 23.8614 9.37531 24.6927C9.37531 25.5059 8.80882 26.337 7.70121 26.337H3.54365V29.8108H7.41447C8.57458 29.8108 9.13832 30.6217 9.13832 31.4549C9.13832 32.2654 8.5473 33.0969 7.41447 33.0969H3.54365V36.7156H7.91064C9.04581 36.7156 9.58926 37.5232 9.58926 38.3562C9.58926 39.1648 9.01935 39.9999 7.91064 39.9999H1.81651C0.778934 39.9999 0 39.2859 0 38.2192V25.1241Z" fill="#0055B7"/>
<path fill-rule="evenodd" clip-rule="evenodd" d="M11.123 24.5536C11.123 23.3581 11.8969 22.6899 12.9412 22.6899C13.401 22.6899 14.1584 23.0457 14.4706 23.4766L22.1607 33.5929H22.2116V24.5536C22.2116 23.3581 22.9865 22.6899 24.03 22.6899C25.0712 22.6899 25.8484 23.3581 25.8484 24.5536V38.1364C25.8484 39.3308 25.0712 40 24.03 40C23.5682 40 22.8449 39.6412 22.5012 39.2095L14.8088 29.2151H14.7609V38.1364C14.7609 39.3308 13.9824 40 12.9412 40C11.8969 40 11.123 39.3308 11.123 38.1364V24.5536Z" fill="#0055B7"/>
<path fill-rule="evenodd" clip-rule="evenodd" d="M31.2616 26.3065H28.6857C27.5497 26.3065 27.0781 25.4775 27.0781 24.672C27.0781 23.8486 27.6701 23.0439 28.6857 23.0439H37.3899C38.4108 23.0439 39.0012 23.8486 39.0012 24.672C39.0012 25.4775 38.5255 26.3065 37.3899 26.3065H34.8111V38.1596C34.8111 39.3391 34.059 40 33.0406 40C32.022 40 31.2616 39.3391 31.2616 38.1596V26.3065Z" fill="#0055B7"/>
<path fill-rule="evenodd" clip-rule="evenodd" d="M40.2344 25.1241C40.2344 23.9293 40.8387 23.0504 42.1183 23.0504H48.1072C49.2639 23.0504 49.8208 23.8614 49.8208 24.6927C49.8208 25.5059 49.2419 26.337 48.1072 26.337H43.856V29.8108H47.814C49.001 29.8108 49.5799 30.6217 49.5799 31.4549C49.5799 32.2654 48.9755 33.0969 47.814 33.0969H43.856V36.7156H48.3236C49.4824 36.7156 50.0378 37.5232 50.0378 38.3562C50.0378 39.1648 49.4572 39.9999 48.3236 39.9999H42.0933C41.032 39.9999 40.2344 39.2859 40.2344 38.2192V25.1241Z" fill="#0055B7"/>
<path fill-rule="evenodd" clip-rule="evenodd" d="M54.5405 30.4861H57.0197C58.3433 30.4861 59.2587 29.7059 59.2587 28.3837C59.2587 27.0384 58.3433 26.3065 57.0197 26.3065H54.5405V30.4861ZM50.9277 24.8883C50.9277 23.756 51.5799 23.0439 52.7848 23.0439H57.0199C60.7294 23.0439 63.0186 24.6743 63.0186 28.3837C63.0186 30.9804 61.0165 32.4676 58.5651 32.8466L62.6548 37.1449C62.992 37.498 63.1392 37.8512 63.1392 38.1844C63.1392 39.1034 62.3917 40 61.3313 40C60.8977 40 60.3179 39.8373 59.9333 39.3889L54.5879 33.0334H54.5407V38.1596C54.5407 39.3391 53.7707 40 52.7337 40C51.6994 40 50.9277 39.3391 50.9277 38.1596V24.8883Z" fill="#0055B7"/>
<path fill-rule="evenodd" clip-rule="evenodd" d="M67.9252 26.3065H65.3413C64.2085 26.3065 63.7344 25.4775 63.7344 24.672C63.7344 23.8486 64.329 23.0439 65.3413 23.0439H74.0507C75.0702 23.0439 75.6579 23.8486 75.6579 24.672C75.6579 25.4775 75.1845 26.3065 74.0507 26.3065H71.4727V38.1596C71.4727 39.3391 70.7183 40 69.698 40C68.6795 40 67.9252 39.3391 67.9252 38.1596V26.3065Z" fill="#0055B7"/>
<path fill-rule="evenodd" clip-rule="evenodd" d="M78.5489 33.256H83.185L80.9157 26.3617H80.865L78.5489 33.256ZM78.2789 24.6269C78.6932 23.5323 79.6469 22.6539 80.8911 22.6539C82.1837 22.6539 83.0894 23.4865 83.5021 24.6269L88.2901 37.5528C88.4342 37.9334 88.4832 38.2666 88.4832 38.4329C88.4832 39.358 87.7053 39.9998 86.7977 39.9998C85.7719 39.9998 85.2632 39.4781 85.0164 38.7624L84.2869 36.53H77.4958L76.7696 38.7402C76.5208 39.4781 76.0074 39.9998 75.0086 39.9998C74.0323 39.9998 73.2031 39.2871 73.2031 38.3379C73.2031 37.9559 73.3214 37.6747 73.3737 37.5528L78.2789 24.6269Z" fill="#0055B7"/>
<path fill-rule="evenodd" clip-rule="evenodd" d="M89.2891 24.5536C89.2891 23.3581 90.0135 22.6899 90.9904 22.6899C91.9647 22.6899 92.6907 23.3581 92.6907 24.5536V38.1364C92.6907 39.3308 91.9647 40 90.9904 40C90.0135 40 89.2891 39.3308 89.2891 38.1364V24.5536Z" fill="#0055B7"/>
<path fill-rule="evenodd" clip-rule="evenodd" d="M94.5566 24.5536C94.5566 23.3581 95.3377 22.6899 96.3934 22.6899C96.8555 22.6899 97.6168 23.0457 97.9365 23.4766L105.699 33.5929H105.75V24.5536C105.75 23.3581 106.533 22.6899 107.586 22.6899C108.639 22.6899 109.425 23.3581 109.425 24.5536V38.1364C109.425 39.3308 108.639 40 107.586 40C107.121 40 106.386 39.6412 106.046 39.2095L98.2777 29.2151H98.2286V38.1364C98.2286 39.3308 97.4462 40 96.3934 40C95.3377 40 94.5566 39.3308 94.5566 38.1364V24.5536Z" fill="#0055B7"/>
<path fill-rule="evenodd" clip-rule="evenodd" d="M110.258 25.1241C110.258 23.9293 110.862 23.0504 112.139 23.0504H118.13C119.285 23.0504 119.843 23.8614 119.843 24.6927C119.843 25.5059 119.263 26.337 118.13 26.337H113.881V29.8108H117.835C119.021 29.8108 119.604 30.6217 119.604 31.4549C119.604 32.2654 118.997 33.0969 117.835 33.0969H113.881V36.7156H118.345C119.505 36.7156 120.06 37.5232 120.06 38.3562C120.06 39.1648 119.482 39.9999 118.345 39.9999H112.118C111.054 39.9999 110.258 39.2859 110.258 38.2192V25.1241Z" fill="#0055B7"/>
<path fill-rule="evenodd" clip-rule="evenodd" d="M125.259 30.4861H127.74C129.066 30.4861 129.977 29.7059 129.977 28.3837C129.977 27.0384 129.066 26.3065 127.74 26.3065H125.259V30.4861ZM121.646 24.8883C121.646 23.756 122.298 23.0439 123.501 23.0439H127.74C131.444 23.0439 133.734 24.6743 133.734 28.3837C133.734 30.9804 131.738 32.4676 129.283 32.8466L133.376 37.1449C133.712 37.5005 133.856 37.8512 133.856 38.1844C133.856 39.1034 133.112 40 132.05 40C131.614 40 131.035 39.8373 130.652 39.3889L125.31 33.0334H125.259V38.1596C125.259 39.3391 124.49 40 123.451 40C122.418 40 121.646 39.3391 121.646 38.1596V24.8883Z" fill="#0055B7"/>
<path fill-rule="evenodd" clip-rule="evenodd" d="M138.072 23.4253C138.072 23.069 138.288 22.7774 138.945 22.7774C139.328 22.7774 139.605 22.8374 139.863 23.4253L140.595 25.3357L141.328 23.4253C141.584 22.8374 141.86 22.7774 142.243 22.7774C142.903 22.7774 143.118 23.069 143.118 23.4253V26.5325C143.118 26.911 143.006 27.162 142.562 27.162C142.119 27.162 142.006 26.911 142.006 26.5325V24.348H141.984L141.244 26.5325C141.119 26.8877 141.017 27.162 140.595 27.162C140.174 27.162 140.068 26.8993 139.945 26.5325L139.202 24.348H139.183V26.5325C139.183 26.911 139.071 27.162 138.627 27.162C138.185 27.162 138.072 26.911 138.072 26.5325V23.4253ZM134.958 23.7845H134.143C133.877 23.7845 133.68 23.6262 133.68 23.31C133.68 22.9941 133.877 22.8375 134.143 22.8375H137.01C137.278 22.8375 137.471 22.9941 137.471 23.31C137.471 23.6262 137.278 23.7845 137.01 23.7845H136.197V26.5326C136.197 26.9111 135.957 27.1621 135.574 27.1621C135.194 27.1621 134.958 26.9111 134.958 26.5326V23.7845Z" fill="#0055B7"/>
</svg>
