<svg xmlns="http://www.w3.org/2000/svg" xmlns:xlink="http://www.w3.org/1999/xlink" width="394" height="33" viewBox="0 0 394 33">
  <defs>
    <clipPath id="clip-maps_sprites">
      <rect width="394" height="33"/>
    </clipPath>
  </defs>
  <g id="maps_sprites" clip-path="url(#clip-maps_sprites)">
    <g id="bahrain" transform="translate(6.997 6)">
      <path id="Path_1" data-name="Path 1" d="M10,0H9.99V19.986H10A9.993,9.993,0,0,0,10,0Z" fill="#cd2029"/>
      <path id="Path_2" data-name="Path 2" d="M9.99,0A10.01,10.01,0,0,0,7.684.27c.859.338,2.2.845,2.314.888v.006L7.02,2.224,10,3.381v.006L7.02,4.446,10,5.605v.006L7.02,6.671,10,7.829v.006L7.02,8.9,10,10.052v.006L7.02,11.117,10,12.276v.006l-2.98,1.06L10,14.5v.006l-2.98,1.06L10,16.657v0L7.02,17.788,10,18.947v.006q-1.111.375-2.208.788a10.02,10.02,0,0,0,2.2.246c5.52,0,5.52-19.987,0-19.987Z" fill="#da1e34"/>
      <path id="Path_3" data-name="Path 3" d="M10.005,18.934l-2.98-1.159,2.98-1.125v-.006l-2.98-1.092,2.98-1.06v-.006l-2.98-1.158,2.98-1.059v-.006L7.025,11.1l2.98-1.059v-.006L7.025,8.881l2.98-1.06V7.816L7.025,6.657,10.005,5.6V5.592L7.025,4.434l2.98-1.06v0L7.025,2.21l2.98-1.059V1.145C9.89,1.1,8.549.6,7.69.257A9.992,9.992,0,0,0,7.8,19.727q1.1-.413,2.207-.787v-.006Z" fill="#efefef"/>
    </g>
    <g id="cyprus" transform="translate(37 6)">
      <circle id="Ellipse_1" data-name="Ellipse 1" cx="10" cy="10" r="10" fill="#f0f0f0"/>
      <path id="Path_4" data-name="Path 4" d="M15.652,8.7h-1.3a4.348,4.348,0,1,1-8.7,0h-1.3a5.655,5.655,0,0,0,4.108,5.439,1.451,1.451,0,0,0,.151,1.579l1.422-1.14,1.421,1.14a1.447,1.447,0,0,0,.144-1.594A5.654,5.654,0,0,0,15.652,8.7Z" fill="#6da544"/>
      <path id="Path_5" data-name="Path 5" d="M6.522,8.26A2.13,2.13,0,0,0,8.7,10.435l.434.435H10s.435-1.305,1.3-1.305a.852.852,0,0,1,.87-.87h1.3s-.435-1.739,1.74-3.043l-.87-.435S11.3,7.391,9.13,6.957v.87H8.26l-.434-.436-1.3.87Z" fill="#ffda44"/>
    </g>
    <g id="hong-kong" transform="translate(67 6)">
      <circle id="Ellipse_2" data-name="Ellipse 2" cx="10" cy="10" r="10" fill="#d80027"/>
      <g id="Group_1" data-name="Group 1">
        <path id="Path_6" data-name="Path 6" d="M11.032,7.565c-.227.945-.63.765-.829,1.59a2.174,2.174,0,0,1,1.016-4.228c-.4,1.649.017,1.793-.187,2.638ZM8,8.266c.83.508.533.836,1.256,1.28A2.174,2.174,0,0,1,5.552,7.273C7,8.159,7.262,7.811,8,8.266Zm-.269,3.1c.739-.631.96-.248,1.605-.8a2.174,2.174,0,1,1-3.307,2.822c1.29-1.1,1.04-1.46,1.7-2.024ZM10.6,12.577c-.372-.9.06-.99-.264-1.773A2.174,2.174,0,1,1,12,14.821c-.648-1.567-1.067-1.44-1.4-2.244Zm2.039-2.347c-.97.076-.923-.364-1.768-.3a2.174,2.174,0,1,1,4.334-.34C13.511,9.725,13.5,10.162,12.635,10.23Z" fill="#f0f0f0"/>
      </g>
    </g>
    <g id="indonesia" transform="translate(97 6)">
      <path id="Path_7" data-name="Path 7" d="M13.183,9.993h5.984A9.762,9.762,0,0,0,9.65,0C12.278,0,13.183,5,13.183,9.993Z" fill="#bb2029"/>
      <path id="Path_8" data-name="Path 8" d="M0,9.993H13.46C13.46,5,12.144,0,9.516,0A9.764,9.764,0,0,0,0,9.993Z" fill="#cd2029"/>
      <path id="Path_9" data-name="Path 9" d="M12.983,9.993c0,5-.7,9.993-3.333,9.993a9.764,9.764,0,0,0,9.517-9.993Z" fill="#e4e4e4"/>
      <path id="Path_10" data-name="Path 10" d="M13.46,9.993H0a9.763,9.763,0,0,0,9.517,9.993c2.628,0,3.942-5,3.942-9.993Z" fill="#f3f4f5"/>
    </g>
    <g id="kuwait" transform="translate(126 6.001)">
      <circle id="Ellipse_3" data-name="Ellipse 3" cx="9.993" cy="9.993" r="9.993" transform="translate(0.001 0.001)" fill="#fff"/>
      <path id="Path_11" data-name="Path 11" d="M19.415,6.661H13.258a27.63,27.63,0,0,1,0,6.625h6.166a10.018,10.018,0,0,0-.013-6.625Z" fill="#e4e4e4"/>
      <path id="Path_12" data-name="Path 12" d="M13.258,6.661h6.157A10,10,0,0,0,10.891.041c1.53.839,1.976,3.5,2.367,6.62Z" fill="#258f44"/>
      <path id="Path_13" data-name="Path 13" d="M10.89,19.945a10,10,0,0,0,8.53-6.63l.009-.03H13.264c-.388,3.143-.837,5.818-2.373,6.66Z" fill="#d32027"/>
      <path id="Path_14" data-name="Path 14" d="M13.773,6.661H7.994v6.625h5.784a27.652,27.652,0,0,0-.005-6.625Z" fill="#efefef"/>
      <path id="Path_15" data-name="Path 15" d="M7.994,6.661h5.779C13.382,3.536,12.42.88,10.89.041A9.947,9.947,0,0,0,3.444,2.448l4.55,4.17v.043Z" fill="#359846"/>
      <path id="Path_16" data-name="Path 16" d="M7.994,13.3,3.4,17.5a9.947,9.947,0,0,0,7.486,2.441c1.536-.842,2.5-3.517,2.887-6.66H7.994Z" fill="#db2727"/>
      <path id="Path_17" data-name="Path 17" d="M3.445,2.448A9.985,9.985,0,0,0,3.405,17.5l4.59-4.2V6.618l-4.55-4.17Z" fill="#151515"/>
    </g>
    <g id="malaysia" transform="translate(156 6)">
      <circle id="Ellipse_4" data-name="Ellipse 4" cx="9.524" cy="9.524" r="9.524" transform="translate(0 0)" fill="#f0f0f0"/>
      <g id="Group_2" data-name="Group 2">
        <path id="Path_18" data-name="Path 18" d="M9.11,9.524h9.938a9.562,9.562,0,0,0-.328-2.485H9.11Zm0-4.969h8.54a9.573,9.573,0,0,0-2.2-2.485H9.11Zm.414,14.493a9.483,9.483,0,0,0,5.928-2.07H3.6a9.483,9.483,0,0,0,5.929,2.07ZM1.4,14.493H17.65a9.468,9.468,0,0,0,1.07-2.485H.328A9.484,9.484,0,0,0,1.4,14.493Z" fill="#d80027"/>
      </g>
      <path id="Path_19" data-name="Path 19" d="M9.524,9.524V0A9.524,9.524,0,0,0,0,9.524Z" fill="#0052b4"/>
      <g id="Group_3" data-name="Group 3">
        <path id="Path_20" data-name="Path 20" d="M6.333,8.152a2.355,2.355,0,1,1,1.12-4.427,2.9,2.9,0,1,0,0,4.144A2.347,2.347,0,0,1,6.333,8.152Z" fill="#ffda44"/>
        <path id="Path_21" data-name="Path 21" d="M7,4.14l.418.875L8.359,4.8l-.423.872.76.6-.946.213,0,.97L7,6.847l-.756.606,0-.969L5.3,6.271l.76-.6L5.634,4.8l.945.218Z" fill="#ffda44"/>
      </g>
    </g>
    <g id="malta" transform="translate(185 6)">
      <circle id="Ellipse_5" data-name="Ellipse 5" cx="10" cy="10" r="10" fill="#f0f0f0"/>
      <path id="Path_22" data-name="Path 22" d="M10,0a10,10,0,0,1,0,20" fill="#d80027"/>
      <path id="Path_23" data-name="Path 23" d="M6.957,3.913v-1.3h-1.3v1.3h-1.3v1.3h1.3v1.3h1.3v-1.3h1.3v-1.3Z" fill="#acabb1"/>
    </g>
    <g id="oman" transform="translate(215 6)">
      <circle id="Ellipse_6" data-name="Ellipse 6" cx="10" cy="10" r="10" fill="#f0f0f0"/>
      <g id="Group_4" data-name="Group 4">
        <path id="Path_24" data-name="Path 24" d="M0,10a10,10,0,0,0,5.217,8.784V1.216A10,10,0,0,0,0,10Z" fill="#d80027"/>
        <path id="Path_25" data-name="Path 25" d="M19.378,13.478a10.035,10.035,0,0,0,0-6.956H.622a10.035,10.035,0,0,0,0,6.956l9.378.87Z" fill="#d80027"/>
      </g>
      <path id="Path_26" data-name="Path 26" d="M10,20a10,10,0,0,0,9.378-6.522H.622A10,10,0,0,0,10,20Z" fill="#6da544"/>
      <path id="Path_27" data-name="Path 27" d="M0,10a10.005,10.005,0,0,0,7.391,9.656V.344A10.005,10.005,0,0,0,0,10Z" fill="#d80027"/>
      <path id="Path_28" data-name="Path 28" d="M6.118,4.4,5.2,3.478l-.615.615-.615-.615L3.044,4.4l.614.614-.615.615.923.923.615-.615.615.615.922-.923L5.5,5.015Z" fill="#f0f0f0"/>
    </g>
    <g id="qatar" transform="translate(245 6)">
      <path id="Path_29" data-name="Path 29" d="M10,18.947,7.022,17.789,10,16.663v-.006l-2.98-1.092L10,14.505V14.5l-2.98-1.159L10,12.282v-.006l-2.98-1.158L10,10.058v-.005L7.022,8.894,10,7.834v0L7.022,6.672,10,5.612V5.606L7.022,4.448,10,3.388V3.383L7.022,2.224,10,1.164v0C9.885,1.115,8.545.608,7.686.27a9.992,9.992,0,0,0,.108,19.47q1.1-.413,2.207-.787v-.006Z" fill="#e1e1e1"/>
      <path id="Path_30" data-name="Path 30" d="M10,0H9.993V19.987H10A9.994,9.994,0,0,0,10,0Z" fill="#70193c"/>
      <path id="Path_31" data-name="Path 31" d="M9.993,0A10.023,10.023,0,0,0,7.687.27c.859.338,2.2.845,2.314.888v.006L7.022,2.224,10,3.382v.006L7.022,4.447,10,5.605v.006l-2.98,1.06L10,7.829v.006L7.022,8.894,10,10.052v.007l-2.98,1.059L10,12.276v.006l-2.98,1.06L10,14.5v.006l-2.98,1.059L10,16.657v.006l-2.98,1.126L10,18.947v.006q-1.111.374-2.208.787a9.962,9.962,0,0,0,2.2.246c5.518,0,5.518-19.986,0-19.986Z" fill="#7d224b"/>
    </g>
    <g id="saudi-arabia" transform="translate(275 6)">
      <circle id="Ellipse_7" data-name="Ellipse 7" cx="10" cy="10" r="10" fill="#73af00"/>
      <g id="Group_5" data-name="Group 5">
        <path id="Path_32" data-name="Path 32" d="M3,7.49c.04.26.2.341.335.33a.336.336,0,0,0,.3-.315V6.613a.081.081,0,0,1,.162,0v.9a.324.324,0,0,0,.445.3l.081-.032c.008.749-.038,1.407-.038,1.42a.162.162,0,0,0,.323.023c0-.053.054-.774.04-1.573l.048-.02a.163.163,0,0,1,.133.006.461.461,0,0,0,.535-.087l.03-.029a.484.484,0,0,0,.117-.5L5.376,6.6a.162.162,0,0,0,.12-.3l-.324-.162a.162.162,0,0,0-.226.2l.26.784a.162.162,0,0,1-.038.166l-.03.029a.14.14,0,0,1-.16.026A.485.485,0,0,0,4.64,7.31a5.538,5.538,0,0,0-.2-1.4.162.162,0,1,0-.308.1A5.566,5.566,0,0,1,4.32,7.431l-.194.078v-.9a.406.406,0,0,0-.812,0V7.4L3.15,6.58a.162.162,0,1,0-.318.064L3,7.49Zm.313-1.364a.162.162,0,0,0,.162-.162V5.8a.163.163,0,0,0-.325,0v.163a.162.162,0,0,0,.163.162Zm1.622-.163H5.1a.162.162,0,1,0,0-.324H4.937a.162.162,0,0,0,0,.324Z" fill="#f5f5f5"/>
        <path id="Path_33" data-name="Path 33" d="M3.88,8.1l-.811.487a.162.162,0,0,0,.167.278l.811-.487A.162.162,0,0,0,3.88,8.1Z" fill="#f5f5f5"/>
        <path id="Path_34" data-name="Path 34" d="M6.068,8.383l0,0a.37.37,0,0,0,.075.152.319.319,0,0,0,.276.108.448.448,0,0,0,.338-.178.307.307,0,0,0,.32.011.614.614,0,0,0,.29-.571A.165.165,0,0,0,7.2,7.749a.163.163,0,0,0-.155.169s0,.194-.114.266a.4.4,0,0,1-.05-.137.163.163,0,0,0-.323.027c0,.023-.005.232-.166.249a.378.378,0,0,1,0-.212.162.162,0,0,0-.25-.172L6.054,8c-.044-.942-.143-2.038-.144-2.052a.162.162,0,1,0-.323.03c0,.014.116,1.283.151,2.252l-.025.024a.418.418,0,0,0-.355-.28.592.592,0,0,0-.571.362.381.381,0,0,0,.124.484.539.539,0,0,0,.484.023,1.368,1.368,0,0,1-.264.5.682.682,0,0,1-.519.264A.426.426,0,0,1,4.3,9.473a.919.919,0,0,1-.171-.58.162.162,0,0,0-.154-.171.157.157,0,0,0-.17.153,1.239,1.239,0,0,0,.254.815.744.744,0,0,0,.576.242.988.988,0,0,0,.745-.378,1.68,1.68,0,0,0,.371-.831A1.84,1.84,0,0,1,4.97,10.18a.813.813,0,0,1-.813.06A.7.7,0,0,1,3.8,9.553a.162.162,0,1,0-.322-.04,1.017,1.017,0,0,0,.535,1.017,1.111,1.111,0,0,0,.492.117,1.2,1.2,0,0,0,.636-.192,2.157,2.157,0,0,0,.932-1.734c0-.1,0-.219-.005-.339Zm-.979.168c-.029-.02-.006-.081,0-.093a.276.276,0,0,1,.226-.16h.014c.02,0,.075.008.1.13q0,.02.006.04C5.253,8.575,5.131,8.578,5.089,8.551ZM3.4,10.043a.163.163,0,0,0-.221.058.339.339,0,0,1-.028.038l-.005-.013a1.078,1.078,0,0,1,.005-.55.163.163,0,0,0-.314-.084,1.4,1.4,0,0,0,0,.748c.075.2.189.248.272.255h.022a.429.429,0,0,0,.323-.23.162.162,0,0,0-.059-.222Z" fill="#f5f5f5"/>
        <path id="Path_35" data-name="Path 35" d="M6.391,7.1a.164.164,0,0,0,.1-.035l.818-.643a.114.114,0,0,0,.027-.031.4.4,0,0,0-.208-.752.4.4,0,1,0-.258.716l-.58.455a.162.162,0,0,0,.1.29Zm.737-1.137a.082.082,0,1,1-.081.082.082.082,0,0,1,.081-.082Zm-.192.983a.162.162,0,0,0-.2.1.5.5,0,0,0,.063.479.327.327,0,0,0,.242.092.713.713,0,0,0,.224-.041.162.162,0,1,0-.1-.308.546.546,0,0,1-.133.028.31.31,0,0,1,.014-.148.162.162,0,0,0-.1-.2Zm1.857-.671a.162.162,0,0,0,.2-.11l.1-.325a.162.162,0,1,0-.311-.091l-.1.324a.162.162,0,0,0,.11.2Zm-.946-.019a.162.162,0,1,0,.164-.28c-.033-.02-.028-.073-.027-.084a.127.127,0,0,1,.075-.108.162.162,0,0,0-.1-.31.443.443,0,0,0-.3.381.4.4,0,0,0,.185.4ZM6.56,8.884a.162.162,0,0,0-.03.322.316.316,0,0,1,.03.165.162.162,0,0,0,.325,0c0-.481-.312-.487-.325-.487Zm2.753-.671a.408.408,0,0,0,.061,0,.556.556,0,0,0,.384-.191.163.163,0,0,0-.23-.23c-.1.1-.149.1-.162.1-.031,0-.06-.045-.065-.056a.163.163,0,1,0-.29.147.442.442,0,0,0,.3.23Zm2.758-1.141,0-.007a.163.163,0,0,0-.308.1.364.364,0,0,0,.264.253l.036,0a.4.4,0,0,0,.314-.216.162.162,0,0,0-.27-.18.5.5,0,0,1-.034.044Z" fill="#f5f5f5"/>
        <path id="Path_36" data-name="Path 36" d="M11.753,10.02c0-.692-.03-1.34-.073-1.91a8.3,8.3,0,0,1,.57,1.156.162.162,0,0,0,.3-.114,10.7,10.7,0,0,0-.939-1.779q-.07-.723-.19-1.439a.163.163,0,1,0-.32.058c0,.008.054.293.115.774q-.166-.246-.338-.489l.008,0a.162.162,0,1,0,.1-.308l-.487-.162a.161.161,0,0,0-.207.108.352.352,0,0,0-.338-.081.276.276,0,0,0-.155.289,1.49,1.49,0,0,0,.111.46c.1.27.156.47.055.564a.179.179,0,0,1-.167.059c-.1-.026-.2-.159-.265-.357a.171.171,0,0,0-.013-.023,2.76,2.76,0,0,0-.05-.9A.162.162,0,0,0,9.159,6a1.54,1.54,0,0,1-.084,1.156.291.291,0,0,1-.243.11.093.093,0,0,1-.078-.036,1.568,1.568,0,0,1-.086-.915.162.162,0,0,0-.16-.185c-.28,0-.386.317-.48.6-.04.123-.117.352-.17.375-.1,0-.162-.288-.162-.487a.163.163,0,0,0-.325,0c0,.375.128.812.487.812.268,0,.376-.292.467-.563a1.014,1.014,0,0,0,.184.577.416.416,0,0,0,.323.148.617.617,0,0,0,.554-.318.605.605,0,0,0,.34.255.446.446,0,0,0,.114.015.515.515,0,0,0,.354-.151.473.473,0,0,0,.054-.066.416.416,0,0,0,.12.018.657.657,0,0,0,.336-.1.162.162,0,0,0-.174-.274.345.345,0,0,1-.184.049,1.68,1.68,0,0,0-.123-.534,2.242,2.242,0,0,1-.083-.27l.038.034a.162.162,0,0,0,.23,0,.2.2,0,0,0,.023-.036c.168.232.514.719.87,1.28.068.69.127,1.57.127,2.535a.162.162,0,1,0,.325,0Zm.162-3.57a.162.162,0,1,0,.325,0,1.665,1.665,0,0,0-.18-.56.163.163,0,0,0-.29.146A1.43,1.43,0,0,1,11.915,6.45Z" fill="#f5f5f5"/>
        <path id="Path_37" data-name="Path 37" d="M11.177,10.038a.162.162,0,0,0-.218.072.464.464,0,0,1-.067.1.906.906,0,0,1,.042-.3.162.162,0,0,0-.27-.163l-.324.325a.163.163,0,0,0,.23.23l.008-.009a.329.329,0,0,0,.086.17.3.3,0,0,0,.256.09.528.528,0,0,0,.329-.294.162.162,0,0,0-.072-.217Z" fill="#f5f5f5"/>
        <path id="Path_38" data-name="Path 38" d="M11.114,8.732H9.97c.01-.04.02-.079.031-.115.457-.1.728-.242.807-.439a.361.361,0,0,0-.06-.364.406.406,0,0,0-.41-.175c-.232.047-.437.3-.584.693a1.871,1.871,0,0,0-.937.4A2.5,2.5,0,0,0,8.48,7.659a.162.162,0,0,0-.27.18,2.339,2.339,0,0,1,.3,1.208,1.284,1.284,0,0,1-.973,1.3c-.182,0-.262-.217-.3-.4a1.865,1.865,0,0,0,.779-.859,1.294,1.294,0,0,0-.108-.88L7.9,8.178l.01.01a.163.163,0,0,0,.23-.23c-.1-.1-.28-.244-.447-.174a.279.279,0,0,0-.155.29.7.7,0,0,0,.075.26.985.985,0,0,1,.092.674,1.383,1.383,0,0,1-.531.585.16.16,0,0,0-.123-.06.162.162,0,0,0-.162.163c0,.03,0,.06,0,.092a8.615,8.615,0,0,1-1.044.572.162.162,0,0,0,.134.3,9.316,9.316,0,0,0,.97-.519.631.631,0,0,0,.586.534,1.379,1.379,0,0,0,1.085-.794,1.01,1.01,0,0,0,.109.155,1.827,1.827,0,0,0,1.24.476.162.162,0,1,0,.011-.324.347.347,0,0,1-.2-.1.281.281,0,0,1-.053-.213c.016-.2.662-.35,1.23-.359a.162.162,0,0,0,.15-.107l.163-.457a.162.162,0,0,0-.153-.217ZM10.4,7.957h.012c.015,0,.04.007.073.051.006.009.025.037.02.05-.018.045-.13.121-.364.19.1-.2.2-.279.259-.29Zm-.98,2.134a.993.993,0,0,1-.45-.273.694.694,0,0,1-.144-.572.481.481,0,0,1,.034-.069c.229-.02.84.07.881.244a.546.546,0,0,0-.343.424.687.687,0,0,0,.022.246ZM12.88,6.4l-.162-.487a.162.162,0,0,0-.315.068c.112,1.12.323,3.3.323,3.554,0,.224-.4.667-1.046.99a.162.162,0,0,0,.145.29c.59-.3,1.226-.821,1.226-1.28,0-.24-.166-1.965-.26-2.934a.162.162,0,0,0,.09-.2Zm1.355,1.464a.162.162,0,0,0,.272-.155.818.818,0,0,1-.024-.315.162.162,0,1,0,.031-.323.293.293,0,0,0-.267.09.372.372,0,0,0-.082.175l-.188-.188a.163.163,0,0,0-.23.23l.488.486Zm.365.17-.609.436a.162.162,0,0,0,.19.263l.608-.436a.162.162,0,1,0-.19-.263Zm-.054.61a.162.162,0,0,0,.014.215.46.46,0,0,1,.033.234.162.162,0,0,0,.324.011c.012-.33-.1-.452-.144-.489a.162.162,0,0,0-.227.029Z" fill="#f5f5f5"/>
        <path id="Path_39" data-name="Path 39" d="M15.962,9.838a.162.162,0,0,0,.162-.162c0-.24-.012-.507-.032-.785a6.114,6.114,0,0,1,.38.706.162.162,0,1,0,.3-.127,8.869,8.869,0,0,0-.742-1.28q-.088-.8-.212-1.6a.16.16,0,0,0,.173-.172.16.16,0,0,0,.019.046.59.59,0,0,1,.059.4.162.162,0,0,0,.318.065.92.92,0,0,0-.1-.637.16.16,0,1,0-.3.1.159.159,0,0,0-.017-.047l-.274-.426a.163.163,0,0,0-.3.116c0,.013.127.725.237,1.583q-.183-.257-.37-.511l-.056-.66a.162.162,0,0,0,.1-.228l-.162-.325a.162.162,0,0,0-.307.089c.02.193.04.408.06.633q-.139-.183-.28-.364a.162.162,0,0,0-.033-.268l-.324-.163a.163.163,0,0,0-.2.247c.01.01.409.512.887,1.158a13.121,13.121,0,0,1,.06,2.421c-.015.043-.04.094-.063.1-.1.014-.332-.2-.45-.44a.223.223,0,0,0-.217-.147c-.174.01-.242.2-.366.55a2.282,2.282,0,0,1-.323.687,1.833,1.833,0,0,1-.2-.638A.161.161,0,0,0,13.7,9.7c0-.242-.17-2.085-.264-3.1a.162.162,0,0,0,.094-.2l-.163-.487a.162.162,0,0,0-.315.067c.11,1.158.317,3.394.323,3.7V9.673a.162.162,0,1,0-.321.046c.047.332.168.9.447.995a.27.27,0,0,0,.087.014.319.319,0,0,0,.228-.106,2.353,2.353,0,0,0,.4-.81c.024-.068.052-.148.078-.216.15.218.41.488.672.467a.4.4,0,0,0,.348-.316,9.166,9.166,0,0,0-.006-2.026c.136.192.273.388.4.582.05.486.087.973.087,1.373a.161.161,0,0,0,.162.162Z" fill="#f5f5f5"/>
        <path id="Path_40" data-name="Path 40" d="M17.193,8.984q-.17-1.231-.376-2.457a.162.162,0,0,0,.167-.256l-.3-.386a.162.162,0,0,0-.289.127c0,.016.293,1.682.472,3.015a1.522,1.522,0,0,1-.268,1.218.718.718,0,0,1-.595.222.162.162,0,0,0-.02.324c.027,0,.054,0,.081,0a1.024,1.024,0,0,0,.772-.327,1.809,1.809,0,0,0,.351-1.482Zm-1.785,1.07a.164.164,0,0,0,.008.228.068.068,0,0,1,.02.034.083.083,0,0,1-.025.036.163.163,0,1,0,.23.23.368.368,0,0,0,.119-.277.386.386,0,0,0-.127-.265.16.16,0,0,0-.225.014Zm-.572,3.559H13.7V13.45a.162.162,0,0,0-.324,0v.163h-8.6a2.27,2.27,0,0,0,1.46.487h7.14v.324a.162.162,0,0,0,.163.162h1.3a.487.487,0,0,0,0-.973Zm0,.649H13.7V14.1H15l-.029-.088A.16.16,0,0,1,15,14.1a.162.162,0,0,1-.163.162Z" fill="#f5f5f5"/>
      </g>
    </g>
    <g id="singapore" transform="translate(305 6)">
      <circle id="Ellipse_8" data-name="Ellipse 8" cx="10" cy="10" r="10" fill="#f0f0f0"/>
      <path id="Path_41" data-name="Path 41" d="M0,10a10,10,0,0,1,20,0" fill="#d80027"/>
      <g id="Group_6" data-name="Group 6">
        <path id="Path_42" data-name="Path 42" d="M6.087,5.217A3.044,3.044,0,0,1,8.478,2.245a3.043,3.043,0,1,0,0,5.945A3.044,3.044,0,0,1,6.087,5.217ZM10,2.391l.216.665h.7l-.565.41.216.664L10,3.72l-.565.41.216-.664-.565-.41h.7Z" fill="#f0f0f0"/>
        <path id="Path_43" data-name="Path 43" d="M8.306,3.7l.215.664h.7l-.565.41.216.665-.565-.41-.565.41.215-.665-.565-.41h.7Zm3.388,0,.216.664h.7l-.565.41.215.665-.565-.41-.565.41.216-.665-.565-.41h.7Zm-.652,1.956.216.664h.7l-.566.411.216.664-.565-.41-.565.41.216-.664-.565-.41h.7Zm-2.084,0,.216.664h.7l-.565.411.216.664-.565-.41-.565.41.216-.664-.566-.41h.7Z" fill="#f0f0f0"/>
      </g>
    </g>
    <g id="south-africa" transform="translate(335 6)">
      <circle id="Ellipse_9" data-name="Ellipse 9" cx="10" cy="10" r="10" fill="#f0f0f0"/>
      <path id="Path_44" data-name="Path 44" d="M2.929,17.071a10,10,0,0,1,0-14.142L8.7,10Z"/>
      <path id="Path_45" data-name="Path 45" d="M8.7,10,1.326,5.02a10.068,10.068,0,0,0-.6,1.24L4.454,10,.724,13.74a9.989,9.989,0,0,0,.6,1.24Z" fill="#ffda44"/>
      <path id="Path_46" data-name="Path 46" d="M19.915,8.7H8.695L2.93,2.929a10.039,10.039,0,0,0-1.6,2.091L6.3,10l-4.97,4.98a9.991,9.991,0,0,0,1.6,2.09L8.695,11.3h11.22A10.1,10.1,0,0,0,19.915,8.7Z" fill="#6da544"/>
      <path id="Path_47" data-name="Path 47" d="M3.912,17.933a10,10,0,0,0,15.744-5.324H9.236L3.912,17.933Z" fill="#0052b4"/>
      <path id="Path_48" data-name="Path 48" d="M19.656,7.391A10,10,0,0,0,3.912,2.067L9.236,7.391Z" fill="#d80027"/>
    </g>
    <g id="united-arab-emirates" transform="translate(365 6)">
      <circle id="Ellipse_10" data-name="Ellipse 10" cx="9.993" cy="9.993" r="9.993" transform="translate(0.001 0.001)" fill="#fff"/>
      <path id="Path_49" data-name="Path 49" d="M19.415,6.661H13.258a27.63,27.63,0,0,1,0,6.625h6.165a10.01,10.01,0,0,0-.012-6.625Z" fill="#efecec"/>
      <path id="Path_50" data-name="Path 50" d="M13.258,6.661h6.157A10,10,0,0,0,10.89.041C12.42.879,12.867,3.536,13.258,6.661Z" fill="#429945"/>
      <path id="Path_51" data-name="Path 51" d="M10.89,19.945a10,10,0,0,0,8.53-6.631.115.115,0,0,1,.009-.028H13.264c-.389,3.142-.837,5.817-2.373,6.659Z" fill="#0b0b0b"/>
      <path id="Path_52" data-name="Path 52" d="M0,9.993a9.976,9.976,0,0,0,.558,3.293h13.22a27.652,27.652,0,0,0-.005-6.625H.57A9.973,9.973,0,0,0,0,9.993Z" fill="#efefef"/>
      <path id="Path_53" data-name="Path 53" d="M.574,6.653l0,.008h13.2C13.382,3.536,12.42.88,10.89.041Q10.443,0,9.993,0A9.995,9.995,0,0,0,.574,6.653Z" fill="#49a948"/>
      <path id="Path_54" data-name="Path 54" d="M13.778,13.286H.558l.01.028a9.994,9.994,0,0,0,9.425,6.672c.3,0,.6-.015.9-.041,1.536-.842,2.5-3.517,2.887-6.66Z" fill="#151515"/>
      <path id="Path_55" data-name="Path 55" d="M0,9.993a10,10,0,0,0,6.159,9.23V.763A9.995,9.995,0,0,0,0,9.994Z" fill="#e73b36"/>
    </g>
  </g>
</svg>
