<svg width="22" height="17" viewBox="0 0 22 17" fill="none" xmlns="http://www.w3.org/2000/svg">
<path fill-rule="evenodd" clip-rule="evenodd" d="M21.999 0.879314C21.999 0.393682 21.6053 0 21.1197 0H0.878338C0.392706 0 -0.000976562 0.393682 -0.000976562 0.879314C-0.000976562 1.36495 0.392706 1.75863 0.878338 1.75863H21.1197C21.6053 1.75863 21.999 1.36495 21.999 0.879314ZM21.999 16.1206C21.999 15.635 21.6053 15.2413 21.1197 15.2413H0.878338C0.392706 15.2413 -0.000976562 15.635 -0.000976562 16.1206C-0.000976562 16.6062 0.392706 16.9999 0.878338 16.9999H21.1197C21.6053 16.9999 21.999 16.6062 21.999 16.1206ZM17.1197 7.62115C17.6053 7.62115 17.999 8.01484 17.999 8.50047C17.999 8.9861 17.6053 9.37978 17.1197 9.37978H0.878338C0.392706 9.37978 -0.000976562 8.9861 -0.000976562 8.50047C-0.000976562 8.01484 0.392706 7.62115 0.878338 7.62115H17.1197Z" fill="#282828"/>
</svg>
