<svg width="56" height="56" viewBox="0 0 56 56" fill="none" xmlns="http://www.w3.org/2000/svg">
<g id="gift-card 1">
<path id="Vector" d="M53.8125 52.2455H2.1875C0.979344 52.2455 0 51.2661 0 50.058V19.5781C0 18.37 0.979344 17.3906 2.1875 17.3906H53.8125C55.0207 17.3906 56 18.37 56 19.5781V50.0579C56 51.266 55.0207 52.2455 53.8125 52.2455Z" fill="#F7E87C"/>
<path id="Vector_2" d="M53.8125 17.3906H16.8438V52.2454H53.8125C55.0207 52.2454 56 51.266 56 50.0579V19.5781C56 18.3701 55.0207 17.3906 53.8125 17.3906Z" fill="#FDB91F"/>
<g id="Group">
<path id="Vector_3" d="M38.3906 29.8945H30.1875C29.2814 29.8945 28.5469 29.16 28.5469 28.2539C28.5469 27.3478 29.2814 26.6133 30.1875 26.6133H38.3906C39.2967 26.6133 40.0312 27.3478 40.0312 28.2539C40.0312 29.16 39.2967 29.8945 38.3906 29.8945Z" fill="#FC8B28"/>
<path id="Vector_4" d="M44.9531 36.457H30.1875C29.2814 36.457 28.5469 35.7225 28.5469 34.8164C28.5469 33.9103 29.2814 33.1758 30.1875 33.1758H44.9531C45.8592 33.1758 46.5938 33.9103 46.5938 34.8164C46.5938 35.7225 45.8592 36.457 44.9531 36.457Z" fill="#FC8B28"/>
<path id="Vector_5" d="M44.9531 43.0195H30.1875C29.2814 43.0195 28.5469 42.285 28.5469 41.3789C28.5469 40.4728 29.2814 39.7383 30.1875 39.7383H44.9531C45.8592 39.7383 46.5938 40.4728 46.5938 41.3789C46.5938 42.285 45.8592 43.0195 44.9531 43.0195Z" fill="#FC8B28"/>
</g>
<path id="Vector_6" d="M16.8438 52.2447C15.9377 52.2447 15.2031 51.5101 15.2031 50.604V16.6992C15.2031 15.7932 15.9377 15.0586 16.8438 15.0586C17.7498 15.0586 18.4844 15.7932 18.4844 16.6992V50.604C18.4844 51.5101 17.7498 52.2447 16.8438 52.2447Z" fill="#FF5857"/>
<path id="Vector_7" d="M16.8438 15.0586V52.2447C17.7498 52.2447 18.4844 51.5101 18.4844 50.604V16.6992C18.4844 15.7932 17.7498 15.0586 16.8438 15.0586Z" fill="#FE1B5C"/>
<path id="Vector_8" d="M26.8516 3.75391C24.5097 3.75391 22.3664 4.92663 21.1005 6.89538L16.8438 12.3973L12.587 6.89548C11.3212 4.92673 9.17788 3.75391 6.83594 3.75391C3.06666 3.75391 0 6.82056 0 10.5898C0 14.3591 3.06666 17.4258 6.83594 17.4258C6.86109 17.4258 6.88614 17.4252 6.91337 17.4244L13.0892 17.4252L9.8455 22.1774C9.33472 22.9257 9.52722 23.9465 10.2757 24.4574C11.0241 24.9682 12.0448 24.7756 12.5557 24.0272L16.8805 17.6912L21.7985 24.513C22.1192 24.9578 22.6213 25.1943 23.1307 25.1943C23.4631 25.1943 23.7986 25.0936 24.0888 24.8844C24.8238 24.3545 24.99 23.3291 24.4602 22.5942L20.7337 17.4253L26.7734 17.4246C26.7994 17.4255 26.8254 17.426 26.8516 17.426C30.621 17.426 33.6875 14.3593 33.6875 10.5901C33.6875 6.82078 30.621 3.75391 26.8516 3.75391ZM6.89161 14.1432C6.8868 14.1432 6.88198 14.1432 6.87717 14.1432C6.85825 14.1433 6.83933 14.1439 6.81844 14.1445C4.86642 14.135 3.28125 12.5442 3.28125 10.5898C3.28125 8.62984 4.87594 7.03516 6.83594 7.03516C8.0687 7.03516 9.19603 7.661 9.85173 8.70914C9.88061 8.7553 9.91178 8.80003 9.94503 8.84302L14.0466 14.1441L6.89161 14.1432ZM26.8685 14.1445C26.8507 14.144 26.8329 14.1435 26.815 14.1433C26.8087 14.1433 26.8022 14.1432 26.7959 14.1432L19.6409 14.1442L23.7425 8.84302C23.7757 8.79992 23.8069 8.7553 23.8358 8.70914C24.4915 7.661 25.6189 7.03516 26.8516 7.03516C28.8117 7.03516 30.4062 8.62984 30.4062 10.5898C30.4062 12.5443 28.8209 14.1355 26.8685 14.1445Z" fill="#FE1B5C"/>
<path id="Vector_9" d="M26.8516 3.75391C24.5097 3.75391 22.3664 4.92662 21.1005 6.89537L16.8438 12.3973V17.7452L16.8805 17.6913L21.7985 24.5131C22.1192 24.9579 22.6213 25.1944 23.1307 25.1944C23.4631 25.1944 23.7986 25.0937 24.0888 24.8845C24.8238 24.3546 24.99 23.3292 24.4602 22.5943L20.7337 17.4255L26.7734 17.4247C26.7994 17.4256 26.8254 17.4261 26.8516 17.4261C30.621 17.4261 33.6875 14.3595 33.6875 10.5902C33.6875 6.82089 30.621 3.75391 26.8516 3.75391ZM26.8685 14.1445C26.8507 14.144 26.8329 14.1435 26.815 14.1433C26.8087 14.1433 26.8022 14.1432 26.7959 14.1432L19.6409 14.1442L23.7425 8.84301C23.7757 8.79992 23.8069 8.7553 23.8358 8.70914C24.4915 7.661 25.6189 7.03516 26.8516 7.03516C28.8117 7.03516 30.4062 8.62984 30.4062 10.5898C30.4062 12.5443 28.8209 14.1355 26.8685 14.1445Z" fill="#C40047"/>
</g>
</svg>
