<svg width="47" height="47" viewBox="0 0 47 47" fill="none" xmlns="http://www.w3.org/2000/svg">
<g id="smile 1" clip-path="url(#clip0_4608_145153)">
<g id="03-smile">
<path id="Vector" d="M23.4993 46.0221C35.9373 46.0221 46.0202 35.9392 46.0202 23.5013C46.0202 11.0634 35.9373 0.980469 23.4993 0.980469C11.0614 0.980469 0.978516 11.0634 0.978516 23.5013C0.978516 35.9392 11.0614 46.0221 23.4993 46.0221Z" fill="#FFD364"/>
<path id="Vector_2" d="M23.5007 38.1888C16.482 38.1888 10.7715 33.3566 10.7715 27.418H12.7298C12.7298 32.2766 17.562 36.2305 23.5007 36.2305C29.4393 36.2305 34.2715 32.2766 34.2715 27.418H36.2298C36.2298 33.3566 30.5193 38.1888 23.5007 38.1888Z" fill="#273941"/>
<path id="Vector_3" d="M19.5827 20.5625H17.6243C17.6243 18.4025 16.3064 16.6458 14.6868 16.6458C13.0673 16.6458 11.7493 18.4025 11.7493 20.5625H9.79102C9.79102 17.3224 11.9873 14.6875 14.6868 14.6875C17.3864 14.6875 19.5827 17.3224 19.5827 20.5625Z" fill="#273941"/>
<path id="Vector_4" d="M37.2077 20.5625H35.2493C35.2493 18.4025 33.9314 16.6458 32.3118 16.6458C30.6923 16.6458 29.3743 18.4025 29.3743 20.5625H27.416C27.416 17.3224 29.6123 14.6875 32.3118 14.6875C35.0114 14.6875 37.2077 17.3224 37.2077 20.5625Z" fill="#273941"/>
<path id="Vector_5" d="M23.5003 3.91769C35.3971 3.91769 45.0419 12.2475 45.0419 22.5219H45.9966C45.7267 16.737 43.2386 11.2785 39.0493 7.28006C34.86 3.28167 29.2914 1.05078 23.5003 1.05078C17.7091 1.05078 12.1405 3.28167 7.9512 7.28006C3.76188 11.2785 1.27385 16.737 1.00391 22.5219H1.95859C1.95859 12.2475 11.6034 3.91769 23.5003 3.91769Z" fill="#FFEB95"/>
<path id="Vector_6" d="M45.041 22.5195C45.041 32.7939 35.3962 41.1237 23.4993 41.1237C11.6025 41.1237 1.95768 32.7939 1.95768 22.5195H1.00299C0.989286 22.8446 0.978516 23.1707 0.978516 23.4987C0.978516 29.4716 3.35124 35.1999 7.57472 39.4233C11.7982 43.6468 17.5265 46.0195 23.4993 46.0195C29.4722 46.0195 35.2005 43.6468 39.424 39.4233C43.6475 35.1999 46.0202 29.4716 46.0202 23.4987C46.0202 23.1707 46.0094 22.8446 45.9957 22.5195H45.041Z" fill="#FFB839"/>
<path id="Vector_7" d="M37.0261 9.62005C37.3416 9.30458 37.2415 8.69297 36.8025 8.25399C36.3635 7.81501 35.7519 7.71488 35.4364 8.03035C35.121 8.34582 35.2211 8.95743 35.6601 9.39641C36.0991 9.83539 36.7107 9.93552 37.0261 9.62005Z" fill="#F6FAFD"/>
<path id="Vector_8" d="M30.5046 4.81358C30.6626 4.65566 30.6126 4.3497 30.3932 4.13021C30.1737 3.91072 29.8677 3.86081 29.7098 4.01874C29.5519 4.17666 29.6018 4.48262 29.8213 4.70211C30.0407 4.9216 30.3467 4.97151 30.5046 4.81358Z" fill="#F6FAFD"/>
<path id="Vector_9" d="M34.8837 8.45632C35.5147 7.82538 35.3141 6.60186 34.4358 5.72351C33.5574 4.84517 32.3339 4.64461 31.703 5.27555C31.072 5.90649 31.2726 7.13001 32.1509 8.00835C33.0293 8.8867 34.2528 9.08726 34.8837 8.45632Z" fill="#F6FAFD"/>
<g id="Group">
<path id="Vector_10" d="M23.5 47C18.8521 47 14.3087 45.6218 10.4441 43.0395C6.57955 40.4573 3.5675 36.7871 1.78884 32.4931C0.0101822 28.199 -0.455196 23.4739 0.451556 18.9154C1.35831 14.3568 3.59647 10.1695 6.883 6.883C10.1695 3.59647 14.3568 1.35831 18.9154 0.451556C23.4739 -0.455196 28.199 0.0101822 32.4931 1.78884C36.7871 3.5675 40.4573 6.57955 43.0395 10.4441C45.6218 14.3087 47 18.8521 47 23.5C46.9928 29.7304 44.5145 35.7035 40.109 40.109C35.7035 44.5145 29.7304 46.9928 23.5 47ZM23.5 1.95834C19.2395 1.95834 15.0746 3.22174 11.5321 5.58877C7.98959 7.9558 5.22854 11.3201 3.59811 15.2564C1.96767 19.1926 1.54107 23.5239 2.37226 27.7026C3.20345 31.8813 5.2551 35.7196 8.26775 38.7323C11.2804 41.7449 15.1188 43.7966 19.2974 44.6278C23.4761 45.459 27.8074 45.0324 31.7437 43.4019C35.6799 41.7715 39.0442 39.0104 41.4113 35.4679C43.7783 31.9254 45.0417 27.7606 45.0417 23.5C45.0352 17.7888 42.7636 12.3134 38.7251 8.27491C34.6867 4.23647 29.2112 1.96482 23.5 1.95834Z" fill="#141E21"/>
<path id="Vector_11" d="M23.5007 38.1888C16.482 38.1888 10.7715 33.3566 10.7715 27.418H12.7298C12.7298 32.2766 17.562 36.2305 23.5007 36.2305C29.4393 36.2305 34.2715 32.2766 34.2715 27.418H36.2298C36.2298 33.3566 30.5193 38.1888 23.5007 38.1888Z" fill="#141E21"/>
<path id="Vector_12" d="M19.5827 20.5625H17.6243C17.6243 18.4025 16.3064 16.6458 14.6868 16.6458C13.0673 16.6458 11.7493 18.4025 11.7493 20.5625H9.79102C9.79102 17.3224 11.9873 14.6875 14.6868 14.6875C17.3864 14.6875 19.5827 17.3224 19.5827 20.5625Z" fill="#141E21"/>
<path id="Vector_13" d="M37.2077 20.5625H35.2493C35.2493 18.4025 33.9314 16.6458 32.3118 16.6458C30.6923 16.6458 29.3743 18.4025 29.3743 20.5625H27.416C27.416 17.3224 29.6123 14.6875 32.3118 14.6875C35.0114 14.6875 37.2077 17.3224 37.2077 20.5625Z" fill="#141E21"/>
</g>
</g>
</g>
<defs>
<clipPath id="clip0_4608_145153">
<rect width="47" height="47" fill="white"/>
</clipPath>
</defs>
</svg>
