<svg width="20" height="32" viewBox="0 0 20 32" fill="none" xmlns="http://www.w3.org/2000/svg">
<path d="M6.46338 30.2034C8.41541 32.1566 11.5812 32.1577 13.5345 30.2056C13.5353 30.2048 13.536 30.2041 13.5367 30.2034L18.8884 24.8517C19.5057 24.169 19.4527 23.115 18.7699 22.4977C18.1342 21.9229 17.1663 21.9239 16.5317 22.5L11.6551 27.3784L11.6667 1.66672C11.6667 0.746172 10.9205 0 10 0C9.07955 0 8.33338 0.746172 8.33338 1.66664L8.31838 27.3466L3.46838 22.5C2.81713 21.8492 1.76166 21.8496 1.11088 22.5009C0.460098 23.1521 0.460488 24.2076 1.11174 24.8584L6.46338 30.2034Z" fill="#A3A2A2"/>
</svg>
