<svg width="19" height="17" viewBox="0 0 19 17" fill="none" xmlns="http://www.w3.org/2000/svg">
<path fill-rule="evenodd" clip-rule="evenodd" d="M1.5 7.14973C1.5 4.02947 4.02947 1.5 7.14973 1.5C10.27 1.5 12.7995 4.02947 12.7995 7.14973C12.7995 10.27 10.27 12.7995 7.14973 12.7995C4.02947 12.7995 1.5 10.27 1.5 7.14973ZM7.14973 0C3.20104 0 0 3.20104 0 7.14973C0 11.0984 3.20104 14.2995 7.14973 14.2995C9.04563 14.2995 10.7692 13.5615 12.0488 12.3572L17.2623 16.8198C17.577 17.0891 18.0504 17.0524 18.3198 16.7377C18.5891 16.423 18.5524 15.9496 18.2377 15.6802L13.028 11.2209C13.8296 10.0655 14.2995 8.66248 14.2995 7.14973C14.2995 3.20104 11.0984 0 7.14973 0Z" fill="white"/>
</svg>
