<svg width="177" height="95" viewBox="0 0 177 95" fill="none" xmlns="http://www.w3.org/2000/svg">
<path d="M17.2802 30.1702H17.6157C18.3581 30.1702 18.9612 29.5708 18.9657 28.8283V26.6438C18.9524 25.911 18.3568 25.3227 17.6238 25.3183H17.2884C16.5459 25.3183 15.9429 25.9177 15.9384 26.6602V28.8447C15.9517 29.5775 16.5473 30.1659 17.2802 30.1702ZM16.9448 26.562C16.945 26.2819 17.1722 26.0549 17.4523 26.0551C17.7323 26.0553 17.9592 26.2821 17.9593 26.562V28.9102C17.9591 29.1903 17.7318 29.4173 17.4517 29.4171C17.1718 29.4169 16.945 29.1901 16.9448 28.9102V26.562Z" fill="#484848"/>
<path d="M13.295 30.088H14.4814V27.478L15.8314 23.7799H14.7269L13.9086 26.2344L13.0905 23.7799H11.8714L13.3114 27.478L13.295 30.088Z" fill="#484848"/>
<path d="M20.6586 30.1702C21.1362 30.1243 21.5837 29.9163 21.9268 29.5811V30.0884H22.9086V25.3184H21.9268V29.0166C21.9268 29.0166 21.5913 29.4093 21.2723 29.4093C20.9532 29.4093 20.9368 29.1556 20.9368 29.1556V25.3183H19.8977V29.5156C19.9545 29.8921 20.278 30.1704 20.6586 30.1702Z" fill="#484848"/>
<path d="M19.9881 35.6518C19.791 35.6614 19.6069 35.7534 19.4808 35.9054V39.2927C19.6103 39.4359 19.7951 39.5164 19.9881 39.5136C20.4954 39.5136 20.4954 38.9491 20.4954 38.9491V36.2164C20.4954 36.2163 20.4054 35.6518 19.9881 35.6518Z" fill="#484848"/>
<path d="M18 15.5C8.05887 15.5 0 23.5589 0 33.5C0 43.4411 8.05887 51.5 18 51.5C27.9411 51.5 36 43.4411 36 33.5C36 23.5589 27.9411 15.5 18 15.5ZM18 49.8636C8.96259 49.8636 1.63638 42.5374 1.63638 33.5C1.63638 24.4626 8.96259 17.1364 18 17.1364C27.0374 17.1364 34.3636 24.4626 34.3636 33.5C34.3636 42.5374 27.0374 49.8636 18 49.8636Z" fill="#484848"/>
<path d="M23.8743 35.6518C23.367 35.6518 23.367 36.2163 23.367 36.2163V36.9445H24.3816V36.2163C24.3816 36.2163 24.3816 35.6518 23.8743 35.6518Z" fill="#484848"/>
<path d="M24.2525 31.2165C24.2383 31.2167 24.2241 31.2171 24.2099 31.2176H24.1935C24.1935 31.2176 21.109 31.0457 17.9999 31.0457C14.8909 31.0457 11.7899 31.2093 11.7899 31.2093C10.4351 31.1641 9.30009 32.2258 9.25495 33.5807C9.25404 33.6084 9.25355 33.6362 9.25362 33.6639C9.09738 34.6931 9.01259 35.732 9 36.7729C9.01153 37.8248 9.09626 38.8747 9.25362 39.9148C9.25284 41.2704 10.3512 42.37 11.7068 42.3707C11.7345 42.3707 11.7623 42.3702 11.79 42.3693C11.79 42.3693 14.8418 42.5329 18 42.5329C21.1582 42.5329 24.21 42.3693 24.21 42.3693C25.5649 42.4145 26.6998 41.3528 26.745 39.998C26.7459 39.9703 26.7464 39.9425 26.7463 39.9148C26.9029 38.8746 26.9876 37.8248 26.9999 36.7729C26.9896 35.721 26.9048 34.6711 26.7463 33.6311C26.7244 32.2758 25.608 31.1946 24.2525 31.2165ZM14.3263 33.9584H13.0909V40.3239H11.8718V33.9584H10.6363V32.9111H14.3509L14.3263 33.9584ZM17.5418 40.3239H16.5191V39.8412C16.171 40.1653 15.7247 40.364 15.2509 40.4057C14.8703 40.4137 14.5437 40.1362 14.49 39.7593V34.7603H15.5455V39.4321C15.5455 39.4321 15.5455 39.6776 15.8809 39.6776C16.2164 39.6776 16.56 39.2766 16.56 39.2766V34.7603H17.5745L17.5418 40.3239ZM20.5772 40.4057C20.1469 40.4096 19.7401 40.2093 19.4809 39.8657V40.3239H18.3763V32.9112H19.4727V35.3166C19.7533 34.9988 20.1464 34.8022 20.5691 34.7685C21.2482 34.7685 21.5018 35.333 21.5018 36.0612L21.5099 39.113C21.5099 39.113 21.5099 40.4057 20.5772 40.4057ZM25.4781 37.7712H23.3672V38.9821C23.3672 38.9821 23.3672 39.5466 23.8745 39.5466C24.3818 39.5466 24.3818 38.9821 24.3818 38.9821V38.4093H25.4782V39.2929C25.3314 40.0013 24.6768 40.487 23.9563 40.422C23.21 40.4892 22.522 40.0145 22.3199 39.2929V36.1348C22.3427 35.3488 22.9982 34.7302 23.7842 34.7529C23.8418 34.7546 23.8993 34.7598 23.9563 34.7684C24.6855 34.6641 25.3611 35.1705 25.4655 35.8996C25.4767 35.9774 25.4809 36.0562 25.4782 36.1348V37.7712H25.4781Z" fill="#484848"/>
<path d="M63.3633 29.4092V31.0456H61.7269V33.5001H63.3633V40.8637H66.636V33.5001H68.8124L69.0905 31.0456H66.636V29.6137C66.636 28.951 66.7014 28.5992 67.7241 28.5992H69.0905V26.1364H66.8978C64.2797 26.1365 63.3633 27.3637 63.3633 29.4092Z" fill="#484848"/>
<path d="M65 15.5C55.0589 15.5 47 23.5589 47 33.5C47 43.4411 55.0589 51.5 65 51.5C74.9411 51.5 83 43.4411 83 33.5C83 23.5589 74.9411 15.5 65 15.5ZM65 49.8636C55.9626 49.8636 48.6364 42.5374 48.6364 33.5C48.6364 24.4626 55.9626 17.1364 65 17.1364C74.0374 17.1364 81.3636 24.4626 81.3636 33.5C81.3636 42.5374 74.0374 49.8636 65 49.8636Z" fill="#484848"/>
<path d="M112 15.5C102.059 15.5 94 23.5589 94 33.5C94 43.4411 102.059 51.5 112 51.5C121.941 51.5 130 43.4411 130 33.5C130 23.5589 121.941 15.5 112 15.5ZM112 49.8636C102.963 49.8636 95.6364 42.5374 95.6364 33.5C95.6364 24.4626 102.963 17.1364 112 17.1364C121.037 17.1364 128.364 24.4626 128.364 33.5C128.364 42.5374 121.037 49.8636 112 49.8636Z" fill="#484848"/>
<path d="M116.909 25.3182H107.091C105.284 25.3182 103.818 26.7835 103.818 28.5909V38.4091C103.818 40.2165 105.284 41.6818 107.091 41.6818H116.909C118.717 41.6818 120.182 40.2165 120.182 38.4091V28.591C120.182 26.7835 118.717 25.3182 116.909 25.3182ZM115.273 27.7728H117.727V30.2273H115.273V27.7728ZM112 30.2274C113.808 30.2274 115.273 31.6926 115.273 33.5001C115.273 35.3075 113.808 36.7728 112 36.7728C110.193 36.7728 108.727 35.3075 108.727 33.5001C108.727 31.6926 110.193 30.2274 112 30.2274ZM118.546 38.4091C118.546 39.3129 117.813 40.0455 116.909 40.0455H107.091C106.187 40.0455 105.455 39.3129 105.455 38.4091V32.6818H107.173C106.681 35.3482 108.445 37.908 111.111 38.3994C113.777 38.8908 116.337 37.1276 116.828 34.4613C116.887 34.1443 116.914 33.8224 116.909 33.5001C116.905 33.2255 116.878 32.9518 116.827 32.6819H118.546V38.4091H118.546Z" fill="#484848"/>
<path d="M167.55 27.2C166.89 27.5914 166.168 27.868 165.415 28.0182C164.775 27.3471 163.887 26.9684 162.96 26.9709C161.134 26.9572 159.637 28.4173 159.606 30.2436C159.606 30.4971 159.637 30.7498 159.696 30.9964C157.006 30.8694 154.493 29.6162 152.774 27.5437C152.48 28.0393 152.322 28.6038 152.316 29.18C152.316 30.2912 152.88 31.3263 153.813 31.9291C153.28 31.9118 152.759 31.7688 152.291 31.5118C152.291 31.5118 152.291 31.5118 152.291 31.5527C152.286 33.1486 153.416 34.5228 154.983 34.8254C154.489 34.9571 153.972 34.9767 153.469 34.8827C153.921 36.2346 155.178 37.1533 156.603 37.1737C155.417 38.0963 153.958 38.5998 152.455 38.6055C152.181 38.6052 151.908 38.5888 151.637 38.5564C153.176 39.5304 154.961 40.0468 156.783 40.0455C161.979 40.1404 166.268 36.0054 166.362 30.8098C166.363 30.7548 166.364 30.6997 166.364 30.6446C166.364 30.5028 166.364 30.3609 166.364 30.2191C167.005 29.7491 167.559 29.1704 168 28.5091C167.386 28.7781 166.735 28.9545 166.069 29.0327C166.77 28.6227 167.296 27.971 167.55 27.2Z" fill="#484848"/>
<path d="M159 15.5C149.059 15.5 141 23.5589 141 33.5C141 43.4411 149.059 51.5 159 51.5C168.941 51.5 177 43.4411 177 33.5C177 23.5589 168.941 15.5 159 15.5ZM159 49.8636C149.963 49.8636 142.636 42.5374 142.636 33.5C142.636 24.4626 149.963 17.1364 159 17.1364C168.037 17.1364 175.364 24.4626 175.364 33.5C175.364 42.5374 168.037 49.8636 159 49.8636Z" fill="#484848"/>
<path d="M17.2802 73.6702H17.6157C18.3581 73.6702 18.9612 73.0708 18.9657 72.3283V70.1438C18.9524 69.411 18.3568 68.8227 17.6238 68.8183H17.2884C16.5459 68.8183 15.9429 69.4177 15.9384 70.1602V72.3447C15.9517 73.0775 16.5473 73.6659 17.2802 73.6702ZM16.9448 70.062C16.945 69.7819 17.1722 69.5549 17.4523 69.5551C17.7323 69.5553 17.9592 69.7821 17.9593 70.062V72.4102C17.9591 72.6903 17.7318 72.9173 17.4517 72.9171C17.1718 72.9169 16.945 72.6901 16.9448 72.4102V70.062Z" fill="#2F85FE"/>
<path d="M13.295 73.588H14.4814V70.978L15.8314 67.2799H14.7269L13.9086 69.7344L13.0905 67.2799H11.8714L13.3114 70.978L13.295 73.588Z" fill="#2F85FE"/>
<path d="M20.6586 73.6702C21.1362 73.6243 21.5837 73.4163 21.9268 73.0811V73.5884H22.9086V68.8184H21.9268V72.5166C21.9268 72.5166 21.5913 72.9093 21.2723 72.9093C20.9532 72.9093 20.9368 72.6556 20.9368 72.6556V68.8183H19.8977V73.0156C19.9545 73.3921 20.278 73.6704 20.6586 73.6702Z" fill="#2F85FE"/>
<path d="M19.9881 79.1518C19.791 79.1614 19.6069 79.2534 19.4808 79.4054V82.7927C19.6103 82.9359 19.7951 83.0164 19.9881 83.0136C20.4954 83.0136 20.4954 82.4491 20.4954 82.4491V79.7164C20.4954 79.7163 20.4054 79.1518 19.9881 79.1518Z" fill="#2F85FE"/>
<path d="M18 59C8.05887 59 0 67.0589 0 77C0 86.9411 8.05887 95 18 95C27.9411 95 36 86.9411 36 77C36 67.0589 27.9411 59 18 59ZM18 93.3636C8.96259 93.3636 1.63638 86.0374 1.63638 77C1.63638 67.9626 8.96259 60.6364 18 60.6364C27.0374 60.6364 34.3636 67.9626 34.3636 77C34.3636 86.0374 27.0374 93.3636 18 93.3636Z" fill="#2F85FE"/>
<path d="M23.8743 79.1518C23.367 79.1518 23.367 79.7163 23.367 79.7163V80.4445H24.3816V79.7163C24.3816 79.7163 24.3816 79.1518 23.8743 79.1518Z" fill="#2F85FE"/>
<path d="M24.2525 74.7165C24.2383 74.7167 24.2241 74.7171 24.2099 74.7176H24.1935C24.1935 74.7176 21.109 74.5457 17.9999 74.5457C14.8909 74.5457 11.7899 74.7093 11.7899 74.7093C10.4351 74.6641 9.30009 75.7258 9.25495 77.0807C9.25404 77.1084 9.25355 77.1362 9.25362 77.1639C9.09738 78.1931 9.01259 79.232 9 80.2729C9.01153 81.3248 9.09626 82.3747 9.25362 83.4148C9.25284 84.7704 10.3512 85.87 11.7068 85.8707C11.7345 85.8707 11.7623 85.8702 11.79 85.8693C11.79 85.8693 14.8418 86.0329 18 86.0329C21.1582 86.0329 24.21 85.8693 24.21 85.8693C25.5649 85.9145 26.6998 84.8528 26.745 83.498C26.7459 83.4703 26.7464 83.4425 26.7463 83.4148C26.9029 82.3746 26.9876 81.3248 26.9999 80.2729C26.9896 79.221 26.9048 78.1711 26.7463 77.1311C26.7244 75.7758 25.608 74.6946 24.2525 74.7165ZM14.3263 77.4584H13.0909V83.8239H11.8718V77.4584H10.6363V76.4111H14.3509L14.3263 77.4584ZM17.5418 83.8239H16.5191V83.3412C16.171 83.6653 15.7247 83.864 15.2509 83.9057C14.8703 83.9137 14.5437 83.6362 14.49 83.2593V78.2603H15.5455V82.9321C15.5455 82.9321 15.5455 83.1776 15.8809 83.1776C16.2164 83.1776 16.56 82.7766 16.56 82.7766V78.2603H17.5745L17.5418 83.8239ZM20.5772 83.9057C20.1469 83.9096 19.7401 83.7093 19.4809 83.3657V83.8239H18.3763V76.4112H19.4727V78.8166C19.7533 78.4988 20.1464 78.3022 20.5691 78.2685C21.2482 78.2685 21.5018 78.833 21.5018 79.5612L21.5099 82.613C21.5099 82.613 21.5099 83.9057 20.5772 83.9057ZM25.4781 81.2712H23.3672V82.4821C23.3672 82.4821 23.3672 83.0466 23.8745 83.0466C24.3818 83.0466 24.3818 82.4821 24.3818 82.4821V81.9093H25.4782V82.7929C25.3314 83.5013 24.6768 83.987 23.9563 83.922C23.21 83.9892 22.522 83.5145 22.3199 82.7929V79.6348C22.3427 78.8488 22.9982 78.2302 23.7842 78.2529C23.8418 78.2546 23.8993 78.2598 23.9563 78.2684C24.6855 78.1641 25.3611 78.6705 25.4655 79.3996C25.4767 79.4774 25.4809 79.5562 25.4782 79.6348V81.2712H25.4781Z" fill="#2F85FE"/>
<path d="M63.3633 72.9092V74.5456H61.7269V77.0001H63.3633V84.3637H66.636V77.0001H68.8124L69.0905 74.5456H66.636V73.1137C66.636 72.451 66.7014 72.0992 67.7241 72.0992H69.0905V69.6364H66.8978C64.2797 69.6365 63.3633 70.8637 63.3633 72.9092Z" fill="#2F85FE"/>
<path d="M65 59C55.0589 59 47 67.0589 47 77C47 86.9411 55.0589 95 65 95C74.9411 95 83 86.9411 83 77C83 67.0589 74.9411 59 65 59ZM65 93.3636C55.9626 93.3636 48.6364 86.0374 48.6364 77C48.6364 67.9626 55.9626 60.6364 65 60.6364C74.0374 60.6364 81.3636 67.9626 81.3636 77C81.3636 86.0374 74.0374 93.3636 65 93.3636Z" fill="#2F85FE"/>
<path d="M112 59C102.059 59 94 67.0589 94 77C94 86.9411 102.059 95 112 95C121.941 95 130 86.9411 130 77C130 67.0589 121.941 59 112 59ZM112 93.3636C102.963 93.3636 95.6364 86.0374 95.6364 77C95.6364 67.9626 102.963 60.6364 112 60.6364C121.037 60.6364 128.364 67.9626 128.364 77C128.364 86.0374 121.037 93.3636 112 93.3636Z" fill="#2F85FE"/>
<path d="M116.909 68.8182H107.091C105.284 68.8182 103.818 70.2835 103.818 72.0909V81.9091C103.818 83.7165 105.284 85.1818 107.091 85.1818H116.909C118.717 85.1818 120.182 83.7165 120.182 81.9091V72.091C120.182 70.2835 118.717 68.8182 116.909 68.8182ZM115.273 71.2728H117.727V73.7273H115.273V71.2728ZM112 73.7274C113.808 73.7274 115.273 75.1926 115.273 77.0001C115.273 78.8075 113.808 80.2728 112 80.2728C110.193 80.2728 108.727 78.8075 108.727 77.0001C108.727 75.1926 110.193 73.7274 112 73.7274ZM118.546 81.9091C118.546 82.8129 117.813 83.5455 116.909 83.5455H107.091C106.187 83.5455 105.455 82.8129 105.455 81.9091V76.1818H107.173C106.681 78.8482 108.445 81.408 111.111 81.8994C113.777 82.3908 116.337 80.6276 116.828 77.9613C116.887 77.6443 116.914 77.3224 116.909 77.0001C116.905 76.7255 116.878 76.4518 116.827 76.1819H118.546V81.9091H118.546Z" fill="#2F85FE"/>
<path d="M167.55 70.7C166.89 71.0914 166.168 71.368 165.415 71.5182C164.775 70.8471 163.887 70.4684 162.96 70.4709C161.134 70.4572 159.637 71.9173 159.606 73.7436C159.606 73.9971 159.637 74.2498 159.696 74.4964C157.006 74.3694 154.493 73.1162 152.774 71.0437C152.48 71.5393 152.322 72.1038 152.316 72.68C152.316 73.7912 152.88 74.8263 153.813 75.4291C153.28 75.4117 152.759 75.2688 152.291 75.0118C152.291 75.0118 152.291 75.0118 152.291 75.0527C152.286 76.6486 153.416 78.0228 154.983 78.3254C154.489 78.4571 153.972 78.4767 153.469 78.3827C153.921 79.7346 155.178 80.6533 156.603 80.6737C155.417 81.5963 153.958 82.0998 152.455 82.1055C152.181 82.1052 151.908 82.0888 151.637 82.0564C153.176 83.0304 154.961 83.5468 156.783 83.5455C161.979 83.6404 166.268 79.5054 166.362 74.3098C166.363 74.2548 166.364 74.1997 166.364 74.1446C166.364 74.0028 166.364 73.8609 166.364 73.7191C167.005 73.2491 167.559 72.6704 168 72.0091C167.386 72.2781 166.735 72.4545 166.069 72.5327C166.77 72.1227 167.296 71.471 167.55 70.7Z" fill="#2F85FE"/>
<path d="M159 59C149.059 59 141 67.0589 141 77C141 86.9411 149.059 95 159 95C168.941 95 177 86.9411 177 77C177 67.0589 168.941 59 159 59ZM159 93.3636C149.963 93.3636 142.636 86.0374 142.636 77C142.636 67.9626 149.963 60.6364 159 60.6364C168.037 60.6364 175.364 67.9626 175.364 77C175.364 86.0374 168.037 93.3636 159 93.3636Z" fill="#2F85FE"/>
<rect x="9" width="159" height="1" fill="#D9D9D9"/>
</svg>
