<svg width="32" height="24" viewBox="0 0 32 24" fill="none" xmlns="http://www.w3.org/2000/svg">
<path d="M7.87027 23.4925C5.96757 23.6684 4.32432 23.1848 2.94054 22.0417C1.64324 20.8108 0.778378 19.2281 0.345946 17.2937C0 15.6231 -0.0864865 13.9086 0.0864865 12.15C0.345946 10.3036 0.908108 8.63299 1.77297 7.13825C2.72432 5.55558 4.02162 4.19272 5.66487 3.04968C7.30811 1.90664 9.38378 1.20323 11.8919 0.939453L12.8 4.23668C11.5027 4.58839 10.1189 5.20387 8.64865 6.08313C7.17838 6.9624 6.22703 8.45714 5.79459 10.5674L7.74054 10.1717C9.72973 10.0838 11.4162 10.6553 12.8 11.8863C14.2703 13.1172 15.0054 14.6559 15.0054 16.5024C15.0054 18.3488 14.3135 19.9755 12.9297 21.3823C11.5459 22.7012 9.85946 23.4046 7.87027 23.4925ZM24.9946 23.4925C23.0054 23.6684 21.3622 23.1848 20.0649 22.0417C18.7676 20.8108 17.9027 19.2281 17.4703 17.2937C17.0378 15.6231 16.9514 13.9086 17.2108 12.15C17.4703 10.3036 18.0324 8.63299 18.8973 7.13825C19.8486 5.55558 21.1459 4.19272 22.7892 3.04968C24.4324 1.90664 26.4649 1.20323 28.8865 0.939453L29.9243 4.23668C28.627 4.58839 27.2 5.20387 25.6432 6.08313C24.173 6.9624 23.2216 8.45714 22.7892 10.5674C23.1351 10.4794 23.4378 10.4355 23.6973 10.4355C24.0432 10.3476 24.4324 10.2596 24.8649 10.1717C26.8541 10.0838 28.5405 10.6553 29.9243 11.8863C31.3081 13.1172 32 14.6559 32 16.5024C32 18.3488 31.3081 19.9755 29.9243 21.3823C28.627 22.7012 26.9838 23.4046 24.9946 23.4925Z" fill="url(#paint0_linear_1_6518)"/>
<defs>
<linearGradient id="paint0_linear_1_6518" x1="-3.91837" y1="25.8916" x2="35.1822" y2="14.3014" gradientUnits="userSpaceOnUse">
<stop stop-color="#1F70AE"/>
<stop offset="0.266806" stop-color="#6CAFE2"/>
<stop offset="1" stop-color="#4E98D1"/>
</linearGradient>
</defs>
</svg>
