<svg width="40" height="103" viewBox="0 0 40 103" fill="none" xmlns="http://www.w3.org/2000/svg">
<rect x="0.65" y="8.98398" width="38.7" height="28.0333" rx="1.35" stroke="#282828" stroke-width="1.3"/>
<path d="M14.666 8.33333C14.666 1.22222 25.3327 1.22223 25.3327 8.33329" stroke="#282828" stroke-width="1.2"/>
<path d="M27.9999 8.9998C27.9999 12.1109 29.3333 15.6665 27.9999 16.9998" stroke="#282828" stroke-width="1.2"/>
<path d="M27.9312 29.3822L21.7177 27.497C21.4535 27.4168 21.3043 27.1376 21.3844 26.8734L23.846 18.7606C23.886 18.6285 23.9789 18.5189 24.1026 18.4577L28.0949 16.4817C28.3315 16.3646 28.6184 16.4516 28.7501 16.6805L30.9712 20.5417C31.0401 20.6613 31.0564 20.8041 31.0163 20.9362L28.5548 29.0489C28.4746 29.3132 28.1954 29.4624 27.9312 29.3822Z" fill="white" stroke="#282828" stroke-width="1.2"/>
<circle cx="27.3708" cy="20.0587" r="0.899539" transform="rotate(-58.3676 27.3708 20.0587)" fill="#A3A2A2" stroke="#282828" stroke-width="0.1"/>
<rect x="0.65" y="71.984" width="38.7" height="28.0333" rx="1.35" stroke="#2F85FE" stroke-width="1.3"/>
<path d="M14.666 71.3333C14.666 64.2222 25.3327 64.2222 25.3327 71.3333" stroke="#2F85FE" stroke-width="1.2"/>
<path d="M27.9999 71.9998C27.9999 75.1109 29.3333 78.6665 27.9999 79.9998" stroke="#2F85FE" stroke-width="1.2"/>
<path d="M27.9312 92.3822L21.7177 90.497C21.4535 90.4168 21.3043 90.1376 21.3844 89.8734L23.846 81.7606C23.886 81.6285 23.9789 81.5189 24.1026 81.4577L28.0949 79.4817C28.3315 79.3646 28.6184 79.4516 28.7501 79.6805L30.9712 83.5417C31.0401 83.6613 31.0564 83.8041 31.0163 83.9362L28.5548 92.0489C28.4746 92.3132 28.1954 92.4624 27.9312 92.3822Z" fill="white" stroke="#2F85FE" stroke-width="1.2"/>
<circle cx="27.3708" cy="83.0587" r="0.899539" transform="rotate(-58.3676 27.3708 83.0587)" fill="#2F85FE" stroke="#282828" stroke-width="0.1"/>
</svg>
