<svg width="16" height="16" viewBox="0 0 16 16" fill="none" xmlns="http://www.w3.org/2000/svg">
<path fill-rule="evenodd" clip-rule="evenodd" d="M8 1C4.14027 1 1 4.14027 1 8C1 11.8597 4.14027 15 8 15C11.8597 15 15 11.8597 15 8C15 4.14027 11.8598 1 8 1ZM8 14.3913C4.47565 14.3913 1.60869 11.5244 1.60869 8C1.60869 4.47565 4.47565 1.60869 8 1.60869C11.5244 1.60869 14.3913 4.47565 14.3913 8C14.3913 11.5244 11.5244 14.3913 8 14.3913ZM3.73795 6.47852H4.95535C5.12335 6.47852 5.25971 6.61484 5.25971 6.78285C5.25971 6.95085 5.12335 7.0872 4.95535 7.0872H4.04231V7.69531H4.34664C4.51464 7.69531 4.651 7.83164 4.651 7.99964C4.651 8.16764 4.51464 8.304 4.34664 8.304H4.04231V9.21765C4.04231 9.38565 3.90595 9.52201 3.73795 9.52201C3.56995 9.52201 3.43359 9.38565 3.43359 9.21765V7.99967V6.78287C3.43359 6.61487 3.56995 6.47852 3.73795 6.47852ZM8.00066 2.82617C9.57597 2.82617 11.0466 3.53347 12.0357 4.76608C12.141 4.89696 12.1203 5.0887 11.9888 5.19395C11.9329 5.23901 11.8659 5.26092 11.7983 5.26092C11.7094 5.26092 11.6212 5.22197 11.5609 5.1471C10.6881 4.05875 9.39031 3.43483 8.00066 3.43483C6.611 3.43483 5.31325 4.05875 4.43978 5.1471C4.3351 5.27858 4.14336 5.2993 4.01248 5.19398C3.881 5.0887 3.86028 4.89696 3.9656 4.76608C4.95474 3.53347 6.42534 2.82617 8.00066 2.82617ZM11.7385 11.1265C11.6179 11.0115 11.4244 11.0164 11.3087 11.1381C10.4353 12.0578 9.25985 12.5649 7.99862 12.5649C6.7374 12.5649 5.56202 12.0578 4.68915 11.1381C4.57411 11.0151 4.38054 11.0115 4.25942 11.1265C4.13647 11.2422 4.13219 11.4351 4.24787 11.5569C5.23701 12.5996 6.56882 13.1736 7.99865 13.1736C9.42848 13.1736 10.7603 12.5996 11.75 11.5569C11.8657 11.4351 11.8608 11.2422 11.7385 11.1265ZM7.69718 7.39156C7.69718 7.85479 7.35023 8.23887 6.90224 8.2967L7.60773 9.00217C7.72643 9.12087 7.72643 9.31383 7.60773 9.43253C7.54867 9.49219 7.47078 9.52201 7.39285 9.52201C7.31493 9.52201 7.23704 9.49216 7.17738 9.43313L6.47981 8.73496V9.21765C6.47981 9.38565 6.34345 9.52201 6.17545 9.52201C6.00745 9.52201 5.87109 9.38565 5.87109 9.21765V8.00207V7.99782V6.78287C5.87109 6.61487 6.00745 6.47852 6.17545 6.47852H6.78414C7.28754 6.47852 7.69718 6.88816 7.69718 7.39156ZM6.47981 7.08723V7.69592V7.69595H6.78417C6.95157 7.69595 7.08852 7.55959 7.08852 7.39159C7.08852 7.22359 6.95157 7.08723 6.78417 7.08723H6.47981ZM9.82645 8.91329H8.9134V8.304H9.21773C9.38573 8.304 9.52209 8.16764 9.52209 7.99964C9.52209 7.83164 9.38573 7.69531 9.21773 7.69531H8.9134V7.0872H9.82645C9.99445 7.0872 10.1308 6.95085 10.1308 6.78285C10.1308 6.61484 9.99445 6.47852 9.82645 6.47852H8.60905C8.44104 6.47852 8.30469 6.61487 8.30469 6.78287V7.99967V9.21765C8.30469 9.38565 8.44104 9.52201 8.60905 9.52201H9.82645C9.99445 9.52201 10.1308 9.38565 10.1308 9.21765C10.1308 9.04965 9.99445 8.91329 9.82645 8.91329ZM12.26 8.91329H11.347V8.304H11.6513C11.8193 8.304 11.9557 8.16764 11.9557 7.99964C11.9557 7.83164 11.8193 7.69531 11.6513 7.69531H11.347V7.0872H12.26C12.428 7.0872 12.5644 6.95085 12.5644 6.78285C12.5644 6.61484 12.428 6.47852 12.26 6.47852H11.0426C10.8746 6.47852 10.7383 6.61487 10.7383 6.78287V7.99967V9.21765C10.7383 9.38565 10.8746 9.52201 11.0426 9.52201H12.26C12.428 9.52201 12.5644 9.38565 12.5644 9.21765C12.5644 9.04965 12.428 8.91329 12.26 8.91329Z" fill="#282828"/>
<path d="M4.04231 7.0872V6.9372H3.89231V7.0872H4.04231ZM4.04231 7.69531H3.89231V7.84531H4.04231V7.69531ZM4.04231 8.304V8.154H3.89231V8.304H4.04231ZM12.0357 4.76608L11.9187 4.85996L11.9189 4.86011L12.0357 4.76608ZM11.9888 5.19395L11.8951 5.07686L11.8948 5.0771L11.9888 5.19395ZM11.5609 5.1471L11.4439 5.24095L11.4441 5.24116L11.5609 5.1471ZM4.43978 5.1471L4.3228 5.05322L4.32244 5.05367L4.43978 5.1471ZM4.01248 5.19398L4.10651 5.07712L4.10624 5.0769L4.01248 5.19398ZM3.9656 4.76608L4.08246 4.86011L4.08259 4.85996L3.9656 4.76608ZM11.3087 11.1381L11.2 11.0348L11.2 11.0348L11.3087 11.1381ZM11.7385 11.1265L11.6349 11.235L11.6354 11.2355L11.7385 11.1265ZM4.68915 11.1381L4.57962 11.2406L4.58035 11.2413L4.68915 11.1381ZM4.25942 11.1265L4.36219 11.2358L4.36272 11.2353L4.25942 11.1265ZM4.24787 11.5569L4.35669 11.4537L4.35661 11.4536L4.24787 11.5569ZM11.75 11.5569L11.6413 11.4536L11.6412 11.4536L11.75 11.5569ZM6.90224 8.2967L6.88303 8.14794L6.5804 8.18701L6.79617 8.40277L6.90224 8.2967ZM7.60773 9.00217L7.7138 8.89611L7.7138 8.8961L7.60773 9.00217ZM7.60773 9.43253L7.50167 9.32646L7.50113 9.327L7.60773 9.43253ZM7.17738 9.43313L7.07126 9.53915L7.07187 9.53975L7.17738 9.43313ZM6.47981 8.73496L6.58592 8.62894L6.32981 8.37261V8.73496H6.47981ZM6.47981 7.08723V6.93723H6.32981V7.08723H6.47981ZM6.47981 7.69595H6.32981V7.84595H6.47981V7.69595ZM8.9134 8.91329H8.7634V9.06329H8.9134V8.91329ZM8.9134 8.304V8.154H8.7634V8.304H8.9134ZM8.9134 7.69531H8.7634V7.84531H8.9134V7.69531ZM8.9134 7.0872V6.9372H8.7634V7.0872H8.9134ZM11.347 8.91329H11.197V9.06329H11.347V8.91329ZM11.347 8.304V8.154H11.197V8.304H11.347ZM11.347 7.69531H11.197V7.84531H11.347V7.69531ZM11.347 7.0872V6.9372H11.197V7.0872H11.347ZM1.15 8C1.15 4.22312 4.22312 1.15 8 1.15V0.85C4.05743 0.85 0.85 4.05743 0.85 8H1.15ZM8 14.85C4.22312 14.85 1.15 11.7769 1.15 8H0.85C0.85 11.9426 4.05743 15.15 8 15.15V14.85ZM14.85 8C14.85 11.7769 11.7769 14.85 8 14.85V15.15C11.9426 15.15 15.15 11.9426 15.15 8H14.85ZM8 1.15C11.7769 1.15 14.85 4.22312 14.85 8H15.15C15.15 4.05743 11.9426 0.85 8 0.85V1.15ZM1.45869 8C1.45869 11.6072 4.3928 14.5413 8 14.5413V14.2413C4.55849 14.2413 1.75869 11.4415 1.75869 8H1.45869ZM8 1.45869C4.3928 1.45869 1.45869 4.3928 1.45869 8H1.75869C1.75869 4.55849 4.55849 1.75869 8 1.75869V1.45869ZM14.5413 8C14.5413 4.3928 11.6072 1.45869 8 1.45869V1.75869C11.4415 1.75869 14.2413 4.55849 14.2413 8H14.5413ZM8 14.5413C11.6072 14.5413 14.5413 11.6072 14.5413 8H14.2413C14.2413 11.4415 11.4415 14.2413 8 14.2413V14.5413ZM4.95535 6.32852H3.73795V6.62852H4.95535V6.32852ZM5.40971 6.78285C5.40971 6.53198 5.20618 6.32852 4.95535 6.32852V6.62852C5.04053 6.62852 5.10971 6.69771 5.10971 6.78285H5.40971ZM4.95535 7.2372C5.2062 7.2372 5.40971 7.03369 5.40971 6.78285H5.10971C5.10971 6.868 5.04051 6.9372 4.95535 6.9372V7.2372ZM4.04231 7.2372H4.95535V6.9372H4.04231V7.2372ZM4.19231 7.69531V7.0872H3.89231V7.69531H4.19231ZM4.34664 7.54531H4.04231V7.84531H4.34664V7.54531ZM4.801 7.99964C4.801 7.74878 4.59746 7.54531 4.34664 7.54531V7.84531C4.43181 7.84531 4.501 7.9145 4.501 7.99964H4.801ZM4.34664 8.454C4.59748 8.454 4.801 8.25048 4.801 7.99964H4.501C4.501 8.0848 4.4318 8.154 4.34664 8.154V8.454ZM4.04231 8.454H4.34664V8.154H4.04231V8.454ZM4.19231 9.21765V8.304H3.89231V9.21765H4.19231ZM3.73795 9.67201C3.98879 9.67201 4.19231 9.46849 4.19231 9.21765H3.89231C3.89231 9.30281 3.82311 9.37201 3.73795 9.37201V9.67201ZM3.28359 9.21765C3.28359 9.46849 3.48711 9.67201 3.73795 9.67201V9.37201C3.65279 9.37201 3.58359 9.30281 3.58359 9.21765H3.28359ZM3.28359 7.99967V9.21765H3.58359V7.99967H3.28359ZM3.28359 6.78287V7.99967H3.58359V6.78287H3.28359ZM3.73795 6.32852C3.48711 6.32852 3.28359 6.53203 3.28359 6.78287H3.58359C3.58359 6.69772 3.65279 6.62852 3.73795 6.62852V6.32852ZM12.1527 4.6722C11.1352 3.40427 9.62166 2.67617 8.00066 2.67617V2.97617C9.53028 2.97617 10.9579 3.66267 11.9187 4.85996L12.1527 4.6722ZM12.0826 5.31105C12.2789 5.15386 12.3098 4.86749 12.1526 4.67204L11.9189 4.86011C11.9722 4.92643 11.9617 5.02354 11.8951 5.07686L12.0826 5.31105ZM11.7983 5.41092C11.8987 5.41092 11.9992 5.37816 12.0829 5.31081L11.8948 5.0771C11.8665 5.09985 11.8331 5.11092 11.7983 5.11092V5.41092ZM11.4441 5.24116C11.5339 5.35275 11.6658 5.41092 11.7983 5.41092V5.11092C11.7531 5.11092 11.7085 5.09119 11.6778 5.05305L11.4441 5.24116ZM8.00066 3.58483C9.34462 3.58483 10.5994 4.18795 11.4439 5.24095L11.6779 5.05326C10.7767 3.92955 9.436 3.28483 8.00066 3.28483V3.58483ZM4.55677 5.24099C5.4019 4.18795 6.6567 3.58483 8.00066 3.58483V3.28483C6.56531 3.28483 5.22461 3.92956 4.3228 5.05322L4.55677 5.24099ZM3.91844 5.31085C4.11374 5.46799 4.40036 5.43742 4.55713 5.24054L4.32244 5.05367C4.26983 5.11974 4.17298 5.1306 4.10651 5.07712L3.91844 5.31085ZM3.84873 4.67204C3.69146 4.86749 3.72239 5.15385 3.91872 5.31107L4.10624 5.0769C4.03961 5.02354 4.02911 4.92642 4.08246 4.86011L3.84873 4.67204ZM8.00066 2.67617C6.37965 2.67617 4.86609 3.40427 3.84861 4.6722L4.08259 4.85996C5.04339 3.66267 6.47103 2.97617 8.00066 2.97617V2.67617ZM11.4175 11.2414C11.4763 11.1794 11.5748 11.1777 11.6349 11.235L11.842 11.018C11.6611 10.8453 11.3724 10.8533 11.2 11.0348L11.4175 11.2414ZM7.99862 12.7149C9.30129 12.7149 10.5159 12.1907 11.4175 11.2414L11.2 11.0348C10.3546 11.9249 9.21841 12.4149 7.99862 12.4149V12.7149ZM4.58035 11.2413C5.48134 12.1907 6.69596 12.7149 7.99862 12.7149V12.4149C6.77883 12.4149 5.6427 11.9249 4.79795 11.0348L4.58035 11.2413ZM4.36272 11.2353C4.42451 11.1766 4.52246 11.1795 4.57962 11.2406L4.79868 11.0356C4.62575 10.8508 4.33658 10.8464 4.15612 11.0178L4.36272 11.2353ZM4.35661 11.4536C4.29767 11.3915 4.30036 11.294 4.36219 11.2358L4.15665 11.0173C3.97259 11.1904 3.96671 11.4787 4.13912 11.6602L4.35661 11.4536ZM7.99865 13.0236C6.61021 13.0236 5.31767 12.4667 4.35669 11.4537L4.13904 11.6601C5.15634 12.7325 6.52744 13.3236 7.99865 13.3236V13.0236ZM11.6412 11.4536C10.6797 12.4667 9.38708 13.0236 7.99865 13.0236V13.3236C9.46988 13.3236 10.8409 12.7325 11.8588 11.6602L11.6412 11.4536ZM11.6354 11.2355C11.6973 11.2941 11.6999 11.3919 11.6413 11.4536L11.8588 11.6602C12.0315 11.4784 12.0243 11.1903 11.8415 11.0175L11.6354 11.2355ZM6.92144 8.44547C7.44326 8.3781 7.84718 7.93118 7.84718 7.39156H7.54718C7.54718 7.77839 7.2572 8.09963 6.88303 8.14794L6.92144 8.44547ZM7.7138 8.8961L7.0083 8.19063L6.79617 8.40277L7.50167 9.10824L7.7138 8.8961ZM7.7138 9.5386C7.89107 9.36132 7.89107 9.07338 7.7138 8.89611L7.50167 9.10824C7.56178 9.16835 7.56179 9.26635 7.50167 9.32646L7.7138 9.5386ZM7.39285 9.67201C7.509 9.67201 7.62584 9.62745 7.71433 9.53806L7.50113 9.327C7.4715 9.35694 7.43255 9.37201 7.39285 9.37201V9.67201ZM7.07187 9.53975C7.16046 9.62741 7.27663 9.67201 7.39285 9.67201V9.37201C7.35324 9.37201 7.31361 9.35692 7.28288 9.3265L7.07187 9.53975ZM6.3737 8.84098L7.07126 9.53915L7.28349 9.32711L6.58592 8.62894L6.3737 8.84098ZM6.62981 9.21765V8.73496H6.32981V9.21765H6.62981ZM6.17545 9.67201C6.42629 9.67201 6.62981 9.46849 6.62981 9.21765H6.32981C6.32981 9.30281 6.26061 9.37201 6.17545 9.37201V9.67201ZM5.72109 9.21765C5.72109 9.46849 5.92461 9.67201 6.17545 9.67201V9.37201C6.09029 9.37201 6.02109 9.30281 6.02109 9.21765H5.72109ZM5.72109 8.00207V9.21765H6.02109V8.00207H5.72109ZM5.72109 7.99782V8.00207H6.02109V7.99782H5.72109ZM5.72109 6.78287V7.99782H6.02109V6.78287H5.72109ZM6.17545 6.32852C5.92461 6.32852 5.72109 6.53203 5.72109 6.78287H6.02109C6.02109 6.69772 6.09029 6.62852 6.17545 6.62852V6.32852ZM6.78414 6.32852H6.17545V6.62852H6.78414V6.32852ZM7.84718 7.39156C7.84718 6.80532 7.37038 6.32852 6.78414 6.32852V6.62852C7.2047 6.62852 7.54718 6.971 7.54718 7.39156H7.84718ZM6.62981 7.69592V7.08723H6.32981V7.69592H6.62981ZM6.62981 7.69595V7.69592H6.32981V7.69595H6.62981ZM6.78417 7.54595H6.47981V7.84595H6.78417V7.54595ZM6.93852 7.39159C6.93852 7.47655 6.86892 7.54595 6.78417 7.54595V7.84595C7.03422 7.84595 7.23852 7.64262 7.23852 7.39159H6.93852ZM6.78417 7.23723C6.86892 7.23723 6.93852 7.30662 6.93852 7.39159H7.23852C7.23852 7.14055 7.03422 6.93723 6.78417 6.93723V7.23723ZM6.47981 7.23723H6.78417V6.93723H6.47981V7.23723ZM8.9134 9.06329H9.82645V8.76329H8.9134V9.06329ZM8.7634 8.304V8.91329H9.0634V8.304H8.7634ZM9.21773 8.154H8.9134V8.454H9.21773V8.154ZM9.37209 7.99964C9.37209 8.0848 9.30289 8.154 9.21773 8.154V8.454C9.46858 8.454 9.67209 8.25048 9.67209 7.99964H9.37209ZM9.21773 7.84531C9.30291 7.84531 9.37209 7.9145 9.37209 7.99964H9.67209C9.67209 7.74878 9.46856 7.54531 9.21773 7.54531V7.84531ZM8.9134 7.84531H9.21773V7.54531H8.9134V7.84531ZM8.7634 7.0872V7.69531H9.0634V7.0872H8.7634ZM9.82645 6.9372H8.9134V7.2372H9.82645V6.9372ZM9.98081 6.78285C9.98081 6.868 9.91161 6.9372 9.82645 6.9372V7.2372C10.0773 7.2372 10.2808 7.03369 10.2808 6.78285H9.98081ZM9.82645 6.62852C9.91162 6.62852 9.98081 6.69771 9.98081 6.78285H10.2808C10.2808 6.53198 10.0773 6.32852 9.82645 6.32852V6.62852ZM8.60905 6.62852H9.82645V6.32852H8.60905V6.62852ZM8.45469 6.78287C8.45469 6.69772 8.52389 6.62852 8.60905 6.62852V6.32852C8.3582 6.32852 8.15469 6.53203 8.15469 6.78287H8.45469ZM8.45469 7.99967V6.78287H8.15469V7.99967H8.45469ZM8.45469 9.21765V7.99967H8.15469V9.21765H8.45469ZM8.60905 9.37201C8.52389 9.37201 8.45469 9.30281 8.45469 9.21765H8.15469C8.15469 9.46849 8.3582 9.67201 8.60905 9.67201V9.37201ZM9.82645 9.37201H8.60905V9.67201H9.82645V9.37201ZM9.98081 9.21765C9.98081 9.30281 9.91161 9.37201 9.82645 9.37201V9.67201C10.0773 9.67201 10.2808 9.46849 10.2808 9.21765H9.98081ZM9.82645 9.06329C9.91161 9.06329 9.98081 9.13249 9.98081 9.21765H10.2808C10.2808 8.96681 10.0773 8.76329 9.82645 8.76329V9.06329ZM11.347 9.06329H12.26V8.76329H11.347V9.06329ZM11.197 8.304V8.91329H11.497V8.304H11.197ZM11.347 8.454H11.6513V8.154H11.347V8.454ZM11.6513 8.454C11.9022 8.454 12.1057 8.25048 12.1057 7.99964H11.8057C11.8057 8.0848 11.7365 8.154 11.6513 8.154V8.454ZM12.1057 7.99964C12.1057 7.74878 11.9022 7.54531 11.6513 7.54531V7.84531C11.7365 7.84531 11.8057 7.9145 11.8057 7.99964H12.1057ZM11.6513 7.54531H11.347V7.84531H11.6513V7.54531ZM11.197 7.0872V7.69531H11.497V7.0872H11.197ZM12.26 6.9372H11.347V7.2372H12.26V6.9372ZM12.4144 6.78285C12.4144 6.868 12.3452 6.9372 12.26 6.9372V7.2372C12.5109 7.2372 12.7144 7.03369 12.7144 6.78285H12.4144ZM12.26 6.62852C12.3452 6.62852 12.4144 6.69771 12.4144 6.78285H12.7144C12.7144 6.53198 12.5109 6.32852 12.26 6.32852V6.62852ZM11.0426 6.62852H12.26V6.32852H11.0426V6.62852ZM10.8883 6.78287C10.8883 6.69772 10.9575 6.62852 11.0426 6.62852V6.32852C10.7918 6.32852 10.5883 6.53203 10.5883 6.78287H10.8883ZM10.8883 7.99967V6.78287H10.5883V7.99967H10.8883ZM10.8883 9.21765V7.99967H10.5883V9.21765H10.8883ZM11.0426 9.37201C10.9575 9.37201 10.8883 9.30281 10.8883 9.21765H10.5883C10.5883 9.46849 10.7918 9.67201 11.0426 9.67201V9.37201ZM12.26 9.37201H11.0426V9.67201H12.26V9.37201ZM12.4144 9.21765C12.4144 9.30281 12.3452 9.37201 12.26 9.37201V9.67201C12.5109 9.67201 12.7144 9.46849 12.7144 9.21765H12.4144ZM12.26 9.06329C12.3452 9.06329 12.4144 9.13249 12.4144 9.21765H12.7144C12.7144 8.96681 12.5109 8.76329 12.26 8.76329V9.06329Z" fill="#282828"/>
</svg>
