<svg width="143" height="36" viewBox="0 0 143 36" fill="none" xmlns="http://www.w3.org/2000/svg">
<path d="M1.00672 31.2015H0.364012C0.26747 31.2015 0.174882 31.1636 0.106617 31.0963C0.0383512 31.0289 0 30.9376 0 30.8423C0 30.7471 0.0383512 30.6557 0.106617 30.5884C0.174882 30.521 0.26747 30.4832 0.364012 30.4832H2.63909C2.73563 30.4832 2.82822 30.521 2.89649 30.5884C2.96475 30.6557 3.0031 30.7471 3.0031 30.8423C3.0031 30.9376 2.96475 31.0289 2.89649 31.0963C2.82822 31.1636 2.73563 31.2015 2.63909 31.2015H1.97932V33.2946C1.98445 33.3593 1.97532 33.4243 1.95255 33.4851C1.92978 33.546 1.89392 33.6013 1.84743 33.6471C1.80095 33.693 1.74494 33.7284 1.68327 33.7508C1.62159 33.7733 1.55572 33.7823 1.49018 33.7772C1.42509 33.7815 1.35985 33.7718 1.29887 33.749C1.2379 33.7261 1.18261 33.6906 1.13676 33.6449C1.09091 33.5991 1.05557 33.5441 1.03313 33.4837C1.0107 33.4233 1.00169 33.3588 1.00672 33.2946V31.2015ZM3.45243 30.9321C3.45243 30.6571 3.62306 30.4383 4.13495 30.4383C4.4364 30.4383 4.65253 30.4832 4.85729 30.9321L5.42606 32.3855L5.99483 30.9321C6.19959 30.4832 6.41572 30.4383 6.71717 30.4383C7.23475 30.4383 7.40538 30.6571 7.40538 30.9321V33.2946C7.40538 33.5864 7.31437 33.7772 6.96742 33.7772C6.62048 33.7772 6.52947 33.5864 6.52947 33.2946V31.6111L5.9607 33.2946C5.85832 33.5696 5.7787 33.7772 5.44881 33.7772C5.11892 33.7772 5.03361 33.5752 4.93692 33.2946L4.36815 31.6111V33.2946C4.36815 33.5864 4.28283 33.7772 3.9302 33.7772C3.57756 33.7772 3.49793 33.5864 3.49793 33.2946L3.45243 30.9321Z" fill="white"/>
<path d="M72.9217 12.6493C72.9217 15.0522 72.1995 17.4011 70.8464 19.399C69.4933 21.397 67.5702 22.9542 65.3201 23.8737C63.0701 24.7933 60.5942 25.0339 58.2055 24.5651C55.8168 24.0963 53.6227 22.9392 51.9006 21.2401C50.1785 19.541 49.0057 17.3762 48.5306 15.0195C48.0554 12.6627 48.2993 10.2199 49.2313 7.99995C50.1633 5.77996 51.7416 3.8825 53.7666 2.54752C55.7916 1.21254 58.1724 0.5 60.6078 0.5C63.8736 0.5 67.0057 1.78001 69.315 4.05844C71.6243 6.33687 72.9217 9.42708 72.9217 12.6493Z" fill="#FFA400"/>
<path d="M57.9629 8.78845C57.9641 9.17049 57.8503 9.54426 57.636 9.86246C57.4217 10.1806 57.1165 10.4289 56.7591 10.5759C56.4016 10.7229 56.0081 10.7619 55.6282 10.6881C55.2482 10.6142 54.8991 10.4308 54.6249 10.1611C54.3507 9.89131 54.1638 9.54735 54.0878 9.17274C54.0119 8.79812 54.0503 8.40969 54.1982 8.05663C54.3461 7.70356 54.5969 7.40174 54.9188 7.18937C55.2406 6.97701 55.6192 6.86365 56.0064 6.86365C56.5238 6.86512 57.0198 7.0682 57.3862 7.4287C57.7527 7.78919 57.9599 8.2779 57.9629 8.78845Z" fill="white"/>
<path d="M67.1827 8.78842C67.1838 9.17094 67.0697 9.54516 66.8549 9.86359C66.6401 10.182 66.3342 10.4303 65.9761 10.5769C65.6181 10.7236 65.2239 10.7619 64.8437 10.6872C64.4635 10.6124 64.1143 10.4279 63.8406 10.157C63.5668 9.88614 63.3808 9.54114 63.3062 9.16578C63.2315 8.79043 63.2715 8.40165 63.4212 8.04879C63.5709 7.69592 63.8234 7.39488 64.1468 7.18387C64.4702 6.97286 64.8498 6.8614 65.2375 6.86362C65.7539 6.8651 66.2486 7.06855 66.6133 7.42936C66.9779 7.79017 67.1827 8.2789 67.1827 8.78842Z" fill="white"/>
<path d="M60.6081 21.4596C62.7803 21.4581 64.876 20.6679 66.4956 19.2396C68.1152 17.8114 69.1454 15.8451 69.3899 13.7155C69.4023 13.6351 69.3968 13.553 69.3738 13.4748C69.3508 13.3967 69.3109 13.3245 69.2568 13.2631C69.2027 13.2017 69.1357 13.1526 69.0605 13.1193C68.9852 13.086 68.9036 13.0692 68.8211 13.0702C68.3434 13.0702 68.2524 13.5135 68.2182 13.7155C67.7845 15.3794 66.8022 16.8538 65.426 17.9065C64.0499 18.9592 62.358 19.5306 60.6166 19.5306C58.8753 19.5306 57.1834 18.9592 55.8072 17.9065C54.4311 16.8538 53.4488 15.3794 53.015 13.7155C52.9525 13.5135 52.8899 13.0702 52.4121 13.0702C52.3297 13.0692 52.248 13.086 52.1728 13.1193C52.0976 13.1526 52.0306 13.2017 51.9765 13.2631C51.9224 13.3245 51.8825 13.3967 51.8595 13.4748C51.8365 13.553 51.831 13.6351 51.8434 13.7155C52.0864 15.8436 53.1146 17.8091 54.7321 19.2373C56.3496 20.6655 58.4432 21.4565 60.6138 21.4596" fill="white"/>
<path d="M133.473 18.6706C133.242 18.671 133.013 18.7192 132.801 18.8123C132.59 18.9054 132.401 19.0412 132.246 19.211C132.091 19.3807 131.974 19.5807 131.902 19.7979C131.83 20.0151 131.806 20.2447 131.829 20.4719V24.8322C131.833 25.1133 131.778 25.392 131.669 25.6515C131.559 25.9111 131.397 26.1459 131.193 26.3417C130.989 26.5375 130.746 26.6903 130.48 26.7906C130.214 26.891 129.93 26.9368 129.645 26.9254H110.978C110.558 26.877 110.164 26.7033 109.846 26.4275C109.529 26.1518 109.305 25.787 109.204 25.3822V20.4719C109.227 20.2447 109.202 20.0151 109.13 19.7981C109.058 19.581 108.941 19.3813 108.785 19.2118C108.63 19.0423 108.441 18.9068 108.229 18.814C108.018 18.7213 107.789 18.6734 107.557 18.6734C107.326 18.6734 107.097 18.7213 106.885 18.814C106.674 18.9068 106.484 19.0423 106.329 19.2118C106.174 19.3813 106.056 19.581 105.984 19.7981C105.912 20.0151 105.887 20.2447 105.911 20.4719V21.0331C105.865 21.2071 105.842 25.3709 105.842 25.3709C105.716 25.8229 105.437 26.2193 105.053 26.4954C104.669 26.7715 104.201 26.9112 103.727 26.8917H92.1919C91.6746 26.8409 91.1957 26.5995 90.8509 26.2157C90.5062 25.8318 90.3208 25.3338 90.332 24.821C90.332 24.821 90.2922 20.1914 90.2922 19.72V18.4574C90.3059 18.2165 90.2697 17.9753 90.1857 17.7487C90.1018 17.5221 89.9718 17.3148 89.8038 17.1395C89.6359 16.9642 89.4334 16.8245 89.2088 16.729C88.9842 16.6336 88.7422 16.5844 88.4977 16.5844C88.2532 16.5844 88.0112 16.6336 87.7866 16.729C87.562 16.8245 87.3596 16.9642 87.1916 17.1395C87.0236 17.3148 86.8936 17.5221 86.8097 17.7487C86.7257 17.9753 86.6895 18.2165 86.7032 18.4574V26.7009C86.7032 28.7772 85.2187 30.5954 83.046 30.5954C80.1567 30.5954 79.7187 33.8502 83.046 33.8502C84.4109 33.8636 85.7518 33.4962 86.9141 32.7903C88.0764 32.0843 89.0128 31.0686 89.6153 29.8603C90.4219 30.2081 91.2891 30.3986 92.1691 30.4214H103.709C105.059 30.4824 106.392 30.0995 107.497 29.3328C108.505 30.0367 109.709 30.415 110.944 30.4158H129.634C133.109 30.4158 135.106 28.564 135.106 25.6796V20.4607C135.128 20.2353 135.102 20.0079 135.03 19.7928C134.958 19.5777 134.842 19.3797 134.689 19.2113C134.535 19.043 134.348 18.908 134.138 18.8149C133.929 18.7218 133.703 18.6727 133.473 18.6706Z" fill="#FEFEFE"/>
<path d="M77.8868 18.6706C77.6553 18.671 77.4264 18.7192 77.215 18.8123C77.0035 18.9054 76.8142 19.0412 76.6593 19.211C76.5044 19.3808 76.3873 19.5807 76.3156 19.7979C76.2439 20.0151 76.2192 20.2447 76.2431 20.472V24.8322C76.2457 25.1121 76.1904 25.3895 76.0805 25.6475C75.9706 25.9055 75.8084 26.1386 75.6038 26.3325C75.3993 26.5264 75.1568 26.677 74.8911 26.7751C74.6255 26.8732 74.3423 26.9167 74.059 26.9029H55.2896C54.8699 26.8586 54.4738 26.6893 54.1538 26.4177C53.8339 26.1461 53.6051 25.785 53.498 25.3822V20.472C53.5253 20.243 53.5032 20.0109 53.4331 19.7909C53.363 19.5709 53.2465 19.3681 53.0912 19.1958C52.9359 19.0235 52.7454 18.8856 52.5322 18.7911C52.319 18.6967 52.0879 18.6478 51.8542 18.6478C51.6205 18.6478 51.3895 18.6967 51.1763 18.7911C50.9631 18.8856 50.7726 19.0235 50.6173 19.1958C50.462 19.3681 50.3455 19.5709 50.2754 19.7909C50.2052 20.0109 50.1831 20.243 50.2105 20.472V21.0331C50.2105 21.4652 50.1422 25.371 50.1422 25.371C50.0155 25.8229 49.7373 26.2193 49.3532 26.4954C48.969 26.7716 48.5013 26.9112 48.0264 26.8917H39.8475C39.3302 26.841 38.8514 26.5996 38.5066 26.2157C38.1618 25.8318 37.9765 25.3338 37.9876 24.821V20.472C38.015 20.243 37.9929 20.0109 37.9228 19.7909C37.8526 19.5709 37.7361 19.3681 37.5808 19.1958C37.4256 19.0235 37.235 18.8856 37.0218 18.7911C36.8086 18.6967 36.5776 18.6478 36.3439 18.6478C36.1102 18.6478 35.8791 18.6967 35.6659 18.7911C35.4527 18.8856 35.2622 19.0235 35.107 19.1958C34.9517 19.3681 34.8351 19.5709 34.765 19.7909C34.6949 20.0109 34.6728 20.243 34.7001 20.472V24.8322C34.7028 25.1121 34.6475 25.3895 34.5376 25.6475C34.4276 25.9055 34.2654 26.1386 34.0609 26.3325C33.8564 26.5264 33.6139 26.677 33.3482 26.7751C33.0826 26.8732 32.7994 26.9167 32.5161 26.9029H19.7813C19.264 26.8522 18.7852 26.6108 18.4404 26.2269C18.0956 25.8431 17.9103 25.345 17.9215 24.8322C17.9215 24.8322 17.9215 20.0174 17.9215 19.9445V18.4574C17.9447 18.2162 17.915 17.9729 17.8342 17.7441C17.7535 17.5153 17.6236 17.3064 17.4535 17.1316C17.2834 16.9569 17.0771 16.8204 16.8487 16.7316C16.6202 16.6427 16.375 16.6035 16.1298 16.6167C15.8837 16.6019 15.6372 16.6398 15.4074 16.7279C15.1776 16.816 14.9698 16.9522 14.7984 17.1271C14.6271 17.3021 14.4962 17.5116 14.4148 17.7412C14.3334 17.9709 14.3034 18.2152 14.3268 18.4574V26.7009C14.3268 28.7772 12.8423 30.5954 10.664 30.5954C7.77461 30.5954 7.34234 33.8502 10.664 33.8502C12.0273 33.8634 13.3668 33.4971 14.5288 32.7933C15.6907 32.0896 16.6281 31.0769 17.2332 29.8715C18.031 30.2158 18.8882 30.4063 19.7586 30.4327H32.5104C33.878 30.494 35.2265 30.0986 36.3382 29.3103C37.3495 30.0373 38.5679 30.4301 39.8191 30.4327H48.0264C49.379 30.4932 50.7136 30.1083 51.8201 29.3384C52.8279 30.0423 54.0321 30.4207 55.2668 30.4215H74.0362C77.5057 30.4215 79.5078 28.5696 79.5078 25.6852V20.4664C79.5307 20.2414 79.5059 20.0143 79.4352 19.7993C79.3645 19.5843 79.2493 19.3861 79.0969 19.2173C78.9446 19.0485 78.7583 18.9128 78.55 18.8187C78.3417 18.7246 78.1159 18.6741 77.8868 18.6706Z" fill="white"/>
<path d="M139.389 15.9209C139.375 15.6785 139.411 15.4359 139.496 15.2079C139.58 14.9799 139.711 14.7713 139.88 14.5949C140.049 14.4185 140.253 14.2779 140.479 14.1819C140.705 14.0859 140.948 14.0363 141.194 14.0363C141.44 14.0363 141.684 14.0859 141.91 14.1819C142.136 14.2779 142.34 14.4185 142.509 14.5949C142.678 14.7713 142.809 14.9799 142.893 15.2079C142.978 15.4359 143.014 15.6785 143 15.9209V28.5864C143.014 28.8288 142.978 29.0714 142.893 29.2994C142.809 29.5274 142.678 29.736 142.509 29.9124C142.34 30.0888 142.136 30.2293 141.91 30.3254C141.684 30.4214 141.44 30.4709 141.194 30.4709C140.948 30.4709 140.705 30.4214 140.479 30.3254C140.253 30.2293 140.049 30.0888 139.88 29.9124C139.711 29.736 139.58 29.5274 139.496 29.2994C139.411 29.0714 139.375 28.8288 139.389 28.5864V15.9209Z" fill="#FEFEFE"/>
<path d="M133.513 17.5034C133.164 17.5111 132.821 17.4157 132.528 17.2294C132.235 17.0432 132.005 16.7745 131.868 16.4582C131.731 16.1418 131.693 15.7922 131.759 15.4544C131.825 15.1166 131.992 14.8061 132.239 14.5628C132.486 14.3195 132.8 14.1547 133.143 14.0895C133.485 14.0242 133.839 14.0617 134.16 14.1969C134.481 14.3321 134.753 14.559 134.942 14.8482C135.131 15.1375 135.227 15.4759 135.219 15.8199C135.219 16.2663 135.04 16.6946 134.72 17.0103C134.4 17.326 133.966 17.5034 133.513 17.5034Z" fill="#FEFEFE"/>
<path d="M105.723 17.5034C105.374 17.5111 105.031 17.4157 104.738 17.2294C104.445 17.0432 104.215 16.7745 104.078 16.4582C103.941 16.1418 103.903 15.7922 103.969 15.4544C104.035 15.1166 104.202 14.8061 104.449 14.5628C104.696 14.3195 105.01 14.1547 105.353 14.0895C105.695 14.0242 106.049 14.0617 106.37 14.1969C106.691 14.3321 106.963 14.559 107.152 14.8482C107.34 15.1375 107.437 15.4759 107.429 15.8199C107.429 16.2663 107.25 16.6946 106.93 17.0103C106.61 17.326 106.176 17.5034 105.723 17.5034Z" fill="#FEFEFE"/>
<path d="M109.363 17.5034C109.014 17.5111 108.671 17.4157 108.378 17.2294C108.085 17.0432 107.855 16.7745 107.718 16.4582C107.581 16.1418 107.543 15.7922 107.609 15.4544C107.675 15.1166 107.842 14.8061 108.089 14.5628C108.335 14.3195 108.65 14.1547 108.992 14.0895C109.335 14.0242 109.689 14.0617 110.01 14.1969C110.33 14.3321 110.603 14.559 110.791 14.8482C110.98 15.1375 111.077 15.4759 111.069 15.8199C111.069 16.2663 110.889 16.6946 110.569 17.0103C110.249 17.326 109.815 17.5034 109.363 17.5034Z" fill="#FEFEFE"/>
<path d="M76.1126 17.5034C75.764 17.5111 75.421 17.4157 75.1279 17.2294C74.8347 17.0432 74.6048 16.7745 74.4677 16.4582C74.3306 16.1418 74.2927 15.7922 74.3588 15.4544C74.4249 15.1166 74.592 14.8061 74.8386 14.5628C75.0851 14.3195 75.3999 14.1547 75.7423 14.0895C76.0847 14.0242 76.439 14.0617 76.7596 14.1969C77.0803 14.3321 77.3525 14.559 77.5413 14.8482C77.7301 15.1375 77.8268 15.4759 77.819 15.8199C77.819 16.2663 77.6392 16.6946 77.3192 17.0103C76.9992 17.326 76.5652 17.5034 76.1126 17.5034Z" fill="#FEFEFE"/>
<path d="M79.7474 17.5034C79.3988 17.5111 79.0558 17.4157 78.7626 17.2294C78.4695 17.0432 78.2395 16.7745 78.1025 16.4582C77.9654 16.1418 77.9275 15.7922 77.9936 15.4544C78.0597 15.1166 78.2268 14.8061 78.4733 14.5628C78.7199 14.3195 79.0347 14.1547 79.377 14.0895C79.7194 14.0242 80.0738 14.0617 80.3944 14.1969C80.715 14.3321 80.9873 14.559 81.1761 14.8482C81.3649 15.1375 81.4616 15.4759 81.4537 15.8199C81.4537 16.2663 81.2739 16.6946 80.9539 17.0103C80.634 17.326 80.2 17.5034 79.7474 17.5034Z" fill="#FEFEFE"/>
<path d="M36.3558 17.5034C36.0072 17.5111 35.6642 17.4157 35.371 17.2294C35.0779 17.0432 34.8479 16.7745 34.7109 16.4582C34.5738 16.1418 34.5359 15.7922 34.602 15.4544C34.6681 15.1166 34.8352 14.8061 35.0817 14.5628C35.3283 14.3195 35.6431 14.1547 35.9854 14.0895C36.3278 14.0242 36.6822 14.0617 37.0028 14.1969C37.3234 14.3321 37.5957 14.559 37.7845 14.8482C37.9733 15.1375 38.07 15.4759 38.0621 15.8199C38.0621 16.2663 37.8823 16.6946 37.5623 17.0103C37.2424 17.326 36.8083 17.5034 36.3558 17.5034Z" fill="white"/>
<path d="M50.0521 35.5C49.7035 35.5078 49.3605 35.4124 49.0673 35.2261C48.7742 35.0398 48.5442 34.7712 48.4072 34.4548C48.2701 34.1385 48.2322 33.7889 48.2983 33.4511C48.3644 33.1133 48.5315 32.8027 48.778 32.5595C49.0246 32.3162 49.3394 32.1513 49.6817 32.0861C50.0241 32.0209 50.3784 32.0583 50.6991 32.1935C51.0197 32.3288 51.292 32.5556 51.4808 32.8449C51.6696 33.1341 51.7663 33.4725 51.7584 33.8165C51.7584 34.263 51.5786 34.6912 51.2586 35.0069C50.9386 35.3226 50.5046 35.5 50.0521 35.5Z" fill="white"/>
<path d="M53.7035 35.5C53.3548 35.5078 53.0119 35.4124 52.7187 35.2261C52.4255 35.0398 52.1956 34.7712 52.0585 34.4548C51.9215 34.1385 51.8835 33.7889 51.9496 33.4511C52.0157 33.1133 52.1828 32.8027 52.4294 32.5595C52.676 32.3162 52.9907 32.1513 53.3331 32.0861C53.6755 32.0209 54.0298 32.0583 54.3504 32.1935C54.6711 32.3288 54.9433 32.5556 55.1321 32.8449C55.3209 33.1341 55.4176 33.4725 55.4098 33.8165C55.4098 34.263 55.23 34.6912 54.91 35.0069C54.59 35.3226 54.156 35.5 53.7035 35.5Z" fill="white"/>
</svg>
