<svg width="129" height="84" viewBox="0 0 129 84" fill="none" xmlns="http://www.w3.org/2000/svg">
<path d="M0.126482 27.22H10.0553V24.8801H3.05665C3.11989 22.0553 9.82344 21.2332 9.82344 16.4269C9.82344 13.6021 7.58892 12 4.95388 12C1.37022 12 0 14.9934 0 14.9934L2.02371 16.3425C2.02371 16.3425 2.97233 14.5718 4.72199 14.5718C5.98681 14.5718 6.99867 15.3518 6.99867 16.6588C6.99867 19.6311 0 20.4954 0 25.8919C0 26.3135 0.063241 26.7352 0.126482 27.22Z" fill="#282828"/>
<path d="M30.1667 27.22H39.3156V24.8801H36.0692V12.253H33.6871L29.9348 15.8577L31.537 17.5441L32.7385 16.4058C33.2234 15.9209 33.392 15.5626 33.392 15.5626H33.4342C33.4342 15.5626 33.4131 16.0685 33.4131 16.5744V24.8801H30.1667V27.22Z" fill="#282828"/>
<path d="M12.5651 23.4557H13.6334V21.0788H15.5796V20.1596H13.6334V18.495H15.944V17.5757H12.5651V23.4557Z" fill="#282828"/>
<path d="M16.5427 20.4743C16.5427 22.2051 17.8512 23.555 19.582 23.555C21.3129 23.555 22.6214 22.2051 22.6214 20.4743C22.6214 18.7931 21.3129 17.4764 19.582 17.4764C17.8512 17.4764 16.5427 18.7931 16.5427 20.4743ZM17.6441 20.4743C17.6441 19.3149 18.5054 18.4536 19.582 18.4536C20.6586 18.4536 21.5199 19.3149 21.5199 20.4743C21.5199 21.6834 20.6586 22.5778 19.582 22.5778C18.5054 22.5778 17.6441 21.6834 17.6441 20.4743Z" fill="#282828"/>
<path d="M23.7096 23.4557H24.7779V21.261H25.8048L26.9725 23.4557H28.1651L26.956 21.261C26.84 21.054 26.7572 20.9712 26.7572 20.9712V20.9546C27.3783 20.7062 27.751 20.0519 27.751 19.348C27.751 18.5695 27.3783 18.0064 26.7903 17.7414C26.5336 17.6254 26.2438 17.5757 25.6061 17.5757H23.7096V23.4557ZM24.7779 20.3335V18.495H25.5895C26.426 18.495 26.6661 18.8428 26.6661 19.406C26.6661 19.994 26.31 20.3335 25.7386 20.3335H24.7779Z" fill="#282828"/>
<rect x="44.6" y="0.6" width="38.8" height="38.8" rx="19.4" stroke="#282828" stroke-width="1.2"/>
<path fill-rule="evenodd" clip-rule="evenodd" d="M62.6658 16.1218C62.6658 17.7259 61.3608 19.0309 59.7567 19.0309C58.1527 19.0309 56.8477 17.7259 56.8477 16.1218V15.1521H58.787V16.1218C58.787 16.6565 59.222 17.0915 59.7567 17.0915C60.2914 17.0915 60.7264 16.6565 60.7264 16.1218C60.7264 15.5871 60.2914 15.1521 59.7567 15.1521V13.2128C60.2914 13.2128 60.7264 12.7778 60.7264 12.2431C60.7264 11.7084 60.2914 11.2734 59.7567 11.2734C59.222 11.2734 58.787 11.7084 58.787 12.2431V13.2128H56.8477V12.2431C56.8477 10.639 58.1527 9.33398 59.7567 9.33398C61.3608 9.33398 62.6658 10.639 62.6658 12.2431C62.6658 12.9875 62.3848 13.6674 61.9233 14.1824C62.3848 14.6975 62.6658 15.3774 62.6658 16.1218ZM70.4236 16.1218C70.4236 17.7259 69.1186 19.0309 67.5145 19.0309C65.9105 19.0309 64.6055 17.7259 64.6055 16.1218V12.2431C64.6055 10.639 65.9105 9.33398 67.5145 9.33398C69.1186 9.33398 70.4236 10.639 70.4236 12.2431V16.1218ZM67.5145 11.2734C66.9799 11.2734 66.5449 11.7084 66.5449 12.2431V16.1218C66.5449 16.6565 66.9799 17.0915 67.5145 17.0915C68.0492 17.0915 68.4842 16.6565 68.4842 16.1218V12.2431C68.4842 11.7084 68.0492 11.2734 67.5145 11.2734ZM61.6942 20.9707C60.0902 20.9707 58.7852 22.2757 58.7852 23.8798V30.6676H60.7245V26.7889H62.6639V30.6676H64.6033V23.8798C64.6033 22.2757 63.2983 20.9707 61.6942 20.9707ZM60.7245 24.8495V23.8798C60.7245 23.3451 61.1595 22.9101 61.6942 22.9101C62.2289 22.9101 62.6639 23.3451 62.6639 23.8798V24.8495H60.7245ZM52 20.9707H54.9091C56.5131 20.9707 57.8182 22.2757 57.8182 23.8798V27.7586C57.8182 29.3626 56.5131 30.6676 54.9091 30.6676H52V20.9707ZM54.9091 28.7282C55.4438 28.7282 55.8788 28.2932 55.8788 27.7586V23.8798C55.8788 23.3451 55.4438 22.9101 54.9091 22.9101H53.9394V28.7282H54.9091ZM73.3349 22.9101C73.5938 22.9101 73.8374 23.0109 74.0206 23.1941L74.7063 23.8798L76.0776 22.5084L75.3919 21.8227C74.8424 21.2733 74.1119 20.9707 73.3349 20.9707C71.7308 20.9707 70.4258 22.2757 70.4258 23.8798C70.4258 25.4838 71.7308 26.7889 73.3349 26.7889C73.8695 26.7889 74.3046 27.2239 74.3046 27.7586C74.3046 28.2932 73.8695 28.7282 73.3349 28.7282C73.0758 28.7282 72.8323 28.6273 72.6492 28.4442L71.9635 27.7586L70.5922 29.13L71.2779 29.8156C71.8274 30.365 72.5579 30.6676 73.3349 30.6676C74.9389 30.6676 76.2439 29.3626 76.2439 27.7586C76.2439 26.1545 74.9389 24.8495 73.3349 24.8495C72.8002 24.8495 72.3652 24.4145 72.3652 23.8798C72.3652 23.3451 72.8002 22.9101 73.3349 22.9101ZM69.0235 20.6387L70.7581 21.506L68.4874 26.0474V30.6669H66.548V26.0474L64.2773 21.506L66.012 20.6387L67.5177 23.6502L69.0235 20.6387Z" fill="#282828"/>
<rect x="89.6" y="0.6" width="38.8" height="38.8" rx="19.4" stroke="#282828" stroke-width="1.2"/>
<path d="M118.2 22.583C118.2 25.5308 115.195 27.9966 108.79 27.9966C105.442 28.0592 102.138 27.2667 99.2275 25.703C99.1689 25.6674 99.1189 25.6205 99.0808 25.5654C99.0426 25.5103 99.0172 25.4483 99.0062 25.3833C98.9952 25.3183 98.9988 25.2518 99.0168 25.1883C99.0349 25.1247 99.0668 25.0654 99.1107 25.0143L101.197 22.5555C101.27 22.4692 101.374 22.4106 101.489 22.3904C101.604 22.3701 101.723 22.3896 101.824 22.4453C104.018 23.5794 106.486 24.1561 108.987 24.1189C110.928 24.1189 112.022 23.9054 112.022 23.2167C112.022 22.5279 111.037 22.3695 108.484 22.2111C103.903 21.9494 99.4098 20.6201 99.4098 17.2314C99.4098 14.0976 103.057 12.0039 108.739 12.0039C111.612 11.9474 114.461 12.5104 117.069 13.65C117.132 13.6819 117.186 13.7262 117.228 13.7799C117.271 13.8336 117.3 13.8953 117.315 13.9609C117.329 14.0264 117.329 14.0941 117.313 14.1594C117.297 14.2246 117.266 14.2858 117.223 14.3387L115.166 16.8664C115.095 16.9516 114.996 17.0113 114.884 17.0351C114.772 17.059 114.655 17.0456 114.553 16.9973C112.72 16.2203 110.725 15.8459 108.717 15.9022C107.12 15.9022 105.632 16.0606 105.632 16.7493C105.632 17.4381 106.865 17.4932 109.279 17.624C114.239 17.8651 118.2 19.2426 118.2 22.583Z" fill="#282828"/>
<path d="M0.126482 71.22H10.0553V68.8801H3.05665C3.11989 66.0553 9.82344 65.2332 9.82344 60.4269C9.82344 57.6021 7.58892 56 4.95388 56C1.37022 56 0 58.9934 0 58.9934L2.02371 60.3425C2.02371 60.3425 2.97233 58.5718 4.72199 58.5718C5.98681 58.5718 6.99867 59.3518 6.99867 60.6588C6.99867 63.6311 0 64.4954 0 69.8919C0 70.3135 0.063241 70.7352 0.126482 71.22Z" fill="#2F85FE"/>
<path d="M30.1667 71.22H39.3156V68.8801H36.0692V56.253H33.6871L29.9348 59.8577L31.537 61.5441L32.7385 60.4058C33.2234 59.9209 33.392 59.5626 33.392 59.5626H33.4342C33.4342 59.5626 33.4131 60.0685 33.4131 60.5744V68.8801H30.1667V71.22Z" fill="#2F85FE"/>
<path d="M12.5651 67.4557H13.6334V65.0788H15.5796V64.1596H13.6334V62.495H15.944V61.5757H12.5651V67.4557Z" fill="#2F85FE"/>
<path d="M16.5427 64.4743C16.5427 66.2051 17.8512 67.555 19.582 67.555C21.3129 67.555 22.6214 66.2051 22.6214 64.4743C22.6214 62.7931 21.3129 61.4764 19.582 61.4764C17.8512 61.4764 16.5427 62.7931 16.5427 64.4743ZM17.6441 64.4743C17.6441 63.3149 18.5054 62.4536 19.582 62.4536C20.6586 62.4536 21.5199 63.3149 21.5199 64.4743C21.5199 65.6834 20.6586 66.5778 19.582 66.5778C18.5054 66.5778 17.6441 65.6834 17.6441 64.4743Z" fill="#2F85FE"/>
<path d="M23.7096 67.4557H24.7779V65.261H25.8048L26.9725 67.4557H28.1651L26.956 65.261C26.84 65.054 26.7572 64.9712 26.7572 64.9712V64.9546C27.3783 64.7062 27.751 64.0519 27.751 63.348C27.751 62.5695 27.3783 62.0064 26.7903 61.7414C26.5336 61.6254 26.2438 61.5757 25.6061 61.5757H23.7096V67.4557ZM24.7779 64.3335V62.495H25.5895C26.426 62.495 26.6661 62.8428 26.6661 63.406C26.6661 63.994 26.31 64.3335 25.7386 64.3335H24.7779Z" fill="#2F85FE"/>
<rect x="44.6" y="44.6" width="38.8" height="38.8" rx="19.4" stroke="#2F85FE" stroke-width="1.2"/>
<path fill-rule="evenodd" clip-rule="evenodd" d="M62.6658 60.1218C62.6658 61.7259 61.3608 63.0309 59.7567 63.0309C58.1527 63.0309 56.8477 61.7259 56.8477 60.1218V59.1521H58.787V60.1218C58.787 60.6565 59.222 61.0915 59.7567 61.0915C60.2914 61.0915 60.7264 60.6565 60.7264 60.1218C60.7264 59.5871 60.2914 59.1521 59.7567 59.1521V57.2128C60.2914 57.2128 60.7264 56.7778 60.7264 56.2431C60.7264 55.7084 60.2914 55.2734 59.7567 55.2734C59.222 55.2734 58.787 55.7084 58.787 56.2431V57.2128H56.8477V56.2431C56.8477 54.639 58.1527 53.334 59.7567 53.334C61.3608 53.334 62.6658 54.639 62.6658 56.2431C62.6658 56.9875 62.3848 57.6674 61.9233 58.1824C62.3848 58.6975 62.6658 59.3774 62.6658 60.1218ZM70.4236 60.1218C70.4236 61.7259 69.1186 63.0309 67.5145 63.0309C65.9105 63.0309 64.6055 61.7259 64.6055 60.1218V56.2431C64.6055 54.639 65.9105 53.334 67.5145 53.334C69.1186 53.334 70.4236 54.639 70.4236 56.2431V60.1218ZM67.5145 55.2734C66.9799 55.2734 66.5449 55.7084 66.5449 56.2431V60.1218C66.5449 60.6565 66.9799 61.0915 67.5145 61.0915C68.0492 61.0915 68.4842 60.6565 68.4842 60.1218V56.2431C68.4842 55.7084 68.0492 55.2734 67.5145 55.2734ZM61.6942 64.9707C60.0902 64.9707 58.7852 66.2757 58.7852 67.8798V74.6676H60.7245V70.7889H62.6639V74.6676H64.6033V67.8798C64.6033 66.2757 63.2983 64.9707 61.6942 64.9707ZM60.7245 68.8495V67.8798C60.7245 67.3451 61.1595 66.9101 61.6942 66.9101C62.2289 66.9101 62.6639 67.3451 62.6639 67.8798V68.8495H60.7245ZM52 64.9707H54.9091C56.5131 64.9707 57.8182 66.2757 57.8182 67.8798V71.7586C57.8182 73.3626 56.5131 74.6676 54.9091 74.6676H52V64.9707ZM54.9091 72.7282C55.4438 72.7282 55.8788 72.2932 55.8788 71.7586V67.8798C55.8788 67.3451 55.4438 66.9101 54.9091 66.9101H53.9394V72.7282H54.9091ZM73.3349 66.9101C73.5938 66.9101 73.8374 67.0109 74.0206 67.1941L74.7063 67.8798L76.0776 66.5084L75.3919 65.8227C74.8424 65.2733 74.1119 64.9707 73.3349 64.9707C71.7308 64.9707 70.4258 66.2757 70.4258 67.8798C70.4258 69.4838 71.7308 70.7889 73.3349 70.7889C73.8695 70.7889 74.3046 71.2239 74.3046 71.7586C74.3046 72.2932 73.8695 72.7282 73.3349 72.7282C73.0758 72.7282 72.8323 72.6273 72.6492 72.4442L71.9635 71.7586L70.5922 73.13L71.2779 73.8156C71.8274 74.365 72.5579 74.6676 73.3349 74.6676C74.9389 74.6676 76.2439 73.3626 76.2439 71.7586C76.2439 70.1545 74.9389 68.8495 73.3349 68.8495C72.8002 68.8495 72.3652 68.4145 72.3652 67.8798C72.3652 67.3451 72.8002 66.9101 73.3349 66.9101ZM69.0235 64.6387L70.7581 65.506L68.4874 70.0474V74.6669H66.548V70.0474L64.2773 65.506L66.012 64.6387L67.5177 67.6502L69.0235 64.6387Z" fill="#2F85FE"/>
<rect x="89.6" y="44.6" width="38.8" height="38.8" rx="19.4" stroke="#2F85FE" stroke-width="1.2"/>
<path d="M118.2 66.583C118.2 69.5308 115.195 71.9966 108.79 71.9966C105.442 72.0592 102.138 71.2667 99.2275 69.703C99.1689 69.6674 99.1189 69.6205 99.0808 69.5654C99.0426 69.5103 99.0172 69.4483 99.0062 69.3833C98.9952 69.3183 98.9988 69.2518 99.0168 69.1883C99.0349 69.1247 99.0668 69.0654 99.1107 69.0143L101.197 66.5555C101.27 66.4692 101.374 66.4106 101.489 66.3904C101.604 66.3701 101.723 66.3896 101.824 66.4453C104.018 67.5794 106.486 68.1561 108.987 68.1189C110.928 68.1189 112.022 67.9054 112.022 67.2167C112.022 66.5279 111.037 66.3695 108.484 66.2111C103.903 65.9494 99.4098 64.6201 99.4098 61.2314C99.4098 58.0976 103.057 56.0039 108.739 56.0039C111.612 55.9474 114.461 56.5104 117.069 57.65C117.132 57.6819 117.186 57.7262 117.228 57.7799C117.271 57.8336 117.3 57.8953 117.315 57.9609C117.329 58.0264 117.329 58.0941 117.313 58.1594C117.297 58.2246 117.266 58.2858 117.223 58.3387L115.166 60.8664C115.095 60.9516 114.996 61.0113 114.884 61.0351C114.772 61.059 114.655 61.0456 114.553 60.9973C112.72 60.2203 110.725 59.8459 108.717 59.9022C107.12 59.9022 105.632 60.0606 105.632 60.7493C105.632 61.4381 106.865 61.4932 109.279 61.624C114.239 61.8651 118.2 63.2426 118.2 66.583Z" fill="#2F85FE"/>
</svg>
