<svg width="118" height="47" viewBox="0 0 118 47" fill="none" xmlns="http://www.w3.org/2000/svg">
<g id="App store button">
<rect id="Rectangle 329" width="117.652" height="46.3478" rx="6" fill="#282828"/>
<g id="Group">
<g id="_Group_">
<g id="_Group_2">
<g id="_Group_3">
<path id="_Path_" d="M25.0225 23.6141C25.0452 21.8524 25.9688 20.2251 27.4697 19.3023C26.5185 17.9439 24.9825 17.1135 23.325 17.0616C21.5811 16.8785 19.8905 18.1051 19.0019 18.1051C18.096 18.1051 16.7278 17.0798 15.2545 17.1101C13.316 17.1727 11.5526 18.2481 10.6095 19.9429C8.60108 23.4202 10.0992 28.5306 12.0231 31.3413C12.9856 32.7177 14.1106 34.2551 15.5826 34.2006C17.023 34.1408 17.561 33.2821 19.2997 33.2821C21.0223 33.2821 21.527 34.2006 23.0289 34.1659C24.5745 34.1408 25.5484 32.7834 26.4772 31.3941C27.1688 30.4134 27.701 29.3295 28.054 28.1826C26.2183 27.4061 25.0246 25.6073 25.0225 23.6141Z" fill="white"/>
<path id="_Path_2" d="M22.1869 15.2128C23.0297 14.2011 23.4449 12.9008 23.3443 11.5879C22.0568 11.7231 20.8675 12.3385 20.0133 13.3114C19.1699 14.2712 18.7426 15.527 18.8256 16.8021C20.1304 16.8155 21.3693 16.2298 22.1869 15.2128Z" fill="white"/>
</g>
</g>
<g id="Group_2">
<path id="Shape" fill-rule="evenodd" clip-rule="evenodd" d="M38.7017 28.2002H42.6995L43.6587 31.035H45.3809L41.5942 20.5469H39.835L36.0483 31.035H37.7416L38.7017 28.2002ZM42.2855 26.8918H39.1166L40.6796 22.2911H40.7233L42.2855 26.8918Z" fill="white"/>
<path id="Shape_2" fill-rule="evenodd" clip-rule="evenodd" d="M50.3683 31.1167C52.2876 31.1167 53.5594 29.59 53.5594 27.2138C53.5594 24.8441 52.2801 23.31 50.3394 23.31C49.3408 23.2778 48.4053 23.7972 47.9046 24.6618H47.8757V23.39H46.3564V33.5663H47.926V29.7789H47.9623C48.4417 30.649 49.3762 31.1686 50.3683 31.1167ZM49.9258 24.6482C51.1465 24.6482 51.9466 25.666 51.9466 27.2142C51.9466 28.7763 51.1465 29.7867 49.9258 29.7867C48.7266 29.7867 47.9199 28.7549 47.9199 27.2142C47.9199 25.6875 48.7266 24.6482 49.9258 24.6482Z" fill="white"/>
<path id="Shape_3" fill-rule="evenodd" clip-rule="evenodd" d="M58.7833 31.1167C60.7026 31.1167 61.9744 29.59 61.9744 27.2138C61.9744 24.8441 60.6952 23.31 58.7544 23.31C57.7558 23.2778 56.8203 23.7972 56.3196 24.6618H56.2907V23.39H54.7715V33.5663H56.3411V29.7789H56.3774C56.8568 30.649 57.7912 31.1686 58.7833 31.1167ZM58.3407 24.6482C59.5614 24.6482 60.3615 25.666 60.3615 27.2142H60.3615C60.3615 28.7763 59.5614 29.7867 58.3407 29.7867C57.1415 29.7867 56.3348 28.7549 56.3348 27.2142C56.3348 25.6875 57.1415 24.6482 58.3407 24.6482Z" fill="white"/>
<path id="Path" d="M67.5374 28.1118C67.6537 29.1519 68.6641 29.8348 70.0448 29.8348C71.3677 29.8348 72.3195 29.1519 72.3195 28.2141C72.3195 27.4 71.7455 26.9126 70.3862 26.5785L69.027 26.2511C67.1011 25.7859 66.207 24.8852 66.207 23.4237C66.207 21.6141 67.784 20.3711 70.0233 20.3711C72.2395 20.3711 73.7588 21.6141 73.8099 23.4237H72.2255C72.1306 22.377 71.2654 21.7452 70.001 21.7452C68.7366 21.7452 67.8714 22.3844 67.8714 23.3148C67.8714 24.0563 68.424 24.4926 69.7759 24.8266L70.9314 25.1103C73.0833 25.6192 73.9774 26.4836 73.9774 28.0177C73.9774 29.9799 72.4144 31.2089 69.9284 31.2089C67.6025 31.2089 66.0321 30.0088 65.9307 28.1118L67.5374 28.1118Z" fill="white"/>
<path id="Path_2" d="M77.3641 21.5781V23.3877H78.8182V24.6307H77.3641V28.8462C77.3641 29.5011 77.6553 29.8063 78.2945 29.8063C78.4671 29.8033 78.6395 29.7911 78.8108 29.77V31.0055C78.5234 31.0592 78.2313 31.0835 77.939 31.0781C76.3909 31.0781 75.7871 30.4966 75.7871 29.0136V24.6307H74.6753V23.3877H75.7871V21.5781H77.3641Z" fill="white"/>
<path id="Shape_4" fill-rule="evenodd" clip-rule="evenodd" d="M83.2882 23.2949C81.0786 23.2949 79.6616 24.8068 79.6616 27.2127C79.6616 29.6252 81.0646 31.1305 83.2882 31.1305C85.5127 31.1305 86.9157 29.6252 86.9157 27.2127C86.9157 24.8067 85.5053 23.2949 83.2882 23.2949ZM83.2886 24.5879C84.5604 24.5879 85.3167 25.562 85.3167 27.2124H85.3167C85.3167 28.8694 84.5604 29.8361 83.2886 29.8361C82.0167 29.8361 81.2612 28.8694 81.2612 27.2124C81.2612 25.5694 82.0167 24.5879 83.2886 24.5879Z" fill="white"/>
<path id="Path_3" d="M88.2105 23.39H89.7075V24.6915H89.7438C89.9525 23.8536 90.7202 23.277 91.5831 23.3099C91.7639 23.3093 91.9443 23.3289 92.1208 23.3685V24.8366C91.8925 24.7669 91.6543 24.7348 91.4156 24.7418C90.9542 24.7231 90.5076 24.907 90.1931 25.2452C89.8787 25.5834 89.7278 26.0422 89.78 26.5011V31.0366H88.2104L88.2105 23.39Z" fill="white"/>
<path id="Shape_5" fill-rule="evenodd" clip-rule="evenodd" d="M96.0627 31.1305C97.7923 31.1305 99.1441 30.1778 99.3553 28.7897L97.8649 28.7897C97.5788 29.4992 96.8607 29.9366 96.099 29.8652C95.5279 29.8862 94.9752 29.6609 94.5817 29.2465C94.1881 28.8321 93.9915 28.2686 94.042 27.6993V27.6045H99.4427V27.0667C99.4427 24.7482 98.1123 23.2949 95.9967 23.2949C93.8456 23.2949 92.4575 24.8505 92.4575 27.249C92.4575 29.6401 93.8382 31.1305 96.0627 31.1305ZM97.8722 26.5076L94.0493 26.5076C94.048 25.9913 94.2529 25.4959 94.6186 25.1315C94.9843 24.767 95.4804 24.5638 95.9967 24.5668C96.5089 24.5558 97.0025 24.759 97.3585 25.1274C97.7145 25.4958 97.9007 25.996 97.8722 26.5076Z" fill="white"/>
<g id="_Group_4">
<g id="Group_3">
<path id="Shape_6" fill-rule="evenodd" clip-rule="evenodd" d="M41.7593 12.5285C41.3 12.0435 40.6473 11.7899 39.981 11.8378H38.1606V16.8773H39.981C41.4821 16.8773 42.3522 15.9518 42.3522 14.3418C42.4363 13.6791 42.2186 13.0136 41.7593 12.5285ZM39.8935 16.164H38.9434V12.5493H39.8935C40.3672 12.523 40.8278 12.7098 41.1494 13.0585C41.471 13.4073 41.62 13.8815 41.5555 14.3515C41.625 14.8234 41.4782 15.3016 41.1558 15.6532C40.8334 16.0048 40.3697 16.1924 39.8935 16.164Z" fill="white"/>
<path id="Shape_7" fill-rule="evenodd" clip-rule="evenodd" d="M44.0801 13.2689C43.4982 13.6299 43.1713 14.2896 43.2365 14.9713C43.1701 15.6537 43.4967 16.3147 44.079 16.6766C44.6614 17.0384 45.3987 17.0384 45.9811 16.6766C46.5635 16.3147 46.89 15.6537 46.8236 14.9713C46.8888 14.2896 46.5619 13.6299 45.98 13.2689C45.3982 12.9078 44.6619 12.9078 44.0801 13.2689ZM45.0302 13.666C45.6801 13.666 46.0504 14.1481 46.0504 14.9725H46.0504C46.0504 15.8002 45.6801 16.2818 45.0302 16.2819C44.3778 16.2819 44.0107 15.8035 44.0107 14.9725C44.0107 14.1481 44.3777 13.666 45.0302 13.666Z" fill="white"/>
<path id="Path_4" d="M51.592 16.8754H50.8134L50.0273 14.0744H49.968L49.1852 16.8754H48.414L47.3657 13.0723H48.127L48.8083 15.9743H48.8644L49.6463 13.0723H50.3663L51.1482 15.9743H51.2076L51.8856 13.0723H52.6362L51.592 16.8754Z" fill="white"/>
<path id="Path_5" d="M53.5176 13.0733H54.2401V13.6774H54.2962C54.4912 13.2326 54.947 12.9605 55.4311 12.9999C55.8059 12.9717 56.1733 13.1155 56.4294 13.3907C56.6854 13.6658 56.8025 14.0425 56.7475 14.4144V16.8764H55.9969V14.6029C55.9969 13.9917 55.7313 13.6877 55.1762 13.6877C54.922 13.6759 54.6752 13.7757 54.5007 13.9609C54.3262 14.1462 54.2412 14.3984 54.2681 14.6515V16.8764H53.5176L53.5176 13.0733Z" fill="white"/>
<path id="Path_6" d="M57.9435 11.5879H58.6941V16.8756H57.9435V11.5879Z" fill="white"/>
<path id="Shape_8" fill-rule="evenodd" clip-rule="evenodd" d="M60.5816 13.2708C59.9997 13.6319 59.6728 14.2916 59.738 14.9734C59.6716 15.6558 59.9982 16.3168 60.5807 16.6786C61.1631 17.0404 61.9003 17.0404 62.4828 16.6786C63.0652 16.3168 63.3918 15.6558 63.3254 14.9734C63.3906 14.2916 63.0637 13.6319 62.4818 13.2708C61.8999 12.9097 61.1636 12.9097 60.5816 13.2708ZM61.5316 13.668C62.1816 13.668 62.5519 14.1501 62.5519 14.9744H62.5519C62.5519 15.8021 62.1816 16.2838 61.5316 16.2838C60.8792 16.2838 60.5122 15.8054 60.5122 14.9744C60.5122 14.1501 60.8792 13.668 61.5316 13.668Z" fill="white"/>
<path id="Shape_9" fill-rule="evenodd" clip-rule="evenodd" d="M65.5288 14.6657C64.624 14.7218 64.1143 15.1164 64.1143 15.801C64.1155 16.1256 64.2541 16.4345 64.4956 16.6514C64.7371 16.8682 65.0591 16.9728 65.382 16.9392C65.8425 16.9605 66.2789 16.7324 66.5243 16.3421H66.5837V16.8765H67.3062V14.278C67.3062 13.4747 66.7684 13 65.815 13C64.9523 13 64.3378 13.419 64.2611 14.0722H64.9877C65.071 13.8033 65.3614 13.6495 65.7803 13.6495C66.2934 13.6495 66.5589 13.8763 66.5589 14.278V14.6063L65.5288 14.6657ZM66.5587 15.1582V15.4762C66.5422 15.7185 66.4282 15.9439 66.2425 16.1006C66.0569 16.2573 65.8156 16.332 65.5739 16.3075C65.1656 16.3075 64.8687 16.1084 64.8687 15.7661C64.8687 15.4308 65.1062 15.2526 65.6299 15.2176L66.5587 15.1582Z" fill="white"/>
<path id="Shape_10" fill-rule="evenodd" clip-rule="evenodd" d="M69.8721 13.0094C68.9112 13.0094 68.2935 13.7707 68.2935 14.9724C68.2935 16.1771 68.9046 16.9384 69.8721 16.9383C70.3626 16.9564 70.8227 16.7008 71.0664 16.2748H71.1258V16.8756H71.845V11.5879H71.0945V13.6767H71.0384C70.8117 13.2471 70.3573 12.9871 69.8721 13.0094ZM70.085 16.2644C69.4491 16.2644 69.0689 15.779 69.0689 14.9723H69.0688C69.0688 14.1723 69.4532 13.6836 70.085 13.6836C70.7135 13.6836 71.1086 14.183 71.1086 14.9756C71.1086 15.772 70.7176 16.2644 70.085 16.2644Z" fill="white"/>
<path id="Shape_11" fill-rule="evenodd" clip-rule="evenodd" d="M75.7934 13.2689C75.2116 13.6299 74.8847 14.2896 74.9499 14.9713C74.8835 15.6537 75.21 16.3147 75.7924 16.6766C76.3748 17.0384 77.1121 17.0384 77.6944 16.6766C78.2768 16.3147 78.6034 15.6537 78.5369 14.9713C78.6022 14.2896 78.2753 13.6299 77.6934 13.2689C77.1116 12.9078 76.3753 12.9078 75.7934 13.2689ZM76.7435 13.666C77.3935 13.666 77.7638 14.1481 77.7638 14.9725C77.7638 15.8002 77.3935 16.2818 76.7435 16.2819C76.0912 16.2819 75.7241 15.8035 75.7241 14.9725C75.7241 14.1481 76.0911 13.666 76.7435 13.666Z" fill="white"/>
<path id="Path_7" d="M79.5444 13.0733H80.267V13.6774H80.323C80.5181 13.2326 80.9739 12.9605 81.458 12.9999C81.8328 12.9717 82.2001 13.1155 82.4562 13.3907C82.7123 13.6658 82.8293 14.0425 82.7743 14.4144V16.8764H82.0238V14.6029C82.0238 13.9917 81.7582 13.6877 81.2031 13.6877C80.9488 13.6759 80.7021 13.7757 80.5276 13.9609C80.353 14.1462 80.2681 14.3984 80.295 14.6515V16.8764H79.5444V13.0733Z" fill="white"/>
<path id="Path_8" d="M87.0158 12.125V13.0892H87.8398V13.7214H87.0158V15.677C87.0158 16.0754 87.1799 16.2498 87.5535 16.2498C87.6492 16.2495 87.7448 16.2437 87.8398 16.2325V16.8577C87.705 16.8818 87.5684 16.8946 87.4315 16.896C86.5968 16.896 86.2644 16.6024 86.2644 15.8691V13.7214H85.6606V13.0891H86.2644V12.125H87.0158Z" fill="white"/>
<path id="Path_9" d="M88.8647 11.5879H89.6087V13.6837H89.6681C89.8725 13.235 90.3362 12.9625 90.8277 13.0024C91.2004 12.9821 91.5628 13.1291 91.8161 13.4033C92.0693 13.6775 92.1872 14.0503 92.1375 14.4202V16.8757H91.3862V14.6054C91.3862 13.9979 91.1032 13.6903 90.5729 13.6903C90.3118 13.6689 90.0545 13.7638 89.8699 13.9497C89.6853 14.1356 89.5921 14.3935 89.6153 14.6545V16.8756H88.8648L88.8647 11.5879Z" fill="white"/>
<path id="Shape_12" fill-rule="evenodd" clip-rule="evenodd" d="M94.8663 16.948C95.6096 17.0287 96.3038 16.5651 96.5142 15.8478L95.7917 15.8477C95.6116 16.1707 95.2541 16.3529 94.8869 16.3088C94.6037 16.312 94.3323 16.1955 94.1395 15.9881C93.9467 15.7806 93.8503 15.5015 93.8741 15.2193V15.1772H96.5596V14.9153C96.5596 13.7211 95.9212 12.9981 94.863 12.9981C94.3546 12.9938 93.8693 13.2103 93.5329 13.5915C93.1964 13.9727 93.042 14.4811 93.1095 14.985C93.0401 15.4876 93.1952 15.9952 93.5335 16.3732C93.8718 16.7512 94.3592 16.9614 94.8663 16.948ZM95.7955 14.6222H93.8746C93.8712 14.3599 93.9738 14.1074 94.1592 13.9219C94.3447 13.7364 94.5971 13.6337 94.8594 13.637C95.1181 13.631 95.3673 13.7346 95.5456 13.9223C95.7239 14.1099 95.8147 14.3641 95.7955 14.6222Z" fill="white"/>
</g>
</g>
</g>
</g>
</g>
</g>
</svg>
