<svg width="164" height="48" viewBox="0 0 164 48" fill="none" xmlns="http://www.w3.org/2000/svg">
<path d="M164 43.1884C164 45.8467 161.889 48 159.277 48H4.72876C2.11864 48 0 45.8467 0 43.1884V4.81784C0 2.1608 2.11864 0 4.72876 0H159.276C161.889 0 163.999 2.1608 163.999 4.81784L164 43.1884Z" fill="black"/>
<path d="M35.6888 23.2827C35.6536 19.3393 38.8947 17.4208 39.0429 17.3315C37.2074 14.636 34.3623 14.2678 33.3625 14.2384C30.9729 13.9851 28.6551 15.6785 27.4378 15.6785C26.1963 15.6785 24.3218 14.2629 22.3016 14.3045C19.7019 14.3448 17.2698 15.8608 15.9359 18.2149C13.1832 23.0148 15.2362 30.0684 17.8736 33.9482C19.1929 35.8484 20.7345 37.97 22.7523 37.8953C24.7263 37.8134 25.4637 36.6278 27.846 36.6278C30.2064 36.6278 30.8988 37.8953 32.9567 37.8476C35.0754 37.8134 36.4092 35.9389 37.6824 34.0216C39.2069 31.8438 39.8192 29.6989 39.8435 29.5888C39.7937 29.5717 35.7289 28.0092 35.6888 23.2827Z" fill="white"/>
<path d="M31.8014 11.6861C32.8632 10.3488 33.5896 8.52941 33.388 6.68311C31.8512 6.75162 29.9294 7.75369 28.8227 9.06165C27.8436 10.2142 26.9689 12.1033 27.1949 13.8799C28.9211 14.0096 30.6935 13.0026 31.8014 11.6861Z" fill="white"/>
<path d="M58.6756 11.3227C58.6756 12.7628 58.2467 13.8468 57.3903 14.5748C56.597 15.2465 55.4697 15.583 54.0095 15.583C53.2854 15.583 52.6659 15.5512 52.1472 15.4876V7.61904C52.8238 7.50892 53.5527 7.45264 54.3399 7.45264C55.7309 7.45264 56.7792 7.7573 57.4863 8.36661C58.2783 9.05546 58.6756 10.0404 58.6756 11.3227ZM57.3332 11.3581C57.3332 10.4246 57.0878 9.70882 56.597 9.20962C56.1062 8.71165 55.3895 8.46205 54.4456 8.46205C54.0447 8.46205 53.7033 8.48897 53.4203 8.54525V14.5271C53.577 14.5516 53.8637 14.5626 54.2804 14.5626C55.2547 14.5626 56.0066 14.2897 56.5363 13.744C57.0659 13.1983 57.3332 12.403 57.3332 11.3581Z" fill="white"/>
<path d="M65.7932 12.5808C65.7932 13.4679 65.5417 14.1946 65.0388 14.7648C64.5116 15.3509 63.813 15.6433 62.9408 15.6433C62.1002 15.6433 61.4308 15.3631 60.9315 14.8003C60.4334 14.2387 60.1844 13.5303 60.1844 12.6762C60.1844 11.7831 60.4407 11.0502 60.9558 10.4812C61.4709 9.91228 62.1633 9.6272 63.0356 9.6272C63.8762 9.6272 64.5516 9.90739 65.0631 10.469C65.549 11.0147 65.7932 11.7194 65.7932 12.5808ZM64.4727 12.6224C64.4727 12.0902 64.3585 11.6338 64.1313 11.2533C63.8641 10.7932 63.4838 10.5632 62.9894 10.5632C62.478 10.5632 62.0892 10.7932 61.822 11.2533C61.5936 11.6338 61.4806 12.0975 61.4806 12.6456C61.4806 13.1779 61.5948 13.6343 61.822 14.0148C62.0977 14.4748 62.4816 14.7048 62.9772 14.7048C63.4632 14.7048 63.8446 14.4711 64.1192 14.0025C64.3548 13.6147 64.4727 13.1546 64.4727 12.6224Z" fill="white"/>
<path d="M75.3367 9.74463L73.5449 15.5123H72.3787L71.6364 13.0078C71.4481 12.3826 71.295 11.761 71.176 11.1443H71.1529C71.0424 11.7781 70.8893 12.3985 70.6925 13.0078L69.9041 15.5123H68.7245L67.0396 9.74463H68.3479L68.9954 12.4866C69.1521 13.135 69.2809 13.7529 69.3841 14.3378H69.4072C69.502 13.8557 69.6587 13.2415 69.8798 12.4988L70.6925 9.74585H71.7299L72.5086 12.4401C72.6969 13.0971 72.85 13.7297 72.9678 14.339H73.0031C73.0893 13.7456 73.2193 13.113 73.3918 12.4401L74.0867 9.74585H75.3367V9.74463Z" fill="white"/>
<path d="M81.9368 15.5124H80.6637V12.2089C80.6637 11.1909 80.2798 10.6819 79.5096 10.6819C79.1318 10.6819 78.8269 10.8214 78.59 11.1016C78.3556 11.3817 78.2365 11.7121 78.2365 12.0902V15.5112H76.9634V11.3928C76.9634 10.8862 76.9476 10.3369 76.9172 9.74222H78.0361L78.0956 10.644H78.1308C78.279 10.3638 78.5001 10.1325 78.7905 9.94777C79.1355 9.73243 79.5218 9.62354 79.9445 9.62354C80.4791 9.62354 80.9237 9.79728 81.2772 10.146C81.717 10.573 81.9368 11.2105 81.9368 12.0571V15.5124Z" fill="white"/>
<path d="M85.4477 15.5124H84.1758V7.09814H85.4477V15.5124Z" fill="white"/>
<path d="M92.9431 12.5808C92.9431 13.4679 92.6916 14.1946 92.1887 14.7648C91.6615 15.3509 90.9617 15.6433 90.0907 15.6433C89.2488 15.6433 88.5795 15.3631 88.0814 14.8003C87.5833 14.2387 87.3343 13.5303 87.3343 12.6762C87.3343 11.7831 87.5906 11.0502 88.1057 10.4812C88.6208 9.91228 89.3132 9.6272 90.1842 9.6272C91.0261 9.6272 91.7003 9.90739 92.213 10.469C92.6989 11.0147 92.9431 11.7194 92.9431 12.5808ZM91.6214 12.6224C91.6214 12.0902 91.5072 11.6338 91.28 11.2533C91.014 10.7932 90.6325 10.5632 90.1393 10.5632C89.6266 10.5632 89.2379 10.7932 88.9719 11.2533C88.7435 11.6338 88.6305 12.0975 88.6305 12.6456C88.6305 13.1779 88.7447 13.6343 88.9719 14.0148C89.2476 14.4748 89.6315 14.7048 90.1272 14.7048C90.6131 14.7048 90.9933 14.4711 91.2679 14.0025C91.5047 13.6147 91.6214 13.1546 91.6214 12.6224Z" fill="white"/>
<path d="M99.1046 15.5124H97.9614L97.8667 14.848H97.8315C97.4403 15.3778 96.8827 15.6433 96.1587 15.6433C95.6181 15.6433 95.1807 15.4683 94.8515 15.1208C94.5527 14.8052 94.4033 14.4124 94.4033 13.9463C94.4033 13.2415 94.6948 12.7044 95.2816 12.3324C95.8671 11.9605 96.6908 11.7782 97.7513 11.7867V11.6791C97.7513 10.9192 97.3553 10.54 96.562 10.54C95.9971 10.54 95.499 10.6831 95.069 10.967L94.8102 10.1252C95.3423 9.7936 95.9995 9.6272 96.7746 9.6272C98.2712 9.6272 99.022 10.4225 99.022 12.0131V14.1371C99.022 14.7134 99.0499 15.1722 99.1046 15.5124ZM97.7829 13.5303V12.6407C96.3785 12.6163 95.6764 13.0041 95.6764 13.8031C95.6764 14.1041 95.7566 14.3292 95.9206 14.4797C96.0846 14.6302 96.2935 14.7048 96.5425 14.7048C96.822 14.7048 97.0831 14.6155 97.3212 14.4381C97.5606 14.2595 97.7075 14.0331 97.7622 13.7554C97.7756 13.693 97.7829 13.6171 97.7829 13.5303Z" fill="white"/>
<path d="M106.339 15.5124H105.209L105.15 14.5861H105.114C104.754 15.2909 104.139 15.6433 103.275 15.6433C102.585 15.6433 102.01 15.3704 101.555 14.8247C101.099 14.279 100.872 13.5706 100.872 12.7007C100.872 11.7671 101.119 11.011 101.614 10.4335C102.094 9.89513 102.682 9.62596 103.382 9.62596C104.151 9.62596 104.689 9.88657 104.995 10.409H105.02V7.09814H106.294V13.9585C106.294 14.5201 106.308 15.0376 106.339 15.5124ZM105.02 13.08V12.1183C105.02 11.9519 105.007 11.8173 104.984 11.7145C104.913 11.4062 104.758 11.1468 104.524 10.9376C104.287 10.7284 104.002 10.6231 103.672 10.6231C103.197 10.6231 102.826 10.8128 102.552 11.1933C102.281 11.5738 102.144 12.0596 102.144 12.653C102.144 13.2231 102.274 13.6856 102.535 14.0417C102.811 14.421 103.183 14.6106 103.648 14.6106C104.066 14.6106 104.4 14.4528 104.654 14.1359C104.899 13.8435 105.02 13.4911 105.02 13.08Z" fill="white"/>
<path d="M117.227 12.5808C117.227 13.4679 116.976 14.1946 116.473 14.7648C115.946 15.3509 115.248 15.6433 114.375 15.6433C113.535 15.6433 112.866 15.3631 112.366 14.8003C111.867 14.2387 111.618 13.5303 111.618 12.6762C111.618 11.7831 111.875 11.0502 112.39 10.4812C112.905 9.91228 113.597 9.6272 114.471 9.6272C115.31 9.6272 115.987 9.90739 116.497 10.469C116.983 11.0147 117.227 11.7194 117.227 12.5808ZM115.908 12.6224C115.908 12.0902 115.794 11.6338 115.567 11.2533C115.298 10.7932 114.919 10.5632 114.423 10.5632C113.913 10.5632 113.524 10.7932 113.256 11.2533C113.028 11.6338 112.915 12.0975 112.915 12.6456C112.915 13.1779 113.029 13.6343 113.256 14.0148C113.532 14.4748 113.916 14.7048 114.411 14.7048C114.897 14.7048 115.28 14.4711 115.554 14.0025C115.789 13.6147 115.908 13.1546 115.908 12.6224Z" fill="white"/>
<path d="M124.073 15.5124H122.801V12.2089C122.801 11.1909 122.417 10.6819 121.646 10.6819C121.268 10.6819 120.963 10.8214 120.727 11.1016C120.491 11.3817 120.374 11.7121 120.374 12.0902V15.5112H119.099V11.3928C119.099 10.8862 119.085 10.3369 119.054 9.74222H120.172L120.231 10.644H120.267C120.416 10.3638 120.637 10.1325 120.926 9.94777C121.273 9.73243 121.658 9.62354 122.082 9.62354C122.615 9.62354 123.06 9.79728 123.413 10.146C123.854 10.573 124.073 11.2105 124.073 12.0571V15.5124Z" fill="white"/>
<path d="M132.641 10.705H131.239V13.5069C131.239 14.219 131.488 14.575 131.981 14.575C132.209 14.575 132.399 14.5554 132.548 14.5151L132.581 15.4878C132.33 15.5832 131.999 15.6309 131.592 15.6309C131.089 15.6309 130.698 15.4768 130.415 15.1684C130.131 14.8601 129.99 14.3413 129.99 13.6133V10.705H129.153V9.74453H129.99V8.6874L131.238 8.30811V9.74331H132.64V10.705H132.641Z" fill="white"/>
<path d="M139.381 15.5124H138.106V12.2333C138.106 11.1994 137.722 10.6819 136.953 10.6819C136.363 10.6819 135.96 10.9816 135.739 11.5812C135.701 11.7072 135.679 11.8613 135.679 12.0424V15.5111H134.407V7.09814H135.679V10.5742H135.703C136.104 9.94163 136.679 9.62596 137.424 9.62596C137.951 9.62596 138.387 9.7997 138.733 10.1484C139.164 10.5828 139.381 11.2288 139.381 12.0828V15.5124Z" fill="white"/>
<path d="M146.333 12.3554C146.333 12.5855 146.316 12.7788 146.286 12.9366H142.467C142.484 13.5068 142.667 13.9411 143.02 14.2421C143.343 14.5113 143.76 14.6459 144.27 14.6459C144.835 14.6459 145.35 14.5554 145.814 14.373L146.013 15.2638C145.47 15.5011 144.831 15.6198 144.092 15.6198C143.205 15.6198 142.506 15.3568 142.001 14.8306C141.493 14.3045 141.242 13.5986 141.242 12.7127C141.242 11.8428 141.476 11.1185 141.949 10.541C142.442 9.9243 143.109 9.61597 143.951 9.61597C144.774 9.61597 145.4 9.9243 145.823 10.541C146.164 11.0304 146.333 11.636 146.333 12.3554ZM145.118 12.0239C145.128 11.6434 145.044 11.3154 144.872 11.0389C144.65 10.6829 144.314 10.5042 143.858 10.5042C143.443 10.5042 143.104 10.678 142.845 11.0267C142.634 11.3044 142.509 11.636 142.467 12.0239H145.118Z" fill="white"/>
<path d="M64.2576 37.6223H61.4988L59.9875 32.8396H54.7347L53.2951 37.6223H50.6092L55.8134 21.3396H59.0278L64.2576 37.6223ZM59.532 30.833L58.1653 26.5812C58.0207 26.1468 57.7498 25.124 57.3502 23.5138H57.3016C57.1424 24.2063 56.8861 25.2292 56.5338 26.5812L55.1914 30.833H59.532Z" fill="white"/>
<path d="M77.6412 31.608C77.6412 33.6048 77.1055 35.1832 76.034 36.3419C75.0743 37.3733 73.8826 37.8884 72.46 37.8884C70.9245 37.8884 69.8214 37.3329 69.1496 36.222H69.1011V42.4069H66.5111V29.747C66.5111 28.4917 66.4783 27.2033 66.4151 25.8819H68.6929L68.8374 27.7429H68.886C69.7498 26.3407 71.0606 25.6409 72.8196 25.6409C74.1948 25.6409 75.3428 26.1878 76.2612 27.2828C77.182 28.3791 77.6412 29.8204 77.6412 31.608ZM75.0026 31.7035C75.0026 30.5607 74.7475 29.6186 74.2349 28.8771C73.6748 28.1038 72.9229 27.7172 71.9802 27.7172C71.3412 27.7172 70.7605 27.9325 70.2418 28.3571C69.7218 28.7853 69.3817 29.3445 69.2225 30.037C69.1424 30.36 69.1023 30.6243 69.1023 30.8323V32.79C69.1023 33.644 69.3622 34.3646 69.8822 34.9532C70.4021 35.5417 71.0776 35.8353 71.9085 35.8353C72.884 35.8353 73.6432 35.456 74.1863 34.6999C74.7305 33.9425 75.0026 32.9441 75.0026 31.7035Z" fill="white"/>
<path d="M91.0492 31.608C91.0492 33.6048 90.5134 35.1832 89.4408 36.3419C88.4823 37.3733 87.2905 37.8884 85.868 37.8884C84.3325 37.8884 83.2294 37.3329 82.5588 36.222H82.5102V42.4069H79.9203V29.747C79.9203 28.4917 79.8875 27.2033 79.8243 25.8819H82.1021L82.2466 27.7429H82.2952C83.1577 26.3407 84.4685 25.6409 86.2288 25.6409C87.6027 25.6409 88.7507 26.1878 89.6716 27.2828C90.5888 28.3791 91.0492 29.8204 91.0492 31.608ZM88.4106 31.7035C88.4106 30.5607 88.1543 29.6186 87.6416 28.8771C87.0816 28.1038 86.332 27.7172 85.3881 27.7172C84.7479 27.7172 84.1685 27.9325 83.6485 28.3571C83.1286 28.7853 82.7896 29.3445 82.6305 30.037C82.5515 30.36 82.5102 30.6243 82.5102 30.8323V32.79C82.5102 33.644 82.7702 34.3646 83.2877 34.9532C83.8077 35.5404 84.4831 35.8353 85.3165 35.8353C86.292 35.8353 87.0512 35.456 87.5942 34.6999C88.1385 33.9425 88.4106 32.9441 88.4106 31.7035Z" fill="white"/>
<path d="M106.04 33.0567C106.04 34.4417 105.563 35.5686 104.604 36.4385C103.551 37.3892 102.085 37.8639 100.2 37.8639C98.4607 37.8639 97.0661 37.5262 96.0104 36.8496L96.6106 34.6754C97.7476 35.3679 98.9952 35.7154 100.355 35.7154C101.33 35.7154 102.089 35.4927 102.635 35.0498C103.178 34.6069 103.449 34.0122 103.449 33.2708C103.449 32.6101 103.225 32.0534 102.777 31.6019C102.331 31.1504 101.586 30.7307 100.547 30.3429C97.716 29.2796 96.302 27.7221 96.302 25.6739C96.302 24.3354 96.7976 23.2378 97.7901 22.3838C98.779 21.5286 100.098 21.1016 101.748 21.1016C103.219 21.1016 104.441 21.3597 105.417 21.8748L104.769 24.0013C103.858 23.5021 102.828 23.2525 101.675 23.2525C100.764 23.2525 100.052 23.4789 99.5419 23.9291C99.1107 24.3317 98.8944 24.8223 98.8944 25.4035C98.8944 26.0471 99.141 26.5793 99.6367 26.9978C100.068 27.3844 100.851 27.8028 101.989 28.2543C103.38 28.8184 104.401 29.4778 105.058 30.234C105.713 30.9877 106.04 31.931 106.04 33.0567Z" fill="white"/>
<path d="M114.603 27.8394H111.748V33.5398C111.748 34.9897 112.251 35.714 113.26 35.714C113.722 35.714 114.106 35.6737 114.41 35.5929L114.482 37.5738C113.972 37.7659 113.3 37.8626 112.468 37.8626C111.445 37.8626 110.645 37.5481 110.068 36.9204C109.494 36.2915 109.205 35.2369 109.205 33.7552V27.837H107.504V25.8793H109.205V23.7296L111.748 22.9563V25.8793H114.603V27.8394Z" fill="white"/>
<path d="M127.484 31.6552C127.484 33.46 126.971 34.9416 125.948 36.1003C124.876 37.2933 123.452 37.8879 121.677 37.8879C119.967 37.8879 118.605 37.3165 117.589 36.1737C116.574 35.031 116.066 33.5884 116.066 31.8498C116.066 30.0304 116.588 28.5401 117.637 27.3815C118.683 26.2216 120.094 25.6416 121.869 25.6416C123.579 25.6416 124.956 26.213 125.994 27.357C126.988 28.4667 127.484 29.8995 127.484 31.6552ZM124.797 31.7397C124.797 30.6568 124.567 29.7282 124.102 28.9537C123.559 28.0165 122.783 27.5491 121.777 27.5491C120.736 27.5491 119.945 28.0177 119.402 28.9537C118.936 29.7294 118.707 30.6728 118.707 31.7886C118.707 32.8714 118.936 33.8001 119.402 34.5734C119.962 35.5106 120.744 35.978 121.754 35.978C122.742 35.978 123.519 35.5008 124.079 34.5489C124.556 33.7597 124.797 32.8213 124.797 31.7397Z" fill="white"/>
<path d="M135.903 28.176C135.646 28.1283 135.373 28.1038 135.086 28.1038C134.175 28.1038 133.471 28.4501 132.975 29.1438C132.544 29.7556 132.327 30.5289 132.327 31.4624V37.6229H129.739L129.763 29.5794C129.763 28.2262 129.73 26.9941 129.666 25.8831H131.922L132.016 28.1295H132.088C132.361 27.3575 132.793 26.7359 133.383 26.2698C133.96 25.8501 134.583 25.6409 135.255 25.6409C135.494 25.6409 135.711 25.658 135.903 25.6886V28.176Z" fill="white"/>
<path d="M147.486 31.1967C147.486 31.6641 147.455 32.0581 147.391 32.3799H139.621C139.651 33.5398 140.027 34.4268 140.748 35.0386C141.403 35.5855 142.25 35.8596 143.29 35.8596C144.44 35.8596 145.49 35.6748 146.434 35.3041L146.84 37.1149C145.736 37.5995 144.434 37.8405 142.931 37.8405C141.124 37.8405 139.705 37.3046 138.672 36.234C137.642 35.1634 137.126 33.7258 137.126 31.9223C137.126 30.1518 137.606 28.6775 138.567 27.5017C139.572 26.2463 140.932 25.6187 142.642 25.6187C144.322 25.6187 145.594 26.2463 146.458 27.5017C147.142 28.4988 147.486 29.7322 147.486 31.1967ZM145.016 30.5201C145.033 29.7468 144.864 29.0788 144.513 28.5147C144.065 27.7892 143.376 27.427 142.449 27.427C141.602 27.427 140.914 27.7806 140.388 28.4903C139.956 29.0543 139.7 29.7309 139.621 30.5189H145.016V30.5201Z" fill="white"/>
</svg>
