<svg width="164" height="48" viewBox="0 0 164 48" fill="none" xmlns="http://www.w3.org/2000/svg">
<path d="M152.431 0H10.2467C9.87608 0 9.50544 0 9.13152 0C8.31603 0.0115686 7.50254 0.0821625 6.69776 0.2112C5.89818 0.343317 5.12394 0.593664 4.40176 0.9536C3.67534 1.31592 3.01135 1.78666 2.43376 2.3488C1.85628 2.91123 1.37362 3.55924 1.00368 4.2688C0.630266 4.98339 0.371416 5.74963 0.23616 6.5408C0.100221 7.32442 0.0278368 8.11728 0.01968 8.912C0 9.28 0 9.6384 0 10.0032V38C0 38.368 0 38.7264 0.01968 39.0944C0.0281214 39.8891 0.100504 40.6819 0.23616 41.4656C0.370245 42.2456 0.625756 43.001 0.99384 43.7056C1.73788 45.1388 2.92723 46.3058 4.39192 47.04C5.11442 47.4006 5.88842 47.653 6.68792 47.7888C7.49278 47.9168 8.30627 47.9863 9.12168 47.9968C9.4956 47.9968 9.86624 47.9968 10.2369 47.9968H153.737C154.108 47.9968 154.485 47.9968 154.855 47.9968C155.669 47.987 156.48 47.9175 157.283 47.7888C158.089 47.6525 158.871 47.4001 159.602 47.04C160.33 46.6815 160.995 46.2103 161.57 45.6448C162.15 45.0833 162.635 44.4352 163.006 43.7248C163.371 43.0193 163.624 42.2641 163.757 41.4848C163.893 40.701 163.969 39.9084 163.984 39.1136C163.984 38.7456 163.984 38.3872 163.984 38.0192C163.984 37.5904 163.984 37.1616 163.984 36.7392V11.296C163.984 10.8608 163.984 10.432 163.984 10.016C163.984 9.6512 163.984 9.2864 163.984 8.9248C163.969 8.13 163.893 7.33739 163.757 6.5536C163.623 5.7746 163.369 5.0196 163.006 4.3136C162.263 2.87622 161.075 1.70309 159.611 0.96C158.88 0.603756 158.099 0.35673 157.292 0.2272C156.49 0.0974609 155.679 0.0268613 154.865 0.016C154.495 0.016 154.117 0.016 153.747 0.016L152.431 0Z" fill="#B6B6B6"/>
<path d="M10.2533 46.9632C9.88263 46.9632 9.52183 46.9632 9.15447 46.9632C8.39408 46.9535 7.63545 46.8894 6.88471 46.7712C6.18592 46.6553 5.50843 46.4397 4.87407 46.1312C3.61376 45.501 2.58724 44.5017 1.93847 43.2735C1.6192 42.6548 1.39801 41.9923 1.28247 41.3087C1.15706 40.5746 1.09016 39.8321 1.08239 39.0879C1.08239 38.8383 1.06271 38.0063 1.06271 38.0063V10.0031C1.06271 10.0031 1.06271 9.18394 1.08239 8.94394C1.08807 8.19871 1.15387 7.45508 1.27919 6.71994C1.39324 6.034 1.61448 5.3692 1.93519 4.74874C2.25401 4.13819 2.67154 3.58173 3.17175 3.10073C3.67133 2.61283 4.24563 2.20368 4.87407 1.88793C5.50702 1.5788 6.18352 1.36311 6.88143 1.24793C7.6341 1.12718 8.39503 1.06192 9.15775 1.05273H10.2533H153.74H154.849C155.605 1.05905 156.36 1.12324 157.105 1.24473C157.81 1.35755 158.494 1.5733 159.132 1.88473C160.396 2.52044 161.422 3.5281 162.065 4.76474C162.383 5.38049 162.604 6.03967 162.721 6.71994C162.847 7.46059 162.917 8.20927 162.931 8.95994C162.931 9.29594 162.931 9.65754 162.931 10.0159C162.931 10.4607 162.931 10.8831 162.931 11.2959V36.7039C162.931 37.1359 162.931 37.5551 162.931 37.9839C162.931 38.4127 162.931 38.7231 162.931 39.0879C162.919 39.8237 162.85 40.5576 162.724 41.2831C162.612 41.9715 162.391 42.6387 162.068 43.2608C161.417 44.4843 160.392 45.4805 159.136 46.112C158.498 46.4238 157.816 46.6395 157.112 46.752C156.361 46.8708 155.603 46.935 154.842 46.944C154.488 46.944 154.114 46.944 153.753 46.944H10.2533V46.9632Z" fill="black"/>
<path d="M60.8735 32.4032H55.104L53.7034 36.16H51.168L56.8096 22.1248H59.204L64.9735 36.16H62.32L60.8735 32.4032ZM55.8387 30.4832H60.1355L58.5972 26.464C58.3873 25.9104 58.1774 25.296 57.974 24.624C57.787 25.2192 57.5837 25.824 57.3672 26.4448L55.8387 30.4832Z" fill="white"/>
<path d="M65.9936 28.2657C65.9936 27.4913 65.9674 26.6379 65.9149 25.7057H68.2109C68.2971 26.1445 68.3563 26.5879 68.388 27.0337C68.7897 26.5639 69.2909 26.1846 69.8571 25.9217C70.4232 25.6588 71.041 25.5185 71.668 25.5105C72.4032 25.4991 73.1251 25.7019 73.7415 26.093C74.3579 26.484 74.8408 27.0455 75.1284 27.7057C75.5319 28.6132 75.7235 29.597 75.6893 30.5857C75.7142 31.6637 75.49 32.7333 75.0333 33.7153C74.6512 34.5302 74.0274 35.2146 73.2424 35.6801C72.4348 36.1354 71.5149 36.3666 70.5823 36.3489C69.8485 36.3484 69.1199 36.2273 68.4274 35.9905V40.3201L65.9739 40.5249L65.9936 28.2657ZM72.4421 33.6001C72.9406 32.9601 73.1932 32.0001 73.1932 30.7201C73.1932 29.5531 72.9855 28.6998 72.57 28.1601C72.3823 27.9092 72.135 27.7066 71.8494 27.5694C71.5637 27.4323 71.2482 27.3649 70.93 27.3729C70.4716 27.3669 70.0196 27.4772 69.618 27.6929C69.1914 27.9286 68.8034 28.2252 68.4667 28.5729V34.1729C68.7385 34.2979 69.0249 34.3903 69.3195 34.4481C69.6364 34.515 69.9596 34.5493 70.2838 34.5505C70.6956 34.5745 71.1072 34.5006 71.4831 34.335C71.8591 34.1695 72.1882 33.9172 72.4421 33.6001Z" fill="white"/>
<path d="M77.1817 28.2657C77.1817 27.4913 77.1554 26.6379 77.103 25.7057H79.399C79.4879 26.1441 79.5482 26.5877 79.5794 27.0337C80.5349 26.0182 81.6283 25.5105 82.8593 25.5105C83.5945 25.4991 84.3164 25.7019 84.9328 26.093C85.5493 26.484 86.0321 27.0455 86.3197 27.7057C86.7232 28.6132 86.9148 29.597 86.8806 30.5857C86.9107 31.6625 86.6921 32.7321 86.241 33.7153C85.8581 34.5306 85.233 35.2151 84.4469 35.6801C83.6394 36.1358 82.7195 36.3671 81.7868 36.3489C81.0529 36.3484 80.3244 36.2273 79.6318 35.9905V40.3201L77.1784 40.5249L77.1817 28.2657ZM83.64 33.6001C84.1385 32.9451 84.3878 31.9851 84.3878 30.7201C84.3878 29.5531 84.1812 28.6998 83.7679 28.1601C83.5802 27.9092 83.3329 27.7066 83.0473 27.5694C82.7616 27.4323 82.4462 27.3649 82.1279 27.3729C81.6696 27.3675 81.2177 27.4777 80.8159 27.6929C80.3894 27.9286 80.0013 28.2252 79.6646 28.5729V34.1729C79.9368 34.297 80.2231 34.3893 80.5174 34.4481C80.8343 34.515 81.1575 34.5493 81.4818 34.5505C81.8934 34.574 82.3048 34.4998 82.6807 34.3343C83.0566 34.1687 83.3857 33.9168 83.64 33.6001Z" fill="white"/>
<path d="M91.3907 35.4975C90.3425 34.9367 89.4912 34.0816 88.9471 33.0431C88.3523 31.8696 88.0596 30.5725 88.0943 29.2639C88.0517 27.8638 88.3913 26.4778 89.0783 25.2479C89.6986 24.1805 90.6302 23.3173 91.7547 22.7679C92.9366 22.2045 94.2378 21.9206 95.553 21.9391C96.3506 21.9357 97.1457 22.026 97.9212 22.2079C98.6464 22.3745 99.3505 22.6192 100.02 22.9375L99.384 24.7775C98.2238 24.2065 96.9473 23.896 95.6481 23.8687C94.731 23.8538 93.8261 24.0745 93.0241 24.5087C92.2631 24.9348 91.6516 25.575 91.2693 26.3455C90.8296 27.2593 90.6162 28.2612 90.6461 29.2703C90.6298 30.1795 90.7923 31.0833 91.125 31.9327C91.427 32.6846 91.9582 33.3279 92.6469 33.7759C93.4315 34.2548 94.3461 34.4913 95.2709 34.4543C95.7501 34.4531 96.2284 34.4135 96.701 34.3359C97.1583 34.265 97.6075 34.1514 98.0425 33.9967V31.1423H94.7166V29.2831H100.427V35.1999C99.5986 35.5766 98.7309 35.8652 97.8392 36.0607C96.9549 36.2594 96.0504 36.3603 95.143 36.3615C93.837 36.3921 92.5448 36.0945 91.3907 35.4975Z" fill="white"/>
<path d="M109.142 36.16C109.049 35.703 108.992 35.2398 108.971 34.7744C108.562 35.2395 108.061 35.6203 107.499 35.8944C106.864 36.2081 106.16 36.3663 105.449 36.3552C104.866 36.3624 104.29 36.241 103.763 36C103.261 35.7705 102.842 35.3993 102.559 34.9344C102.246 34.4076 102.09 33.8056 102.11 33.1968C102.091 32.7351 102.183 32.2755 102.379 31.8544C102.574 31.4334 102.867 31.0626 103.235 30.7712C103.983 30.1654 105.23 29.8635 106.977 29.8656C107.628 29.8653 108.278 29.9103 108.922 30V29.7952C108.922 28.8736 108.721 28.223 108.319 27.8432C107.838 27.4394 107.213 27.236 106.58 27.2768C106.013 27.2836 105.449 27.3588 104.901 27.5008C104.358 27.6286 103.829 27.8064 103.32 28.032L102.933 26.2912C103.489 26.0596 104.067 25.8807 104.658 25.7568C105.402 25.5928 106.162 25.5112 106.925 25.5136C107.733 25.4921 108.536 25.6326 109.286 25.9264C109.946 26.211 110.483 26.7112 110.805 27.3408C111.207 28.1839 111.395 29.1093 111.353 30.0384V34.1984C111.353 34.6251 111.379 35.28 111.431 36.1632L109.142 36.16ZM107.673 34.24C108.145 34.0257 108.57 33.7223 108.922 33.3472V31.4272C108.378 31.3644 107.83 31.3292 107.282 31.3216C106.27 31.3216 105.569 31.4816 105.18 31.8016C104.99 31.9581 104.839 32.1547 104.738 32.3764C104.638 32.5981 104.59 32.8393 104.599 33.0816C104.581 33.291 104.61 33.5017 104.683 33.6993C104.756 33.897 104.872 34.077 105.022 34.2272C105.342 34.4903 105.753 34.6242 106.17 34.6016C106.693 34.5939 107.206 34.4703 107.673 34.24Z" fill="white"/>
<path d="M113.249 33.6512V21.2992L115.689 21.1072V33.2256C115.654 33.562 115.736 33.9 115.922 34.1856C116.015 34.2839 116.131 34.3601 116.259 34.4083C116.388 34.4566 116.526 34.4756 116.663 34.464C116.885 34.4546 117.106 34.418 117.319 34.3552L117.608 36.0704C117.333 36.1715 117.048 36.2445 116.758 36.288C116.445 36.341 116.128 36.3688 115.81 36.3712C114.102 36.3605 113.249 35.4538 113.249 33.6512Z" fill="white"/>
<path d="M119.353 33.6512V21.2992L121.796 21.1072V33.2256C121.762 33.562 121.844 33.9 122.029 34.1856C122.123 34.2839 122.238 34.3601 122.367 34.4083C122.495 34.4566 122.633 34.4756 122.77 34.464C122.993 34.4546 123.213 34.418 123.426 34.3552L123.712 36.0704C123.438 36.1716 123.155 36.2445 122.866 36.288C122.551 36.3411 122.233 36.3689 121.914 36.3712C120.209 36.3605 119.355 35.4538 119.353 33.6512Z" fill="white"/>
<path d="M133.749 31.2383H126.739C126.851 33.4293 127.92 34.5247 129.947 34.5247C130.467 34.5221 130.986 34.462 131.492 34.3455C132.009 34.2281 132.515 34.0675 133.004 33.8655L133.542 35.5039C132.279 36.0846 130.897 36.3757 129.501 36.3551C128.501 36.3833 127.51 36.1631 126.621 35.7151C125.851 35.3091 125.233 34.6749 124.856 33.9039C124.44 33.0108 124.238 32.0367 124.266 31.0559C124.239 30.0282 124.453 29.008 124.893 28.0735C125.267 27.2805 125.873 26.6127 126.634 26.1535C127.414 25.7052 128.307 25.477 129.212 25.4943C130.111 25.4633 130.997 25.706 131.748 26.1887C132.425 26.6472 132.949 27.2891 133.257 28.0351C133.594 28.8478 133.762 29.7183 133.749 30.5951V31.2383ZM131.357 29.7183C131.362 29.0389 131.131 28.378 130.701 27.8431C130.509 27.6328 130.271 27.4664 130.005 27.3558C129.74 27.2452 129.452 27.1931 129.163 27.2031C128.872 27.1973 128.584 27.2513 128.316 27.3615C128.048 27.4718 127.807 27.6359 127.608 27.8431C127.146 28.3688 126.863 29.022 126.798 29.7119L131.357 29.7183Z" fill="white"/>
<path d="M135.605 28.3329C135.605 27.7601 135.575 26.8833 135.523 25.7089H137.819C137.858 26.0001 137.894 26.3489 137.934 26.7489C137.973 27.1489 137.993 27.4817 138.006 27.7345C138.253 27.3266 138.534 26.9392 138.846 26.5761C139.116 26.2657 139.443 26.0065 139.81 25.8113C140.195 25.6083 140.628 25.5057 141.066 25.5137C141.398 25.5058 141.73 25.5457 142.05 25.6321L141.742 27.7057C141.358 27.5972 140.954 27.5696 140.559 27.6248C140.163 27.68 139.783 27.8166 139.446 28.0257C138.903 28.4194 138.43 28.8971 138.045 29.4401V36.1601H135.605V28.3329Z" fill="white"/>
<path d="M143.415 40.4383C143.116 40.3911 142.821 40.3216 142.532 40.2303L142.978 38.4863C143.185 38.5405 143.394 38.5843 143.605 38.6175C143.841 38.6584 144.08 38.6799 144.32 38.6815C145.413 38.6815 146.227 37.9999 146.76 36.6367L146.921 36.2495L142.969 25.7087H145.593L147.6 31.5999C147.857 32.3577 148.065 33.1304 148.223 33.9135C148.41 33.1583 148.627 32.4031 148.879 31.6479L150.88 25.7087H153.35L149.414 36.2975C149.117 37.1504 148.712 37.9641 148.21 38.7199C147.827 39.2908 147.304 39.7594 146.688 40.0831C146.028 40.3975 145.3 40.5512 144.566 40.5311C144.18 40.5326 143.795 40.5015 143.415 40.4383Z" fill="white"/>
<path d="M51.168 8.76172H55.5304L55.409 9.79212H52.4406V11.7857H55.2385V12.7457H52.4406V14.9537H55.5665L55.4582 16.0001H51.168V8.76172Z" fill="white"/>
<path d="M58.5447 12.3073L56.2487 8.76172H57.705L59.2663 11.3665L60.9063 8.76172H62.32L60.024 12.2625L62.507 16.0001H61.031L59.263 13.1521L57.4623 16.0001H56.0486L58.5447 12.3073Z" fill="white"/>
<path d="M63.4483 8.76172H65.4491C66.3872 8.76172 67.1066 8.94839 67.6074 9.32172C67.8565 9.51292 68.0545 9.75998 68.1847 10.0419C68.3149 10.3238 68.3734 10.6322 68.3552 10.9409C68.3691 11.3819 68.2554 11.8177 68.0272 12.1985C67.8045 12.5565 67.4797 12.8434 67.0924 13.0241C66.6622 13.2226 66.1906 13.3211 65.7148 13.3121C65.3844 13.3076 65.0552 13.2744 64.7308 13.2129V16.0001H63.4483V8.76172ZM66.6627 11.9937C66.8027 11.8626 66.9118 11.7035 66.9826 11.5272C67.0534 11.351 67.0841 11.1619 67.0727 10.9729C67.0894 10.7918 67.0602 10.6095 66.9875 10.4421C66.9149 10.2747 66.8011 10.1273 66.6562 10.0129C66.287 9.79359 65.8575 9.69077 65.4262 9.71852H64.7308V12.2785C64.9745 12.3214 65.2213 12.346 65.4688 12.3521C65.8988 12.3836 66.3252 12.2556 66.6627 11.9937Z" fill="white"/>
<path d="M69.6213 8.76172H70.9005V14.9313H73.9706L73.8623 16.0001H69.6213V8.76172Z" fill="white"/>
<path d="M75.9189 15.6449C75.3813 15.3497 74.947 14.9038 74.6725 14.3649C74.3741 13.7675 74.2268 13.1092 74.2428 12.4449C74.2271 11.7507 74.3847 11.0632 74.702 10.4417C74.9929 9.88141 75.4501 9.41972 76.014 9.11686C76.6453 8.79428 77.3518 8.63768 78.064 8.66246C78.7374 8.64482 79.4037 8.80044 79.9959 9.11366C80.5303 9.40981 80.9611 9.85575 81.2325 10.3937C81.525 10.9848 81.67 11.635 81.6556 12.2913C81.6734 12.9932 81.5146 13.6887 81.1931 14.3169C80.8995 14.8752 80.443 15.3361 79.8811 15.6417C79.2609 15.9636 78.5663 16.1244 77.8639 16.1089C77.1848 16.1256 76.5134 15.9654 75.9189 15.6449ZM79.2383 14.7585C79.5999 14.5247 79.881 14.1902 80.0451 13.7985C80.2292 13.35 80.3195 12.8702 80.3108 12.3873C80.319 11.9131 80.239 11.4415 80.0747 10.9953C79.9275 10.6087 79.6646 10.2743 79.3203 10.0353C78.9209 9.79683 78.4617 9.67066 77.9935 9.67066C77.5253 9.67066 77.0661 9.79683 76.6667 10.0353C76.3041 10.2807 76.0217 10.6229 75.8533 11.0209C75.6667 11.4508 75.574 11.914 75.5811 12.3809C75.5731 12.8618 75.66 13.3398 75.8369 13.7889C75.994 14.1997 76.2813 14.5509 76.6571 14.7914C77.0328 15.032 77.4774 15.1494 77.9263 15.1265C78.3919 15.1376 78.8498 15.0092 79.2383 14.7585Z" fill="white"/>
<path d="M83.0824 8.76166H85.4046C86.085 8.71468 86.7621 8.88911 87.33 9.25766C87.5479 9.42455 87.7213 9.64027 87.8355 9.8865C87.9497 10.1327 88.0013 10.4022 87.986 10.6721C87.9937 11.0229 87.9126 11.3703 87.7498 11.6833C87.6075 11.9577 87.4088 12.2006 87.166 12.3969C86.949 12.5678 86.7054 12.7039 86.4444 12.8001L88.7404 16.0001H87.248L85.3161 13.1201H84.3747V16.0001H83.0824V8.76166ZM85.093 12.1857C85.3779 12.1917 85.6602 12.1314 85.9163 12.0097C86.147 11.9016 86.3415 11.7318 86.4772 11.5201C86.6126 11.2941 86.6818 11.0362 86.6773 10.7745C86.6905 10.6234 86.665 10.4715 86.6032 10.3325C86.5414 10.1934 86.4451 10.0715 86.323 9.97766C86.0155 9.78984 85.6551 9.70138 85.2931 9.72486H84.3649V12.1985L85.093 12.1857Z" fill="white"/>
<path d="M89.7408 8.76172H94.113L93.9884 9.79212H91.0364V11.7857H93.808V12.7457H91.0101V14.9537H94.136L94.0409 16.0001H89.7408V8.76172Z" fill="white"/>
<path d="M98.869 8.76172H100.148V16.0001H98.869V8.76172Z" fill="white"/>
<path d="M103.536 9.80492H101.24L101.352 8.76172H107.125L107.007 9.80492H104.819V16.0001H103.536V9.80492Z" fill="white"/>
<path d="M112.684 15.6447C112.148 15.3494 111.715 14.9034 111.441 14.3647C111.14 13.7682 110.992 13.1095 111.008 12.4447C110.993 11.7506 111.15 11.0631 111.468 10.4415C111.759 9.88188 112.216 9.4204 112.78 9.11674C113.406 8.79258 114.108 8.63166 114.816 8.64954C115.498 8.63164 116.172 8.79185 116.768 9.11354C117.303 9.40875 117.734 9.85496 118.005 10.3935C118.298 10.9844 118.444 11.6346 118.431 12.2911C118.449 12.9935 118.289 13.6893 117.965 14.3167C117.673 14.8757 117.216 15.3369 116.653 15.6415C116.033 15.9643 115.338 16.1252 114.636 16.1087C113.955 16.1266 113.281 15.9664 112.684 15.6447ZM116.007 14.7583C116.367 14.5235 116.647 14.1892 116.811 13.7983C116.995 13.3499 117.085 12.8701 117.076 12.3871C117.085 11.913 117.005 11.4414 116.84 10.9951C116.694 10.6089 116.433 10.2744 116.089 10.0351C115.689 9.79644 115.229 9.67012 114.761 9.67012C114.292 9.67012 113.832 9.79644 113.432 10.0351C113.07 10.2806 112.787 10.6228 112.619 11.0207C112.434 11.4512 112.341 11.914 112.347 12.3807C112.339 12.8617 112.426 13.3397 112.602 13.7887C112.759 14.1835 113.032 14.5242 113.386 14.7679C113.775 15.018 114.233 15.1433 114.698 15.1263C115.163 15.1356 115.619 15.0073 116.007 14.7583Z" fill="white"/>
<path d="M119.851 8.76172H121.321L124.991 14.3713C124.958 13.8369 124.945 13.3473 124.945 12.8961V8.76172H126.132V16.0001H124.709L120.983 10.3009C121.019 10.9409 121.039 11.5201 121.039 12.0225V16.0001H119.851V8.76172Z" fill="white"/>
<path fill-rule="evenodd" clip-rule="evenodd" d="M33.128 8.80005H19.5127C13.0938 8.80005 10.7453 11.0912 10.7453 17.3536V30.6464C10.7453 36.9088 13.0938 39.2 19.5127 39.2H33.128C39.5469 39.2 41.8987 36.9088 41.8987 30.6464V17.3536C41.9053 11.0912 39.5568 8.80005 33.128 8.80005Z" fill="#C8102E"/>
<path d="M16.915 24H17.7415V27.9776H16.915V26.3616H15.0487V27.9776H14.2221V24H15.0487V25.6H16.915V24ZM21.5726 26.2752C21.5726 26.9152 21.2446 27.2672 20.6476 27.2672C20.0507 27.2672 19.7161 26.9152 19.7161 26.24V24H18.8895V26.272C18.8895 27.3888 19.5259 28.0288 20.6345 28.0288C21.7431 28.0288 22.3991 27.3888 22.3991 26.2368V24H21.5726V26.2752ZM31.1239 26.7328L30.199 24H29.52L28.6016 26.736L27.6996 24H26.8206L28.2408 27.9776H28.9263L29.848 25.3664L30.773 27.9776H31.4651L32.8853 24H32.0259L31.1239 26.7328ZM34.3646 26.2624H35.8701V25.5424H34.3646V24.7296H36.5491V24H33.5511V27.968H36.6278V27.2512H34.3646V26.2624ZM37.6118 27.968H38.4285V24H37.6118V27.968ZM24.0326 27.1456L23.6619 27.9712H22.819L24.6 24H25.3282L27.1158 27.9712H26.263L25.912 27.1488L24.0326 27.1456ZM24.3409 26.4288H25.584L24.9608 25.008L24.3409 26.4288Z" fill="white"/>
<path d="M26.3253 18.9408C24.9502 18.9399 23.6317 18.4066 22.6594 17.458C21.6871 16.5094 21.1405 15.2231 21.1396 13.8816H21.871C21.871 15.0341 22.3403 16.1394 23.1756 16.9544C24.011 17.7694 25.1439 18.2272 26.3253 18.2272C27.5066 18.2272 28.6396 17.7694 29.4749 16.9544C30.3102 16.1394 30.7795 15.0341 30.7795 13.8816H31.511C31.5101 15.2231 30.9635 16.5094 29.9911 17.458C29.0188 18.4066 27.7003 18.9399 26.3253 18.9408Z" fill="white"/>
</svg>
