<svg width="132" height="52" viewBox="0 0 132 52" fill="none" xmlns="http://www.w3.org/2000/svg">
<rect width="132" height="52" rx="6" fill="black"/>
<g filter="url(#filter0_ii_1_2266)">
<path d="M16.0767 14.5199C15.8152 14.7978 15.6607 15.2289 15.6607 15.7872V35.7352C15.6607 36.2944 15.8152 36.7246 16.0767 37.0024L16.1431 37.0674L27.2742 25.8929V25.7612V25.6295L16.1431 14.4541L16.0767 14.5199Z" fill="url(#paint0_linear_1_2266)"/>
<path d="M30.9837 29.6187L27.274 25.8927V25.761V25.6293L30.9846 21.9042L31.0682 21.952L35.4644 24.4595C36.7195 25.1756 36.7195 26.3473 35.4644 27.0643L31.0682 29.5718L30.9837 29.6187Z" fill="url(#paint1_linear_1_2266)"/>
<g filter="url(#filter1_i_1_2266)">
<path d="M31.0684 29.5709L27.2733 25.761L16.0767 37.0022C16.4899 37.4424 17.1737 37.4965 17.9437 37.0581L31.0684 29.5709Z" fill="url(#paint2_linear_1_2266)"/>
</g>
<path d="M31.0684 21.9512L17.9437 14.4649C17.1737 14.0256 16.4899 14.0806 16.0767 14.5208L27.2742 25.762L31.0684 21.9512Z" fill="url(#paint3_linear_1_2266)"/>
</g>
<path d="M64.6372 26.8524C62.6414 26.8524 61.0147 28.3698 61.0147 30.4596C61.0147 32.5367 62.6414 34.0667 64.6372 34.0667C66.6339 34.0667 68.2606 32.5367 68.2606 30.4596C68.2598 28.3698 66.6331 26.8524 64.6372 26.8524ZM64.6372 32.6469C63.5434 32.6469 62.6007 31.7453 62.6007 30.4604C62.6007 29.1619 63.5443 28.2739 64.6372 28.2739C65.7311 28.2739 66.6738 29.1619 66.6738 30.4604C66.6738 31.7445 65.7311 32.6469 64.6372 32.6469ZM56.7337 26.8524C54.7379 26.8524 53.1111 28.3698 53.1111 30.4596C53.1111 32.5367 54.7379 34.0667 56.7337 34.0667C58.7304 34.0667 60.3571 32.5367 60.3571 30.4596C60.3571 28.3698 58.7304 26.8524 56.7337 26.8524ZM56.7337 32.6469C55.6399 32.6469 54.6971 31.7453 54.6971 30.4604C54.6971 29.1619 55.6407 28.2739 56.7337 28.2739C57.8275 28.2739 58.7702 29.1619 58.7702 30.4604C58.7711 31.7445 57.8275 32.6469 56.7337 32.6469ZM47.3332 27.9601V29.4901H50.9974C50.8879 30.351 50.6011 30.9795 50.1632 31.4163C49.6303 31.9489 48.7962 32.5367 47.3332 32.5367C45.0778 32.5367 43.3144 30.7191 43.3144 28.4647C43.3144 26.2104 45.0778 24.3928 47.3332 24.3928C48.5501 24.3928 49.4385 24.8712 50.0945 25.4861L51.1747 24.4064C50.2583 23.532 49.0423 22.8628 47.3332 22.8628C44.2436 22.8628 41.6461 25.3767 41.6461 28.4647C41.6461 31.5528 44.2436 34.0667 47.3332 34.0667C49.0007 34.0667 50.2591 33.5197 51.2426 32.4951C52.2541 31.4841 52.5689 30.0626 52.5689 28.9151C52.5689 28.5606 52.5418 28.2324 52.4866 27.9593L47.3332 27.9601ZM85.7802 29.1483C85.4798 28.3426 84.5633 26.8524 82.6905 26.8524C80.8313 26.8524 79.2861 28.3146 79.2861 30.4596C79.2861 32.4815 80.8177 34.0667 82.8679 34.0667C84.5217 34.0667 85.4789 33.0557 85.8761 32.468L84.6456 31.6478C84.2358 32.2491 83.6749 32.6452 82.8679 32.6452C82.0617 32.6452 81.4873 32.2763 81.1181 31.552L85.9439 29.5571L85.7802 29.1483ZM80.8585 30.351C80.8177 28.9567 81.9387 28.2468 82.7457 28.2468C83.3745 28.2468 83.9074 28.5614 84.0856 29.0118L80.8585 30.351ZM76.9355 33.8487H78.5207V23.2462H76.9355V33.8487ZM74.3372 27.659H74.2829C73.9274 27.2349 73.2434 26.8524 72.383 26.8524C70.5781 26.8524 68.9242 28.4376 68.9242 30.474C68.9242 32.496 70.5781 34.0676 72.383 34.0676C73.2443 34.0676 73.9274 33.685 74.2829 33.2482H74.3372V33.7673C74.3372 35.1472 73.599 35.8851 72.4101 35.8851C71.4394 35.8851 70.8377 35.1888 70.5916 34.601L69.211 35.1752C69.6073 36.1311 70.6595 37.3066 72.4101 37.3066C74.2693 37.3066 75.8417 36.2133 75.8417 33.5485V27.0721H74.3381L74.3372 27.659ZM72.5196 32.6469C71.4258 32.6469 70.5102 31.7309 70.5102 30.474C70.5102 29.2026 71.4258 28.2739 72.5196 28.2739C73.599 28.2739 74.4467 29.2026 74.4467 30.474C74.4467 31.7309 73.599 32.6469 72.5196 32.6469ZM93.2085 23.2462H89.4146V33.8487H90.9972V29.8319H93.2077C94.9625 29.8319 96.6885 28.5623 96.6885 26.5395C96.6885 24.5167 94.9634 23.2462 93.2085 23.2462ZM93.2493 28.3562H90.9972V24.7219H93.2493C94.433 24.7219 95.1051 25.7015 95.1051 26.5395C95.1051 27.3605 94.433 28.3562 93.2493 28.3562ZM103.035 26.8338C101.889 26.8338 100.701 27.3384 100.21 28.4571L101.615 29.0432C101.916 28.4571 102.476 28.2654 103.062 28.2654C103.881 28.2654 104.713 28.7565 104.727 29.6292V29.7387C104.44 29.575 103.826 29.3298 103.076 29.3298C101.561 29.3298 100.018 30.1619 100.018 31.7165C100.018 33.1354 101.261 34.0489 102.652 34.0489C103.716 34.0489 104.304 33.5714 104.672 33.0116H104.726V33.8301H106.255V29.7649C106.256 27.8838 104.849 26.8338 103.035 26.8338ZM102.843 32.6444C102.326 32.6444 101.602 32.3848 101.602 31.7437C101.602 30.9252 102.503 30.6114 103.281 30.6114C103.976 30.6114 104.304 30.7615 104.727 30.9659C104.604 31.9489 103.758 32.6444 102.843 32.6444ZM111.824 27.0653L110.008 31.6622H109.954L108.07 27.0653H106.365L109.19 33.49L107.579 37.064H109.23L113.584 27.0653H111.824ZM97.5625 33.8487H99.1451V23.2462H97.5625V33.8487Z" fill="white"/>
<path d="M47.1356 16.9748C47.1356 17.6727 46.9254 18.2281 46.504 18.6429C46.0258 19.1359 45.4019 19.3824 44.6354 19.3824C43.9012 19.3824 43.2764 19.1325 42.7635 18.6329C42.2497 18.1324 41.9928 17.5128 41.9928 16.7733C41.9928 16.0329 42.2497 15.4134 42.7635 14.9137C43.2764 14.4132 43.9012 14.1634 44.6354 14.1634C45 14.1634 45.3484 14.2333 45.6791 14.3724C46.0106 14.5123 46.276 14.698 46.4743 14.9304L46.0275 15.3701C45.691 14.9745 45.2272 14.7771 44.6346 14.7771C44.0988 14.7771 43.6359 14.962 43.245 15.3317C42.8542 15.7015 42.6592 16.182 42.6592 16.7724C42.6592 17.3629 42.8542 17.8434 43.245 18.2131C43.6359 18.5829 44.0988 18.7678 44.6346 18.7678C45.2026 18.7678 45.6766 18.5821 46.0555 18.2098C46.3014 17.9675 46.4438 17.6302 46.482 17.198H44.6346V16.5976H47.0992C47.1246 16.7283 47.1356 16.8541 47.1356 16.9748Z" fill="white"/>
<path d="M51.0441 14.8879H48.7279V16.4719H50.8169V17.0723H48.7279V18.6562H51.0441V19.2708H48.0742V14.2742H51.0441V14.8879Z" fill="white"/>
<path d="M53.8002 19.2708H53.1466V14.8879H51.7256V14.2742H55.2212V14.8879H53.8002V19.2708Z" fill="white"/>
<path d="M57.7501 19.2708V14.2742H58.4038V19.2708H57.7501Z" fill="white"/>
<path d="M61.3026 19.2708H60.6489V14.8879H59.228V14.2742H62.7235V14.8879H61.3026V19.2708Z" fill="white"/>
<path d="M69.3405 18.6254C68.8403 19.1301 68.2188 19.3824 67.4753 19.3824C66.7318 19.3824 66.1103 19.1301 65.611 18.6254C65.1108 18.1207 64.8615 17.5028 64.8615 16.7725C64.8615 16.0421 65.1108 15.4242 65.611 14.9196C66.1103 14.4149 66.7318 14.1617 67.4753 14.1617C68.2146 14.1617 68.8352 14.4157 69.3371 14.9229C69.839 15.4301 70.0899 16.0463 70.0899 16.7725C70.0899 17.5028 69.8398 18.1207 69.3405 18.6254ZM66.0934 18.2065C66.4698 18.5813 66.9301 18.7678 67.4753 18.7678C68.0204 18.7678 68.4816 18.5804 68.8572 18.2065C69.2336 17.8318 69.4227 17.3538 69.4227 16.7725C69.4227 16.1912 69.2336 15.7132 68.8572 15.3385C68.4816 14.9637 68.0204 14.7772 67.4753 14.7772C66.9301 14.7772 66.4698 14.9645 66.0934 15.3385C65.7178 15.7132 65.5287 16.1912 65.5287 16.7725C65.5287 17.3538 65.7178 17.8318 66.0934 18.2065Z" fill="white"/>
<path d="M71.0073 19.2708V14.2742H71.8025L74.2747 18.1607H74.3027L74.2747 17.198V14.2742H74.9284V19.2708H74.2459L71.6592 15.1952H71.6313L71.6592 16.1579V19.2708H71.0073Z" fill="white"/>
<path d="M47.1356 16.9748C47.1356 17.6727 46.9254 18.2281 46.504 18.6429C46.0258 19.1359 45.4019 19.3824 44.6354 19.3824C43.9012 19.3824 43.2764 19.1325 42.7635 18.6329C42.2497 18.1324 41.9928 17.5128 41.9928 16.7733C41.9928 16.0329 42.2497 15.4134 42.7635 14.9137C43.2764 14.4132 43.9012 14.1634 44.6354 14.1634C45 14.1634 45.3484 14.2333 45.6791 14.3724C46.0106 14.5123 46.276 14.698 46.4743 14.9304L46.0275 15.3701C45.691 14.9745 45.2272 14.7771 44.6346 14.7771C44.0988 14.7771 43.6359 14.962 43.245 15.3317C42.8542 15.7015 42.6592 16.182 42.6592 16.7724C42.6592 17.3629 42.8542 17.8434 43.245 18.2131C43.6359 18.5829 44.0988 18.7678 44.6346 18.7678C45.2026 18.7678 45.6766 18.5821 46.0555 18.2098C46.3014 17.9675 46.4438 17.6302 46.482 17.198H44.6346V16.5976H47.0992C47.1246 16.7283 47.1356 16.8541 47.1356 16.9748Z" stroke="white" stroke-width="0.204511" stroke-miterlimit="10"/>
<path d="M51.0441 14.8879H48.7279V16.4719H50.8169V17.0723H48.7279V18.6562H51.0441V19.2708H48.0742V14.2742H51.0441V14.8879Z" stroke="white" stroke-width="0.204511" stroke-miterlimit="10"/>
<path d="M53.8002 19.2708H53.1466V14.8879H51.7256V14.2742H55.2212V14.8879H53.8002V19.2708Z" stroke="white" stroke-width="0.204511" stroke-miterlimit="10"/>
<path d="M57.7501 19.2708V14.2742H58.4038V19.2708H57.7501Z" stroke="white" stroke-width="0.204511" stroke-miterlimit="10"/>
<path d="M61.3026 19.2708H60.6489V14.8879H59.228V14.2742H62.7235V14.8879H61.3026V19.2708Z" stroke="white" stroke-width="0.204511" stroke-miterlimit="10"/>
<path d="M69.3405 18.6254C68.8403 19.1301 68.2188 19.3824 67.4753 19.3824C66.7318 19.3824 66.1103 19.1301 65.611 18.6254C65.1108 18.1207 64.8615 17.5028 64.8615 16.7725C64.8615 16.0421 65.1108 15.4242 65.611 14.9196C66.1103 14.4149 66.7318 14.1617 67.4753 14.1617C68.2146 14.1617 68.8352 14.4157 69.3371 14.9229C69.839 15.4301 70.0899 16.0463 70.0899 16.7725C70.0899 17.5028 69.8398 18.1207 69.3405 18.6254ZM66.0934 18.2065C66.4698 18.5813 66.9301 18.7678 67.4753 18.7678C68.0204 18.7678 68.4816 18.5804 68.8572 18.2065C69.2336 17.8318 69.4227 17.3538 69.4227 16.7725C69.4227 16.1912 69.2336 15.7132 68.8572 15.3385C68.4816 14.9637 68.0204 14.7772 67.4753 14.7772C66.9301 14.7772 66.4698 14.9645 66.0934 15.3385C65.7178 15.7132 65.5287 16.1912 65.5287 16.7725C65.5287 17.3538 65.7178 17.8318 66.0934 18.2065Z" stroke="white" stroke-width="0.204511" stroke-miterlimit="10"/>
<path d="M71.0073 19.2708V14.2742H71.8025L74.2747 18.1607H74.3027L74.2747 17.198V14.2742H74.9284V19.2708H74.2459L71.6592 15.1952H71.6313L71.6592 16.1579V19.2708H71.0073Z" stroke="white" stroke-width="0.204511" stroke-miterlimit="10"/>
<defs>
<filter id="filter0_ii_1_2266" x="15.6607" y="14.1617" width="20.7451" height="23.1992" filterUnits="userSpaceOnUse" color-interpolation-filters="sRGB">
<feFlood flood-opacity="0" result="BackgroundImageFix"/>
<feBlend mode="normal" in="SourceGraphic" in2="BackgroundImageFix" result="shape"/>
<feColorMatrix in="SourceAlpha" type="matrix" values="0 0 0 0 0 0 0 0 0 0 0 0 0 0 0 0 0 0 127 0" result="hardAlpha"/>
<feOffset dy="-0.795"/>
<feComposite in2="hardAlpha" operator="arithmetic" k2="-1" k3="1"/>
<feColorMatrix type="matrix" values="0 0 0 0 0 0 0 0 0 0 0 0 0 0 0 0 0 0 0.12 0"/>
<feBlend mode="normal" in2="shape" result="effect1_innerShadow_1_2266"/>
<feColorMatrix in="SourceAlpha" type="matrix" values="0 0 0 0 0 0 0 0 0 0 0 0 0 0 0 0 0 0 127 0" result="hardAlpha"/>
<feOffset dy="0.795"/>
<feComposite in2="hardAlpha" operator="arithmetic" k2="-1" k3="1"/>
<feColorMatrix type="matrix" values="0 0 0 0 1 0 0 0 0 1 0 0 0 0 1 0 0 0 0.25 0"/>
<feBlend mode="normal" in2="effect1_innerShadow_1_2266" result="effect2_innerShadow_1_2266"/>
</filter>
<filter id="filter1_i_1_2266" x="16.0767" y="25.761" width="14.9917" height="11.5999" filterUnits="userSpaceOnUse" color-interpolation-filters="sRGB">
<feFlood flood-opacity="0" result="BackgroundImageFix"/>
<feBlend mode="normal" in="SourceGraphic" in2="BackgroundImageFix" result="shape"/>
<feColorMatrix in="SourceAlpha" type="matrix" values="0 0 0 0 0 0 0 0 0 0 0 0 0 0 0 0 0 0 127 0" result="hardAlpha"/>
<feOffset dy="-0.795"/>
<feComposite in2="hardAlpha" operator="arithmetic" k2="-1" k3="1"/>
<feColorMatrix type="matrix" values="0 0 0 0 0 0 0 0 0 0 0 0 0 0 0 0 0 0 0.08 0"/>
<feBlend mode="normal" in2="shape" result="effect1_innerShadow_1_2266"/>
</filter>
<linearGradient id="paint0_linear_1_2266" x1="26.2875" y1="15.5762" x2="11.1508" y2="30.654" gradientUnits="userSpaceOnUse">
<stop stop-color="#00A0FF"/>
<stop offset="0.0066" stop-color="#00A1FF"/>
<stop offset="0.2601" stop-color="#00BEFF"/>
<stop offset="0.5122" stop-color="#00D2FF"/>
<stop offset="0.7604" stop-color="#00DFFF"/>
<stop offset="1" stop-color="#00E3FF"/>
</linearGradient>
<linearGradient id="paint1_linear_1_2266" x1="37.0982" y1="25.761" x2="15.3591" y2="25.761" gradientUnits="userSpaceOnUse">
<stop stop-color="#FFE000"/>
<stop offset="0.4087" stop-color="#FFBD00"/>
<stop offset="0.7754" stop-color="#FFA500"/>
<stop offset="1" stop-color="#FF9C00"/>
</linearGradient>
<linearGradient id="paint2_linear_1_2266" x1="29.0074" y1="27.83" x2="8.48011" y2="48.2775" gradientUnits="userSpaceOnUse">
<stop stop-color="#FF3A44"/>
<stop offset="1" stop-color="#C31162"/>
</linearGradient>
<linearGradient id="paint3_linear_1_2266" x1="13.2567" y1="7.88032" x2="22.4227" y2="17.0107" gradientUnits="userSpaceOnUse">
<stop stop-color="#32A071"/>
<stop offset="0.0685" stop-color="#2DA771"/>
<stop offset="0.4762" stop-color="#15CF74"/>
<stop offset="0.8009" stop-color="#06E775"/>
<stop offset="1" stop-color="#00F076"/>
</linearGradient>
</defs>
</svg>
