<svg width="164" height="48" viewBox="0 0 164 48" fill="none" xmlns="http://www.w3.org/2000/svg">
<path d="M157.926 48H6.07407C2.73485 48 0 45.2985 0 42V6C0 2.7015 2.73485 -2.1874e-06 6.07407 -2.1874e-06H157.926C161.265 -2.1874e-06 164 2.7015 164 6V42C164 45.2985 161.265 48 157.926 48Z" fill="black"/>
<path d="M12.6766 9.04652C12.3197 9.41552 12.1132 9.99002 12.1132 10.734V37.272C12.1132 38.016 12.3197 38.5905 12.6766 38.9595L12.7647 39.0405L27.8192 24.1755V23.8245L12.7647 8.95952L12.6766 9.04652Z" fill="url(#paint0_linear_1_4643)"/>
<path d="M32.8318 29.1331L27.8192 24.1756V23.8246L32.8379 18.8671L32.9503 18.9316L38.8938 22.2721C40.59 23.2201 40.59 24.7801 38.8938 25.7341L32.9503 29.0686L32.8318 29.1331Z" fill="url(#paint1_linear_1_4643)"/>
<path d="M32.9503 29.0685L27.8192 24L12.6766 38.9595C13.2399 39.5445 14.1586 39.615 15.2034 39.03L32.9503 29.0685Z" fill="url(#paint2_linear_1_4643)"/>
<path d="M32.9503 18.9315L15.2034 8.97C14.1586 8.391 13.2399 8.4615 12.6766 9.0465L27.8192 24L32.9503 18.9315Z" fill="url(#paint3_linear_1_4643)"/>
<path d="M57.6035 12.2925C57.6035 13.2945 57.2998 14.097 56.7015 14.6955C56.0136 15.405 55.1177 15.762 54.0198 15.762C52.9705 15.762 52.0745 15.399 51.3396 14.6835C50.6031 13.9575 50.2356 13.0665 50.2356 12C50.2356 10.9335 50.6031 10.0425 51.3396 9.32254C52.0745 8.60104 52.9705 8.23804 54.0198 8.23804C54.5421 8.23804 55.0402 8.34454 55.5155 8.54254C55.9893 8.74204 56.375 9.01204 56.6544 9.34504L56.0197 9.97804C55.5322 9.40954 54.8686 9.12904 54.0198 9.12904C53.2544 9.12904 52.5908 9.39304 52.0275 9.92554C51.4702 10.4595 51.1908 11.151 51.1908 12C51.1908 12.849 51.4702 13.5465 52.0275 14.0805C52.5908 14.607 53.2544 14.877 54.0198 14.877C54.8322 14.877 55.5155 14.607 56.0546 14.0745C56.4099 13.722 56.6119 13.236 56.665 12.615H54.0198V11.748H57.5488C57.5913 11.9355 57.6035 12.117 57.6035 12.2925Z" fill="white" stroke="white" stroke-width="0.16" stroke-miterlimit="10"/>
<path d="M63.2023 9.28658H59.8873V11.5666H62.8758V12.4336H59.8873V14.7136H63.2023V15.5971H58.9489V8.40308H63.2023V9.28658Z" fill="white" stroke="white" stroke-width="0.16" stroke-miterlimit="10"/>
<path d="M67.1534 15.5971H66.215V9.28658H64.1817V8.40308H69.1882V9.28658H67.1534V15.5971Z" fill="white" stroke="white" stroke-width="0.16" stroke-miterlimit="10"/>
<path d="M72.8115 15.5971V8.40308H73.7484V15.5971H72.8115Z" fill="white" stroke="white" stroke-width="0.16" stroke-miterlimit="10"/>
<path d="M77.9015 15.5971H76.9706V9.28658H74.9297V8.40308H79.9424V9.28658H77.9015V15.5971Z" fill="white" stroke="white" stroke-width="0.16" stroke-miterlimit="10"/>
<path d="M89.421 14.6715C88.7027 15.399 87.8129 15.762 86.7514 15.762C85.6839 15.762 84.7941 15.399 84.0758 14.6715C83.3591 13.9455 83.0022 13.0545 83.0022 12C83.0022 10.9455 83.3591 10.0545 84.0758 9.32854C84.7941 8.60104 85.6839 8.23804 86.7514 8.23804C87.8068 8.23804 88.6966 8.60104 89.4149 9.33454C90.1377 10.0665 90.4946 10.9515 90.4946 12C90.4946 13.0545 90.1377 13.9455 89.421 14.6715ZM84.7698 14.0685C85.3103 14.607 85.9679 14.877 86.7514 14.877C87.5289 14.877 88.1925 14.607 88.727 14.0685C89.2661 13.53 89.5394 12.8385 89.5394 12C89.5394 11.1615 89.2661 10.47 88.727 9.93154C88.1925 9.39304 87.5289 9.12304 86.7514 9.12304C85.9679 9.12304 85.3103 9.39304 84.7698 9.93154C84.2307 10.47 83.9573 11.1615 83.9573 12C83.9573 12.8385 84.2307 13.53 84.7698 14.0685Z" fill="white" stroke="white" stroke-width="0.16" stroke-miterlimit="10"/>
<path d="M91.8111 15.5971V8.40308H92.95L96.4912 13.9981H96.5322L96.4912 12.6151V8.40308H97.4281V15.5971H96.4502L92.742 9.72608H92.701L92.742 11.1151V15.5971H91.8111Z" fill="white" stroke="white" stroke-width="0.16" stroke-miterlimit="10"/>
<path d="M82.7714 26.1031C79.9181 26.1031 77.5872 28.2481 77.5872 31.2076C77.5872 34.1431 79.9181 36.3106 82.7714 36.3106C85.6307 36.3106 87.9617 34.1431 87.9617 31.2076C87.9617 28.2481 85.6307 26.1031 82.7714 26.1031ZM82.7714 34.3006C81.2058 34.3006 79.8589 33.0241 79.8589 31.2076C79.8589 29.3671 81.2058 28.1131 82.7714 28.1131C84.337 28.1131 85.69 29.3671 85.69 31.2076C85.69 33.0241 84.337 34.3006 82.7714 34.3006ZM71.4599 26.1031C68.6006 26.1031 66.2757 28.2481 66.2757 31.2076C66.2757 34.1431 68.6006 36.3106 71.4599 36.3106C74.3178 36.3106 76.6442 34.1431 76.6442 31.2076C76.6442 28.2481 74.3178 26.1031 71.4599 26.1031ZM71.4599 34.3006C69.8928 34.3006 68.5414 33.0241 68.5414 31.2076C68.5414 29.3671 69.8928 28.1131 71.4599 28.1131C73.0255 28.1131 74.3725 29.3671 74.3725 31.2076C74.3725 33.0241 73.0255 34.3006 71.4599 34.3006ZM57.9998 27.6676V29.8366H63.2432C63.0899 31.0486 62.6799 31.9396 62.0512 32.5606C61.2859 33.3106 60.0938 34.1431 57.9998 34.1431C54.7729 34.1431 52.2461 31.5706 52.2461 28.3831C52.2461 25.1956 54.7729 22.6231 57.9998 22.6231C59.7446 22.6231 61.0141 23.2966 61.951 24.1696L63.4984 22.6411C62.1879 21.4051 60.4446 20.4556 57.9998 20.4556C53.5748 20.4556 49.856 24.0121 49.856 28.3831C49.856 32.7541 53.5748 36.3106 57.9998 36.3106C60.3915 36.3106 62.1879 35.5366 63.6001 34.0846C65.0472 32.6551 65.4982 30.6451 65.4982 29.0221C65.4982 28.5181 65.4557 28.0546 65.3798 27.6676H57.9998ZM113.04 29.3491C112.613 28.2076 111.297 26.1031 108.615 26.1031C105.958 26.1031 103.745 28.1716 103.745 31.2076C103.745 34.0666 105.935 36.3106 108.87 36.3106C111.244 36.3106 112.613 34.8811 113.177 34.0486L111.415 32.8891C110.828 33.7381 110.027 34.3006 108.87 34.3006C107.721 34.3006 106.896 33.7801 106.368 32.7541L113.278 29.9296L113.04 29.3491ZM105.994 31.0486C105.935 29.0806 107.541 28.0726 108.692 28.0726C109.594 28.0726 110.36 28.5181 110.615 29.1556L105.994 31.0486ZM100.377 36.0001H102.649V21.0001H100.377V36.0001ZM96.6567 27.2401H96.5808C96.0706 26.6431 95.0972 26.1031 93.8642 26.1031C91.2766 26.1031 88.9108 28.3471 88.9108 31.2241C88.9108 34.0846 91.2766 36.3106 93.8642 36.3106C95.0972 36.3106 96.0706 35.7661 96.5808 35.1511H96.6567V35.8831C96.6567 37.8346 95.6013 38.8831 93.8991 38.8831C92.5112 38.8831 91.6502 37.8931 91.2948 37.0606L89.3192 37.8751C89.8887 39.2281 91.3966 40.8931 93.8991 40.8931C96.5626 40.8931 98.81 39.3451 98.81 35.5786V26.4136H96.6567V27.2401ZM94.0585 34.3006C92.4929 34.3006 91.1824 33.0061 91.1824 31.2241C91.1824 29.4256 92.4929 28.1131 94.0585 28.1131C95.6013 28.1131 96.8177 29.4256 96.8177 31.2241C96.8177 33.0061 95.6013 34.3006 94.0585 34.3006ZM123.676 21.0001H118.242V36.0001H120.508V30.3166H123.676C126.192 30.3166 128.659 28.5181 128.659 25.6576C128.659 22.7986 126.186 21.0001 123.676 21.0001ZM123.735 28.2301H120.508V23.0866H123.735C125.427 23.0866 126.392 24.4741 126.392 25.6576C126.392 26.8186 125.427 28.2301 123.735 28.2301ZM137.74 26.0746C136.103 26.0746 134.401 26.7886 133.701 28.3711L135.711 29.2036C136.144 28.3711 136.94 28.1011 137.781 28.1011C138.957 28.1011 140.149 28.7986 140.167 30.0301V30.1876C139.757 29.9536 138.879 29.6071 137.799 29.6071C135.634 29.6071 133.428 30.7846 133.428 32.9821C133.428 34.9921 135.201 36.2866 137.195 36.2866C138.72 36.2866 139.561 35.6071 140.089 34.8166H140.167V35.9761H142.355V30.2221C142.355 27.5626 140.344 26.0746 137.74 26.0746ZM137.467 34.2946C136.726 34.2946 135.693 33.9316 135.693 33.0241C135.693 31.8631 136.981 31.4176 138.096 31.4176C139.093 31.4176 139.561 31.6351 140.167 31.9216C139.989 33.3106 138.779 34.2946 137.467 34.2946ZM150.327 26.4031L147.723 32.9056H147.646L144.953 26.4031H142.51L146.555 35.4901L144.247 40.5466H146.614L152.848 26.4031H150.327ZM129.905 36.0001H132.176V21.0001H129.905V36.0001Z" fill="white"/>
<defs>
<linearGradient id="paint0_linear_1_4643" x1="26.4826" y1="37.5484" x2="6.34522" y2="17.1624" gradientUnits="userSpaceOnUse">
<stop stop-color="#00A0FF"/>
<stop offset="0.0066" stop-color="#00A1FF"/>
<stop offset="0.2601" stop-color="#00BEFF"/>
<stop offset="0.5122" stop-color="#00D2FF"/>
<stop offset="0.7604" stop-color="#00DFFF"/>
<stop offset="1" stop-color="#00E3FF"/>
</linearGradient>
<linearGradient id="paint1_linear_1_4643" x1="41.1025" y1="23.9984" x2="11.7077" y2="23.9984" gradientUnits="userSpaceOnUse">
<stop stop-color="#FFE000"/>
<stop offset="0.4087" stop-color="#FFBD00"/>
<stop offset="0.7754" stop-color="#FFA500"/>
<stop offset="1" stop-color="#FF9C00"/>
</linearGradient>
<linearGradient id="paint2_linear_1_4643" x1="30.1602" y1="21.2446" x2="2.85228" y2="-6.40038" gradientUnits="userSpaceOnUse">
<stop stop-color="#FF3A44"/>
<stop offset="1" stop-color="#C31162"/>
</linearGradient>
<linearGradient id="paint3_linear_1_4643" x1="8.86485" y1="47.7886" x2="21.0591" y2="35.4439" gradientUnits="userSpaceOnUse">
<stop stop-color="#32A071"/>
<stop offset="0.0685" stop-color="#2DA771"/>
<stop offset="0.4762" stop-color="#15CF74"/>
<stop offset="0.8009" stop-color="#06E775"/>
<stop offset="1" stop-color="#00F076"/>
</linearGradient>
</defs>
</svg>
