<svg width="167" height="52" viewBox="0 0 167 52" fill="none" xmlns="http://www.w3.org/2000/svg">
<g clip-path="url(#clip0_1_6355)">
<path d="M155.235 0H10.4352C10.0577 0 9.68029 0 9.29949 0C8.469 0.0125335 7.64055 0.0890153 6.82096 0.228815C6.00668 0.371952 5.2182 0.643178 4.48273 1.03314C3.74295 1.42568 3.06674 1.93567 2.47853 2.5447C1.89042 3.15404 1.39889 3.8561 1.02214 4.62484C0.64186 5.39903 0.378248 6.22918 0.240504 7.08634C0.102065 7.93532 0.0283488 8.7943 0.020042 9.65531C0 10.054 0 10.4423 0 10.8375V41.1694C0 41.5681 0 41.9564 0.020042 42.3551C0.0286387 43.2161 0.102353 44.075 0.240504 44.9241C0.377056 45.7691 0.637267 46.5875 1.01212 47.3509C1.76985 48.9036 2.98108 50.168 4.47271 50.9634C5.20849 51.354 5.99673 51.6275 6.81094 51.7746C7.63061 51.9133 8.45906 51.9886 9.28947 52C9.67027 52 10.0477 52 10.4252 52H156.565C156.942 52 157.326 52 157.704 52C158.532 51.9894 159.358 51.9141 160.176 51.7746C160.997 51.627 161.793 51.3536 162.537 50.9634C163.28 50.575 163.956 50.0645 164.542 49.4518C165.133 48.8435 165.626 48.1413 166.005 47.3717C166.376 46.6073 166.634 45.7892 166.77 44.9449C166.908 44.0957 166.985 43.237 167 42.3759C167 41.9772 167 41.5889 167 41.1902C167 40.7256 167 40.2611 167 39.8035V12.2381C167 11.7667 167 11.3021 167 10.8514C167 10.4562 167 10.0609 167 9.66918C166.985 8.80809 166.908 7.94937 166.77 7.10021C166.632 6.25623 166.375 5.43826 166.005 4.67338C165.248 3.11611 164.038 1.84513 162.547 1.04007C161.803 0.654113 161.007 0.386484 160.186 0.24615C159.368 0.10559 158.542 0.0291017 157.714 0.0173345C157.336 0.0173345 156.952 0.0173345 156.575 0.0173345L155.235 0Z" fill="black"/>
<path d="M51.8153 32.1855H46.9043L45.7121 35.3832H43.554L48.3561 23.4365H50.3942L55.3052 35.3832H53.0465L51.8153 32.1855ZM47.5297 30.5512H51.1871L49.8777 27.13C49.699 26.6588 49.5203 26.1358 49.3472 25.5638C49.1881 26.0705 49.015 26.5853 48.8307 27.1137L47.5297 30.5512Z" fill="white"/>
<path d="M56.1734 28.6636C56.1734 28.0044 56.1511 27.2781 56.1064 26.4845H58.0608C58.1342 26.858 58.1846 27.2355 58.2116 27.6149C58.5535 27.2151 58.9801 26.8922 59.462 26.6684C59.9439 26.4446 60.4698 26.3252 61.0035 26.3184C61.6292 26.3087 62.2438 26.4814 62.7684 26.8142C63.2931 27.1471 63.7041 27.625 63.949 28.1869C64.2924 28.9594 64.4555 29.7968 64.4264 30.6384C64.4476 31.556 64.2568 32.4665 63.868 33.3023C63.5428 33.9959 63.0117 34.5785 62.3436 34.9747C61.6561 35.3623 60.8732 35.5591 60.0794 35.544C59.4547 35.5436 58.8346 35.4405 58.2451 35.2389V38.9242L56.1567 39.0986L56.1734 28.6636ZM61.6624 33.2042C62.0867 32.6594 62.3017 31.8423 62.3017 30.7528C62.3017 29.7595 62.1249 29.0331 61.7713 28.5737C61.6115 28.3602 61.401 28.1877 61.1578 28.071C60.9147 27.9543 60.6462 27.8969 60.3753 27.9036C59.9851 27.8986 59.6003 27.9924 59.2585 28.176C58.8954 28.3767 58.5651 28.6292 58.2786 28.9251V33.6918C58.5099 33.7982 58.7537 33.8769 59.0045 33.926C59.2742 33.983 59.5493 34.0122 59.8253 34.0132C60.1758 34.0337 60.5261 33.9707 60.8461 33.8298C61.1661 33.6889 61.4463 33.4742 61.6624 33.2042Z" fill="white"/>
<path d="M65.6966 28.6636C65.6966 28.0044 65.6743 27.2781 65.6296 26.4845H67.584C67.6597 26.8578 67.711 27.2353 67.7375 27.6149C68.5509 26.7506 69.4816 26.3184 70.5294 26.3184C71.1552 26.3087 71.7697 26.4814 72.2944 26.8142C72.8191 27.1471 73.2301 27.625 73.4749 28.1869C73.8184 28.9594 73.9815 29.7968 73.9523 30.6384C73.978 31.5549 73.7919 32.4654 73.4079 33.3023C73.0819 33.9963 72.5499 34.5789 71.8807 34.9747C71.1934 35.3626 70.4104 35.5595 69.6165 35.544C68.9918 35.5436 68.3717 35.4405 67.7822 35.2389V38.9242L65.6939 39.0986L65.6966 28.6636ZM71.1939 33.2042C71.6183 32.6467 71.8305 31.8296 71.8305 30.7528C71.8305 29.7595 71.6546 29.0331 71.3028 28.5737C71.143 28.3602 70.9325 28.1877 70.6894 28.071C70.4463 27.9543 70.1777 27.8969 69.9069 27.9036C69.5168 27.8991 69.1321 27.9929 68.7901 28.176C68.427 28.3767 68.0967 28.6292 67.8101 28.9251V33.6918C68.0418 33.7974 68.2855 33.876 68.536 33.926C68.8058 33.983 69.0809 34.0122 69.3568 34.0132C69.7073 34.0332 70.0574 33.9701 70.3774 33.8292C70.6973 33.6883 70.9775 33.4738 71.1939 33.2042Z" fill="white"/>
<path d="M77.7913 34.8194C76.8991 34.342 76.1745 33.6142 75.7114 32.7302C75.2051 31.7314 74.956 30.6273 74.9854 29.5134C74.9492 28.3216 75.2383 27.1419 75.823 26.095C76.351 25.1865 77.144 24.4517 78.1012 23.984C79.1072 23.5045 80.2148 23.2628 81.3343 23.2786C82.0132 23.2757 82.69 23.3525 83.3501 23.5074C83.9674 23.6492 84.5667 23.8575 85.1369 24.1284L84.5953 25.6946C83.6077 25.2086 82.5211 24.9443 81.4153 24.921C80.6347 24.9083 79.8644 25.0962 79.1817 25.4658C78.534 25.8285 78.0134 26.3734 77.688 27.0293C77.3138 27.8071 77.1321 28.6599 77.1576 29.5188C77.1437 30.2927 77.282 31.062 77.5652 31.7851C77.8223 32.4251 78.2744 32.9727 78.8606 33.354C79.5285 33.7617 80.307 33.963 81.0942 33.9314C81.5021 33.9305 81.9092 33.8968 82.3115 33.8307C82.7007 33.7703 83.0831 33.6736 83.4534 33.5419V31.1123H80.6223V29.5297H85.4831V34.5661C84.7779 34.8867 84.0394 35.1324 83.2803 35.2988C82.5276 35.468 81.7577 35.5539 80.9853 35.5548C79.8736 35.5809 78.7738 35.3276 77.7913 34.8194Z" fill="white"/>
<path d="M92.9012 35.3832C92.8222 34.9942 92.7737 34.6 92.756 34.2038C92.4072 34.5997 91.9811 34.9238 91.5024 35.1571C90.962 35.4242 90.3631 35.5588 89.7575 35.5494C89.2619 35.5555 88.7713 35.4521 88.3224 35.247C87.8954 35.0517 87.5385 34.7357 87.2978 34.34C87.0311 33.8916 86.8985 33.3792 86.9153 32.861C86.8996 32.4679 86.978 32.0767 87.1443 31.7183C87.3105 31.36 87.5599 31.0443 87.8729 30.7963C88.5095 30.2806 89.5713 30.0236 91.0585 30.0254C91.6125 30.0252 92.1657 30.0634 92.7141 30.1399V29.9655C92.7141 29.1811 92.5429 28.6272 92.2004 28.304C91.791 27.9603 91.2596 27.7872 90.7207 27.8219C90.238 27.8276 89.7578 27.8916 89.2912 28.0125C88.829 28.1213 88.3784 28.2727 87.9455 28.4647L87.6161 26.9829C88.0895 26.7858 88.5813 26.6335 89.0846 26.5281C89.7176 26.3884 90.3648 26.319 91.0138 26.321C91.7015 26.3027 92.3857 26.4223 93.024 26.6724C93.5855 26.9146 94.0427 27.3404 94.3167 27.8763C94.6593 28.594 94.8193 29.3817 94.7829 30.1725V33.7135C94.7829 34.0767 94.8053 34.6342 94.85 35.3859L92.9012 35.3832ZM91.6504 33.7489C92.0528 33.5665 92.4143 33.3082 92.7141 32.989V31.3547C92.2507 31.3012 91.7848 31.2712 91.3182 31.2648C90.4564 31.2648 89.8598 31.401 89.5285 31.6734C89.3669 31.8066 89.2385 31.9739 89.1529 32.1626C89.0672 32.3514 89.0267 32.5566 89.0344 32.7629C89.0192 32.9411 89.0436 33.1204 89.1057 33.2887C89.1679 33.4569 89.2664 33.6102 89.3945 33.738C89.6667 33.9619 90.0162 34.0759 90.3717 34.0567C90.8164 34.0502 91.2536 33.9449 91.6504 33.7489Z" fill="white"/>
<path d="M96.3966 33.2477V22.7337L98.4738 22.5703V32.8854C98.4443 33.1718 98.5141 33.4595 98.672 33.7026C98.7518 33.7863 98.8501 33.8511 98.9595 33.8922C99.0688 33.9333 99.1863 33.9495 99.303 33.9396C99.4924 33.9316 99.68 33.9005 99.8614 33.847L100.107 35.3069C99.8733 35.393 99.631 35.4551 99.384 35.4921C99.1175 35.5372 98.8476 35.5609 98.5771 35.563C97.1234 35.5539 96.3966 34.7821 96.3966 33.2477Z" fill="white"/>
<path d="M101.592 33.2477V22.7337L103.672 22.5703V32.8854C103.643 33.1718 103.713 33.4595 103.871 33.7026C103.95 33.7863 104.049 33.8511 104.158 33.8922C104.267 33.9333 104.385 33.9495 104.502 33.9396C104.691 33.9316 104.879 33.9005 105.06 33.847L105.303 35.3069C105.07 35.3931 104.829 35.4551 104.583 35.4921C104.315 35.5374 104.044 35.5611 103.773 35.563C102.321 35.5539 101.594 34.7821 101.592 33.2477Z" fill="white"/>
<path d="M113.846 31.194H107.88C107.975 33.0589 108.885 33.9914 110.61 33.9914C111.053 33.9891 111.494 33.938 111.925 33.8388C112.366 33.7389 112.796 33.6022 113.212 33.4303L113.67 34.8249C112.595 35.3191 111.419 35.5669 110.231 35.5494C109.379 35.5734 108.536 35.3859 107.779 35.0046C107.124 34.659 106.598 34.1192 106.277 33.463C105.923 32.7027 105.751 31.8736 105.775 31.0387C105.752 30.1639 105.934 29.2956 106.308 28.5001C106.627 27.8251 107.143 27.2567 107.791 26.8658C108.455 26.4842 109.214 26.29 109.985 26.3047C110.75 26.2784 111.504 26.4849 112.143 26.8958C112.719 27.286 113.166 27.8324 113.427 28.4675C113.715 29.1592 113.857 29.9001 113.846 30.6465V31.194ZM111.811 29.9002C111.815 29.3219 111.618 28.7593 111.252 28.304C111.089 28.125 110.886 27.9834 110.66 27.8892C110.434 27.795 110.189 27.7507 109.943 27.7593C109.696 27.7543 109.45 27.8002 109.222 27.8941C108.994 27.9879 108.789 28.1276 108.62 28.304C108.226 28.7515 107.985 29.3075 107.93 29.8947L111.811 29.9002Z" fill="white"/>
<path d="M115.426 28.7207C115.426 28.2332 115.401 27.4868 115.357 26.4872H117.311C117.344 26.735 117.375 27.0319 117.409 27.3724C117.442 27.7129 117.459 27.9962 117.47 28.2114C117.68 27.8642 117.919 27.5344 118.185 27.2253C118.415 26.9612 118.693 26.7405 119.006 26.5743C119.334 26.4015 119.702 26.3143 120.075 26.321C120.358 26.3143 120.64 26.3482 120.912 26.4218L120.65 28.1868C120.323 28.0945 119.98 28.0711 119.643 28.118C119.306 28.165 118.983 28.2813 118.696 28.4592C118.234 28.7943 117.831 29.201 117.504 29.6632V35.3832H115.426V28.7207Z" fill="white"/>
<path d="M122.074 39.025C121.819 38.9848 121.568 38.9256 121.323 38.8479L121.703 37.3634C121.878 37.4095 122.056 37.4468 122.236 37.4751C122.437 37.5099 122.641 37.5281 122.845 37.5296C123.775 37.5296 124.468 36.9494 124.922 35.789L125.059 35.4595L121.694 26.4872H123.928L125.637 31.5017C125.855 32.1468 126.032 32.8045 126.167 33.4711C126.326 32.8283 126.51 32.1854 126.725 31.5426L128.428 26.4872H130.531L127.18 35.5003C126.928 36.2263 126.583 36.9189 126.156 37.5623C125.83 38.0482 125.384 38.447 124.86 38.7226C124.299 38.9902 123.679 39.121 123.054 39.1039C122.726 39.1052 122.398 39.0788 122.074 39.025Z" fill="white"/>
<path d="M43.554 12.0619H47.2672L47.1639 12.939H44.6372V14.6359H47.0187V15.4531H44.6372V17.3325H47.2979L47.2058 18.2232H43.554V12.0619Z" fill="white"/>
<path d="M49.833 15.0799L47.8787 12.0619H49.1183L50.4472 14.2791L51.8432 12.0619H53.0465L51.0922 15.0418L53.2057 18.2232H51.9493L50.4445 15.799L48.9117 18.2232H47.7084L49.833 15.0799Z" fill="white"/>
<path d="M54.007 12.0619H55.71C56.5085 12.0619 57.1209 12.2208 57.5471 12.5386C57.7591 12.7013 57.9277 12.9116 58.0386 13.1516C58.1494 13.3915 58.1992 13.6541 58.1837 13.9168C58.1955 14.2921 58.0987 14.6631 57.9045 14.9873C57.7149 15.292 57.4384 15.5362 57.1088 15.69C56.7425 15.8589 56.3412 15.9428 55.9362 15.9352C55.655 15.9313 55.3747 15.903 55.0986 15.8507V18.2232H54.007V12.0619ZM56.743 14.813C56.8622 14.7014 56.955 14.5659 57.0153 14.4159C57.0755 14.2659 57.1017 14.1049 57.092 13.9441C57.1062 13.7899 57.0813 13.6347 57.0195 13.4922C56.9576 13.3497 56.8608 13.2242 56.7375 13.1269C56.4232 12.9402 56.0576 12.8527 55.6905 12.8763H55.0986V15.0554C55.3061 15.0918 55.5161 15.1128 55.7268 15.118C56.0928 15.1448 56.4558 15.0359 56.743 14.813Z" fill="white"/>
<path d="M59.2614 12.0619H60.3502V17.3134H62.9634L62.8713 18.2232H59.2614V12.0619Z" fill="white"/>
<path d="M64.6218 17.9208C64.1642 17.6696 63.7945 17.29 63.5608 16.8312C63.3069 16.3228 63.1815 15.7624 63.1951 15.1969C63.1817 14.6061 63.3159 14.0209 63.586 13.4918C63.8335 13.015 64.2227 12.622 64.7027 12.3642C65.2401 12.0896 65.8415 11.9563 66.4477 11.9774C67.0209 11.9624 67.588 12.0948 68.0921 12.3614C68.547 12.6135 68.9137 12.9931 69.1447 13.451C69.3937 13.9541 69.5171 14.5076 69.5048 15.0662C69.52 15.6637 69.3848 16.2557 69.1112 16.7904C68.8612 17.2656 68.4726 17.658 67.9944 17.9181C67.4665 18.192 66.8752 18.329 66.2774 18.3157C65.6993 18.33 65.1278 18.1937 64.6218 17.9208ZM67.4472 17.1663C67.755 16.9673 67.9943 16.6826 68.134 16.3491C68.2907 15.9674 68.3675 15.559 68.3602 15.1479C68.3672 14.7444 68.299 14.3429 68.1591 13.9631C68.0338 13.6341 67.8101 13.3494 67.517 13.1459C67.177 12.943 66.7862 12.8356 66.3877 12.8356C65.9891 12.8356 65.5983 12.943 65.2583 13.1459C64.9497 13.3548 64.7093 13.6461 64.5659 13.9848C64.4071 14.3508 64.3282 14.7451 64.3342 15.1425C64.3275 15.5519 64.4014 15.9587 64.552 16.341C64.6857 16.6906 64.9303 16.9896 65.2501 17.1943C65.5699 17.3991 65.9484 17.499 66.3304 17.4795C66.7268 17.489 67.1166 17.3797 67.4472 17.1663Z" fill="white"/>
<path d="M70.7194 12.0618H72.696C73.2752 12.0218 73.8515 12.1703 74.3349 12.484C74.5204 12.6261 74.668 12.8097 74.7652 13.0193C74.8624 13.2289 74.9063 13.4582 74.8933 13.6879C74.8998 13.9866 74.8308 14.2822 74.6923 14.5487C74.5711 14.7823 74.402 14.989 74.1953 15.1561C74.0106 15.3016 73.8032 15.4175 73.5811 15.4993L75.5354 18.2231H74.2651L72.6207 15.7717H71.8194V18.2231H70.7194V12.0618ZM72.4308 14.9763C72.6733 14.9815 72.9135 14.9301 73.1316 14.8265C73.328 14.7345 73.4935 14.59 73.609 14.4098C73.7242 14.2174 73.7831 13.9979 73.7793 13.7751C73.7906 13.6465 73.7689 13.5172 73.7163 13.3989C73.6636 13.2805 73.5817 13.1767 73.4778 13.0969C73.216 12.937 72.9093 12.8617 72.6011 12.8817H71.811V14.9872L72.4308 14.9763Z" fill="white"/>
<path d="M76.387 12.0619H80.1086L80.0025 12.939H77.4898V14.6359H79.8489V15.4531H77.4674V17.3325H80.1281L80.0472 18.2232H76.387V12.0619Z" fill="white"/>
<path d="M84.1569 12.0619H85.2457V18.2232H84.1569V12.0619Z" fill="white"/>
<path d="M88.1298 12.9499H86.1754L86.2703 12.0619H91.1841L91.0836 12.9499H89.2214V18.2232H88.1298V12.9499Z" fill="white"/>
<path d="M95.9165 17.9208C95.4597 17.6694 95.091 17.2898 94.8584 16.8312C94.6021 16.3235 94.4757 15.7627 94.4898 15.1969C94.4765 14.6061 94.6106 14.0209 94.8807 13.4918C95.129 13.0154 95.518 12.6226 95.9975 12.3642C96.5307 12.0882 97.1279 11.9513 97.7313 11.9665C98.3112 11.9512 98.8847 12.0876 99.3925 12.3614C99.8479 12.6127 100.215 12.9925 100.445 13.451C100.695 13.9539 100.819 14.5074 100.808 15.0662C100.823 15.664 100.687 16.2563 100.412 16.7904C100.162 17.2662 99.7736 17.6588 99.2947 17.918C98.7671 18.1927 98.1756 18.3297 97.5777 18.3157C96.9978 18.331 96.4242 18.1946 95.9165 17.9208ZM98.7447 17.1663C99.051 16.9664 99.2892 16.6819 99.4288 16.3491C99.5854 15.9674 99.6623 15.559 99.6549 15.1479C99.6619 14.7443 99.5938 14.3429 99.4539 13.963C99.3296 13.6342 99.1069 13.3495 98.8145 13.1459C98.4741 12.9427 98.0828 12.8352 97.6838 12.8352C97.2848 12.8352 96.8935 12.9427 96.5531 13.1459C96.2444 13.3548 96.004 13.6461 95.8607 13.9848C95.7031 14.3512 95.6243 14.7452 95.6289 15.1425C95.6222 15.5519 95.6961 15.9587 95.8467 16.3409C95.9799 16.6769 96.2121 16.967 96.514 17.1744C96.8445 17.3873 97.235 17.4939 97.6308 17.4795C98.026 17.4874 98.4144 17.3782 98.7447 17.1663Z" fill="white"/>
<path d="M102.017 12.0619H103.268L106.392 16.8368C106.364 16.3819 106.353 15.9651 106.353 15.5811V12.0619H107.363V18.2232H106.152L102.98 13.3721C103.011 13.9168 103.028 14.4098 103.028 14.8375V18.2232H102.017V12.0619Z" fill="white"/>
<path fill-rule="evenodd" clip-rule="evenodd" d="M28.1984 12.0946H16.6092C11.1454 12.0946 9.14636 14.0449 9.14636 19.3754V30.6902C9.14636 36.0207 11.1454 37.971 16.6092 37.971H28.1984C33.6622 37.971 35.664 36.0207 35.664 30.6902V19.3754C35.6696 14.0449 33.6706 12.0946 28.1984 12.0946Z" fill="#C8102E"/>
<path d="M14.398 25.0327H15.1016V28.4184H14.398V27.0429H12.8094V28.4184H12.1058V25.0327H12.8094V26.3946H14.398V25.0327ZM18.3625 26.9694C18.3625 27.5141 18.0833 27.8137 17.5752 27.8137C17.0671 27.8137 16.7823 27.5141 16.7823 26.9394V25.0327H16.0787V26.9666C16.0787 27.9172 16.6204 28.462 17.564 28.462C18.5077 28.462 19.0661 27.9172 19.0661 26.9367V25.0327H18.3625V26.9694ZM26.4926 27.3589L25.7053 25.0327H25.1274L24.3456 27.3616L23.5778 25.0327H22.8296L24.0385 28.4184H24.622L25.4066 26.1958L26.1939 28.4184H26.783L27.9919 25.0327H27.2604L26.4926 27.3589ZM29.251 26.9585H30.5325V26.3456H29.251V25.6537H31.1105V25.0327H28.5586V28.4103H31.1775V27.8001H29.251V26.9585ZM32.015 28.4103H32.7102V25.0327H32.015V28.4103ZM20.4565 27.7102L20.141 28.413H19.4235L20.9395 25.0327H21.5593L23.0809 28.413H22.355L22.0563 27.713L20.4565 27.7102ZM20.7189 27.1001H21.7771L21.2466 25.8907L20.7189 27.1001Z" fill="white"/>
<path d="M22.4081 20.7264C21.2376 20.7257 20.1153 20.2718 19.2877 19.4643C18.46 18.6569 17.9948 17.5619 17.994 16.42H18.6166C18.6166 17.4011 19.0161 18.3419 19.7271 19.0356C20.4381 19.7293 21.4025 20.119 22.4081 20.119C23.4136 20.119 24.378 19.7293 25.089 19.0356C25.8 18.3419 26.1995 17.4011 26.1995 16.42H26.8221C26.8213 17.5619 26.3561 18.6569 25.5284 19.4643C24.7008 20.2718 23.5785 20.7257 22.4081 20.7264Z" fill="white"/>
</g>
<defs>
<clipPath id="clip0_1_6355">
<rect width="167" height="52" fill="white"/>
</clipPath>
</defs>
</svg>
