<svg width="717" height="201" viewBox="0 0 717 201" fill="none" xmlns="http://www.w3.org/2000/svg">
<g clip-path="url(#clip0_4845_85)">
<path d="M259.834 56.2772H255.924C254.914 56.3434 253.902 56.1933 252.955 55.8369C252.008 55.4804 251.147 54.9258 250.432 54.2102C249.716 53.4946 249.162 52.6345 248.805 51.6873C248.449 50.7401 248.299 49.7278 248.365 48.7179C248.339 47.7171 248.517 46.7214 248.887 45.7912C249.257 44.861 249.813 44.0158 250.52 43.3067C251.227 42.5977 252.07 42.0396 252.999 41.6662C253.928 41.2929 254.923 41.1122 255.924 41.135H259.763V30.8269C259.763 25.0686 263.365 21.2298 268.389 21.2298C273.412 21.2298 277.251 25.0686 277.251 30.8269V41.135H281.99C286.445 41.135 290.261 43.1966 290.261 48.7179C290.261 54.2392 286.445 56.2772 281.99 56.2772H277.251V96.1587C277.251 101.917 273.649 105.78 268.578 105.78C263.507 105.78 259.953 101.917 259.953 96.1587L259.834 56.2772Z" fill="#0055B8"/>
<path d="M296.043 22.1786C296.043 16.4203 299.645 12.6999 304.692 12.6999C309.74 12.6999 313.318 16.5388 313.318 22.2971V45.8279H313.579C317.18 41.3966 323.91 39.8326 329.313 39.8326C342.891 39.8326 353.01 48.4819 353.01 63.1265V96.3018C353.01 102.06 349.408 105.923 344.384 105.923C339.361 105.923 335.711 102.06 335.711 96.3018V65.9938C335.711 57.9606 330.688 54.1454 324.432 54.1454C317.323 54.1454 313.365 59.3113 313.365 65.9938V96.1597C313.365 101.918 309.763 105.781 304.74 105.781C299.716 105.781 296.09 101.918 296.09 96.1597L296.043 22.1786Z" fill="#0055B8"/>
<path d="M376.327 78.1492C377.512 86.68 384.621 90.6374 392.654 90.6374C401.564 90.6374 407.678 83.6468 412.227 83.6468C414.125 83.7925 415.902 84.6359 417.215 86.0143C418.528 87.3928 419.284 89.2085 419.336 91.1113C419.336 98.5521 403.957 105.78 391.114 105.78C371.659 105.78 358.649 91.5615 358.649 72.6042C358.649 55.0686 371.398 39.0971 389.668 39.0971C408.389 39.0971 420.758 56.1587 420.758 70.5663C420.758 75.7321 418.389 78.2677 413.199 78.2677L376.327 78.1492ZM403.483 66.7511C402.512 59.1682 397.701 53.5047 389.668 53.5047C381.635 53.5047 376.777 59.2866 375.972 66.7511H403.483Z" fill="#0055B8"/>
<path d="M1.23505e-05 125.353C1.23505e-05 119.334 2.98579 114.903 9.47868 114.903H39.1469C40.2661 114.829 41.3884 114.991 42.4409 115.379C43.4935 115.766 44.453 116.37 45.2572 117.152C46.0614 117.934 46.6924 118.876 47.1094 119.917C47.5264 120.959 47.72 122.076 47.6777 123.197C47.7019 124.313 47.4959 125.422 47.0726 126.455C46.6494 127.487 46.0179 128.422 45.2175 129.2C44.4171 129.978 43.4651 130.583 42.4206 130.977C41.3762 131.371 40.2618 131.546 39.1469 131.49H18.0095V149.002H37.7014C38.8355 148.912 39.9758 149.062 41.0485 149.44C42.1213 149.819 43.1026 150.418 43.929 151.2C44.7555 151.982 45.4086 152.928 45.8461 153.979C46.2837 155.029 46.496 156.159 46.4692 157.296C46.4745 158.427 46.2477 159.548 45.8027 160.588C45.3578 161.628 44.7042 162.565 43.8824 163.343C43.0606 164.12 42.088 164.721 41.0249 165.107C39.9617 165.494 38.8306 165.658 37.7014 165.59H18.0095V183.836H40.2844C41.4055 183.759 42.5303 183.919 43.5857 184.305C44.6412 184.69 45.6036 185.294 46.4104 186.076C47.2172 186.859 47.8504 187.802 48.2688 188.845C48.6872 189.888 48.8814 191.007 48.8389 192.13C48.8564 193.245 48.645 194.352 48.2176 195.383C47.7902 196.413 47.1559 197.344 46.3541 198.119C45.5522 198.895 44.5998 199.497 43.5558 199.889C42.5118 200.282 41.3983 200.456 40.2844 200.4H9.24172C8.03204 200.47 6.82112 200.287 5.68579 199.864C4.55046 199.441 3.51549 198.786 2.64655 197.941C1.7776 197.097 1.09363 196.081 0.638045 194.958C0.182455 193.836 -0.0348167 192.631 1.23505e-05 191.419V125.353Z" fill="#0055B8"/>
<path d="M54.8815 122.841C54.7532 121.605 54.8941 120.356 55.2945 119.18C55.6949 118.004 56.3453 116.929 57.201 116.028C58.0567 115.127 59.0974 114.423 60.2515 113.963C61.4055 113.502 62.6455 113.298 63.8863 113.362C66.8326 113.626 69.5566 115.039 71.4692 117.296L109.526 168.244H109.787V122.841C109.724 121.621 109.91 120.402 110.334 119.256C110.758 118.11 111.41 117.063 112.251 116.177C113.092 115.292 114.105 114.587 115.227 114.105C116.35 113.623 117.558 113.375 118.78 113.375C120.001 113.375 121.21 113.623 122.332 114.105C123.454 114.587 124.467 115.292 125.308 116.177C126.149 117.063 126.802 118.11 127.225 119.256C127.649 120.402 127.835 121.621 127.773 122.841V191.04C127.901 192.276 127.76 193.525 127.36 194.701C126.959 195.877 126.309 196.952 125.453 197.853C124.597 198.754 123.557 199.459 122.403 199.919C121.249 200.379 120.008 200.584 118.768 200.519C115.835 200.214 113.13 198.798 111.209 196.562L73.128 146.253H72.891V191.04C73.0193 192.276 72.8784 193.525 72.478 194.701C72.0776 195.877 71.4272 196.952 70.5715 197.853C69.7158 198.754 68.6751 199.459 67.5211 199.919C66.367 200.379 65.127 200.584 63.8863 200.519C62.6455 200.584 61.4055 200.379 60.2515 199.919C59.0974 199.459 58.0567 198.754 57.201 197.853C56.3453 196.952 55.6949 195.877 55.2945 194.701C54.8941 193.525 54.7532 192.276 54.8815 191.04V122.841Z" fill="#0055B8"/>
<path d="M155.402 130.731H142.322C141.223 130.791 140.124 130.617 139.099 130.219C138.073 129.822 137.143 129.21 136.372 128.426C135.601 127.641 135.006 126.701 134.626 125.669C134.246 124.636 134.091 123.535 134.17 122.437C134.138 121.351 134.326 120.27 134.722 119.259C135.119 118.248 135.716 117.327 136.477 116.552C137.239 115.777 138.149 115.165 139.153 114.751C140.158 114.337 141.235 114.13 142.322 114.143H186.516C187.605 114.124 188.687 114.325 189.696 114.737C190.704 115.148 191.619 115.76 192.383 116.536C193.148 117.312 193.747 118.235 194.144 119.249C194.54 120.264 194.727 121.349 194.691 122.437C194.767 123.536 194.608 124.638 194.225 125.67C193.843 126.703 193.245 127.642 192.472 128.426C191.699 129.21 190.769 129.821 189.742 130.219C188.715 130.616 187.615 130.791 186.516 130.731H173.435V191.039C173.498 192.262 173.311 193.485 172.886 194.634C172.462 195.782 171.808 196.832 170.964 197.72C170.121 198.608 169.106 199.315 167.98 199.798C166.855 200.281 165.643 200.53 164.419 200.53C163.194 200.53 161.982 200.281 160.857 199.798C159.732 199.315 158.717 198.608 157.873 197.72C157.03 196.832 156.376 195.782 155.951 194.634C155.526 193.485 155.339 192.262 155.402 191.039V130.731Z" fill="#0055B8"/>
<path d="M200.403 125.353C200.403 119.334 203.412 114.903 209.882 114.903H239.573C240.691 114.832 241.81 114.997 242.86 115.386C243.91 115.775 244.866 116.38 245.668 117.161C246.47 117.943 247.098 118.884 247.514 119.923C247.93 120.963 248.123 122.078 248.081 123.197C248.108 124.311 247.905 125.42 247.485 126.453C247.064 127.486 246.435 128.421 245.636 129.199C244.838 129.978 243.887 130.583 242.844 130.977C241.801 131.371 240.687 131.546 239.573 131.49H218.436V149.002H238.104C239.239 148.913 240.381 149.062 241.455 149.44C242.529 149.819 243.511 150.418 244.34 151.199C245.168 151.981 245.823 152.927 246.264 153.977C246.704 155.027 246.919 156.158 246.896 157.296C246.901 158.429 246.674 159.552 246.227 160.594C245.781 161.635 245.125 162.574 244.301 163.352C243.476 164.13 242.501 164.73 241.435 165.115C240.369 165.5 239.235 165.661 238.104 165.59H218.436V183.836H240.64C241.759 183.763 242.881 183.925 243.934 184.312C244.986 184.7 245.946 185.304 246.75 186.086C247.554 186.868 248.185 187.81 248.602 188.851C249.019 189.892 249.213 191.009 249.171 192.13C249.192 193.244 248.983 194.351 248.558 195.381C248.134 196.411 247.502 197.343 246.702 198.118C245.902 198.894 244.951 199.497 243.908 199.889C242.865 200.282 241.753 200.456 240.64 200.4H209.668C208.458 200.47 207.246 200.287 206.109 199.864C204.972 199.441 203.936 198.787 203.065 197.943C202.194 197.098 201.508 196.083 201.05 194.96C200.592 193.837 200.371 192.632 200.403 191.419V125.353Z" fill="#0055B8"/>
<path d="M254.953 123.623C254.806 122.361 254.943 121.083 255.354 119.881C255.764 118.679 256.438 117.584 257.326 116.675C258.214 115.767 259.293 115.068 260.486 114.63C261.678 114.193 262.953 114.027 264.218 114.144H285.332C303.839 114.144 315.237 122.438 315.237 141.301C315.237 154.524 305.261 162.083 293.033 164.002L313.436 185.874C314.881 187.262 315.731 189.157 315.806 191.159C315.829 193.025 315.279 194.854 314.23 196.398C313.182 197.943 311.684 199.128 309.941 199.794C308.197 200.461 306.291 200.577 304.479 200.126C302.668 199.675 301.038 198.679 299.81 197.272L273.199 164.974H272.962V191.04C272.962 192.223 272.729 193.394 272.277 194.486C271.824 195.579 271.161 196.571 270.325 197.408C269.489 198.244 268.496 198.907 267.403 199.359C266.311 199.812 265.14 200.045 263.957 200.045C262.775 200.045 261.604 199.812 260.511 199.359C259.419 198.907 258.426 198.244 257.59 197.408C256.754 196.571 256.091 195.579 255.638 194.486C255.186 193.394 254.953 192.223 254.953 191.04V123.623ZM272.962 152.059H285.332C291.919 152.059 296.493 148.078 296.493 141.348C296.493 134.618 291.919 130.732 285.332 130.732H272.962V152.059Z" fill="#0055B8"/>
<path d="M339.028 130.733H325.9C324.802 130.793 323.703 130.619 322.677 130.221C321.652 129.823 320.722 129.212 319.951 128.427C319.18 127.643 318.585 126.703 318.205 125.671C317.825 124.638 317.67 123.536 317.749 122.439C317.717 121.353 317.905 120.272 318.301 119.261C318.698 118.25 319.294 117.329 320.056 116.554C320.817 115.779 321.728 115.167 322.732 114.753C323.736 114.339 324.814 114.132 325.9 114.145H370.118C371.205 114.129 372.285 114.333 373.291 114.746C374.296 115.158 375.208 115.771 375.97 116.547C376.732 117.322 377.329 118.244 377.725 119.257C378.12 120.27 378.305 121.352 378.27 122.439C378.349 123.536 378.193 124.638 377.814 125.671C377.434 126.703 376.839 127.643 376.068 128.427C375.296 129.212 374.367 129.823 373.341 130.221C372.315 130.619 371.217 130.793 370.118 130.733H357.038V191.041C357.038 192.224 356.805 193.395 356.352 194.487C355.9 195.58 355.236 196.572 354.4 197.408C353.564 198.245 352.572 198.908 351.479 199.36C350.386 199.813 349.216 200.046 348.033 200.046C346.85 200.046 345.68 199.813 344.587 199.36C343.495 198.908 342.502 198.245 341.666 197.408C340.83 196.572 340.166 195.58 339.714 194.487C339.261 193.395 339.028 192.224 339.028 191.041V130.733Z" fill="#0055B8"/>
<path d="M390.426 122.723C391.29 119.946 392.984 117.501 395.281 115.717C397.578 113.933 400.366 112.896 403.27 112.746C406.202 112.796 409.039 113.796 411.354 115.594C413.67 117.393 415.34 119.894 416.114 122.723L439.668 188.054C440.219 189.471 440.539 190.967 440.616 192.486C440.611 193.556 440.389 194.614 439.966 195.597C439.542 196.579 438.925 197.467 438.151 198.205C437.377 198.944 436.462 199.519 435.46 199.896C434.459 200.274 433.391 200.445 432.322 200.4C430.366 200.548 428.42 200.005 426.822 198.867C425.225 197.728 424.077 196.065 423.578 194.168L419.976 182.865H386.564L383.009 194.05C382.534 195.941 381.416 197.609 379.847 198.767C378.278 199.926 376.355 200.503 374.407 200.4C373.272 200.438 372.14 200.251 371.077 199.849C370.015 199.447 369.042 198.838 368.216 198.058C367.39 197.278 366.726 196.342 366.264 195.305C365.801 194.267 365.549 193.148 365.521 192.012C365.53 190.648 365.821 189.301 366.374 188.054L390.426 122.723ZM391.753 166.325H414.55L403.389 131.49H403.152L391.753 166.325Z" fill="#0055B8"/>
<path d="M447.251 122.841C447.251 120.453 448.2 118.163 449.889 116.474C451.577 114.785 453.868 113.836 456.256 113.836C458.644 113.836 460.935 114.785 462.623 116.474C464.312 118.163 465.261 120.453 465.261 122.841V191.04C465.261 193.428 464.312 195.719 462.623 197.408C460.935 199.096 458.644 200.045 456.256 200.045C453.868 200.045 451.577 199.096 449.889 197.408C448.2 195.719 447.251 193.428 447.251 191.04V122.841Z" fill="#0055B8"/>
<path d="M472.678 122.841C472.549 121.605 472.69 120.356 473.091 119.18C473.491 118.004 474.142 116.929 474.997 116.028C475.853 115.127 476.894 114.423 478.048 113.963C479.202 113.502 480.442 113.298 481.682 113.362C484.627 113.631 487.35 115.043 489.265 117.296L527.322 168.125H527.559V122.841C527.497 121.618 527.683 120.395 528.108 119.247C528.533 118.098 529.187 117.048 530.03 116.16C530.874 115.273 531.889 114.566 533.014 114.083C534.139 113.599 535.351 113.35 536.576 113.35C537.8 113.35 539.012 113.599 540.137 114.083C541.263 114.566 542.278 115.273 543.121 116.16C543.965 117.048 544.619 118.098 545.044 119.247C545.468 120.395 545.655 121.618 545.592 122.841V191.04C545.721 192.278 545.58 193.529 545.178 194.707C544.776 195.885 544.124 196.962 543.265 197.863C542.407 198.764 541.363 199.468 540.206 199.927C539.049 200.385 537.807 200.587 536.564 200.519C533.63 200.219 530.923 198.802 529.005 196.562L490.924 146.253H490.687V191.04C490.687 193.428 489.738 195.719 488.05 197.408C486.361 199.096 484.071 200.045 481.682 200.045C479.294 200.045 477.004 199.096 475.315 197.408C473.626 195.719 472.678 193.428 472.678 191.04V122.841Z" fill="#0055B8"/>
<path d="M553.152 125.353C553.152 119.334 556.161 114.903 562.512 114.903H592.417C593.536 114.829 594.659 114.991 595.711 115.379C596.764 115.766 597.723 116.37 598.527 117.152C599.332 117.934 599.963 118.876 600.38 119.917C600.797 120.959 600.99 122.076 600.948 123.197C600.972 124.313 600.766 125.422 600.343 126.455C599.92 127.487 599.288 128.422 598.488 129.2C597.687 129.978 596.735 130.583 595.691 130.977C594.646 131.371 593.532 131.546 592.417 131.49H571.09V149.002H590.758C591.893 148.916 593.032 149.068 594.105 149.448C595.177 149.828 596.158 150.427 596.986 151.208C597.813 151.988 598.469 152.933 598.91 153.981C599.352 155.03 599.57 156.159 599.55 157.296C599.555 158.429 599.328 159.552 598.881 160.594C598.435 161.635 597.779 162.574 596.955 163.352C596.131 164.13 595.155 164.73 594.089 165.115C593.023 165.5 591.889 165.661 590.758 165.59H571.09V183.836H593.294C594.413 183.763 595.535 183.925 596.588 184.312C597.64 184.7 598.6 185.304 599.404 186.086C600.208 186.868 600.839 187.81 601.256 188.851C601.673 189.892 601.867 191.009 601.825 192.13C601.846 193.244 601.637 194.351 601.212 195.381C600.788 196.411 600.156 197.343 599.356 198.118C598.556 198.894 597.605 199.497 596.562 199.889C595.519 200.282 594.407 200.456 593.294 200.4H562.417C561.206 200.47 559.994 200.287 558.858 199.864C557.721 199.441 556.685 198.787 555.814 197.943C554.943 197.098 554.257 196.083 553.799 194.96C553.341 193.837 553.12 192.632 553.152 191.419V125.353Z" fill="#0055B8"/>
<path d="M608.317 123.623C608.167 122.363 608.3 121.085 608.708 119.882C609.116 118.68 609.787 117.584 610.673 116.676C611.56 115.767 612.638 115.068 613.829 114.63C615.021 114.192 616.295 114.026 617.559 114.144H638.697C657.18 114.144 668.602 122.438 668.602 141.301C668.602 154.524 658.649 162.083 646.398 164.002L666.801 185.874C668.246 187.262 669.096 189.157 669.171 191.159C669.188 193.02 668.636 194.842 667.588 196.38C666.541 197.919 665.048 199.1 663.309 199.765C661.571 200.431 659.671 200.549 657.863 200.103C656.056 199.657 654.429 198.67 653.199 197.272L626.588 164.974H626.327V191.04C626.327 193.428 625.378 195.719 623.689 197.408C622.001 199.096 619.71 200.045 617.322 200.045C614.934 200.045 612.644 199.096 610.955 197.408C609.266 195.719 608.317 193.428 608.317 191.04V123.623ZM626.327 152.059H638.697C645.308 152.059 649.858 148.078 649.858 141.348C649.858 134.618 645.308 130.732 638.697 130.732H626.327V152.059Z" fill="#0055B8"/>
<path d="M675.213 118.884H671.066C670.749 118.909 670.43 118.865 670.131 118.754C669.832 118.644 669.561 118.47 669.335 118.245C669.11 118.02 668.936 117.748 668.826 117.45C668.716 117.151 668.672 116.832 668.697 116.514C668.668 116.196 668.709 115.875 668.818 115.574C668.926 115.273 669.1 115 669.326 114.774C669.552 114.548 669.825 114.374 670.126 114.265C670.427 114.157 670.748 114.115 671.066 114.144H685.64C685.959 114.111 686.282 114.149 686.585 114.256C686.888 114.364 687.163 114.537 687.39 114.764C687.617 114.991 687.79 115.266 687.898 115.569C688.005 115.872 688.043 116.195 688.009 116.514C688.039 116.833 687.997 117.154 687.889 117.454C687.78 117.755 687.606 118.028 687.38 118.254C687.154 118.48 686.881 118.654 686.58 118.763C686.279 118.872 685.958 118.913 685.64 118.884H681.493V132.604C681.531 133.039 681.478 133.478 681.337 133.891C681.197 134.305 680.971 134.685 680.676 135.007C680.381 135.329 680.022 135.586 679.622 135.762C679.222 135.938 678.79 136.029 678.353 136.029C677.916 136.029 677.484 135.938 677.084 135.762C676.684 135.586 676.325 135.329 676.03 135.007C675.735 134.685 675.51 134.305 675.369 133.891C675.228 133.478 675.175 133.039 675.213 132.604V118.884ZM691.043 117.083C691.043 115.306 692.133 113.836 695.474 113.836C697.417 113.836 698.839 114.144 700.213 117.083L703.934 126.562L707.654 117.083C708.957 114.144 710.379 113.836 712.393 113.836C715.735 113.836 716.825 115.306 716.825 117.083V132.604C716.825 134.5 716.256 135.756 714.005 135.756C711.754 135.756 711.185 134.5 711.185 132.604V121.751H710.9L707.133 132.675C706.493 134.453 705.995 135.827 703.839 135.827C701.682 135.827 701.161 134.5 700.545 132.675L696.682 121.751V132.675C696.682 134.571 696.114 135.827 693.863 135.827C691.611 135.827 691.043 134.571 691.043 132.675V117.083Z" fill="#0055B8"/>
</g>
<defs>
<clipPath id="clip0_4845_85">
<rect width="716.682" height="200" fill="white" transform="translate(0 0.400391)"/>
</clipPath>
</defs>
</svg>
